0
SECTION
2
HEADER
9
$INSUNITS
70
4
9
$ACADVER
1
AC1014
9
$HANDSEED
5
FFFF
0
ENDSEC
0
SECTION
2
TABLES
0
TABLE
2
VPORT
5
8
100
AcDbSymbolTable
0
ENDTAB
0
TABLE
2
LTYPE
5
5
100
AcDbSymbolTable
0
LTYPE
5
14
100
AcDbSymbolTableRecord
100
AcDbLinetypeTableRecord
2
BYBLOCK
70
0
0
LTYPE
5
15
100
AcDbSymbolTableRecord
100
AcDbLinetypeTableRecord
2
BYLAYER
70
0
0
ENDTAB
0
TABLE
2
LAYER
5
2
100
AcDbSymbolTable
70
2
0
LAYER
5
50
100
AcDbSymbolTableRecord
100
AcDbLayerTableRecord
2
0
70
0
6
CONTINUOUS
0
ENDTAB
0
TABLE
2
STYLE
5
3
100
AcDbSymbolTable
70
1
0
STYLE
5
11
100
AcDbSymbolTableRecord
100
AcDbTextStyleTableRecord
2
STANDARD
70
0
0
ENDTAB
0
TABLE
2
VIEW
5
6
100
AcDbSymbolTable
70
0
0
ENDTAB
0
TABLE
2
UCS
5
7
100
AcDbSymbolTable
70
0
0
ENDTAB
0
TABLE
2
APPID
5
9
100
AcDbSymbolTable
70
2
0
APPID
5
12
100
AcDbSymbolTableRecord
100
AcDbRegAppTableRecord
2
ACAD
70
0
0
ENDTAB
0
TABLE
2
DIMSTYLE
5
A
100
AcDbSymbolTable
70
1
0
ENDTAB
0
TABLE
2
BLOCK_RECORD
5
1
100
AcDbSymbolTable
70
1
0
BLOCK_RECORD
5
1F
100
AcDbSymbolTableRecord
100
AcDbBlockTableRecord
2
*MODEL_SPACE
0
BLOCK_RECORD
5
1B
100
AcDbSymbolTableRecord
100
AcDbBlockTableRecord
2
*PAPER_SPACE
0
ENDTAB
0
ENDSEC
0
SECTION
2
BLOCKS
0
BLOCK
5
20
100
AcDbEntity
100
AcDbBlockBegin
2
*MODEL_SPACE
0
ENDBLK
5
21
100
AcDbEntity
100
AcDbBlockEnd
0
BLOCK
5
1C
100
AcDbEntity
100
AcDbBlockBegin
2
*PAPER_SPACE
0
ENDBLK
5
1D
100
AcDbEntity
100
AcDbBlockEnd
0
ENDSEC
0
SECTION
2
ENTITIES
0
LWPOLYLINE
5
100
100
AcDbEntity
8
0
100
AcDbPolyline
90
8
70
1
43
0.0
10
-6.3000000000839398
20
-7.5247231749721983
10
6.299999999916059
20
-7.5247231749721983
42
0.41421356237309176
10
6.49999999991606
20
-7.324723174972199
10
6.49999999991606
20
27.275276825027799
42
0.41421356237309992
10
6.2999999999160607
20
27.475276825027805
10
-6.3000000000839407
20
27.475276825027805
42
0.41421356237309509
10
-6.5000000000839409
20
27.275276825027802
10
-6.5000000000839409
20
-7.324723174972199
42
0.41421356237309509
0
LWPOLYLINE
5
101
100
AcDbEntity
8
0
100
AcDbPolyline
90
8
70
1
43
0.0
10
-92.799999833974965
20
89.168448052850451
10
-93.899999833958375
20
89.168448052850493
42
0.41421356237304296
10
-94.099999833971282
20
88.968448052837573
10
-94.099999833971282
20
86.368448052846333
42
0.41421356237293888
10
-93.899999833975357
20
86.168448052850408
10
-92.799999833971242
20
86.168448052850408
42
0.414213562373069
10
-92.59999983397131
20
86.368448052850255
10
-92.599999833971296
20
88.968448052846654
42
0.41421356237317308
0
LWPOLYLINE
5
102
100
AcDbEntity
8
0
100
AcDbPolyline
90
8
70
1
43
0.0
10
-90.399999833969801
20
86.168448052850351
10
-89.299999833971299
20
86.168448052850337
42
0.414213562373069
10
-89.099999833971339
20
86.368448052850312
10
-89.099999833971339
20
88.96844805285086
42
0.414213562373069
10
-89.29999983397083
20
89.16844805285038
10
-90.399999833971521
20
89.168448052850394
42
0.41421356237335516
10
-90.599999833971694
20
88.968448052850292
10
-90.599999833971339
20
86.36844805285196
42
0.414213562373069
0
LWPOLYLINE
5
103
100
AcDbEntity
8
0
100
AcDbPolyline
90
8
70
1
43
0.0
10
-95.099999833970912
20
84.71844805285221
10
-95.099999833969633
20
83.61844805284872
42
0.41421356237265278
10
-94.899999833972601
20
83.418448052851971
10
-88.299999833969892
20
83.418448052851858
42
0.41421356237280893
10
-88.099999833970884
20
83.618448052850766
10
-88.099999833969747
20
84.718448052849965
42
0.41421356237338125
10
-88.299999833971512
20
84.918448052851957
10
-94.899999833971293
20
84.918448052852028
42
0.41421356237348528
0
LWPOLYLINE
5
104
100
AcDbEntity
8
0
100
AcDbPolyline
90
8
70
1
43
0.0
10
3.500000000175211
20
84.968448052852239
42
0.41421356237330315
10
3.3000000001757304
20
85.168448052852057
10
-3.2999999998242888
20
85.168448052852014
42
0.41421356237338125
10
-3.4999999998260432
20
84.968448052849965
10
-3.4999999998248885
20
83.868448052850766
42
0.41421356237273083
10
-3.2999999998259231
20
83.668448052852
10
3.3000000001769028
20
83.668448052851986
42
0.41421356237265278
10
3.5000000001739853
20
83.868448052848734
0
CIRCLE
5
105
100
AcDbEntity
8
0
100
AcDbCircle
10
1.7500000001736493
20
88.168448052644692
30
0
40
0.99999999999999978
210
0
220
0
230
1
0
CIRCLE
5
106
100
AcDbEntity
8
0
100
AcDbCircle
10
-1.7499999998254234
20
88.168448053056153
30
0
40
1
210
0
220
0
230
1
0
LWPOLYLINE
5
107
100
AcDbEntity
8
0
100
AcDbPolyline
90
8
70
1
43
0.0
10
93.899999833975357
20
86.168448052850408
10
92.799999833971242
20
86.168448052850351
42
-0.414213562373069
10
92.59999983397131
20
86.368448052850255
10
92.599999833971225
20
88.968448052846654
42
-0.41421356237317308
10
92.799999833974965
20
89.168448052850451
10
93.899999833958375
20
89.168448052850522
42
-0.41421356237304296
10
94.099999833971282
20
88.968448052837573
10
94.099999833971168
20
86.368448052846333
42
-0.41421356237293888
0
LWPOLYLINE
5
108
100
AcDbEntity
8
0
100
AcDbPolyline
90
8
70
1
43
0.0
10
90.399999833969801
20
86.168448052850351
10
89.299999833971299
20
86.168448052850337
42
-0.414213562373069
10
89.099999833971339
20
86.368448052850312
10
89.099999833971339
20
88.96844805285086
42
-0.414213562373069
10
89.29999983397083
20
89.16844805285038
10
90.399999833971521
20
89.168448052850295
42
-0.41421356237335516
10
90.599999833971694
20
88.968448052850292
10
90.599999833971424
20
86.36844805285196
42
-0.414213562373069
0
LWPOLYLINE
5
109
100
AcDbEntity
8
0
100
AcDbPolyline
90
8
70
1
43
0.0
10
95.099999833970912
20
84.71844805285221
10
95.099999833969605
20
83.61844805284872
42
-0.41421356237265278
10
94.899999833972601
20
83.418448052851971
10
88.299999833969892
20
83.418448052851943
42
-0.41421356237280893
10
88.099999833970884
20
83.618448052850766
10
88.099999833969719
20
84.718448052849965
42
-0.41421356237338125
10
88.299999833971512
20
84.918448052851957
10
94.899999833971293
20
84.918448052852085
42
-0.41421356237348528
0
LWPOLYLINE
5
110
100
AcDbEntity
8
0
100
AcDbPolyline
90
60
70
1
43
0.0
10
-20
20
-17.524754266721487
10
-6.499999999999968
20
-17.524754266721576
10
-6.499999999999968
20
-14.524754266721569
10
-4.9999999999999645
20
-14.524754266721569
10
-4.9999999999999645
20
-24.524754266721569
10
5.0000000000000355
20
-24.524754266721569
10
5.0000000000000355
20
-14.524754266721569
10
6.5000000000000391
20
-14.524754266721569
10
6.5000000000000391
20
-17.524754266721576
10
20
20
-17.524754266721484
10
58.293624518899605
20
-9.385193105101461
10
85.099999999999994
20
-9.3851931051015036
10
85.099999999999994
20
-6.3851931051014965
10
86.599999999999994
20
-6.3851931051014965
10
86.599999999999994
20
-16.385193105101497
10
96.599999999999994
20
-16.385193105101497
10
96.599999999999994
20
-6.3851931051014965
10
98.100000000000009
20
-6.3851931051014965
10
98.100000000000009
20
-9.3851931051015036
10
105.99999997370742
20
-9.3851931051015018
10
107.9999999737074
20
-7.3851931051015107
10
107.99999997368755
20
84.668448052850422
10
105.99999997368755
20
86.668448052850408
10
98.100000000000009
20
86.668448052850408
10
98.100000000000009
20
83.668448052850408
10
96.599999999999994
20
83.668448052850408
10
96.599999999999994
20
93.668448052850408
10
86.599999999999994
20
93.668448052850408
10
86.599999999999994
20
83.668448052850408
10
85.099999999999994
20
83.668448052850408
10
85.099999999999994
20
86.668448052850408
10
6.5
20
86.668448052850408
10
6.5
20
83.668448052850408
10
5
20
83.668448052850408
10
5
20
93.668448052850408
10
-5
20
93.668448052850408
10
-5
20
83.668448052850408
10
-6.5
20
83.668448052850408
10
-6.5
20
86.668448052850408
10
-85.099999999999994
20
86.668448052850408
10
-85.099999999999994
20
83.668448052850408
10
-86.599999999999994
20
83.668448052850408
10
-86.599999999999994
20
93.668448052850408
10
-96.599999999999994
20
93.668448052850408
10
-96.599999999999994
20
83.668448052850408
10
-98.100000000000009
20
83.668448052850408
10
-98.100000000000009
20
86.668448052850408
10
-105.99999997368755
20
86.668448052850408
10
-107.99999997368755
20
84.668448052850422
10
-107.9999999737074
20
-7.385193105101493
10
-105.99999997370742
20
-9.3851931051014859
10
-98.100000000000009
20
-9.3851931051015214
10
-98.100000000000009
20
-6.3851931051014787
10
-96.599999999999994
20
-6.3851931051014787
10
-96.599999999999994
20
-16.385193105101479
10
-86.599999999999994
20
-16.385193105101479
10
-86.599999999999994
20
-6.3851931051014787
10
-85.099999999999994
20
-6.3851931051014787
10
-85.099999999999994
20
-9.3851931051015214
10
-58.293624518899605
20
-9.3851931051014503
0
CIRCLE
5
111
100
AcDbEntity
8
0
100
AcDbCircle
10
-91.599999999999994
20
-14.1351931051015
30
0
40
1.25
210
0
220
0
230
1
0
CIRCLE
5
112
100
AcDbEntity
8
0
100
AcDbCircle
10
3.5527136788005009e-14
20
-22.274754266721573
30
0
40
1.25
210
0
220
0
230
1
0
CIRCLE
5
113
100
AcDbEntity
8
0
100
AcDbCircle
10
91.599999999999994
20
-14.1351931051015
30
0
40
1.25
210
0
220
0
230
1
0
LWPOLYLINE
5
114
100
AcDbEntity
8
0
100
AcDbPolyline
90
20
70
1
43
0.0
10
19.203877748346454
20
9.7047834956862999
10
34.309800559237054
20
12.915646508864286
10
37.024049500497455
20
15.537259121615811
10
51.441832719693764
20
18.601853549074377
10
54.112624619476328
20
20.201141985423941
10
68.473945067326
20
22.733430259100324
10
71.270369473189277
20
21.822604262889193
10
85.843559642462296
20
23.354308270744877
10
88.47906098837305
20
20.460045255982557
10
103.0000000000514
20
20.460045255989701
42
0.99999999999999989
10
103.0000000000509
20
21.460045255989698
10
88.920939012014827
20
21.46004525598277
10
86.242262997702369
20
24.401721961549541
10
71.377605063912668
20
22.839383457205074
10
68.546211295964568
20
23.761599356891153
10
53.757222259345724
20
21.153901572209669
10
51.070994524168007
20
19.545370052168384
10
36.535608768915395
20
16.455778434006241
10
33.82135982765044
20
13.834165821250322
10
18.995966057550852
20
10.682931096424815
42
0.99999998946328772
0
LWPOLYLINE
5
115
100
AcDbEntity
8
0
100
AcDbPolyline
90
22
70
1
43
0.0
10
8.3726413106637061
20
65.471478907899083
10
7.394493709940634
20
65.263567217083249
42
0.99999999999999989
10
7.6024054007587347
20
64.285419616349515
10
8.5805530014818068
20
64.493331307165363
10
22.708328213677596
20
67.496282630276269
10
25.422577153345042
20
70.117895241757935
10
39.929506695127721
20
73.201438304968391
10
43.992705853550433
20
78.123812043251746
10
58.262565547668039
20
80.63997331740147
10
65.332291578839005
20
78.311357627827633
10
80.030438536610632
20
79.856195123653592
10
88.599334116636811
20
76.260045296502042
10
102.99999999994648
20
76.260045296502028
42
0.99999999999999989
10
102.99999999994648
20
77.260045296502028
10
88.800665882868799
20
77.260045296502028
10
80.180950629445547
20
80.877522861632883
10
65.441249484448278
20
79.328317844736461
10
58.33656513369548
20
81.668448052850408
10
43.456115331608743
20
79.044623268548293
10
39.380375864087192
20
74.107057538494075
10
24.934136421737389
20
71.036414554144073
10
22.219887482056116
20
68.414801942649049
0
CIRCLE
5
116
100
AcDbEntity
8
0
100
AcDbCircle
10
91.599999999999994
20
91.418448052850408
30
0
40
1.25
210
0
220
0
230
1
0
CIRCLE
5
117
100
AcDbEntity
8
0
100
AcDbCircle
10
0
20
91.418448052850408
30
0
40
1.25
210
0
220
0
230
1
0
LWPOLYLINE
5
118
100
AcDbEntity
8
0
100
AcDbPolyline
90
22
70
1
43
0.0
10
-8.5805530014818068
20
64.493331307165363
10
-7.6024054007587347
20
64.285419616349515
42
0.99999999999999989
10
-7.394493709940634
20
65.263567217083249
10
-8.3726413106637061
20
65.471478907899083
10
-22.219887482056116
20
68.414801942649035
10
-24.934136421737389
20
71.036414554144073
10
-39.380375864087192
20
74.107057538494075
10
-43.456115331608743
20
79.044623268548293
10
-58.33656513369548
20
81.668448052850408
10
-65.441249484448278
20
79.328317844736461
10
-80.180950629445547
20
80.877522861632883
10
-88.800665882868799
20
77.260045296502028
10
-102.99999999994648
20
77.260045296502028
42
0.99999999999999989
10
-102.99999999994648
20
76.260045296502028
10
-88.599334116636811
20
76.260045296502028
10
-80.030438536610632
20
79.856195123653606
10
-65.332291578839005
20
78.311357627827633
10
-58.262565547668039
20
80.63997331740147
10
-43.992705853550433
20
78.123812043251746
10
-39.929506695127721
20
73.201438304968391
10
-25.422577153345042
20
70.117895241757935
10
-22.708328213677596
20
67.496282630276283
0
CIRCLE
5
119
100
AcDbEntity
8
0
100
AcDbCircle
10
-91.599999999999994
20
91.418448052850408
30
0
40
1.25
210
0
220
0
230
1
0
LWPOLYLINE
5
120
100
AcDbEntity
8
0
100
AcDbPolyline
90
20
70
1
43
0.0
10
-18.995966057550852
20
10.682931096424824
10
-33.82135982765044
20
13.83416582125033
10
-36.535608768915395
20
16.455778434006234
10
-51.070994524168007
20
19.545370052168387
10
-53.757222259345724
20
21.153901572209666
10
-68.546211295964568
20
23.76159935689115
10
-71.377605063912668
20
22.839383457205074
10
-86.242262997702369
20
24.401721961549541
10
-88.920939012014827
20
21.460045255982774
10
-103.0000000000509
20
21.460045255989701
42
0.99999999999999989
10
-103.0000000000514
20
20.460045255989705
10
-88.47906098837305
20
20.460045255982564
10
-85.843559642462296
20
23.354308270744877
10
-71.270369473189277
20
21.8226042628892
10
-68.473945067326
20
22.73343025910032
10
-54.112624619476328
20
20.201141985423945
10
-51.441832719693764
20
18.601853549074381
10
-37.024049500497455
20
15.537259121615818
10
-34.309800559237054
20
12.915646508864285
10
-19.203877748346454
20
9.7047834956862999
42
0.99999999999999989
0
ENDSEC
0
SECTION
2
OBJECTS
0
DICTIONARY
5
C
100
AcDbDictionary
3
ACAD_GROUP
350
D
3
ACAD_MLINESTYLE
350
17
0
DICTIONARY
5
D
100
AcDbDictionary
0
DICTIONARY
5
1A
330
C
100
AcDbDictionary
0
DICTIONARY
5
17
100
AcDbDictionary
0
ENDSEC
0
EOF
