0
SECTION
2
HEADER
9
$INSUNITS
70
4
9
$ACADVER
1
AC1014
9
$HANDSEED
5
FFFF
0
ENDSEC
0
SECTION
2
TABLES
0
TABLE
2
VPORT
5
8
100
AcDbSymbolTable
0
ENDTAB
0
TABLE
2
LTYPE
5
5
100
AcDbSymbolTable
0
LTYPE
5
14
100
AcDbSymbolTableRecord
100
AcDbLinetypeTableRecord
2
BYBLOCK
70
0
0
LTYPE
5
15
100
AcDbSymbolTableRecord
100
AcDbLinetypeTableRecord
2
BYLAYER
70
0
0
ENDTAB
0
TABLE
2
LAYER
5
2
100
AcDbSymbolTable
70
2
0
LAYER
5
50
100
AcDbSymbolTableRecord
100
AcDbLayerTableRecord
2
0
70
0
6
CONTINUOUS
0
ENDTAB
0
TABLE
2
STYLE
5
3
100
AcDbSymbolTable
70
1
0
STYLE
5
11
100
AcDbSymbolTableRecord
100
AcDbTextStyleTableRecord
2
STANDARD
70
0
0
ENDTAB
0
TABLE
2
VIEW
5
6
100
AcDbSymbolTable
70
0
0
ENDTAB
0
TABLE
2
UCS
5
7
100
AcDbSymbolTable
70
0
0
ENDTAB
0
TABLE
2
APPID
5
9
100
AcDbSymbolTable
70
2
0
APPID
5
12
100
AcDbSymbolTableRecord
100
AcDbRegAppTableRecord
2
ACAD
70
0
0
ENDTAB
0
TABLE
2
DIMSTYLE
5
A
100
AcDbSymbolTable
70
1
0
ENDTAB
0
TABLE
2
BLOCK_RECORD
5
1
100
AcDbSymbolTable
70
1
0
BLOCK_RECORD
5
1F
100
AcDbSymbolTableRecord
100
AcDbBlockTableRecord
2
*MODEL_SPACE
0
BLOCK_RECORD
5
1B
100
AcDbSymbolTableRecord
100
AcDbBlockTableRecord
2
*PAPER_SPACE
0
ENDTAB
0
ENDSEC
0
SECTION
2
BLOCKS
0
BLOCK
5
20
100
AcDbEntity
100
AcDbBlockBegin
2
*MODEL_SPACE
0
ENDBLK
5
21
100
AcDbEntity
100
AcDbBlockEnd
0
BLOCK
5
1C
100
AcDbEntity
100
AcDbBlockBegin
2
*PAPER_SPACE
0
ENDBLK
5
1D
100
AcDbEntity
100
AcDbBlockEnd
0
ENDSEC
0
SECTION
2
ENTITIES
0
LWPOLYLINE
5
100
100
AcDbEntity
8
0
100
AcDbPolyline
90
156
70
1
43
0.0
10
-1.5000000000020166
20
-22.524754266719551
10
-3.6096117967982351
20
-22.524754266723193
42
-0.34415073140951608
10
-4.0946830468718138
20
-22.146022079241156
10
-5.9526584765647268
20
-14.714120360456299
42
0.34415073140903163
10
-6.1951941016010856
20
-14.524754266715282
10
-7.1798058983988335
20
-14.524754266715282
42
0.48792836492644864
10
-7.4223415234351737
20
-14.835388172974335
10
-6.8276584765634212
20
-17.214120360462559
42
-0.48792836492644631
10
-7.0701941015997622
20
-17.524754266721612
10
-19.894895764734329
20
-17.524754266721487
42
-0.052407779283042723
10
-20.102807455552075
20
-17.502901867455293
10
-58.190817063347531
20
-9.4070455043676446
42
0.052407779283024543
10
-58.398728754165262
20
-9.3851931051014503
10
-84.529805898398891
20
-9.3851931051011697
42
-0.48792836492649999
10
-84.772341523435216
20
-9.0745591988420777
10
-84.177658476564844
20
-6.6958270113609499
42
0.4879283649265026
10
-84.420194101601169
20
-6.3851931051018536
10
-85.40480589839899
20
-6.3851931051018553
42
0.34415073140883795
10
-85.647341523435301
20
-6.5745591988427385
10
-87.505316953130858
20
-14.006460917620242
42
-0.34415073140904562
10
-87.99038820320375
20
-14.385193105101994
10
-90.099999999999994
20
-14.385193105100957
42
-0.41421356237320694
10
-90.349999999999895
20
-14.135193105100752
10
-90.349999999996072
20
-9.3851931051008286
42
0.99999999999999989
10
-92.849999999998744
20
-9.3851931050998232
10
-92.850000000002538
20
-14.135193105099468
42
-0.41421356237231721
10
-93.100000000002126
20
-14.385193105099269
10
-95.209611796798328
20
-14.385193105102896
42
-0.34415073140950686
10
-95.694683046871901
20
-14.006460917620862
10
-97.552658476564815
20
-6.5745591988360026
42
0.34415073140908364
10
-97.795194101601169
20
-6.3851931050949826
10
-98.779805898398919
20
-6.3851931050949817
42
0.4879283649263953
10
-99.022341523435259
20
-6.6958270113540372
10
-98.427658476563508
20
-9.074559198842314
42
-0.48792836492636527
10
-98.670194101599847
20
-9.3851931051013811
10
-105.58578640928708
20
-9.3851931051014823
42
-0.19891236737966861
10
-106.29289319047365
20
-9.0922998862880196
10
-107.70710675284663
20
-7.6780863239150339
42
-0.19891236737974075
10
-107.99999997166009
20
-6.9709795427282728
10
-107.99999997164039
20
84.254234490477444
42
-0.19891236737960258
10
-107.70710675282695
20
84.96134127166377
10
-106.29289319045378
20
86.375554834036947
42
-0.19891236737964033
10
-105.5857864092672
20
86.668448052850394
10
-98.670194101599805
20
86.668448052850252
42
-0.48792836492648062
10
-98.427658476563451
20
86.35781414659121
10
-99.022341523435188
20
83.979081959103183
42
0.48792836492650737
10
-98.779805898398862
20
83.668448052844127
10
-97.795194101601112
20
83.668448052844127
42
0.3441507314089825
10
-97.552658476564758
20
83.857814146585127
10
-95.694683046871859
20
91.289715865369999
42
-0.34415073140954994
10
-95.209611796798271
20
91.668448052852028
10
-93.100000000002012
20
91.66844805284839
42
-0.41421356237234586
10
-92.850000000002453
20
91.418448052848618
10
-92.849999999997905
20
86.668448052848959
42
0.99999999999999989
10
-90.349999999995248
20
86.668448052849953
10
-90.349999999999767
20
91.41844805284984
42
-0.4142135623731783
10
-90.099999999999895
20
91.668448052850081
10
-87.990388203203693
20
91.668448052851119
42
-0.34415073140897945
10
-87.505316953130801
20
91.289715865369359
10
-85.647341523435259
20
83.857814146591863
42
0.34415073140889629
10
-85.404805898398934
20
83.668448052850962
10
-84.420194101601126
20
83.668448052850977
42
0.48792836492650132
10
-84.177658476564801
20
83.979081959110076
10
-84.772341523435159
20
86.357814146591195
42
-0.48792836492649599
10
-84.52980589839882
20
86.668448052850309
10
-7.0701941015998031
20
86.668448052850252
42
-0.48792836492644504
10
-6.8276584765634682
20
86.357814146591195
10
-7.4223415234352039
20
83.979081959103183
42
0.48792836492649405
10
-7.1798058983988655
20
83.668448052844099
10
-6.1951941016011212
20
83.668448052844127
42
0.34415073140899144
10
-5.9526584765647597
20
83.857814146585127
10
-4.0946830468718707
20
91.289715865369971
42
-0.34415073140951147
10
-3.6096117967982848
20
91.668448052852014
10
-1.5000000000020173
20
91.66844805284839
42
-0.41421356237231949
10
-1.2500000000024447
20
91.418448052848618
10
-1.2499999999979063
20
86.668448052848959
42
0.99999999999999989
10
1.2500000000047709
20
86.668448052849953
10
1.2500000000002349
20
91.41844805284984
42
-0.41421356237316981
10
1.5000000000001068
20
91.668448052850081
10
3.6096117967963064
20
91.668448052851119
42
-0.34415073140896951
10
4.0946830468691999
20
91.289715865369359
10
5.9526584765647499
20
83.857814146591863
42
0.34415073140892788
10
6.195194101601075
20
83.668448052850977
10
7.1798058983988833
20
83.668448052850977
42
0.4879283649264986
10
7.4223415234352155
20
83.979081959110076
10
6.8276584765648209
20
86.357814146591195
42
-0.48792836492653685
10
7.0701941016011371
20
86.668448052850295
10
84.529805898400213
20
86.668448052850252
42
-0.48792836492640462
10
84.772341523436552
20
86.357814146591195
10
84.177658476564815
20
83.979081959103183
42
0.48792836492650737
10
84.42019410160114
20
83.668448052844127
10
85.404805898398891
20
83.668448052844127
42
0.3441507314089825
10
85.647341523435244
20
83.857814146585127
10
87.505316953128144
20
91.289715865369999
42
-0.34415073140954994
10
87.990388203201746
20
91.668448052852028
10
90.099999999997991
20
91.66844805284839
42
-0.41421356237234586
10
90.34999999999755
20
91.418448052848618
10
90.350000000002098
20
86.668448052848959
42
0.99999999999999989
10
92.850000000004769
20
86.668448052849953
10
92.850000000000236
20
91.41844805284984
42
-0.4142135623731783
10
93.100000000000108
20
91.668448052850081
10
95.20961179679631
20
91.668448052851119
42
-0.34415073140897945
10
95.694683046869201
20
91.289715865369359
10
97.552658476564744
20
83.857814146591863
42
0.34415073140889629
10
97.795194101601069
20
83.668448052850962
10
98.779805898398877
20
83.668448052850977
42
0.48792836492650132
10
99.022341523435216
20
83.979081959110076
10
98.427658476564829
20
86.357814146591195
42
-0.48792836492650132
10
98.670194101601169
20
86.668448052850295
10
105.58578640926723
20
86.668448052850394
42
-0.19891236737965798
10
106.29289319045378
20
86.375554834036947
10
107.70710675282695
20
84.96134127166377
42
-0.19891236737960583
10
107.99999997164039
20
84.254234490477444
10
107.9999999716601
20
-6.9709795427282906
42
-0.19891236737973603
10
107.70710675284664
20
-7.6780863239150454
10
106.29289319047365
20
-9.0922998862880409
42
-0.19891236737966494
10
105.58578640928708
20
-9.3851931051014965
10
98.670194101601112
20
-9.3851931051013935
42
-0.48792836492649999
10
98.427658476564787
20
-9.0745591988422998
10
99.022341523435159
20
-6.6958270113611453
42
0.4879283649265026
10
98.77980589839882
20
-6.385193105102049
10
97.795194101601027
20
-6.3851931051020507
42
0.34415073140883795
10
97.552658476564716
20
-6.5745591988429339
10
95.694683046869145
20
-14.006460917620437
42
-0.34415073140904562
10
95.209611796796253
20
-14.385193105102189
10
93.100000000000023
20
-14.385193105101155
42
-0.41421356237314444
10
92.850000000000136
20
-14.135193105100949
10
92.850000000003917
20
-9.3851931051010258
42
0.99999999999999989
10
90.350000000001245
20
-9.3851931051000204
10
90.349999999997465
20
-14.135193105099663
42
-0.41421356237231721
10
90.099999999997891
20
-14.385193105099464
10
87.990388203201661
20
-14.385193105103092
42
-0.34415073140950686
10
87.505316953128101
20
-14.006460917621057
10
85.647341523435188
20
-6.574559198836198
42
0.34415073140908364
10
85.404805898398848
20
-6.385193105095178
10
84.420194101601084
20
-6.385193105095178
42
0.48792836492639663
10
84.177658476564744
20
-6.6958270113542344
10
84.772341523436495
20
-9.0745591988424792
42
-0.48792836492639402
10
84.529805898400156
20
-9.385193105101532
10
58.398728754165276
20
-9.385193105101461
42
0.052407779283052389
10
58.190817063347524
20
-9.4070455043676553
10
20.102807455552082
20
-17.502901867455289
42
-0.052407779283038046
10
19.894895764734322
20
-17.524754266721484
10
7.0701941016011904
20
-17.524754266721466
42
-0.48792836492649494
10
6.8276584765648582
20
-17.214120360462374
10
7.422341523435251
20
-14.835388172981228
42
0.48792836492650143
10
7.1798058983989197
20
-14.524754266722137
10
6.1951941016011114
20
-14.524754266722136
42
0.34415073140887392
10
5.9526584765647872
20
-14.714120360463014
10
4.0946830468692443
20
-22.146022079240527
42
-0.34415073140900826
10
3.6096117967963481
20
-22.524754266722287
10
1.5000000000001299
20
-22.524754266721239
42
-0.41421356237321405
10
1.2500000000002556
20
-22.274754266721022
10
1.2500000000044027
20
-17.524754266721111
42
0.99999999999999989
10
-1.2499999999986648
20
-17.524754266720119
10
-1.25000000000245
20
-22.274754266719757
42
-0.41421356237235951
0
LINE
5
101
100
AcDbEntity
8
0
100
AcDbLine
10
6.4999999999160618
20
45.377884882310163
30
0
11
6.4999999999160609
21
27.475245733278385
31
0
0
LINE
5
102
100
AcDbEntity
8
0
100
AcDbLine
10
-6.50000000008394
20
27.475245733278385
30
0
11
-6.50000000008394
21
-7.3247542667216203
31
0
0
ARC
5
103
100
AcDbEntity
8
0
100
AcDbCircle
10
-6.3000000000839362
20
-7.324754266721615
30
0
40
0.20000000000000351
210
0
220
0
230
1
100
AcDbArc
50
180
51
269.99999999999898
0
LINE
5
104
100
AcDbEntity
8
0
100
AcDbLine
10
6.4999999999160609
20
-7.3247542667216177
30
0
11
6.4999999999160609
21
27.475245733278385
31
0
0
LINE
5
105
100
AcDbEntity
8
0
100
AcDbLine
10
-2.9071131767747147
20
64.378449262125528
30
0
11
-6.062952014757963
21
49.531394844324801
31
0
0
ARC
5
106
100
AcDbEntity
8
0
100
AcDbCircle
10
13.49999999991606
20
45.373161027959775
30
0
40
20
210
0
220
0
230
1
100
AcDbArc
50
167.99999999997121
51
180
0
LINE
5
107
100
AcDbEntity
8
0
100
AcDbLine
10
2.9154154211658003
20
64.378220738134502
30
0
11
6.0648927536797981
21
49.526977739034777
31
0
0
LINE
5
108
100
AcDbEntity
8
0
100
AcDbLine
10
-8.3921953417777148e-11
20
64.774493416716382
30
0
11
2.4262931023217087
21
64.774493416716382
31
0
0
LINE
5
109
100
AcDbEntity
8
0
100
AcDbLine
10
-6.3000000000839398
20
-7.5247542667216187
30
0
11
6.2999999999160607
21
-7.5247542667216196
31
0
0
LINE
5
110
100
AcDbEntity
8
0
100
AcDbLine
10
-6.50000000008394
20
27.475245733278385
30
0
11
-6.5000000000839409
21
45.373161027959782
31
0
0
ARC
5
111
100
AcDbEntity
8
0
100
AcDbCircle
10
-2.4180393764078638
20
64.274493416716382
30
0
40
0.49999999999999822
210
0
220
-0
230
1
100
AcDbArc
50
90
51
167.99999999996885
0
ARC
5
112
100
AcDbEntity
8
0
100
AcDbCircle
10
2.4262931023217229
20
64.27449341671641
30
0
40
0.49999999999998018
210
0
220
-0
230
1
100
AcDbArc
50
11.973229376616672
51
90.000000000001634
0
LINE
5
113
100
AcDbEntity
8
0
100
AcDbLine
10
-8.3921953417777148e-11
20
64.774493416716382
30
0
11
-2.4180393764078638
21
64.774493416716382
31
0
0
ARC
5
114
100
AcDbEntity
8
0
100
AcDbCircle
10
-13.500000000083316
20
45.377884882310227
30
0
40
19.999999999999378
210
-0
220
0
230
1
100
AcDbArc
50
0
51
11.973229376619186
0
ARC
5
115
100
AcDbEntity
8
0
100
AcDbCircle
10
6.2999999999160581
20
-7.3247542667216168
30
0
40
0.2000000000000024
210
-0
220
0
230
1
100
AcDbArc
50
270.00000000000074
51
360
0
LINE
5
116
100
AcDbEntity
8
0
100
AcDbLine
10
-89.199999999976257
20
58.960045373918518
30
0
11
-102.99999999997625
21
58.960045373918497
31
0
0
LINE
5
117
100
AcDbEntity
8
0
100
AcDbLine
10
-102.99999999997625
20
58.960045373918497
30
0
11
-102.99999999997625
21
72.760045373918501
31
0
0
LINE
5
118
100
AcDbEntity
8
0
100
AcDbLine
10
-102.99999999997625
20
72.760045373918501
30
0
11
-89.199999999976257
21
72.760045373918516
31
0
0
LINE
5
119
100
AcDbEntity
8
0
100
AcDbLine
10
-89.199999999976257
20
72.760045373918516
30
0
11
-89.199999999976257
21
58.960045373918518
31
0
0
LINE
5
120
100
AcDbEntity
8
0
100
AcDbLine
10
-80.026547491694032
20
76.336507178406833
30
0
11
-66.302145335304459
21
74.894014388222303
31
0
0
LINE
5
121
100
AcDbEntity
8
0
100
AcDbLine
10
-66.302145335304459
20
74.894014388222303
30
0
11
-67.744638125490795
21
61.169612231834556
31
0
0
LINE
5
122
100
AcDbEntity
8
0
100
AcDbLine
10
-81.469040281878634
20
62.612105022019392
30
0
11
-80.026547491694032
21
76.336507178406833
31
0
0
LINE
5
123
100
AcDbEntity
8
0
100
AcDbLine
10
-67.744638125490795
20
61.169612231834556
30
0
11
-81.469040281878634
21
62.612105022019392
31
0
0
LINE
5
124
100
AcDbEntity
8
0
100
AcDbLine
10
-47.307752031391118
20
61.141463740802863
30
0
11
-60.898099023010523
21
63.537808592317887
31
0
0
LINE
5
125
100
AcDbEntity
8
0
100
AcDbLine
10
-60.898099023010523
20
63.537808592317887
30
0
11
-58.501754171495477
21
77.128155583937399
31
0
0
LINE
5
126
100
AcDbEntity
8
0
100
AcDbLine
10
-44.911407179878893
20
74.73181073242273
30
0
11
-47.307752031391118
21
61.141463740802863
31
0
0
LINE
5
127
100
AcDbEntity
8
0
100
AcDbLine
10
-58.501754171495477
20
77.128155583937399
30
0
11
-44.911407179878893
21
74.73181073242273
31
0
0
LINE
5
128
100
AcDbEntity
8
0
100
AcDbLine
10
-29.368258684177697
20
53.270083450833845
30
0
11
-42.866695574664639
21
56.139264782423275
31
0
0
LINE
5
129
100
AcDbEntity
8
0
100
AcDbLine
10
-42.866695574664639
20
56.139264782423275
30
0
11
-39.997514243075244
21
69.637701672910339
31
0
0
LINE
5
130
100
AcDbEntity
8
0
100
AcDbLine
10
-26.499077352588223
20
66.768520341320809
30
0
11
-29.368258684177697
21
53.270083450833845
31
0
0
LINE
5
131
100
AcDbEntity
8
0
100
AcDbLine
10
-39.997514243075244
20
69.637701672910339
30
0
11
-26.499077352588223
21
66.768520341320809
31
0
0
LINE
5
132
100
AcDbEntity
8
0
100
AcDbLine
10
-50.259771051942401
20
44.399731939741471
30
0
11
-63.850118043745567
21
46.79607679021391
31
0
0
LINE
5
133
100
AcDbEntity
8
0
100
AcDbLine
10
-63.850118043745567
20
46.79607679021391
30
0
11
-61.453773193272369
21
60.386423782017687
31
0
0
LINE
5
134
100
AcDbEntity
8
0
100
AcDbLine
10
-47.863426201472443
20
57.990078931545128
30
0
11
-50.259771051942401
21
44.399731939741471
31
0
0
LINE
5
135
100
AcDbEntity
8
0
100
AcDbLine
10
-61.453773193272369
20
60.386423782017687
30
0
11
-47.863426201472443
21
57.990078931545128
31
0
0
LINE
5
136
100
AcDbEntity
8
0
100
AcDbLine
10
-69.521622001049607
20
44.262740010574845
30
0
11
-83.246024162273144
21
45.705232753218574
31
0
0
LINE
5
137
100
AcDbEntity
8
0
100
AcDbLine
10
-83.246024162273144
20
45.705232753218574
30
0
11
-81.80353136908991
21
59.429634909291309
31
0
0
LINE
5
138
100
AcDbEntity
8
0
100
AcDbLine
10
-68.079129258214749
20
57.987142171922457
30
0
11
-69.521622001049607
21
44.262740010574845
31
0
0
LINE
5
139
100
AcDbEntity
8
0
100
AcDbLine
10
-81.80353136908991
20
59.429634909291309
30
0
11
-68.079129258214749
21
57.987142171922457
31
0
0
LINE
5
140
100
AcDbEntity
8
0
100
AcDbLine
10
-89.199999999969535
20
41.960045373914951
30
0
11
-102.9999999999209
21
41.960045373924956
31
0
0
LINE
5
141
100
AcDbEntity
8
0
100
AcDbLine
10
-102.9999999999209
20
41.960045373924956
30
0
11
-103.00000000008629
21
55.760045373922068
31
0
0
LINE
5
142
100
AcDbEntity
8
0
100
AcDbLine
10
-89.199999999987853
20
55.760045373914949
30
0
11
-89.199999999969535
21
41.960045373914951
31
0
0
LINE
5
143
100
AcDbEntity
8
0
100
AcDbLine
10
-103.00000000008629
20
55.760045373922068
30
0
11
-89.199999999987853
21
55.760045373914949
31
0
0
LINE
5
144
100
AcDbEntity
8
0
100
AcDbLine
10
-71.298605876450821
20
27.355867789281593
30
0
11
-85.023008037831971
21
28.79836053195887
31
0
0
LINE
5
145
100
AcDbEntity
8
0
100
AcDbLine
10
-85.023008037831971
20
28.79836053195887
30
0
11
-83.580515295154726
21
42.52276269333997
31
0
0
LINE
5
146
100
AcDbEntity
8
0
100
AcDbLine
10
-69.85611313377359
20
41.080269950662753
30
0
11
-71.298605876450821
21
27.355867789281593
31
0
0
LINE
5
147
100
AcDbEntity
8
0
100
AcDbLine
10
-83.580515295154726
20
42.52276269333997
30
0
11
-69.85611313377359
21
41.080269950662753
31
0
0
LINE
5
148
100
AcDbEntity
8
0
100
AcDbLine
10
-89.199999999993821
20
24.960045299883397
30
0
11
-102.99999999999383
21
24.96004532848233
31
0
0
LINE
5
149
100
AcDbEntity
8
0
100
AcDbLine
10
-102.99999999999383
20
24.96004532848233
30
0
11
-102.99999997139489
21
38.760045437603544
31
0
0
LINE
5
150
100
AcDbEntity
8
0
100
AcDbLine
10
-89.199999971394874
20
38.760045409004611
30
0
11
-89.199999999993821
21
24.960045299883397
31
0
0
LINE
5
151
100
AcDbEntity
8
0
100
AcDbLine
10
-102.99999997139489
20
38.760045437603544
30
0
11
-89.199999971394874
21
38.760045409004611
31
0
0
LINE
5
152
100
AcDbEntity
8
0
100
AcDbLine
10
-84.699999985694362
20
-4.3852223155545706
30
0
11
-98.499999985694373
21
-4.3852223155545698
31
0
0
LINE
5
153
100
AcDbEntity
8
0
100
AcDbLine
10
-98.499999985694373
20
-4.3852223155545698
30
0
11
-98.499999985694373
21
9.4147776844454345
31
0
0
LINE
5
154
100
AcDbEntity
8
0
100
AcDbLine
10
-84.699999985694362
20
9.4147776844454292
30
0
11
-84.699999985694362
21
-4.3852223155545715
31
0
0
LINE
5
155
100
AcDbEntity
8
0
100
AcDbLine
10
-98.499999985694373
20
9.4147776844454327
30
0
11
-84.699999985694362
21
9.4147776844454292
31
0
0
LINE
5
156
100
AcDbEntity
8
0
100
AcDbLine
10
-53.211790072288849
20
27.65800013853546
30
0
11
-66.802137063938716
21
30.054344989877517
31
0
0
LINE
5
157
100
AcDbEntity
8
0
100
AcDbLine
10
-66.802137063938716
20
30.054344989877517
30
0
11
-64.405792212596694
21
43.644691981527401
31
0
0
LINE
5
158
100
AcDbEntity
8
0
100
AcDbLine
10
-50.815445220942053
20
41.248347130184435
30
0
11
-53.211790072288849
21
27.65800013853546
31
0
0
LINE
5
159
100
AcDbEntity
8
0
100
AcDbLine
10
-64.405792212596694
20
43.644691981527401
30
0
11
-50.815445220942053
21
41.248347130184435
31
0
0
LINE
5
160
100
AcDbEntity
8
0
100
AcDbLine
10
-36.437256172006244
20
20.013065025889709
30
0
11
-49.93569306211284
21
22.882246359268443
31
0
0
LINE
5
161
100
AcDbEntity
8
0
100
AcDbLine
10
-49.93569306211284
20
22.882246359268443
30
0
11
-47.066511728734142
21
36.380683249375032
31
0
0
LINE
5
162
100
AcDbEntity
8
0
100
AcDbLine
10
-33.568074838627446
20
33.511501915996291
30
0
11
-36.437256172006244
21
20.013065025889709
31
0
0
LINE
5
163
100
AcDbEntity
8
0
100
AcDbLine
10
-47.066511728734142
20
36.380683249375032
30
0
11
-33.568074838627446
21
33.511501915996291
31
0
0
LINE
5
164
100
AcDbEntity
8
0
100
AcDbLine
10
-32.902757428091959
20
36.641574238361763
30
0
11
-46.401194318485352
21
39.510755570391055
31
0
0
LINE
5
165
100
AcDbEntity
8
0
100
AcDbLine
10
-46.401194318485352
20
39.510755570391055
30
0
11
-43.532012986456067
21
53.009192460784519
31
0
0
LINE
5
166
100
AcDbEntity
8
0
100
AcDbLine
10
-30.033576096062838
20
50.140011128755198
30
0
11
-32.902757428091959
21
36.641574238361763
31
0
0
LINE
5
167
100
AcDbEntity
8
0
100
AcDbLine
10
-43.532012986456067
20
53.009192460784519
30
0
11
-30.033576096062838
21
50.140011128755198
31
0
0
LINE
5
168
100
AcDbEntity
8
0
100
AcDbLine
10
-12.177425252606042
20
47.571377814599842
30
0
11
-25.675862142794234
21
50.440559147594641
31
0
0
LINE
5
169
100
AcDbEntity
8
0
100
AcDbLine
10
-25.675862142794234
20
50.440559147594641
30
0
11
-22.806680809798419
21
63.938996037788378
31
0
0
LINE
5
170
100
AcDbEntity
8
0
100
AcDbLine
10
-9.3082439196123126
20
61.069814704788293
30
0
11
-12.177425252606042
21
47.571377814599842
31
0
0
LINE
5
171
100
AcDbEntity
8
0
100
AcDbLine
10
-22.806680809798419
20
63.938996037788378
30
0
11
-9.3082439196123126
21
61.069814704788293
31
0
0
LINE
5
172
100
AcDbEntity
8
0
100
AcDbLine
10
-15.711923996512189
20
30.942868602126055
30
0
11
-29.210360886746901
21
33.812049934902042
31
0
0
LINE
5
173
100
AcDbEntity
8
0
100
AcDbLine
10
-29.210360886746901
20
33.812049934902042
30
0
11
-26.341179553970942
21
47.310486825136749
31
0
0
LINE
5
174
100
AcDbEntity
8
0
100
AcDbLine
10
-12.842742663736226
20
44.441305492360783
30
0
11
-15.711923996512189
21
30.942868602126055
31
0
0
LINE
5
175
100
AcDbEntity
8
0
100
AcDbLine
10
-26.341179553970942
20
47.310486825136749
30
0
11
-12.842742663736226
21
44.441305492360783
31
0
0
LINE
5
176
100
AcDbEntity
8
0
100
AcDbLine
10
-19.246422740418389
20
14.314359389652275
30
0
11
-32.744859630572662
21
17.183540722806754
31
0
0
LINE
5
177
100
AcDbEntity
8
0
100
AcDbLine
10
-32.744859630572662
20
17.183540722806754
30
0
11
-29.875678297464596
21
30.681977612930922
31
0
0
LINE
5
178
100
AcDbEntity
8
0
100
AcDbLine
10
-16.377241407302208
20
27.812796279814691
30
0
11
-19.246422740418389
21
14.314359389652275
31
0
0
LINE
5
179
100
AcDbEntity
8
0
100
AcDbLine
10
-29.875678297464596
20
30.681977612930922
30
0
11
-16.377241407302208
21
27.812796279814691
31
0
0
LINE
5
180
100
AcDbEntity
8
0
100
AcDbLine
10
-42.321163171755614
20
-7.6685410144299873
30
0
11
-55.819600062145284
21
-4.7993596823828986
31
0
0
LINE
5
181
100
AcDbEntity
8
0
100
AcDbLine
10
-55.819600062145284
20
-4.7993596823828986
30
0
11
-52.950418730098193
21
8.6990772080067273
31
0
0
LINE
5
182
100
AcDbEntity
8
0
100
AcDbLine
10
-39.451981839708523
20
5.829895875959644
30
0
11
-42.321163171755614
21
-7.6685410144299873
31
0
0
LINE
5
183
100
AcDbEntity
8
0
100
AcDbLine
10
-52.950418730098193
20
8.6990772080067273
30
0
11
-39.451981839708523
21
5.829895875959644
31
0
0
LINE
5
184
100
AcDbEntity
8
0
100
AcDbLine
10
-20.312842154815911
20
-12.346554055811145
30
0
11
-33.811279045205616
21
-9.4773727237642564
31
0
0
LINE
5
185
100
AcDbEntity
8
0
100
AcDbLine
10
-33.811279045205616
20
-9.4773727237642564
30
0
11
-30.942097713158535
21
4.0210641666256102
31
0
0
LINE
5
186
100
AcDbEntity
8
0
100
AcDbLine
10
-17.443660822768813
20
1.1518828345785079
30
0
11
-20.312842154815911
21
-12.346554055811145
31
0
0
LINE
5
187
100
AcDbEntity
8
0
100
AcDbLine
10
-30.942097713158535
20
4.0210641666256084
30
0
11
-17.443660822768813
21
1.1518828345785082
31
0
0
LINE
5
188
100
AcDbEntity
8
0
100
AcDbLine
10
20.312842154815911
20
-12.346554055811145
30
0
11
33.811279045205616
21
-9.4773727237642564
31
0
0
LINE
5
189
100
AcDbEntity
8
0
100
AcDbLine
10
33.811279045205616
20
-9.4773727237642564
30
0
11
30.942097713158535
21
4.0210641666256102
31
0
0
LINE
5
190
100
AcDbEntity
8
0
100
AcDbLine
10
17.443660822768813
20
1.1518828345785062
30
0
11
20.312842154815911
21
-12.346554055811145
31
0
0
LINE
5
191
100
AcDbEntity
8
0
100
AcDbLine
10
30.942097713158535
20
4.0210641666256111
30
0
11
17.443660822768813
21
1.1518828345785059
31
0
0
LINE
5
192
100
AcDbEntity
8
0
100
AcDbLine
10
42.321163171755614
20
-7.6685410144299837
30
0
11
55.819600062145284
21
-4.7993596823829003
31
0
0
LINE
5
193
100
AcDbEntity
8
0
100
AcDbLine
10
55.819600062145284
20
-4.7993596823829003
30
0
11
52.950418730098185
21
8.6990772080067291
31
0
0
LINE
5
194
100
AcDbEntity
8
0
100
AcDbLine
10
39.451981839708537
20
5.8298958759596466
30
0
11
42.321163171755614
21
-7.6685410144299846
31
0
0
LINE
5
195
100
AcDbEntity
8
0
100
AcDbLine
10
52.950418730098185
20
8.6990772080067273
30
0
11
39.451981839708537
21
5.8298958759596466
31
0
0
LINE
5
196
100
AcDbEntity
8
0
100
AcDbLine
10
29.875678297464596
20
30.681977612930922
30
0
11
16.377241407302208
21
27.812796279814691
31
0
0
LINE
5
197
100
AcDbEntity
8
0
100
AcDbLine
10
16.377241407302208
20
27.812796279814691
30
0
11
19.246422740418389
21
14.314359389652275
31
0
0
LINE
5
198
100
AcDbEntity
8
0
100
AcDbLine
10
32.744859630572662
20
17.183540722806754
30
0
11
29.875678297464596
21
30.681977612930922
31
0
0
LINE
5
199
100
AcDbEntity
8
0
100
AcDbLine
10
19.246422740418389
20
14.314359389652275
30
0
11
32.744859630572662
21
17.183540722806754
31
0
0
LINE
5
200
100
AcDbEntity
8
0
100
AcDbLine
10
47.066511728734142
20
36.380683249375032
30
0
11
33.568074838627446
21
33.511501915996284
31
0
0
LINE
5
201
100
AcDbEntity
8
0
100
AcDbLine
10
33.568074838627446
20
33.511501915996284
30
0
11
36.437256172006244
21
20.013065025889709
31
0
0
LINE
5
202
100
AcDbEntity
8
0
100
AcDbLine
10
49.93569306211284
20
22.882246359268443
30
0
11
47.066511728734142
21
36.380683249375032
31
0
0
LINE
5
203
100
AcDbEntity
8
0
100
AcDbLine
10
36.437256172006244
20
20.013065025889709
30
0
11
49.93569306211284
21
22.882246359268443
31
0
0
LINE
5
204
100
AcDbEntity
8
0
100
AcDbLine
10
64.405792212596694
20
43.644691981527401
30
0
11
50.815445220942053
21
41.248347130184435
31
0
0
LINE
5
205
100
AcDbEntity
8
0
100
AcDbLine
10
50.815445220942053
20
41.248347130184435
30
0
11
53.211790072288849
21
27.65800013853546
31
0
0
LINE
5
206
100
AcDbEntity
8
0
100
AcDbLine
10
66.802137063938716
20
30.054344989877514
30
0
11
64.405792212596694
21
43.644691981527401
31
0
0
LINE
5
207
100
AcDbEntity
8
0
100
AcDbLine
10
53.211790072288849
20
27.65800013853546
30
0
11
66.802137063938716
21
30.054344989877514
31
0
0
LINE
5
208
100
AcDbEntity
8
0
100
AcDbLine
10
84.699999985694362
20
-4.3852223155545715
30
0
11
98.499999985694373
21
-4.3852223155545698
31
0
0
LINE
5
209
100
AcDbEntity
8
0
100
AcDbLine
10
98.499999985694373
20
-4.3852223155545698
30
0
11
98.499999985694373
21
9.4147776844454327
31
0
0
LINE
5
210
100
AcDbEntity
8
0
100
AcDbLine
10
84.699999985694348
20
9.4147776844454309
30
0
11
84.699999985694362
21
-4.3852223155545724
31
0
0
LINE
5
211
100
AcDbEntity
8
0
100
AcDbLine
10
98.499999985694373
20
9.4147776844454327
30
0
11
84.699999985694348
21
9.4147776844454309
31
0
0
LINE
5
212
100
AcDbEntity
8
0
100
AcDbLine
10
102.99999997139489
20
38.760045437603544
30
0
11
89.199999971394874
21
38.760045409004611
31
0
0
LINE
5
213
100
AcDbEntity
8
0
100
AcDbLine
10
89.199999971394874
20
38.760045409004611
30
0
11
89.199999999993821
21
24.960045299883397
31
0
0
LINE
5
214
100
AcDbEntity
8
0
100
AcDbLine
10
102.99999999999383
20
24.96004532848233
30
0
11
102.99999997139489
21
38.760045437603544
31
0
0
LINE
5
215
100
AcDbEntity
8
0
100
AcDbLine
10
89.199999999993821
20
24.960045299883397
30
0
11
102.99999999999383
21
24.96004532848233
31
0
0
LINE
5
216
100
AcDbEntity
8
0
100
AcDbLine
10
83.580515295154726
20
42.52276269333997
30
0
11
69.856113133773604
21
41.08026995066276
31
0
0
LINE
5
217
100
AcDbEntity
8
0
100
AcDbLine
10
69.856113133773604
20
41.08026995066276
30
0
11
71.298605876450836
21
27.355867789281607
31
0
0
LINE
5
218
100
AcDbEntity
8
0
100
AcDbLine
10
85.023008037831985
20
28.798360531958849
30
0
11
83.580515295154726
21
42.52276269333997
31
0
0
LINE
5
219
100
AcDbEntity
8
0
100
AcDbLine
10
71.298605876450836
20
27.355867789281607
30
0
11
85.023008037831985
21
28.798360531958849
31
0
0
LINE
5
220
100
AcDbEntity
8
0
100
AcDbLine
10
103.00000000008629
20
55.760045373922068
30
0
11
89.199999999987853
21
55.760045373914949
31
0
0
LINE
5
221
100
AcDbEntity
8
0
100
AcDbLine
10
89.199999999987853
20
55.760045373914949
30
0
11
89.199999999969535
21
41.960045373914951
31
0
0
LINE
5
222
100
AcDbEntity
8
0
100
AcDbLine
10
102.9999999999209
20
41.960045373924956
30
0
11
103.00000000008629
21
55.760045373922068
31
0
0
LINE
5
223
100
AcDbEntity
8
0
100
AcDbLine
10
89.199999999969535
20
41.960045373914951
30
0
11
102.9999999999209
21
41.960045373924956
31
0
0
LINE
5
224
100
AcDbEntity
8
0
100
AcDbLine
10
102.99999999997625
20
72.760045373918501
30
0
11
89.199999999976257
21
72.760045373918516
31
0
0
LINE
5
225
100
AcDbEntity
8
0
100
AcDbLine
10
89.199999999976257
20
72.760045373918516
30
0
11
89.199999999976257
21
58.960045373918518
31
0
0
LINE
5
226
100
AcDbEntity
8
0
100
AcDbLine
10
102.99999999997625
20
58.960045373918497
30
0
11
102.99999999997625
21
72.760045373918501
31
0
0
LINE
5
227
100
AcDbEntity
8
0
100
AcDbLine
10
89.199999999976257
20
58.960045373918518
30
0
11
102.99999999997625
21
58.960045373918497
31
0
0
LINE
5
228
100
AcDbEntity
8
0
100
AcDbLine
10
80.026547491694032
20
76.336507178406848
30
0
11
66.302145335304459
21
74.894014388222303
31
0
0
LINE
5
229
100
AcDbEntity
8
0
100
AcDbLine
10
66.302145335304459
20
74.894014388222303
30
0
11
67.744638125490795
21
61.169612231834556
31
0
0
LINE
5
230
100
AcDbEntity
8
0
100
AcDbLine
10
81.469040281878634
20
62.612105022019392
30
0
11
80.026547491694032
21
76.336507178406848
31
0
0
LINE
5
231
100
AcDbEntity
8
0
100
AcDbLine
10
67.744638125490795
20
61.169612231834556
30
0
11
81.469040281878634
21
62.612105022019392
31
0
0
LINE
5
232
100
AcDbEntity
8
0
100
AcDbLine
10
81.80353136908991
20
59.429634909291309
30
0
11
68.079129258214721
21
57.987142171922457
31
0
0
LINE
5
233
100
AcDbEntity
8
0
100
AcDbLine
10
68.079129258214721
20
57.987142171922457
30
0
11
69.521622001049607
21
44.262740010574845
31
0
0
LINE
5
234
100
AcDbEntity
8
0
100
AcDbLine
10
83.246024162273144
20
45.705232753218581
30
0
11
81.80353136908991
21
59.429634909291309
31
0
0
LINE
5
235
100
AcDbEntity
8
0
100
AcDbLine
10
69.521622001049607
20
44.262740010574845
30
0
11
83.246024162273144
21
45.705232753218581
31
0
0
LINE
5
236
100
AcDbEntity
8
0
100
AcDbLine
10
61.453773193272369
20
60.386423782017687
30
0
11
47.863426201472443
21
57.990078931545128
31
0
0
LINE
5
237
100
AcDbEntity
8
0
100
AcDbLine
10
47.863426201472443
20
57.990078931545128
30
0
11
50.259771051942401
21
44.399731939741471
31
0
0
LINE
5
238
100
AcDbEntity
8
0
100
AcDbLine
10
63.850118043745567
20
46.79607679021391
30
0
11
61.453773193272369
21
60.386423782017687
31
0
0
LINE
5
239
100
AcDbEntity
8
0
100
AcDbLine
10
50.259771051942401
20
44.399731939741471
30
0
11
63.850118043745567
21
46.79607679021391
31
0
0
LINE
5
240
100
AcDbEntity
8
0
100
AcDbLine
10
58.501754171495477
20
77.128155583937385
30
0
11
44.911407179878893
21
74.73181073242273
31
0
0
LINE
5
241
100
AcDbEntity
8
0
100
AcDbLine
10
44.911407179878893
20
74.73181073242273
30
0
11
47.307752031391118
21
61.141463740802863
31
0
0
LINE
5
242
100
AcDbEntity
8
0
100
AcDbLine
10
60.898099023010523
20
63.537808592317887
30
0
11
58.501754171495477
21
77.128155583937385
31
0
0
LINE
5
243
100
AcDbEntity
8
0
100
AcDbLine
10
47.307752031391118
20
61.141463740802863
30
0
11
60.898099023010523
21
63.537808592317887
31
0
0
LINE
5
244
100
AcDbEntity
8
0
100
AcDbLine
10
39.997514243075244
20
69.637701672910339
30
0
11
26.499077352588223
21
66.768520341320809
31
0
0
LINE
5
245
100
AcDbEntity
8
0
100
AcDbLine
10
26.499077352588223
20
66.768520341320809
30
0
11
29.368258684177697
21
53.270083450833845
31
0
0
LINE
5
246
100
AcDbEntity
8
0
100
AcDbLine
10
42.866695574664639
20
56.139264782423275
30
0
11
39.997514243075244
21
69.637701672910339
31
0
0
LINE
5
247
100
AcDbEntity
8
0
100
AcDbLine
10
29.368258684177697
20
53.270083450833845
30
0
11
42.866695574664639
21
56.139264782423275
31
0
0
LINE
5
248
100
AcDbEntity
8
0
100
AcDbLine
10
43.532012986456067
20
53.009192460784519
30
0
11
30.033576096062838
21
50.140011128755198
31
0
0
LINE
5
249
100
AcDbEntity
8
0
100
AcDbLine
10
30.033576096062838
20
50.140011128755198
30
0
11
32.902757428091959
21
36.641574238361756
31
0
0
LINE
5
250
100
AcDbEntity
8
0
100
AcDbLine
10
46.401194318485352
20
39.510755570391062
30
0
11
43.532012986456067
21
53.009192460784519
31
0
0
LINE
5
251
100
AcDbEntity
8
0
100
AcDbLine
10
32.902757428091959
20
36.641574238361756
30
0
11
46.401194318485352
21
39.510755570391062
31
0
0
LINE
5
252
100
AcDbEntity
8
0
100
AcDbLine
10
15.711923996512189
20
30.942868602126058
30
0
11
29.210360886746901
21
33.812049934902042
31
0
0
LINE
5
253
100
AcDbEntity
8
0
100
AcDbLine
10
29.210360886746901
20
33.812049934902042
30
0
11
26.341179553970942
21
47.310486825136749
31
0
0
LINE
5
254
100
AcDbEntity
8
0
100
AcDbLine
10
12.842742663736226
20
44.441305492360783
30
0
11
15.711923996512189
21
30.942868602126058
31
0
0
LINE
5
255
100
AcDbEntity
8
0
100
AcDbLine
10
26.341179553970942
20
47.310486825136749
30
0
11
12.842742663736226
21
44.441305492360783
31
0
0
LINE
5
256
100
AcDbEntity
8
0
100
AcDbLine
10
22.806680809798419
20
63.938996037788378
30
0
11
9.3082439196123126
21
61.069814704788293
31
0
0
LINE
5
257
100
AcDbEntity
8
0
100
AcDbLine
10
9.3082439196123126
20
61.069814704788293
30
0
11
12.177425252606042
21
47.571377814599842
31
0
0
LINE
5
258
100
AcDbEntity
8
0
100
AcDbLine
10
25.675862142794234
20
50.440559147594641
30
0
11
22.806680809798419
21
63.938996037788378
31
0
0
LINE
5
259
100
AcDbEntity
8
0
100
AcDbLine
10
12.177425252606042
20
47.571377814599842
30
0
11
25.675862142794234
21
50.440559147594641
31
0
0
ENDSEC
0
SECTION
2
OBJECTS
0
DICTIONARY
5
C
100
AcDbDictionary
3
ACAD_GROUP
350
D
3
ACAD_MLINESTYLE
350
17
0
DICTIONARY
5
D
100
AcDbDictionary
0
DICTIONARY
5
1A
330
C
100
AcDbDictionary
0
DICTIONARY
5
17
100
AcDbDictionary
0
ENDSEC
0
EOF
