<?xml version="1.0" encoding="UTF-8"?>
<svg id="SILK_BACK" data-name="SILK BACK" xmlns="http://www.w3.org/2000/svg" width="297mm" height="210.01mm" viewBox="0 0 841.9 595.3">
  <defs>
    <style>
      .cls-1 {
        fill: #fff;
      }
    </style>
  </defs>
  <g id="Layer_13" data-name="Layer 13">
    <g>
      <path class="cls-1" d="M413.79,172.55l1.74,2.29c.62,.82,1.15,1.84,1.15,2.9,0,.84-.34,1.43-.71,1.82-.43,.44-1.21,.94-2.55,.94-.75,0-1.71-.15-2.48-.92-.61-.61-.8-1.31-.8-2.03,0-.66,.19-1.31,.73-1.85,.51-.51,1.18-.75,1.76-.75,.38,0,.77,.1,1.08,.24l-2.21-2.65h2.3Zm-.34,6.35c.26,0,.62-.08,.92-.4,.22-.23,.34-.56,.34-.89,0-.27-.14-.58-.38-.8-.23-.21-.57-.34-.87-.34-.23,0-.58,.06-.9,.36-.28,.27-.36,.57-.36,.82,0,.35,.14,.66,.36,.89,.17,.17,.47,.36,.9,.36Z"/>
      <path class="cls-1" d="M406.32,170.55l1.74,2.29c.62,.82,1.15,1.84,1.15,2.9,0,.84-.34,1.43-.71,1.82-.43,.44-1.21,.94-2.55,.94-.75,0-1.71-.15-2.48-.92-.61-.61-.8-1.31-.8-2.03,0-.66,.19-1.31,.73-1.85,.51-.51,1.18-.75,1.76-.75,.38,0,.77,.1,1.08,.24l-2.21-2.65h2.3Zm-.34,6.35c.26,0,.62-.08,.92-.4,.22-.23,.34-.56,.34-.89,0-.27-.14-.58-.38-.8-.23-.21-.57-.34-.87-.34-.23,0-.58,.06-.9,.36-.28,.27-.36,.57-.36,.82,0,.35,.14,.66,.36,.89,.17,.17,.47,.36,.9,.36Z"/>
      <path class="cls-1" d="M398.84,172.55l1.74,2.29c.62,.82,1.15,1.84,1.15,2.9,0,.84-.34,1.43-.71,1.82-.43,.44-1.21,.94-2.55,.94-.75,0-1.71-.15-2.48-.92-.61-.61-.8-1.31-.8-2.03,0-.66,.19-1.31,.73-1.85,.51-.51,1.18-.75,1.76-.75,.38,0,.77,.1,1.08,.24l-2.21-2.65h2.3Zm-.34,6.35c.26,0,.62-.08,.92-.4,.22-.23,.34-.56,.34-.89,0-.27-.14-.58-.38-.8-.23-.21-.57-.34-.87-.34-.23,0-.58,.06-.9,.36-.28,.27-.36,.57-.36,.82,0,.35,.14,.66,.36,.89,.17,.17,.47,.36,.9,.36Z"/>
    </g>
    <g>
      <path class="cls-1" d="M408.8,156.99l-.66-4.48-1.8,4.48h-.8l-1.88-4.48-.57,4.48h-2.02l1.17-7.78h2.02l1.67,4.15,1.57-4.15h1.99l1.32,7.78h-2Z"/>
      <path class="cls-1" d="M410.08,167.99h-2.44l-1.75-2.53-1.66,2.53h-2.45l2.94-4.15-2.53-3.63h2.48l1.2,2.02,1.15-2.02h2.5l-2.5,3.63,3.04,4.15Z"/>
      <path class="cls-1" d="M409.86,189.99c-.96,0-1.69-.3-2.11-.73-.29-.29-.57-.79-.57-1.53,0-.62,.21-1.12,.52-1.42,.25-.23,.65-.42,1.06-.47-.29-.13-.47-.3-.63-.61-.16-.33-.22-.62-.22-.96,0-.69,.21-1.17,.48-1.46,.48-.52,1.14-.61,1.7-.61h3.01v7.78h-3.24Zm1.22-3.21h-.42c-.5,0-1,.01-1.25,.26-.12,.12-.2,.31-.2,.56,0,.22,.07,.4,.16,.5,.22,.26,.69,.31,1.25,.31h.45v-1.63Zm0-3.02h-.37c-.4,0-.64,.1-.77,.23-.12,.13-.19,.33-.19,.52,0,.17,.06,.38,.19,.51,.21,.22,.56,.24,.77,.24h.37v-1.52Z"/>
      <path class="cls-1" d="M400.19,189.99h-2.16l2.93-7.78h2.2l2.98,7.78h-2.13l-.52-1.31h-2.82l-.48,1.31Zm2.74-2.84l-.85-2.52-.87,2.52h1.73Z"/>
      <path class="cls-1" d="M406.35,200.99c-1.33,0-2.37-.56-2.98-1.18-.76-.76-1.01-1.67-1.01-2.69,0-.84,.17-1.96,1.08-2.83,1-.97,2.31-1.07,3.09-1.07h2.65v7.78h-2.82Zm.8-6.06h-.49c-.5,0-1.13,.05-1.61,.49-.38,.36-.61,.98-.61,1.7,0,.86,.34,1.35,.59,1.6,.52,.51,1.21,.56,1.7,.56h.41v-4.35Z"/>
    </g>
    <g>
      <path class="cls-1" d="M238.86,373.89v-.03s-.01-.03-.01-.03h-.1s0-.05,0-.05h-.14s0-.05,0-.05h-.07s0-.02,0-.02h-.07s-.01-.05-.01-.05h-.12s0-.04,0-.04h-.06s0-.1,0-.1h-.16s0-.04,0-.04h-.06s0-.03,0-.03h-.05s-.02-.04-.02-.04h-.04s-.01-.05-.01-.05h-.06s0-.04,0-.04h-.21s0-.04,0-.04h-.07s0-.02,0-.02h-.06s0-.09,0-.09h-.05s0-.05,0-.05h-.05s0-.05,0-.05l-.02-.03h-.04s0-.05,0-.05h-.06s0-.04,0-.04h-.06s-.02-.23-.02-.23h-.05s0-.05,0-.05v-.03s-.07,0-.07,0v-.1s-.05,0-.05,0l-.04-.52h.05s-.02-.29-.02-.29h.06s0-.03,0-.03v-.11s-.02-.1-.02-.1v-.04s-.06,0-.06,0v-.03s.03,0,.03,0h.03s0-.01,0-.01v-.2s.03,0,.03,0v-.09s.05,0,.05,0v-.08s.05,0,.05,0v-.06s.06,0,.06,0v-.04s.04,0,.04,0v-.06s.04,0,.04,0v-.05s.05,0,.05,0v-.09s.05,0,.05,0v-.02s0-.03,0-.03h.05s0-.05,0-.05h.05s0-.06,0-.06h.06s0-.04,0-.04h.11s0-.05,0-.05l.11-.02v-.04s.04-.02,.04-.02v-.02s0-.03,0-.03h.05s0-.06,0-.06h.11s0-.05,0-.05l.26-.02v-.07s.06,0,.06,0v-.05s.17-.01,.17-.01v-.06s.15-.01,.15-.01v-.06s.23-.02,.23-.02v-.05s.1,0,.1,0v-.06s.06,0,.06,0v-.07s.05,0,.05,0v-.05s.03,0,.03,0v-.06s.06,0,.06,0v-.1s.1-.02,.1-.02v-.06s.16-.01,.16-.01v-.04s.05,0,.05,0v-.04s.05,0,.05,0v-.04s.06,0,.06,0v-.04s.03,0,.03,0v-.05s.06,0,.06,0v-.07s.05,0,.05,0v-.05s.05,0,.05,0v-.04s.06,0,.06,0v-.08s.03,0,.03,0v-.03s.05,0,.05,0v-.14s.05,0,.05,0v-.1s-.06,0-.06,0v-.14s-.07,0-.07,0v-.16s-.05,0-.05,0v-.07s-.12,0-.12,0v-.04s-.06,0-.06,0v-.05s-.07,0-.07,0v-.04s-.04,0-.04,0v-.03s-.07,0-.07,0v-.04s-.06,0-.06,0v-.05s-.06,0-.06,0v-.04s-.25,.02-.25,.02v-.05s-.23,.02-.23,.02v.05s-.16,.01-.16,.01v.06s-.1,0-.1,0v.06s-.06,0-.06,0v.06s-.04,.01-.04,.01v.09s-.05,0-.05,0v.22s-.04,.01-.04,.01v.16s-.04,0-.04,0v.06s-.04,0-.04,0v.1s-.05,0-.05,0v.06s-.12,.02-.12,.02v.06s-.04,0-.04,0v.06s-.43,.03-.43,.03v-.04s-.01-.02-.01-.02h-.05s-.01-.05-.01-.05h-.05s0-.06,0-.06h-.05s0-.1,0-.1h-.07s0-.11,0-.11h-.05s-.03-.42-.03-.42h.05s-.02-.25-.02-.25v-.04s.04,0,.04,0v-.08s0-.09,0-.09h.05s0-.1,0-.1h.05s0-.07,0-.07h.06s0-.12,0-.12h.06s0-.1,0-.1h.05s0-.03,0-.03v-.04s.04,0,.04,0v-.06s.04,0,.04,0v-.06s.06-.01,.06-.01v-.04s.1,0,.1,0v-.04s.01-.02,.01-.02h.05s0-.06,0-.06h.05s0-.07,0-.07h.06s0-.06,0-.06h.16s0-.06,0-.06h.21s0-.07,0-.07l.23-.02v-.06s.54-.04,.54-.04v.05s.06,0,.06,0v.05s.19,0,.19,0v.04s.38-.03,.38-.03v.05s.07,0,.07,0v.04s.07,0,.07,0v.09s.04,0,.04,0v.05s.12,0,.12,0v.04s.06,0,.06,0v.05s.1,0,.1,0v.04s.07,0,.07,0v.06s.06,0,.06,0v.04s.06,0,.06,0v.05s.1,0,.1,0v.05h.12v.1s.06,0,.06,0v.07s.06,0,.06,0v.09s.05,0,.05,0v.09s.06,0,.06,0l.02,.23h.06s.06,.91,.06,.91h-.06s.01,.2,.01,.2h-.05s.01,.19,.01,.19h-.05s0,.1,0,.1h-.06s0,.14,0,.14h-.06s0,.05,0,.05h-.07s0,.1,0,.1l-.09,.02v.05s-.06,0-.06,0v.08s-.05,0-.05,0v.06s-.05,0-.05,0v.05s-.05,0-.05,0v.05s0,.05,0,.05h-.03s0,.05,0,.05h-.07s0,.05,0,.05h-.07s0,.03,0,.03v.02s-.04,.01-.04,.01v.02s0,.03,0,.03h-.06s0,.05,0,.05h-.1s0,.05,0,.05h-.06s0,.06,0,.06h-.11s0,.07,0,.07h-.04s0,.03,0,.03v.02s-.11,0-.11,0v.06s-.01,.01-.01,.01h-.04s0,.01,0,.01v.04s-.11,0-.11,0v.06s-.1,0-.1,0v.06s-.15,.02-.15,.02v.05s-.05,0-.05,0v.06s-.12,0-.12,0v.04s-.07,0-.07,0v.04s-.18,.01-.18,.01v.03s-.09,.03-.09,.03v.03s-.09,0-.09,0v.04s-.04,0-.04,0v.02s.01,.02,.01,.02h-.04s-.08,.02-.08,.02h-.02s0,.04,0,.04h-.06s0,.04,0,.04h-.05s0,.04,0,.04h-.06s0,.04,0,.04h-.1s0,.04,0,.04h-.06s0,.09,0,.09h-.05s0,.04,0,.04h-.05s.01,.19,.01,.19h-.06s0,.08,0,.08h.06s.02,.24,.02,.24h.05s0,.06,0,.06h.05s.01,.04,.01,.04h.06s0,.03,0,.03h.06s0,.03,0,.03h.05s.02,.03,.02,.03h.05s0,.04,0,.04h.05s0,.02,0,.02h.06s.01,.06,.01,.06h.06s0,.05,0,.05h.06s0,.05,0,.05h.1s0,.04,0,.04h.16s0,.03,0,.03l.45-.03v-.05s.11,0,.11,0v-.05s.1,0,.1,0v-.06s.05,0,.05,0v-.12s.05,0,.05,0v-.04s.06,0,.06,0v-.12s.03,0,.03,0v-.06s.06,0,.06,0v-.06s.05,0,.05,0v-.1s.05,0,.05,0v-.22s.04,0,.04,0v-.08s0-.08,0-.08h.04s-.01-.16-.01-.16h.06s0-.12,0-.12h.06s0-.06,0-.06h.06s0-.05,0-.05l.37-.03v.05s.07,0,.07,0v.12s.06,0,.06,0v.1s.06,0,.06,0v.07s.02,.09,.02,.09h.06s.01,.15,.01,.15h.03s.01,.04,.01,.04v.13s-.03,.01-.03,.01l.02,.33h-.07s.02,.26,.02,.26h-.06s.01,.17,.01,.17h-.06s0,.11,0,.11h-.05s0,.05,0,.05v.08s0,.05,0,.05h-.03s0,.06,0,.06v.04s-.05,0-.05,0v.12s-.05,0-.05,0v.06s0,.06,0,.06h-.06s0,.05,0,.05h-.06s0,.06,0,.06h-.04s0,.06,0,.06h-.11s0,.07,0,.07h-.05s0,.06,0,.06h-.16s0,.05,0,.05l-.33,.02v.06s-.12,.02-.12,.02v.06s-.1,0-.1,0v.06s-.43,.03-.43,.03v.06s-.43,.03-.43,.03Z"/>
      <path class="cls-1" d="M234.49,374.3v-.04s-.02-.05-.02-.05l-.05-.02-.03-.02v-.02s-.05,0-.05,0v-.05s-.08,0-.08,0v-.05h-.13v-.04s-.13-.01-.13-.01v-.04s-.07,0-.07,0v-.05s-.07,0-.07,0v-.1s-.05,0-.05,0v-.09s-.05,0-.05,0l-.03-.45h-.04s0-.03,0-.03l-.02-.08v-.08s0-.02,0-.02h.04s-.02-.28-.02-.28h-.04s0-.14,0-.14h.04s-.02-.23-.02-.23h.05s0-.05,0-.05h.05s0-.26,0-.26h.04s0-.12,0-.12h.04s-.03-.46-.03-.46h-.04s0-.11,0-.11h-.06s0-.04,0-.04h-.2s0,.06,0,.06l-.11,.02v.05s-.27,.02-.27,.02v.06s-.21,.02-.21,.02v.04s-.52,.04-.52,.04v-.04s-.17,.01-.17,.01v-.07s-.11,0-.11,0v-.06s-.05,0-.05,0v-.04s-.01-.03-.01-.03h-.05s0-.03,0-.03l-.11-.02v-.04s-.1,0-.1,0v-.07s-.05,0-.05,0v-.06s-.06,0-.06,0v-.06s-.06,0-.06,0v-.05s-.05-.02-.05-.02v-.05s-.08,0-.08,0v-.06s-.04,0-.04,0v-.06s-.12,0-.12,0v-.1s-.04,0-.04,0l-.02-.06v-.07s-.04,0-.04,0v-.06s-.07,0-.07,0v-.06s-.04,0-.04,0l-.02-.11h-.06s0-.04,0-.04h-.04s0-.12,0-.12h-.06s-.02-.29-.02-.29h-.05s-.02-.16-.02-.16h-.05s0-.05,0-.05l-.03-.24-.02-.22v-.06s.05,0,.05,0l-.04-.52h.05s0-.14,0-.14v-.03s.05-.02,.05-.02v-.02s0-.21,0-.21v-.16s.03,0,.03,0v-.14s.05,0,.05,0v-.06s.01-.04,.01-.04h.04s-.01-.16-.01-.16h.07s0-.05,0-.05h.06s-.01-.15-.01-.15h.04s0-.05,0-.05h.06s0-.1,0-.1h.05s0-.06,0-.06h.04s.02-.05,.02-.05h.05s0-.05,0-.05h.06s0-.05,0-.05h.06s0-.06,0-.06h.12s0-.06,0-.06h.05s0-.06,0-.06h.05s0-.04,0-.04h.06s0-.07,0-.07h.17s0-.05,0-.05h.12s0-.06,0-.06h.1s0-.05,0-.05l1.38-.1v.05s.21-.01,.21-.01l.02,.05h.21s0,.02,0,.02h.16s0,.04,0,.04h.02s0,.05,0,.05h.1s0,.04,0,.04h.1s0,.05,0,.05l.42-.03v-.05s.32-.02,.32-.02v.05s.12,0,.12,0v.09s.04,0,.04,0v.06s.06,0,.06,0v.05s.05,0,.05,0v.06s.04,0,.04,0v.03s.03,.07,.03,.07v.04s.04,0,.04,0l.02,.35h-.04s0,.03,0,.03v.07s-.01,.03-.01,.03h-.04s0,.11,0,.11h-.05s.02,.3,.02,.3h-.06s0,.11,0,.11h-.04v.15h-.05s.01,.21,.01,.21v.04s-.04,0-.04,0v.2s-.04,0-.04,0l.02,.24h-.05s.02,.25,.02,.25h-.05s0,.04,0,.04l.02,.31h-.05s.02,.34,.02,.34h-.04s.02,.25,.02,.25h-.05s.04,.59,.04,.59h-.06s.05,.69,.05,.69h-.04s0,.15,0,.15h.04s0,.09,0,.09h-.04s.02,.25,.02,.25v.26s.01,.05,.01,.05h-.05s.02,.3,.02,.3h-.05s0,.05,0,.05h.05s.02,.28,.02,.28h-.05s.03,.45,.03,.45h-.08s.02,.3,.02,.3h-.06s0,.09,0,.09l-.05,.02v.14h-.2s0,.07,0,.07h-.06s0,.04,0,.04h-.07s0,.03,0,.03v.02s-.03,0-.03,0Zm-1.56-3.76h.09s0-.04,0-.04h.16s0-.07,0-.07h.13s0,.05,0,.05h.14s0,.03,0,.03l.24-.02v-.03s.01-.03,.01-.03h.05s0-.07,0-.07h.05s0-.07,0-.07h.06s-.01-.2-.01-.2h.05s-.02-.3-.02-.3v-.02s.05,0,.05,0l-.03-.46h.04s-.02-.29-.02-.29v-.3s.03,0,.03,0l-.03-.38h-.06s0-.09,0-.09h-.03s0-.05,0-.05h-.06s0-.1,0-.1h-.14s0-.03,0-.03h-.08s-.12,0-.12,0h-.03s0-.04,0-.04h-.2s0-.03,0-.03h-.05s0-.04,0-.04h-.05s-.37,.02-.37,.02h-.05s0,.06,0,.06l-.23,.02v.05s-.05,0-.05,0v.02s0,.04,0,.04h-.1s0,.04,0,.04h-.09s0,.03,0,.03v.03s-.04,0-.04,0v.15s-.06,0-.06,0v.12s-.03,.02-.03,.02v.12s-.03,0-.03,0l.04,.5h-.05s.02,.45,.02,.45h-.04s0,.13,0,.13h-.06s.01,.05,.01,.05v.08s.06,0,.06,0v.19s.04,0,.04,0v.06s.05,0,.05,0v.12s.06,0,.06,0v.19s.03,.02,.03,.02h.14s0,.05,0,.05h.08s0,.06,0,.06h.06s0,.05,0,.05l.43-.03v-.05Z"/>
      <path class="cls-1" d="M228.09,374.94v-.04s-.07,0-.07,0v-.05s-.07,0-.07,0v-.05s-.05,0-.05,0v-.05s-.05,0-.05,0v-.05s-.05,0-.05,0v-.06s-.02-.04-.02-.04h-.04s-.02-.09-.02-.09h-.04s-.04-.51-.04-.51h.04s0-.1,0-.1h.05s-.02-.28-.02-.28h.04s0-.08,0-.08v-.07s.04,0,.04,0l-.02-.23h.04s0-.03,0-.03l-.03-.44h.05s-.04-.61-.04-.61h.04s0-.25,0-.25l-.02-.23h-.05s0-.05,0-.05v-.05s-.05,0-.05,0v-.02s-.01-.03-.01-.03h-.05s-.04,.01-.04,.01v.04s-.12,.02-.12,.02v.02s0,.02,0,.02h-.03s0,.03,0,.03v.02s-.08,.01-.08,.01v.05s-.04,0-.04,0v.05s-.03,0-.03,0v.05s-.07,0-.07,0v.05s-.04,0-.04,0v.05s-.07,0-.07,0v.05s-.03,0-.03,0v.05s-.04,0-.04,0v.05s-.03,0-.03,0v.05s-.07,0-.07,0v.09s-.04,0-.04,0v.05s-.03,0-.03,0v.05s-.03,0-.03,0v.05s-.04,0-.04,0v.05s-.03,0-.03,0v.05s-.03,0-.03,0v.05s-.03,0-.03,0v.03s0,.05,0,.05v.02s-.04,0-.04,0v.09s-.03,0-.03,0v.15s-.03,0-.03,0v.04s-.03,.01-.03,.01v.04s-.04,.01-.04,.01v.05s-.03,0-.03,0v.08s-.03,0-.03,0v.05s-.04,0-.04,0v.06s-.03,0-.03,0v.09s-.04,0-.04,0v.05s-.03,0-.03,0v.09s-.04,0-.04,0v.05s-.03,0-.03,0v.14s-.04,.01-.04,.01v.04s-.04,0-.04,0v.09s-.04,.01-.04,.01v.09s-.04,0-.04,0v.04s-.04,.01-.04,.01v.05s-.04,0-.04,0v.09s-.04,0-.04,0v.06s0,.04,0,.04h-.04s0,.05,0,.05h-.04s0,.05,0,.05h-.05s0,.05,0,.05h-.05s0,.05,0,.05h-.05s0,.05,0,.05h-.14s0,.06,0,.06l-.22,.02v-.05s-.22,.01-.22,.01v-.05s-.16,.01-.16,.01v-.05s-.11,0-.11,0v-.03s-.01-.02-.01-.02h-.04s0-.04,0-.04h-.05s-.02-.09-.02-.09h-.04s0-.02,0-.02v-.02s-.05,0-.05,0v-.06s-.04,0-.04,0v-.02s-.02-.15-.02-.15v-.11s.04,0,.04,0v-.15s0-.04,0-.04h.04s0-.1,0-.1h.04s0-.05,0-.05h.05s0-.1,0-.1h.04s0-.1,0-.1h.04s0-.1,0-.1h.04s0-.02,0-.02v-.03s.05,0,.05,0v-.1s.04,0,.04,0v-.08s.04-.01,.04-.01v-.04s.03,0,.03,0v-.1s.04,0,.04,0v-.04s0-.05,0-.05h.04s0-.05,0-.05h.04s0-.11,0-.11h.05s0-.09,0-.09h.02s.02-.01,.02-.01v-.02s0-.03,0-.03h.05s0-.1,0-.1h.05s0-.1,0-.1h.05s0-.05,0-.05h.05s0-.05,0-.05h.05s0-.1,0-.1h.05s0-.05,0-.05h.05s0-.05,0-.05h.05s0-.05,0-.05h.05s0-.05,0-.05h.05s0-.1,0-.1h.05s0-.05,0-.05v-.05s.02,0,.02,0h.02s0-.04,0-.04l.09-.02v-.04s.05-.01,.05-.01v-.04s.03-.01,.03-.01v-.04s.09,0,.09,0v-.05s.04-.01,.04-.01v-.08s.05-.01,.05-.01v-.11s-.03-.12-.03-.12h-.04s-.01-.04-.01-.04h-.05s0-.04,0-.04h-.05s0-.04,0-.04h-.05s0-.04,0-.04h-.04s0-.02,0-.02v-.03s-.04,0-.04,0v-.04s-.06,0-.06,0v-.05s-.05,0-.05,0v-.05s-.05,0-.05,0v-.04s-.1,0-.1,0v-.04s-.05,0-.05,0v-.04s-.05,0-.05,0v-.05s-.04,0-.04,0v-.02s-.01-.02-.01-.02h-.05s0-.04,0-.04h-.05s0-.04,0-.04h-.05s0-.04,0-.04h-.09s0-.05,0-.05h-.09s0-.03,0-.03h-.05s-.02-.14-.02-.14h-.04s0-.09,0-.09h-.05s-.02-.1-.02-.1h-.04s-.02-.09-.02-.09h-.04s0-.03,0-.03v-.05s-.03,0-.03,0h-.02s0-.09,0-.09h-.05s-.06-.79-.06-.79h.04s-.01-.2-.01-.2h.05s0-.1,0-.1h.05s0-.1,0-.1h.04s0-.1,0-.1v-.09s.04,0,.04,0v-.05s.04,0,.04,0v-.09s.05,0,.05,0v-.05s.04-.01,.04-.01v-.04s.05,0,.05,0v-.05s.04-.01,.04-.01v-.04s.04,0,.04,0v-.05s.05-.01,.05-.01v-.04s.03,0,.03,0v-.05s0-.05,0-.05l.1-.02v-.04s.09-.02,.09-.02v-.04s.05,0,.05,0v-.05s.1-.02,.1-.02v-.05s.15-.01,.15-.01v-.04s.03-.01,.03-.01h.11s0-.04,0-.04l.16-.02v-.05s.29-.02,.29-.02v-.05s.34-.02,.34-.02v.05s.36-.02,.36-.02v.05s.15,0,.15,0v.04s.21-.01,.21-.01v.05s.11,0,.11,0v.05s.1,0,.1,0v.05s.11,0,.11,0v.04s.11,0,.11,0v.05s.05,0,.05,0v.04s.05,0,.05,0v.05s.06,0,.06,0v.02s.01,.03,.01,.03h.08s0,.04,0,.04h.1s0,.01,0,.01v.02s.05,0,.05,0v.09s.11,0,.11,0v.05s.05,0,.05,0v.05s.07,0,.07,0v.05s.05,0,.05,0v.05s.05,0,.05,0v.05s.05,0,.05,0v.05s.06,0,.06,0v.09s.06,0,.06,0v.05s.1,0,.1,0v.04s.1,0,.1,0v.05s.11,0,.11,0v.05s.05,0,.05,0v.05s.05,0,.05,0v.06s.05,0,.05,0l.03,.42h-.05s0,.13,0,.13h-.05s.04,.52,.04,.52h-.04s.01,.19,.01,.19h-.05s.01,.15,.01,.15h-.05s.03,.42,.03,.42h-.05s.03,.47,.03,.47h-.05s0,.04,0,.04v.09s.03,.43,.03,.43h-.04s.05,.66,.05,.66h-.05s.02,.33,.02,.33l.02,.35v.03s-.04,0-.04,0l.04,.6h-.05s0,.19,0,.19h-.04s0,.03,0,.03v.1s0,.07,0,.07h-.04s.02,.23,.02,.23v.25s.01,.04,.01,.04h-.06s.01,.19,.01,.19h-.07s0,.1,0,.1h-.07s0,.1,0,.1h-.06s0,.1,0,.1h-.06s0,.06,0,.06h-.05s0,.02,0,.02v.02s-.51,.04-.51,.04Zm-.45-4.62h.09s0-.05,0-.05h.05s0-.06,0-.06h.05s0-.09,0-.09h.04s-.01-.19-.01-.19h.05s-.01-.19-.01-.19h.05s0-.11,0-.11v-.05s.04,0,.04,0l-.02-.33h-.04s0-.04,0-.04h-.05s0-.09,0-.09h-.04s0-.09,0-.09h-.04s0-.05,0-.05h-.05s0-.04,0-.04h-.04s0-.03,0-.03h-.04s0-.04,0-.04h-.05s0-.05,0-.05h-.04s0-.04,0-.04h-.04s0-.02,0-.02v-.03s-.05,.01-.05,.01v-.06s-.04,0-.04,0v-.02s-.01-.03-.01-.03h-.03s0-.04,0-.04h-.08s0-.05,0-.05h-.08s0-.04,0-.04h-.11s0-.01,0-.01v-.03s-.18,.01-.18,.01h-.16s0-.04,0-.04l-.24,.02v.05s-.08,0-.08,0v.05s-.07,0-.07,0v.05s-.08,0-.08,0v.05s-.12,0-.12,0v.03s0,.02,0,.02h-.04s0,.1,0,.1h-.05s0,.05,0,.05h-.04s0,.1,0,.1h-.05s0,.1,0,.1h-.05s.02,.34,.02,.34h.05s0,.09,0,.09h.06s0,.04,0,.04h.04s0,.09,0,.09h.07s0,.04,0,.04h.05s0,.09,0,.09h.04s0,.04,0,.04h.07s0,.04,0,.04h.04s0,.02,0,.02v.02s.05,0,.05,0v.05s.09,0,.09,0v.05s.08,0,.08,0v.08s.04,0,.04,0v.08s.09,0,.09,0v.04s.04,0,.04,0v.02s.01,.02,.01,.02h.02s0,0,0,0v.04s.04,0,.04,0v.04s.2,0,.2,0v.04s.04,0,.04,0h.11s.09,0,.09,0v.05s.32-.02,.32-.02v-.05Z"/>
      <path class="cls-1" d="M221.88,375.11v-.05s-.11,0-.11,0v-.05s-.06,0-.06,0v-.06s-.1,0-.1,0v-.05s-.16,.01-.16,.01v-.06s-.06,0-.06,0v-.09s-.06,0-.06,0v-.05s-.1,0-.1,0v-.07s-.03-.18-.03-.18h.05s-.02-.15-.02-.15h.05s0-.06,0-.06h.05s-.03-.3-.03-.3h.05s0-.06,0-.06h-.05s-.05-.39-.05-.39h.05s-.03-.31-.03-.31h.06s0-.11,0-.11h.05s0-.04,0-.04l-.02-.2-.02-.16h.06s0-.06,0-.06h-.06s-.03-.34-.03-.34h.06s-.03-.26-.03-.26h.05s-.02-.2-.02-.2l-.02-.22v-.03s.04-.01,.04-.01l-.05-.45h.06s0-.11,0-.11h.05s-.05-.41-.05-.41h.06s-.01-.21-.01-.21h.05s-.01-.06-.01-.06v-.1s0-.04,0-.04h.05s-.02-.16-.02-.16h.05s-.04-.4-.04-.4h.05s-.02-.25-.02-.25h.05s-.02-.21-.02-.21h-.06s0-.1,0-.1h.05s-.03-.25-.03-.25h.05s-.05-.45-.05-.45h0s.05-.01,.05-.01v-.15s.04,0,.04,0v-.05s.03,0,.03,0v-.03s0-.03,0-.03h.05s0-.05,0-.05h.05s0-.06,0-.06h.15s0-.06,0-.06h.2s0,.03,0,.03l.26-.02v.06s.1,0,.1,0v.05s.06,0,.06,0v.05s.05,0,.05,0v.02s.02,.03,.02,.03h.09s0,.04,0,.04h.05s0,.1,0,.1h.06s.02,.15,.02,.15v.2s.03,.05,.03,.05h-.05s.03,.45,.03,.45h-.04s.02,.21,.02,.21h-.05s.05,.4,.05,.4h-.05s0,.19,0,.19l.02,.18h-.05s0,.06,0,.06l.02,.1v.04s-.04,0-.04,0l.02,.26h-.05s.01,.2,.01,.2h-.05s.05,.41,.05,.41h-.06s.02,.2,.02,.2h-.05s.04,.41,.04,.41h-.06s.03,.24,.03,.24l.03,.25v.02s-.04,0-.04,0l.02,.16h-.05s.02,.35,.02,.35h-.05s.02,.16,.02,.16h.05s.03,.25,.03,.25h.06s0,.05,0,.05h.05s0,.15,0,.15h.06s.02,.19,.02,.19h-.06s0,.11,0,.11h-.05s.01,.06,.01,.06h-.05s0,.02,0,.02v.05s0,.03,0,.03h-.05s0,.03,0,.03l.02,.2,.02,.18h-.05s0,.11,0,.11h-.05s0,.05,0,.05h-.04s0,.04,0,.04v.08s0,.04,0,.04h-.05s0,.05,0,.05h-.05s0,.11,0,.11h-.05s0,.11,0,.11h-.1s0,.05,0,.05h-.05s0,.11,0,.11h-.1s0,.06,0,.06h-.3Z"/>
      <path class="cls-1" d="M214.93,375.53h-.05s0-.05,0-.05h-.1s-.01-.02-.01-.02v-.02s-.1,0-.1,0v-.05s-.05,0-.05,0v-.03s-.01-.03-.01-.03h-.05s0-.04,0-.04h-.05s0-.04,0-.04h-.05s0-.06,0-.06h-.06s0-.1,0-.1h-.05s-.02-.31-.02-.31h.05s-.01-.21-.01-.21h-.05s-.02-.21-.02-.21h.05s0-.03,0-.03v-.02s-.05,0-.05,0v-.09s.04,0,.04,0v-.06s-.05,0-.05,0v-.06s.04,0,.04,0v-.1s.05,0,.05,0v-.1s-.06,0-.06,0v-.2s0-.06,0-.06h.05s0-.12,0-.12l-.02-.16v-.04s-.04,0-.04,0v-.05s-.03-.2-.03-.2h.05s-.02-.27-.02-.27h-.05s-.02-.21-.02-.21v-.05s.05,0,.05,0l-.03-.41h.05s-.01-.16-.01-.16h-.05s-.01-.21-.01-.21h.05s-.01-.16-.01-.16h-.05s0-.1,0-.1h-.06s-.01-.15-.01-.15v-.05s.04-.01,.04-.01l-.03-.52h.05s0-.06,0-.06h-.05s0-.04,0-.04h.05s-.03-.42-.03-.42h-.05s-.01-.15-.01-.15h.05s0-.06,0-.06h-.05s-.02-.27-.02-.27l-.03-.32v-.04s-.04,0-.04,0v-.04s-.02-.12-.02-.12h-.06s0-.01,0-.01v-.02s.02-.01,.02-.01h.02s-.01-.33-.01-.33h.06s0-.1,0-.1h.05s0-.06,0-.06h.05s0-.06,0-.06h.05s0-.05,0-.05h.05s0-.06,0-.06h.05s0-.06,0-.06h.05s0-.03,0-.03v-.03s.09,0,.09,0h.1s0,.05,0,.05h.09s0,.05,0,.05h.14s0,.05,0,.05h.09s0,.04,0,.04h.04s.02,.1,.02,.1h.05s.01,.02,.01,.02v.03s.05,0,.05,0v.1s.04,0,.04,0v.11s.05,0,.05,0v.05s.06,0,.06,0l.02,.32h.05s.01,.19,.01,.19h-.05s.11,1.53,.11,1.53v.05s-.05,0-.05,0l.08,1.17h.05s.02,.1,.02,.1h.05s.01,.05,.01,.05h.15s0-.11,0-.11h.05s0-.06,0-.06h.06s0-.1,0-.1h.05s0-.06,0-.06h.05s0-.07,0-.07h.05s0-.08,0-.08h.07s0-.14,0-.14h.06s0-.08,0-.08h.05s0-.06,0-.06h.05s0-.08,0-.08h.07s0-.08,0-.08h.05s0-.13,0-.13h.06s0-.13,0-.13h.05s0-.04,0-.04v-.04s.05,0,.05,0v-.13s.05,0,.05,0v-.07s.05,0,.05,0v-.06s.04,0,.04,0v-.13s.04,0,.04,0v-.04s0-.04,0-.04h.06s-.01-.21-.01-.21h.05s0-.06,0-.06h.06s0-.08,0-.08h.05s0-.13,0-.13h.06s0-.07,0-.07h.05s0-.08,0-.08h.06s0-.03,0-.03v-.04s.04-.01,.04-.01v-.06s.05,0,.05,0v-.07s.12,0,.12,0v-.06s.04,0,.04,0v-.14s.05,0,.05,0v-.07s.05,0,.05,0v-.07s.05,0,.05,0v-.07s.05,0,.05,0v-.06s.05,0,.05,0v-.06s.05-.02,.05-.02v-.02s0-.04,0-.04h.09s0-.08,0-.08h.06s0-.06,0-.06h.05s0-.08,0-.08l.12-.02v-.05s.04,0,.04,0v-.1s.11,0,.11,0v-.05s.09,0,.09,0v-.03s0-.03,0-.03h.05s0-.05,0-.05h.06s0-.04,0-.04v-.03s.11,0,.11,0v-.05s.52-.03,.52-.03v.04s.11,0,.11,0v.06s.06,0,.06,0v.05s.11,0,.11,0v.05s.11,0,.11,0v.09s.06,0,.06,0v.05s.05,0,.05,0l.02,.21h.06s0,.04,0,.04h.06s0,.15,0,.15h.05s.04,.63,.04,.63h-.05s0,.05,0,.05h-.05s.01,.17,.01,.17h-.05s0,.11,0,.11v.1s-.04,0-.04,0v.05s0,.06,0,.06h-.05s.01,.21,.01,.21h-.05v.29s-.04,0-.04,0v.05s0,.09,0,.09v.02s-.04,.01-.04,.01l.03,.35h-.05s.03,.4,.03,.4h-.06s0,.04,0,.04h.05s.02,.13,.02,.13h.05s.01,.16,.01,.16h-.05s0,.09,0,.09h-.06s.03,.41,.03,.41h-.06s.04,.6,.04,.6h-.05s.03,.46,.03,.46v.04s-.05,0-.05,0l.03,.4h.05s.01,.03,.01,.03l.03,.41h-.05s.02,.34,.02,.34v.04s-.04,0-.04,0v.1s-.05,0-.05,0v.03s0,.03,0,.03h-.07s0,.05,0,.05h-.09s0,.06,0,.06l-.31,.02v-.05s-.11,0-.11,0v-.05s-.16,.01-.16,.01v-.06s-.12,0-.12,0v-.1s-.05,0-.05,0v-.05s-.06,0-.06,0l-.06-.88v-.04s.05,0,.05,0v-.2s-.03,0-.03,0h-.03s-.01-.07-.01-.07v-.05s-.05,0-.05,0v-.17s.03,0,.03,0l-.04-.56h.06s-.03-.4-.03-.4h.05s0-.18,0-.18v-.18s.03-.01,.03-.01v-.12s.05,0,.05,0l-.04-.6v-.03s.05,0,.05,0l-.02-.33v-.03s.05,0,.05,0v-.05s-.05,0-.05,0v-.05s.04,0,.04,0v-.2s-.23,.01-.23,.01v.06s-.05,0-.05,0v.06s-.04,0-.04,0v.05s-.02,0-.02,0v.1s-.04,0-.04,0v.06s-.04,.01-.04,.01v.04s-.03,.01-.03,.01v.03s0,.03,0,.03h-.04s0,.05,0,.05h-.04s0,.11,0,.11h-.03s0,.06,0,.06h-.05s0,.05,0,.05h-.04s0,.03,0,.03v.03s-.04,0-.04,0v.11s-.03,0-.03,0v.02s0,.03,0,.03h-.05s0,.11,0,.11h-.03s0,.06,0,.06h-.05s.01,.16,.01,.16h-.06s0,.05,0,.05h-.05s0,.06,0,.06h-.06s0,.06,0,.06h-.06s0,.11,0,.11h-.06s0,.05,0,.05h-.06s0,.16,0,.16h-.05s0,.11,0,.11h-.05s0,.06,0,.06h-.06s0,.11,0,.11h-.05s0,.11,0,.11h-.06s0,.11,0,.11h-.07s0,.11,0,.11h-.06s0,.12,0,.12h-.05s0,.08,0,.08v.1s0,.03,0,.03h-.06s0,.12,0,.12h-.07s0,.05,0,.05h-.06s.01,.16,.01,.16h-.07s0,.05,0,.05h-.05s0,.17,0,.17h-.06s0,.05,0,.05h-.07s.01,.16,.01,.16h-.06s0,.06,0,.06v.06s-.05,0-.05,0v.15s-.04,0-.04,0v.1s-.06,0-.06,0v.11s-.06,0-.06,0v.05s-.06,0-.06,0v.11s-.06,0-.06,0v.05s0,.05,0,.05h-.05s0,.12,0,.12h-.05s0,.05,0,.05h-.05s0,.06,0,.06h-.07s0,.06,0,.06h-.06s0,.05,0,.05h-.06s0,.06,0,.06h-.12s0,.06,0,.06l-.32,.02Z"/>
      <path class="cls-1" d="M209.33,375.88v-.02s0-.02,0-.02h-.05s-.12,0-.12,0h-.08s0-.04,0-.04h-.13s-.02-.04-.02-.04l-.47,.03v-.04s-.04,0-.04,0h-.16s0-.03,0-.03h-.1s0-.06,0-.06h-.04s0-.03,0-.03h-.06s0-.05,0-.05h-.09s0-.04,0-.04h-.1s0-.04,0-.04h-.09s0-.05,0-.05h-.05s0-.04,0-.04h-.1s0-.09,0-.09h-.05s0-.04,0-.04h-.05s0-.05,0-.05h-.05s0-.04,0-.04h-.05s0-.09,0-.09h-.06s0-.04,0-.04h-.05s0-.04,0-.04h-.05s-.01-.15-.01-.15h-.05s-.01-.19-.01-.19h-.05s0-.04,0-.04h-.05s-.01-.04-.01-.04v-.05s-.02,0-.02,0h-.02s-.02-.18-.02-.18v-.2s-.03-.05-.03-.05h-.03s-.02-.15-.02-.15h-.05s-.01-.19-.01-.19h-.05s-.03-.28-.03-.28h-.04s-.01-.19-.01-.19h.05s0-.1,0-.1h.05s0-.06,0-.06h.05s0-.1,0-.1h.05s0-.1,0-.1h.04s0-.11,0-.11h.05s0-.1,0-.1h.05s0-.05,0-.05h.05s0-.05,0-.05h.09s0-.04,0-.04v-.02s.28-.03,.28-.03v-.04s.43-.03,.43-.03v.04s.24-.02,.24-.02v-.02s0-.02,0-.02h.13s.01,0,.01,0v.02s.11,0,.11,0h.15s.03,0,.03,0v.04s.44-.03,.44-.03v.05s.36-.02,.36-.02h.03s0,.04,0,.04l.48-.03v.03s.01,.02,.01,.02l.67-.05v.05s.05,0,.05,0v.02s.01,.02,.01,.02h.04s.04,.39,.04,.39h.05s.01,.19,.01,.19h.05s0,.1,0,.1h-.05s0,.14,0,.14h.05s0-.03,0-.03v-.02s.09-.02,.09-.02v-.04s.05,0,.05,0v-.05s.04,0,.04,0v-.06s.04,0,.04,0v-.09s.04,0,.04,0v-.05s0-.05,0-.05h.04v-.15h.05s0-.06,0-.06h.06s0-.05,0-.05h.04s0-.09,0-.09h.05s0-.1,0-.1h.05s0-.15,0-.15h.05s0-.15,0-.15h.05s0-.11,0-.11v-.04s.04,0,.04,0l-.03-.45v-.04s.04,0,.04,0v-.09s-.05,0-.05,0v-.15s-.05,.01-.05,.01v-.04s-.03-.25-.03-.25h-.05s0-.15,0-.15h-.03s-.02-.01-.02-.01v-.05s-.01-.03-.01-.03h-.04s-.01-.02-.01-.02v-.03s-.05,0-.05,0v-.09s-.04,0-.04,0v-.02s-.01-.02-.01-.02h-.05s0-.02,0-.02v-.03s-.05,0-.05,0v-.03s-.01-.03-.01-.03h-.05s0-.04,0-.04h-.05s0-.03,0-.03h-.09s0-.05,0-.05h-.05s-.01-.02-.01-.02v-.02s-.04,0-.04,0v-.02s-.01-.02-.01-.02h-.04s-.01-.02-.01-.02v-.02s-.05,0-.05,0v-.05s-.1,0-.1,0v-.03s-.01-.02-.01-.02h-.05s0-.04,0-.04h-.09s0-.04,0-.04h-.15s0-.04,0-.04h-.14s0,0,0,0v-.03s-.53,.04-.53,.04v-.04s-.2,0-.2,0v-.02s-.01,0-.01,0h-.03s-.14,0-.14,0l-.13,.02h-.03s0,.02,0,.02v.02s-.15,.02-.15,.02v.05s-.15,0-.15,0v.05s-.09,0-.09,0v.05s-.1,.01-.1,.01v.04s-.04,.01-.04,.01v.09s-.04,0-.04,0v.05s-.04,0-.04,0v.06s-.05,0-.05,0v.04s-.03,.01-.03,.01v.02s0,.02,0,.02h-.04s0,.05,0,.05l-.09,.03v.02s0,.02,0,.02h-.04s0,.05,0,.05l-.09,.02v.05s-.13,0-.13,0h-.07s0-.04,0-.04h-.09s0-.04,0-.04h-.09s-.02-.09-.02-.09h-.05s0-.09,0-.09h-.04s-.02-.24-.02-.24h-.05s0-.1,0-.1h.05s0-.14,0-.14h.04s0-.11,0-.11h.04s0-.03,0-.03v-.02s.05,0,.05,0v-.05s.04-.01,.04-.01v-.04s.04-.01,.04-.01v-.09s.04,0,.04,0v-.02s0-.03,0-.03h.04s0-.11,0-.11h.06s0-.05,0-.05h.05s0-.05,0-.05h.05s0-.1,0-.1h.05s0-.03,0-.03v-.02s.09-.02,.09-.02v-.04s.24-.03,.24-.03v-.05s.19-.01,.19-.01v-.05s.15,0,.15,0v-.05s.14,0,.14,0v-.05s.68-.05,.68-.05v.03s.01,.02,.01,.02l.77-.05v.05s.25-.02,.25-.02v.05s.14,0,.14,0v.05s.11,0,.11,0v.06s.14,0,.14,0v.05s.05,0,.05,0v.05s.1,0,.1,0v.05s.05,0,.05,0v.05s.1,0,.1,0v.05s.05,0,.05,0v.03s.01,.02,.01,.02h.05s0,.05,0,.05h.05s0,.04,0,.04h.05s0,.04,0,.04h.06s0,.04,0,.04h.05s0,.04,0,.04h.05s.01,.05,.01,.05h.08s.01,.01,.01,.01v.03s.05,0,.05,0v.09s.04,0,.04,0v.05s.05,0,.05,0v.03s.01,.02,.01,.02h.05s.02,.1,.02,.1h.04s.01,.02,.01,.02v.02s.05,0,.05,0v.04s.05,0,.05,0v.05s.05,0,.05,0v.09s.05,0,.05,0v.09s.06,0,.06,0v.09s.04,0,.04,0l.02,.1h.05s.01,.19,.01,.19h.05s.02,.13,.02,.13h.04s.02,.29,.02,.29h.06s.01,.19,.01,.19h.05s.03,.39,.03,.39h.05s0,.09,0,.09h-.05s.03,.38,.03,.38h-.05s0,.11,0,.11v.09s-.04,0-.04,0v.15s-.04,0-.04,0v.14s-.04,0-.04,0v.2s-.03,0-.03,0v.09s-.04,0-.04,0v.1s-.04,0-.04,0v.05s0,.06,0,.06h-.04s0,.1,0,.1v.09s-.05,0-.05,0v.19s0,.01,0,.01h-.03s0,.09,0,.09v.07s-.03,0-.03,0v.09s-.04,.01-.04,.01v.02s0,.02,0,.02h-.05s0,.03,0,.03v.03s-.05,0-.05,0v.05s-.03,0-.03,0v.05s-.04,0-.04,0v.09s-.04,.01-.04,.01v.02s0,.02,0,.02h-.05s0,.06,0,.06h-.05s0,.05,0,.05h-.05s0,.05,0,.05h-.05s0,.05,0,.05h-.05s0,.11,0,.11h-.05s0,.05,0,.05h-.05s0,.1,0,.1h-.06s0,.11,0,.11h-.05s0,.05,0,.05h-.09s0,.05,0,.05h-.05s0,.05,0,.05h-.06s0,.05,0,.05l-.09,.02v.05s-.04,0-.04,0v.05s-.1,0-.1,0v.05s-.03,0-.03,0v.03s0,.02,0,.02h-.09s0,.05,0,.05h-.05s0,.06,0,.06h-.05s0,.05,0,.05h-.06s0,.05,0,.05h-.09s0,.05,0,.05h-.09s0,.05,0,.05l-.1,.02v.04s-.09,.03-.09,.03v.04s-.29,.02-.29,.02v.05s-.15,.01-.15,.01v.03s0,.02,0,.02h-.08s0,.05,0,.05h-.04s-.07,.02-.07,.02h-.04s0,.04,0,.04l-.39,.03Zm.15-1.27v-.02s0-.03,0-.03h.14s0-.06,0-.06h.15s0-.06,0-.06h.19s0-.04,0-.04v-.02s.15,0,.15,0v-.05s.15-.01,.15-.01v-.05s.04,0,.04,0v-.06s.04,0,.04,0v-.05s.04,0,.04,0v-.05s.04,0,.04,0v-.05s.05,0,.05,0v-.1s.04,0,.04,0v-.05s-.02-.05-.02-.05h-.04s0-.04,0-.04h-.1s0-.04,0-.04h-.2s0-.04,0-.04h-.14s0,0,0,0v-.03s-.11,0-.11,0h-.08s0-.04,0-.04h-.14v-.04s-.05,0-.05,0h-.07s-.03,0-.03,0v-.03s-.02-.02-.02-.02h-.18s0-.03,0-.03l-.92,.06v-.02s-.01-.03-.01-.03l-.42,.03v.05s-.1,0-.1,0l.03,.48h.05s.02,.09,.02,.09h.08s0,.05,0,.05h.06s0,.04,0,.04h.05s0,.09,0,.09h.09s0,.05,0,.05h.05s0,.04,0,.04h.05s.01,.01,.01,.01v.03s.05,0,.05,0v.05s.14,0,.14,0v.05s.3-.02,.3-.02v-.05s.14,0,.14,0v.05s.15-.01,.15-.01v.06s.34-.03,.34-.03Z"/>
      <path class="cls-1" d="M200.04,376.66v-.04s-.12,0-.12,0v-.05s-.07,0-.07,0v-.04s-.11,0-.11,0v-.03s-.12,0-.12,0v-.04s-.11,0-.11,0v-.04s-.06,0-.06,0v-.05s-.05,0-.05,0v-.04s-.1,0-.1,0v-.04s-.05,0-.05,0v-.04s-.05,0-.05,0v-.04s-.02-.05-.02-.05h-.05s0-.08,0-.08h.05s0-.08,0-.08h.05s0-.04,0-.04l-.02-.33h.04s0-.07,0-.07h.03s0-.08,0-.08h.03s-.01-.15-.01-.15h.04s0-.07,0-.07h.04s0-.11,0-.11h.02s0-.03,0-.03v-.16s-.01-.16-.01-.16h.05s-.01-.16-.01-.16h.05s0-.05,0-.05h-.05s0-.08,0-.08h-.06s0-.03,0-.03h-.04s0-.04,0-.04h-.1s0-.03,0-.03h-.09s-.01-.03-.01-.03h-.1s0-.04,0-.04h-.15s0-.03,0-.03h-.08s-.02-.01-.02-.01v-.03s-.04,0-.04,0v-.04s-.1,0-.1,0v-.04s-.05,0-.05,0v-.02s-.01-.03-.01-.03h-.04s0-.03,0-.03h-.06s0-.04,0-.04h-.04s0-.03,0-.03h-.09s0-.01,0-.01v-.02s-.06,0-.06,0v-.04s-.04,0-.04,0v-.05s-.07,0-.07,0v-.04s-.11,0-.11,0v-.05s-.04,0-.04,0v-.05s-.06,0-.06,0v-.04s-.09,0-.09,0v-.04s-.11,0-.11,0v-.08s-.04,0-.04,0v-.04s-.02-.05-.02-.05h-.09s0-.04,0-.04h-.04s-.01-.07-.01-.07h-.06s0-.04,0-.04h-.05s0-.08,0-.08h-.05s0-.09,0-.09h-.05s0-.03,0-.03h-.06s0-.04,0-.04h-.04s0-.07,0-.07h-.1s0-.08,0-.08h-.06s-.02-.13-.02-.13h-.04s0-.08,0-.08h-.05s0-.04,0-.04h-.06s0-.08,0-.08h-.05s-.02-.25-.02-.25h-.04s-.02-.21-.02-.21h-.05s0-.12,0-.12h-.04s0-.06,0-.06v-.08s-.02-.03-.02-.03h-.04s-.01-.02-.01-.02v-.15s-.05,0-.05,0l-.03-.46h.04s0-.08,0-.08h.02s.02-.01,.02-.01v-.07s0-.07,0-.07h.04s0-.12,0-.12h.05s0-.02,0-.02v-.02s.04-.01,.04-.01v-.07s.04-.02,.04-.02v-.04s.05,0,.05,0v-.04s.04-.01,.04-.01v-.04s.04,0,.04,0v-.04s.05,0,.05,0v-.08s.1,0,.1,0v-.05s.09,0,.09,0v-.05s.05,0,.05,0v-.04s.04-.01,.04-.01v-.04s.1,0,.1,0v-.04s.06,0,.06,0v-.04s.04-.01,.04-.01v-.04s.04,0,.04,0v-.04s.05,0,.05,0v-.06s.04,0,.04,0v-.04s.06,0,.06,0v-.05s.03,0,.03,0v-.04s.16-.01,.16-.01v-.05s.06,0,.06,0v-.04s.1,0,.1,0v-.04s.2-.01,.2-.01v-.03s0-.02,0-.02h.09s0-.05,0-.05h.04s0-.04,0-.04h.07s0-.05,0-.05h.04s0-.04,0-.04l.42-.03v-.05s.26-.02,.26-.02v-.04s.06,0,.06,0v.04s.44-.03,.44-.03v.05s.14,0,.14,0v.02s.02,.02,.02,.02h.14s0,.04,0,.04h.08s0,.03,0,.03h.15s0,.03,0,.03h.09s.01,.04,.01,.04h.05s0,.07,0,.07h.04s.01,.04,.01,.04h.05s0,.03,0,.03h.05s0,.04,0,.04h.06s0,.03,0,.03h.04s0,.08,0,.08h.05s.01,.17,.01,.17l.03,.2v.03s.04,0,.04,0v.08s.05,0,.05,0v.04s.02,.05,.02,.05h.04s0,.03,0,.03h.04s0,.04,0,.04h.06s.02,.23,.02,.23v.27s.01,.03,.01,.03h-.05s.02,.29,.02,.29h-.04s0,.12,0,.12h-.05s.01,.17,.01,.17h-.05s0,.09,0,.09h.05s.02,.24,.02,.24h-.05s.01,.17,.01,.17h-.04s0,.03,0,.03v.14s0,.12,0,.12h-.05s0,.04,0,.04h.05s.01,.2,.01,.2h-.05s.05,.66,.05,.66h.05s0,.08,0,.08h-.05s.02,.28,.02,.28h-.04s0,.1,0,.1h-.06s.01,.2,.01,.2h-.04s0,.09,0,.09h-.05s0,.05,0,.05h-.06s.02,.25,.02,.25h-.06s.02,.25,.02,.25h-.06s.03,.41,.03,.41h-.06s.03,.41,.03,.41h.06s.01,.16,.01,.16h-.06s0,.12,0,.12h-.05s.01,.21,.01,.21h-.06s.02,.26,.02,.26v.03s-.06,0-.06,0v.08s-.03,0-.03,0v.04s-.04,0-.04,0v.05s-.16,.01-.16,.01v.02s0,.02,0,.02h-.1Zm-.58-3.13h.09s0-.04,0-.04h.05s0-.05,0-.05h.05s0-.03,0-.03h.05s-.02-.32-.02-.32h.05s-.02-.1-.02-.1v-.1s-.04,0-.04,0v-.07s.03-.01,.03-.01v-.15s.04,0,.04,0v-.16s-.05,0-.05,0v-.04s.04,0,.04,0l-.03-.49h.05s0-.12,0-.12v-.11s.04,0,.04,0l-.02-.35h.05s-.02-.32-.02-.32v-.02s.04,0,.04,0v-.2s-.05,0-.05,0v-.02s-.01-.02-.01-.02h-.05s0-.03,0-.03h-.09s0-.03,0-.03h-.08s0-.04,0-.04h-.16s0-.04,0-.04h-.2s0,.06,0,.06h-.12s0,.05,0,.05h-.08s0,.04,0,.04h-.03s-.07,.02-.07,.02h-.03s0,.04,0,.04h-.08s0,.02,0,.02h0s-.07,.02-.07,.02v.04s-.04,0-.04,0v.04s-.08,0-.08,0v.04s-.08,.02-.08,.02v.03s-.04,0-.04,0v.05s-.02,0-.02,0v.04s-.05,0-.05,0v.03s-.03,.01-.03,.01v.07s-.08,.02-.08,.02v.02s0,.02,0,.02h-.05s0,.03,0,.03h-.03s0,.05,0,.05h-.05s0,.04,0,.04h-.04s0,.03,0,.03h-.08s0,.04,0,.04h-.04s0,.05,0,.05h-.04s0,.05,0,.05h-.06s0,.03,0,.03h-.04s.02,.24,.02,.24h.04s0,.15,0,.15h.03s.01,.03,.01,.03v.05s.05,0,.05,0l.02,.27h.03s.01,.15,.01,.15h.05s0,.03,0,.03h.04s0,.08,0,.08h.03s0,.06,0,.06h.05s0,.04,0,.04h.04s0,.07,0,.07h.05s0,.03,0,.03h.03s0,.04,0,.04h.04s0,.04,0,.04h.05s0,.02,0,.02h.03s0,.04,0,.04h.04s0,.03,0,.03h.05s0,.02,0,.02h.03s0,.02,0,.02v.02s0,0,0,0h.05s0,.03,0,.03h.07s0,.07,0,.07h.04s0,.02,0,.02v.03s.04,0,.04,0v.04s.09,0,.09,0v.04s.03,0,.03,0v.04s.05,0,.05,0v.04s.07,0,.07,0v.04s.09,0,.09,0v.03s.06,0,.06,0v.05s.04,0,.04,0v.04s.09,0,.09,0v.05s.13,0,.13,0v-.05Z"/>
      <path class="cls-1" d="M194.1,377.02v-.07s-.04,0-.04,0v-.07s-.04,0-.04,0v-.07s-.08,0-.08,0v-.07s-.09,0-.09,0v-.06s-.03,0-.03,0v-.13s-.11,0-.11,0v-.06s-.07,0-.07,0v-.13h-.06s0-.06,0-.06h-.07s0-.06,0-.06h-.07s0-.66,0-.66h.07s.02-.27,.02-.27h.06s0-.05,0-.05l.02-.47v-.41s-.06,0-.06,0v-.26s.07,0,.07,0v-.99s.07,0,.07,0v-.34s-.05,0-.05,0v-.11s0-.17,0-.17v-.06s-.05,0-.05,0v-.36s0-.39,0-.39v-.04s.05,0,.05,0v-.06s0-.09,0-.09v-.05s.06,0,.06,0v-.14s-.06,0-.06,0v-.26s.06,0,.06,0v-.39h.06s0-.07,0-.07h.06v-.14h.06s0-.03,0-.03v-.04s.06,0,.06,0v-.07s.05,0,.05,0v-.07s.06,0,.06,0v-.07s.12,0,.12,0v-.07s.52-.04,.52-.04v.06s.13,0,.13,0v.13s.06,0,.06,0v.07s.07,0,.07,0v.6s-.08,0-.08,0v.2s.06,0,.06,0v.6s-.07,0-.07,0v.17s0,.16,0,.16h-.07s-.02,.93-.02,.93h.07s0,.06,0,.06h-.07s0,.13,0,.13v.14h-.06s0,.2,0,.2h.06s0,.04,0,.04v.3s-.02,.25-.02,.25h.06s0,.35,0,.35v.37s.04,0,.04,0h.03s0,.19,0,.19h-.05s-.01,.07-.01,.07v.3s-.01,.22-.01,.22h.07s0,.2,0,.2h-.07s0,.54,0,.54h-.07s0,.06,0,.06v.07s-.07,0-.07,0v.08s-.07,0-.07,0v.07s-.06,0-.06,0v.07s-.07,0-.07,0v.07s-.06,0-.06,0v.07s-.07,0-.07,0v.03s0,.07,0,.07v.04s-.2,.01-.2,.01Z"/>
      <path class="cls-1" d="M190.91,377.08v-.06s-.12,0-.12,0v-.06s-.07,0-.07,0v-.06s-.05,0-.05,0v-.06s-.04,0-.04,0v-.06s-.04,0-.04,0v-.06s-.03,0-.03,0l-.02-.1h-.04s-.02-.28-.02-.28h-.05s-.04-.61-.04-.61h.07s0-.05,0-.05l-.03-.61-.04-.54h.07s0-.05,0-.05v-.38s-.03-.33-.03-.33h.07s-.04-.52-.04-.52h.07s0-.13,0-.13h-.05s0-.02,0-.02l-.04-.24v-.32s.04,0,.04,0l-.02-.28-.29,.02v.06s-.06,0-.06,0v.06s-.06,0-.06,0v.07s-.05,0-.05,0v.15s-.06,0-.06,0v.05s-.05,0-.05,0v.13s-.06,0-.06,0v.12s-.06,.02-.06,.02v.13s-.06,0-.06,0v.13h-.05s0,.07,0,.07h-.08s0,.08,0,.08h-.06s0,.13,0,.13h-.06s0,.06,0,.06h-.07s0,.15,0,.15h-.07s0,.06,0,.06h-.06s0,.03,0,.03v.08s0,.02,0,.02l-.04,.02v.14s-.07,0-.07,0v.07s-.05,0-.05,0h0s0,.06,0,.06h-.05s.01,.21,.01,.21h-.07s0,.07,0,.07h-.08s0,.13,0,.13h-.06s0,.14,0,.14h-.06s0,.12,0,.12h-.07s0,.07,0,.07h-.06s0,.08,0,.08v.08s0,.04,0,.04h-.06s0,.07,0,.07l-.06,.02v.05s0,.07,0,.07h-.07s0,.14,0,.14h-.06s0,.08,0,.08h-.08s0,.13,0,.13h-.05s0,.08,0,.08h-.07s0,.08,0,.08h-.05s-.01,.12-.01,.12h-.05s0,.07,0,.07h-.07s0,.13,0,.13h-.06s0,.06,0,.06h-.07s0,.07,0,.07h-.06s0,.12,0,.12h-.07s0,.11,0,.11h-.06s0,.05,0,.05h-.07s0,.15,0,.15h-.06s0,.06,0,.06h-.05s0,.05,0,.05h-.06s0,.03,0,.03v.03s-.05,0-.05,0v.06s-.06,0-.06,0v.06s-.1,0-.1,0v.06s-.07,0-.07,0v.05s-.11,0-.11,0v.03s0,.02,0,.02l-.11,.02v.06s-.16,.01-.16,.01v-.03s-.01-.03-.01-.03l-.23,.02v-.06s-.18,.01-.18,.01v-.11s-.05,0-.05,0v-.05s-.02-.06-.02-.06h-.06s0-.02,0-.02v-.02s-.05,0-.05,0v-.1s-.06,0-.06,0v-.11s-.06,0-.06,0v-.16s.03-.01,.03-.01v-.08s0-.07,0-.07h.06s-.01-.16-.01-.16h.05s0-.07,0-.07h.07s-.01-.16-.01-.16h.04s-.01-.17-.01-.17h.06s-.02-.29-.02-.29v-.04s.04-.01,.04-.01v-.11s0-.1,0-.1h.06s-.01-.16-.01-.16h.05s0-.12,0-.12h.04s-.03-.89-.03-.89h.15s-.06-.88-.06-.88v-.36s0-.29,0-.29v-.19s.07-.11,.07-.11h-.05s0-.03,0-.03v-.07s-.02-.07-.02-.07h-.05s-.01-.04-.01-.04l-.02-.24h.05s.02-.3,.02-.3h-.06s0-.1,0-.1l-.02-.12h-.05s-.02-.24-.02-.24h.06s-.02-.35-.02-.35h.05s0-.12,0-.12h.05s0-.05,0-.05h.06s0-.12,0-.12h.05s0-.06,0-.06h.04s0-.06,0-.06l.24-.03v-.05s.1,0,.1,0v.05s.23,0,.23,0l.03,.04h.13v.06s.05,0,.05,0v.05s.05,0,.05,0v.11s.07,0,.07,0v.08s.04,0,.04,0v.18s-.04,0-.04,0v.19s0,.05,0,.05v.5s-.08,.22-.08,.22v.16s.06,.13,.06,.13l-.02,.28,.02,.53v.44s-.05,.42-.05,.42v.07s-.02,.16-.02,.16v.08s.02,.33,.02,.33l.02,.24h.05s-.03,.12-.03,.12h.05s0,.05,0,.05h.04s0-.06,0-.06h-.01s0-.06,0-.06h-.02s0-.15,0-.15h-.02s-.01-.17-.01-.17h.05s-.01-.18-.01-.18h.06s0-.08,0-.08h.14s0-.09,0-.09h.07s0-.1,0-.1h.05s-.01-.16-.01-.16h.11s-.02-.28-.02-.28h.09s-.01-.18-.01-.18h.1s0-.08,0-.08h.08s-.01-.16-.01-.16h.19s0-.06,0-.06v-.05s.12-.03,.12-.03v-.07s.07,0,.07,0v-.18s.04,0,.04,0v-.18s.06,0,.06,0v-.16s.05-.02,.05-.02v-.06s.05,0,.05,0v-.18s.06,0,.06,0v-.08s.06,0,.06,0v-.18s.04,0,.04,0v-.16s.05-.02,.05-.02v-.07s.06,0,.06,0v-.09s.07,0,.07,0v-.08s.05,0,.05,0v-.08s.07,0,.07,0v-.07s.05,0,.05,0v-.07s.07,0,.07,0v-.06s.04,0,.04,0v-.06s0-.04,0-.04h.07s0-.06,0-.06h.06s0-.15,0-.15h.06s0-.08,0-.08h.07s0-.08,0-.08h.07s0-.08,0-.08h.07s-.01-.15-.01-.15h.13s0-.07,0-.07h.06s0-.08,0-.08h.05s0-.04,0-.04v-.03s.05,0,.05,0v-.06s.71-.05,.71-.05v.06s.06,0,.06,0v.05s.06,0,.06,0v.06s.05,0,.05,0v.05s.06,0,.06,0v.11s.06,0,.06,0v.11s.06,0,.06,0v.11s.06,0,.06,0v.1s.06,0,.06,0v.11s.06,0,.06,0v.21s.02,.25,.02,.25v.03s-.04,0-.04,0v.11s-.05,0-.05,0v.16s-.04,.01-.04,.01v.21s-.04,0-.04,0l.12,.38h-.06s.02,.34,.02,.34h-.05s0,.04,0,.04v.08s0,.05,0,.05h.05s.01,.15,.01,.15h-.06s.02,.25,.02,.25h-.05s0,.06,0,.06h.05s.01,.19,.01,.19h-.05s.01,.2,.01,.2v.22s0,.04,0,.04h-.05s.02,.36,.02,.36v.06s-.05,0-.05,0l.04,.56h-.06s.1,1.37,.1,1.37h-.05s0,.1,0,.1h.05s0,.11,0,.11h-.05s.02,.23,.02,.23h-.04s.02,.22,.02,.22h-.05s0,.06,0,.06h-.05s0,.11,0,.11h-.08s0,.06,0,.06h-.09s0,.06,0,.06l-.26,.02Z"/>
      <path class="cls-1" d="M181.17,377.86h-.06s0-.04,0-.04h-.09s-.01-.04-.01-.04h-.09s0-.04,0-.04h-.05s0-.04,0-.04h-.05s0-.05,0-.05h-.05s0-.02,0-.02v-.03s-.05,0-.05,0v-.05s-.06,0-.06,0v-.05s-.05,0-.05,0v-.06s-.15,.01-.15,.01v-.04s-.04,0-.04,0v-.05s-.11,0-.11,0v-.05s-.05,0-.05,0v-.02s-.01-.03-.01-.03h-.02s-.02,0-.02,0l-.02-.09h-.04s0-.02,0-.02v-.03s-.1,0-.1,0v-.09s-.05,0-.05,0v-.09s-.05,0-.05,0v-.05s-.02-.04-.02-.04h-.04s0-.1,0-.1h-.06s-.01-.14-.01-.14h-.05s0-.14,0-.14h-.05s0-.04,0-.04h-.05s0-.15,0-.15h-.05s-.02-.14-.02-.14h-.05s-.02-.23-.02-.23h-.05s-.01-.19-.01-.19h-.05s-.01-.19-.01-.19h-.05s-.02-.19-.02-.19h-.05s-.03-.38-.03-.38h.05s0-.13,0-.13v-.11s.04-.01,.04-.01v-.12s0-.12,0-.12h.05s-.02-.34-.02-.34h.05s0-.29,0-.29h.04s0-.06,0-.06v-.05s.04,0,.04,0v-.04s.04-.01,.04-.01v-.09s.04,0,.04,0v-.05s.04,0,.04,0v-.05s.04-.01,.04-.01v-.02s0-.03,0-.03l.47-.03v.05s.15,0,.15,0v.04s.1,0,.1,0v.05s.19-.01,.19-.01v.02s.01,.03,.01,.03h.14s0,.04,0,.04h.05s.01,.04,.01,.04h.14v.04s.15-.01,.15-.01v.05s.09,0,.09,0h.12s.04,0,.04,0v.05s.14,0,.14,0v.05s.1,0,.1,0v.05s.15-.01,.15-.01v.05s.28-.02,.28-.02v.06s.11,0,.11,0v.02s.01,.03,.01,.03h.13s0,0,0,0v.03s.1,0,.1,0v.05s.14,0,.14,0v.05s.11,0,.11,0v.06s.2-.01,.2-.01v.05s.53-.04,.53-.04v-.05s.15-.02,.15-.02v-.04s.04-.01,.04-.01v-.04s.04-.01,.04-.01l-.04-.53h-.05s0-.03,0-.03v-.1s-.01-.11-.01-.11v-.04s.04,0,.04,0l-.04-.63h-.05s-.02-.14-.02-.14h-.04s-.02-.1-.02-.1h-.04s0-.02,0-.02v-.03s-.05,0-.05,0v-.09s-.1,0-.1,0v-.02s-.01-.03-.01-.03h-.05s0-.01,0-.01v-.03s-.05,0-.05,0v-.05s-.06,0-.06,0v-.05s-.05,0-.05,0v-.05s-.05,0-.05,0v-.05s-.04,0-.04,0h-.08s-.04,0-.04,0v-.04s-.24,.02-.24,.02v.05s-.15,.01-.15,.01v.04s-.02,.01-.02,.01l-.26,.02v.05s-.14,0-.14,0v.05s-.1,.02-.1,.02v.05s-.03,0-.03,0v.05s0,.05,0,.05h-.04s0,.04,0,.04l-.09,.02v.05s-.08,0-.08,0l-.02,.03v.02s-.04,0-.04,0v.03s0,.02,0,.02l-.33,.02v-.02s-.01-.03-.01-.03h-.05s0-.04,0-.04h-.05s0-.04,0-.04h-.09s0-.04,0-.04h-.09s-.01-.04-.01-.04h-.05s-.02-.28-.02-.28h-.04s-.01-.05-.01-.05v-.05s-.05,0-.05,0v-.2s.03,0,.03,0v-.02s0-.03,0-.03h.04s0-.04,0-.04h.05s0-.03,0-.03v-.03s.04-.01,.04-.01v-.08s.05,0,.05,0v-.09s.04-.01,.04-.01v-.09s.04,0,.04,0v-.05s.04,0,.04,0v-.05s.09-.02,.09-.02v-.02s0-.02,0-.02l.09-.02v-.05s.1,0,.1,0v-.05s.19-.01,.19-.01v-.05s.23-.02,.23-.02v-.05s.1,0,.1,0l.09-.02v.06s.2-.01,.2-.01v.02s.01,.02,.01,.02h.17s.16-.01,.16-.01v-.04s.03-.01,.03-.01l.64-.04v.04s.14,0,.14,0v.05s.11,0,.11,0v.05s.05,0,.05,0v.03s.01,.02,.01,.02h.04s.01,.04,.01,.04h.05s0,.05,0,.05h.09s0,.04,0,.04h.05s0,.04,0,.04h.04s0,.05,0,.05h.06s0,.03,0,.03h.05s0,.05,0,.05h.05s0,.09,0,.09h.09s0,.04,0,.04h.03s.03,0,.03,0v.04s.05,0,.05,0v.04s.05,0,.05,0v.1s.05,0,.05,0v.19s.06,0,.06,0v.04s.02,.05,.02,.05h.05s0,.04,0,.04h.05s0,.1,0,.1h.05s0,.09,0,.09h.05s.01,.15,.01,.15h.05s0,.04,0,.04l.03,.31,.03,.46h.04s.04,.53,.04,.53h-.04s.02,.25,.02,.25h.04s0,.15,0,.15h-.04s.03,.38,.03,.38h-.06s.02,.25,.02,.25h-.04s0,.05,0,.05v.05s-.04,0-.04,0l.02,.26v.04s-.04,0-.04,0v.14s-.04,0-.04,0v.05s0,.05,0,.05h-.05s0,.06,0,.06h-.05s.02,.25,.02,.25h-.04s0,.1,0,.1h-.05s0,.06,0,.06v.05s-.03,0-.03,0v.09s-.05,0-.05,0v.09s-.04,0-.04,0v.06s-.04,0-.04,0v.05s-.1,0-.1,0v.09s-.04,0-.04,0v.1s-.04,0-.04,0v.14s-.04,0-.04,0v.06s-.04,0-.04,0v.09s-.05,0-.05,0v.05s-.04,0-.04,0v.05s-.04,0-.04,0v.1s-.04,0-.04,0v.05s-.05,0-.05,0v.05s-.08,0-.08,0v.05s-.05,0-.05,0v.05s-.04,0-.04,0v.05s-.1,.02-.1,.02v.02s0,.03,0,.03h-.08s0,.05,0,.05h-.09s0,.05,0,.05h-.1s0,.05,0,.05h-.03s-.07,.02-.07,.02h-.04s0,.04,0,.04h-.1s0,.06,0,.06h-.05s0,.05,0,.05h-.05s0,.05,0,.05h-.2s0,.06,0,.06h-.09s0,.06,0,.06h-.1s0,.05,0,.05h-.05s0,.05,0,.05h-.09s0,.03,0,.03v.02s-.39,.03-.39,.03v.05s-.38,.03-.38,.03v.03s0,.02,0,.02l-.37,.04v-.06Zm.44-1.19h.19s0-.06,0-.06h.19s0-.04,0-.04v-.02s.15-.02,.15-.02v-.04s.04,0,.04,0h.07s.04-.02,.04-.02v-.05s.04,0,.04,0v-.05s.1,0,.1,0v-.06s.09,0,.09,0v-.02s0-.02,0-.02h.05s.04-.01,.04-.01v-.02s0-.03,0-.03h.04s0-.05,0-.05h.09s0-.05,0-.05h.09s0-.05,0-.05h.05s0-.06,0-.06h.05s0-.05,0-.05h.05s0-.05,0-.05h.05s0-.1,0-.1h.05s0-.03,0-.03v-.02s.05,0,.05,0v-.1s.04,0,.04,0v-.09s.04,0,.04,0v-.05s-.05,0-.05,0v-.1s-.05,0-.05,0v-.05s-.15,.01-.15,.01v-.05s-.1,0-.1,0v-.06s-.11,0-.11,0v-.05s-.14,0-.14,0v-.03s-.01-.02-.01-.02h-.14s0-.04,0-.04l-.23,.02v-.03s-.01-.02-.01-.02h-.19s0-.04,0-.04h-.1s-.01-.02-.01-.02v-.02s-.08,0-.08,0v-.02s-.01-.03-.01-.03h-.14s0-.04,0-.04h-.2s0-.04,0-.04h-.05s0-.04,0-.04h-.15s0-.03,0-.03h-.05s-.15,0-.15,0v-.04s-.05,0-.05,0h-.1s-.05,0-.05,0v-.05s-.05,0-.05,0v-.04s-.1,0-.1,0v-.04s-.25,.02-.25,.02v.04s-.04,.01-.04,.01v.19s-.03,0-.03,0l.02,.29h-.05s.01,.2,.01,.2h.05s.01,.19,.01,.19h.05s0,.15,0,.15h.05s.01,.04,.01,.04h.04s0,.03,0,.03v.02s.06,0,.06,0v.06s.05,0,.05,0v.09s.04,0,.04,0v.06s.02,.08,.02,.08h.05s0,.11,0,.11v.04s.05,0,.05,0v.04s.02,.07,.02,.07v.03s.04,0,.04,0v.06s.05,0,.05,0v.05s.06,0,.06,0v.05s.05,0,.05,0v.05s.1,0,.1,0v.06s.05,0,.05,0v.05s.2-.01,.2-.01v.05s.2-.01,.2-.01v-.05Z"/>
      <path class="cls-1" d="M241.91,385.33v-.06s-.07,0-.07,0v-.05s-.14,0-.14,0v-.05s-.11,0-.11,0v-.05s-.06,0-.06,0v-.05s-.04,0-.04,0v-.03s-.01-.02-.01-.02l-.06-.02v-.08s-.04,0-.04,0v-.1s-.06,0-.06,0l-.02-.21h-.04s0-.04,0-.04h-.06s0-.14,0-.14h.06s-.01-.16-.01-.16h.04s0-.11,0-.11h.06s-.03-.4-.03-.4h.04s0-.16,0-.16h.05s-.03-.51-.03-.51h.04s-.02-.3-.02-.3h.03s.03-.01,.03-.01v-.09s-.06,0-.06,0v-.05s-.05,0-.05,0v-.05s-.05,0-.05,0v-.02s-.01-.02-.01-.02h-.04s0-.05,0-.05l-.31,.02v.06s-.31,.02-.31,.02h-.04s0-.05,0-.05l-.31,.02v-.05s-.22,.01-.22,.01h-.04s0-.05,0-.05l-.3,.02v-.05s-.25,.02-.25,.02v-.02s-.01-.04-.01-.04h-.05s0-.02,0-.02v-.03s-.05,0-.05,0v-.06s-.05,0-.05,0v-.05s-.06,0-.06,0v-.06s-.05,0-.05,0v-.04s-.06,0-.06,0v-.05s-.05,0-.05,0v-.04s-.06,0-.06,0v-.21s-.02-.21-.02-.21h.05s0-.06,0-.06h.1s0-.04,0-.04l.1-.02v-.06s.15-.01,.15-.01v-.04s.54-.04,.54-.04v.04s.76-.05,.76-.05v-.04s.1,0,.1,0v-.06s.1-.02,.1-.02v-.04s.16-.01,.16-.01v-.06s.1,0,.1,0v-.05s.09,0,.09,0v-.09s.1-.02,.1-.02v-.06s.04,0,.04,0v-.04s.05,0,.05,0v-.1s.04-.01,.04-.01v-.15s.04,0,.04,0v-.1s.03,0,.03,0v-.05s0-.06,0-.06h.06s0-.11,0-.11h-.06s-.03-.43-.03-.43h.05s0-.22,0-.22h.04s-.05-.71-.05-.71h-.04s0-.04,0-.04h-.1s0-.04,0-.04h-.1s0-.05,0-.05l-.35,.02v.05s-.03,.01-.03,.01l-.37,.03v.05s-.19,.01-.19,.01v.05s-.15,.01-.15,.01l-.2,.02h-.05s0,.05,0,.05h-.1s0,.05,0,.05h-.09s0,.02,0,.02v.04s-.04,0-.04,0l-.2,.02h-.18s-.03,0-.03,0v-.02s-.01-.03-.01-.03h-.15s0-.04,0-.04h-.05s0-.04,0-.04h-.06s0-.05,0-.05h-.1s0-.04,0-.04h-.05s-.01-.16-.01-.16h-.06s-.01-.14-.01-.14h.06s-.01-.15-.01-.15h.05s0-.11,0-.11h.05s0-.05,0-.05h.04s0-.06,0-.06h.05s0-.05,0-.05h.05s0-.06,0-.06h.06s0-.05,0-.05h.09s0-.06,0-.06h.05s0-.02,0-.02v-.04s.1,0,.1,0v-.04s.25-.03,.25-.03v-.04s.03,0,.03,0l.08-.02h.04s0-.04,0-.04h.15s0-.06,0-.06h.1s0-.06,0-.06h.09s0-.05,0-.05l.34-.02v-.05s.03-.01,.03-.01l.77-.05v.06s.26-.02,.26-.02v.05s.2-.01,.2-.01v.06s.4-.03,.4-.03v.02s.01,.03,.01,.03h.14s0,.03,0,.03h.06s0,.05,0,.05h.06s0,.04,0,.04h.05s0,.05,0,.05h.06s0,.1,0,.1h.1s.01,.15,.01,.15h.05s0,.15,0,.15h.06s.04,.59,.04,.59h.04s0,.1,0,.1h-.04s0,.12,0,.12v.14s-.05,0-.05,0v.03s0,.08,0,.08v.04s-.03,0-.03,0v.2s-.04,0-.04,0v.2s-.03,0-.03,0l.02,.3h-.06s.02,.26,.02,.26h-.05s0,.11,0,.11h-.06s0,.15,0,.15h-.06s.02,.36,.02,.36h-.05s.01,.15,.01,.15v.06s.05,0,.05,0l.04,.5h-.04s0,.04,0,.04l.04,.56h-.04s0,.25,0,.25l.02,.26h-.04s.09,1.47,.09,1.47h-.05s0,.14,0,.14h-.04s0,.05,0,.05h-.05s0,.05,0,.05v.22s.01,.2,.01,.2h-.04s0,.1,0,.1h-.05s0,.06,0,.06h-.05s0,.05,0,.05h-.06s0,.06,0,.06l-.33,.02Z"/>
      <path class="cls-1" d="M234.92,385.19v-.05s-.17,0-.17,0v-.05s-.17,.01-.17,.01v-.06s-.06,0-.06,0v-.07s-.13,0-.13,0v-.06s-.12,0-.12,0v-.06s-.12,0-.12,0v-.06s-.06,0-.06,0v-.05s-.06,0-.06,0v-.06s-.06,0-.06,0v-.06s-.06,0-.06,0v-.03s-.01-.03-.01-.03h-.05s-.01-.05-.01-.05h-.17s0-.11,0-.11h-.06s0-.05,0-.05h-.06s0-.05,0-.05h-.06s0-.11,0-.11h-.06s0-.12,0-.12h-.07s0-.01,0-.01v-.06s0-.04,0-.04h-.05s-.02-.11-.02-.11h-.05s0-.05,0-.05h-.05s-.02-.22-.02-.22h-.06s0-.04,0-.04v-.08s-.02-.04-.02-.04h-.05s-.03-.23-.03-.23l-.02-.22h-.03s-.02,0-.02,0v-.04s-.03-.23-.03-.23h-.06s-.05-.68-.05-.68h-.05s-.01-.04-.01-.04v-.18s.04,0,.04,0l-.02-.3v-.05s.05,0,.05,0v-.17s.04-.01,.04-.01v-.04s0-.08,0-.08v-.04s.04-.01,.04-.01v-.11s0-.11,0-.11h.05s0-.17,0-.17h.05s-.02-.46-.02-.46h.05v-.28s.04-.01,.04-.01v-.06s.05,0,.05,0v-.11s.05,0,.05,0v-.05s.05-.01,.05-.01v-.1s.05,0,.05,0v-.05s.05,0,.05,0v-.06s.05,0,.05,0v-.13s0-.05,0-.05h.05s0-.13,0-.13v-.04s.05,0,.05,0v-.03s0-.03,0-.03h.05s0-.06,0-.06v-.07s.06,0,.06,0v-.11s.1,0,.1,0v-.05s.05-.01,.05-.01v-.05s.05-.01,.05-.01v-.05s.11-.02,.11-.02v-.05s.04-.01,.04-.01h.19s0-.07,0-.07l.17-.02v-.05s.17-.01,.17-.01v-.06s.16-.01,.16-.01v-.06s.19-.01,.19-.01l.22-.02h.04s0-.05,0-.05l.51-.04v-.03s0-.03,0-.03l.11-.02v-.06s.05,0,.05,0v-.06s.05,0,.05,0v-.06s.05,0,.05,0v-.05s.11,0,.11,0l.11-.02v.06s.06,0,.06,0v.06s.12,0,.12,0v.06s.06,0,.06,0v.06s.02,.06,.02,.06h.06s0,.11,0,.11h.06s0,.11,0,.11h.05s.01,.17,.01,.17h.06s0,.04,0,.04h.06s0,.05,0,.05h.06s0,.05,0,.05h.06s.01,.05,.01,.05h.05s0,.03,0,.03v.03s.07,0,.07,0v.05s.11,0,.11,0l.02,.11h.06s0,.11,0,.11h.06s.01,.17,.01,.17h.06s0,.05,0,.05h.06s.02,.33,.02,.33h.06s0,.05,0,.05h.06s0,.11,0,.11h.06s0,.04,0,.04l.02,.14v.1s.06,0,.06,0l.02,.22h.06s.02,.28,.02,.28h.06s0,.05,0,.05h.06s.1,1.41,.1,1.41h-.06s.02,.24,.02,.24h-.06s0,.12,0,.12h-.06s0,.12,0,.12h-.06s0,.11,0,.11h-.06s0,.13,0,.13h-.06s.01,.17,.01,.17h-.11s0,.06,0,.06h-.06s0,.12,0,.12h-.05s0,.06,0,.06h-.06s0,.04,0,.04v.03s-.06,0-.06,0v.06s-.04,0-.04,0v.06s-.05,0-.05,0v.11s-.05,0-.05,0v.11s-.06,0-.06,0v.06s-.11,0-.11,0v.11s-.05,0-.05,0v.06s-.05,0-.05,0v.05s-.05,0-.05,0v.12s-.05,0-.05,0v.06s-.11,0-.11,0v.03s0,.03,0,.03h-.11s0,.06,0,.06h-.05s0,.12,0,.12h-.06s0,.06,0,.06l-.11,.02v.05s-.05,0-.05,0v.04s0,.03,0,.03h-.05s0,.06,0,.06h-.1s0,.06,0,.06h-.06s0,.06,0,.06h-.05s0,.03,0,.03v.08s-.11,0-.11,0v.06s-.18,.01-.18,.01h-.04s0,.07,0,.07h-.12s0,.06,0,.06h-.11s0,.06,0,.06l-.29,.02v.05s-.22,.02-.22,.02Zm.12-1.44h.12s0-.12,0-.12h.06s0-.06,0-.06h.11s0-.06,0-.06h.11s0-.06,0-.06h.12s0-.12,0-.12h.06s0-.06,0-.06h.04s0-.03,0-.03v-.04s.11,0,.11,0v-.06s.11,0,.11,0v-.06s.11,0,.11,0v-.11s.05,0,.05,0v-.06s0-.07,0-.07h.11s0-.06,0-.06h.06s0-.05,0-.05h.06s0-.12,0-.12h.06s0-.06,0-.06h.05s0-.12,0-.12h.06s-.01-.17-.01-.17h.05s0-.12,0-.12h.06s0-.06,0-.06h.06s-.02-.23-.02-.23h.03s.04-.01,.04-.01v-.16s.04-.01,.04-.01l-.02-.28h.06s-.01-.17-.01-.17h-.06s-.02-.28-.02-.28h-.06s-.02-.23-.02-.23h-.06s-.01-.06-.01-.06v-.06s-.05,0-.05,0v-.02s-.01-.06-.01-.06v-.04s-.06,0-.06,0l-.02-.22h-.06s0-.11,0-.11h-.06s0-.12,0-.12h-.05s-.03-.11-.03-.11h-.05s0-.05,0-.05h-.11s0-.05,0-.05h-.17s0-.02,0-.02v-.02s-.06,0-.06,0v-.03s-.01-.03-.01-.03h-.11s0-.05,0-.05h-.1s-.01-.05-.01-.05l-.57,.04v-.06s-.12,0-.12,0v.05s-.1,.02-.1,.02v.03s0,.03,0,.03h-.05s0,.03,0,.03v.03s-.1,0-.1,0v.06s-.12,.02-.12,.02v.05s-.11,0-.11,0v.06s-.05,0-.05,0v.06s-.05,0-.05,0v.12s-.06,0-.06,0v.06s-.05,0-.05,0v.17s-.04,0-.04,0v.03s0,.03,0,.03h-.06s.01,.17,.01,.17h-.06s.02,.3,.02,.3v.05s-.04,0-.04,0v.05s.01,.29,.01,.29h-.06s.04,.52,.04,.52h-.06s.03,.39,.03,.39h-.06s.05,.68,.05,.68h.06s0,.05,0,.05h.05s.02,.23,.02,.23h.06s.01,.16,.01,.16h.03s.03,0,.03,0v.03s.01,.02,.01,.02h.05s0,.12,0,.12h.11s0,.05,0,.05h.06s0,.05,0,.05h.11s.01,.02,.01,.02v.02s.11,.01,.11,.01v.1s.12,0,.12,0v.06s.34-.02,.34-.02v-.06Z"/>
      <path class="cls-1" d="M230.09,385.83v-.04s-.07,0-.07,0v-.05s-.07,0-.07,0v-.05s-.05,0-.05,0v-.05s-.05,0-.05,0v-.05s-.05,0-.05,0v-.06s-.01-.04-.01-.04h-.04s-.02-.09-.02-.09h-.04s-.04-.51-.04-.51h.04s0-.1,0-.1h.06s-.02-.28-.02-.28h.04s0-.08,0-.08v-.07s.04,0,.04,0l-.02-.23h.04s0-.03,0-.03l-.03-.44h.05s-.04-.61-.04-.61h.04s0-.25,0-.25l-.02-.23h-.05s0-.05,0-.05v-.05s-.05,0-.05,0v-.02s-.01-.03-.01-.03h-.05s-.04,.02-.04,.02v.04s-.12,.02-.12,.02v.02s0,.02,0,.02h-.03s0,.03,0,.03v.02s-.08,.01-.08,.01v.05s-.04,0-.04,0v.05s-.03,0-.03,0v.05s-.07,0-.07,0v.05s-.04,0-.04,0v.05s-.07,0-.07,0v.05s-.03,0-.03,0v.05s-.04,0-.04,0v.05s-.04,0-.04,0v.05s-.07,0-.07,0v.09s-.04,0-.04,0v.05s-.03,0-.03,0v.05s-.03,0-.03,0v.05s-.04,0-.04,0v.05s-.03,0-.03,0v.05s-.03,0-.03,0v.05s-.03,0-.03,0v.03s0,.05,0,.05v.02s-.04,0-.04,0v.09s-.03,0-.03,0v.15s-.03,0-.03,0v.04s-.03,.01-.03,.01v.04s-.04,.01-.04,.01v.05s-.04,0-.04,0v.08s-.03,0-.03,0v.05s-.04,0-.04,0v.06s-.03,0-.03,0v.09s-.04,0-.04,0v.05s-.02,0-.02,0v.09s-.04,0-.04,0v.05s-.03,0-.03,0v.14s-.04,.01-.04,.01v.04s-.03,0-.03,0v.09s-.04,.01-.04,.01v.09s-.04,0-.04,0v.04s-.04,.01-.04,.01v.05s-.04,0-.04,0v.09s-.04,0-.04,0v.06s0,.04,0,.04h-.04s0,.05,0,.05h-.04s0,.05,0,.05h-.05s0,.05,0,.05h-.05s0,.05,0,.05h-.05s0,.05,0,.05h-.14s0,.06,0,.06l-.22,.02v-.05s-.22,.01-.22,.01v-.05s-.16,.01-.16,.01v-.05s-.11,0-.11,0v-.03s-.01-.02-.01-.02h-.04s0-.04,0-.04h-.05s-.02-.09-.02-.09h-.04s0-.03,0-.03v-.02s-.05,0-.05,0v-.06s-.04,0-.04,0v-.02s-.02-.15-.02-.15v-.11s.04,0,.04,0v-.15s0-.04,0-.04h.04s0-.1,0-.1h.04s0-.05,0-.05h.05s0-.1,0-.1h.04s0-.1,0-.1h.04s0-.1,0-.1h.04s0-.02,0-.02v-.03s.05,0,.05,0v-.1s.04,0,.04,0v-.08s.04-.01,.04-.01v-.04s.03,0,.03,0v-.1s.04,0,.04,0v-.04s0-.05,0-.05h.04s0-.05,0-.05h.04s0-.11,0-.11h.05s0-.09,0-.09h.02s.02-.01,.02-.01v-.02s0-.03,0-.03h.05s0-.1,0-.1h.05s0-.1,0-.1h.05s0-.05,0-.05h.05s0-.05,0-.05h.05s0-.1,0-.1h.05s0-.05,0-.05h.05s0-.05,0-.05h.05s0-.05,0-.05h.05s0-.05,0-.05h.05s0-.1,0-.1h.05s0-.05,0-.05v-.05s.02-.01,.02-.01h.02s0-.04,0-.04l.09-.02v-.04s.05-.01,.05-.01v-.04s.03-.01,.03-.01v-.04s.09,0,.09,0v-.05s.04-.01,.04-.01v-.08s.05-.01,.05-.01v-.11s-.03-.12-.03-.12h-.04s-.01-.04-.01-.04h-.05s0-.04,0-.04h-.05s0-.04,0-.04h-.05s0-.04,0-.04h-.04s0-.02,0-.02v-.03s-.04,0-.04,0v-.05s-.06,0-.06,0v-.05s-.05,0-.05,0v-.05s-.05,0-.05,0v-.04s-.1,0-.1,0v-.04s-.05,0-.05,0v-.04s-.05,0-.05,0v-.05s-.04,0-.04,0v-.02s-.01-.02-.01-.02h-.05s0-.04,0-.04h-.05s0-.04,0-.04h-.05s0-.04,0-.04h-.09s0-.05,0-.05h-.09s0-.03,0-.03h-.05s-.02-.14-.02-.14h-.04s0-.09,0-.09h-.05s-.02-.1-.02-.1h-.04s-.02-.09-.02-.09h-.04s0-.03,0-.03v-.05s-.03,0-.03,0h-.02s0-.09,0-.09h-.05s-.05-.79-.05-.79h.04s-.01-.2-.01-.2h.05s0-.1,0-.1h.05s0-.1,0-.1h.04s0-.1,0-.1v-.09s.04,0,.04,0v-.05s.04,0,.04,0v-.09s.05,0,.05,0v-.05s.04-.01,.04-.01v-.04s.05,0,.05,0v-.05s.04-.01,.04-.01v-.04s.04,0,.04,0v-.05s.05-.01,.05-.01v-.04s.03,0,.03,0v-.05s0-.05,0-.05l.1-.02v-.04s.09-.02,.09-.02v-.04s.05,0,.05,0v-.05s.1-.02,.1-.02v-.05s.14,0,.14,0v-.04s.03-.01,.03-.01h.11s0-.05,0-.05l.16-.02v-.05s.29-.02,.29-.02v-.05s.34-.02,.34-.02v.05s.36-.02,.36-.02v.05s.15,0,.15,0v.04s.21-.01,.21-.01v.05s.11,0,.11,0v.05s.1,0,.1,0v.06s.11,0,.11,0v.04s.11,0,.11,0v.05s.05,0,.05,0v.04s.05,0,.05,0v.05s.06,0,.06,0v.02s.01,.03,.01,.03h.08s0,.04,0,.04h.1s0,.01,0,.01v.02s.05,0,.05,0v.09s.11,0,.11,0v.05s.05,0,.05,0v.05s.07,0,.07,0v.05s.05,0,.05,0v.05s.05,0,.05,0v.05s.05,0,.05,0v.05s.06,0,.06,0v.09s.06,0,.06,0v.05s.1,0,.1,0v.04s.1,0,.1,0v.05s.11,0,.11,0v.05s.05,0,.05,0v.05s.05,0,.05,0v.06s.05,0,.05,0l.03,.42h-.05s0,.13,0,.13h-.05s.04,.52,.04,.52h-.05s.01,.19,.01,.19h-.05s.01,.15,.01,.15h-.05s.03,.42,.03,.42h-.05s.03,.47,.03,.47h-.05s0,.04,0,.04v.09s.03,.43,.03,.43h-.04s.05,.66,.05,.66h-.05s.02,.33,.02,.33l.02,.35v.03s-.04,0-.04,0l.04,.6h-.05s0,.19,0,.19h-.04s0,.03,0,.03v.1s0,.07,0,.07h-.04s.02,.23,.02,.23v.25s.01,.04,.01,.04h-.06s.01,.19,.01,.19h-.07s0,.1,0,.1h-.07s0,.1,0,.1h-.07s0,.1,0,.1h-.06s0,.06,0,.06h-.05s0,.02,0,.02v.02s-.51,.04-.51,.04Zm-.45-4.62h.09s0-.05,0-.05h.05s0-.06,0-.06h.05s0-.09,0-.09h.04s-.01-.19-.01-.19h.05s-.01-.19-.01-.19h.05s0-.11,0-.11v-.05s.04,0,.04,0l-.02-.33h-.04s0-.04,0-.04h-.05s0-.09,0-.09h-.04s0-.09,0-.09h-.04s0-.05,0-.05h-.05s0-.04,0-.04h-.04s0-.03,0-.03h-.04s0-.04,0-.04h-.05s0-.05,0-.05h-.04s0-.04,0-.04h-.04s0-.02,0-.02v-.03s-.05,.01-.05,.01v-.06s-.04,0-.04,0v-.02s-.01-.03-.01-.03h-.03s0-.04,0-.04h-.08s0-.05,0-.05h-.08s0-.04,0-.04h-.11s0-.01,0-.01v-.03s-.18,.01-.18,.01h-.16s0-.04,0-.04l-.24,.02v.05s-.08,0-.08,0v.05s-.07,0-.07,0v.05s-.08,0-.08,0v.05s-.12,0-.12,0v.03s0,.02,0,.02h-.04s0,.1,0,.1h-.05s0,.05,0,.05h-.04s0,.1,0,.1h-.05s0,.1,0,.1h-.05s.02,.34,.02,.34h.05s0,.09,0,.09h.06s0,.04,0,.04h.04s0,.09,0,.09h.07s0,.04,0,.04h.05s0,.09,0,.09h.04s0,.04,0,.04h.07s0,.04,0,.04h.04s0,.03,0,.03v.02s.05,0,.05,0v.05s.09,0,.09,0v.05s.08,0,.08,0v.08s.04,0,.04,0v.08s.09,0,.09,0v.04s.04,0,.04,0v.02s.01,.02,.01,.02h.02s0,0,0,0v.04s.04,0,.04,0v.04s.2,0,.2,0v.04s.04,0,.04,0h.11s.09,0,.09,0v.05s.32-.02,.32-.02v-.05Z"/>
      <path class="cls-1" d="M217.94,386.3v-.02s-.01-.04-.01-.04h-.05s0-.04,0-.04h-.1s0-.04,0-.04h-.04s0-.04,0-.04h-.05s0-.04,0-.04h-.06s0-.15,0-.15h-.05s-.02-.29-.02-.29h.05s-.03-.4-.03-.4h.06s0-.11,0-.11h.05s-.04-.6-.04-.6h.04s0-.11,0-.11v-.03s.04-.01,.04-.01l-.04-.65h.05s-.04-.64-.04-.64v-.06s.03,0,.03,0v-.04s.01-.07,.01-.07v-.05s.04,0,.04,0l-.07-1.06v-.03s.04-.01,.04-.01v-.22s-.02-.21-.02-.21h.04s0-.05,0-.05v-.15s-.02-.17-.02-.17v-.04s-.05,0-.05,0v-.05s-.06,0-.06,0v-.05s-.25,.02-.25,.02v.05s-.05,0-.05,0h-.07s-.03,.02-.03,.02v.04s-.14,.02-.14,.02v.06s-.14,0-.14,0v.05s-.1,0-.1,0v.05s-.74,.05-.74,.05v-.05s-.1,0-.1,0v-.05s-.06,0-.06,0v-.05s-.11,0-.11,0v-.05s-.05,0-.05,0v-.1s-.06,0-.06,0v-.2s-.05,0-.05,0l-.02-.34h.04s0-.05,0-.05h.02s.03-.01,.03-.01v-.03s0-.02,0-.02h.05s0-.06,0-.06h.05s0-.05,0-.05h.05s0-.06,0-.06h.06s-.01-.02-.01-.02v-.02s.05-.01,.05-.01v-.04s.04,0,.04,0v-.06s.04-.01,.04-.01v-.04s.4-.04,.4-.04v-.04s.03-.01,.03-.01h.16s0-.06,0-.06l.1-.02v-.04s.03,0,.03,0h.07s.04-.03,.04-.03v-.04s.25-.02,.25-.02v-.05s.04,0,.04,0v.05s1.54-.11,1.54-.11v-.05s.31-.02,.31-.02l.23-.03v-.04s.24-.03,.24-.03v-.04s.04-.01,.04-.01l.27-.03,.24-.02v-.05s.54-.04,.54-.04v.05s.1,.01,.1,.01v.04s.26-.02,.26-.02v.05s.19,0,.19,0v.02s.01,.03,.01,.03h.05s0,.04,0,.04h.06s0,.15,0,.15h.05s0,.04,0,.04h.05s.02,.1,.02,.1h.04s0,.14,0,.14h-.04s0,.03,0,.03v.02s-.05,.01-.05,.01v.05s-.04,0-.04,0v.06s-.05,.01-.05,.01v.09s-.04,0-.04,0v.04s0,.08,0,.08v.04s-.04,0-.04,0v.1s-.04,0-.04,0v.04s-.04,.01-.04,.01v.02s0,.03,0,.03h-.05s-.05,.02-.05,.02v.05s-.2,.01-.2,.01v-.05s-1.04,.07-1.04,.07v.05s-.54,.04-.54,.04v.04s-.03,.01-.03,.01h-.12s0,.06,0,.06h-.04s0,.1,0,.1h-.05s.02,.25,.02,.25h-.05s.02,.26,.02,.26h-.05s0,.07,0,.07v.07s-.05,.01-.05,.01l.02,.48h-.04s.02,.35,.02,.35l.02,.36v.05s-.04,0-.04,0l.03,.49h-.05s.03,.39,.03,.39h-.05s.07,1,.07,1h-.05s.03,.5,.03,.5h-.04s0,.05,0,.05l.02,.31h-.05s.01,.16,.01,.16h-.05s0,.06,0,.06v.09s0,.04,0,.04h-.05s.02,.25,.02,.25h-.05s0,.05,0,.05h-.06s0,.05,0,.05l-.09,.02v.05s-.59,.04-.59,.04Z"/>
      <path class="cls-1" d="M213.14,387.35v-.03s0-.03,0-.03h-.05s0-.09,0-.09h-.06s0-.05,0-.05h-.06s0-.05,0-.05h-.05s0-.1,0-.1h-.05s-.01-.01-.01-.01v-.03s-.06,0-.06,0v-.05s-.04,0-.04,0v-.15s-.05,0-.05,0v-.07s0-.1,0-.1v-.04s.05,0,.05,0v-.06s.04,0,.04,0v-.1s.06-.01,.06-.01v-.04s.06-.01,.06-.01v-.18s0-.18,0-.18h.05s0-.29,0-.29v-.31s.01-.04,.01-.04h.04s0-.04,0-.04v-.19s0-.04,0-.04h-.04s0-.04,0-.04v-.48s-.04,0-.04,0v-.05s0-.06,0-.06h-.05s0-.05,0-.05l-.22,.02h-.05s0-.04,0-.04h-.15s0-.04,0-.04h-.06s-.57,.03-.57,.03v-.04s-.31,.01-.31,.01v-.02s.02-.03,.02-.03h-.13s-.04,0-.04,0v-.05s-.11,0-.11,0v-.05s-.1,0-.1,0v-.06s-.47,.03-.47,.03v.06s-.1,0-.1,0v.03s0,.02,0,.02h-.05s0,.03,0,.03v.03s-.04,0-.04,0v.05s0,.06,0,.06h-.05s-.03,.78-.03,.78h-.05s0,.42,0,.42h.05s0,.02,0,.02v.13s0,.1,0,.1h.05s0,.1,0,.1h.06s0,.21,0,.21h-.06s0,.05,0,.05h-.05s0,.05,0,.05h-.06s0,.11,0,.11h-.05s0,.06,0,.06h-.11s0,.05,0,.05h-.04s0,.06,0,.06h-.05s0,.03,0,.03l-.02,.03h-.05s0,.05,0,.05h-.03s-.13,.02-.13,.02h-.09s0-.05,0-.05h-.06s0-.11,0-.11h-.05s0-.04,0-.04h-.05s0-.04,0-.04h-.06s0-.11,0-.11h-.05s0-.09,0-.09h-.06s0-.02,0-.02v-.03s-.04,0-.04,0v-.03s-.01-.02-.01-.02h-.05s0-.02,0-.02v-.03s-.04,0-.04,0v-.09s-.05,0-.05,0v-.88s.07-.01,.07-.01v-.04s.04-.01,.04-.01v-.62s.02-.63,.02-.63h.05s0-.21,0-.21h-.05s0-.2,0-.2h.06s0-.37,0-.37v-.37s.06,0,.06,0v-1.13s.07-.01,.07-.01v-.51s-.05,0-.05,0v-.18s.01-.17,.01-.17h-.05s0-.26,0-.26h.05s0-.11,0-.11h.04s0-.06,0-.06h.05s0-.06,0-.06v-.05s.04,0,.04,0l.02-.05,.41-.03v.02s0,.03,0,.03h.15s0,.04,0,.04h.06s0,.05,0,.05h.05s.01,.04,.01,.04h.05s0,.05,0,.05h.05s.01,.05,.01,.05h.05s0,.09,0,.09h.05s.01,.16,.01,.16h.05s-.01,.13-.01,.13v.12h.06s-.02,1.14-.02,1.14h-.06s-.02,1-.02,1h.06s0,.05,0,.05h.1s0,.04,0,.04h.1s0,.05,0,.05h.16s0,.04,0,.04l.72-.04v.05s.28-.02,.28-.02h.03s0,.04,0,.04l.35-.02v-.03s.01-.02,.01-.02h.2s0-.07,0-.07h.21s0-.06,0-.06l.05-.02v-.02s0-.02,0-.02h.05s0-.15,0-.15h.05s0-.37,0-.37h-.04s.02-1.14,.02-1.14h-.05s0-.1,0-.1h.05s0-.12,0-.12h.05s0-.07,0-.07v-.1s.02-.04,.02-.04h.05s0-.15,0-.15h.06s0-.21,0-.21h.04s0-.01,0-.01v-.13s.02-.12,.02-.12h.05s0-.31,0-.31h.05s0-.06,0-.06h.06s0-.11,0-.11h.05s0-.05,0-.05h.1s0-.06,0-.06l.57-.04v.05s.1,0,.1,0v.1s.05,0,.05,0v.05s.05,0,.05,0v.1s0,.11,0,.11h.06s0,.19,0,.19h-.06s0,.16,0,.16h-.05s-.01,.06-.01,.06v.05s-.04,0-.04,0v.26s-.06,0-.06,0v.25s-.04,.01-.04,.01l-.02,.25h-.05s-.04,2.02-.04,2.02h.05s0,.46,0,.46h-.05s-.01,.78-.01,.78h.05s0,.26,0,.26h.05s0,.16,0,.16h-.05s-.03,1.24-.03,1.24h.06s0,.37,0,.37h-.06s0,.31,0,.31h-.05s0,.05,0,.05h-.06s0,.11,0,.11h-.05s0,.06,0,.06h-.06s0,.05,0,.05l-.11,.02v.05s-.04,0-.04,0v.05s-.05,0-.05,0v.06s-.47,.03-.47,.03Z"/>
      <path class="cls-1" d="M205.55,387.3v-.06s-.27,.02-.27,.02v-.05s-.06,0-.06,0v.05s-.16,.01-.16,.01v-.05s-.16,.01-.16,.01v-.06s-.12,0-.12,0v-.06s-.17,.01-.17,.01v-.06s-.33,.02-.33,.02v-.05s-.11,0-.11,0v-.05s-.17,.01-.17,.01v-.07s-.06,0-.06,0v-.05s-.06,0-.06,0v-.06s-.02-.05-.02-.05h-.05s-.02-.11-.02-.11h-.05s0-.05,0-.05h-.06s0-.1,0-.1h-.06s-.03-.38-.03-.38h.05s0-.06,0-.06h.11s0-.06,0-.06h.21s0,.03,0,.03l.66-.04v.06s.88-.07,.88-.07v-.05s.16-.01,.16-.01v-.11s.04-.01,.04-.01v-.05s0-.06,0-.06h.05s0-.11,0-.11h.07s0-.07,0-.07h.05s0-.05,0-.05h.05s0-.12,0-.12h.06s-.03-.44-.03-.44h.05s-.02-.34-.02-.34h-.05s0-.05,0-.05h-.06s0-.04,0-.04h-.33s0-.03,0-.03l-.27,.02v-.06s-.04,0-.04,0h-.11s-.23,.01-.23,.01v-.03s-.01-.02-.01-.02h-.11s0-.05,0-.05h-.21s0-.04,0-.04h-.11s0-.04,0-.04h-.05s-.11,0-.11,0v-.05s-.17,.01-.17,.01v-.07s-.02-.04-.02-.04h-.05s0-.05,0-.05h-.05s0-.05,0-.05h-.05s0-.05,0-.05h-.06s-.01-.05-.01-.05v-.06s-.05,0-.05,0v-.21s.03,0,.03,0v-.11s.06,0,.06,0v-.06s.1,0,.1,0v-.06s.11,0,.11,0v-.05s.11-.03,.11-.03v-.05s.27-.02,.27-.02v.07s.17-.01,.17-.01v.05s.16-.01,.16-.01v.05s.23-.02,.23-.02h.05s0-.06,0-.06l.39-.03v.06s.05,0,.05,0v-.06s.17-.01,.17-.01v.06s.16-.01,.16-.01v-.06s.16-.01,.16-.01v-.11s.05,0,.05,0v-.1s.04,0,.04,0v-.21s-.02-.24-.02-.24v-.04s.04,0,.04,0l-.02-.33h-.05s0-.03,0-.03l-.02-.09v-.1s0-.03,0-.03h.05s-.04-.55-.04-.55h-.06s0-.06,0-.06h-.1s0-.05,0-.05h-.17s0-.04,0-.04h-.16s0-.02,0-.02v-.02s-.61,.03-.61,.03v-.02s-.01-.03-.01-.03l-.26,.02v-.05s-.34,.01-.34,.01v-.06s-.22,.01-.22,.01v-.05s-.17,.01-.17,.01v-.06s-.12,0-.12,0v-.05s-.11,0-.11,0l-.02-.11h-.06s-.01-.15-.01-.15h-.05s0-.11,0-.11h-.02s-.02,0-.02,0h-.02s-.01-.15-.01-.15h.05s0-.07,0-.07h.05s0-.05,0-.05h.05s0-.12,0-.12l.1-.02v-.05s.11,0,.11,0v-.05s.04-.01,.04-.01v-.06s.5-.04,.5-.04v.06s.16-.01,.16-.01v.06s.27-.02,.27-.02v.03s.01,.03,.01,.03l.27-.02v.05s.22-.01,.22-.01v.06s.28-.02,.28-.02v.06s.82-.06,.82-.06v.05s.17-.01,.17-.01v.06s.02,0,.02,0h.03s.01,.03,.01,.03v.02s.06,0,.06,0v.06s.06,0,.06,0v.04s.05,0,.05,0v.11s.06,0,.06,0v.05s.12,0,.12,0v.06s.12,0,.12,0v.06s.06,0,.06,0v.06s.05,0,.05,0v.06s.11,0,.11,0v.06s.06,0,.06,0v.05s.06,0,.06,0v.21s-.04,.01-.04,.01v.16s-.04,0-.04,0v.07s0,.11,0,.11v.04s-.04,0-.04,0l.02,.28h-.06s.04,.55,.04,.55h-.05s.02,.27,.02,.27h.05s.03,.43,.03,.43h-.05s.04,.55,.04,.55h-.06s.04,.61,.04,.61h-.06s.04,.55,.04,.55h-.06s0,.05,0,.05h-.04s.01,.17,.01,.17v.16s-.05,.01-.05,.01l.02,.27h-.05s0,.14,0,.14v.13s0,.06,0,.06h-.05s0,.12,0,.12h.05s0,.05,0,.05l.02,.16v.1s-.05,.01-.05,.01v.1s-.05,0-.05,0v.06s-.05,0-.05,0v.06s0,.06,0,.06h-.05s0,.03,0,.03v.03s-.05,0-.05,0v.06s-.05,0-.05,0v.1s-.05,0-.05,0v.07s-.04,0-.04,0v.05s-.06,0-.06,0v.05s-.05,0-.05,0v.06s-.1,0-.1,0v.06s-.27,.02-.27,.02v.06s-.38,.03-.38,.03v.05s-.16,.01-.16,.01v.06s-.27,.02-.27,.02Z"/>
      <path class="cls-1" d="M195.65,388.04l-.04-.03h-.11s-.02-.05-.02-.05h-.05s0-.05,0-.05h-.04s0-.09,0-.09h-.05s0-.05,0-.05h-.06s0-.11,0-.11h-.05s0-.03,0-.03h-.11s0-.02,0-.02l-.03-.02h-.03s0-.06,0-.06h-.06s0-.1,0-.1h-.06s-.01-.16-.01-.16h-.05s0-.11,0-.11h-.05s0-.1,0-.1h-.06s0-.05,0-.05h-.06s0-.01,0-.01l-.03-.02h-.02s0-.11,0-.11h-.06s0-.05,0-.05h-.06s0-.11,0-.11h-.06s-.01-.32-.01-.32h-.05s-.01-.14-.01-.14h-.05s0-.1,0-.1h-.05s-.01-.21-.01-.21h-.06s0-.08,0-.08v-.08s-.06,0-.06,0v-.08s-.01-.08-.01-.08h-.06s0-.1,0-.1h-.03s-.02-.01-.02-.01l-.02-.08v-.07s-.05,.01-.05,.01v-.21s-.05,0-.05,0v-.21s-.06,0-.06,0l-.02-.16h-.03s-.02-.02-.02-.02l-.03-.03h-.02s-.02-.21-.02-.21h-.03s-.03-.01-.03-.01v-.06s0-.04,0-.04h-.06s0-.11,0-.11l-.1,.02v-.05s-.24,.03-.24,.03v.03s-.08,.09-.08,.09h-.02s0,.16,0,.16h-.05s0,.12,0,.12h-.04s-.01,.13-.01,.13h-.05s.01,.17,.01,.17h-.06s0,.06,0,.06h-.04s0,.05,0,.05v.06s0,.06,0,.06l-.02,.05h-.04s0,.38,0,.38h-.05s0,.23,0,.23h-.06s0,.06,0,.06h-.05s0,.17,0,.17h-.05s0,.23,0,.23h-.05s0,.13,0,.13h-.05s.01,.16,.01,.16h-.11s0,.13,0,.13h-.05s0,.27,0,.27h-.05s0,.12,0,.12h-.06s0,.12,0,.12h-.02s-.03,.02-.03,.02v.03s-.05,0-.05,0v.11s-.06,.01-.06,.01v.06s-.01,.06-.01,.06h-.1s0,.12,0,.12h-.06s0,.11,0,.11h-.05s0,.13,0,.13h-.02s-.03,.03-.03,.03v.03s-.1,.02-.1,.02v.03s-.02,.02-.02,.02l-.37,.04v-.05s-.11,.02-.11,.02v-.07s-.06,.01-.06,.01v-.11s-.05,0-.05,0v-.02s-.03-.03-.03-.03l-.06-.05h-.02s-.01-.05-.01-.05v-.05s-.11,0-.11,0v-.03s-.04-.03-.04-.03v-.02s-.04-.03-.04-.03h-.03s0-.11,0-.11h-.06s-.01-.15-.01-.15h-.05s0-.04,0-.04l-.05-.09v-.12s-.06,0-.06,0v-.05s-.02-.07-.02-.07v-.06s0-.04,0-.04h-.02s-.03-.01-.03-.01l-.03-.03h-.02s-.02-.1-.02-.1h-.05s-.01-.22-.01-.22v-.21s-.06,0-.06,0v-.02s-.02-.04-.02-.04h-.03s0-.08,0-.08v-.07s-.05,0-.05,0l-.02-.23v-.09s-.04,.01-.04,.01l-.02-.08v-.19s-.06,0-.06,0v-.49s-.06,0-.06,0v-.02s-.04-.03-.04-.03h-.03s0-.08,0-.08v-.08s-.05,0-.05,0v-.16s-.03,0-.03,0l-.03-.04-.02-.29h-.04s0-.03,0-.03v-.07s0-.07,0-.07v-.04s-.06,.01-.06,.01v-.28s-.06,0-.06,0v-.18s-.02-.22-.02-.22v-.04s-.06,0-.06,0v-.16s-.06,0-.06,0l-.02-.21h-.04s-.01-.16-.01-.16h-.04s-.01-.04-.01-.04l-.02-.1v-.07s-.04,0-.04,0l-.02-.27h-.05s0-.21,0-.21h-.05s-.02-.42-.02-.42h.06s0-.12,0-.12h.06s0-.12,0-.12h.02s.02-.03,.02-.03v-.03s.17-.02,.17-.02v-.05s.11-.02,.11-.02v-.03s0-.03,0-.03l.33-.04v.03s.02,.03,.02,.03l.03,.02v.03s.11,0,.11,0v.03s0,.02,0,.02h.1s.01,.02,.01,.02l.03,.03,.02,.03,.03,.03,.03,.02,.03,.03h.03s0,.1,0,.1h.05s0,.03,0,.03v.06s.03,.03,.03,.03h.04s0,.33,0,.33l.03,.38,.02,.04h.02s0,.15,0,.15h.02s.04,.03,.04,.03v.19s.01,.16,.01,.16h.05s.02,.27,.02,.27h.05s.02,.24,.02,.24h.05s.02,.27,.02,.27h-.03s-.02,.04-.02,.04v.02s.04,0,.04,0v.26s.07,.01,.07,.01v.11s.05,0,.05,0l.02,.13h.04s.01,.04,.01,.04v.33s.02,.27,.02,.27h.06s0,.13,0,.13h.05s.01,.06,.01,.06v.08s.05,0,.05,0v.19s.07,0,.07,0v.15s.05,0,.05,0v.03s.04,.03,.04,.03h.03s0,.05,0,.05l.16-.02v-.06s.06,0,.06,0v-.07s.05,0,.05,0v-.11s.05,0,.05,0v-.12s.05-.01,.05-.01v-.14s.03,0,.03,0l.03-.02v-.07s.02-.04,.02-.04h.03v-.13l.05-.02v-.11s.05-.01,.05-.01v-.2s0,0,0,0l.04-.04v-.04s.06-.01,.06-.01v-.19s0,0,0,0l.03-.04,.03-.04h.02v-.25s.05-.01,.05-.01v-.11s0-.13,0-.13l.03-.03h.02s0-.19,0-.19h.05s0-.13,0-.13h.05s-.01-.21-.01-.21h.03s.04-.04,.04-.04l.02-.03h.02s0-.04,0-.04v-.06s.01-.03,.01-.03h.02s.05-.09,.05-.09h.03s0-.12,0-.12h.03s.04-.04,.04-.04l.02-.04,.05-.08h.03s0-.12,0-.12h.06s0-.07,0-.07h.02s.02-.03,.02-.03v-.02s.06-.01,.06-.01v-.1s.06-.01,.06-.01v-.05s.04,0,.04,0v-.03s.03-.03,.03-.03l.03-.03,.02-.04,.04-.03,.03-.02,.03-.03,.04-.03,.3-.04,.27-.03v.03s.02,.02,.02,.02l.03,.03v.02s.06,0,.06,0v.03s0,.03,0,.03h.02s.03,.02,.03,.02l.03,.02,.02,.03,.04,.03h.02s.02,.11,.02,.11h.02s.03,.02,.03,.02v.19s.05-.01,.05-.01v.05s.03,.12,.03,.12v.08s.04,0,.04,0v.49s.07,0,.07,0v.06s.07,0,.07,0v.23s.06,0,.06,0v.2s.06,0,.06,0v.24s.05,0,.05,0v.17s.03,.02,.03,.02h.03s.01,.15,.01,.15l.04,.03h.02s0,.19,0,.19h.06s0,.11,0,.11h.06s.02,.12,.02,.12h.05s.02,.19,.02,.19h.02s.03,.02,.03,.02l.03,.03h.02s0,.19,0,.19h.06s.01,.17,.01,.17h.05s.01,.18,.01,.18h.06s0,.25,0,.25h.06s.01,.18,.01,.18h.02s.03,.02,.03,.02v.16s.04-.01,.04-.01l.02,.03v.02s.23-.03,.23-.03v-.03s.01-.02,.01-.02h.03s0-.18,0-.18h.05s0-.21,0-.21h.06s0-.19,0-.19h.05s-.02-.25-.02-.25h.06s-.01-.21-.01-.21h.06s-.02-.44-.02-.44h.05s0-.14,0-.14v-.12s.05-.01,.05-.01v-.16s0-.15,0-.15h.04s0-.2,0-.2h.05s-.02-.26-.02-.26h.07s-.02-.26-.02-.26h.06s0-.19,0-.19h.05s0-.14,0-.14h.04s0-.31,0-.31h.05s0-.06,0-.06v-.09s0-.05,0-.05h.04s0-.09,0-.09v-.11s.03-.04,.03-.04h.02s-.01-.33-.01-.33h.06s0-.03,0-.03v-.05s.02-.04,.02-.04h.03s0-.33,0-.33h.05s0-.11,0-.11l.11-.02v-.03s.03-.03,.03-.03h.02s0-.1,0-.1l.16-.03v-.05s.12-.03,.12-.03v-.06s.1,0,.1,0v-.05s.04-.01,.04-.01h.13s0,0,0,0v.03s.04,0,.04,0v.05s.12,0,.12,0v.05s.12-.02,.12-.02v.06s.04,0,.04,0l.02,.1h.09s.01,.03,.01,.03h.05s0,.16,0,.16h.06s0,.21,0,.21h-.03s-.06,.07-.06,.07h-.02s.01,.49,.01,.49h-.05s-.01,.12-.01,.12h-.02s-.04,.04-.04,.04l-.03,.02h-.02s.01,.16,.01,.16h-.06s.01,.34,.01,.34h-.05s0,.09,0,.09v.08s-.1,.03-.1,.03v.1s-.05,0-.05,0v.28s.03,0,.03,0l.03,.03v.02s-.05,0-.05,0v.17s-.05,.01-.05,.01v.11s-.05,0-.05,0v.11s-.06,0-.06,0v.21s-.04,.01-.04,.01v.27s.01,.27,.01,.27h-.04s-.01,.12-.01,.12h-.04s-.01,.13-.01,.13h-.04s0,.16,0,.16h-.06s.03,.28,.03,.28h.04s.01,.16,.01,.16h-.06s0,.23,0,.23h-.05s0,.09,0,.09v.07s-.04,.01-.04,.01v.22s-.03,0-.03,0l-.03,.04v.08s0,.04,0,.04h-.05s0,.4,0,.4h-.05s.01,.06,.01,.06v.08s-.03,.02-.03,.02h-.03s0,.16,0,.16l-.05,.03v.08s0,.07,0,.07h-.04s0,.12,0,.12h-.06s0,.17,0,.17h-.06s0,.12,0,.12h-.05s0,.11,0,.11h-.06s0,.06,0,.06h-.05s0,.12,0,.12h-.03s-.02,.04-.02,.04v.02s-.11,.02-.11,.02v.03s0,.03,0,.03h-.16s.01,.08,.01,.08l-.33,.03v-.02Z"/>
      <path class="cls-1" d="M186.66,388.43v-.04s-.06,0-.06,0v-.04s-.06,0-.06,0v-.05s-.11,0-.11,0v-.05s-.05,0-.05,0l-.02-.09h-.05s-.01-.04-.01-.04h-.05s0-.03,0-.03l-.02-.09v-.06s-.05,0-.05,0l-.04-.37h.06s0-.05,0-.05h.05s0-.1,0-.1h.05s-.01-.19-.01-.19h.05s-.03-.28-.03-.28h.06s-.02-.11-.02-.11v-.17s.03,0,.03,0v-.04s0-.08,0-.08v-.06s.04,0,.04,0l-.03-.32h.04s0-.11,0-.11h.05s-.03-.32-.03-.32h.06s-.01-.09-.01-.09v-.15s.04-.01,.04-.01v-.18s.03,0,.03,0v-.09s.03-.01,.03-.01l-.02-.32h.05s0-.14,0-.14h.05s-.02-.24-.02-.24h.05s0-.14,0-.14h.04s-.03-.33-.03-.33h-.04s-.02-.09-.02-.09h.04s-.02-.19-.02-.19h.05s0-.07,0-.07v-.07s.04,0,.04,0l-.04-.37h.06s-.03-.1-.03-.1h-.04s0-.02,0-.02l-.02-.02h.06s0-.03,0-.03l-.03-.35-.04-.34v-.02s-.04,0-.04,0l-.03-.28h.04s0-.04,0-.04v-.08s0-.03,0-.03h.05s0-.14,0-.14h.04s0-.05,0-.05h.05s0-.05,0-.05h.05s0-.05,0-.05h.05s0-.05,0-.05h.04s0-.05,0-.05l.36-.03v.05s.06,0,.06,0v.05s.05,0,.05,0v.05s.06,0,.06,0v.05s.06,0,.06,0v.05s.05,0,.05,0l.02,.14h.05s.01,.04,.01,.04h.05s.02,.18,.02,.18h.05s.13,1.24,.13,1.24h-.05s.02,.1,.02,.1h.04s.02,.18,.02,.18h-.05s.01,.04,.01,.04v.1s-.03,0-.03,0v.04s0,.2,0,.2h-.05s.03,.33,.03,.33h.06s.02,.23,.02,.23h-.05s0,.12,0,.12l.02,.14v.02s-.05,0-.05,0l.02,.15,.02,.19v.04s-.05,0-.05,0l.02,.09h-.06s0,.06,0,.06l.02,.09v.04s-.05,0-.05,0l.02,.18h-.05s.02,.24,.02,.24h-.05s0,.05,0,.05h-.05s.01,.19,.01,.19h-.04s0,.08,0,.08v.07s-.04,.01-.04,.01l.05,.5h-.06s.03,.24,.03,.24h-.05s0,.14,0,.14h-.05s.08,.79,.08,.79h-.06s0,.05,0,.05h-.05s0,.05,0,.05h-.05s0,.1,0,.1h-.06s0,.05,0,.05h-.09s0,.05,0,.05h-.1s.01,.05,.01,.05h-.09s0,.04,0,.04l-.41,.03Z"/>
      <path class="cls-1" d="M183.59,389.18h-.05s0-.04,0-.04h-.06s0-.04,0-.04h-.09s0-.04,0-.04h-.1s0-.04,0-.04h-.09s-.01-.02-.01-.02v-.03s-.05,0-.05,0v-.05s-.04,0-.04,0l-.02-.15h-.05s0-.04,0-.04h-.05s-.01-.15-.01-.15h-.04s0-.03,0-.03h.04s-.03-.5-.03-.5h.04s0-.11,0-.11h.06s-.01-.16-.01-.16l-.02-.2v-.04s-.05,0-.05,0v-.14s.04-.01,.04-.01v-.05s0-.05,0-.05h.04s0-.06,0-.06v-.1s0-.04,0-.04h.04s-.01-.16-.01-.16v-.2s0-.03,0-.03h.05s-.01-.2-.01-.2h.05s-.01-.15-.01-.15h.05s0-.04,0-.04l-.03-.54-.04-.54h.04s-.01-.16-.01-.16h.05s0-.04,0-.04h-.05s-.02-.24-.02-.24h-.02s-.03,0-.03,0v-.03s-.01-.02-.01-.02h-.14s0,.06,0,.06h-.05s0,.05,0,.05h-.04s0,.05,0,.05h-.03s-.03,.02-.03,.02v.04s-.04,0-.04,0v.05s-.04,.01-.04,.01v.08s-.05,.01-.05,.01v.04s-.02,0-.02,0h-.02s0,.04,0,.04v.02s-.05,0-.05,0v.03s0,.03,0,.03h-.04s0,.05,0,.05h-.05s0,.1,0,.1h-.05s0,.05,0,.05h-.02s-.03,.01-.03,.01v.05s-.04,0-.04,0v.05s0,.05,0,.05h-.05s0,.05,0,.05h-.05s0,.1,0,.1h-.05s0,.05,0,.05h-.02s-.02,.01-.02,.01l-.02,.03v.02s-.04,0-.04,0v.1s-.04,0-.04,0v.05s-.04,0-.04,0v.05s-.04,0-.04,0v.1s-.05,0-.05,0v.05s-.04,0-.04,0v.05s-.04,0-.04,0v.1s-.04,0-.04,0v.09s-.05,0-.05,0v.14s-.04,.01-.04,.01v.05s-.04,0-.04,0v.05s-.04,0-.04,0v.03s0,.02,0,.02h-.04s0,.06,0,.06h-.05s0,.05,0,.05h-.05s0,.1,0,.1h-.05s0,.11,0,.11h-.05s0,.05,0,.05h-.06s0,.1,0,.1h-.05s0,.11,0,.11h-.05s0,.1,0,.1h-.05s0,.06,0,.06h-.06s0,.05,0,.05h-.05s0,.1,0,.1h-.05s0,.06,0,.06h-.05s0,.14,0,.14h-.05s0,.05,0,.05v.06s-.04,0-.04,0v.09s-.04,0-.04,0v.05s-.04,0-.04,0v.06s-.04,0-.04,0v.06s0,.09,0,.09v.03s-.04,0-.04,0l.02,.25h-.05s0,.05,0,.05h-.19s0,.04,0,.04v.02s-.04,0-.04,0l-.23,.03h-.21s-.01-.02-.01-.02v-.02s-.05,0-.05,0v-.05s-.05,0-.05,0v-.05s-.06,0-.06,0v-.04s-.1,0-.1,0v-.05s-.15,0-.15,0v-.05s-.05,0-.05,0v-.09s-.05,0-.05,0l-.02-.19h-.04s-.01-.05-.01-.05v-.05s-.05,0-.05,0v-.05s-.05,0-.05,0v-.15s-.06,0-.06,0l-.03-.44h.04s0-.04,0-.04v-.11s.03,0,.03,0v-.05s0-.14,0-.14h-.05s0-.05,0-.05v-.05s-.05,0-.05,0l-.02-.24h.05s-.01-.2-.01-.2h.04s0-.04,0-.04v-.11s.04,0,.04,0l-.02-.23v-.21s.01,0,.01,0h.02s0-.16,0-.16v-.13s.03,0,.03,0v-.22s-.02-.22-.02-.22h.04s0-.03,0-.03l-.02-.35h.05s0-.26,0-.26h.05s-.02-.34-.02-.34h.02s.02-.01,.02-.01v-.09s0-.09,0-.09h.03s0-.02,0-.02v-.09s0-.08,0-.08h.03s0-.04,0-.04l-.02-.31h.06s-.02-.25-.02-.25h.04s0-.1,0-.1h.05s-.01-.2-.01-.2h.04s-.02-.3-.02-.3h-.05s-.02-.23-.02-.23h.05s0-.11,0-.11h.05s0-.1,0-.1h.05s0-.06,0-.06h.05s0-.05,0-.05h.05s0-.03,0-.03v-.02s.33-.02,.33-.02v.03s.01,.02,.01,.02h.05s0,.04,0,.04h.05s0,.09,0,.09h.05s0,.05,0,.05h.05s.01,.02,.01,.02v.02s.05,0,.05,0v.09s.05,0,.05,0v.05s.05,0,.05,0v.09s.05,0,.05,0v.2s.04,.19,.04,.19h.04s0,.04,0,.04l.02,.08v.06s-.04,.01-.04,.01v.1s0,.14,0,.14h-.05s.02,.25,.02,.25h-.05s.01,.15,.01,.15h-.05s0,.15,0,.15h-.05s.01,.19,.01,.19h-.05s0,.29,0,.29h-.05s0,.15,0,.15h-.04s0,.15,0,.15v.14h-.02s-.02,.01-.02,.01l.04,.53h-.05s.06,.84,.06,.84h.05s0,.04,0,.04h.05s0-.05,0-.05h.05s0-.05,0-.05h.05s0-.06,0-.06h.05s0-.03,0-.03v-.02s.04,0,.04,0v-.05s.04,0,.04,0v-.09s.04-.01,.04-.01v-.05s.1-.02,.1-.02v-.08s.09,0,.09,0v-.06s.04,0,.04,0v-.09s.04,0,.04,0v-.05s0-.05,0-.05h.04s0-.06,0-.06h.05s0-.1,0-.1h.05s0-.05,0-.05h.06s0-.05,0-.05h.04s0-.06,0-.06h.05s0-.05,0-.05v-.05s.03-.01,.03-.01h0s0-.04,0-.04h.05s0-.05,0-.05v-.06s.03,0,.03,0v-.05s.05,0,.05,0v-.15s.04-.01,.04-.01v-.05s0-.05,0-.05h.04s0-.05,0-.05h.05s0-.1,0-.1l.09-.02v-.05s.09,0,.09,0v-.05s0-.05,0-.05h.05s0-.05,0-.05h.05s0-.06,0-.06v-.05s.04,0,.04,0v-.09s.04,0,.04,0v-.05s.01,0,.01,0h.03s0-.03,0-.03v-.02s.04-.01,.04-.01v-.09s.04,0,.04,0v-.05s.05-.01,.05-.01v-.05s.04,0,.04,0v-.09s.04,0,.04,0v-.05s.04-.01,.04-.01v-.08s.04,0,.04,0v-.06s.05-.01,.05-.01v-.04s.04-.01,.04-.01v-.05s.05,0,.05,0v-.05s.04,0,.04,0v-.04s.01,0,.01,0l.03-.02v-.04s.04-.01,.04-.01v-.05s.05,0,.05,0v-.09s.03,0,.03,0v-.05s.1,0,.1,0v-.1s.04,0,.04,0v-.05s.04,0,.04,0v-.03s0-.02,0-.02h.04s0-.05,0-.05h.05s0-.1,0-.1h.05s0-.05,0-.05h.06s0-.05,0-.05h.05s0-.11,0-.11h.05s0-.05,0-.05h.1s0-.1,0-.1h.04s0-.06,0-.06h.09s0-.04,0-.04l.09-.02v-.05s.24-.02,.24-.02v.05h.14v.02s.01,.02,.01,.02h.05s0,.05,0,.05h.05s0,.04,0,.04h.05s0,.04,0,.04h.05s0,.04,0,.04h.05s.02,.24,.02,.24h.05s.05,.69,.05,.69h-.05s.02,.25,.02,.25h-.05s.02,.29,.02,.29h-.05s.02,.35,.02,.35h-.05s0,.1,0,.1h.05s0,.1,0,.1h-.05s0,.14,0,.14h-.05s.03,.5,.03,.5h-.06s.03,.39,.03,.39h-.04s.02,.4,.02,.4l.03,.39h-.05s.03,.44,.03,.44h-.05s.03,.63,.03,.63h-.04s.02,.35,.02,.35h-.05s.05,.68,.05,.68h-.05s.02,.24,.02,.24h-.05s0,.11,0,.11h-.04s.01,.2,.01,.2h-.06s0,.11,0,.11h-.05s0,.05,0,.05h-.05s0,.05,0,.05l-.09,.02v.04s-.05,.01-.05,.01h-.09Z"/>
    </g>
    <g>
      <path class="cls-1" d="M698.67,354.46h-.9v-3.89h1.45v.76h-.55v3.13Z"/>
      <path class="cls-1" d="M696.67,358.59c0-.67,.18-1.26,.56-1.63,.23-.22,.57-.4,1.04-.4s.8,.17,1.03,.4c.38,.37,.56,.96,.56,1.63s-.18,1.25-.56,1.63c-.23,.23-.57,.4-1.03,.4s-.82-.18-1.04-.4c-.38-.37-.56-.96-.56-1.63Zm1.6-1.26c-.15,0-.26,.05-.36,.15-.29,.28-.33,.84-.33,1.11,0,.3,.05,.85,.33,1.12,.1,.1,.21,.15,.36,.15s.26-.05,.36-.15c.27-.27,.33-.82,.33-1.12,0-.27-.04-.83-.33-1.11-.1-.1-.21-.15-.36-.15Z"/>
      <path class="cls-1" d="M696.67,364.66c0-.67,.18-1.26,.56-1.63,.23-.22,.57-.4,1.04-.4s.8,.17,1.03,.4c.38,.37,.56,.96,.56,1.63s-.18,1.25-.56,1.63c-.23,.23-.57,.4-1.03,.4s-.82-.18-1.04-.4c-.38-.37-.56-.96-.56-1.63Zm1.6-1.26c-.15,0-.26,.05-.36,.15-.29,.28-.33,.84-.33,1.11,0,.3,.05,.85,.33,1.12,.1,.1,.21,.15,.36,.15s.26-.05,.36-.15c.27-.27,.33-.82,.33-1.12,0-.27-.04-.83-.33-1.11-.1-.1-.21-.15-.36-.15Z"/>
      <path class="cls-1" d="M696.02,371.78c0-.34,.15-.55,.25-.65,.18-.19,.46-.29,.77-.29s.59,.1,.77,.29c.1,.1,.25,.31,.25,.65s-.15,.55-.25,.65c-.18,.19-.46,.29-.77,.29s-.59-.11-.77-.29c-.1-.1-.25-.31-.25-.65Zm1.02-.47c-.16,0-.27,.06-.33,.13-.08,.08-.13,.2-.13,.34s.05,.26,.13,.34c.06,.07,.17,.13,.33,.13s.27-.06,.33-.13c.08-.08,.13-.2,.13-.34s-.05-.26-.13-.34c-.06-.07-.17-.13-.33-.13Zm2.56,1.35l-.4,.09-2.29-3.95,.41-.09,2.28,3.94Zm-1.14-2.98c0-.34,.15-.55,.25-.65,.18-.19,.46-.29,.77-.29s.59,.11,.77,.29c.1,.1,.25,.31,.25,.65s-.15,.55-.25,.65c-.18,.19-.46,.29-.77,.29s-.59-.1-.77-.29c-.1-.1-.25-.31-.25-.65Zm1.02-.47c-.16,0-.27,.06-.33,.13-.08,.08-.13,.2-.13,.34s.05,.26,.13,.34c.06,.07,.17,.13,.33,.13s.27-.06,.33-.13c.08-.08,.13-.2,.13-.34s-.05-.26-.13-.34c-.06-.07-.17-.13-.33-.13Z"/>
      <path class="cls-1" d="M696.97,379.69v-.76h2.59v.76h-.84v3.13h-.9v-3.13h-.84Z"/>
      <path class="cls-1" d="M698.26,384.91c.78,0,1.26,.31,1.52,.57,.35,.35,.6,.92,.6,1.47s-.23,1.1-.61,1.45c-.29,.28-.79,.57-1.52,.57-.65,0-1.14-.22-1.5-.57-.42-.41-.61-.94-.61-1.46,0-.6,.24-1.11,.61-1.47,.39-.38,.9-.57,1.5-.57Zm0,.83c-.36,0-.66,.15-.86,.33-.17,.17-.34,.47-.34,.87,0,.45,.19,.72,.34,.87,.19,.19,.47,.33,.86,.33,.3,0,.58-.08,.83-.32,.24-.23,.36-.52,.36-.88,0-.43-.17-.72-.34-.88-.21-.21-.51-.33-.85-.33Z"/>
      <path class="cls-1" d="M700.21,394.96h-1.08l-.86-1.35-.86,1.35h-1.08l1.43-2.06-1.21-1.82h1.08l.64,1.11,.64-1.11h1.08l-1.21,1.82,1.43,2.06Z"/>
      <path class="cls-1" d="M698.71,397.14v3.89h-.9v-3.89h.9Z"/>
      <path class="cls-1" d="M696.79,405.94c.34,.34,.66,.4,.89,.4,.48,0,.76-.25,.84-.33,.17-.17,.34-.46,.34-.86,0-.37-.15-.69-.37-.9-.2-.2-.47-.3-.79-.3-.41,0-.71,.21-.91,.41v-1.04c.38-.16,.68-.22,.93-.22,.61,0,1.11,.23,1.45,.56,.35,.34,.61,.85,.61,1.46s-.26,1.14-.61,1.47c-.33,.32-.81,.57-1.53,.57-.23,0-.51-.04-.86-.21v-1.03Z"/>
    </g>
    <g>
      <path class="cls-1" d="M702.55,338.44h1.05l1.71,2.64v.51h-1.9v.73h-.86v-.73h-.47v-.71h.47v-2.44Zm1.82,2.44l-.96-1.51v1.51h.96Z"/>
      <path class="cls-1" d="M702.08,346.45c0-.67,.18-1.26,.56-1.63,.23-.22,.57-.4,1.04-.4s.8,.17,1.03,.4c.38,.37,.56,.96,.56,1.63s-.18,1.25-.56,1.63c-.23,.23-.57,.4-1.03,.4s-.82-.18-1.04-.4c-.38-.37-.56-.96-.56-1.63Zm1.6-1.26c-.15,0-.26,.05-.36,.15-.29,.28-.33,.84-.33,1.11,0,.3,.05,.85,.33,1.12,.11,.1,.21,.15,.36,.15s.26-.05,.36-.15c.27-.27,.33-.82,.33-1.12,0-.27-.04-.83-.33-1.11-.1-.1-.21-.15-.36-.15Z"/>
      <path class="cls-1" d="M701.43,353.57c0-.34,.15-.55,.25-.65,.18-.19,.46-.29,.77-.29s.59,.1,.77,.29c.1,.1,.25,.31,.25,.65s-.15,.55-.25,.65c-.18,.19-.46,.29-.77,.29s-.59-.11-.77-.29c-.1-.1-.25-.31-.25-.65Zm1.02-.47c-.16,0-.27,.06-.33,.13-.08,.08-.13,.2-.13,.34s.05,.26,.13,.34c.06,.07,.17,.13,.33,.13s.27-.06,.33-.13c.08-.08,.13-.2,.13-.34s-.05-.26-.13-.34c-.06-.07-.17-.13-.33-.13Zm2.56,1.35l-.4,.09-2.29-3.95,.41-.09,2.28,3.94Zm-1.14-2.98c0-.34,.15-.55,.25-.65,.18-.19,.46-.29,.77-.29s.59,.11,.77,.29c.1,.1,.25,.31,.25,.65s-.15,.55-.25,.65c-.18,.19-.46,.29-.77,.29s-.59-.1-.77-.29c-.1-.1-.25-.31-.25-.65Zm1.02-.47c-.16,0-.27,.06-.33,.13-.08,.08-.13,.2-.13,.34s.05,.26,.13,.34c.06,.07,.18,.13,.33,.13s.27-.06,.33-.13c.08-.08,.13-.2,.13-.34s-.05-.26-.13-.34c-.06-.07-.17-.13-.33-.13Z"/>
      <path class="cls-1" d="M704.3,360.72h.9v3.89h-.9v-1.73l-1.39,1.73h-1.15l1.7-2.05-1.57-1.84h1.1l1.33,1.62v-1.62Z"/>
      <path class="cls-1" d="M702.51,366.79h2.2v3.89h-2.2v-.76h1.3v-.86h-1.24v-.76h1.24v-.75h-1.3v-.76Z"/>
      <path class="cls-1" d="M704.12,376.75h-.9v-1.81l-1.39-2.08h1.06l.78,1.21,.78-1.21h1.06l-1.39,2.08v1.81Z"/>
      <path class="cls-1" d="M704.98,378.93v3.89h-1.46c-.24,0-.71-.02-1.03-.33-.15-.15-.3-.4-.3-.79,0-.34,.12-.57,.25-.69,.14-.14,.35-.23,.54-.26-.09-.04-.23-.12-.33-.29-.11-.17-.13-.34-.13-.5,0-.17,.03-.5,.28-.73,.3-.29,.78-.3,.99-.3h1.19Zm-.89,2.24h-.25c-.18,0-.48,0-.64,.15-.06,.05-.12,.16-.12,.31,0,.14,.05,.25,.13,.33,.16,.15,.44,.16,.66,.16h.22v-.94Zm0-1.54h-.14c-.16,0-.34,0-.47,.1-.07,.05-.15,.16-.15,.33s.08,.29,.16,.34c.13,.09,.33,.11,.46,.11h.15v-.88Z"/>
      <path class="cls-1" d="M703.67,384.91c.78,0,1.26,.31,1.52,.57,.35,.35,.6,.92,.6,1.47s-.23,1.1-.61,1.45c-.29,.28-.79,.57-1.52,.57-.65,0-1.14-.22-1.5-.57-.42-.41-.61-.94-.61-1.46,0-.6,.24-1.11,.61-1.47,.39-.38,.9-.57,1.5-.57Zm0,.83c-.36,0-.66,.15-.86,.33-.17,.17-.34,.47-.34,.87,0,.45,.19,.72,.34,.87,.19,.19,.47,.33,.86,.33,.3,0,.58-.08,.83-.32,.24-.23,.36-.52,.36-.88,0-.43-.17-.72-.34-.88-.21-.21-.51-.33-.85-.33Z"/>
      <path class="cls-1" d="M702.64,394.96h-.93l1.53-3.89h.82l1.57,3.89h-.93l-.3-.73h-1.47l-.29,.73Zm1.5-1.42l-.48-1.31-.48,1.31h.96Z"/>
      <path class="cls-1" d="M705.02,397.14v3.89h-.9v-1.53l-1.05,1.53h-1.1l1.2-1.59c-.22-.05-.41-.17-.54-.3-.25-.24-.3-.55-.3-.79,0-.43,.18-.71,.34-.87,.19-.18,.5-.34,.99-.34h1.36Zm-.9,.7h-.21c-.12,0-.35,.01-.5,.12-.08,.06-.18,.18-.18,.4,0,.19,.08,.32,.15,.38,.15,.15,.37,.17,.54,.17h.2v-1.07Z"/>
      <path class="cls-1" d="M705.24,403.21v3.89h-1.26c-.33,0-1-.04-1.53-.58-.32-.32-.53-.76-.53-1.38s.22-1.06,.56-1.39c.48-.46,1.02-.54,1.53-.54h1.23Zm-.9,.76h-.24c-.27,0-.65,.04-.94,.33-.15,.15-.32,.42-.32,.84s.17,.76,.38,.94c.29,.24,.7,.26,.89,.26h.24v-2.37Z"/>
    </g>
  </g>
</svg>