<?xml version="1.0" encoding="UTF-8"?>
<svg id="SILK_BACK" data-name="SILK BACK" xmlns="http://www.w3.org/2000/svg" width="473.7mm" height="210.01mm" viewBox="0 0 1342.79 595.3">
  <defs>
    <style>
      .cls-1 {
        fill: none;
        stroke: #fff;
        stroke-miterlimit: 10;
        stroke-width: .5px;
      }
    </style>
  </defs>
  <rect class="cls-1" x="643.18" y="184.06" width="182.32" height="206.87"/>
  <line class="cls-1" x1="643.18" y1="372.12" x2="825.5" y2="372.12"/>
  <line class="cls-1" x1="643.18" y1="353.31" x2="825.5" y2="353.31"/>
  <line class="cls-1" x1="643.18" y1="334.51" x2="825.5" y2="334.51"/>
  <line class="cls-1" x1="643.18" y1="315.7" x2="825.5" y2="315.7"/>
  <line class="cls-1" x1="643.18" y1="296.89" x2="825.5" y2="296.89"/>
  <line class="cls-1" x1="643.18" y1="278.09" x2="825.5" y2="278.09"/>
  <line class="cls-1" x1="643.18" y1="259.28" x2="825.5" y2="259.28"/>
  <line class="cls-1" x1="643.18" y1="240.48" x2="825.5" y2="240.48"/>
  <line class="cls-1" x1="643.18" y1="221.67" x2="825.5" y2="221.67"/>
  <line class="cls-1" x1="643.18" y1="202.86" x2="825.5" y2="202.86"/>
  <line class="cls-1" x1="808.93" y1="184.06" x2="808.93" y2="390.93"/>
  <line class="cls-1" x1="792.35" y1="184.06" x2="792.35" y2="390.93"/>
  <line class="cls-1" x1="775.78" y1="184.06" x2="775.78" y2="390.93"/>
  <line class="cls-1" x1="759.2" y1="184.06" x2="759.2" y2="390.93"/>
  <line class="cls-1" x1="742.63" y1="184.06" x2="742.63" y2="390.93"/>
  <line class="cls-1" x1="726.06" y1="184.06" x2="726.06" y2="390.93"/>
  <line class="cls-1" x1="709.48" y1="184.06" x2="709.48" y2="390.93"/>
  <line class="cls-1" x1="692.91" y1="184.06" x2="692.91" y2="390.93"/>
  <line class="cls-1" x1="676.33" y1="184.06" x2="676.33" y2="390.93"/>
  <line class="cls-1" x1="659.76" y1="184.06" x2="659.76" y2="390.93"/>
</svg>