<?xml version="1.0" encoding="UTF-8"?>
<svg id="TEXTE" xmlns="http://www.w3.org/2000/svg" width="473.7mm" height="210.01mm" viewBox="0 0 1342.79 595.3">
  <defs>
    <style>
      .cls-1 {
        fill: #fff;
      }
    </style>
  </defs>
  <g>
    <path class="cls-1" d="M1201.52,396.57v-2.95h-2.8v-1.17h2.8v-2.95h1.07v2.95h2.8v1.17h-2.8v2.95h-1.07Z"/>
    <path class="cls-1" d="M1202.08,384.99c-3.38,0-5.86-2.63-5.86-5.9s2.48-5.9,5.86-5.9,5.86,2.62,5.86,5.9-2.5,5.9-5.86,5.9Zm0-1.29c2.6,0,4.67-2.06,4.67-4.61s-2.07-4.61-4.67-4.61-4.67,2.06-4.67,4.61,2.07,4.61,4.67,4.61Z"/>
    <path class="cls-1" d="M1195.27,397.13l.78-.95,10.83,10.52-.78,.95-10.83-10.52Z"/>
  </g>
  <g>
    <g>
      <path class="cls-1" d="M852.26,168.24h-3.26v2.38h3.17v.84h-3.17v3.11h3.26v.84h-4.15v-8h4.15v.84Z"/>
      <path class="cls-1" d="M853.94,175.4v-8.33l6.24,6.54v-6.2h.89v8.36l-6.24-6.54v6.18h-.89Z"/>
      <path class="cls-1" d="M863.2,167.4h1.63c.8,0,1.94,.08,2.95,.94,.73,.61,1.37,1.63,1.37,3.07,0,1.68-.83,2.58-1.4,3.07-.73,.62-1.5,.92-2.93,.92h-1.62v-8Zm.89,7.16h.78c.64,0,1.51-.07,2.29-.72,.6-.5,1.08-1.29,1.08-2.43,0-1.92-1.34-3.17-3.37-3.17h-.78v6.32Z"/>
      <path class="cls-1" d="M874.9,171.38h3.33v.19c0,.89-.26,1.85-.77,2.53-.24,.32-1.14,1.44-2.97,1.44-2.37,0-4.15-1.81-4.15-4.14s1.79-4.14,4.17-4.14c.77,0,1.67,.19,2.45,.79,.36,.28,.7,.64,.92,.95l-.66,.6c-.23-.32-.49-.61-.75-.83-.38-.31-.98-.67-1.94-.67-1.93,0-3.27,1.45-3.27,3.31,0,2.18,1.74,3.29,3.25,3.29,1.07,0,1.99-.54,2.45-1.34,.14-.25,.3-.64,.32-1.14h-2.38v-.84Z"/>
      <path class="cls-1" d="M883.96,173.15h-3.41l-.96,2.25h-.98l3.68-8.38,3.59,8.38h-.98l-.94-2.25Zm-.35-.84l-1.34-3.2-1.37,3.2h2.71Z"/>
      <path class="cls-1" d="M886.9,175.4l1.33-8.44,3.07,6.75,3.13-6.76,1.25,8.46h-.91l-.76-5.56-2.72,5.9-2.69-5.9-.79,5.56h-.91Z"/>
      <path class="cls-1" d="M901.62,168.24h-3.26v2.38h3.17v.84h-3.17v3.11h3.26v.84h-4.15v-8h4.15v.84Z"/>
    </g>
    <g>
      <path class="cls-1" d="M912.96,175.4h-.86v-8.74h.86v4.46c.59-.73,1.34-.82,1.7-.82,1.56,0,2.42,1.3,2.42,2.64s-.88,2.6-2.39,2.6c-.8,0-1.37-.36-1.74-.84v.7Zm3.24-2.46c0-1.22-.83-1.87-1.63-1.87s-1.66,.66-1.66,1.86c0,1.02,.65,1.85,1.67,1.85s1.62-.84,1.62-1.83Z"/>
      <path class="cls-1" d="M919.79,174.93l-2.29-4.51h.98l1.76,3.56,1.62-3.56h.96l-3.66,7.74h-.96l1.58-3.23Z"/>
      <path class="cls-1" d="M930.32,168.98c-.11-.22-.29-.46-.47-.6-.16-.12-.44-.28-.9-.28-.79,0-1.34,.49-1.34,1.24,0,.31,.08,.49,.3,.7,.24,.24,.54,.37,.84,.5l.77,.34c.47,.2,.9,.42,1.24,.76,.41,.41,.58,.88,.58,1.45,0,1.47-1.09,2.46-2.53,2.46-.53,0-1.19-.11-1.74-.65-.4-.38-.63-.94-.74-1.42l.86-.24c.06,.42,.25,.78,.48,1.02,.35,.35,.74,.44,1.15,.44,1.09,0,1.61-.78,1.61-1.58,0-.36-.11-.67-.4-.94-.23-.22-.54-.36-.96-.55l-.72-.34c-.31-.14-.71-.31-1.07-.66-.35-.34-.55-.71-.55-1.31,0-1.24,.95-2.06,2.24-2.06,.49,0,.89,.1,1.28,.36,.32,.22,.6,.54,.78,.89l-.71,.47Z"/>
      <path class="cls-1" d="M939.9,168.74c.31,.37,.95,1.22,.95,2.66,0,2.38-1.86,4.14-4.16,4.14-1.32,0-2.17-.52-2.67-.94l-.96,.95-.6-.6,.96-.95c-.7-.89-.89-1.85-.89-2.6,0-2.39,1.87-4.14,4.16-4.14,.72,0,1.69,.17,2.61,.88l.95-.96,.6,.6-.95,.96Zm-1.29,0c-.26-.2-.92-.64-1.92-.64-1.8,0-3.25,1.46-3.25,3.3,0,1.02,.42,1.68,.67,2l4.5-4.67Zm-3.91,5.28c.74,.58,1.54,.68,1.99,.68,1.79,0,3.25-1.46,3.25-3.3,0-.6-.16-1.38-.72-2.07l-4.52,4.69Z"/>
      <path class="cls-1" d="M943.88,167.4c.54,0,1.34,.04,1.94,.44,.47,.31,.88,.92,.88,1.77,0,1.22-.8,2.12-2.01,2.21l2.54,3.57h-1.08l-2.43-3.5h-.23v3.5h-.89v-8h1.28Zm-.4,3.71h.56c1.1,0,1.76-.53,1.76-1.46,0-.44-.13-.89-.64-1.18-.36-.2-.77-.23-1.15-.23h-.54v2.87Z"/>
      <path class="cls-1" d="M952.73,168.24h-3.26v2.38h3.17v.84h-3.17v3.11h3.26v.84h-4.15v-8h4.15v.84Z"/>
      <path class="cls-1" d="M954.4,175.4v-8.33l6.24,6.54v-6.2h.89v8.36l-6.24-6.54v6.18h-.89Z"/>
    </g>
    <rect class="cls-1" x="906.3" y="159.74" width=".91" height="22.57"/>
  </g>
  <g>
    <g>
      <path class="cls-1" d="M1204.82,215.03c0-.27,.02-.67,.22-.97,.16-.23,.46-.44,.89-.44,.61,0,1.06,.4,1.1,1.01l1.79-1.27v.54l-1.75,1.22v.11h1.75v.44h-4v-.64Zm1.85,.2v-.28c0-.55-.26-.88-.73-.88-.22,0-.44,.07-.59,.32-.1,.18-.11,.38-.11,.58v.27h1.43Z"/>
      <path class="cls-1" d="M1205.24,210.44v1.63h1.19v-1.58h.42v1.58h1.55v-1.63h.42v2.08h-4v-2.08h.42Z"/>
      <path class="cls-1" d="M1204.82,209.33l3.05-1.13-3.05-1.13v-.49l4.24,1.62-4.24,1.62v-.49Z"/>
      <path class="cls-1" d="M1208.29,204.46c-.38,.26-.9,.4-1.47,.4s-1.08-.14-1.47-.4c-.44-.31-.6-.71-.6-1.03s.16-.72,.6-1.03c.38-.26,.9-.4,1.47-.4s1.09,.14,1.47,.4c.44,.31,.6,.71,.6,1.03s-.16,.72-.6,1.03Zm-2.69-.34c.34,.22,.8,.29,1.22,.29s.88-.08,1.22-.29c.34-.21,.44-.49,.44-.69s-.11-.48-.44-.69c-.34-.22-.8-.29-1.22-.29s-.88,.08-1.22,.29c-.34,.21-.44,.49-.44,.69s.11,.48,.44,.69Z"/>
      <path class="cls-1" d="M1206.33,200.59h2.49v.43h-2.49v-.43Z"/>
      <path class="cls-1" d="M1205.24,198.84v.67l-.42-.23v-.88h4v.44h-3.58Z"/>
    </g>
    <g>
      <path class="cls-1" d="M1203.18,188.14v-.49h2.91v.49h-.22c.25,.18,.28,.41,.28,.53,0,.53-.42,.88-.92,.88s-.92-.35-.92-.86c0-.13,.02-.39,.28-.56h-1.41Zm2.05,.91c.28,0,.49-.2,.49-.48s-.22-.48-.49-.48-.49,.2-.49,.48,.21,.48,.49,.48Z"/>
      <path class="cls-1" d="M1205.61,185.38c.13,.05,.54,.25,.54,.85,0,.28-.08,.49-.24,.66-.18,.19-.4,.27-.68,.27-.34,0-.56-.14-.68-.26-.2-.2-.24-.44-.24-.65,0-.35,.14-.56,.28-.68,.22-.18,.49-.21,.68-.21h.04v1.3c.1,0,.22-.03,.29-.08,.07-.05,.16-.16,.16-.35s-.09-.32-.23-.4l.07-.45Zm-.61,.45c-.24,.04-.35,.23-.35,.41s.12,.37,.35,.41v-.82Z"/>
      <path class="cls-1" d="M1204.77,183.98c-.11,.12-.12,.23-.12,.28,0,.12,.06,.19,.14,.19,.04,0,.11-.02,.16-.16l.04-.12c.04-.14,.11-.34,.25-.44,.07-.05,.18-.09,.29-.09,.16,0,.31,.05,.44,.19,.13,.14,.18,.31,.18,.52,0,.36-.17,.56-.29,.67l-.3-.26c.11-.1,.2-.24,.2-.38,0-.14-.07-.24-.19-.24-.11,0-.15,.09-.18,.15l-.04,.11c-.04,.12-.1,.27-.21,.37-.08,.08-.19,.13-.33,.13-.17,0-.31-.08-.39-.18-.11-.14-.12-.31-.12-.45,0-.13,.02-.33,.18-.55l.28,.24Z"/>
      <path class="cls-1" d="M1203.34,182.96c0-.16,.13-.29,.29-.29s.29,.13,.29,.29-.13,.29-.29,.29-.29-.13-.29-.29Zm1.02-.24h1.73v.49h-1.73v-.49Z"/>
      <path class="cls-1" d="M1204.36,180.83v-.49h1.65c.26,0,.54,.02,.76,.24,.12,.12,.24,.33,.24,.68,0,.34-.1,.54-.2,.65-.12,.14-.32,.24-.52,.28v-.53c.08-.02,.16-.06,.21-.12,.09-.1,.09-.23,.09-.3,0-.14-.05-.23-.11-.29-.11-.11-.24-.12-.38-.12h-.24c.26,.17,.29,.4,.29,.53,0,.23-.07,.43-.24,.6-.13,.13-.35,.28-.69,.28-.27,0-.52-.1-.69-.27-.15-.15-.23-.36-.23-.6,0-.32,.18-.48,.28-.54h-.22Zm.5,.75c.07,.08,.19,.16,.37,.16,.15,0,.26-.06,.34-.13,.11-.1,.15-.24,.15-.35s-.04-.24-.12-.32c-.09-.1-.23-.16-.37-.16-.16,0-.28,.07-.35,.14-.1,.1-.14,.21-.14,.34,0,.16,.06,.26,.12,.32Z"/>
      <path class="cls-1" d="M1204.36,179.78v-.49h.22c-.13-.09-.28-.26-.28-.54,0-.15,.04-.38,.21-.51,.15-.12,.32-.14,.49-.14h1.09v.49h-.94c-.1,0-.25,0-.34,.09-.08,.08-.09,.18-.09,.23,0,.13,.04,.23,.15,.3,.11,.07,.24,.08,.34,.08h.88v.49h-1.73Z"/>
      <path class="cls-1" d="M1205.61,175.84c.13,.05,.54,.25,.54,.85,0,.28-.08,.49-.24,.66-.18,.19-.4,.27-.68,.27-.34,0-.56-.14-.68-.26-.2-.2-.24-.44-.24-.65,0-.35,.14-.56,.28-.68,.22-.18,.49-.21,.68-.21h.04v1.3c.1,0,.22-.03,.29-.08,.07-.05,.16-.16,.16-.35s-.09-.32-.23-.4l.07-.45Zm-.61,.45c-.24,.04-.35,.23-.35,.41s.12,.37,.35,.41v-.82Z"/>
      <path class="cls-1" d="M1203.18,174.02v-.49h2.91v.49h-.22c.25,.18,.28,.41,.28,.53,0,.53-.42,.88-.92,.88s-.92-.35-.92-.86c0-.13,.02-.39,.28-.56h-1.41Zm2.05,.91c.28,0,.49-.2,.49-.48s-.22-.48-.49-.48-.49,.2-.49,.48,.21,.48,.49,.48Z"/>
      <path class="cls-1" d="M1203.34,171.89c0-.16,.13-.29,.29-.29s.29,.13,.29,.29-.13,.29-.29,.29-.29-.13-.29-.29Zm1.02-.24h1.73v.49h-1.73v-.49Z"/>
      <path class="cls-1" d="M1204.36,171.08v-.49h.22c-.13-.09-.28-.26-.28-.54,0-.15,.04-.38,.21-.51,.15-.12,.32-.14,.49-.14h1.09v.49h-.94c-.1,0-.25,0-.34,.09-.08,.08-.09,.18-.09,.23,0,.13,.04,.23,.15,.3,.11,.07,.24,.08,.34,.08h.88v.49h-1.73Z"/>
      <path class="cls-1" d="M1203.42,167.28c0-.15,0-.44,.17-.65,.12-.16,.33-.25,.55-.25,.34,0,.48,.23,.52,.3,.03-.18,.1-.28,.17-.35,.15-.16,.36-.19,.5-.19,.16,0,.38,.04,.54,.23,.18,.2,.22,.44,.22,.68v.9h-2.67v-.66Zm1.11,.14v-.15c0-.08,0-.4-.35-.4-.24,0-.34,.19-.34,.4v.15h.68Zm1.14,0v-.22c0-.1,0-.24-.07-.36-.08-.13-.2-.16-.31-.16-.08,0-.23,.03-.3,.2-.05,.11-.05,.24-.05,.36v.19h.74Z"/>
      <path class="cls-1" d="M1205.61,163.91c.13,.05,.54,.25,.54,.85,0,.28-.08,.49-.24,.66-.18,.19-.4,.27-.68,.27-.34,0-.56-.14-.68-.26-.2-.2-.24-.44-.24-.65,0-.35,.14-.56,.28-.68,.22-.18,.49-.21,.68-.21h.04v1.3c.1,0,.22-.03,.29-.08,.07-.05,.16-.16,.16-.35s-.09-.32-.23-.4l.07-.45Zm-.61,.45c-.24,.04-.35,.23-.35,.41s.12,.37,.35,.41v-.82Z"/>
      <path class="cls-1" d="M1204.36,163.41v-.49h.26c-.15-.08-.22-.18-.24-.22-.05-.08-.08-.17-.08-.29,0-.08,.02-.15,.04-.21l.46,.06c-.04,.06-.06,.13-.06,.23,0,.09,.02,.23,.14,.32,.12,.09,.26,.1,.38,.1h.83v.49h-1.73Z"/>
      <path class="cls-1" d="M1203.18,161.37h2.91v.49h-2.91v-.49Z"/>
      <path class="cls-1" d="M1203.34,160.55c0-.16,.13-.29,.29-.29s.29,.13,.29,.29-.13,.29-.29,.29-.29-.13-.29-.29Zm1.02-.24h1.73v.49h-1.73v-.49Z"/>
      <path class="cls-1" d="M1204.36,159.74v-.49h.22c-.13-.09-.28-.26-.28-.54,0-.15,.04-.38,.21-.51,.15-.12,.32-.14,.49-.14h1.09v.49h-.94c-.1,0-.25,0-.34,.09-.08,.08-.09,.18-.09,.23,0,.13,.04,.23,.15,.3,.11,.07,.24,.08,.34,.08h.88v.49h-1.73Z"/>
      <path class="cls-1" d="M1204.58,156.19c-.24-.17-.28-.42-.28-.56,0-.51,.4-.85,.92-.85s.92,.35,.92,.86c0,.11-.02,.36-.28,.55h.22v.49h-2.91v-.49h1.41Zm.64,.05c.28,0,.49-.2,.49-.48s-.22-.48-.49-.48-.49,.2-.49,.48,.21,.48,.49,.48Z"/>
      <path class="cls-1" d="M1205.83,153.76l-1.47,.82v-.57l.98-.54-.98-.48v-.55l2.65,1.39v.55l-1.17-.64Z"/>
      <path class="cls-1" d="M1203.42,150.85v-.38l1.7-.71-1.7-.74v-.38l2.67-.45v.53l-1.64,.24,1.64,.72v.18l-1.64,.68,1.64,.27v.53l-2.67-.5Z"/>
      <path class="cls-1" d="M1205.61,145.98c.13,.05,.54,.25,.54,.85,0,.28-.08,.49-.24,.66-.18,.19-.4,.27-.68,.27-.34,0-.56-.14-.68-.26-.2-.2-.24-.44-.24-.65,0-.35,.14-.56,.28-.68,.22-.18,.49-.21,.68-.21h.04v1.3c.1,0,.22-.03,.29-.08,.07-.05,.16-.16,.16-.35s-.09-.32-.23-.4l.07-.45Zm-.61,.45c-.24,.04-.35,.23-.35,.41s.12,.37,.35,.41v-.82Z"/>
      <path class="cls-1" d="M1207.59,188.88h2.8v-.38h.42v.84h-3.63v-.84h.42v.38Z"/>
      <path class="cls-1" d="M1210.09,187.2v.24l-1.73,.88v-.54l1-.46-1-.46v-.22l1-.46-1-.46v-.54l1.73,.88v.24l-1.02,.46,1.02,.46Z"/>
      <path class="cls-1" d="M1207.34,184.56c0-.16,.13-.29,.29-.29s.29,.13,.29,.29-.13,.29-.29,.29-.29-.13-.29-.29Zm1.02-.24h1.73v.49h-1.73v-.49Z"/>
      <path class="cls-1" d="M1208.78,183.23h1.32v.49h-1.32v.19h-.42v-.19h-.59v-.49h.59v-.34h.42v.34Z"/>
      <path class="cls-1" d="M1207.18,182.53v-.49h1.41c-.13-.09-.28-.26-.28-.54,0-.15,.04-.38,.21-.51,.15-.12,.32-.14,.49-.14h1.09v.49h-.94c-.1,0-.25,0-.34,.09-.08,.08-.09,.18-.09,.23,0,.13,.04,.23,.15,.3,.11,.07,.24,.08,.34,.08h.88v.49h-2.91Z"/>
      <path class="cls-1" d="M1207.18,179.46v-.49h1.41c-.13-.09-.28-.26-.28-.54,0-.15,.04-.38,.21-.51,.15-.12,.32-.14,.49-.14h1.09v.49h-.94c-.1,0-.25,0-.34,.09-.08,.08-.09,.18-.09,.23,0,.13,.04,.23,.15,.3,.11,.07,.24,.08,.34,.08h.88v.49h-2.91Z"/>
      <path class="cls-1" d="M1209.61,175.53c.13,.05,.54,.25,.54,.85,0,.28-.08,.49-.24,.66-.18,.19-.4,.27-.68,.27-.34,0-.56-.14-.68-.26-.2-.2-.24-.44-.24-.65,0-.35,.14-.56,.28-.68,.22-.18,.49-.21,.68-.21h.04v1.3c.1,0,.22-.03,.29-.08,.07-.05,.16-.16,.16-.35s-.09-.32-.23-.4l.07-.45Zm-.61,.45c-.24,.04-.35,.23-.35,.41s.12,.37,.35,.41v-.82Z"/>
      <path class="cls-1" d="M1207.18,174.54h2.91v.49h-2.91v-.49Z"/>
      <path class="cls-1" d="M1211.01,173.49v.49h-2.65v-.49h.22c-.11-.08-.28-.24-.28-.56,0-.15,.04-.4,.23-.59,.13-.13,.34-.26,.69-.26,.39,0,.6,.17,.7,.27,.12,.13,.22,.33,.22,.59,0,.12-.02,.36-.28,.56h1.14Zm-2.15-.12c.09,.11,.21,.16,.37,.16s.29-.06,.38-.16c.06-.06,.12-.17,.12-.32,0-.16-.06-.26-.12-.33-.1-.1-.24-.15-.37-.15s-.27,.05-.36,.15c-.08,.09-.12,.22-.12,.33,0,.13,.04,.23,.12,.32Z"/>
      <path class="cls-1" d="M1208.55,169.16c.16-.17,.4-.29,.68-.29s.52,.12,.68,.29c.14,.15,.24,.37,.24,.7s-.11,.55-.24,.7c-.16,.17-.4,.29-.68,.29s-.52-.12-.68-.29c-.14-.15-.24-.37-.24-.7s.11-.55,.24-.7Zm.68,.21c-.27,0-.49,.21-.49,.49s.22,.49,.49,.49,.49-.2,.49-.49-.22-.49-.49-.49Z"/>
      <path class="cls-1" d="M1208.78,167.89h1.32v.49h-1.32v.18h-.42v-.18h-.48c-.16,0-.43-.01-.61-.23-.09-.1-.14-.25-.14-.43,0-.11,.02-.2,.06-.28h.44c-.05,.07-.07,.14-.07,.22,0,.06,.02,.13,.09,.18,.06,.04,.16,.05,.3,.05h.41v-.45h.42v.45Z"/>
      <path class="cls-1" d="M1207.87,164.8v.9h.6v-.84h.45v.84h1.18v.52h-2.67v-1.42h.45Z"/>
      <path class="cls-1" d="M1207.42,163.47c0-.37,.1-.56,.2-.68,.17-.2,.4-.26,.6-.26,.26,0,.49,.1,.63,.31,.05,.07,.09,.16,.12,.29l1.12-.83v.65l-1.07,.71v.06h1.07v.52h-2.67v-.77Zm1.23,.25v-.15c0-.1-.01-.51-.4-.51s-.4,.41-.4,.5v.16h.8Z"/>
      <path class="cls-1" d="M1207.42,161.33h2.67v.52h-2.67v-.52Z"/>
      <path class="cls-1" d="M1207.87,159.12v.96h.6v-.92h.45v.92h.73v-.96h.45v1.48h-2.67v-1.48h.45Z"/>
      <path class="cls-1" d="M1210.09,158.46h-2.67v-.36l1.78-1.62h-1.78v-.52h2.67v.36l-1.78,1.62h1.78v.52Z"/>
      <path class="cls-1" d="M1207.42,154.53c0-.37,.04-.7,.26-.99,.24-.32,.63-.51,1.08-.51s.83,.18,1.08,.54c.22,.31,.26,.6,.26,.98v.69h-2.67v-.7Zm2.22,.18v-.16c0-.13,0-.42-.18-.65-.15-.21-.42-.33-.71-.33s-.55,.12-.71,.33c-.16,.22-.18,.48-.18,.66v.16h1.77Z"/>
      <path class="cls-1" d="M1208.03,151.18c-.21,.16-.23,.34-.23,.44,0,.28,.18,.37,.31,.37,.06,0,.12-.02,.18-.08,.06-.06,.09-.15,.15-.32,.07-.21,.14-.4,.27-.54,.11-.12,.29-.23,.56-.23,.52,0,.88,.38,.88,.93,0,.49-.3,.78-.5,.92l-.32-.34c.26-.13,.36-.37,.36-.56,0-.24-.14-.41-.37-.41-.1,0-.17,.03-.24,.1-.09,.1-.14,.26-.2,.41-.05,.14-.11,.31-.23,.44-.08,.09-.22,.21-.5,.21-.39,0-.78-.26-.78-.86,0-.17,.03-.48,.31-.75l.36,.27Z"/>
      <path class="cls-1" d="M1210.39,150.03h-2.8v.38h-.42v-.84h3.63v.84h-.42v-.38Z"/>
    </g>
    <rect class="cls-1" x="1202.38" y="193.1" width="8.5" height=".52"/>
  </g>
</svg>