<?xml version="1.0" encoding="UTF-8"?>
<svg id="Layer_9_copy" data-name="Layer 9 copy" xmlns="http://www.w3.org/2000/svg" width="612.71" height="324.12" viewBox="0 0 612.71 324.12">
  <g>
    <path d="M234.85,30.6h-6.69v3.87h6.36v3.9h-6.36v4.44h6.69v3.9h-11.31V26.7h11.31v3.9Z"/>
    <path d="M243.67,46.71V26.7h4.02l10.86,12.9v-12.9h4.62v20.01h-4.02l-10.86-12.96v12.96h-4.62Z"/>
    <path d="M278.17,26.7c2.64,0,5.43,.39,7.89,2.76,1.77,1.71,2.88,4.05,2.88,7.17s-1.08,5.43-2.73,7.08c-2.76,2.79-6.21,3-7.89,3h-6.48V26.7h6.33Zm-1.71,16.11h1.23c.96,0,3.06-.09,4.56-1.35,1.08-.9,1.95-2.61,1.95-4.83s-.87-3.54-1.65-4.32c-1.5-1.5-3.45-1.71-4.86-1.71h-1.23v12.21Z"/>
    <path d="M305.74,35.79h9.93v.21c0,2.43-.87,6.12-3.09,8.43-2.22,2.31-4.77,2.73-7.14,2.73s-4.98-.39-7.32-2.79c-1.17-1.2-2.94-3.63-2.94-7.62,0-3.27,1.2-5.88,2.88-7.59,2.46-2.55,5.49-2.91,7.86-2.91,1.65,0,3.75,.27,5.61,1.5,1.35,.9,2.52,2.31,3.24,3.57l-4.17,2.25c-.39-.78-.99-1.59-1.77-2.16-.9-.66-1.92-.96-3.06-.96-1.83,0-3.18,.6-4.14,1.62-1.11,1.17-1.71,2.88-1.71,4.74,0,2.28,.84,3.75,1.68,4.59,1.17,1.2,2.52,1.56,4.05,1.56,1.98,0,3.03-.69,3.48-1.08,.15-.12,1.05-.9,1.44-2.37h-4.83v-3.72Z"/>
    <path d="M334.62,42.93h-7.56l-1.53,3.78h-4.8l8.07-20.01h4.23l7.89,20.01h-4.8l-1.5-3.78Zm-1.26-3.54l-2.46-6.72-2.49,6.72h4.95Z"/>
    <path d="M346.88,46.71l3.21-20.01h3.84l4.98,11.97,4.98-11.97h3.84l3.21,20.01h-4.62l-1.59-11.94-5.01,11.94h-1.62l-5.01-11.94-1.59,11.94h-4.62Z"/>
    <path d="M389.79,30.6h-6.69v3.87h6.36v3.9h-6.36v4.44h6.69v3.9h-11.31V26.7h11.31v3.9Z"/>
  </g>
  <g>
    <path d="M240.06,56.47h3.01v.45h-3.01v-.45Z"/>
    <path d="M249.13,59.07l.78-4.93,1.79,3.94,1.83-3.95,.73,4.94h-.53l-.44-3.25-1.59,3.45-1.57-3.45-.46,3.25h-.53Z"/>
    <path d="M258.17,56.65l-1.25-2.25h.59l.97,1.76,1-1.76h.59l-1.28,2.25,1.35,2.42h-.59l-1.07-1.92-1.08,1.92h-.59l1.38-2.42Z"/>
    <path d="M266.79,54.4c.26,0,.73,.02,1.07,.29,.15,.11,.42,.4,.42,.97,0,.23-.05,.64-.46,.92,.65,.16,.89,.73,.89,1.18s-.22,.81-.48,1.01c-.37,.29-.8,.31-1.12,.31h-1.16v-4.67h.84Zm-.32,2.05h.39c.27,0,.92-.06,.92-.78,0-.77-.76-.78-.9-.78h-.41v1.56Zm0,2.13h.59c.3,0,.6-.02,.82-.2,.18-.13,.31-.36,.31-.64,0-.37-.22-.59-.4-.69-.17-.1-.42-.14-.79-.14h-.53v1.67Z"/>
    <path d="M274.09,57.75h-1.99l-.56,1.32h-.57l2.15-4.9,2.09,4.9h-.57l-.55-1.32Zm-.2-.49l-.78-1.87-.8,1.87h1.58Z"/>
    <path d="M277.79,54.4h.95c.47,0,1.13,.05,1.72,.55,.43,.36,.8,.95,.8,1.79,0,.98-.48,1.51-.82,1.79-.43,.36-.88,.54-1.71,.54h-.95v-4.67Zm.52,4.18h.46c.37,0,.88-.04,1.34-.42,.35-.29,.63-.76,.63-1.42,0-1.12-.78-1.85-1.97-1.85h-.46v3.69Z"/>
    <path d="M288.17,56.74l-1.04-1.04,.33-.33,1.04,1.04,1.04-1.04,.33,.33-1.04,1.04,1,1-.33,.33-1-1-1,1-.33-.33,1-1Z"/>
    <path d="M293.54,56.74l-1.04-1.04,.33-.33,1.04,1.04,1.04-1.04,.33,.33-1.04,1.04,1,1-.33,.33-1-1-1,1-.33-.33,1-1Z"/>
    <path d="M304.92,55.43c-.15-.15-.37-.32-.61-.43-.25-.11-.53-.18-.81-.18-1.08,0-1.88,.87-1.88,1.95,0,1.27,1.03,1.9,1.88,1.9,.32,0,.62-.09,.87-.22,.27-.13,.46-.31,.54-.39v.64c-.52,.37-1.06,.46-1.41,.46-1.39,0-2.42-1.05-2.42-2.4s1.04-2.43,2.44-2.43c.28,0,.82,.04,1.38,.46v.64Z"/>
    <path d="M308.36,56.29h2.4v-1.9h.52v4.67h-.52v-2.28h-2.4v2.28h-.52v-4.67h.52v1.9Z"/>
    <path d="M314.15,56.74c0-1.39,1.08-2.42,2.43-2.42s2.43,1.02,2.43,2.42-1.08,2.42-2.43,2.42-2.43-1.03-2.43-2.42Zm.53,0c0,1.07,.85,1.93,1.9,1.93s1.9-.85,1.9-1.93-.85-1.93-1.9-1.93-1.9,.85-1.9,1.93Z"/>
    <path d="M325.46,55.43c-.15-.15-.37-.32-.61-.43-.25-.11-.53-.18-.81-.18-1.08,0-1.88,.87-1.88,1.95,0,1.27,1.03,1.9,1.88,1.9,.32,0,.62-.09,.87-.22,.27-.13,.46-.31,.54-.39v.64c-.52,.37-1.06,.46-1.41,.46-1.39,0-2.42-1.05-2.42-2.4s1.04-2.43,2.44-2.43c.28,0,.82,.04,1.38,.46v.64Z"/>
    <path d="M332.06,54.4v4.67h-.52v-4.67h.52Z"/>
    <path d="M337.24,55.32c-.06-.13-.17-.27-.27-.35-.09-.07-.26-.16-.53-.16-.46,0-.78,.29-.78,.72,0,.18,.05,.29,.17,.41,.14,.14,.32,.22,.49,.29l.45,.2c.27,.12,.53,.25,.72,.44,.24,.24,.34,.51,.34,.85,0,.86-.64,1.44-1.48,1.44-.31,0-.69-.06-1.02-.38-.23-.22-.37-.55-.43-.83l.5-.14c.04,.25,.15,.46,.28,.6,.2,.2,.43,.26,.67,.26,.64,0,.94-.46,.94-.92,0-.21-.06-.39-.23-.55-.13-.13-.31-.21-.56-.32l-.42-.2c-.18-.08-.41-.18-.62-.38-.2-.2-.32-.41-.32-.76,0-.72,.55-1.2,1.31-1.2,.29,0,.52,.06,.75,.21,.19,.13,.35,.32,.46,.52l-.41,.27Z"/>
    <path d="M344.42,54.4v4.18h1.29v.49h-1.81v-4.67h.52Z"/>
    <path d="M347.86,56.74c0-1.39,1.08-2.42,2.43-2.42s2.43,1.02,2.43,2.42-1.08,2.42-2.43,2.42-2.43-1.03-2.43-2.42Zm.53,0c0,1.07,.85,1.93,1.9,1.93s1.9-.85,1.9-1.93-.85-1.93-1.9-1.93-1.9,.85-1.9,1.93Z"/>
    <path d="M355.47,54.4l1.32,3.56,1.32-3.56h.57l-1.89,4.95-1.89-4.95h.57Z"/>
    <path d="M363.67,54.89h-1.91v1.39h1.85v.49h-1.85v1.81h1.91v.49h-2.42v-4.67h2.42v.49Z"/>
    <path d="M369.64,56.47h3.01v.45h-3.01v-.45Z"/>
  </g>
</svg>