<?xml version="1.0" encoding="UTF-8"?>
<svg id="SILK_BACK" data-name="SILK BACK" xmlns="http://www.w3.org/2000/svg" width="473.7mm" height="210.01mm" viewBox="0 0 1342.79 595.3">
  <defs>
    <style>
      .cls-1 {
        fill: #fff;
      }
    </style>
  </defs>
  <g>
    <path class="cls-1" d="M1124.64,373.08h5.2v17.76h-5.2v-5.8h-21.48v-6.16h21.48v-5.8Z"/>
    <path class="cls-1" d="M1129.84,363.99v6.16h-26.68v-6.16h11.32v-10.64h-11.32v-6.16h26.68v6.16h-10.16v10.64h10.16Z"/>
    <path class="cls-1" d="M1129.84,326.29v15.08h-26.68v-15.08h5.2v8.92h5.92v-8.48h5.2v8.48h5.16v-8.92h5.2Z"/>
    <path class="cls-1" d="M1129.84,321.05h-26.68v-6.16h10.52l-10.52-7.2v-7.52l10.92,8.2c.36-1.48,1.16-2.8,2.04-3.72,1.68-1.72,3.76-2.08,5.44-2.08,2.96,0,4.88,1.2,5.96,2.32,1.2,1.28,2.32,3.4,2.32,6.8v9.36Zm-4.8-6.16v-1.44c0-.8-.08-2.4-.84-3.4-.4-.52-1.2-1.24-2.72-1.24-1.32,0-2.16,.56-2.6,1-1.04,1.04-1.16,2.56-1.16,3.68v1.4h7.32Z"/>
    <path class="cls-1" d="M1129.84,282.07v15.08h-26.68v-15.08h5.2v8.92h5.92v-8.48h5.2v8.48h5.16v-8.92h5.2Z"/>
    <path class="cls-1" d="M1129.84,267.63h-26.68v-6.16h26.68v6.16Z"/>
    <path class="cls-1" d="M1127.8,239.45c2.32,3.12,2.64,6.08,2.64,7.92,0,2.48-.52,4.72-2.44,6.6-1.64,1.6-3.64,2.32-6,2.32-1.28,0-3.16-.2-4.64-1.6-1.12-1.04-1.68-2.48-2.12-3.72l-.76-2.2c-.28-.76-.88-2.4-1.48-3.12-.48-.56-1.04-.92-1.92-.92-1,0-1.72,.44-2.16,.96-.76,.88-.92,2-.92,2.8,0,1.24,.32,2.32,.96,3.36,.44,.72,1.36,1.8,2.04,2.48l-4.4,3.2c-1-1-2.24-2.56-2.92-3.92-.84-1.68-1.12-3.36-1.12-5.28,0-1.76,.24-5.2,2.72-7.56,1.44-1.4,3.84-2.36,6.6-2.36,1.56,0,3.48,.4,4.96,1.96,1,1.04,1.6,2.48,2.04,3.64l.76,2c.68,1.8,.92,2.72,1.52,3.36,.36,.4,.84,.6,1.48,.6,.68,0,1.28-.28,1.68-.68,.8-.72,.92-1.76,.92-2.6,0-.76-.12-2.48-1.92-4.48l4.48-2.76Z"/>
    <path class="cls-1" d="M1103.16,218.49h17.28l-17.28-14.48v-5.36h26.68v6.16h-17.2l17.2,14.48v5.36h-26.68v-6.16Z"/>
    <path class="cls-1" d="M1130.44,179.68c0,5.32-2.12,8.64-3.92,10.44-2.4,2.4-6.28,4.12-10.12,4.12s-7.52-1.6-9.92-4.16c-1.92-2-3.92-5.4-3.92-10.4,0-4.48,1.52-7.84,3.92-10.32,2.8-2.88,6.44-4.16,10-4.16,4.12,0,7.64,1.64,10.08,4.16,2.6,2.68,3.88,6.16,3.88,10.32Zm-5.68,.04c0-2.44-1-4.56-2.28-5.88-1.2-1.2-3.24-2.32-6-2.32-3.08,0-4.96,1.28-5.96,2.32-1.28,1.28-2.28,3.2-2.28,5.92,0,2.08,.56,4,2.2,5.72,1.6,1.64,3.56,2.44,6,2.44,2.96,0,4.92-1.2,6.04-2.36,1.44-1.44,2.28-3.52,2.28-5.84Z"/>
    <path class="cls-1" d="M1089.84,373.16v15.08h-26.68v-15.08h5.2v8.92h5.92v-8.48h5.2v8.48h5.16v-8.92h5.2Z"/>
    <path class="cls-1" d="M1063.16,361.76h17.28l-17.28-14.48v-5.36h26.68v6.16h-17.2l17.2,14.48v5.36h-26.68v-6.16Z"/>
    <path class="cls-1" d="M1089.84,336.08h-26.68v-8.64c0-2.24,.28-6.84,4-10.52,2.2-2.2,5.24-3.64,9.44-3.64s7.28,1.48,9.56,3.84c3.16,3.28,3.68,7,3.68,10.52v8.44Zm-5.2-6.16v-1.64c0-1.88-.28-4.48-2.28-6.48-1.04-1.04-2.88-2.2-5.76-2.2s-5.24,1.16-6.44,2.6c-1.68,2-1.8,4.8-1.8,6.08v1.64h16.28Z"/>
    <path class="cls-1" d="M1072.76,296.2v-6.44c-1.96,.52-3,1.72-3.16,1.92-.52,.6-1.44,2-1.44,4.64,0,2.04,.48,3.84,2.08,5.4,1.12,1.12,3.08,2.24,6.12,2.24,2.48,0,4.76-.8,6.32-2.28,1.36-1.28,2.16-3.08,2.16-5.52,0-1.52-.4-2.88-1.28-4.08-.76-1.04-1.84-1.84-2.88-2.36l3-5.56c1.68,.96,3.56,2.52,4.76,4.32,1.64,2.48,2,5.28,2,7.48,0,3.16-.48,7.2-3.88,10.48-2.28,2.24-5.76,3.84-10.12,3.84-5.32,0-8.56-2.36-10.16-3.92-3.2-3.12-3.72-6.56-3.72-9.76s.56-6.56,3.64-9.52c3.08-2.96,8-4.12,11.24-4.12h.28v13.24h-4.96Z"/>
    <path class="cls-1" d="M1063.16,262.23v-6.4l26.68,10.52v5.64l-26.68,10.76v-6.4l5.04-2.04v-10.08l-5.04-2Zm9.76,10.28l8.96-3.32-8.96-3.28v6.6Z"/>
    <path class="cls-1" d="M1063.16,247.43l15.92-2.12-15.92-6.68v-2.16l15.92-6.68-15.92-2.12v-6.16l26.68,4.28v5.12l-15.96,6.64,15.96,6.64v5.12l-26.68,4.28v-6.16Z"/>
    <path class="cls-1" d="M1089.84,202.1v15.08h-26.68v-15.08h5.2v8.92h5.92v-8.48h5.2v8.48h5.16v-8.92h5.2Z"/>
  </g>
  <g id="Layer_13" data-name="Layer 13">
    <rect class="cls-1" x="623.37" y="390.51" width="453.77" height=".46"/>
    <rect class="cls-1" x="623.37" y="333.82" width="567.16" height=".45"/>
    <rect class="cls-1" x="623.37" y="277.12" width="566.7" height=".45"/>
    <rect class="cls-1" x="623.37" y="220.43" width="566.7" height=".45"/>
    <rect class="cls-1" x="623.15" y="163.74" width="566.93" height=".45"/>
    <rect class="cls-1" x="1190.08" y="164.19" width=".45" height="170.08"/>
    <rect class="cls-1" x="1133.38" y="164.19" width=".45" height="170.09"/>
    <rect class="cls-1" x="1076.69" y="164.19" width=".45" height="226.32"/>
    <rect class="cls-1" x="1020" y="164.19" width=".45" height="247.59"/>
    <rect class="cls-1" x="963.3" y="164.19" width=".45" height="262.62"/>
    <rect class="cls-1" x="906.61" y="164.19" width=".45" height="239.07"/>
    <rect class="cls-1" x="849.92" y="164.19" width=".45" height="262.62"/>
    <rect class="cls-1" x="793.23" y="164.19" width=".45" height="247.59"/>
    <rect class="cls-1" x="736.53" y="164.19" width=".45" height="234.56"/>
    <rect class="cls-1" x="679.84" y="164.19" width=".45" height="234.56"/>
    <rect class="cls-1" x="623.15" y="164.19" width=".45" height="234.56"/>
  </g>
</svg>