0
SECTION
2
HEADER
9
$INSUNITS
70
4
9
$ACADVER
1
AC1014
9
$HANDSEED
5
FFFF
0
ENDSEC
0
SECTION
2
TABLES
0
TABLE
2
VPORT
5
8
100
AcDbSymbolTable
0
ENDTAB
0
TABLE
2
LTYPE
5
5
100
AcDbSymbolTable
0
LTYPE
5
14
100
AcDbSymbolTableRecord
100
AcDbLinetypeTableRecord
2
BYBLOCK
70
0
0
LTYPE
5
15
100
AcDbSymbolTableRecord
100
AcDbLinetypeTableRecord
2
BYLAYER
70
0
0
ENDTAB
0
TABLE
2
LAYER
5
2
100
AcDbSymbolTable
70
2
0
LAYER
5
50
100
AcDbSymbolTableRecord
100
AcDbLayerTableRecord
2
0
70
0
6
CONTINUOUS
0
ENDTAB
0
TABLE
2
STYLE
5
3
100
AcDbSymbolTable
70
1
0
STYLE
5
11
100
AcDbSymbolTableRecord
100
AcDbTextStyleTableRecord
2
STANDARD
70
0
0
ENDTAB
0
TABLE
2
VIEW
5
6
100
AcDbSymbolTable
70
0
0
ENDTAB
0
TABLE
2
UCS
5
7
100
AcDbSymbolTable
70
0
0
ENDTAB
0
TABLE
2
APPID
5
9
100
AcDbSymbolTable
70
2
0
APPID
5
12
100
AcDbSymbolTableRecord
100
AcDbRegAppTableRecord
2
ACAD
70
0
0
ENDTAB
0
TABLE
2
DIMSTYLE
5
A
100
AcDbSymbolTable
70
1
0
ENDTAB
0
TABLE
2
BLOCK_RECORD
5
1
100
AcDbSymbolTable
70
1
0
BLOCK_RECORD
5
1F
100
AcDbSymbolTableRecord
100
AcDbBlockTableRecord
2
*MODEL_SPACE
0
BLOCK_RECORD
5
1B
100
AcDbSymbolTableRecord
100
AcDbBlockTableRecord
2
*PAPER_SPACE
0
ENDTAB
0
ENDSEC
0
SECTION
2
BLOCKS
0
BLOCK
5
20
100
AcDbEntity
100
AcDbBlockBegin
2
*MODEL_SPACE
0
ENDBLK
5
21
100
AcDbEntity
100
AcDbBlockEnd
0
BLOCK
5
1C
100
AcDbEntity
100
AcDbBlockBegin
2
*PAPER_SPACE
0
ENDBLK
5
1D
100
AcDbEntity
100
AcDbBlockEnd
0
ENDSEC
0
SECTION
2
ENTITIES
0
LWPOLYLINE
5
100
100
AcDbEntity
8
0
100
AcDbPolyline
90
4
70
1
43
0.0
10
43.624311646304093
20
50.898545493815355
10
30.033964654732522
20
48.502200642012198
10
32.430309506539629
20
34.911853650444343
10
46.020656498108053
20
37.308198502248231
0
LWPOLYLINE
5
101
100
AcDbEntity
8
0
100
AcDbPolyline
90
4
70
1
43
0.0
10
29.478290486201786
20
51.653585451651871
10
43.068637477769833
20
54.049930303457913
10
40.672292625966392
20
67.640277295025896
10
27.081945634395726
20
65.243932443219904
0
LWPOLYLINE
5
102
100
AcDbEntity
8
0
100
AcDbPolyline
90
4
70
1
43
0.0
10
31.59850837038007
20
-10.472070891952104
10
29.202163518574402
20
3.1182760996085088
10
15.611816527020883
20
0.72193124782552087
10
18.008161378809795
20
-12.868415743745549
0
LWPOLYLINE
5
103
100
AcDbEntity
8
0
100
AcDbPolyline
90
4
70
1
43
0.0
10
31.550020275143158
20
15.717385935265469
10
29.15367542333977
20
29.307732926832266
10
15.563328431771193
20
26.91138807502908
10
17.959673283574894
20
13.321041083460624
0
LWPOLYLINE
5
104
100
AcDbEntity
8
0
100
AcDbPolyline
90
4
70
1
43
0.0
10
32.98598367507438
20
31.760468840805373
10
35.38232852687748
20
18.170121849236796
10
48.972675518445861
20
20.566466701040941
10
46.576330666642356
20
34.156813692609049
0
LWPOLYLINE
5
105
100
AcDbEntity
8
0
100
AcDbPolyline
90
4
70
1
43
0.0
10
37.769990969782555
20
4.6290152452997884
10
40.166335821585562
20
-8.9613317462687956
10
53.756682813152722
20
-6.5649868944577445
10
51.360337961347398
20
7.0253600971075993
0
LWPOLYLINE
5
106
100
AcDbEntity
8
0
100
AcDbPolyline
90
4
70
1
43
0.0
10
-82.169615789310171
20
57.457990629519962
10
-81.206976451711142
20
71.224374523114818
10
-67.440592558108804
20
70.261735185502687
10
-68.403231895720268
20
56.495351291913082
0
LWPOLYLINE
5
107
100
AcDbEntity
8
0
100
AcDbPolyline
90
4
70
1
43
0.0
10
-29.202163518574402
20
3.1182760996085088
10
-15.611816527020883
20
0.72193124782552087
10
-18.008161378809795
20
-12.868415743745549
10
-31.59850837038007
20
-10.472070891952104
0
LINE
5
108
100
AcDbEntity
8
0
100
AcDbLine
10
54.481725856893711
20
-8.7043121765348221
30
0
11
16.028590253815533
21
-15.484637476164565
31
0
0
LINE
5
109
100
AcDbEntity
8
0
100
AcDbLine
10
16.028590253815533
20
-15.484637476164565
30
0
11
0
21
-15.484637476164577
31
0
0
LWPOLYLINE
5
110
100
AcDbEntity
8
0
100
AcDbPolyline
90
4
70
1
43
0.0
10
-31.550020275143158
20
15.717385935265469
10
-29.15367542333977
20
29.307732926832273
10
-15.563328431771193
20
26.911388075029095
10
-17.959673283574894
20
13.321041083460621
0
LWPOLYLINE
5
111
100
AcDbEntity
8
0
100
AcDbPolyline
90
4
70
1
43
0.0
10
-62.001926844801147
20
57.175480154321917
10
-48.336227496167098
20
55.254891361074002
10
-50.256816289416165
20
41.58919201244035
10
-63.92251563804983
20
43.509780805689296
0
LWPOLYLINE
5
112
100
AcDbEntity
8
0
100
AcDbPolyline
90
4
70
1
43
0.0
10
47.89087357309505
20
58.423749181047043
10
61.556572921728801
20
60.344337974295399
10
59.635984128479862
20
74.010037322929833
10
45.970284779846253
20
72.089448529680737
0
LWPOLYLINE
5
113
100
AcDbEntity
8
0
100
AcDbPolyline
90
4
70
1
43
0.0
10
62.001926844801147
20
57.175480154321917
10
48.336227496167098
20
55.254891361074002
10
50.256816289416165
20
41.58919201244035
10
63.92251563804983
20
43.509780805689296
0
LWPOLYLINE
5
114
100
AcDbEntity
8
0
100
AcDbPolyline
90
4
70
1
43
0.0
10
-79.481725856893746
20
76.110037322929813
10
-74.481725856893704
20
76.110037322929813
10
-74.481725856893789
20
81.110037322929742
10
-79.481725856893746
20
81.110037322929799
0
LINE
5
115
100
AcDbEntity
8
0
100
AcDbLine
10
-105.1311049076987
20
76.110037322929799
30
0
11
-105.13110490770117
21
-8.7043121767750087
31
0
0
LWPOLYLINE
5
116
100
AcDbEntity
8
0
100
AcDbPolyline
90
4
70
1
43
0.0
10
74.481725856893704
20
76.110037322929813
10
74.481725856893789
20
81.110037322929742
10
79.481725856893746
20
81.110037322929799
10
79.481725856893746
20
76.110037322929813
0
LWPOLYLINE
5
117
100
AcDbEntity
8
0
100
AcDbPolyline
90
4
70
1
43
0.0
10
-23.249637382664076
20
62.791196529247856
10
-9.6592903910956238
20
60.394851677444237
10
-12.055635242899267
20
46.804504685875763
10
-25.645982234467848
20
49.200849537678693
0
LINE
5
118
100
AcDbEntity
8
0
100
AcDbLine
10
76.98172585689376
20
85.110037322932158
30
0
11
76.981725856893718
21
76.110037322929813
31
0
0
LWPOLYLINE
5
119
100
AcDbEntity
8
0
100
AcDbPolyline
90
4
70
1
43
0.0
10
23.249637382664076
20
62.791196529247856
10
9.6592903910956238
20
60.394851677444237
10
12.055635242899267
20
46.804504685875763
10
25.645982234467848
20
49.200849537678685
0
LINE
5
120
100
AcDbEntity
8
0
100
AcDbLine
10
54.481725856893711
20
-8.7043121765348221
30
0
11
54.481725856893739
21
76.110037322929827
31
0
0
LINE
5
121
100
AcDbEntity
8
0
100
AcDbLine
10
0
20
76.110037322929841
30
0
11
0
21
-15.484637476164577
31
0
0
LINE
5
122
100
AcDbEntity
8
0
100
AcDbLine
10
-59.481725856893718
20
81.110037322929685
30
0
11
-74.481725856893789
21
81.110037322929742
31
0
0
LWPOLYLINE
5
123
100
AcDbEntity
8
0
100
AcDbPolyline
90
4
70
1
43
0.0
10
-102.53110490768398
20
58.195687823273296
10
-88.731104907730213
20
58.195687823300787
10
-88.731104907699901
20
44.395687823300776
10
-102.53110490769991
20
44.395687823268062
0
LWPOLYLINE
5
124
100
AcDbEntity
8
0
100
AcDbPolyline
90
4
70
1
43
0.0
10
-47.89087357309505
20
58.423749181047043
10
-61.556572921728801
20
60.344337974295399
10
-59.635984128479862
20
74.010037322929833
10
-45.970284779846253
20
72.089448529680737
0
LINE
5
125
100
AcDbEntity
8
0
100
AcDbLine
10
0
20
76.110037322929841
30
0
11
105.1311049076987
21
76.110037322929799
31
0
0
LINE
5
126
100
AcDbEntity
8
0
100
AcDbLine
10
-54.481725856893711
20
-8.7043121765348292
30
0
11
-54.481725856893732
21
76.110037322929827
31
0
0
LINE
5
127
100
AcDbEntity
8
0
100
AcDbLine
10
59.481725856893718
20
81.110037322929685
30
0
11
74.481725856893789
21
81.110037322929742
31
0
0
LINE
5
128
100
AcDbEntity
8
0
100
AcDbLine
10
59.481725856893718
20
81.110037322929685
30
0
11
59.481725856893775
21
85.110037322932882
31
0
0
LWPOLYLINE
5
129
100
AcDbEntity
8
0
100
AcDbPolyline
90
4
70
1
43
0.0
10
-40.672292625966392
20
67.640277295025896
10
-27.081945634395726
20
65.243932443219904
10
-29.478290486201786
20
51.653585451651871
10
-43.068637477769833
20
54.049930303457913
0
LINE
5
130
100
AcDbEntity
8
0
100
AcDbLine
10
0
20
76.110037322929841
30
0
11
-105.13110490769991
21
76.110037322929756
31
0
0
LWPOLYLINE
5
131
100
AcDbEntity
8
0
100
AcDbPolyline
90
4
70
1
43
0.0
10
67.440592558108804
20
70.261735185502687
10
68.403231895720268
20
56.495351291913082
10
82.169615789310171
20
57.457990629519962
10
81.206976451711142
20
71.224374523114818
0
LINE
5
132
100
AcDbEntity
8
0
100
AcDbLine
10
94.48172585689376
20
81.110037322931404
30
0
11
79.481725856893746
21
81.110037322929799
31
0
0
LINE
5
133
100
AcDbEntity
8
0
100
AcDbLine
10
94.48172585689376
20
85.110037322931404
30
0
11
94.48172585689376
21
81.110037322931404
31
0
0
LINE
5
134
100
AcDbEntity
8
0
100
AcDbLine
10
59.481725856893775
20
85.110037322932882
30
0
11
94.48172585689376
21
85.110037322931404
31
0
0
LWPOLYLINE
5
135
100
AcDbEntity
8
0
100
AcDbPolyline
90
4
70
1
43
0.0
10
102.53110490768398
20
58.195687823273438
10
88.731104907663479
20
58.195687823300787
10
88.731104907699901
20
44.395687823300776
10
102.53110490769991
20
44.395687823268062
0
LINE
5
136
100
AcDbEntity
8
0
100
AcDbLine
10
0
20
210
30
0
11
0
21
-190
31
0
0
LWPOLYLINE
5
137
100
AcDbEntity
8
0
100
AcDbPolyline
90
4
70
1
43
0.0
10
26.20165640300182
20
46.049464728040107
10
12.611309411433284
20
43.653119876236588
10
15.007654263236965
20
30.062772884668124
10
28.598001254805475
20
32.459117736471875
0
LINE
5
138
100
AcDbEntity
8
0
100
AcDbLine
10
15.264520171689231
20
2.6915467538374194
30
0
11
24.2758153151036
21
-48.414047564217888
31
0
0
LINE
5
139
100
AcDbEntity
8
0
100
AcDbLine
10
37.422694614446584
20
6.5986307513402931
30
0
11
45.506229204122391
21
-39.245372005434277
31
0
0
LINE
5
140
100
AcDbEntity
8
0
100
AcDbLine
10
29.202163518574402
20
3.1182760996085088
30
0
11
37.769990969780082
21
4.6290152453138429
31
0
0
LINE
5
141
100
AcDbEntity
8
0
100
AcDbLine
10
31.550020275143158
20
15.717385935265469
30
0
11
35.686212837794422
21
16.446708281466577
31
0
0
LINE
5
142
100
AcDbEntity
8
0
100
AcDbLine
10
16.028590253815533
20
-12.942226405039818
30
0
11
16.028590253815533
21
-40
31
0
0
LINE
5
143
100
AcDbEntity
8
0
100
AcDbLine
10
54.481725856916924
20
-8.7043121766664218
30
0
11
16.028590253815533
21
-15.484637476300282
31
0
0
LINE
5
144
100
AcDbEntity
8
0
100
AcDbLine
10
16.028590253815533
20
-15.484637476300282
30
0
11
0
21
-15.4846374763003
31
0
0
LWPOLYLINE
5
145
100
AcDbEntity
8
0
100
AcDbPolyline
90
4
70
1
43
0.0
10
-26.20165640300182
20
46.049464728040093
10
-12.611309411433284
20
43.653119876236595
10
-15.007654263236965
20
30.062772884668121
10
-28.598001254805475
20
32.459117736471867
0
LINE
5
146
100
AcDbEntity
8
0
100
AcDbLine
10
-54.481725856916924
20
-8.7043121766664271
30
0
11
-16.028590253815533
21
-15.48463747630028
31
0
0
LWPOLYLINE
5
147
100
AcDbEntity
8
0
100
AcDbPolyline
90
4
70
1
43
0.0
10
-43.624311646304093
20
50.898545493815355
10
-30.033964654732522
20
48.502200642012198
10
-32.430309506539629
20
34.911853650444343
10
-46.020656498108053
20
37.308198502248231
0
LINE
5
148
100
AcDbEntity
8
0
100
AcDbLine
10
-16.028590253815533
20
-12.942226405039818
30
0
11
-16.028590253815533
21
-40
31
0
0
LINE
5
149
100
AcDbEntity
8
0
100
AcDbLine
10
-29.202163518574402
20
3.1182760996085088
30
0
11
-37.769990969780082
21
4.6290152453138429
31
0
0
LINE
5
150
100
AcDbEntity
8
0
100
AcDbLine
10
-31.550020275143158
20
15.717385935265469
30
0
11
-35.686212837794422
21
16.446708281466584
31
0
0
LINE
5
151
100
AcDbEntity
8
0
100
AcDbLine
10
-16.028590253815533
20
-15.48463747630028
30
0
11
0
21
-15.4846374763003
31
0
0
LWPOLYLINE
5
152
100
AcDbEntity
8
0
100
AcDbPolyline
90
4
70
1
43
0.0
10
-32.98598367507438
20
31.760468840805373
10
-35.38232852687748
20
18.170121849236796
10
-48.972675518445861
20
20.566466701040941
10
-46.576330666642356
20
34.156813692609049
0
LINE
5
153
100
AcDbEntity
8
0
100
AcDbLine
10
-15.264520171689231
20
2.6915467538374194
30
0
11
-24.2758153151036
21
-48.414047564217888
31
0
0
LINE
5
154
100
AcDbEntity
8
0
100
AcDbLine
10
-54.481725856893711
20
-8.7043121765348292
30
0
11
-16.028590253815533
21
-15.484637476164567
31
0
0
LINE
5
155
100
AcDbEntity
8
0
100
AcDbLine
10
-16.028590253815533
20
-15.484637476164567
30
0
11
0
21
-15.484637476164577
31
0
0
LWPOLYLINE
5
156
100
AcDbEntity
8
0
100
AcDbPolyline
90
4
70
1
43
0.0
10
-52.622759005737279
20
24.754634843833653
10
-66.288458354370988
20
26.675223637082354
10
-64.367869561122092
20
40.340922985716091
10
-50.702170212488411
20
38.42033419246733
0
LINE
5
157
100
AcDbEntity
8
0
100
AcDbLine
10
-48.972675518445861
20
20.566466701040941
30
0
11
-53.108868081097128
21
21.295789047242071
31
0
0
LWPOLYLINE
5
158
100
AcDbEntity
8
0
100
AcDbPolyline
90
4
70
1
43
0.0
10
-102.53110490769991
20
27.395687823300765
10
-102.53110490769991
20
41.195687823300773
10
-88.731104907711256
20
41.195687823300773
10
-88.731104907699901
20
27.395687823300769
0
LWPOLYLINE
5
159
100
AcDbEntity
8
0
100
AcDbPolyline
90
4
70
1
43
0.0
10
-82.392836505309091
20
54.265785668731333
10
-68.626452611719003
20
53.303146331082871
10
-69.589091949370342
20
39.536762437496066
10
-83.355475842957361
20
40.499401775144321
0
LWPOLYLINE
5
160
100
AcDbEntity
8
0
100
AcDbPolyline
90
4
70
1
43
0.0
10
-83.57869655895388
20
37.30719681431917
10
-69.81231266536993
20
36.344557476665912
10
-70.774952003020431
20
22.578173583079053
10
-84.541335896608288
20
23.540812920714988
0
LWPOLYLINE
5
161
100
AcDbEntity
8
0
100
AcDbPolyline
90
4
70
1
43
0.0
10
-102.53110490776888
20
24.195687823213884
10
-88.731104907768227
20
24.195687823300773
10
-88.731104907699901
20
10.395687823300769
10
-102.53110490769991
20
10.395687823300801
0
LINE
5
162
100
AcDbEntity
8
0
100
AcDbLine
10
-84.541335896608288
20
23.540812920714988
30
0
11
-88.731104907699901
21
23.833790110435515
31
0
0
LINE
5
163
100
AcDbEntity
8
0
100
AcDbLine
10
-66.288458354370988
20
26.675223637082354
30
0
11
-70.447584243085601
21
27.259750661114627
31
0
0
LWPOLYLINE
5
164
100
AcDbEntity
8
0
100
AcDbPolyline
90
4
70
1
43
0.0
10
-51.360337961347398
20
7.0253600971075993
10
-37.769990969782555
20
4.6290152452997884
10
-40.166335821585562
20
-8.9613317462687956
10
-53.756682813152722
20
-6.5649868944577445
0
LWPOLYLINE
5
165
100
AcDbEntity
8
0
100
AcDbPolyline
90
4
70
1
43
0.0
10
-98.031104907663973
20
-6.6043121766634787
10
-98.031104907727396
20
7.1956878232675852
10
-84.231104907652934
20
7.1956878233335795
10
-84.231104907663962
20
-6.6043121766664301
0
LINE
5
166
100
AcDbEntity
8
0
100
AcDbLine
10
-105.13110490770265
20
-8.7043121766664306
30
0
11
-54.481725856916924
21
-8.7043121766664271
31
0
0
LINE
5
167
100
AcDbEntity
8
0
100
AcDbLine
10
-49.941625615200351
20
17.043875783422706
30
0
11
-60
21
-40
31
0
0
LINE
5
168
100
AcDbEntity
8
0
100
AcDbLine
10
-37.422694614446584
20
6.5986307513402931
30
0
11
-45.506229204122363
21
-39.245372005434277
31
0
0
LWPOLYLINE
5
169
100
AcDbEntity
8
0
100
AcDbPolyline
90
8
70
1
43
0.0
10
-74.481725856893704
20
-8.7043121767801601
10
-74.481725856896531
20
-13.704312176781867
10
-59.481725856896439
20
-13.704312176783544
10
-59.481725856896723
20
-17.704312176786747
10
-94.481725856896702
20
-17.704312176781198
10
-94.481725856896489
20
-13.704312176781194
10
-79.481725856896489
20
-13.704312176781336
10
-79.481725856893746
20
-8.7043121767798759
0
LINE
5
170
100
AcDbEntity
8
0
100
AcDbLine
10
-76.981725856896745
20
-17.704312176783979
30
0
11
-76.981725856893718
21
-8.7043121767800002
31
0
0
LINE
5
171
100
AcDbEntity
8
0
100
AcDbLine
10
-105.13110490770117
20
-8.7043121767750051
30
0
11
-54.481725856893711
21
-8.7043121765348292
31
0
0
LINE
5
172
100
AcDbEntity
8
0
100
AcDbLine
10
0
20
0
30
0
11
-142.79538831630717
21
25.17867968090723
31
0
0
LWPOLYLINE
5
173
100
AcDbEntity
8
0
100
AcDbPolyline
90
4
70
1
43
0.0
10
84.541335896608288
20
23.540812920714988
10
83.57869655895388
20
37.30719681431917
10
69.81231266536993
20
36.344557476665912
10
70.774952003020431
20
22.578173583079053
0
LWPOLYLINE
5
174
100
AcDbEntity
8
0
100
AcDbPolyline
90
4
70
1
43
0.0
10
88.731104907699901
20
27.395687823300769
10
102.53110490769991
20
27.395687823300765
10
102.53110490769991
20
41.195687823300773
10
88.731104907687723
20
41.195687823300773
0
LWPOLYLINE
5
175
100
AcDbEntity
8
0
100
AcDbPolyline
90
4
70
1
43
0.0
10
50.702170212488411
20
38.42033419246733
10
52.622759005737279
20
24.754634843833653
10
66.288458354370988
20
26.675223637082354
10
64.367869561122092
20
40.340922985716091
0
LWPOLYLINE
5
176
100
AcDbEntity
8
0
100
AcDbPolyline
90
4
70
1
43
0.0
10
69.589091949370342
20
39.536762437496066
10
83.355475842957361
20
40.499401775144321
10
82.392836505309091
20
54.265785668731333
10
68.626452611719003
20
53.303146331082871
0
LWPOLYLINE
5
177
100
AcDbEntity
8
0
100
AcDbPolyline
90
4
70
1
43
0.0
10
102.53110490776889
20
24.195687823213884
10
88.731104907774935
20
24.195687823300773
10
88.731104907699901
20
10.395687823300769
10
102.53110490769991
20
10.395687823300801
0
LINE
5
178
100
AcDbEntity
8
0
100
AcDbLine
10
84.541335896608288
20
23.540812920714988
30
0
11
88.731104907699901
21
23.833790110435515
31
0
0
LINE
5
179
100
AcDbEntity
8
0
100
AcDbLine
10
66.288458354370988
20
26.675223637082354
30
0
11
70.447584243085601
21
27.259750661114627
31
0
0
LINE
5
180
100
AcDbEntity
8
0
100
AcDbLine
10
48.972675518445861
20
20.566466701040941
30
0
11
53.108868081097128
21
21.295789047242071
31
0
0
LINE
5
181
100
AcDbEntity
8
0
100
AcDbLine
10
105.13110490769992
20
33.70286257307572
30
0
11
132.81966039108022
21
33.702862573076523
31
0
0
LINE
5
182
100
AcDbEntity
8
0
100
AcDbLine
10
105.13110490770265
20
-8.7043121766664182
30
0
11
54.481725856916924
21
-8.7043121766664218
31
0
0
LWPOLYLINE
5
183
100
AcDbEntity
8
0
100
AcDbPolyline
90
4
70
1
43
0.0
10
84.231104907652934
20
7.1956878233335795
10
84.231104907663962
20
-6.6043121766664195
10
98.031104907663973
20
-6.6043121766634671
10
98.031104907727396
20
7.1956878232675852
0
LINE
5
184
100
AcDbEntity
8
0
100
AcDbLine
10
102.53110490769865
20
9.5857882223396054
30
0
11
102.53110490769865
21
2.3927840572769652
31
0
0
LINE
5
185
100
AcDbEntity
8
0
100
AcDbLine
10
53.756682813152722
20
-6.5649868944577445
30
0
11
84.231104907663962
21
-6.6043121766664195
31
0
0
LINE
5
186
100
AcDbEntity
8
0
100
AcDbLine
10
49.941625615200351
20
17.043875783422699
30
0
11
60
21
-40
31
0
0
LWPOLYLINE
5
187
100
AcDbEntity
8
0
100
AcDbPolyline
90
8
70
1
43
0.0
10
74.481725856893704
20
-8.7043121767801601
10
74.481725856896531
20
-13.704312176781867
10
59.481725856896439
20
-13.704312176783544
10
59.481725856896723
20
-17.704312176786747
10
94.481725856896702
20
-17.704312176781198
10
94.481725856896489
20
-13.704312176781194
10
79.481725856896489
20
-13.704312176781336
10
79.481725856893746
20
-8.704312176779867
0
LINE
5
188
100
AcDbEntity
8
0
100
AcDbLine
10
105.13110490770117
20
-8.704312176778366
30
0
11
54.481725856893711
21
-8.7043121765348221
31
0
0
LINE
5
189
100
AcDbEntity
8
0
100
AcDbLine
10
76.981725856896745
20
-17.704312176783979
30
0
11
76.981725856893718
21
-8.7043121767800073
31
0
0
LINE
5
190
100
AcDbEntity
8
0
100
AcDbLine
10
0
20
0
30
0
11
142.79538831630717
21
25.178679680907237
31
0
0
LINE
5
191
100
AcDbEntity
8
0
100
AcDbLine
10
0
20
76.110037322929841
30
0
11
-105.1311049076987
21
76.110037322929799
31
0
0
LINE
5
192
100
AcDbEntity
8
0
100
AcDbLine
10
88.731104907699901
20
15.645687823300769
30
0
11
88.731104907699901
21
80.264699618524631
31
0
0
LINE
5
193
100
AcDbEntity
8
0
100
AcDbLine
10
-94.48172585689376
20
81.110037322931404
30
0
11
-79.481725856893746
21
81.110037322929799
31
0
0
LINE
5
194
100
AcDbEntity
8
0
100
AcDbLine
10
-59.481725856893718
20
81.110037322929685
30
0
11
-59.481725856893775
21
85.110037322932882
31
0
0
LINE
5
195
100
AcDbEntity
8
0
100
AcDbLine
10
105.13110490769991
20
76.110037322929756
30
0
11
105.13110490770265
21
-8.7043121766664182
31
0
0
LINE
5
196
100
AcDbEntity
8
0
100
AcDbLine
10
-71.472516740461657
20
12.602533080480809
30
0
11
-66.847928399073083
21
78.737227525363082
31
0
0
LINE
5
197
100
AcDbEntity
8
0
100
AcDbLine
10
-105.13110490769991
20
76.110037322929756
30
0
11
-105.13110490770265
21
-8.7043121766664306
31
0
0
LINE
5
198
100
AcDbEntity
8
0
100
AcDbLine
10
-94.48172585689376
20
85.110037322931404
30
0
11
-94.48172585689376
21
81.110037322931404
31
0
0
LINE
5
199
100
AcDbEntity
8
0
100
AcDbLine
10
-19.696155060244159
20
3.4729635533386016
30
0
11
-7.6455570907369257
21
71.815300733327291
31
0
0
LINE
5
200
100
AcDbEntity
8
0
100
AcDbLine
10
19.696155060244159
20
3.4729635533386052
30
0
11
7.6455570907369257
21
71.815300733327291
31
0
0
LINE
5
201
100
AcDbEntity
8
0
100
AcDbLine
10
-59.481725856893775
20
85.110037322932882
30
0
11
-94.48172585689376
21
85.110037322931404
31
0
0
LINE
5
202
100
AcDbEntity
8
0
100
AcDbLine
10
37.422694614463943
20
6.5986307513433538
30
0
11
25.404031674578128
21
74.759855378430117
31
0
0
LINE
5
203
100
AcDbEntity
8
0
100
AcDbLine
10
71.472516740461657
20
12.602533080480809
30
0
11
66.847928399073083
21
78.737227525363082
31
0
0
LINE
5
204
100
AcDbEntity
8
0
100
AcDbLine
10
-54.745148795378284
20
9.6530467955247019
30
0
11
-44.880307185560298
21
79.845042102139388
31
0
0
LINE
5
205
100
AcDbEntity
8
0
100
AcDbLine
10
-37.422694614463943
20
6.5986307513433538
30
0
11
-25.404031674578128
21
74.759855378430117
31
0
0
LINE
5
206
100
AcDbEntity
8
0
100
AcDbLine
10
-88.731104907699901
20
15.645687823300769
30
0
11
-88.731104907699901
21
80.264699618524631
31
0
0
LINE
5
207
100
AcDbEntity
8
0
100
AcDbLine
10
54.745148795378284
20
9.6530467955247019
30
0
11
44.880307185560298
21
79.845042102139388
31
0
0
LINE
5
208
100
AcDbEntity
8
0
100
AcDbLine
10
-76.98172585689376
20
85.110037322932158
30
0
11
-76.981725856893718
21
76.110037322929813
31
0
0
LINE
5
209
100
AcDbEntity
8
0
100
AcDbLine
10
105.1311049076987
20
76.110037322929799
30
0
11
105.13110490770117
21
-8.704312176778366
31
0
0
LINE
5
210
100
AcDbEntity
8
0
100
AcDbLine
10
0
20
76.110037322929841
30
0
11
105.13110490769991
21
76.110037322929756
31
0
0
ENDSEC
0
SECTION
2
OBJECTS
0
DICTIONARY
5
C
100
AcDbDictionary
3
ACAD_GROUP
350
D
3
ACAD_MLINESTYLE
350
17
0
DICTIONARY
5
D
100
AcDbDictionary
0
DICTIONARY
5
1A
330
C
100
AcDbDictionary
0
DICTIONARY
5
17
100
AcDbDictionary
0
ENDSEC
0
EOF
