  0
SECTION
  2
HEADER
  9
$ANGBASE
  50
0.0
  9
$ANGDIR
  70
1
  9
$MEASUREMENT
  70
0
  0
ENDSEC
  0
SECTION
  2
TABLES
  0
TABLE
  2
LTYPE
  70
4
  0
LTYPE
  5
40F
  2
CONTINUOUS
  70
0
  3
Solid line
  72
65
  73
0
  40
0.0
  0
LTYPE
  5
410
  2
DASHDOT
 70
0
  3
Dash Dot ____ _ ____ _
 72
65
 73
4
 40
2.0
 49
1.25
 49
-0.25
 49
0.25
 49
-0.25
  0
LTYPE
  5
411
  2
DASHED
 70
0
  3
Dashed __ __ __ __ __
 72
65
 73
2
 40
0.75
 49
0.5
 49
-0.25
  0
LTYPE
  5
43B
  2
DOTTED
 70
0
  3
Dotted .  .  .  .
 72
65
 73
2
 40
0.2
 49
0.0
 49
-0.2
  0
ENDTAB
  0
TABLE
  2
STYLE
  70
4
  0
STYLE
  2
KICAD
  70
0
  40
0
  41
1
  42
1
  50
0
  71
0
  3
isocp.shx
  0
STYLE
  2
KICADB
  70
0
  40
0
  41
1
  42
1
  50
0
  71
0
  3
isocp.shx
  0
STYLE
  2
KICADI
  70
0
  40
0
  41
1
  42
1
  50
15
  71
0
  3
isocp.shx
  0
STYLE
  2
KICADBI
  70
0
  40
0
  41
1
  42
1
  50
15
  71
0
  3
isocp.shx
  0
ENDTAB
  0
TABLE
  2
LAYER
  70
1
  0
LAYER
  2
BLACK
  70
0
  62
7
  6
CONTINUOUS
  0
ENDTAB
  0
ENDSEC
  0
SECTION
  2
ENTITIES
0
LINE
8
BLACK
6
CONTINUOUS
10
4.91626
20
-5.83057
11
4.90644
21
-5.87678
0
LINE
8
BLACK
6
CONTINUOUS
10
4.90644
20
-5.87678
11
4.87178
21
-5.86942
0
LINE
8
BLACK
6
CONTINUOUS
10
4.87178
20
-5.86942
11
4.8816
21
-5.8232
0
LINE
8
BLACK
6
CONTINUOUS
10
4.8816
20
-5.8232
11
4.91626
21
-5.83057
0
LINE
8
BLACK
6
CONTINUOUS
10
4.78918
20
-5.80356
11
4.77936
21
-5.84977
0
LINE
8
BLACK
6
CONTINUOUS
10
4.77936
20
-5.84977
11
4.7447
21
-5.8424
0
LINE
8
BLACK
6
CONTINUOUS
10
4.7447
20
-5.8424
11
4.75452
21
-5.79619
0
LINE
8
BLACK
6
CONTINUOUS
10
4.75452
20
-5.79619
11
4.78918
21
-5.80356
0
LINE
8
BLACK
6
CONTINUOUS
10
6.90646
20
-5.76225
11
6.8718
21
-5.76962
0
LINE
8
BLACK
6
CONTINUOUS
10
6.8718
20
-5.76962
11
6.86198
21
-5.7234
0
LINE
8
BLACK
6
CONTINUOUS
10
6.86198
20
-5.7234
11
6.89664
21
-5.71604
0
LINE
8
BLACK
6
CONTINUOUS
10
6.89664
20
-5.71604
11
6.90646
21
-5.76225
0
LINE
8
BLACK
6
CONTINUOUS
10
7.03355
20
-5.73524
11
6.99889
21
-5.7426
0
LINE
8
BLACK
6
CONTINUOUS
10
6.99889
20
-5.7426
11
6.98906
21
-5.69639
0
LINE
8
BLACK
6
CONTINUOUS
10
6.98906
20
-5.69639
11
7.02372
21
-5.68903
0
LINE
8
BLACK
6
CONTINUOUS
10
7.02372
20
-5.68903
11
7.03355
21
-5.73524
0
LINE
8
BLACK
6
CONTINUOUS
10
4.04988
20
-5.64644
11
4.04006
21
-5.69265
0
LINE
8
BLACK
6
CONTINUOUS
10
4.04006
20
-5.69265
11
4.0054
21
-5.68528
0
LINE
8
BLACK
6
CONTINUOUS
10
4.0054
20
-5.68528
11
4.01522
21
-5.63907
0
LINE
8
BLACK
6
CONTINUOUS
10
4.01522
20
-5.63907
11
4.04988
21
-5.64644
0
LINE
8
BLACK
6
CONTINUOUS
10
5.33099
20
-5.67361
11
5.20304
21
-5.67361
0
LINE
8
BLACK
6
CONTINUOUS
10
5.20304
20
-5.67361
11
5.20304
21
-5.59487
0
LINE
8
BLACK
6
CONTINUOUS
10
5.20304
20
-5.59487
11
5.33099
21
-5.59487
0
LINE
8
BLACK
6
CONTINUOUS
10
5.33099
20
-5.59487
11
5.33099
21
-5.67361
0
LINE
8
BLACK
6
CONTINUOUS
10
6.07099
20
-5.67361
11
5.94304
21
-5.67361
0
LINE
8
BLACK
6
CONTINUOUS
10
5.94304
20
-5.67361
11
5.94304
21
-5.59487
0
LINE
8
BLACK
6
CONTINUOUS
10
5.94304
20
-5.59487
11
6.07099
21
-5.59487
0
LINE
8
BLACK
6
CONTINUOUS
10
6.07099
20
-5.59487
11
6.07099
21
-5.67361
0
LINE
8
BLACK
6
CONTINUOUS
10
3.9228
20
-5.61942
11
3.91298
21
-5.66564
0
LINE
8
BLACK
6
CONTINUOUS
10
3.91298
20
-5.66564
11
3.87832
21
-5.65827
0
LINE
8
BLACK
6
CONTINUOUS
10
3.87832
20
-5.65827
11
3.88814
21
-5.61206
0
LINE
8
BLACK
6
CONTINUOUS
10
3.88814
20
-5.61206
11
3.9228
21
-5.61942
0
LINE
8
BLACK
6
CONTINUOUS
10
7.77308
20
-5.57819
11
7.73842
21
-5.58556
0
LINE
8
BLACK
6
CONTINUOUS
10
7.73842
20
-5.58556
11
7.7286
21
-5.53935
0
LINE
8
BLACK
6
CONTINUOUS
10
7.7286
20
-5.53935
11
7.76325
21
-5.53198
0
LINE
8
BLACK
6
CONTINUOUS
10
7.76325
20
-5.53198
11
7.77308
21
-5.57819
0
LINE
8
BLACK
6
CONTINUOUS
10
5.33099
20
-5.57361
11
5.20304
21
-5.57361
0
LINE
8
BLACK
6
CONTINUOUS
10
5.20304
20
-5.57361
11
5.20304
21
-5.49487
0
LINE
8
BLACK
6
CONTINUOUS
10
5.20304
20
-5.49487
11
5.33099
21
-5.49487
0
LINE
8
BLACK
6
CONTINUOUS
10
5.33099
20
-5.49487
11
5.33099
21
-5.57361
0
LINE
8
BLACK
6
CONTINUOUS
10
6.07099
20
-5.57361
11
5.94304
21
-5.57361
0
LINE
8
BLACK
6
CONTINUOUS
10
5.94304
20
-5.57361
11
5.94304
21
-5.49487
0
LINE
8
BLACK
6
CONTINUOUS
10
5.94304
20
-5.49487
11
6.07099
21
-5.49487
0
LINE
8
BLACK
6
CONTINUOUS
10
6.07099
20
-5.49487
11
6.07099
21
-5.57361
0
LINE
8
BLACK
6
CONTINUOUS
10
7.90016
20
-5.55118
11
7.8655
21
-5.55855
0
LINE
8
BLACK
6
CONTINUOUS
10
7.8655
20
-5.55855
11
7.85568
21
-5.51234
0
LINE
8
BLACK
6
CONTINUOUS
10
7.85568
20
-5.51234
11
7.89034
21
-5.50497
0
LINE
8
BLACK
6
CONTINUOUS
10
7.89034
20
-5.50497
11
7.90016
21
-5.55118
0
LINE
8
BLACK
6
CONTINUOUS
10
9.58375
20
-5.54893
11
9.54831
21
-5.54893
0
LINE
8
BLACK
6
CONTINUOUS
10
9.54831
20
-5.54893
11
9.54831
21
-5.50168
0
LINE
8
BLACK
6
CONTINUOUS
10
9.54831
20
-5.50168
11
9.58375
21
-5.50168
0
LINE
8
BLACK
6
CONTINUOUS
10
9.58375
20
-5.50168
11
9.58375
21
-5.54893
0
LINE
8
BLACK
6
CONTINUOUS
10
9.45383
20
-5.54893
11
9.41839
21
-5.54893
0
LINE
8
BLACK
6
CONTINUOUS
10
9.41839
20
-5.54893
11
9.41839
21
-5.50168
0
LINE
8
BLACK
6
CONTINUOUS
10
9.41839
20
-5.50168
11
9.45383
21
-5.50168
0
LINE
8
BLACK
6
CONTINUOUS
10
9.45383
20
-5.50168
11
9.45383
21
-5.54893
0
LINE
8
BLACK
6
CONTINUOUS
10
2.37123
20
-5.54865
11
2.33579
21
-5.54865
0
LINE
8
BLACK
6
CONTINUOUS
10
2.33579
20
-5.54865
11
2.33579
21
-5.50141
0
LINE
8
BLACK
6
CONTINUOUS
10
2.33579
20
-5.50141
11
2.37123
21
-5.50141
0
LINE
8
BLACK
6
CONTINUOUS
10
2.37123
20
-5.50141
11
2.37123
21
-5.54865
0
LINE
8
BLACK
6
CONTINUOUS
10
2.24131
20
-5.54865
11
2.20587
21
-5.54865
0
LINE
8
BLACK
6
CONTINUOUS
10
2.20587
20
-5.54865
11
2.20587
21
-5.50141
0
LINE
8
BLACK
6
CONTINUOUS
10
2.20587
20
-5.50141
11
2.24131
21
-5.50141
0
LINE
8
BLACK
6
CONTINUOUS
10
2.24131
20
-5.50141
11
2.24131
21
-5.54865
0
LINE
8
BLACK
6
CONTINUOUS
10
5.0366
20
-5.43966
11
5.01532
21
-5.53979
0
LINE
8
BLACK
6
CONTINUOUS
10
5.01532
20
-5.53979
11
4.91519
21
-5.51851
0
LINE
8
BLACK
6
CONTINUOUS
10
4.91519
20
-5.51851
11
4.93648
21
-5.41838
0
LINE
8
BLACK
6
CONTINUOUS
10
4.93648
20
-5.41838
11
5.0366
21
-5.43966
0
LINE
8
BLACK
6
CONTINUOUS
10
5.33099
20
-5.47361
11
5.20304
21
-5.47361
0
LINE
8
BLACK
6
CONTINUOUS
10
5.20304
20
-5.47361
11
5.20304
21
-5.39487
0
LINE
8
BLACK
6
CONTINUOUS
10
5.20304
20
-5.39487
11
5.33099
21
-5.39487
0
LINE
8
BLACK
6
CONTINUOUS
10
5.33099
20
-5.39487
11
5.33099
21
-5.47361
0
LINE
8
BLACK
6
CONTINUOUS
10
6.07099
20
-5.47361
11
5.94304
21
-5.47361
0
LINE
8
BLACK
6
CONTINUOUS
10
5.94304
20
-5.47361
11
5.94304
21
-5.39487
0
LINE
8
BLACK
6
CONTINUOUS
10
5.94304
20
-5.39487
11
6.07099
21
-5.39487
0
LINE
8
BLACK
6
CONTINUOUS
10
6.07099
20
-5.39487
11
6.07099
21
-5.47361
0
LINE
8
BLACK
6
CONTINUOUS
10
6.53288
20
-5.39301
11
6.43276
21
-5.41429
0
LINE
8
BLACK
6
CONTINUOUS
10
6.43276
20
-5.41429
11
6.41148
21
-5.31417
0
LINE
8
BLACK
6
CONTINUOUS
10
6.41148
20
-5.31417
11
6.5116
21
-5.29289
0
LINE
8
BLACK
6
CONTINUOUS
10
6.5116
20
-5.29289
11
6.53288
21
-5.39301
0
LINE
8
BLACK
6
CONTINUOUS
10
6.99568
20
-5.38319
11
6.89555
21
-5.40447
0
LINE
8
BLACK
6
CONTINUOUS
10
6.89555
20
-5.40447
11
6.87427
21
-5.30435
0
LINE
8
BLACK
6
CONTINUOUS
10
6.87427
20
-5.30435
11
6.9744
21
-5.28306
0
LINE
8
BLACK
6
CONTINUOUS
10
6.9744
20
-5.28306
11
6.99568
21
-5.38319
0
LINE
8
BLACK
6
CONTINUOUS
10
5.33099
20
-5.37361
11
5.20304
21
-5.37361
0
LINE
8
BLACK
6
CONTINUOUS
10
5.20304
20
-5.37361
11
5.20304
21
-5.29487
0
LINE
8
BLACK
6
CONTINUOUS
10
5.20304
20
-5.29487
11
5.33099
21
-5.29487
0
LINE
8
BLACK
6
CONTINUOUS
10
5.33099
20
-5.29487
11
5.33099
21
-5.37361
0
LINE
8
BLACK
6
CONTINUOUS
10
6.07099
20
-5.37361
11
5.94304
21
-5.37361
0
LINE
8
BLACK
6
CONTINUOUS
10
5.94304
20
-5.37361
11
5.94304
21
-5.29487
0
LINE
8
BLACK
6
CONTINUOUS
10
5.94304
20
-5.29487
11
6.07099
21
-5.29487
0
LINE
8
BLACK
6
CONTINUOUS
10
6.07099
20
-5.29487
11
6.07099
21
-5.37361
0
LINE
8
BLACK
6
CONTINUOUS
10
4.60982
20
-5.2604
11
4.58854
21
-5.36053
0
LINE
8
BLACK
6
CONTINUOUS
10
4.58854
20
-5.36053
11
4.48842
21
-5.33924
0
LINE
8
BLACK
6
CONTINUOUS
10
4.48842
20
-5.33924
11
4.5097
21
-5.23912
0
LINE
8
BLACK
6
CONTINUOUS
10
4.5097
20
-5.23912
11
4.60982
21
-5.2604
0
LINE
8
BLACK
6
CONTINUOUS
10
4.17003
20
-5.25561
11
4.14875
21
-5.35573
0
LINE
8
BLACK
6
CONTINUOUS
10
4.14875
20
-5.35573
11
4.04862
21
-5.33445
0
LINE
8
BLACK
6
CONTINUOUS
10
4.04862
20
-5.33445
11
4.0699
21
-5.23433
0
LINE
8
BLACK
6
CONTINUOUS
10
4.0699
20
-5.23433
11
4.17003
21
-5.25561
0
LINE
8
BLACK
6
CONTINUOUS
10
6.07099
20
-5.27361
11
5.94304
21
-5.27361
0
LINE
8
BLACK
6
CONTINUOUS
10
5.94304
20
-5.27361
11
5.94304
21
-5.19487
0
LINE
8
BLACK
6
CONTINUOUS
10
5.94304
20
-5.19487
11
6.07099
21
-5.19487
0
LINE
8
BLACK
6
CONTINUOUS
10
6.07099
20
-5.19487
11
6.07099
21
-5.27361
0
LINE
8
BLACK
6
CONTINUOUS
10
5.33099
20
-5.27361
11
5.20304
21
-5.27361
0
LINE
8
BLACK
6
CONTINUOUS
10
5.20304
20
-5.27361
11
5.20304
21
-5.19487
0
LINE
8
BLACK
6
CONTINUOUS
10
5.20304
20
-5.19487
11
5.33099
21
-5.19487
0
LINE
8
BLACK
6
CONTINUOUS
10
5.33099
20
-5.19487
11
5.33099
21
-5.27361
0
LINE
8
BLACK
6
CONTINUOUS
10
7.39958
20
-5.20884
11
7.29945
21
-5.23012
0
LINE
8
BLACK
6
CONTINUOUS
10
7.29945
20
-5.23012
11
7.27817
21
-5.12999
0
LINE
8
BLACK
6
CONTINUOUS
10
7.27817
20
-5.12999
11
7.37829
21
-5.10871
0
LINE
8
BLACK
6
CONTINUOUS
10
7.37829
20
-5.10871
11
7.39958
21
-5.20884
0
LINE
8
BLACK
6
CONTINUOUS
10
7.86237
20
-5.19902
11
7.76225
21
-5.2203
0
LINE
8
BLACK
6
CONTINUOUS
10
7.76225
20
-5.2203
11
7.74096
21
-5.12017
0
LINE
8
BLACK
6
CONTINUOUS
10
7.74096
20
-5.12017
11
7.84109
21
-5.09889
0
LINE
8
BLACK
6
CONTINUOUS
10
7.84109
20
-5.09889
11
7.86237
21
-5.19902
0
LINE
8
BLACK
6
CONTINUOUS
10
9.62001
20
-5.19649
11
9.51765
21
-5.19649
0
LINE
8
BLACK
6
CONTINUOUS
10
9.51765
20
-5.19649
11
9.51765
21
-5.09412
0
LINE
8
BLACK
6
CONTINUOUS
10
9.51765
20
-5.09412
11
9.62001
21
-5.09412
0
LINE
8
BLACK
6
CONTINUOUS
10
9.62001
20
-5.09412
11
9.62001
21
-5.19649
0
LINE
8
BLACK
6
CONTINUOUS
10
2.40761
20
-5.19641
11
2.30524
21
-5.19641
0
LINE
8
BLACK
6
CONTINUOUS
10
2.30524
20
-5.19641
11
2.30524
21
-5.09405
0
LINE
8
BLACK
6
CONTINUOUS
10
2.30524
20
-5.09405
11
2.40761
21
-5.09405
0
LINE
8
BLACK
6
CONTINUOUS
10
2.40761
20
-5.09405
11
2.40761
21
-5.19641
0
LINE
8
BLACK
6
CONTINUOUS
10
3.74325
20
-5.07635
11
3.72197
21
-5.17647
0
LINE
8
BLACK
6
CONTINUOUS
10
3.72197
20
-5.17647
11
3.62184
21
-5.15519
0
LINE
8
BLACK
6
CONTINUOUS
10
3.62184
20
-5.15519
11
3.64312
21
-5.05506
0
LINE
8
BLACK
6
CONTINUOUS
10
3.64312
20
-5.05506
11
3.74325
21
-5.07635
0
LINE
8
BLACK
6
CONTINUOUS
10
5.33099
20
-5.17361
11
5.20304
21
-5.17361
0
LINE
8
BLACK
6
CONTINUOUS
10
5.20304
20
-5.17361
11
5.20304
21
-5.09487
0
LINE
8
BLACK
6
CONTINUOUS
10
5.20304
20
-5.09487
11
5.33099
21
-5.09487
0
LINE
8
BLACK
6
CONTINUOUS
10
5.33099
20
-5.09487
11
5.33099
21
-5.17361
0
LINE
8
BLACK
6
CONTINUOUS
10
6.07099
20
-5.17361
11
5.94304
21
-5.17361
0
LINE
8
BLACK
6
CONTINUOUS
10
5.94304
20
-5.17361
11
5.94304
21
-5.09487
0
LINE
8
BLACK
6
CONTINUOUS
10
5.94304
20
-5.09487
11
6.07099
21
-5.09487
0
LINE
8
BLACK
6
CONTINUOUS
10
6.07099
20
-5.09487
11
6.07099
21
-5.17361
0
LINE
8
BLACK
6
CONTINUOUS
10
9.16528
20
-5.10987
11
9.06292
21
-5.10987
0
LINE
8
BLACK
6
CONTINUOUS
10
9.06292
20
-5.10987
11
9.06292
21
-5.00751
0
LINE
8
BLACK
6
CONTINUOUS
10
9.06292
20
-5.00751
11
9.16528
21
-5.00751
0
LINE
8
BLACK
6
CONTINUOUS
10
9.16528
20
-5.00751
11
9.16528
21
-5.10987
0
LINE
8
BLACK
6
CONTINUOUS
10
1.95288
20
-5.10979
11
1.85052
21
-5.10979
0
LINE
8
BLACK
6
CONTINUOUS
10
1.85052
20
-5.10979
11
1.85052
21
-5.00743
0
LINE
8
BLACK
6
CONTINUOUS
10
1.85052
20
-5.00743
11
1.95288
21
-5.00743
0
LINE
8
BLACK
6
CONTINUOUS
10
1.95288
20
-5.00743
11
1.95288
21
-5.10979
0
LINE
8
BLACK
6
CONTINUOUS
10
5.33099
20
-5.07361
11
5.20304
21
-5.07361
0
LINE
8
BLACK
6
CONTINUOUS
10
5.20304
20
-5.07361
11
5.20304
21
-4.99487
0
LINE
8
BLACK
6
CONTINUOUS
10
5.20304
20
-4.99487
11
5.33099
21
-4.99487
0
LINE
8
BLACK
6
CONTINUOUS
10
5.33099
20
-4.99487
11
5.33099
21
-5.07361
0
LINE
8
BLACK
6
CONTINUOUS
10
6.07099
20
-5.07361
11
5.94304
21
-5.07361
0
LINE
8
BLACK
6
CONTINUOUS
10
5.94304
20
-5.07361
11
5.94304
21
-4.99487
0
LINE
8
BLACK
6
CONTINUOUS
10
5.94304
20
-4.99487
11
6.07099
21
-4.99487
0
LINE
8
BLACK
6
CONTINUOUS
10
6.07099
20
-4.99487
11
6.07099
21
-5.07361
0
LINE
8
BLACK
6
CONTINUOUS
10
5.33099
20
-4.97361
11
5.20304
21
-4.97361
0
LINE
8
BLACK
6
CONTINUOUS
10
5.20304
20
-4.97361
11
5.20304
21
-4.89487
0
LINE
8
BLACK
6
CONTINUOUS
10
5.20304
20
-4.89487
11
5.33099
21
-4.89487
0
LINE
8
BLACK
6
CONTINUOUS
10
5.33099
20
-4.89487
11
5.33099
21
-4.97361
0
LINE
8
BLACK
6
CONTINUOUS
10
6.07099
20
-4.97361
11
5.94304
21
-4.97361
0
LINE
8
BLACK
6
CONTINUOUS
10
5.94304
20
-4.97361
11
5.94304
21
-4.89487
0
LINE
8
BLACK
6
CONTINUOUS
10
5.94304
20
-4.89487
11
6.07099
21
-4.89487
0
LINE
8
BLACK
6
CONTINUOUS
10
6.07099
20
-4.89487
11
6.07099
21
-4.97361
0
LINE
8
BLACK
6
CONTINUOUS
10
5.33099
20
-4.87361
11
5.20304
21
-4.87361
0
LINE
8
BLACK
6
CONTINUOUS
10
5.20304
20
-4.87361
11
5.20304
21
-4.79487
0
LINE
8
BLACK
6
CONTINUOUS
10
5.20304
20
-4.79487
11
5.33099
21
-4.79487
0
LINE
8
BLACK
6
CONTINUOUS
10
5.33099
20
-4.79487
11
5.33099
21
-4.87361
0
LINE
8
BLACK
6
CONTINUOUS
10
6.07099
20
-4.87361
11
5.94304
21
-4.87361
0
LINE
8
BLACK
6
CONTINUOUS
10
5.94304
20
-4.87361
11
5.94304
21
-4.79487
0
LINE
8
BLACK
6
CONTINUOUS
10
5.94304
20
-4.79487
11
6.07099
21
-4.79487
0
LINE
8
BLACK
6
CONTINUOUS
10
6.07099
20
-4.79487
11
6.07099
21
-4.87361
0
LINE
8
BLACK
6
CONTINUOUS
10
4.95957
20
-4.77447
11
4.94975
21
-4.82068
0
LINE
8
BLACK
6
CONTINUOUS
10
4.94975
20
-4.82068
11
4.91509
21
-4.81331
0
LINE
8
BLACK
6
CONTINUOUS
10
4.91509
20
-4.81331
11
4.92491
21
-4.7671
0
LINE
8
BLACK
6
CONTINUOUS
10
4.92491
20
-4.7671
11
4.95957
21
-4.77447
0
LINE
8
BLACK
6
CONTINUOUS
10
4.83249
20
-4.74746
11
4.82266
21
-4.79367
0
LINE
8
BLACK
6
CONTINUOUS
10
4.82266
20
-4.79367
11
4.78801
21
-4.7863
0
LINE
8
BLACK
6
CONTINUOUS
10
4.78801
20
-4.7863
11
4.79783
21
-4.74009
0
LINE
8
BLACK
6
CONTINUOUS
10
4.79783
20
-4.74009
11
4.83249
21
-4.74746
0
LINE
8
BLACK
6
CONTINUOUS
10
5.33099
20
-4.77361
11
5.20304
21
-4.77361
0
LINE
8
BLACK
6
CONTINUOUS
10
5.20304
20
-4.77361
11
5.20304
21
-4.69487
0
LINE
8
BLACK
6
CONTINUOUS
10
5.20304
20
-4.69487
11
5.33099
21
-4.69487
0
LINE
8
BLACK
6
CONTINUOUS
10
5.33099
20
-4.69487
11
5.33099
21
-4.77361
0
LINE
8
BLACK
6
CONTINUOUS
10
6.07099
20
-4.77361
11
5.94304
21
-4.77361
0
LINE
8
BLACK
6
CONTINUOUS
10
5.94304
20
-4.77361
11
5.94304
21
-4.69487
0
LINE
8
BLACK
6
CONTINUOUS
10
5.94304
20
-4.69487
11
6.07099
21
-4.69487
0
LINE
8
BLACK
6
CONTINUOUS
10
6.07099
20
-4.69487
11
6.07099
21
-4.77361
0
LINE
8
BLACK
6
CONTINUOUS
10
6.86304
20
-4.70642
11
6.82838
21
-4.71379
0
LINE
8
BLACK
6
CONTINUOUS
10
6.82838
20
-4.71379
11
6.81856
21
-4.66758
0
LINE
8
BLACK
6
CONTINUOUS
10
6.81856
20
-4.66758
11
6.85321
21
-4.66021
0
LINE
8
BLACK
6
CONTINUOUS
10
6.85321
20
-4.66021
11
6.86304
21
-4.70642
0
LINE
8
BLACK
6
CONTINUOUS
10
6.99012
20
-4.67941
11
6.95546
21
-4.68678
0
LINE
8
BLACK
6
CONTINUOUS
10
6.95546
20
-4.68678
11
6.94564
21
-4.64057
0
LINE
8
BLACK
6
CONTINUOUS
10
6.94564
20
-4.64057
11
6.9803
21
-4.6332
0
LINE
8
BLACK
6
CONTINUOUS
10
6.9803
20
-4.6332
11
6.99012
21
-4.67941
0
LINE
8
BLACK
6
CONTINUOUS
10
5.33099
20
-4.67361
11
5.20304
21
-4.67361
0
LINE
8
BLACK
6
CONTINUOUS
10
5.20304
20
-4.67361
11
5.20304
21
-4.59487
0
LINE
8
BLACK
6
CONTINUOUS
10
5.20304
20
-4.59487
11
5.33099
21
-4.59487
0
LINE
8
BLACK
6
CONTINUOUS
10
5.33099
20
-4.59487
11
5.33099
21
-4.67361
0
LINE
8
BLACK
6
CONTINUOUS
10
6.07099
20
-4.67361
11
5.94304
21
-4.67361
0
LINE
8
BLACK
6
CONTINUOUS
10
5.94304
20
-4.67361
11
5.94304
21
-4.59487
0
LINE
8
BLACK
6
CONTINUOUS
10
5.94304
20
-4.59487
11
6.07099
21
-4.59487
0
LINE
8
BLACK
6
CONTINUOUS
10
6.07099
20
-4.59487
11
6.07099
21
-4.67361
0
LINE
8
BLACK
6
CONTINUOUS
10
4.28292
20
-4.55014
11
4.27309
21
-4.59635
0
LINE
8
BLACK
6
CONTINUOUS
10
4.27309
20
-4.59635
11
4.23843
21
-4.58898
0
LINE
8
BLACK
6
CONTINUOUS
10
4.23843
20
-4.58898
11
4.24826
21
-4.54277
0
LINE
8
BLACK
6
CONTINUOUS
10
4.24826
20
-4.54277
11
4.28292
21
-4.55014
0
LINE
8
BLACK
6
CONTINUOUS
10
5.33099
20
-4.57361
11
5.20304
21
-4.57361
0
LINE
8
BLACK
6
CONTINUOUS
10
5.20304
20
-4.57361
11
5.20304
21
-4.49487
0
LINE
8
BLACK
6
CONTINUOUS
10
5.20304
20
-4.49487
11
5.33099
21
-4.49487
0
LINE
8
BLACK
6
CONTINUOUS
10
5.33099
20
-4.49487
11
5.33099
21
-4.57361
0
LINE
8
BLACK
6
CONTINUOUS
10
6.07099
20
-4.57361
11
5.94304
21
-4.57361
0
LINE
8
BLACK
6
CONTINUOUS
10
5.94304
20
-4.57361
11
5.94304
21
-4.49487
0
LINE
8
BLACK
6
CONTINUOUS
10
5.94304
20
-4.49487
11
6.07099
21
-4.49487
0
LINE
8
BLACK
6
CONTINUOUS
10
6.07099
20
-4.49487
11
6.07099
21
-4.57361
0
LINE
8
BLACK
6
CONTINUOUS
10
4.15583
20
-4.52313
11
4.14601
21
-4.56934
0
LINE
8
BLACK
6
CONTINUOUS
10
4.14601
20
-4.56934
11
4.11135
21
-4.56197
0
LINE
8
BLACK
6
CONTINUOUS
10
4.11135
20
-4.56197
11
4.12117
21
-4.51576
0
LINE
8
BLACK
6
CONTINUOUS
10
4.12117
20
-4.51576
11
4.15583
21
-4.52313
0
LINE
8
BLACK
6
CONTINUOUS
10
7.53993
20
-4.4817
11
7.50527
21
-4.48907
0
LINE
8
BLACK
6
CONTINUOUS
10
7.50527
20
-4.48907
11
7.49545
21
-4.44285
0
LINE
8
BLACK
6
CONTINUOUS
10
7.49545
20
-4.44285
11
7.5301
21
-4.43549
0
LINE
8
BLACK
6
CONTINUOUS
10
7.5301
20
-4.43549
11
7.53993
21
-4.4817
0
LINE
8
BLACK
6
CONTINUOUS
10
5.07991
20
-4.38356
11
5.05863
21
-4.48369
0
LINE
8
BLACK
6
CONTINUOUS
10
5.05863
20
-4.48369
11
4.9585
21
-4.4624
0
LINE
8
BLACK
6
CONTINUOUS
10
4.9585
20
-4.4624
11
4.97978
21
-4.36228
0
LINE
8
BLACK
6
CONTINUOUS
10
4.97978
20
-4.36228
11
5.07991
21
-4.38356
0
LINE
8
BLACK
6
CONTINUOUS
10
7.66701
20
-4.45469
11
7.63235
21
-4.46205
0
LINE
8
BLACK
6
CONTINUOUS
10
7.63235
20
-4.46205
11
7.62253
21
-4.41584
0
LINE
8
BLACK
6
CONTINUOUS
10
7.62253
20
-4.41584
11
7.65719
21
-4.40847
0
LINE
8
BLACK
6
CONTINUOUS
10
7.65719
20
-4.40847
11
7.66701
21
-4.45469
0
LINE
8
BLACK
6
CONTINUOUS
10
9.76091
20
-4.3872
11
9.72548
21
-4.3872
0
LINE
8
BLACK
6
CONTINUOUS
10
9.72548
20
-4.3872
11
9.72548
21
-4.33995
0
LINE
8
BLACK
6
CONTINUOUS
10
9.72548
20
-4.33995
11
9.76091
21
-4.33995
0
LINE
8
BLACK
6
CONTINUOUS
10
9.76091
20
-4.33995
11
9.76091
21
-4.3872
0
LINE
8
BLACK
6
CONTINUOUS
10
9.63099
20
-4.3872
11
9.59556
21
-4.3872
0
LINE
8
BLACK
6
CONTINUOUS
10
9.59556
20
-4.3872
11
9.59556
21
-4.33995
0
LINE
8
BLACK
6
CONTINUOUS
10
9.59556
20
-4.33995
11
9.63099
21
-4.33995
0
LINE
8
BLACK
6
CONTINUOUS
10
9.63099
20
-4.33995
11
9.63099
21
-4.3872
0
LINE
8
BLACK
6
CONTINUOUS
10
2.19406
20
-4.38696
11
2.15863
21
-4.38696
0
LINE
8
BLACK
6
CONTINUOUS
10
2.15863
20
-4.38696
11
2.15863
21
-4.33971
0
LINE
8
BLACK
6
CONTINUOUS
10
2.15863
20
-4.33971
11
2.19406
21
-4.33971
0
LINE
8
BLACK
6
CONTINUOUS
10
2.19406
20
-4.33971
11
2.19406
21
-4.38696
0
LINE
8
BLACK
6
CONTINUOUS
10
2.06414
20
-4.38696
11
2.02871
21
-4.38696
0
LINE
8
BLACK
6
CONTINUOUS
10
2.02871
20
-4.38696
11
2.02871
21
-4.33971
0
LINE
8
BLACK
6
CONTINUOUS
10
2.02871
20
-4.33971
11
2.06414
21
-4.33971
0
LINE
8
BLACK
6
CONTINUOUS
10
2.06414
20
-4.33971
11
2.06414
21
-4.38696
0
LINE
8
BLACK
6
CONTINUOUS
10
6.48965
20
-4.33695
11
6.38953
21
-4.35823
0
LINE
8
BLACK
6
CONTINUOUS
10
6.38953
20
-4.35823
11
6.36825
21
-4.2581
0
LINE
8
BLACK
6
CONTINUOUS
10
6.36825
20
-4.2581
11
6.46837
21
-4.23682
0
LINE
8
BLACK
6
CONTINUOUS
10
6.46837
20
-4.23682
11
6.48965
21
-4.33695
0
LINE
8
BLACK
6
CONTINUOUS
10
6.95245
20
-4.32713
11
6.85232
21
-4.34841
0
LINE
8
BLACK
6
CONTINUOUS
10
6.85232
20
-4.34841
11
6.83104
21
-4.24828
0
LINE
8
BLACK
6
CONTINUOUS
10
6.83104
20
-4.24828
11
6.93117
21
-4.227
0
LINE
8
BLACK
6
CONTINUOUS
10
6.93117
20
-4.227
11
6.95245
21
-4.32713
0
LINE
8
BLACK
6
CONTINUOUS
10
4.65313
20
-4.2043
11
4.63185
21
-4.30442
0
LINE
8
BLACK
6
CONTINUOUS
10
4.63185
20
-4.30442
11
4.53172
21
-4.28314
0
LINE
8
BLACK
6
CONTINUOUS
10
4.53172
20
-4.28314
11
4.553
21
-4.18302
0
LINE
8
BLACK
6
CONTINUOUS
10
4.553
20
-4.18302
11
4.65313
21
-4.2043
0
LINE
8
BLACK
6
CONTINUOUS
10
2.90513
20
-4.25297
11
2.9002
21
-4.29996
0
LINE
8
BLACK
6
CONTINUOUS
10
2.9002
20
-4.29996
11
2.86496
21
-4.29626
0
LINE
8
BLACK
6
CONTINUOUS
10
2.86496
20
-4.29626
11
2.86989
21
-4.24927
0
LINE
8
BLACK
6
CONTINUOUS
10
2.86989
20
-4.24927
11
2.90513
21
-4.25297
0
LINE
8
BLACK
6
CONTINUOUS
10
3.62085
20
-4.2464
11
3.61264
21
-4.29293
0
LINE
8
BLACK
6
CONTINUOUS
10
3.61264
20
-4.29293
11
3.57775
21
-4.28677
0
LINE
8
BLACK
6
CONTINUOUS
10
3.57775
20
-4.28677
11
3.58595
21
-4.24025
0
LINE
8
BLACK
6
CONTINUOUS
10
3.58595
20
-4.24025
11
3.62085
21
-4.2464
0
LINE
8
BLACK
6
CONTINUOUS
10
2.77592
20
-4.23939
11
2.77099
21
-4.28638
0
LINE
8
BLACK
6
CONTINUOUS
10
2.77099
20
-4.28638
11
2.73575
21
-4.28268
0
LINE
8
BLACK
6
CONTINUOUS
10
2.73575
20
-4.28268
11
2.74069
21
-4.23569
0
LINE
8
BLACK
6
CONTINUOUS
10
2.74069
20
-4.23569
11
2.77592
21
-4.23939
0
LINE
8
BLACK
6
CONTINUOUS
10
3.4929
20
-4.22384
11
3.48469
21
-4.27036
0
LINE
8
BLACK
6
CONTINUOUS
10
3.48469
20
-4.27036
11
3.4498
21
-4.26421
0
LINE
8
BLACK
6
CONTINUOUS
10
3.4498
20
-4.26421
11
3.458
21
-4.21769
0
LINE
8
BLACK
6
CONTINUOUS
10
3.458
20
-4.21769
11
3.4929
21
-4.22384
0
LINE
8
BLACK
6
CONTINUOUS
10
4.40322
20
-4.15907
11
4.38193
21
-4.2592
0
LINE
8
BLACK
6
CONTINUOUS
10
4.38193
20
-4.2592
11
4.28181
21
-4.23792
0
LINE
8
BLACK
6
CONTINUOUS
10
4.28181
20
-4.23792
11
4.30309
21
-4.13779
0
LINE
8
BLACK
6
CONTINUOUS
10
4.30309
20
-4.13779
11
4.40322
21
-4.15907
0
LINE
8
BLACK
6
CONTINUOUS
10
8.92171
20
-4.24256
11
8.88647
21
-4.24626
0
LINE
8
BLACK
6
CONTINUOUS
10
8.88647
20
-4.24626
11
8.88153
21
-4.19927
0
LINE
8
BLACK
6
CONTINUOUS
10
8.88153
20
-4.19927
11
8.91677
21
-4.19557
0
LINE
8
BLACK
6
CONTINUOUS
10
8.91677
20
-4.19557
11
8.92171
21
-4.24256
0
LINE
8
BLACK
6
CONTINUOUS
10
9.05092
20
-4.22897
11
9.01568
21
-4.23268
0
LINE
8
BLACK
6
CONTINUOUS
10
9.01568
20
-4.23268
11
9.01074
21
-4.18569
0
LINE
8
BLACK
6
CONTINUOUS
10
9.01074
20
-4.18569
11
9.04598
21
-4.18199
0
LINE
8
BLACK
6
CONTINUOUS
10
9.04598
20
-4.18199
11
9.05092
21
-4.22897
0
LINE
8
BLACK
6
CONTINUOUS
10
8.20408
20
-4.1974
11
8.16918
21
-4.20355
0
LINE
8
BLACK
6
CONTINUOUS
10
8.16918
20
-4.20355
11
8.16098
21
-4.15703
0
LINE
8
BLACK
6
CONTINUOUS
10
8.16098
20
-4.15703
11
8.19588
21
-4.15088
0
LINE
8
BLACK
6
CONTINUOUS
10
8.19588
20
-4.15088
11
8.20408
21
-4.1974
0
LINE
8
BLACK
6
CONTINUOUS
10
8.33203
20
-4.17484
11
8.29713
21
-4.18099
0
LINE
8
BLACK
6
CONTINUOUS
10
8.29713
20
-4.18099
11
8.28893
21
-4.13447
0
LINE
8
BLACK
6
CONTINUOUS
10
8.28893
20
-4.13447
11
8.32382
21
-4.12831
0
LINE
8
BLACK
6
CONTINUOUS
10
8.32382
20
-4.12831
11
8.33203
21
-4.17484
0
LINE
8
BLACK
6
CONTINUOUS
10
5.09882
20
-4.11982
11
5.089
21
-4.16603
0
LINE
8
BLACK
6
CONTINUOUS
10
5.089
20
-4.16603
11
5.05434
21
-4.15867
0
LINE
8
BLACK
6
CONTINUOUS
10
5.05434
20
-4.15867
11
5.06416
21
-4.11246
0
LINE
8
BLACK
6
CONTINUOUS
10
5.06416
20
-4.11246
11
5.09882
21
-4.11982
0
LINE
8
BLACK
6
CONTINUOUS
10
4.97174
20
-4.09281
11
4.96192
21
-4.13902
0
LINE
8
BLACK
6
CONTINUOUS
10
4.96192
20
-4.13902
11
4.92726
21
-4.13165
0
LINE
8
BLACK
6
CONTINUOUS
10
4.92726
20
-4.13165
11
4.93708
21
-4.08544
0
LINE
8
BLACK
6
CONTINUOUS
10
4.93708
20
-4.08544
11
4.97174
21
-4.09281
0
LINE
8
BLACK
6
CONTINUOUS
10
7.16654
20
-4.11262
11
7.06642
21
-4.1339
0
LINE
8
BLACK
6
CONTINUOUS
10
7.06642
20
-4.1339
11
7.04514
21
-4.03377
0
LINE
8
BLACK
6
CONTINUOUS
10
7.04514
20
-4.03377
11
7.14526
21
-4.01249
0
LINE
8
BLACK
6
CONTINUOUS
10
7.14526
20
-4.01249
11
7.16654
21
-4.11262
0
LINE
8
BLACK
6
CONTINUOUS
10
7.62934
20
-4.1028
11
7.52921
21
-4.12408
0
LINE
8
BLACK
6
CONTINUOUS
10
7.52921
20
-4.12408
11
7.50793
21
-4.02395
0
LINE
8
BLACK
6
CONTINUOUS
10
7.50793
20
-4.02395
11
7.60806
21
-4.00267
0
LINE
8
BLACK
6
CONTINUOUS
10
7.60806
20
-4.00267
11
7.62934
21
-4.1028
0
LINE
8
BLACK
6
CONTINUOUS
10
3.97644
20
-3.97981
11
3.95516
21
-4.07993
0
LINE
8
BLACK
6
CONTINUOUS
10
3.95516
20
-4.07993
11
3.85503
21
-4.05865
0
LINE
8
BLACK
6
CONTINUOUS
10
3.85503
20
-4.05865
11
3.87631
21
-3.95853
0
LINE
8
BLACK
6
CONTINUOUS
10
3.87631
20
-3.95853
11
3.97644
21
-3.97981
0
LINE
8
BLACK
6
CONTINUOUS
10
6.72379
20
-4.05158
11
6.68913
21
-4.05895
0
LINE
8
BLACK
6
CONTINUOUS
10
6.68913
20
-4.05895
11
6.6793
21
-4.01274
0
LINE
8
BLACK
6
CONTINUOUS
10
6.6793
20
-4.01274
11
6.71396
21
-4.00537
0
LINE
8
BLACK
6
CONTINUOUS
10
6.71396
20
-4.00537
11
6.72379
21
-4.05158
0
LINE
8
BLACK
6
CONTINUOUS
10
9.79725
20
-4.03503
11
9.69489
21
-4.03503
0
LINE
8
BLACK
6
CONTINUOUS
10
9.69489
20
-4.03503
11
9.69489
21
-3.93267
0
LINE
8
BLACK
6
CONTINUOUS
10
9.69489
20
-3.93267
11
9.79725
21
-3.93267
0
LINE
8
BLACK
6
CONTINUOUS
10
9.79725
20
-3.93267
11
9.79725
21
-4.03503
0
LINE
8
BLACK
6
CONTINUOUS
10
2.23028
20
-4.03471
11
2.12792
21
-4.03471
0
LINE
8
BLACK
6
CONTINUOUS
10
2.12792
20
-4.03471
11
2.12792
21
-3.93235
0
LINE
8
BLACK
6
CONTINUOUS
10
2.12792
20
-3.93235
11
2.23028
21
-3.93235
0
LINE
8
BLACK
6
CONTINUOUS
10
2.23028
20
-3.93235
11
2.23028
21
-4.03471
0
LINE
8
BLACK
6
CONTINUOUS
10
6.85087
20
-4.02457
11
6.81621
21
-4.03193
0
LINE
8
BLACK
6
CONTINUOUS
10
6.81621
20
-4.03193
11
6.80639
21
-3.98572
0
LINE
8
BLACK
6
CONTINUOUS
10
6.80639
20
-3.98572
11
6.84105
21
-3.97836
0
LINE
8
BLACK
6
CONTINUOUS
10
6.84105
20
-3.97836
11
6.85087
21
-4.02457
0
LINE
8
BLACK
6
CONTINUOUS
10
2.9838
20
-3.8516
11
2.9731
21
-3.95341
0
LINE
8
BLACK
6
CONTINUOUS
10
2.9731
20
-3.95341
11
2.87129
21
-3.94271
0
LINE
8
BLACK
6
CONTINUOUS
10
2.87129
20
-3.94271
11
2.88199
21
-3.8409
0
LINE
8
BLACK
6
CONTINUOUS
10
2.88199
20
-3.8409
11
2.9838
21
-3.8516
0
LINE
8
BLACK
6
CONTINUOUS
10
3.72723
20
-3.85146
11
3.70945
21
-3.95227
0
LINE
8
BLACK
6
CONTINUOUS
10
3.70945
20
-3.95227
11
3.60864
21
-3.93449
0
LINE
8
BLACK
6
CONTINUOUS
10
3.60864
20
-3.93449
11
3.62642
21
-3.83369
0
LINE
8
BLACK
6
CONTINUOUS
10
3.62642
20
-3.83369
11
3.72723
21
-3.85146
0
LINE
8
BLACK
6
CONTINUOUS
10
9.34253
20
-3.94842
11
9.24016
21
-3.94842
0
LINE
8
BLACK
6
CONTINUOUS
10
9.24016
20
-3.94842
11
9.24016
21
-3.84605
0
LINE
8
BLACK
6
CONTINUOUS
10
9.24016
20
-3.84605
11
9.34253
21
-3.84605
0
LINE
8
BLACK
6
CONTINUOUS
10
9.34253
20
-3.84605
11
9.34253
21
-3.94842
0
LINE
8
BLACK
6
CONTINUOUS
10
1.77556
20
-3.9481
11
1.6732
21
-3.9481
0
LINE
8
BLACK
6
CONTINUOUS
10
1.6732
20
-3.9481
11
1.6732
21
-3.84574
0
LINE
8
BLACK
6
CONTINUOUS
10
1.6732
20
-3.84574
11
1.77556
21
-3.84574
0
LINE
8
BLACK
6
CONTINUOUS
10
1.77556
20
-3.84574
11
1.77556
21
-3.9481
0
LINE
8
BLACK
6
CONTINUOUS
10
4.42205
20
-3.89541
11
4.41223
21
-3.94162
0
LINE
8
BLACK
6
CONTINUOUS
10
4.41223
20
-3.94162
11
4.37757
21
-3.93426
0
LINE
8
BLACK
6
CONTINUOUS
10
4.37757
20
-3.93426
11
4.38739
21
-3.88805
0
LINE
8
BLACK
6
CONTINUOUS
10
4.38739
20
-3.88805
11
4.42205
21
-3.89541
0
LINE
8
BLACK
6
CONTINUOUS
10
4.29497
20
-3.8684
11
4.28514
21
-3.91461
0
LINE
8
BLACK
6
CONTINUOUS
10
4.28514
20
-3.91461
11
4.25049
21
-3.90725
0
LINE
8
BLACK
6
CONTINUOUS
10
4.25049
20
-3.90725
11
4.26031
21
-3.86103
0
LINE
8
BLACK
6
CONTINUOUS
10
4.26031
20
-3.86103
11
4.29497
21
-3.8684
0
LINE
8
BLACK
6
CONTINUOUS
10
9.05043
20
-3.87495
11
8.94863
21
-3.88565
0
LINE
8
BLACK
6
CONTINUOUS
10
8.94863
20
-3.88565
11
8.93793
21
-3.78384
0
LINE
8
BLACK
6
CONTINUOUS
10
8.93793
20
-3.78384
11
9.03973
21
-3.77314
0
LINE
8
BLACK
6
CONTINUOUS
10
9.03973
20
-3.77314
11
9.05043
21
-3.87495
0
LINE
8
BLACK
6
CONTINUOUS
10
8.58914
20
-3.83634
11
8.48734
21
-3.84704
0
LINE
8
BLACK
6
CONTINUOUS
10
8.48734
20
-3.84704
11
8.47664
21
-3.74524
0
LINE
8
BLACK
6
CONTINUOUS
10
8.47664
20
-3.74524
11
8.57844
21
-3.73454
0
LINE
8
BLACK
6
CONTINUOUS
10
8.57844
20
-3.73454
11
8.58914
21
-3.83634
0
LINE
8
BLACK
6
CONTINUOUS
10
8.30663
20
-3.82172
11
8.20583
21
-3.8395
0
LINE
8
BLACK
6
CONTINUOUS
10
8.20583
20
-3.8395
11
8.18805
21
-3.73869
0
LINE
8
BLACK
6
CONTINUOUS
10
8.18805
20
-3.73869
11
8.28886
21
-3.72092
0
LINE
8
BLACK
6
CONTINUOUS
10
8.28886
20
-3.72092
11
8.30663
21
-3.82172
0
LINE
8
BLACK
6
CONTINUOUS
10
7.40071
20
-3.82733
11
7.36606
21
-3.8347
0
LINE
8
BLACK
6
CONTINUOUS
10
7.36606
20
-3.8347
11
7.35623
21
-3.78848
0
LINE
8
BLACK
6
CONTINUOUS
10
7.35623
20
-3.78848
11
7.39089
21
-3.78112
0
LINE
8
BLACK
6
CONTINUOUS
10
7.39089
20
-3.78112
11
7.40071
21
-3.82733
0
LINE
8
BLACK
6
CONTINUOUS
10
7.84378
20
-3.81539
11
7.74297
21
-3.83316
0
LINE
8
BLACK
6
CONTINUOUS
10
7.74297
20
-3.83316
11
7.72519
21
-3.73236
0
LINE
8
BLACK
6
CONTINUOUS
10
7.72519
20
-3.73236
11
7.826
21
-3.71458
0
LINE
8
BLACK
6
CONTINUOUS
10
7.826
20
-3.71458
11
7.84378
21
-3.81539
0
LINE
8
BLACK
6
CONTINUOUS
10
5.21906
20
-3.7289
11
5.19778
21
-3.82902
0
LINE
8
BLACK
6
CONTINUOUS
10
5.19778
20
-3.82902
11
5.09766
21
-3.80774
0
LINE
8
BLACK
6
CONTINUOUS
10
5.09766
20
-3.80774
11
5.11894
21
-3.70761
0
LINE
8
BLACK
6
CONTINUOUS
10
5.11894
20
-3.70761
11
5.21906
21
-3.7289
0
LINE
8
BLACK
6
CONTINUOUS
10
2.54062
20
-3.71793
11
2.52992
21
-3.81973
0
LINE
8
BLACK
6
CONTINUOUS
10
2.52992
20
-3.81973
11
2.42811
21
-3.80903
0
LINE
8
BLACK
6
CONTINUOUS
10
2.42811
20
-3.80903
11
2.43881
21
-3.70723
0
LINE
8
BLACK
6
CONTINUOUS
10
2.43881
20
-3.70723
11
2.54062
21
-3.71793
0
LINE
8
BLACK
6
CONTINUOUS
10
7.5278
20
-3.80032
11
7.49314
21
-3.80768
0
LINE
8
BLACK
6
CONTINUOUS
10
7.49314
20
-3.80768
11
7.48332
21
-3.76147
0
LINE
8
BLACK
6
CONTINUOUS
10
7.48332
20
-3.76147
11
7.51797
21
-3.7541
0
LINE
8
BLACK
6
CONTINUOUS
10
7.51797
20
-3.7541
11
7.5278
21
-3.80032
0
LINE
8
BLACK
6
CONTINUOUS
10
3.29445
20
-3.6872
11
3.27668
21
-3.78801
0
LINE
8
BLACK
6
CONTINUOUS
10
3.27668
20
-3.78801
11
3.17587
21
-3.77023
0
LINE
8
BLACK
6
CONTINUOUS
10
3.17587
20
-3.77023
11
3.19364
21
-3.66943
0
LINE
8
BLACK
6
CONTINUOUS
10
3.19364
20
-3.66943
11
3.29445
21
-3.6872
0
LINE
8
BLACK
6
CONTINUOUS
10
9.63087
20
-3.71782
11
9.59544
21
-3.71782
0
LINE
8
BLACK
6
CONTINUOUS
10
9.59544
20
-3.71782
11
9.59544
21
-3.67058
0
LINE
8
BLACK
6
CONTINUOUS
10
9.59544
20
-3.67058
11
9.63087
21
-3.67058
0
LINE
8
BLACK
6
CONTINUOUS
10
9.63087
20
-3.67058
11
9.63087
21
-3.71782
0
LINE
8
BLACK
6
CONTINUOUS
10
9.76079
20
-3.71782
11
9.72536
21
-3.71782
0
LINE
8
BLACK
6
CONTINUOUS
10
9.72536
20
-3.71782
11
9.72536
21
-3.67058
0
LINE
8
BLACK
6
CONTINUOUS
10
9.72536
20
-3.67058
11
9.76079
21
-3.67058
0
LINE
8
BLACK
6
CONTINUOUS
10
9.76079
20
-3.67058
11
9.76079
21
-3.71782
0
LINE
8
BLACK
6
CONTINUOUS
10
2.06402
20
-3.71775
11
2.02859
21
-3.71775
0
LINE
8
BLACK
6
CONTINUOUS
10
2.02859
20
-3.71775
11
2.02859
21
-3.6705
0
LINE
8
BLACK
6
CONTINUOUS
10
2.02859
20
-3.6705
11
2.06402
21
-3.6705
0
LINE
8
BLACK
6
CONTINUOUS
10
2.06402
20
-3.6705
11
2.06402
21
-3.71775
0
LINE
8
BLACK
6
CONTINUOUS
10
2.19394
20
-3.71775
11
2.15851
21
-3.71775
0
LINE
8
BLACK
6
CONTINUOUS
10
2.15851
20
-3.71775
11
2.15851
21
-3.6705
0
LINE
8
BLACK
6
CONTINUOUS
10
2.15851
20
-3.6705
11
2.19394
21
-3.6705
0
LINE
8
BLACK
6
CONTINUOUS
10
2.19394
20
-3.6705
11
2.19394
21
-3.71775
0
LINE
8
BLACK
6
CONTINUOUS
10
6.3505
20
-3.68228
11
6.25038
21
-3.70356
0
LINE
8
BLACK
6
CONTINUOUS
10
6.25038
20
-3.70356
11
6.22909
21
-3.60344
0
LINE
8
BLACK
6
CONTINUOUS
10
6.22909
20
-3.60344
11
6.32922
21
-3.58216
0
LINE
8
BLACK
6
CONTINUOUS
10
6.32922
20
-3.58216
11
6.3505
21
-3.68228
0
LINE
8
BLACK
6
CONTINUOUS
10
6.8133
20
-3.67246
11
6.71317
21
-3.69374
0
LINE
8
BLACK
6
CONTINUOUS
10
6.71317
20
-3.69374
11
6.69189
21
-3.59362
0
LINE
8
BLACK
6
CONTINUOUS
10
6.69189
20
-3.59362
11
6.79201
21
-3.57234
0
LINE
8
BLACK
6
CONTINUOUS
10
6.79201
20
-3.57234
11
6.8133
21
-3.67246
0
LINE
8
BLACK
6
CONTINUOUS
10
4.79228
20
-3.54963
11
4.771
21
-3.64976
0
LINE
8
BLACK
6
CONTINUOUS
10
4.771
20
-3.64976
11
4.67088
21
-3.62847
0
LINE
8
BLACK
6
CONTINUOUS
10
4.67088
20
-3.62847
11
4.69216
21
-3.52835
0
LINE
8
BLACK
6
CONTINUOUS
10
4.69216
20
-3.52835
11
4.79228
21
-3.54963
0
LINE
8
BLACK
6
CONTINUOUS
10
2.97502
20
-3.58746
11
2.97008
21
-3.63445
0
LINE
8
BLACK
6
CONTINUOUS
10
2.97008
20
-3.63445
11
2.93484
21
-3.63074
0
LINE
8
BLACK
6
CONTINUOUS
10
2.93484
20
-3.63074
11
2.93978
21
-3.58376
0
LINE
8
BLACK
6
CONTINUOUS
10
2.93978
20
-3.58376
11
2.97502
21
-3.58746
0
LINE
8
BLACK
6
CONTINUOUS
10
3.73703
20
-3.58727
11
3.72882
21
-3.63379
0
LINE
8
BLACK
6
CONTINUOUS
10
3.72882
20
-3.63379
11
3.69393
21
-3.62764
0
LINE
8
BLACK
6
CONTINUOUS
10
3.69393
20
-3.62764
11
3.70213
21
-3.58111
0
LINE
8
BLACK
6
CONTINUOUS
10
3.70213
20
-3.58111
11
3.73703
21
-3.58727
0
LINE
8
BLACK
6
CONTINUOUS
10
2.84581
20
-3.57388
11
2.84087
21
-3.62087
0
LINE
8
BLACK
6
CONTINUOUS
10
2.84087
20
-3.62087
11
2.80563
21
-3.61716
0
LINE
8
BLACK
6
CONTINUOUS
10
2.80563
20
-3.61716
11
2.81057
21
-3.57018
0
LINE
8
BLACK
6
CONTINUOUS
10
2.81057
20
-3.57018
11
2.84581
21
-3.57388
0
LINE
8
BLACK
6
CONTINUOUS
10
3.60908
20
-3.5647
11
3.60088
21
-3.61123
0
LINE
8
BLACK
6
CONTINUOUS
10
3.60088
20
-3.61123
11
3.56598
21
-3.60508
0
LINE
8
BLACK
6
CONTINUOUS
10
3.56598
20
-3.60508
11
3.57418
21
-3.55855
0
LINE
8
BLACK
6
CONTINUOUS
10
3.57418
20
-3.55855
11
3.60908
21
-3.5647
0
LINE
8
BLACK
6
CONTINUOUS
10
4.54237
20
-3.50441
11
4.52109
21
-3.60453
0
LINE
8
BLACK
6
CONTINUOUS
10
4.52109
20
-3.60453
11
4.42096
21
-3.58325
0
LINE
8
BLACK
6
CONTINUOUS
10
4.42096
20
-3.58325
11
4.44224
21
-3.48313
0
LINE
8
BLACK
6
CONTINUOUS
10
4.44224
20
-3.48313
11
4.54237
21
-3.50441
0
LINE
8
BLACK
6
CONTINUOUS
10
8.85183
20
-3.57708
11
8.81659
21
-3.58079
0
LINE
8
BLACK
6
CONTINUOUS
10
8.81659
20
-3.58079
11
8.81165
21
-3.5338
0
LINE
8
BLACK
6
CONTINUOUS
10
8.81165
20
-3.5338
11
8.84689
21
-3.5301
0
LINE
8
BLACK
6
CONTINUOUS
10
8.84689
20
-3.5301
11
8.85183
21
-3.57708
0
LINE
8
BLACK
6
CONTINUOUS
10
8.98104
20
-3.5635
11
8.9458
21
-3.56721
0
LINE
8
BLACK
6
CONTINUOUS
10
8.9458
20
-3.56721
11
8.94086
21
-3.52022
0
LINE
8
BLACK
6
CONTINUOUS
10
8.94086
20
-3.52022
11
8.9761
21
-3.51652
0
LINE
8
BLACK
6
CONTINUOUS
10
8.9761
20
-3.51652
11
8.98104
21
-3.5635
0
LINE
8
BLACK
6
CONTINUOUS
10
8.08782
20
-3.53827
11
8.05292
21
-3.54442
0
LINE
8
BLACK
6
CONTINUOUS
10
8.05292
20
-3.54442
11
8.04472
21
-3.49789
0
LINE
8
BLACK
6
CONTINUOUS
10
8.04472
20
-3.49789
11
8.07962
21
-3.49174
0
LINE
8
BLACK
6
CONTINUOUS
10
8.07962
20
-3.49174
11
8.08782
21
-3.53827
0
LINE
8
BLACK
6
CONTINUOUS
10
8.21577
20
-3.51571
11
8.18087
21
-3.52186
0
LINE
8
BLACK
6
CONTINUOUS
10
8.18087
20
-3.52186
11
8.17267
21
-3.47533
0
LINE
8
BLACK
6
CONTINUOUS
10
8.17267
20
-3.47533
11
8.20756
21
-3.46918
0
LINE
8
BLACK
6
CONTINUOUS
10
8.20756
20
-3.46918
11
8.21577
21
-3.51571
0
LINE
8
BLACK
6
CONTINUOUS
10
5.23803
20
-3.46518
11
5.22821
21
-3.51139
0
LINE
8
BLACK
6
CONTINUOUS
10
5.22821
20
-3.51139
11
5.19355
21
-3.50402
0
LINE
8
BLACK
6
CONTINUOUS
10
5.19355
20
-3.50402
11
5.20337
21
-3.45781
0
LINE
8
BLACK
6
CONTINUOUS
10
5.20337
20
-3.45781
11
5.23803
21
-3.46518
0
LINE
8
BLACK
6
CONTINUOUS
10
5.11095
20
-3.43816
11
5.10113
21
-3.48438
0
LINE
8
BLACK
6
CONTINUOUS
10
5.10113
20
-3.48438
11
5.06647
21
-3.47701
0
LINE
8
BLACK
6
CONTINUOUS
10
5.06647
20
-3.47701
11
5.07629
21
-3.4308
0
LINE
8
BLACK
6
CONTINUOUS
10
5.07629
20
-3.4308
11
5.11095
21
-3.43816
0
LINE
8
BLACK
6
CONTINUOUS
10
7.02739
20
-3.45795
11
6.92727
21
-3.47923
0
LINE
8
BLACK
6
CONTINUOUS
10
6.92727
20
-3.47923
11
6.90598
21
-3.37911
0
LINE
8
BLACK
6
CONTINUOUS
10
6.90598
20
-3.37911
11
7.00611
21
-3.35783
0
LINE
8
BLACK
6
CONTINUOUS
10
7.00611
20
-3.35783
11
7.02739
21
-3.45795
0
LINE
8
BLACK
6
CONTINUOUS
10
7.49019
20
-3.44813
11
7.39006
21
-3.46941
0
LINE
8
BLACK
6
CONTINUOUS
10
7.39006
20
-3.46941
11
7.36878
21
-3.36929
0
LINE
8
BLACK
6
CONTINUOUS
10
7.36878
20
-3.36929
11
7.4689
21
-3.348
0
LINE
8
BLACK
6
CONTINUOUS
10
7.4689
20
-3.348
11
7.49019
21
-3.44813
0
LINE
8
BLACK
6
CONTINUOUS
10
4.11559
20
-3.32514
11
4.09431
21
-3.42527
0
LINE
8
BLACK
6
CONTINUOUS
10
4.09431
20
-3.42527
11
3.99418
21
-3.40399
0
LINE
8
BLACK
6
CONTINUOUS
10
3.99418
20
-3.40399
11
4.01547
21
-3.30386
0
LINE
8
BLACK
6
CONTINUOUS
10
4.01547
20
-3.30386
11
4.11559
21
-3.32514
0
LINE
8
BLACK
6
CONTINUOUS
10
6.58469
20
-3.39705
11
6.55003
21
-3.40442
0
LINE
8
BLACK
6
CONTINUOUS
10
6.55003
20
-3.40442
11
6.54021
21
-3.35821
0
LINE
8
BLACK
6
CONTINUOUS
10
6.54021
20
-3.35821
11
6.57487
21
-3.35084
0
LINE
8
BLACK
6
CONTINUOUS
10
6.57487
20
-3.35084
11
6.58469
21
-3.39705
0
LINE
8
BLACK
6
CONTINUOUS
10
6.71177
20
-3.37004
11
6.67711
21
-3.37741
0
LINE
8
BLACK
6
CONTINUOUS
10
6.67711
20
-3.37741
11
6.66729
21
-3.3312
0
LINE
8
BLACK
6
CONTINUOUS
10
6.66729
20
-3.3312
11
6.70195
21
-3.32383
0
LINE
8
BLACK
6
CONTINUOUS
10
6.70195
20
-3.32383
11
6.71177
21
-3.37004
0
LINE
8
BLACK
6
CONTINUOUS
10
9.79725
20
-3.36574
11
9.69489
21
-3.36574
0
LINE
8
BLACK
6
CONTINUOUS
10
9.69489
20
-3.36574
11
9.69489
21
-3.26338
0
LINE
8
BLACK
6
CONTINUOUS
10
9.69489
20
-3.26338
11
9.79725
21
-3.26338
0
LINE
8
BLACK
6
CONTINUOUS
10
9.79725
20
-3.26338
11
9.79725
21
-3.36574
0
LINE
8
BLACK
6
CONTINUOUS
10
2.23028
20
-3.36542
11
2.12792
21
-3.36542
0
LINE
8
BLACK
6
CONTINUOUS
10
2.12792
20
-3.36542
11
2.12792
21
-3.26306
0
LINE
8
BLACK
6
CONTINUOUS
10
2.12792
20
-3.26306
11
2.23028
21
-3.26306
0
LINE
8
BLACK
6
CONTINUOUS
10
2.23028
20
-3.26306
11
2.23028
21
-3.36542
0
LINE
8
BLACK
6
CONTINUOUS
10
3.84345
20
-3.19234
11
3.82567
21
-3.29315
0
LINE
8
BLACK
6
CONTINUOUS
10
3.82567
20
-3.29315
11
3.72487
21
-3.27537
0
LINE
8
BLACK
6
CONTINUOUS
10
3.72487
20
-3.27537
11
3.74264
21
-3.17456
0
LINE
8
BLACK
6
CONTINUOUS
10
3.74264
20
-3.17456
11
3.84345
21
-3.19234
0
LINE
8
BLACK
6
CONTINUOUS
10
3.05376
20
-3.18598
11
3.04306
21
-3.28778
0
LINE
8
BLACK
6
CONTINUOUS
10
3.04306
20
-3.28778
11
2.94125
21
-3.27708
0
LINE
8
BLACK
6
CONTINUOUS
10
2.94125
20
-3.27708
11
2.95195
21
-3.17528
0
LINE
8
BLACK
6
CONTINUOUS
10
2.95195
20
-3.17528
11
3.05376
21
-3.18598
0
LINE
8
BLACK
6
CONTINUOUS
10
4.56122
20
-3.24085
11
4.5514
21
-3.28706
0
LINE
8
BLACK
6
CONTINUOUS
10
4.5514
20
-3.28706
11
4.51674
21
-3.27969
0
LINE
8
BLACK
6
CONTINUOUS
10
4.51674
20
-3.27969
11
4.52656
21
-3.23348
0
LINE
8
BLACK
6
CONTINUOUS
10
4.52656
20
-3.23348
11
4.56122
21
-3.24085
0
LINE
8
BLACK
6
CONTINUOUS
10
9.34253
20
-3.27912
11
9.24016
21
-3.27912
0
LINE
8
BLACK
6
CONTINUOUS
10
9.24016
20
-3.27912
11
9.24016
21
-3.17676
0
LINE
8
BLACK
6
CONTINUOUS
10
9.24016
20
-3.17676
11
9.34253
21
-3.17676
0
LINE
8
BLACK
6
CONTINUOUS
10
9.34253
20
-3.17676
11
9.34253
21
-3.27912
0
LINE
8
BLACK
6
CONTINUOUS
10
1.77556
20
-3.27881
11
1.6732
21
-3.27881
0
LINE
8
BLACK
6
CONTINUOUS
10
1.6732
20
-3.27881
11
1.6732
21
-3.17645
0
LINE
8
BLACK
6
CONTINUOUS
10
1.6732
20
-3.17645
11
1.77556
21
-3.17645
0
LINE
8
BLACK
6
CONTINUOUS
10
1.77556
20
-3.17645
11
1.77556
21
-3.27881
0
LINE
8
BLACK
6
CONTINUOUS
10
4.43414
20
-3.21383
11
4.42432
21
-3.26005
0
LINE
8
BLACK
6
CONTINUOUS
10
4.42432
20
-3.26005
11
4.38966
21
-3.25268
0
LINE
8
BLACK
6
CONTINUOUS
10
4.38966
20
-3.25268
11
4.39948
21
-3.20647
0
LINE
8
BLACK
6
CONTINUOUS
10
4.39948
20
-3.20647
11
4.43414
21
-3.21383
0
LINE
8
BLACK
6
CONTINUOUS
10
8.98047
20
-3.20932
11
8.87867
21
-3.22002
0
LINE
8
BLACK
6
CONTINUOUS
10
8.87867
20
-3.22002
11
8.86797
21
-3.11822
0
LINE
8
BLACK
6
CONTINUOUS
10
8.86797
20
-3.11822
11
8.96977
21
-3.10752
0
LINE
8
BLACK
6
CONTINUOUS
10
8.96977
20
-3.10752
11
8.98047
21
-3.20932
0
LINE
8
BLACK
6
CONTINUOUS
10
8.51918
20
-3.17071
11
8.41738
21
-3.18141
0
LINE
8
BLACK
6
CONTINUOUS
10
8.41738
20
-3.18141
11
8.40668
21
-3.07961
0
LINE
8
BLACK
6
CONTINUOUS
10
8.40668
20
-3.07961
11
8.50848
21
-3.06891
0
LINE
8
BLACK
6
CONTINUOUS
10
8.50848
20
-3.06891
11
8.51918
21
-3.17071
0
LINE
8
BLACK
6
CONTINUOUS
10
8.19041
20
-3.1626
11
8.0896
21
-3.18038
0
LINE
8
BLACK
6
CONTINUOUS
10
8.0896
20
-3.18038
11
8.07183
21
-3.07957
0
LINE
8
BLACK
6
CONTINUOUS
10
8.07183
20
-3.07957
11
8.17264
21
-3.06179
0
LINE
8
BLACK
6
CONTINUOUS
10
8.17264
20
-3.06179
11
8.19041
21
-3.1626
0
LINE
8
BLACK
6
CONTINUOUS
10
7.26158
20
-3.17256
11
7.22692
21
-3.17993
0
LINE
8
BLACK
6
CONTINUOUS
10
7.22692
20
-3.17993
11
7.2171
21
-3.13372
0
LINE
8
BLACK
6
CONTINUOUS
10
7.2171
20
-3.13372
11
7.25176
21
-3.12635
0
LINE
8
BLACK
6
CONTINUOUS
10
7.25176
20
-3.12635
11
7.26158
21
-3.17256
0
LINE
8
BLACK
6
CONTINUOUS
10
5.35822
20
-3.07423
11
5.33693
21
-3.17436
0
LINE
8
BLACK
6
CONTINUOUS
10
5.33693
20
-3.17436
11
5.23681
21
-3.15307
0
LINE
8
BLACK
6
CONTINUOUS
10
5.23681
20
-3.15307
11
5.25809
21
-3.05295
0
LINE
8
BLACK
6
CONTINUOUS
10
5.25809
20
-3.05295
11
5.35822
21
-3.07423
0
LINE
8
BLACK
6
CONTINUOUS
10
7.72755
20
-3.15626
11
7.62675
21
-3.17404
0
LINE
8
BLACK
6
CONTINUOUS
10
7.62675
20
-3.17404
11
7.60897
21
-3.07323
0
LINE
8
BLACK
6
CONTINUOUS
10
7.60897
20
-3.07323
11
7.70978
21
-3.05546
0
LINE
8
BLACK
6
CONTINUOUS
10
7.70978
20
-3.05546
11
7.72755
21
-3.15626
0
LINE
8
BLACK
6
CONTINUOUS
10
2.61058
20
-3.05231
11
2.59988
21
-3.15411
0
LINE
8
BLACK
6
CONTINUOUS
10
2.59988
20
-3.15411
11
2.49808
21
-3.14341
0
LINE
8
BLACK
6
CONTINUOUS
10
2.49808
20
-3.14341
11
2.50877
21
-3.04161
0
LINE
8
BLACK
6
CONTINUOUS
10
2.50877
20
-3.04161
11
2.61058
21
-3.05231
0
LINE
8
BLACK
6
CONTINUOUS
10
7.38866
20
-3.14555
11
7.354
21
-3.15292
0
LINE
8
BLACK
6
CONTINUOUS
10
7.354
20
-3.15292
11
7.34418
21
-3.10671
0
LINE
8
BLACK
6
CONTINUOUS
10
7.34418
20
-3.10671
11
7.37884
21
-3.09934
0
LINE
8
BLACK
6
CONTINUOUS
10
7.37884
20
-3.09934
11
7.38866
21
-3.14555
0
LINE
8
BLACK
6
CONTINUOUS
10
3.41067
20
-3.02808
11
3.3929
21
-3.12889
0
LINE
8
BLACK
6
CONTINUOUS
10
3.3929
20
-3.12889
11
3.29209
21
-3.11111
0
LINE
8
BLACK
6
CONTINUOUS
10
3.29209
20
-3.11111
11
3.30986
21
-3.0103
0
LINE
8
BLACK
6
CONTINUOUS
10
3.30986
20
-3.0103
11
3.41067
21
-3.02808
0
LINE
8
BLACK
6
CONTINUOUS
10
6.21135
20
-3.02762
11
6.11122
21
-3.0489
0
LINE
8
BLACK
6
CONTINUOUS
10
6.11122
20
-3.0489
11
6.08994
21
-2.94877
0
LINE
8
BLACK
6
CONTINUOUS
10
6.08994
20
-2.94877
11
6.19007
21
-2.92749
0
LINE
8
BLACK
6
CONTINUOUS
10
6.19007
20
-2.92749
11
6.21135
21
-3.02762
0
LINE
8
BLACK
6
CONTINUOUS
10
9.76079
20
-3.04857
11
9.72536
21
-3.04857
0
LINE
8
BLACK
6
CONTINUOUS
10
9.72536
20
-3.04857
11
9.72536
21
-3.00133
0
LINE
8
BLACK
6
CONTINUOUS
10
9.72536
20
-3.00133
11
9.76079
21
-3.00133
0
LINE
8
BLACK
6
CONTINUOUS
10
9.76079
20
-3.00133
11
9.76079
21
-3.04857
0
LINE
8
BLACK
6
CONTINUOUS
10
9.63087
20
-3.04857
11
9.59544
21
-3.04857
0
LINE
8
BLACK
6
CONTINUOUS
10
9.59544
20
-3.04857
11
9.59544
21
-3.00133
0
LINE
8
BLACK
6
CONTINUOUS
10
9.59544
20
-3.00133
11
9.63087
21
-3.00133
0
LINE
8
BLACK
6
CONTINUOUS
10
9.63087
20
-3.00133
11
9.63087
21
-3.04857
0
LINE
8
BLACK
6
CONTINUOUS
10
2.06422
20
-3.04842
11
2.02879
21
-3.04842
0
LINE
8
BLACK
6
CONTINUOUS
10
2.02879
20
-3.04842
11
2.02879
21
-3.00117
0
LINE
8
BLACK
6
CONTINUOUS
10
2.02879
20
-3.00117
11
2.06422
21
-3.00117
0
LINE
8
BLACK
6
CONTINUOUS
10
2.06422
20
-3.00117
11
2.06422
21
-3.04842
0
LINE
8
BLACK
6
CONTINUOUS
10
2.19414
20
-3.04842
11
2.15871
21
-3.04842
0
LINE
8
BLACK
6
CONTINUOUS
10
2.15871
20
-3.04842
11
2.15871
21
-3.00117
0
LINE
8
BLACK
6
CONTINUOUS
10
2.15871
20
-3.00117
11
2.19414
21
-3.00117
0
LINE
8
BLACK
6
CONTINUOUS
10
2.19414
20
-3.00117
11
2.19414
21
-3.04842
0
LINE
8
BLACK
6
CONTINUOUS
10
6.67414
20
-3.0178
11
6.57402
21
-3.03908
0
LINE
8
BLACK
6
CONTINUOUS
10
6.57402
20
-3.03908
11
6.55274
21
-2.93895
0
LINE
8
BLACK
6
CONTINUOUS
10
6.55274
20
-2.93895
11
6.65286
21
-2.91767
0
LINE
8
BLACK
6
CONTINUOUS
10
6.65286
20
-2.91767
11
6.67414
21
-3.0178
0
LINE
8
BLACK
6
CONTINUOUS
10
4.93144
20
-2.89497
11
4.91015
21
-2.99509
0
LINE
8
BLACK
6
CONTINUOUS
10
4.91015
20
-2.99509
11
4.81003
21
-2.97381
0
LINE
8
BLACK
6
CONTINUOUS
10
4.81003
20
-2.97381
11
4.83131
21
-2.87368
0
LINE
8
BLACK
6
CONTINUOUS
10
4.83131
20
-2.87368
11
4.93144
21
-2.89497
0
LINE
8
BLACK
6
CONTINUOUS
10
3.85301
20
-2.92809
11
3.84481
21
-2.97462
0
LINE
8
BLACK
6
CONTINUOUS
10
3.84481
20
-2.97462
11
3.80991
21
-2.96847
0
LINE
8
BLACK
6
CONTINUOUS
10
3.80991
20
-2.96847
11
3.81812
21
-2.92194
0
LINE
8
BLACK
6
CONTINUOUS
10
3.81812
20
-2.92194
11
3.85301
21
-2.92809
0
LINE
8
BLACK
6
CONTINUOUS
10
3.04494
20
-2.92164
11
3.04
21
-2.96862
0
LINE
8
BLACK
6
CONTINUOUS
10
3.04
20
-2.96862
11
3.00476
21
-2.96492
0
LINE
8
BLACK
6
CONTINUOUS
10
3.00476
20
-2.96492
11
3.0097
21
-2.91793
0
LINE
8
BLACK
6
CONTINUOUS
10
3.0097
20
-2.91793
11
3.04494
21
-2.92164
0
LINE
8
BLACK
6
CONTINUOUS
10
2.91573
20
-2.90806
11
2.91079
21
-2.95504
0
LINE
8
BLACK
6
CONTINUOUS
10
2.91079
20
-2.95504
11
2.87555
21
-2.95134
0
LINE
8
BLACK
6
CONTINUOUS
10
2.87555
20
-2.95134
11
2.88049
21
-2.90435
0
LINE
8
BLACK
6
CONTINUOUS
10
2.88049
20
-2.90435
11
2.91573
21
-2.90806
0
LINE
8
BLACK
6
CONTINUOUS
10
3.72506
20
-2.90553
11
3.71686
21
-2.95206
0
LINE
8
BLACK
6
CONTINUOUS
10
3.71686
20
-2.95206
11
3.68196
21
-2.9459
0
LINE
8
BLACK
6
CONTINUOUS
10
3.68196
20
-2.9459
11
3.69017
21
-2.89938
0
LINE
8
BLACK
6
CONTINUOUS
10
3.69017
20
-2.89938
11
3.72506
21
-2.90553
0
LINE
8
BLACK
6
CONTINUOUS
10
4.68152
20
-2.84974
11
4.66024
21
-2.94987
0
LINE
8
BLACK
6
CONTINUOUS
10
4.66024
20
-2.94987
11
4.56012
21
-2.92859
0
LINE
8
BLACK
6
CONTINUOUS
10
4.56012
20
-2.92859
11
4.5814
21
-2.82846
0
LINE
8
BLACK
6
CONTINUOUS
10
4.5814
20
-2.82846
11
4.68152
21
-2.84974
0
LINE
8
BLACK
6
CONTINUOUS
10
8.78191
20
-2.91133
11
8.74667
21
-2.91504
0
LINE
8
BLACK
6
CONTINUOUS
10
8.74667
20
-2.91504
11
8.74173
21
-2.86805
0
LINE
8
BLACK
6
CONTINUOUS
10
8.74173
20
-2.86805
11
8.77697
21
-2.86435
0
LINE
8
BLACK
6
CONTINUOUS
10
8.77697
20
-2.86435
11
8.78191
21
-2.91133
0
LINE
8
BLACK
6
CONTINUOUS
10
8.91112
20
-2.89775
11
8.87588
21
-2.90146
0
LINE
8
BLACK
6
CONTINUOUS
10
8.87588
20
-2.90146
11
8.87094
21
-2.85447
0
LINE
8
BLACK
6
CONTINUOUS
10
8.87094
20
-2.85447
11
8.90618
21
-2.85077
0
LINE
8
BLACK
6
CONTINUOUS
10
8.90618
20
-2.85077
11
8.91112
21
-2.89775
0
LINE
8
BLACK
6
CONTINUOUS
10
7.97164
20
-2.87921
11
7.93674
21
-2.88537
0
LINE
8
BLACK
6
CONTINUOUS
10
7.93674
20
-2.88537
11
7.92854
21
-2.83884
0
LINE
8
BLACK
6
CONTINUOUS
10
7.92854
20
-2.83884
11
7.96343
21
-2.83269
0
LINE
8
BLACK
6
CONTINUOUS
10
7.96343
20
-2.83269
11
7.97164
21
-2.87921
0
LINE
8
BLACK
6
CONTINUOUS
10
8.09959
20
-2.85665
11
8.06469
21
-2.86281
0
LINE
8
BLACK
6
CONTINUOUS
10
8.06469
20
-2.86281
11
8.05649
21
-2.81628
0
LINE
8
BLACK
6
CONTINUOUS
10
8.05649
20
-2.81628
11
8.09138
21
-2.81013
0
LINE
8
BLACK
6
CONTINUOUS
10
8.09138
20
-2.81013
11
8.09959
21
-2.85665
0
LINE
8
BLACK
6
CONTINUOUS
10
6.88824
20
-2.80329
11
6.78811
21
-2.82457
0
LINE
8
BLACK
6
CONTINUOUS
10
6.78811
20
-2.82457
11
6.76683
21
-2.72444
0
LINE
8
BLACK
6
CONTINUOUS
10
6.76683
20
-2.72444
11
6.86696
21
-2.70316
0
LINE
8
BLACK
6
CONTINUOUS
10
6.86696
20
-2.70316
11
6.88824
21
-2.80329
0
LINE
8
BLACK
6
CONTINUOUS
10
7.35103
20
-2.79346
11
7.25091
21
-2.81475
0
LINE
8
BLACK
6
CONTINUOUS
10
7.25091
20
-2.81475
11
7.22963
21
-2.71462
0
LINE
8
BLACK
6
CONTINUOUS
10
7.22963
20
-2.71462
11
7.32975
21
-2.69334
0
LINE
8
BLACK
6
CONTINUOUS
10
7.32975
20
-2.69334
11
7.35103
21
-2.79346
0
LINE
8
BLACK
6
CONTINUOUS
10
4.25474
20
-2.67048
11
4.23346
21
-2.7706
0
LINE
8
BLACK
6
CONTINUOUS
10
4.23346
20
-2.7706
11
4.13334
21
-2.74932
0
LINE
8
BLACK
6
CONTINUOUS
10
4.13334
20
-2.74932
11
4.15462
21
-2.6492
0
LINE
8
BLACK
6
CONTINUOUS
10
4.15462
20
-2.6492
11
4.25474
21
-2.67048
0
LINE
8
BLACK
6
CONTINUOUS
10
9.79725
20
-2.69645
11
9.69489
21
-2.69645
0
LINE
8
BLACK
6
CONTINUOUS
10
9.69489
20
-2.69645
11
9.69489
21
-2.59408
0
LINE
8
BLACK
6
CONTINUOUS
10
9.69489
20
-2.59408
11
9.79725
21
-2.59408
0
LINE
8
BLACK
6
CONTINUOUS
10
9.79725
20
-2.59408
11
9.79725
21
-2.69645
0
LINE
8
BLACK
6
CONTINUOUS
10
2.23028
20
-2.69613
11
2.12792
21
-2.69613
0
LINE
8
BLACK
6
CONTINUOUS
10
2.12792
20
-2.69613
11
2.12792
21
-2.59377
0
LINE
8
BLACK
6
CONTINUOUS
10
2.12792
20
-2.59377
11
2.23028
21
-2.59377
0
LINE
8
BLACK
6
CONTINUOUS
10
2.23028
20
-2.59377
11
2.23028
21
-2.69613
0
LINE
8
BLACK
6
CONTINUOUS
10
3.95967
20
-2.53321
11
3.94189
21
-2.63402
0
LINE
8
BLACK
6
CONTINUOUS
10
3.94189
20
-2.63402
11
3.84109
21
-2.61625
0
LINE
8
BLACK
6
CONTINUOUS
10
3.84109
20
-2.61625
11
3.85886
21
-2.51544
0
LINE
8
BLACK
6
CONTINUOUS
10
3.85886
20
-2.51544
11
3.95967
21
-2.53321
0
LINE
8
BLACK
6
CONTINUOUS
10
3.12372
20
-2.52035
11
3.11302
21
-2.62216
0
LINE
8
BLACK
6
CONTINUOUS
10
3.11302
20
-2.62216
11
3.01121
21
-2.61146
0
LINE
8
BLACK
6
CONTINUOUS
10
3.01121
20
-2.61146
11
3.02191
21
-2.50965
0
LINE
8
BLACK
6
CONTINUOUS
10
3.02191
20
-2.50965
11
3.12372
21
-2.52035
0
LINE
8
BLACK
6
CONTINUOUS
10
9.34253
20
-2.60983
11
9.24016
21
-2.60983
0
LINE
8
BLACK
6
CONTINUOUS
10
9.24016
20
-2.60983
11
9.24016
21
-2.50747
0
LINE
8
BLACK
6
CONTINUOUS
10
9.24016
20
-2.50747
11
9.34253
21
-2.50747
0
LINE
8
BLACK
6
CONTINUOUS
10
9.34253
20
-2.50747
11
9.34253
21
-2.60983
0
LINE
8
BLACK
6
CONTINUOUS
10
1.77556
20
-2.60952
11
1.6732
21
-2.60952
0
LINE
8
BLACK
6
CONTINUOUS
10
1.6732
20
-2.60952
11
1.6732
21
-2.50716
0
LINE
8
BLACK
6
CONTINUOUS
10
1.6732
20
-2.50716
11
1.77556
21
-2.50716
0
LINE
8
BLACK
6
CONTINUOUS
10
1.77556
20
-2.50716
11
1.77556
21
-2.60952
0
LINE
8
BLACK
6
CONTINUOUS
10
8.91051
20
-2.5437
11
8.80871
21
-2.5544
0
LINE
8
BLACK
6
CONTINUOUS
10
8.80871
20
-2.5544
11
8.79801
21
-2.4526
0
LINE
8
BLACK
6
CONTINUOUS
10
8.79801
20
-2.4526
11
8.89981
21
-2.4419
0
LINE
8
BLACK
6
CONTINUOUS
10
8.89981
20
-2.4419
11
8.91051
21
-2.5437
0
LINE
8
BLACK
6
CONTINUOUS
10
8.07419
20
-2.50348
11
7.97338
21
-2.52125
0
LINE
8
BLACK
6
CONTINUOUS
10
7.97338
20
-2.52125
11
7.95561
21
-2.42045
0
LINE
8
BLACK
6
CONTINUOUS
10
7.95561
20
-2.42045
11
8.05641
21
-2.40267
0
LINE
8
BLACK
6
CONTINUOUS
10
8.05641
20
-2.40267
11
8.07419
21
-2.50348
0
LINE
8
BLACK
6
CONTINUOUS
10
8.44922
20
-2.50509
11
8.34742
21
-2.51579
0
LINE
8
BLACK
6
CONTINUOUS
10
8.34742
20
-2.51579
11
8.33672
21
-2.41399
0
LINE
8
BLACK
6
CONTINUOUS
10
8.33672
20
-2.41399
11
8.43852
21
-2.40329
0
LINE
8
BLACK
6
CONTINUOUS
10
8.43852
20
-2.40329
11
8.44922
21
-2.50509
0
LINE
8
BLACK
6
CONTINUOUS
10
7.61133
20
-2.49714
11
7.51053
21
-2.51492
0
LINE
8
BLACK
6
CONTINUOUS
10
7.51053
20
-2.51492
11
7.49275
21
-2.41411
0
LINE
8
BLACK
6
CONTINUOUS
10
7.49275
20
-2.41411
11
7.59356
21
-2.39633
0
LINE
8
BLACK
6
CONTINUOUS
10
7.59356
20
-2.39633
11
7.61133
21
-2.49714
0
LINE
8
BLACK
6
CONTINUOUS
10
2.68054
20
-2.38668
11
2.66984
21
-2.48848
0
LINE
8
BLACK
6
CONTINUOUS
10
2.66984
20
-2.48848
11
2.56804
21
-2.47778
0
LINE
8
BLACK
6
CONTINUOUS
10
2.56804
20
-2.47778
11
2.57873
21
-2.37598
0
LINE
8
BLACK
6
CONTINUOUS
10
2.57873
20
-2.37598
11
2.68054
21
-2.38668
0
LINE
8
BLACK
6
CONTINUOUS
10
3.52689
20
-2.36895
11
3.50912
21
-2.46976
0
LINE
8
BLACK
6
CONTINUOUS
10
3.50912
20
-2.46976
11
3.40831
21
-2.45199
0
LINE
8
BLACK
6
CONTINUOUS
10
3.40831
20
-2.45199
11
3.42609
21
-2.35118
0
LINE
8
BLACK
6
CONTINUOUS
10
3.42609
20
-2.35118
11
3.52689
21
-2.36895
0
LINE
8
BLACK
6
CONTINUOUS
10
4.71219
20
-2.1564
11
4.68463
21
-2.1564
0
LINE
8
BLACK
6
CONTINUOUS
10
4.68463
20
-2.1564
11
4.68463
21
-2.09735
0
LINE
8
BLACK
6
CONTINUOUS
10
4.68463
20
-2.09735
11
4.71219
21
-2.09735
0
LINE
8
BLACK
6
CONTINUOUS
10
4.71219
20
-2.09735
11
4.71219
21
-2.1564
0
LINE
8
BLACK
6
CONTINUOUS
10
4.59408
20
-2.1564
11
4.56652
21
-2.1564
0
LINE
8
BLACK
6
CONTINUOUS
10
4.56652
20
-2.1564
11
4.56652
21
-2.09735
0
LINE
8
BLACK
6
CONTINUOUS
10
4.56652
20
-2.09735
11
4.59408
21
-2.09735
0
LINE
8
BLACK
6
CONTINUOUS
10
4.59408
20
-2.09735
11
4.59408
21
-2.1564
0
LINE
8
BLACK
6
CONTINUOUS
10
4.77124
20
-2.1564
11
4.74368
21
-2.1564
0
LINE
8
BLACK
6
CONTINUOUS
10
4.74368
20
-2.1564
11
4.74368
21
-2.09735
0
LINE
8
BLACK
6
CONTINUOUS
10
4.74368
20
-2.09735
11
4.77124
21
-2.09735
0
LINE
8
BLACK
6
CONTINUOUS
10
4.77124
20
-2.09735
11
4.77124
21
-2.1564
0
LINE
8
BLACK
6
CONTINUOUS
10
4.54486
20
-2.11703
11
4.50549
21
-2.11703
0
LINE
8
BLACK
6
CONTINUOUS
10
4.50549
20
-2.11703
11
4.50549
21
-2.08553
0
LINE
8
BLACK
6
CONTINUOUS
10
4.50549
20
-2.08553
11
4.54486
21
-2.08553
0
LINE
8
BLACK
6
CONTINUOUS
10
4.54486
20
-2.08553
11
4.54486
21
-2.11703
0
LINE
8
BLACK
6
CONTINUOUS
10
4.83227
20
-2.11703
11
4.7929
21
-2.11703
0
LINE
8
BLACK
6
CONTINUOUS
10
4.7929
20
-2.11703
11
4.7929
21
-2.08553
0
LINE
8
BLACK
6
CONTINUOUS
10
4.7929
20
-2.08553
11
4.83227
21
-2.08553
0
LINE
8
BLACK
6
CONTINUOUS
10
4.83227
20
-2.08553
11
4.83227
21
-2.11703
0
LINE
8
BLACK
6
CONTINUOUS
10
4.83227
20
-2.03002
11
4.7929
21
-2.03002
0
LINE
8
BLACK
6
CONTINUOUS
10
4.7929
20
-2.03002
11
4.7929
21
-1.99853
0
LINE
8
BLACK
6
CONTINUOUS
10
4.7929
20
-1.99853
11
4.83227
21
-1.99853
0
LINE
8
BLACK
6
CONTINUOUS
10
4.83227
20
-1.99853
11
4.83227
21
-2.03002
0
LINE
8
BLACK
6
CONTINUOUS
10
4.54486
20
-2.03002
11
4.50549
21
-2.03002
0
LINE
8
BLACK
6
CONTINUOUS
10
4.50549
20
-2.03002
11
4.50549
21
-1.99853
0
LINE
8
BLACK
6
CONTINUOUS
10
4.50549
20
-1.99853
11
4.54486
21
-1.99853
0
LINE
8
BLACK
6
CONTINUOUS
10
4.54486
20
-1.99853
11
4.54486
21
-2.03002
  0
ENDSEC
  0
EOF
