G04 #@! TF.GenerationSoftware,KiCad,Pcbnew,(6.0.4-0)*
G04 #@! TF.CreationDate,2022-11-11T23:09:08+01:00*
G04 #@! TF.ProjectId,The-ENDGAME-MX-BAD,5468652d-454e-4444-9741-4d452d4d582d,0_1*
G04 #@! TF.SameCoordinates,Original*
G04 #@! TF.FileFunction,Profile,NP*
%FSLAX46Y46*%
G04 Gerber Fmt 4.6, Leading zero omitted, Abs format (unit mm)*
G04 Created by KiCad (PCBNEW (6.0.4-0)) date 2022-11-11 23:09:08*
%MOMM*%
%LPD*%
G01*
G04 APERTURE LIST*
G04 #@! TA.AperFunction,Profile*
%ADD10C,0.150000*%
G04 #@! TD*
G04 APERTURE END LIST*
D10*
X233555000Y-49893359D02*
X233555000Y-45143359D01*
X183066255Y-63374837D02*
G75*
G03*
X183178921Y-63306563I-41655J195837D01*
G01*
X241875194Y-49893307D02*
G75*
G03*
X241632658Y-50203993I106J-250093D01*
G01*
X163099896Y-154086557D02*
G75*
G03*
X163307807Y-154064709I4J1000157D01*
G01*
X108853955Y-123606299D02*
G75*
G03*
X108951305Y-123658086I138945J143799D01*
G01*
X47995388Y-44893379D02*
G75*
G03*
X47510317Y-45272091I12J-500021D01*
G01*
X208605472Y-57220058D02*
X201589334Y-54909093D01*
X228055000Y-145947000D02*
X227382658Y-143257634D01*
X135602596Y-72276382D02*
G75*
G03*
X135810506Y-71298240I103904J489082D01*
G01*
X249497888Y-50186257D02*
G75*
G03*
X248790786Y-49893359I-707088J-707043D01*
G01*
X135782658Y-52582725D02*
X136377342Y-50203993D01*
X242227336Y-143257632D02*
G75*
G03*
X241984806Y-142947000I-242536J60632D01*
G01*
X50355000Y-150697000D02*
X50355000Y-145947000D01*
X143205000Y-71787314D02*
X145631293Y-71787314D01*
X136025194Y-151086561D02*
X137009806Y-151086561D01*
X136134806Y-154086616D02*
G75*
G03*
X136377342Y-153775927I-6J250016D01*
G01*
X45652336Y-143136368D02*
G75*
G03*
X45409806Y-142947000I-242536J-60632D01*
G01*
X231844600Y-60301762D02*
X246205000Y-60301762D01*
X74707972Y-112808880D02*
X89411427Y-115401496D01*
X134624447Y-72068476D02*
X120552778Y-69077450D01*
X35205000Y-52307573D02*
X35205000Y-143532787D01*
X214542112Y-113709237D02*
G75*
G03*
X214624958Y-113717972I61888J189737D01*
G01*
X55214612Y-150947011D02*
G75*
G03*
X55699683Y-150568268I-12J500011D01*
G01*
X35497893Y-144239893D02*
X36912107Y-145654107D01*
X236305000Y-150947000D02*
X238414612Y-150947000D01*
X150807405Y-72276387D02*
X151785553Y-72068476D01*
X168097879Y-65565241D02*
X165466145Y-68107156D01*
X236055000Y-145947000D02*
G75*
G03*
X233555000Y-145947000I-1250000J0D01*
G01*
X197285957Y-116379628D02*
X194675414Y-117942839D01*
X144455000Y-154086561D02*
X144455000Y-158836561D01*
X91734577Y-117942853D02*
G75*
G03*
X91795753Y-117966880I102723J171653D01*
G01*
X59027336Y-143257632D02*
G75*
G03*
X58784806Y-142947000I-242536J60632D01*
G01*
X232066438Y-115036417D02*
G75*
G03*
X232214315Y-115101762I147862J134617D01*
G01*
X137252365Y-151275921D02*
G75*
G03*
X137009806Y-151086561I-242565J-60679D01*
G01*
X187270290Y-58425176D02*
G75*
G03*
X187150784Y-58494839I34910J-197224D01*
G01*
X141705000Y-44893359D02*
X139595388Y-44893359D01*
X238414612Y-44893359D02*
X236305000Y-44893359D01*
X147299702Y-45272086D02*
G75*
G03*
X146814612Y-44893359I-485102J-121314D01*
G01*
X58784806Y-52893416D02*
G75*
G03*
X59027342Y-52582725I-6J250016D01*
G01*
X135602595Y-72276387D02*
X134624447Y-72068476D01*
X136705000Y-109086561D02*
X136705000Y-91188646D01*
X54637563Y-116101762D02*
X40205000Y-116101762D01*
X55699702Y-45272086D02*
G75*
G03*
X55214612Y-44893359I-485102J-121314D01*
G01*
X47510317Y-45272091D02*
X45652342Y-52703993D01*
X241000194Y-142946994D02*
G75*
G03*
X240757658Y-143136366I6J-250006D01*
G01*
X136377385Y-50204004D02*
G75*
G03*
X136134806Y-49893359I-242585J60604D01*
G01*
X137252342Y-151275927D02*
X139110317Y-158707829D01*
X229515393Y-112234917D02*
G75*
G03*
X229346617Y-112170663I-147893J-134683D01*
G01*
X52855000Y-45143359D02*
X52855000Y-49893359D01*
X126911253Y-127318637D02*
X124019102Y-126860565D01*
X106124845Y-121012622D02*
X91795753Y-117966880D01*
X117726317Y-66431986D02*
X103343737Y-63374874D01*
X44182713Y-52582739D02*
G75*
G03*
X44425194Y-52893359I242487J-60661D01*
G01*
X246205000Y-116101762D02*
X231772437Y-116101762D01*
X144705000Y-44893400D02*
G75*
G03*
X144455000Y-45143359I0J-250000D01*
G01*
X117823666Y-66483776D02*
G75*
G03*
X117726317Y-66431986I-138966J-143824D01*
G01*
X59027342Y-143257634D02*
X58432658Y-145636366D01*
X151577641Y-71090328D02*
X150599494Y-71298240D01*
X57557694Y-52703984D02*
G75*
G03*
X57800194Y-52893359I242506J60584D01*
G01*
X149157658Y-52703993D02*
X147299683Y-45272091D01*
X54637563Y-116101747D02*
G75*
G03*
X54785441Y-116036418I37J199947D01*
G01*
X144455000Y-45143359D02*
X144455000Y-49893359D01*
X123310104Y-154086561D02*
X136134806Y-154086561D01*
X214434877Y-114726014D02*
G75*
G03*
X214517722Y-114734751I61923J190014D01*
G01*
X55699683Y-150568268D02*
X57557658Y-143136366D01*
X63127268Y-56725460D02*
X54642795Y-60286180D01*
X47510328Y-150568265D02*
G75*
G03*
X47995388Y-150947000I485072J121265D01*
G01*
X136134806Y-49893359D02*
X58675194Y-49893359D01*
X149704996Y-91183922D02*
G75*
G03*
X149269893Y-87034829I-19999996J22D01*
G01*
X103892868Y-62469255D02*
X118214758Y-65513467D01*
X35205010Y-143532787D02*
G75*
G03*
X35497893Y-144239893I999990J-13D01*
G01*
X194304575Y-116999322D02*
X196930554Y-115426869D01*
X223282732Y-56725460D02*
X231767205Y-60286180D01*
X50355000Y-49893359D02*
X50355000Y-45143359D01*
X159342314Y-126330953D02*
G75*
G03*
X159498747Y-127318637I78186J-493847D01*
G01*
X177458698Y-123658100D02*
G75*
G03*
X177556058Y-123606312I-41698J195800D01*
G01*
X84894665Y-55937568D02*
X77913486Y-58237018D01*
X211798701Y-112815666D02*
G75*
G03*
X211702028Y-112808880I-61901J-189834D01*
G01*
X208579989Y-58245962D02*
X223184430Y-56710973D01*
X227625194Y-142947000D02*
X228609806Y-142947000D01*
X99139706Y-58425196D02*
X84991964Y-55930567D01*
X53105000Y-44893400D02*
G75*
G03*
X52855000Y-45143359I0J-250000D01*
G01*
X50355041Y-45143359D02*
G75*
G03*
X50105000Y-44893359I-250041J-41D01*
G01*
X248790786Y-49893359D02*
X241875194Y-49893359D01*
X197353975Y-116354255D02*
G75*
G03*
X197285957Y-116379628I34725J-196945D01*
G01*
X77721055Y-57228984D02*
G75*
G03*
X77804528Y-57220058I20945J198884D01*
G01*
X146814612Y-44893359D02*
X144705000Y-44893359D01*
X238414612Y-150947011D02*
G75*
G03*
X238899683Y-150568268I-12J500011D01*
G01*
X57800194Y-142946994D02*
G75*
G03*
X57557658Y-143136366I6J-250006D01*
G01*
X141955000Y-49893359D02*
X141955000Y-45143359D01*
X52855000Y-145947000D02*
X52855000Y-150697000D01*
X231624559Y-116036418D02*
X229116696Y-113282325D01*
X57293304Y-113282325D02*
X54785441Y-116036418D01*
X58675194Y-145947000D02*
X84806271Y-145947000D01*
X118312129Y-65565232D02*
G75*
G03*
X118214758Y-65513467I-138929J-143868D01*
G01*
X246205000Y-59301762D02*
X232045932Y-59301762D01*
X149705000Y-91183922D02*
X149705000Y-109086561D01*
X52855000Y-145947000D02*
G75*
G03*
X50355000Y-145947000I-1250000J0D01*
G01*
X136705000Y-109086561D02*
X136705000Y-143886561D01*
X168195245Y-65513482D02*
G75*
G03*
X168097879Y-65565241I41655J-195818D01*
G01*
X150384806Y-52893319D02*
G75*
G03*
X150627342Y-52582725I94J249919D01*
G01*
X54565400Y-60301757D02*
G75*
G03*
X54642795Y-60286180I0J200057D01*
G01*
X186733711Y-57504422D02*
G75*
G03*
X186614193Y-57574028I34689J-196978D01*
G01*
X144455000Y-154086561D02*
G75*
G03*
X141955000Y-154086561I-1250000J0D01*
G01*
X201492036Y-54902092D02*
X186733704Y-57504384D01*
X35497907Y-51600480D02*
G75*
G03*
X35205000Y-52307573I707093J-707120D01*
G01*
X250912093Y-144239879D02*
G75*
G03*
X251205000Y-143532787I-706993J707079D01*
G01*
X228609806Y-52893359D02*
X227625194Y-52893359D01*
X163307807Y-154064709D02*
X201395817Y-145968853D01*
X44534806Y-145947006D02*
G75*
G03*
X44777342Y-145636366I-6J250006D01*
G01*
X201589337Y-54909085D02*
G75*
G03*
X201492036Y-54902092I-62537J-189715D01*
G01*
X71867887Y-113709235D02*
X74611302Y-112815674D01*
X108853942Y-123606312D02*
X106222208Y-121064397D01*
X136905000Y-144086561D02*
X149505000Y-144086561D01*
X71892278Y-114734746D02*
G75*
G03*
X71975123Y-114726014I20922J198846D01*
G01*
X241875194Y-145947000D02*
X248790786Y-145947000D01*
X228609806Y-52893418D02*
G75*
G03*
X228852342Y-52703993I-106J250118D01*
G01*
X106710642Y-120145885D02*
G75*
G03*
X106613285Y-120094103I-138942J-143815D01*
G01*
X50105000Y-44893359D02*
X47995388Y-44893359D01*
X118312121Y-65565241D02*
X120943855Y-68107156D01*
X58784806Y-52893359D02*
X57800194Y-52893359D01*
X227625194Y-142946994D02*
G75*
G03*
X227382658Y-143257634I6J-250006D01*
G01*
X214624958Y-113717972D02*
X229346617Y-112170663D01*
X139110317Y-45272091D02*
X137252342Y-52703993D01*
X162218896Y-125875065D02*
X176970254Y-122739567D01*
X74707968Y-112808902D02*
G75*
G03*
X74611302Y-112815674I-34768J-196998D01*
G01*
X36912100Y-145654114D02*
G75*
G03*
X37619214Y-145947000I707100J707114D01*
G01*
X50355000Y-49893359D02*
G75*
G03*
X52855000Y-49893359I1250000J0D01*
G01*
X103231085Y-63306558D02*
G75*
G03*
X103343737Y-63374874I154215J127258D01*
G01*
X71892278Y-114734751D02*
X57462087Y-113218077D01*
X241984806Y-52893359D02*
X241000194Y-52893359D01*
X106222230Y-121064375D02*
G75*
G03*
X106124845Y-121012622I-138930J-143925D01*
G01*
X146120411Y-72183587D02*
G75*
G03*
X145631293Y-71787314I-489111J-103713D01*
G01*
X89479446Y-115426869D02*
X92105425Y-116999322D01*
X99795807Y-57574028D02*
X103780210Y-62400944D01*
X208605472Y-57220057D02*
G75*
G03*
X208688947Y-57229001I62528J189557D01*
G01*
X103231079Y-63306563D02*
X99259216Y-58494839D01*
X211726431Y-113843843D02*
G75*
G03*
X211629762Y-113837049I-61931J-190057D01*
G01*
X251205000Y-143532787D02*
X251205000Y-52307573D01*
X236055000Y-150697000D02*
G75*
G03*
X236305000Y-150947000I250000J0D01*
G01*
X140786961Y-71787265D02*
G75*
G03*
X140297887Y-72183358I39J-500035D01*
G01*
X201515337Y-55937563D02*
G75*
G03*
X201418036Y-55930567I-62537J-189637D01*
G01*
X241632664Y-145636368D02*
G75*
G03*
X241875194Y-145947000I242536J-60632D01*
G01*
X106710648Y-120145878D02*
X109342383Y-122687792D01*
X57063384Y-112170654D02*
G75*
G03*
X56894600Y-112234911I-20884J-198946D01*
G01*
X40205000Y-115101838D02*
G75*
G03*
X40205000Y-116101762I0J-499962D01*
G01*
X150275194Y-49893307D02*
G75*
G03*
X150032658Y-50203993I106J-250093D01*
G01*
X227977265Y-50203974D02*
G75*
G03*
X227734806Y-49893359I-242465J60674D01*
G01*
X229116689Y-113282331D02*
G75*
G03*
X228947913Y-113218077I-147889J-134669D01*
G01*
X137142039Y-87030410D02*
G75*
G03*
X136705000Y-91188646I19562961J-4158190D01*
G01*
X150384806Y-52893359D02*
X149400194Y-52893359D01*
X85014184Y-145968849D02*
G75*
G03*
X84806271Y-145947000I-207884J-978051D01*
G01*
X227382593Y-52582709D02*
G75*
G03*
X227625194Y-52893359I242607J-60591D01*
G01*
X179796715Y-120094103D02*
X194243409Y-117023363D01*
X227382658Y-52582725D02*
X227977342Y-50203993D01*
X103780182Y-62400967D02*
G75*
G03*
X103892868Y-62469255I154218J127367D01*
G01*
X233305000Y-150947000D02*
G75*
G03*
X233555000Y-150697000I0J250000D01*
G01*
X150627383Y-151397205D02*
G75*
G03*
X150384806Y-151086561I-242583J60605D01*
G01*
X165954585Y-69025675D02*
X168586320Y-66483761D01*
X136025194Y-151086603D02*
G75*
G03*
X135782658Y-151397195I6J-249997D01*
G01*
X120455415Y-69025675D02*
X117823680Y-66483761D01*
X54195685Y-115101764D02*
G75*
G03*
X54343563Y-115036418I15J199964D01*
G01*
X186614193Y-57574028D02*
X182629790Y-62400944D01*
X124019102Y-126860565D02*
X124008806Y-126858657D01*
X241632658Y-50203993D02*
X242227342Y-52582725D01*
X231968542Y-59286167D02*
G75*
G03*
X232045932Y-59301762I77358J184067D01*
G01*
X241984806Y-52893319D02*
G75*
G03*
X242227342Y-52582725I94J249919D01*
G01*
X89124043Y-116379628D02*
G75*
G03*
X89056025Y-116354255I-102743J-171572D01*
G01*
X150032658Y-50203993D02*
X150627342Y-52582725D01*
X228947913Y-113218077D02*
X214517722Y-114734751D01*
X149505000Y-144086500D02*
G75*
G03*
X149705000Y-143886561I100J199900D01*
G01*
X74683569Y-113843844D02*
X71975123Y-114726014D01*
X120943855Y-68107156D02*
G75*
G03*
X121041218Y-68158931I138945J143856D01*
G01*
X57800194Y-142947000D02*
X58784806Y-142947000D01*
X182517132Y-62469255D02*
X168195242Y-65513467D01*
X92105427Y-116999319D02*
G75*
G03*
X92166591Y-117023363I102773J171619D01*
G01*
X141955000Y-49893359D02*
G75*
G03*
X144455000Y-49893359I1250000J0D01*
G01*
X223433245Y-55704130D02*
G75*
G03*
X223334943Y-55689645I-77445J-184770D01*
G01*
X36912107Y-50186252D02*
X35497893Y-51600466D01*
X246205000Y-116101838D02*
G75*
G03*
X246205000Y-115101762I0J500038D01*
G01*
X63075057Y-55689645D02*
X77721053Y-57229001D01*
X143205000Y-71787314D02*
X140786961Y-71787314D01*
X45409806Y-52893396D02*
G75*
G03*
X45652342Y-52703993I-6J249996D01*
G01*
X240757694Y-52703984D02*
G75*
G03*
X241000194Y-52893359I242506J60584D01*
G01*
X246205000Y-60301838D02*
G75*
G03*
X246205000Y-59301762I0J500038D01*
G01*
X99795810Y-57574025D02*
G75*
G03*
X99676296Y-57504384I-154210J-127275D01*
G01*
X58432658Y-50203993D02*
X59027342Y-52582725D01*
X149400194Y-151086561D02*
X150384806Y-151086561D01*
X223334943Y-55689645D02*
X208688947Y-57229001D01*
X121041218Y-68158931D02*
X134832359Y-71090328D01*
X84991961Y-55930583D02*
G75*
G03*
X84894665Y-55937568I-34761J-196917D01*
G01*
X238899629Y-45272105D02*
G75*
G03*
X238414612Y-44893359I-485029J-121195D01*
G01*
X168683683Y-66431986D02*
X183066263Y-63374874D01*
X168683678Y-66431963D02*
G75*
G03*
X168586320Y-66483761I41522J-195437D01*
G01*
X236305000Y-44893300D02*
G75*
G03*
X236055000Y-45143359I100J-250100D01*
G01*
X250912107Y-51600466D02*
X249497893Y-50186252D01*
X44777342Y-145636366D02*
X44182658Y-143257634D01*
X177067617Y-122687792D02*
X179699352Y-120145878D01*
X147299683Y-158707829D02*
X149157658Y-151275927D01*
X236055000Y-145947000D02*
X236055000Y-150697000D01*
X165368782Y-68158931D02*
G75*
G03*
X165466145Y-68107156I-41582J195631D01*
G01*
X232214315Y-115101762D02*
X246205000Y-115101762D01*
X120455425Y-69025665D02*
G75*
G03*
X120552778Y-69077450I138975J143865D01*
G01*
X144705000Y-159086561D02*
X146814612Y-159086561D01*
X236055000Y-45143359D02*
X236055000Y-49893359D01*
X194614247Y-117966880D02*
X180285155Y-121012622D01*
X47995388Y-150947000D02*
X50105000Y-150947000D01*
X227734806Y-49893359D02*
X150275194Y-49893359D01*
X233305000Y-44893359D02*
X231195388Y-44893359D01*
X99259239Y-58494820D02*
G75*
G03*
X99139706Y-58425196I-154239J-127380D01*
G01*
X183178921Y-63306563D02*
X187150784Y-58494839D01*
X196998573Y-115401496D02*
X211702028Y-112808880D01*
X150275194Y-154086561D02*
X163099896Y-154086561D01*
X54343563Y-115036418D02*
X56894600Y-112234911D01*
X180187792Y-121064397D02*
X177556058Y-123606312D01*
X109439746Y-122739567D02*
X124191104Y-125875065D01*
X84917964Y-54902092D02*
X99676296Y-57504384D01*
X165857226Y-69077467D02*
G75*
G03*
X165954585Y-69025675I-41526J195467D01*
G01*
X248790786Y-145946990D02*
G75*
G03*
X249497893Y-145654107I14J999990D01*
G01*
X44425194Y-142946994D02*
G75*
G03*
X44182658Y-143257634I6J-250006D01*
G01*
X126911252Y-127318642D02*
G75*
G03*
X127067687Y-126330948I78248J493842D01*
G01*
X136377342Y-153775927D02*
X135782658Y-151397195D01*
X40205000Y-59301838D02*
G75*
G03*
X40205000Y-60301762I0J-499962D01*
G01*
X187270294Y-58425196D02*
X201418036Y-55930567D01*
X139595388Y-44893379D02*
G75*
G03*
X139110317Y-45272091I12J-500021D01*
G01*
X228852342Y-143136366D02*
X230710317Y-150568268D01*
X45409806Y-52893359D02*
X44425194Y-52893359D01*
X124008806Y-126858657D02*
X108951305Y-123658086D01*
X77830011Y-58245962D02*
X63225570Y-56710973D01*
X141705000Y-159086600D02*
G75*
G03*
X141955000Y-158836561I0J250000D01*
G01*
X211629762Y-113837049D02*
X197353975Y-116354255D01*
X242227342Y-143257634D02*
X241632658Y-145636366D01*
X40205000Y-59301762D02*
X54364068Y-59301762D01*
X50105000Y-150947000D02*
G75*
G03*
X50355000Y-150697000I0J250000D01*
G01*
X150599493Y-71298235D02*
G75*
G03*
X150807405Y-72276387I104007J-489065D01*
G01*
X238899683Y-150568268D02*
X240757658Y-143136366D01*
X37619214Y-49893381D02*
G75*
G03*
X36912107Y-50186252I-14J-1000019D01*
G01*
X150032711Y-153775940D02*
G75*
G03*
X150275194Y-154086561I242489J-60660D01*
G01*
X124191104Y-125875065D02*
X124201400Y-125876973D01*
X162208600Y-125876973D02*
X162218896Y-125875065D01*
X137009806Y-52893396D02*
G75*
G03*
X137252342Y-52703993I-6J249996D01*
G01*
X176970259Y-122739589D02*
G75*
G03*
X177067617Y-122687792I-41759J195889D01*
G01*
X144455039Y-158836561D02*
G75*
G03*
X144705000Y-159086561I249961J-39D01*
G01*
X208496514Y-58237018D02*
G75*
G03*
X208579989Y-58245962I62586J190118D01*
G01*
X229515400Y-112234911D02*
X232066437Y-115036418D01*
X196998576Y-115401511D02*
G75*
G03*
X196930554Y-115426869I34624J-196789D01*
G01*
X57063383Y-112170663D02*
X71785042Y-113717972D01*
X149157694Y-52703984D02*
G75*
G03*
X149400194Y-52893359I242506J60584D01*
G01*
X57462088Y-113218068D02*
G75*
G03*
X57293304Y-113282325I-20888J-198932D01*
G01*
X228852336Y-143136368D02*
G75*
G03*
X228609806Y-142947000I-242536J-60632D01*
G01*
X89479443Y-115426874D02*
G75*
G03*
X89411427Y-115401496I-102743J-171526D01*
G01*
X162401194Y-126858657D02*
X162390898Y-126860565D01*
X165368782Y-68158931D02*
X151577641Y-71090328D01*
X223282734Y-56725455D02*
G75*
G03*
X223184430Y-56710973I-77434J-184745D01*
G01*
X89056025Y-116354255D02*
X74780238Y-113837049D01*
X231195388Y-44893282D02*
G75*
G03*
X230710317Y-45272091I112J-500118D01*
G01*
X57557658Y-52703993D02*
X55699683Y-45272091D01*
X233555000Y-49893359D02*
G75*
G03*
X236055000Y-49893359I1250000J0D01*
G01*
X136705039Y-143886561D02*
G75*
G03*
X136905000Y-144086561I199961J-39D01*
G01*
X231767206Y-60286177D02*
G75*
G03*
X231844600Y-60301762I77394J184377D01*
G01*
X44182658Y-52582725D02*
X44777342Y-50203993D01*
X233554941Y-45143359D02*
G75*
G03*
X233305000Y-44893359I-249941J59D01*
G01*
X231195388Y-150947000D02*
X233305000Y-150947000D01*
X85014183Y-145968853D02*
X123102193Y-154064709D01*
X146814612Y-159086581D02*
G75*
G03*
X147299683Y-158707829I88J499881D01*
G01*
X182517134Y-62469262D02*
G75*
G03*
X182629790Y-62400944I-41734J195862D01*
G01*
X141955000Y-158836561D02*
X141955000Y-154086561D01*
X214434877Y-114726014D02*
X211726431Y-113843844D01*
X251204978Y-52307573D02*
G75*
G03*
X250912107Y-51600466I-999878J73D01*
G01*
X139110357Y-158707819D02*
G75*
G03*
X139595388Y-159086561I485043J121219D01*
G01*
X146120415Y-72183586D02*
X149269893Y-87034829D01*
X58675194Y-49893404D02*
G75*
G03*
X58432658Y-50203993I6J-249996D01*
G01*
X52855000Y-150697000D02*
G75*
G03*
X53105000Y-150947000I250000J0D01*
G01*
X231968537Y-59286180D02*
X223433244Y-55704132D01*
X150627342Y-151397195D02*
X150032658Y-153775927D01*
X44777385Y-50204004D02*
G75*
G03*
X44534806Y-49893359I-242585J60604D01*
G01*
X149705000Y-143886561D02*
X149705000Y-109086561D01*
X179796718Y-120094116D02*
G75*
G03*
X179699352Y-120145878I41482J-195484D01*
G01*
X231624572Y-116036406D02*
G75*
G03*
X231772437Y-116101762I147828J134506D01*
G01*
X91734586Y-117942839D02*
X89124043Y-116379628D01*
X162390898Y-126860565D02*
X159498747Y-127318637D01*
X249497893Y-145654107D02*
X250912107Y-144239893D01*
X92166591Y-117023363D02*
X106613285Y-120094103D01*
X230710328Y-150568265D02*
G75*
G03*
X231195388Y-150947000I485072J121265D01*
G01*
X201603729Y-145947000D02*
X228055000Y-145947000D01*
X84917961Y-54902110D02*
G75*
G03*
X84820666Y-54909093I-34761J-196990D01*
G01*
X139595388Y-159086561D02*
X141705000Y-159086561D01*
X40205000Y-115101762D02*
X54195685Y-115101762D01*
X159342313Y-126330948D02*
X162208600Y-125876973D01*
X74780237Y-113837053D02*
G75*
G03*
X74683569Y-113843844I-34737J-196947D01*
G01*
X240757658Y-52703993D02*
X238899683Y-45272091D01*
X58432664Y-145636368D02*
G75*
G03*
X58675194Y-145947000I242536J-60632D01*
G01*
X194614250Y-117966894D02*
G75*
G03*
X194675414Y-117942839I-41850J196194D01*
G01*
X149400194Y-151086487D02*
G75*
G03*
X149157658Y-151275927I106J-250113D01*
G01*
X63075059Y-55689625D02*
G75*
G03*
X62976756Y-55704132I-20859J-198975D01*
G01*
X123102193Y-154064711D02*
G75*
G03*
X123310104Y-154086561I207907J978211D01*
G01*
X137009806Y-52893359D02*
X136025194Y-52893359D01*
X37619214Y-145947000D02*
X44534806Y-145947000D01*
X124201400Y-125876973D02*
X127067687Y-126330948D01*
X151785553Y-72068476D02*
X165857222Y-69077450D01*
X140297887Y-72183358D02*
X137142048Y-87030412D01*
X54364068Y-59301745D02*
G75*
G03*
X54441463Y-59286180I32J200045D01*
G01*
X230710317Y-45272091D02*
X228852342Y-52703993D01*
X77804528Y-57220058D02*
X84820666Y-54909093D01*
X55214612Y-44893359D02*
X53105000Y-44893359D01*
X77830011Y-58245966D02*
G75*
G03*
X77913486Y-58237018I20889J198966D01*
G01*
X194243408Y-117023360D02*
G75*
G03*
X194304575Y-116999322I-41508J195460D01*
G01*
X201515335Y-55937568D02*
X208496514Y-58237018D01*
X45652342Y-143136366D02*
X47510317Y-150568268D01*
X44534806Y-49893359D02*
X37619214Y-49893359D01*
X135782713Y-52582739D02*
G75*
G03*
X136025194Y-52893359I242487J-60661D01*
G01*
X54565400Y-60301762D02*
X40205000Y-60301762D01*
X141955041Y-45143359D02*
G75*
G03*
X141705000Y-44893359I-250041J-41D01*
G01*
X180285153Y-121012611D02*
G75*
G03*
X180187792Y-121064397I41847J-196089D01*
G01*
X71785040Y-113717993D02*
G75*
G03*
X71867887Y-113709235I20860J198893D01*
G01*
X134832359Y-71090328D02*
X135810506Y-71298240D01*
X241000194Y-142947000D02*
X241984806Y-142947000D01*
X201603729Y-145946992D02*
G75*
G03*
X201395817Y-145968853I71J-1000308D01*
G01*
X109342366Y-122687809D02*
G75*
G03*
X109439746Y-122739567I138934J143909D01*
G01*
X54441463Y-59286180D02*
X62976756Y-55704132D01*
X233555000Y-150697000D02*
X233555000Y-145947000D01*
X63225572Y-56710957D02*
G75*
G03*
X63127268Y-56725460I-20872J-198943D01*
G01*
X44425194Y-142947000D02*
X45409806Y-142947000D01*
X177458695Y-123658086D02*
X162401194Y-126858657D01*
X211798698Y-112815674D02*
X214542113Y-113709235D01*
X53105000Y-150947000D02*
X55214612Y-150947000D01*
M02*
