M48
; DRILL file {KiCad (6.0.4-0)} date Friday, 11 November 2022 at 23:09:12
; FORMAT={-:-/ absolute / metric / decimal}
; #@! TF.CreationDate,2022-11-11T23:09:12+01:00
; #@! TF.GenerationSoftware,Kicad,Pcbnew,(6.0.4-0)
; #@! TF.FileFunction,Plated,1,2,PTH
FMAT,2
METRIC
; #@! TA.AperFunction,Plated,PTH,ViaDrill
T1C0.400
; #@! TA.AperFunction,Plated,PTH,ComponentDrill
T2C0.750
; #@! TA.AperFunction,Plated,PTH,ComponentDrill
T3C1.092
; #@! TA.AperFunction,Plated,PTH,ComponentDrill
T4C1.270
%
G90
G05
T1
X95.642Y-119.935
X111.364Y-103.042
X117.832Y-61.927
X125.184Y-127.586
X127.706Y-115.158
X129.721Y-143.57
X131.367Y-143.599
X131.799Y-99.706
X135.025Y-82.778
X152.828Y-108.422
X153.652Y-90.748
X156.053Y-126.306
X157.034Y-107.66
X160.111Y-127.773
X184.323Y-121.343
X198.751Y-111.418
X248.174Y-108.488
X248.683Y-90.953
T2
X108.82Y-52.103
X110.82Y-52.103
T3
X135.593Y-114.941
X135.593Y-117.481
X135.593Y-120.021
X135.593Y-122.561
X135.593Y-125.101
X135.593Y-127.641
X135.593Y-130.181
X135.593Y-132.721
X135.593Y-135.261
X135.593Y-137.801
X135.593Y-140.341
X135.593Y-142.881
X150.833Y-114.941
X150.833Y-117.481
X150.833Y-120.021
X150.833Y-122.561
X150.833Y-125.101
X150.833Y-127.641
X150.833Y-130.181
X150.833Y-132.721
X150.833Y-135.261
X150.833Y-137.801
X150.833Y-140.341
X150.833Y-142.881
T4
X42.107Y-74.503
X42.107Y-108.503
X42.107Y-91.503
X46.611Y-138.01
X47.107Y-76.603
X47.107Y-110.603
X47.107Y-93.603
X51.611Y-140.11
X60.401Y-104.88
X62.178Y-87.973
X63.955Y-71.066
X65.154Y-107.491
X66.931Y-90.584
X68.708Y-73.677
X78.814Y-103.783
X81.766Y-87.041
X83.373Y-106.719
X84.718Y-70.299
X86.325Y-89.977
X89.277Y-73.235
X89.855Y-138.89
X94.309Y-141.983
X95.778Y-111.038
X99.312Y-94.409
X100.232Y-114.131
X102.847Y-77.781
X103.766Y-97.503
X107.301Y-80.874
X111.866Y-143.565
X112.966Y-116.74
X116.32Y-146.658
X116.5Y-100.111
X117.42Y-119.833
X120.035Y-83.483
X120.954Y-103.205
X124.489Y-86.576
X156.599Y-85.567
X160.133Y-102.195
X161.926Y-86.581
X163.668Y-118.824
X164.766Y-145.648
X165.461Y-103.21
X168.995Y-119.838
X170.093Y-146.662
X173.792Y-79.869
X177.326Y-96.497
X179.119Y-80.883
X180.861Y-113.126
X182.654Y-97.512
X186.188Y-114.14
X186.78Y-140.97
X191.849Y-72.045
X192.107Y-141.984
X194.801Y-88.787
X197.137Y-73.245
X197.753Y-105.529
X200.089Y-89.987
X203.041Y-106.728
X212.518Y-72.12
X214.295Y-89.027
X216.072Y-105.934
X217.71Y-73.686
X219.487Y-90.593
X221.264Y-107.5
X229.806Y-138.012
X234.308Y-108.511
X234.308Y-74.511
X234.308Y-91.511
X234.806Y-140.112
X239.308Y-110.611
X239.308Y-76.611
X239.308Y-93.611
T0
M30
