G04 #@! TF.GenerationSoftware,KiCad,Pcbnew,(6.0.4-0)*
G04 #@! TF.CreationDate,2022-11-11T23:09:08+01:00*
G04 #@! TF.ProjectId,The-ENDGAME-MX-BAD,5468652d-454e-4444-9741-4d452d4d582d,0_1*
G04 #@! TF.SameCoordinates,Original*
G04 #@! TF.FileFunction,Soldermask,Bot*
G04 #@! TF.FilePolarity,Negative*
%FSLAX46Y46*%
G04 Gerber Fmt 4.6, Leading zero omitted, Abs format (unit mm)*
G04 Created by KiCad (PCBNEW (6.0.4-0)) date 2022-11-11 23:09:08*
%MOMM*%
%LPD*%
G01*
G04 APERTURE LIST*
G04 Aperture macros list*
%AMRoundRect*
0 Rectangle with rounded corners*
0 $1 Rounding radius*
0 $2 $3 $4 $5 $6 $7 $8 $9 X,Y pos of 4 corners*
0 Add a 4 corners polygon primitive as box body*
4,1,4,$2,$3,$4,$5,$6,$7,$8,$9,$2,$3,0*
0 Add four circle primitives for the rounded corners*
1,1,$1+$1,$2,$3*
1,1,$1+$1,$4,$5*
1,1,$1+$1,$6,$7*
1,1,$1+$1,$8,$9*
0 Add four rect primitives between the rounded corners*
20,1,$1+$1,$2,$3,$4,$5,0*
20,1,$1+$1,$4,$5,$6,$7,0*
20,1,$1+$1,$6,$7,$8,$9,0*
20,1,$1+$1,$8,$9,$2,$3,0*%
%AMRotRect*
0 Rectangle, with rotation*
0 The origin of the aperture is its center*
0 $1 length*
0 $2 width*
0 $3 Rotation angle, in degrees counterclockwise*
0 Add horizontal line*
21,1,$1,$2,0,0,$3*%
G04 Aperture macros list end*
%ADD10C,1.701800*%
%ADD11C,3.000000*%
%ADD12C,3.429000*%
%ADD13RotRect,2.600000X2.600000X348.000000*%
%ADD14C,2.032000*%
%ADD15R,2.600000X2.600000*%
%ADD16RotRect,2.600000X2.600000X12.000000*%
%ADD17RotRect,2.600000X2.600000X350.000000*%
%ADD18RotRect,2.600000X2.600000X10.000000*%
%ADD19RotRect,2.600000X2.600000X354.000000*%
%ADD20RotRect,2.600000X2.600000X6.000000*%
%ADD21R,1.752600X1.752600*%
%ADD22R,3.250000X2.000000*%
%ADD23C,1.752600*%
%ADD24RotRect,0.900000X1.200000X192.000000*%
%ADD25RotRect,0.900000X1.200000X168.000000*%
%ADD26R,0.900000X1.200000*%
%ADD27RotRect,0.900000X1.200000X186.000000*%
%ADD28RotRect,0.900000X1.200000X190.000000*%
%ADD29RotRect,0.900000X1.200000X174.000000*%
%ADD30R,1.000000X0.800000*%
%ADD31C,0.900000*%
%ADD32R,0.700000X1.500000*%
%ADD33RotRect,0.900000X1.200000X170.000000*%
%ADD34RoundRect,0.250000X0.350000X0.625000X-0.350000X0.625000X-0.350000X-0.625000X0.350000X-0.625000X0*%
%ADD35O,1.200000X1.750000*%
G04 APERTURE END LIST*
D10*
X110372768Y-92875193D03*
X99613144Y-90588165D03*
D11*
X110663363Y-89103184D03*
X106230031Y-85911701D03*
D12*
X104992956Y-91731679D03*
D13*
X113866796Y-89784095D03*
D14*
X103766277Y-97502750D03*
D13*
X103026597Y-85230790D03*
D14*
X99312154Y-94409081D03*
D11*
X244307659Y-100960589D03*
D12*
X239307659Y-104710589D03*
D11*
X239307659Y-98760589D03*
D10*
X233807659Y-104710589D03*
X244807659Y-104710589D03*
D15*
X247582659Y-100960589D03*
D14*
X239307659Y-110610589D03*
D15*
X236032659Y-98760589D03*
D14*
X234307659Y-108510589D03*
D11*
X239307660Y-64760588D03*
D10*
X244807660Y-70710588D03*
D12*
X239307660Y-70710588D03*
D11*
X244307660Y-66960588D03*
D10*
X233807660Y-70710588D03*
D14*
X239307660Y-76610588D03*
D15*
X247582660Y-66960588D03*
D14*
X234307660Y-74510588D03*
D15*
X236032660Y-64760588D03*
D12*
X47106660Y-70702588D03*
D10*
X52606660Y-70702588D03*
D11*
X47106660Y-64752588D03*
D10*
X41606660Y-70702588D03*
D11*
X52106660Y-66952588D03*
D14*
X47106660Y-76602588D03*
D15*
X55381660Y-66952588D03*
X43831660Y-64752588D03*
D14*
X42106660Y-74502588D03*
D11*
X123216869Y-138258693D03*
D10*
X112166650Y-139743674D03*
X122926274Y-142030702D03*
D11*
X118783537Y-135067210D03*
D12*
X117546462Y-140887188D03*
D14*
X116319783Y-146658259D03*
D13*
X126420302Y-138939604D03*
X115580103Y-134386299D03*
D14*
X111865660Y-143564590D03*
D11*
X166531257Y-108247091D03*
X171879401Y-109359457D03*
D10*
X162388520Y-115210583D03*
X173148144Y-112923555D03*
D12*
X167768332Y-114067069D03*
D16*
X175082835Y-108678546D03*
D14*
X168995011Y-119838140D03*
D16*
X163327824Y-108928002D03*
D14*
X163667658Y-118823588D03*
D11*
X119883541Y-108242207D03*
X124316873Y-111433690D03*
D10*
X124026278Y-115205699D03*
D12*
X118646466Y-114062185D03*
D10*
X113266654Y-112918671D03*
D14*
X117419787Y-119833256D03*
D13*
X127520306Y-112114601D03*
D14*
X112965664Y-116739587D03*
D13*
X116680107Y-107561296D03*
D11*
X95876821Y-64600303D03*
X91334809Y-61565485D03*
D12*
X90301602Y-67425091D03*
D10*
X84885159Y-66470026D03*
X95718045Y-68380156D03*
D17*
X99102067Y-65169001D03*
D14*
X89277078Y-73235457D03*
D17*
X88109563Y-60996787D03*
D14*
X84717700Y-70299120D03*
D10*
X190696356Y-68389678D03*
D12*
X196112799Y-67434613D03*
D10*
X201529242Y-66479548D03*
D11*
X200385657Y-62873343D03*
X195079592Y-61575007D03*
D18*
X203610902Y-62304645D03*
D14*
X197137323Y-73244979D03*
D18*
X191854347Y-62143705D03*
D14*
X191848623Y-72045123D03*
D11*
X72912056Y-81509362D03*
D10*
X73017335Y-85291084D03*
D11*
X68169409Y-78798772D03*
D12*
X67547465Y-84716177D03*
D10*
X62077595Y-84141270D03*
D19*
X76169115Y-81851693D03*
D14*
X66930747Y-90583856D03*
X62177647Y-87972718D03*
D19*
X64912350Y-78456441D03*
D11*
X51610658Y-128259589D03*
D10*
X57110658Y-134209589D03*
D12*
X51610658Y-134209589D03*
D10*
X46110658Y-134209589D03*
D11*
X56610658Y-130459589D03*
D15*
X59885658Y-130459589D03*
D14*
X51610658Y-140109589D03*
D15*
X48335658Y-128259589D03*
D14*
X46610658Y-138009589D03*
D10*
X172512523Y-76255562D03*
D11*
X176655260Y-69292070D03*
D12*
X177892335Y-75112048D03*
D11*
X182003404Y-70404436D03*
D10*
X183272147Y-73968534D03*
D14*
X179119014Y-80883119D03*
D16*
X185206838Y-69723525D03*
X173451827Y-69972981D03*
D14*
X173791661Y-79868567D03*
D11*
X102695541Y-102540209D03*
D10*
X96078654Y-107216673D03*
D12*
X101458466Y-108360187D03*
D11*
X107128873Y-105731692D03*
D10*
X106838278Y-109503701D03*
D14*
X100231787Y-114131258D03*
D13*
X110332306Y-106412603D03*
X99492107Y-101859298D03*
D14*
X95777664Y-111037589D03*
D11*
X221673604Y-63566071D03*
D12*
X217092976Y-67818170D03*
D10*
X222562846Y-67243263D03*
X211623106Y-68393077D03*
D11*
X216471032Y-61900765D03*
D20*
X224930663Y-63223740D03*
D14*
X217709694Y-73685849D03*
D20*
X213213972Y-62243095D03*
D14*
X212517575Y-72119996D03*
D10*
X52606663Y-87702586D03*
D12*
X47106663Y-87702586D03*
D11*
X52106663Y-83952586D03*
X47106663Y-81752586D03*
D10*
X41606663Y-87702586D03*
D14*
X47106663Y-93602586D03*
D15*
X55381663Y-83952586D03*
D14*
X42106663Y-91502586D03*
D15*
X43831663Y-81752586D03*
D11*
X131385870Y-78176677D03*
D12*
X125715463Y-80805172D03*
D11*
X126952538Y-74985194D03*
D10*
X131095275Y-81948686D03*
X120335651Y-79661658D03*
D14*
X124488784Y-86576243D03*
D13*
X134589303Y-78857588D03*
D14*
X120034661Y-83482574D03*
D13*
X123749104Y-74304283D03*
D10*
X240305660Y-134211587D03*
D11*
X234805660Y-128261587D03*
D12*
X234805660Y-134211587D03*
D10*
X229305660Y-134211587D03*
D11*
X239805660Y-130461587D03*
D14*
X234805660Y-140111587D03*
D15*
X243080660Y-130461587D03*
X231530660Y-128261587D03*
D14*
X229805660Y-138011587D03*
D10*
X193648370Y-85131407D03*
D11*
X203337671Y-79615072D03*
D10*
X204481256Y-83221277D03*
D11*
X198031606Y-78316736D03*
D12*
X199064813Y-84176342D03*
D18*
X206562916Y-79046374D03*
D14*
X200089337Y-89986708D03*
X194800637Y-88786852D03*
D18*
X194806361Y-78885434D03*
D10*
X226116810Y-101057002D03*
X215177070Y-102206816D03*
D12*
X220646940Y-101631909D03*
D11*
X225227568Y-97379810D03*
X220024996Y-95714504D03*
D20*
X228484627Y-97037479D03*
D14*
X221263658Y-107499588D03*
X216071539Y-105933735D03*
D20*
X216767936Y-96056834D03*
D11*
X127851364Y-94805183D03*
D10*
X127560769Y-98577192D03*
D12*
X122180957Y-97433678D03*
D11*
X123418032Y-91613700D03*
D10*
X116801145Y-96290164D03*
D13*
X131054797Y-95486094D03*
D14*
X120954278Y-103204749D03*
D13*
X120214598Y-90932789D03*
D14*
X116500155Y-100111080D03*
D10*
X207433279Y-99963016D03*
D11*
X200983629Y-95058475D03*
D10*
X196600393Y-101873146D03*
D12*
X202016836Y-100918081D03*
D11*
X206289694Y-96356811D03*
D18*
X209514939Y-95788113D03*
D14*
X203041360Y-106728447D03*
D18*
X197758384Y-95627173D03*
D14*
X197752660Y-105528591D03*
D10*
X158854023Y-98582071D03*
X169613647Y-96295043D03*
D11*
X168344904Y-92730945D03*
X162996760Y-91618579D03*
D12*
X164233835Y-97438557D03*
D16*
X171548338Y-92050034D03*
D14*
X165460514Y-103209628D03*
D16*
X159793327Y-92299490D03*
D14*
X160133161Y-102195076D03*
D11*
X47106660Y-98752588D03*
X52106660Y-100952588D03*
D12*
X47106660Y-104702588D03*
D10*
X52606660Y-104702588D03*
X41606660Y-104702588D03*
D15*
X55381660Y-100952588D03*
D14*
X47106660Y-110602588D03*
X42106660Y-108502588D03*
D15*
X43831660Y-98752588D03*
D12*
X65770474Y-101623045D03*
D11*
X71135065Y-98416230D03*
X66392418Y-95705640D03*
D10*
X60300604Y-101048138D03*
X71240344Y-102197952D03*
D19*
X74392124Y-98758561D03*
D14*
X65153756Y-107490724D03*
X60400656Y-104879586D03*
D19*
X63135359Y-95363309D03*
D10*
X190341147Y-107225556D03*
D12*
X184961335Y-108369070D03*
D11*
X189072404Y-103661458D03*
X183724260Y-102549092D03*
D10*
X179581523Y-109512584D03*
D16*
X192275838Y-102980547D03*
D14*
X186188014Y-114140141D03*
X180860661Y-113125589D03*
D16*
X180520827Y-103230003D03*
D10*
X185500520Y-137356582D03*
D12*
X190880332Y-136213068D03*
D11*
X194991401Y-131505456D03*
X189643257Y-130393090D03*
D10*
X196260144Y-135069554D03*
D16*
X198194835Y-130824545D03*
D14*
X192107011Y-141984139D03*
D16*
X186439824Y-131074001D03*
D14*
X186779658Y-140969587D03*
D11*
X218248017Y-78807641D03*
D10*
X224339831Y-84150139D03*
D12*
X218869961Y-84725046D03*
D11*
X223450589Y-80472947D03*
D10*
X213400091Y-85299953D03*
D14*
X219486679Y-90592725D03*
D20*
X226707648Y-80130616D03*
D14*
X214294560Y-89026872D03*
D20*
X214990957Y-79149971D03*
D10*
X155319524Y-81953564D03*
D12*
X160699336Y-80810050D03*
D10*
X166079148Y-79666536D03*
D11*
X164810405Y-76102438D03*
X159462261Y-74990072D03*
D16*
X168013839Y-75421527D03*
D14*
X161926015Y-86581121D03*
D16*
X156258828Y-75670983D03*
D14*
X156598662Y-85566569D03*
D11*
X74689040Y-64602493D03*
D12*
X69324449Y-67809308D03*
D10*
X74794319Y-68384215D03*
D11*
X69946393Y-61891903D03*
D10*
X63854579Y-67234401D03*
D14*
X68707731Y-73676987D03*
D19*
X77946099Y-64944824D03*
D14*
X63954631Y-71065849D03*
D19*
X66689334Y-61549572D03*
D10*
X244807661Y-87710587D03*
X233807661Y-87710587D03*
D11*
X244307661Y-83960587D03*
X239307661Y-81760587D03*
D12*
X239307661Y-87710587D03*
D14*
X239307661Y-93610587D03*
D15*
X247582661Y-83960587D03*
D14*
X234307661Y-91510587D03*
D15*
X236032661Y-81760587D03*
D10*
X78981118Y-99953499D03*
D11*
X85430768Y-95048958D03*
D10*
X89814004Y-101863629D03*
D11*
X89972780Y-98083776D03*
D12*
X84397561Y-100908564D03*
D17*
X93198026Y-98652474D03*
D14*
X83373037Y-106718930D03*
D17*
X82205522Y-94480260D03*
D14*
X78813659Y-103782593D03*
D10*
X176047021Y-92884073D03*
D11*
X185537902Y-87032947D03*
X180189758Y-85920581D03*
D10*
X186806645Y-90597045D03*
D12*
X181426833Y-91740559D03*
D16*
X188741336Y-86352036D03*
D14*
X182653512Y-97511630D03*
D16*
X176986325Y-86601492D03*
D14*
X177326159Y-96497078D03*
D11*
X96772540Y-130392216D03*
X101205872Y-133583699D03*
D12*
X95535465Y-136212194D03*
D10*
X100915277Y-137355708D03*
X90155653Y-135068680D03*
D14*
X94308786Y-141983265D03*
D13*
X104409305Y-134264610D03*
X93569106Y-129711305D03*
D14*
X89854663Y-138889596D03*
D10*
X92766026Y-85121891D03*
D11*
X88382790Y-78307220D03*
D12*
X87349583Y-84166826D03*
D11*
X92924802Y-81342038D03*
D10*
X81933140Y-83211761D03*
D17*
X96150048Y-81910736D03*
D14*
X86325059Y-89977192D03*
X81765681Y-87040855D03*
D17*
X85157544Y-77738522D03*
D11*
X109764536Y-69283196D03*
D10*
X113907273Y-76246688D03*
D12*
X108527461Y-75103174D03*
D10*
X103147649Y-73959660D03*
D11*
X114197868Y-72474679D03*
D13*
X117401301Y-73155590D03*
D14*
X107300782Y-80874245D03*
D13*
X106561102Y-68602285D03*
D14*
X102846659Y-77780576D03*
D11*
X172977402Y-136183459D03*
D10*
X174246145Y-139747557D03*
D12*
X168866333Y-140891071D03*
D10*
X163486521Y-142034585D03*
D11*
X167629258Y-135071093D03*
D16*
X176180836Y-135502548D03*
D14*
X170093012Y-146662142D03*
D16*
X164425825Y-135752004D03*
D14*
X164765659Y-145647590D03*
D21*
X150832657Y-114940588D03*
D22*
X152610657Y-114940588D03*
D23*
X150832657Y-117480588D03*
D22*
X152610657Y-117480588D03*
D23*
X150832657Y-120020588D03*
D22*
X152610657Y-120020588D03*
X152610657Y-122560588D03*
D23*
X150832657Y-122560588D03*
X150832657Y-125100588D03*
D22*
X152610657Y-125100588D03*
D23*
X150832657Y-127640588D03*
D22*
X152610657Y-127640588D03*
X152610657Y-130180588D03*
D23*
X150832657Y-130180588D03*
X150832657Y-132720588D03*
D22*
X152610657Y-132720588D03*
X152610657Y-135260588D03*
D23*
X150832657Y-135260588D03*
D22*
X152610657Y-137800588D03*
D23*
X150832657Y-137800588D03*
D22*
X152610657Y-140340588D03*
D23*
X150832657Y-140340588D03*
D22*
X152610657Y-142880588D03*
D23*
X150832657Y-142880588D03*
D22*
X133814657Y-142880588D03*
D23*
X135592657Y-142880588D03*
X135592657Y-140340588D03*
D22*
X133814657Y-140340588D03*
D23*
X135592657Y-137800588D03*
D22*
X133814657Y-137800588D03*
X133814657Y-135260588D03*
D23*
X135592657Y-135260588D03*
D22*
X133814657Y-132720588D03*
D23*
X135592657Y-132720588D03*
D22*
X133814657Y-130180588D03*
D23*
X135592657Y-130180588D03*
X135592657Y-127640588D03*
D22*
X133814657Y-127640588D03*
D23*
X135592657Y-125100588D03*
D22*
X133814657Y-125100588D03*
D23*
X135592657Y-122560588D03*
D22*
X133814657Y-122560588D03*
X133814657Y-120020588D03*
D23*
X135592657Y-120020588D03*
X135592657Y-117480588D03*
D22*
X133814657Y-117480588D03*
D23*
X135592657Y-114940588D03*
D22*
X133814657Y-114940588D03*
D24*
X169946609Y-84876537D03*
X166718721Y-85562645D03*
X190673604Y-95805537D03*
X187445716Y-96491645D03*
D25*
X128977605Y-104907643D03*
X125749717Y-104221535D03*
D26*
X55311660Y-110599588D03*
X52011660Y-110599588D03*
X247509661Y-110605589D03*
X244209661Y-110605589D03*
D24*
X178119606Y-144952535D03*
X174891718Y-145638643D03*
D25*
X115322605Y-82581643D03*
X112094717Y-81895535D03*
X124340606Y-148360647D03*
X121112718Y-147674539D03*
D27*
X227640618Y-89734118D03*
X224358696Y-90079062D03*
D28*
X211118597Y-105299062D03*
X207868731Y-105872100D03*
X208165593Y-88557072D03*
X204915727Y-89130110D03*
D26*
X243009662Y-140113587D03*
X239709662Y-140113587D03*
X247506661Y-93603588D03*
X244206661Y-93603588D03*
X59811659Y-140106588D03*
X56511659Y-140106588D03*
X55308662Y-93601587D03*
X52008662Y-93601587D03*
D29*
X73312620Y-108346062D03*
X70030698Y-108001118D03*
X76863621Y-74530064D03*
X73581699Y-74185120D03*
D25*
X132513605Y-88279643D03*
X129285717Y-87593535D03*
D27*
X229415625Y-106637122D03*
X226133703Y-106982066D03*
D25*
X111787606Y-99207646D03*
X108559718Y-98521538D03*
D30*
X122272030Y-53143406D03*
X114972030Y-53143406D03*
X114972030Y-50933406D03*
X122272030Y-50933406D03*
D31*
X120122030Y-52033406D03*
X117122030Y-52033406D03*
D32*
X116372030Y-53793406D03*
X119372030Y-53793406D03*
X120872030Y-53793406D03*
D24*
X194209603Y-112426537D03*
X190981715Y-113112645D03*
D33*
X94405592Y-91400110D03*
X91155726Y-90827072D03*
D24*
X177016599Y-118134534D03*
X173788711Y-118820642D03*
D28*
X205214593Y-71817069D03*
X201964727Y-72390107D03*
D27*
X225864618Y-72824114D03*
X222582696Y-73169058D03*
D25*
X102334605Y-143683645D03*
X99106717Y-142997537D03*
D24*
X173479604Y-101501534D03*
X170251716Y-102187642D03*
D34*
X110820032Y-52103408D03*
D35*
X108820032Y-52103408D03*
D33*
X91454594Y-108142108D03*
X88204728Y-107569070D03*
D25*
X125440604Y-121535642D03*
X122212716Y-120849534D03*
D29*
X75087623Y-91442062D03*
X71805701Y-91097118D03*
D24*
X187139608Y-79174535D03*
X183911720Y-79860643D03*
D25*
X108253605Y-115837646D03*
X105025717Y-115151538D03*
D26*
X55313657Y-76600591D03*
X52013657Y-76600591D03*
D24*
X200131603Y-140277532D03*
X196903715Y-140963640D03*
D26*
X247506658Y-76604591D03*
X244206658Y-76604591D03*
D33*
X97351595Y-74657112D03*
X94101729Y-74084074D03*
M02*
