<?xml version="1.0" standalone="no"?>
 <!DOCTYPE svg PUBLIC "-//W3C//DTD SVG 1.1//EN" 
 "http://www.w3.org/Graphics/SVG/1.1/DTD/svg11.dtd"> 
<svg
  xmlns:svg="http://www.w3.org/2000/svg"
  xmlns="http://www.w3.org/2000/svg"
  xmlns:xlink="http://www.w3.org/1999/xlink"
  version="1.1"
  width="29.700220cm" height="21.000720cm" viewBox="0 0 297002200 210007200">
<title>SVG Picture created as The-ENDGAME-MX-BAD-Edge_Cuts.svg date 2022/12/02 22:29:44 </title>
  <desc>Picture generated by PCBNEW </desc>
<g style="fill:#000000; fill-opacity:1.000000;stroke:#000000; stroke-opacity:1.000000;
stroke-linecap:round; stroke-linejoin:round;"
 transform="translate(0 0) scale(1 1)">
</g>
<g style="fill:#000000; fill-opacity:0.0; 
stroke:#000000; stroke-width:0.000000; stroke-opacity:1; 
stroke-linecap:round; stroke-linejoin:round;">
</g>
<g style="fill:#000000; fill-opacity:0.0; 
stroke:#000000; stroke-width:150000.000000; stroke-opacity:1; 
stroke-linecap:round; stroke-linejoin:round;">
<path d="M208572466.193577 57449716.643530 A200042.000000 200042.000000 0.0 0 0 208655947.027636 57458642.262471" />
<path d="M149124658 52933634
L147266683 45501732
" />
<path d="M150351806 53123000
L149367194 53123000
" />
<path d="M89446446.682471 115656508.860246 A200001.000000 200001.000000 0.0 0 0 89378427.005254 115631136.970202" />
<path d="M201459036 55131733
L186700704 57734025
" />
<path d="M236022000 45373000
L236022000 50123000
" />
<path d="M177034617 122917433
L179666352 120375519
" />
<path d="M143172000 72016955
L145598293 72016955
" />
<path d="M229482383.558552 112464566.968277 A199989.000000 199989.000000 0.0 0 0 229313617.030906 112400304.294358" />
<path d="M227701806 50123000
L150242194 50123000
" />
<path d="M232033428.336651 115266066.889722 A200003.000000 200003.000000 0.0 0 0 232181315.000000 115331402.999438" />
<path d="M146781612.000240 159316211.999856 A500012.000000 500012.000000 0.0 0 0 147266683.068253 158937470.017063" />
<path d="M179763716.134009 120323749.335472 A200021.000000 200021.000000 0.0 0 0 179666351.806249 120375518.799371" />
<path d="M58994342 143487275
L58399658 145866007
" />
<path d="M84884964 55131733
L99643296 57734025
" />
<path d="M135749664.022035 52812367.505472 A250000.000000 250000.000000 0.0 0 0 135992194.000000 53122999.999928" />
<path d="M187237296.659295 58654852.091994 A199982.000000 199982.000000 0.0 0 0 187117784.302186 58724480.249483" />
<path d="M214401877 114955655
L211693431 114073485
" />
<path d="M223249732 56955101
L231734205 60515821
" />
<path d="M92133591 117253004
L106580285 120323744
" />
<path d="M47477317 45501732
L45619342 52933634
" />
<path d="M136101806 50123000
L58642194 50123000
" />
<path d="M140753960.999766 72016952.001521 A500048.000000 500048.000000 0.0 0 0 140264886.738341 72412998.944363" />
<path d="M120910847.461156 68336804.807528 A200041.000000 200041.000000 0.0 0 0 121008218.100081 68388571.529048" />
<path d="M241842194 146176641
L248757786 146176641
" />
<path d="M231935537 59515821
L223400244 55933773
" />
<path d="M84981184.175971 146198488.466962 A999959.000000 999959.000000 0.0 0 0 84773271.000000 146176641.000421" />
<path d="M123986102 127090206
L123975806 127088298
" />
<path d="M36879091.728564 145883763.272624 A1000041.000000 1000041.000000 0.0 0 0 37586214.000000 146176640.999902" />
<path d="M233522000.000000 45373000.000000 A250000.000000 250000.000000 0.0 0 0 233272000.000000 45123000.000000" />
<path d="M194581245.063444 118196511.881869 A199975.000000 199975.000000 0.0 0 0 194642414.177777 118172480.296971" />
<path d="M180252159.270209 121242283.108578 A199979.000000 199979.000000 0.0 0 0 180154792.185944 121294038.192576" />
<path d="M84981183 146198494
L123069193 154294350
" />
<path d="M144422000.000000 154316202.000000 A1250000.000000 1250000.000000 0.0 0 0 141922000.000000 154316202.000000" />
<path d="M106189222.400908 121294023.085500 A200000.000000 200000.000000 0.0 0 0 106091845.092026 121242262.566648" />
<path d="M236022000 146176641
L236022000 150926641
" />
<path d="M233522000 150926641
L233522000 146176641
" />
<path d="M182484128.520751 62698879.614388 A199940.000000 199940.000000 0.0 0 0 182596789.954246 62630584.962229" />
<path d="M44501806 50123000
L37586214 50123000
" />
<path d="M197320976.388698 116583903.878446 A200033.000000 200033.000000 0.0 0 0 197252957.158070 116609269.264055" />
<path d="M35464886.218781 51830100.218915 A1000000.000000 1000000.000000 0.0 0 0 35172000.000098 52537214.000000" />
<path d="M249464899.781085 50415886.218781 A1000000.000000 1000000.000000 0.0 0 0 248757786.000000 50123000.000098" />
<path d="M141672000 45123000
L139562388 45123000
" />
<path d="M126878264.747180 127548203.854364 A499963.000000 499963.000000 0.0 1 0 127034687.076741 126560588.515322" />
<path d="M228914913 113447718
L214484722 114964392
" />
<path d="M150242193.999856 50122994.000072 A250006.000000 250006.000000 0.0 0 0 149999658.201172 50433633.949708" />
<path d="M44392194 143176641
L45376806 143176641
" />
<path d="M47962388 151176641
L50072000 151176641
" />
<path d="M150566516.804196 71527988.243479 A499945.000000 499945.000000 0.0 0 0 150774405.076744 72506028.361194" />
<path d="M231811600 60531403
L246172000 60531403
" />
<path d="M150242194 154316202
L163066896 154316202
" />
<path d="M106677651.667091 120375515.202719 A200026.000000 200026.000000 0.0 0 0 106580284.905479 120323744.444719" />
<path d="M183033261.799311 63604509.348994 A199976.000000 199976.000000 0.0 0 0 183145920.952410 63536203.960716" />
<path d="M120422434.930621 69255295.376607 A199971.000000 199971.000000 0.0 0 0 120519777.911176 69307091.417406" />
<path d="M136101806.000096 154316205.999928 A250006.000000 250006.000000 0.0 0 0 136344342.269399 154005567.932654" />
<path d="M176937252.325224 122969200.116292 A199965.000000 199965.000000 0.0 0 0 177034617.237019 122917433.245406" />
<path d="M223249724.735005 56955118.301089 A199978.000000 199978.000000 0.0 0 0 223151429.999325 56940613.993565" />
<path d="M139077326.633176 158937467.591721 A500002.000000 500002.000000 0.0 0 0 139562388.000000 159316201.999856" />
<path d="M50322000.000000 45373000.000000 A250000.000000 250000.000000 0.0 0 0 50072000.000000 45123000.000000" />
<path d="M146781612 45123000
L144672000 45123000
" />
<path d="M57429089.424202 113447694.917215 A199999.000000 199999.000000 0.0 0 0 57260303.890502 113511965.900321" />
<path d="M103859868 62698896
L118181758 65743108
" />
<path d="M58751806.000144 53123005.999928 A250006.000000 250006.000000 0.0 0 0 58994341.798828 52812366.050292" />
<path d="M58642194 146176641
L84773271 146176641
" />
<path d="M47962387.999736 45122989.000144 A500011.000000 500011.000000 0.0 0 0 47477317.431308 45501732.107825" />
<path d="M63192571.983543 56940595.097315 A199997.000000 199997.000000 0.0 0 0 63094267.908836 56955100.782900" />
<path d="M40172000.000000 115331397.000000 A500003.000000 500003.000000 0.0 0 0 40172000.000000 116331403.000000" />
<path d="M52821959.003363 150926641.006723 A250041.000000 250041.000000 0.0 0 0 53072000.000000 151176641.000000" />
<path d="M194581247 118196521
L180252155 121242263
" />
<path d="M231162388 151176641
L233272000 151176641
" />
<path d="M57030385.266347 112400282.414627 A200011.000000 200011.000000 0.0 0 0 56861600.173362 112464552.157829" />
<path d="M150351806.000144 53123005.999928 A250006.000000 250006.000000 0.0 0 0 150594341.798828 52812366.050292" />
<path d="M54532400 60531403
L40172000 60531403
" />
<path d="M36879107 50415893
L35464893 51830107
" />
<path d="M214401875.282795 114955660.273244 A199989.000000 199989.000000 0.0 0 0 214484721.958772 114964391.608074" />
<path d="M194210411.167353 117253014.188730 A199991.000000 199991.000000 0.0 0 0 194271574.789919 117228962.649310" />
<path d="M223301943 55919286
L208655947 57458642
" />
<path d="M250879107 51830107
L249464893 50415893
" />
<path d="M227349664.022035 52812367.505472 A250000.000000 250000.000000 0.0 0 0 227592194.000000 53122999.999928" />
<path d="M52822000 45373000
L52822000 50123000
" />
<path d="M201482335 56167209
L208463514 58466659
" />
<path d="M57524664.022035 52933632.494528 A250000.000000 250000.000000 0.0 0 0 57767194.000000 53122999.999928" />
<path d="M136671998.000010 144116202.000020 A200002.000000 200002.000000 0.0 0 0 136872000.000000 144316202.000000" />
<path d="M99762825.926517 57803653.372095 A200007.000000 200007.000000 0.0 0 0 99643295.929316 57734025.401288" />
<path d="M44392193.998632 143176584.000072 A250016.000000 250016.000000 0.0 0 0 44149658.149645 143487274.962564" />
<path d="M123277104 154316202
L136101806 154316202
" />
<path d="M149672000 144116202
L149672000 109316202
" />
<path d="M186700708.407524 57734050.022251 A199982.000000 199982.000000 0.0 0 0 186581193.351049 57803669.289866" />
<path d="M182484132 62698896
L168162242 65743108
" />
<path d="M240967193.999112 143176604.000072 A249996.000000 249996.000000 0.0 0 0 240724658.258843 143366007.064665" />
<path d="M228576806 53123000
L227592194 53123000
" />
<path d="M109309377.205319 122917438.999743 A199973.000000 199973.000000 0.0 0 0 109406746.012392 122969207.941666" />
<path d="M241951806.000144 53123005.999928 A250006.000000 250006.000000 0.0 0 0 242194341.798828 52812366.050292" />
<path d="M50322000 50123000
L50322000 45373000
" />
<path d="M54408463 59515821
L62943756 55933773
" />
<path d="M229482400 112464552
L232033437 115266059
" />
<path d="M246172000.000000 60531397.000000 A499997.000000 499997.000000 0.0 0 0 246172000.000000 59531403.000000" />
<path d="M242194342 143487275
L241599658 145866007
" />
<path d="M232181315 115331403
L246172000 115331403
" />
<path d="M223400235.007339 55933794.415338 A200004.000000 200004.000000 0.0 0 0 223301943.050531 55919286.481920" />
<path d="M149999661.611184 154005568.902744 A250002.000000 250002.000000 0.0 0 0 150242194.000000 154316201.999928" />
<path d="M117790676.401829 66713405.725497 A200050.000000 200050.000000 0.0 0 0 117693317.054534 66661626.743596" />
<path d="M106091845 121242263
L91762753 118196521
" />
<path d="M238866671.897110 45501734.775660 A500000.000000 500000.000000 0.0 0 0 238381612.000000 45123000.000144" />
<path d="M183145921 63536204
L187117784 58724480
" />
<path d="M165335782 68388572
L151544641 71319969
" />
<path d="M58399614.600631 145865996.157762 A250041.000000 250041.000000 0.0 0 0 58642194.000000 146176640.999928" />
<path d="M54604563.005181 116331374.996578 A199975.000000 199975.000000 0.0 0 0 54752440.987177 116266058.988320" />
<path d="M196965573 115631137
L211669028 113038521
" />
<path d="M135569580.734439 72506095.076185 A500034.000000 500034.000000 0.0 1 0 135777506.030785 71527880.855085" />
<path d="M50322000.000000 50123000.000000 A1250000.000000 1250000.000000 0.0 0 0 52822000.000000 50123000.000000" />
<path d="M134799359 71319969
L135777506 71527881
" />
<path d="M227701805.998920 146176595.999928 A249996.000000 249996.000000 0.0 0 0 227944341.741157 145866007.064665" />
<path d="M227592193.998632 143176584.000072 A250016.000000 250016.000000 0.0 0 0 227349658.149645 143487274.962564" />
<path d="M44149658 52812366
L44744342 50433634
" />
<path d="M149367193.999808 151316194.000072 A250006.000000 250006.000000 0.0 0 0 149124657.730601 151505567.932654" />
<path d="M45619305.844405 143366016.032563 A249959.000000 249959.000000 0.0 0 0 45376806.000000 143176641.000072" />
<path d="M211765704.424403 113045295.260668 A200025.000000 200025.000000 0.0 0 0 211669027.920826 113038520.551491" />
<path d="M77797010.256789 58475610.076780 A200004.000000 200004.000000 0.0 0 0 77880486.133725 58466659.405878" />
<path d="M163066896.000004 154316200.999992 A1000001.000000 1000001.000000 0.0 0 0 163274806.922747 154294349.636546" />
<path d="M233272000.000000 151176600.000000 A250000.000000 250000.000000 0.0 0 0 233521999.996638 150926640.999999" />
<path d="M123975806 127088298
L108918305 123887727
" />
<path d="M228819305.844405 143366016.032563 A249959.000000 249959.000000 0.0 0 0 228576806.000000 143176641.000072" />
<path d="M143172000 72016955
L140753961 72016955
" />
<path d="M230677317 45501732
L228819342 52933634
" />
<path d="M246172000.000000 116331397.000000 A499997.000000 499997.000000 0.0 0 0 246172000.000000 115331403.000000" />
<path d="M241599614.600631 145865996.157762 A250041.000000 250041.000000 0.0 0 0 241842194.000000 146176640.999928" />
<path d="M168650683 66661627
L183033263 63604515
" />
<path d="M106677648 120375519
L109309383 122917433
" />
<path d="M135749658 52812366
L136344342 50433634
" />
<path d="M103747196.935675 62630595.784698 A199957.000000 199957.000000 0.0 0 0 103859867.948266 62698896.243644" />
<path d="M136672000 109316202
L136672000 144116202
" />
<path d="M139562387.999736 45122989.000144 A500011.000000 500011.000000 0.0 0 0 139077317.431308 45501732.107825" />
<path d="M236021959.003363 150926641.006723 A250041.000000 250041.000000 0.0 0 0 236272000.000000 151176641.000000" />
<path d="M230677297.975774 150797913.757557 A500041.000000 500041.000000 0.0 0 0 231162388.000000 151176640.999856" />
<path d="M231591538.312497 116266077.842936 A200003.000000 200003.000000 0.0 0 0 231739436.999999 116331402.996578" />
<path d="M120422415 69255316
L117790680 66713402
" />
<path d="M45619342 143366007
L47477317 150797909
" />
<path d="M248757786.000308 146176618.999902 A1000019.000000 1000019.000000 0.0 0 0 249464892.715692 145883747.715670" />
<path d="M251171989.999902 52537213.999860 A999990.000000 999990.000000 0.0 0 0 250879106.710081 51830107.289913" />
<path d="M108820942 123835953
L106189208 121294038
" />
<path d="M251172000 143762428
L251172000 52537214
" />
<path d="M208546989 58475603
L223151430 56940614
" />
<path d="M144421998.000008 159066202.000016 A250002.000000 250002.000000 0.0 0 0 144672000.000000 159316202.000000" />
<path d="M135992194 151316202
L136976806 151316202
" />
<path d="M214591958 113947613
L229313617 112400304
" />
<path d="M186581193 57803669
L182596790 62630585
" />
<path d="M40172000 59531403
L54331068 59531403
" />
<path d="M58399658 50433634
L58994342 52812366
" />
<path d="M196965573.168380 115631137.955012 A200000.000000 200000.000000 0.0 0 0 196897553.831260 115656509.718197" />
<path d="M44744335.977965 50433632.494528 A250000.000000 250000.000000 0.0 0 0 44501806.000000 50123000.000072" />
<path d="M136976806 53123000
L135992194 53123000
" />
<path d="M54162685.000900 115331390.999438 A199991.000000 199991.000000 0.0 0 0 54310562.791182 115266058.809830" />
<path d="M50072000.000000 151176600.000000 A250000.000000 250000.000000 0.0 0 0 50321999.996638 150926640.999999" />
<path d="M57767193.999112 143176604.000072 A249996.000000 249996.000000 0.0 0 0 57524658.258843 143366007.064665" />
<path d="M57767194 143176641
L58751806 143176641
" />
<path d="M35464893 144469534
L36879107 145883748
" />
<path d="M57524658 52933634
L55666683 45501732
" />
<path d="M208572472 57449699
L201556334 55138734
" />
<path d="M63094268 56955101
L54609795 60515821
" />
<path d="M168650681.905300 66661621.852987 A200055.000000 200055.000000 0.0 0 0 168553320.124629 66713402.129040" />
<path d="M139562388 159316202
L141672000 159316202
" />
<path d="M45376806 53123000
L44392194 53123000
" />
<path d="M141922000 50123000
L141922000 45373000
" />
<path d="M149124664.022035 52933632.494528 A250000.000000 250000.000000 0.0 0 0 149367194.000000 53122999.999928" />
<path d="M135992193.999784 151316193.000072 A250007.000000 250007.000000 0.0 0 0 135749657.701614 151626836.074597" />
<path d="M77797011 58475603
L63192570 56940614
" />
<path d="M233272000 45123000
L231162388 45123000
" />
<path d="M40172000 115331403
L54162685 115331403
" />
<path d="M227592194 143176641
L228576806 143176641
" />
<path d="M208463516.056746 58466652.757431 A199997.000000 199997.000000 0.0 0 0 208546989.012084 58475603.115066" />
<path d="M146087415 72413227
L149236893 87264470
" />
<path d="M151544641 71319969
L150566494 71527881
" />
<path d="M162357898 127090206
L159465747 127548278
" />
<path d="M89446446 115656510
L92072425 117228963
" />
<path d="M238866683 150797909
L240724658 143366007
" />
<path d="M123069192.869346 154294350.614694 A1000002.000000 1000002.000000 0.0 0 0 123277104.000000 154316201.999992" />
<path d="M89023025 116583896
L74747238 114066690
" />
<path d="M177425695 123887727
L162368194 127088298
" />
<path d="M165335779.613383 68388560.769320 A200030.000000 200030.000000 0.0 0 0 165433144.898021 68336796.894386" />
<path d="M53072000 151176641
L55181612 151176641
" />
<path d="M77771528 57449699
L84787666 55138734
" />
<path d="M162185896 126104706
L176937254 122969208
" />
<path d="M84958960.879420 56160225.682928 A200018.000000 200018.000000 0.0 0 0 84861665.004675 56167209.014204" />
<path d="M53072000.000000 45123000.000000 A250000.000000 250000.000000 0.0 0 0 52822000.000000 45373000.000000" />
<path d="M201556339.329406 55138717.810312 A200011.000000 200011.000000 0.0 0 0 201459036.058512 55131733.331517" />
<path d="M141922000.000000 45373000.000000 A250000.000000 250000.000000 0.0 0 0 141672000.000000 45123000.000000" />
<path d="M57260304 113511966
L54752441 116266059
" />
<path d="M233522000 50123000
L233522000 45373000
" />
<path d="M58994286.554352 143487261.129558 A249959.000000 249959.000000 0.0 0 0 58751806.000000 143176641.000072" />
<path d="M57030383 112400304
L71752042 113947613
" />
<path d="M108820947.230384 123835947.585368 A200000.000000 200000.000000 0.0 0 0 108918305.034916 123887726.835786" />
<path d="M240724658 52933634
L238866683 45501732
" />
<path d="M214509118.964474 113938857.701004 A200004.000000 200004.000000 0.0 0 0 214591958.042310 113947613.403488" />
<path d="M137219342 151505568
L139077317 158937470
" />
<path d="M146087456.751887 72413218.141718 A500045.000000 500045.000000 0.0 0 0 145598293.000000 72016955.000049" />
<path d="M50072000 45123000
L47962388 45123000
" />
<path d="M84884960.986716 55131750.072763 A199994.000000 199994.000000 0.0 0 0 84787665.986145 55138733.957910" />
<path d="M135569595 72506028
L134591447 72298117
" />
<path d="M168064879 65794882
L165433145 68336797
" />
<path d="M159309301.194330 126560514.438118 A500038.000000 500038.000000 0.0 1 0 159465746.988977 127548277.930424" />
<path d="M136672000 109316202
L136672000 91418287
" />
<path d="M71859278.668921 114964385.640997 A199983.000000 199983.000000 0.0 0 0 71942122.859361 114955654.568122" />
<path d="M201570728.999826 146176647.000421 A999953.000000 999953.000000 0.0 0 0 201362817.071385 146198494.335872" />
<path d="M40172000.000000 59531397.000000 A500003.000000 500003.000000 0.0 0 0 40172000.000000 60531403.000000" />
<path d="M58642193.999856 50122994.000072 A250006.000000 250006.000000 0.0 0 0 58399658.201172 50433633.949708" />
<path d="M144422000 45373000
L144422000 50123000
" />
<path d="M227944335.977965 50433632.494528 A250000.000000 250000.000000 0.0 0 0 227701806.000000 50123000.000072" />
<path d="M124158104 126104706
L124168400 126106614
" />
<path d="M99762807 57803669
L103747210 62630585
" />
<path d="M63042057 55919286
L77688053 57458642
" />
<path d="M246172000 116331403
L231739437 116331403
" />
<path d="M92072430.349052 117228954.070791 A199981.000000 199981.000000 0.0 0 0 92133590.913299 117253004.407581" />
<path d="M168162242.257757 65743109.213129 A199957.000000 199957.000000 0.0 0 0 168064878.755942 65794881.747339" />
<path d="M150594342 151626836
L149999658 154005568
" />
<path d="M201482340.622968 56167191.916554 A200036.000000 200036.000000 0.0 0 0 201385035.992382 56160207.956835" />
<path d="M149672007.999966 91413562.999985 A20000008.000000 20000008.000000 0.0 0 0 149236893.052378 87264469.988892" />
<path d="M241599658 50433634
L242194342 52812366
" />
<path d="M163274807 154294350
L201362817 146198494
" />
<path d="M74650569 114073485
L71942123 114955655
" />
<path d="M74674968.428562 113038541.231748 A200004.000000 200004.000000 0.0 0 0 74578302.074749 113045315.229670" />
<path d="M233522000.000000 50123000.000000 A1250000.000000 1250000.000000 0.0 0 0 236022000.000000 50123000.000000" />
<path d="M177425696.628883 123887734.660859 A200008.000000 200008.000000 0.0 0 0 177523058.327726 123835953.339271" />
<path d="M238381612 45123000
L236272000 45123000
" />
<path d="M109406746 122969208
L124158104 126104706
" />
<path d="M71752039.976216 113947632.299883 A200023.000000 200023.000000 0.0 0 0 71834886.923606 113938875.765624" />
<path d="M241951806 53123000
L240967194 53123000
" />
<path d="M240724664.022035 52933632.494528 A250000.000000 250000.000000 0.0 0 0 240967194.000000 53122999.999928" />
<path d="M197252957 116609269
L194642414 118172480
" />
<path d="M231935532.105507 59515832.667688 A200003.000000 200003.000000 0.0 0 0 232012932.000000 59531402.997440" />
<path d="M149367194 151316202
L150351806 151316202
" />
<path d="M74747236.929322 114066696.072145 A200043.000000 200043.000000 0.0 0 0 74650568.994689 114073484.983689" />
<path d="M150774405 72506028
L151752553 72298117
" />
<path d="M231591559 116266059
L229083696 113511966
" />
<path d="M141672000.000000 159316200.000000 A250000.000000 250000.000000 0.0 0 0 141921999.999992 159066202.000000" />
<path d="M211765698 113045315
L214509113 113938876
" />
<path d="M250879093.281320 144469520.280796 A1000000.000000 1000000.000000 0.0 0 0 251171999.999608 143762428.000000" />
<path d="M227944342 145866007
L227349658 143487275
" />
<path d="M211693432.862841 114073479.278465 A200049.000000 200049.000000 0.0 0 0 211596762.028794 114066690.163298" />
<path d="M54310563 115266059
L56861600 112464552
" />
<path d="M118279121 65794882
L120910855 68336797
" />
<path d="M144672000 159316202
L146781612 159316202
" />
<path d="M89091046.950965 116609262.399958 A200041.000000 200041.000000 0.0 0 0 89023025.000017 116583895.999902" />
<path d="M162368194 127088298
L162357898 127090206
" />
<path d="M124168400 126106614
L127034687 126560589
" />
<path d="M54331068.002080 59531389.997440 A199990.000000 199990.000000 0.0 0 0 54408462.865656 59515820.679745" />
<path d="M99106706 58654837
L84958964 56160208
" />
<path d="M136872000 144316202
L149472000 144316202
" />
<path d="M35172000 52537214
L35172000 143762428
" />
<path d="M249464893 145883748
L250879107 144469534
" />
<path d="M137219334.508233 151505569.872834 A249998.000000 249998.000000 0.0 0 0 136976806.000000 151316202.000072" />
<path d="M74674972 113038521
L89378427 115631137
" />
<path d="M136976806.000144 53123005.999928 A250006.000000 250006.000000 0.0 0 0 137219341.798828 52933633.949708" />
<path d="M44744342 145866007
L44149658 143487275
" />
<path d="M238381611.999520 151176620.999856 A500021.000000 500021.000000 0.0 0 0 238866682.621736 150797908.905404" />
<path d="M37586213.999860 50123010.000098 A999990.000000 999990.000000 0.0 0 0 36879107.289913 50415893.289919" />
<path d="M103198079 63536204
L99226216 58724480
" />
<path d="M236022000.000000 146176641.000000 A1250000.000000 1250000.000000 0.0 0 0 233522000.000000 146176641.000000" />
<path d="M229083679.101360 113511981.383320 A199976.000000 199976.000000 0.0 0 0 228914912.978094 113447717.791414" />
<path d="M55181612 45123000
L53072000 45123000
" />
<path d="M150594333.567108 151626833.891760 A249998.000000 249998.000000 0.0 0 0 150351806.000000 151316202.000072" />
<path d="M44501805.998920 146176595.999928 A249996.000000 249996.000000 0.0 0 0 44744341.741157 145866007.064665" />
<path d="M47477297.975774 150797913.757557 A500041.000000 500041.000000 0.0 0 0 47962388.000000 151176640.999856" />
<path d="M55181611.999520 151176620.999856 A500021.000000 500021.000000 0.0 0 0 55666682.621736 150797908.905404" />
<path d="M50322000 150926641
L50322000 146176641
" />
<path d="M103198074.420407 63536207.780293 A199982.000000 199982.000000 0.0 0 0 103310736.953685 63604515.217979" />
<path d="M121008218 68388572
L134799359 71319969
" />
<path d="M227349658 52812366
L227944342 50433634
" />
<path d="M248757786 50123000
L241842194 50123000
" />
<path d="M77688054.961914 57458623.366924 A200023.000000 200023.000000 0.0 0 0 77771527.866959 57449698.595738" />
<path d="M231162387.999736 45122989.000144 A500011.000000 500011.000000 0.0 0 0 230677317.431308 45501732.107825" />
<path d="M54532400.000000 60531403.000000 A200003.000000 200003.000000 0.0 0 0 54609795.105199 60515821.250674" />
<path d="M165824228.124903 69307119.782274 A200000.000000 200000.000000 0.0 0 0 165921585.222236 69255316.229961" />
<path d="M241842193.999856 50122994.000072 A250006.000000 250006.000000 0.0 0 0 241599658.201172 50433633.949708" />
<path d="M52822000 146176641
L52822000 150926641
" />
<path d="M45376806.000144 53123005.999928 A250006.000000 250006.000000 0.0 0 0 45619341.798828 52933633.949708" />
<path d="M144672000.000000 45123000.000000 A250000.000000 250000.000000 0.0 0 0 144422000.000000 45373000.000000" />
<path d="M236272000.000000 45123000.000000 A250000.000000 250000.000000 0.0 0 0 236022000.000000 45373000.000000" />
<path d="M54604563 116331403
L40172000 116331403
" />
<path d="M84861665 56167209
L77880486 58466659
" />
<path d="M236272000 151176641
L238381612 151176641
" />
<path d="M201570729 146176641
L227701806 146176641
" />
<path d="M231734204.894801 60515821.250674 A200003.000000 200003.000000 0.0 0 0 231811600.000000 60531403.000000" />
<path d="M71834887 113938876
L74578302 113045315
" />
<path d="M147266683 158937470
L149124658 151505568
" />
<path d="M44149664.022035 52812367.505472 A250000.000000 250000.000000 0.0 0 0 44392194.000000 53122999.999928" />
<path d="M35171981.000392 143762428.000532 A1000019.000000 1000019.000000 0.0 0 0 35464893.283908 144469533.716081" />
<path d="M151752553 72298117
L165824222 69307091
" />
<path d="M37586214 146176641
L44501806 146176641
" />
<path d="M187237294 58654837
L201385036 56160208
" />
<path d="M141922000 159066202
L141922000 154316202
" />
<path d="M134591447 72298117
L120519778 69307091
" />
<path d="M71859278 114964392
L57429087 113447718
" />
<path d="M194271575 117228963
L196897554 115656510
" />
<path d="M99226227.265033 58724470.699642 A199997.000000 199997.000000 0.0 0 0 99106705.943690 58654837.319571" />
<path d="M137109050.667098 87260053.566911 A20000000.000000 20000000.000000 0.0 0 0 136672000.000004 91418287.000000" />
<path d="M136344335.977965 50433632.494528 A250000.000000 250000.000000 0.0 0 0 136101806.000000 50123000.000072" />
<path d="M242194286.554352 143487261.129558 A249959.000000 249959.000000 0.0 0 0 241951806.000000 143176641.000072" />
<path d="M91701581.199507 118172488.019049 A199984.000000 199984.000000 0.0 0 0 91762753.066794 118196520.685504" />
<path d="M55666683 150797909
L57524658 143366007
" />
<path d="M139077317 45501732
L137219342 52933634
" />
<path d="M63042059.347970 55919263.607323 A200027.000000 200027.000000 0.0 0 0 62943756.087813 55933773.209120" />
<path d="M55666671.897110 45501734.775660 A500000.000000 500000.000000 0.0 0 0 55181612.000000 45123000.000144" />
<path d="M136344342 154005568
L135749658 151626836
" />
<path d="M159309313 126560589
L162175600 126106614
" />
<path d="M180154792 121294038
L177523058 123835953
" />
<path d="M126878253 127548278
L123986102 127090206
" />
<path d="M179763715 120323744
L194210409 117253004
" />
<path d="M141922000.000000 50123000.000000 A1250000.000000 1250000.000000 0.0 0 0 144422000.000000 50123000.000000" />
<path d="M228819342 143366007
L230677317 150797909
" />
<path d="M240967194 143176641
L241951806 143176641
" />
<path d="M246172000 59531403
L232012932 59531403
" />
<path d="M211596762 114066690
L197320975 116583896
" />
<path d="M144422000 154316202
L144422000 159066202
" />
<path d="M228576806.000144 53123005.999928 A250006.000000 250006.000000 0.0 0 0 228819341.798828 52933633.949708" />
<path d="M117693317 66661627
L103310737 63604515
" />
<path d="M118279121.938813 65794881.028093 A199958.000000 199958.000000 0.0 0 0 118181757.950076 65743108.234965" />
<path d="M149672000 91413563
L149672000 109316202
" />
<path d="M140264887 72412999
L137109048 87260053
" />
<path d="M162175600 126106614
L162185896 126104706
" />
<path d="M165921585 69255316
L168553320 66713402
" />
<path d="M91701586 118172480
L89091043 116609269
" />
<path d="M149472000.000000 144316200.000000 A200000.000000 200000.000000 0.0 0 0 149671999.999990 144116202.000000" />
<path d="M149999658 50433634
L150594342 52812366
" />
<path d="M147266671.897110 45501734.775660 A500000.000000 500000.000000 0.0 0 0 146781612.000000 45123000.000144" />
<path d="M52822000.000000 146176641.000000 A1250000.000000 1250000.000000 0.0 0 0 50322000.000000 146176641.000000" />
<path d="M58751806 53123000
L57767194 53123000
" />
<g >
</g>
<g >
</g>
<g >
</g>
<g >
</g>
<g >
</g>
<g >
</g>
<g >
</g>
<g >
</g>
<g >
</g>
<g >
</g>
<g >
</g>
<g >
</g>
<g >
</g>
<g >
</g>
<g >
</g>
<g >
</g>
<g >
</g>
<g >
</g>
<g >
</g>
<g >
</g>
<g >
</g>
<g >
</g>
<g >
</g>
<g >
</g>
<g >
</g>
<g >
</g>
<g >
</g>
<g >
</g>
<g >
</g>
<g >
</g>
<g >
</g>
<g >
</g>
<g >
</g>
<g >
</g>
<g >
</g>
<g >
</g>
<g >
</g>
<g >
</g>
<g >
</g>
<g >
</g>
<g >
</g>
<g >
</g>
<g >
</g>
<g >
</g>
<g >
</g>
<g >
</g>
<g >
</g>
<g >
</g>
<g >
</g>
<g >
</g>
<g >
</g>
<g >
</g>
<g >
</g>
<g >
</g>
<g >
</g>
<g >
</g>
<g >
</g>
<g >
</g>
<g >
</g>
<g >
</g>
<g >
</g>
<g >
</g>
<g >
</g>
<g >
</g>
<g >
</g>
<g >
</g>
<g >
</g>
<g >
</g>
<g >
</g>
<g >
</g>
<g >
</g>
<g >
</g>
<g >
</g>
<g >
</g>
<g >
</g>
<g >
</g>
<g >
</g>
<g >
</g>
<g >
</g>
</g> 
</svg>
