<?xml version="1.0" standalone="no"?>
 <!DOCTYPE svg PUBLIC "-//W3C//DTD SVG 1.1//EN" 
 "http://www.w3.org/Graphics/SVG/1.1/DTD/svg11.dtd"> 
<svg
  xmlns:svg="http://www.w3.org/2000/svg"
  xmlns="http://www.w3.org/2000/svg"
  xmlns:xlink="http://www.w3.org/1999/xlink"
  version="1.1"
  width="29.700220cm" height="21.000720cm" viewBox="0 0 297002200 210007200">
<title>SVG Picture created as The-ENDGAME-MX-BAD-F_Fab.svg date 2022/12/02 00:30:19 </title>
  <desc>Picture generated by PCBNEW </desc>
<g style="fill:#000000; fill-opacity:1.000000;stroke:#000000; stroke-opacity:1.000000;
stroke-linecap:round; stroke-linejoin:round;"
 transform="translate(0 0) scale(1 1)">
</g>
<g style="fill:#000000; fill-opacity:0.0; 
stroke:#000000; stroke-width:0.000000; stroke-opacity:1; 
stroke-linecap:round; stroke-linejoin:round;">
</g>
<g style="fill:#000000; fill-opacity:0.0; 
stroke:#000000; stroke-width:150000.000000; stroke-opacity:1; 
stroke-linecap:round; stroke-linejoin:round;">
<g transform="rotate(-168.000000 103245211.000000 100030563.000000)">
<text x="103245211.000000" y="100530563.000000"
textLength="6476191.000000" font-size="1333333.000000" lengthAdjust="spacingAndGlyphs"
text-anchor="middle" opacity="0">SW_Push</text>
</g>
<g class="stroked-text"><desc>SW_Push</desc>
<path d="M106310386 100268281
L106180552 100192001
L105947659 100142498
L105844602 100169276
L105788123 100205954
L105721743 100289210
L105701942 100382367
L105728720 100485424
L105765397 100541903
L105848654 100608283
L106025067 100694464
L106108323 100760843
L106145001 100817322
L106171779 100920380
L106151978 101013537
L106085598 101096793
L106029119 101133471
L105926062 101160248
L105693169 101110745
L105563334 101034465
" />
<path d="M105227385 101011740
L105202404 99984089
L104867582 100643164
L104829776 99904885
L104388972 100833530
" />
<path d="M104476950 99732524
L103731695 99574115
" />
<path d="M103479001 99617769
L103271089 100595916
L102898462 100516712
L102815205 100450332
L102778528 100393853
L102751750 100290796
L102781452 100151061
L102847831 100067804
L102904310 100031126
L103007368 100004349
L103379996 100083553
" />
<path d="M101943040 99972851
L102081647 99320752
" />
<path d="M102362246 100061956
L102471152 99549593
L102444375 99446535
L102361118 99380155
L102221383 99350454
L102118325 99377231
L102061846 99413909
" />
<path d="M101652541 99278226
L101569284 99211846
L101382971 99172244
L101279913 99199021
L101213534 99282277
L101203633 99328856
L101230410 99431913
L101313667 99498293
L101453402 99527995
L101536658 99594374
L101563436 99697432
L101553535 99744010
L101487156 99827267
L101384098 99854044
L101244363 99824342
L101161106 99757963
" />
<path d="M100824029 99053437
L100616117 100031585
" />
<path d="M100404823 98964332
L100295917 99476695
L100322694 99579753
L100405951 99646132
L100545686 99675834
L100648743 99649056
L100705222 99612379
" />
</g><text x="239275185.000000" y="113689754.000000"
textLength="6671190.000000" font-size="1333333.000000" lengthAdjust="spacingAndGlyphs"
text-anchor="middle" opacity="0">SW_Push</text>
<g class="stroked-text"><desc>SW_Push</desc>
<path d="M236227565 113594515
L236370423 113642134
L236608518 113642134
L236703756 113594515
L236751375 113546896
L236798994 113451658
L236798994 113356420
L236751375 113261182
L236703756 113213563
L236608518 113165944
L236418042 113118325
L236322804 113070706
L236275185 113023087
L236227565 112927849
L236227565 112832611
L236275185 112737373
L236322804 112689754
L236418042 112642134
L236656137 112642134
L236798994 112689754
" />
<path d="M237132327 112642134
L237370423 113642134
L237560899 112927849
L237751375 113642134
L237989470 112642134
" />
<path d="M238132327 113737373
L238894232 113737373
" />
<path d="M239132327 113642134
L239132327 112642134
L239513280 112642134
L239608518 112689754
L239656137 112737373
L239703756 112832611
L239703756 112975468
L239656137 113070706
L239608518 113118325
L239513280 113165944
L239132327 113165944
" />
<path d="M240560899 112975468
L240560899 113642134
" />
<path d="M240132327 112975468
L240132327 113499277
L240179946 113594515
L240275185 113642134
L240418042 113642134
L240513280 113594515
L240560899 113546896
" />
<path d="M240989470 113594515
L241084708 113642134
L241275185 113642134
L241370423 113594515
L241418042 113499277
L241418042 113451658
L241370423 113356420
L241275185 113308801
L241132327 113308801
L241037089 113261182
L240989470 113165944
L240989470 113118325
L241037089 113023087
L241132327 112975468
L241275185 112975468
L241370423 113023087
" />
<path d="M241846613 113642134
L241846613 112642134
" />
<path d="M242275185 113642134
L242275185 113118325
L242227565 113023087
L242132327 112975468
L241989470 112975468
L241894232 113023087
L241846613 113070706
" />
</g><text x="239275185.000000" y="79689754.000000"
textLength="6671190.000000" font-size="1333333.000000" lengthAdjust="spacingAndGlyphs"
text-anchor="middle" opacity="0">SW_Push</text>
<g class="stroked-text"><desc>SW_Push</desc>
<path d="M236227565 79594515
L236370423 79642134
L236608518 79642134
L236703756 79594515
L236751375 79546896
L236798994 79451658
L236798994 79356420
L236751375 79261182
L236703756 79213563
L236608518 79165944
L236418042 79118325
L236322804 79070706
L236275185 79023087
L236227565 78927849
L236227565 78832611
L236275185 78737373
L236322804 78689754
L236418042 78642134
L236656137 78642134
L236798994 78689754
" />
<path d="M237132327 78642134
L237370423 79642134
L237560899 78927849
L237751375 79642134
L237989470 78642134
" />
<path d="M238132327 79737373
L238894232 79737373
" />
<path d="M239132327 79642134
L239132327 78642134
L239513280 78642134
L239608518 78689754
L239656137 78737373
L239703756 78832611
L239703756 78975468
L239656137 79070706
L239608518 79118325
L239513280 79165944
L239132327 79165944
" />
<path d="M240560899 78975468
L240560899 79642134
" />
<path d="M240132327 78975468
L240132327 79499277
L240179946 79594515
L240275185 79642134
L240418042 79642134
L240513280 79594515
L240560899 79546896
" />
<path d="M240989470 79594515
L241084708 79642134
L241275185 79642134
L241370423 79594515
L241418042 79499277
L241418042 79451658
L241370423 79356420
L241275185 79308801
L241132327 79308801
L241037089 79261182
L240989470 79165944
L240989470 79118325
L241037089 79023087
L241132327 78975468
L241275185 78975468
L241370423 79023087
" />
<path d="M241846613 79642134
L241846613 78642134
" />
<path d="M242275185 79642134
L242275185 79118325
L242227565 79023087
L242132327 78975468
L241989470 78975468
L241894232 79023087
L241846613 79070706
" />
</g><text x="47074185.000000" y="79681754.000000"
textLength="6671190.000000" font-size="1333333.000000" lengthAdjust="spacingAndGlyphs"
text-anchor="middle" opacity="0">SW_Push</text>
<g class="stroked-text"><desc>SW_Push</desc>
<path d="M44026565 79586515
L44169423 79634134
L44407518 79634134
L44502756 79586515
L44550375 79538896
L44597994 79443658
L44597994 79348420
L44550375 79253182
L44502756 79205563
L44407518 79157944
L44217042 79110325
L44121804 79062706
L44074185 79015087
L44026565 78919849
L44026565 78824611
L44074185 78729373
L44121804 78681754
L44217042 78634134
L44455137 78634134
L44597994 78681754
" />
<path d="M44931327 78634134
L45169423 79634134
L45359899 78919849
L45550375 79634134
L45788470 78634134
" />
<path d="M45931327 79729373
L46693232 79729373
" />
<path d="M46931327 79634134
L46931327 78634134
L47312280 78634134
L47407518 78681754
L47455137 78729373
L47502756 78824611
L47502756 78967468
L47455137 79062706
L47407518 79110325
L47312280 79157944
L46931327 79157944
" />
<path d="M48359899 78967468
L48359899 79634134
" />
<path d="M47931327 78967468
L47931327 79491277
L47978946 79586515
L48074185 79634134
L48217042 79634134
L48312280 79586515
L48359899 79538896
" />
<path d="M48788470 79586515
L48883708 79634134
L49074185 79634134
L49169423 79586515
L49217042 79491277
L49217042 79443658
L49169423 79348420
L49074185 79300801
L48931327 79300801
L48836089 79253182
L48788470 79157944
L48788470 79110325
L48836089 79015087
L48931327 78967468
L49074185 78967468
L49169423 79015087
" />
<path d="M49645613 79634134
L49645613 78634134
" />
<path d="M50074185 79634134
L50074185 79110325
L50026565 79015087
L49931327 78967468
L49788470 78967468
L49693232 79015087
L49645613 79062706
" />
</g><g transform="rotate(-168.000000 115798717.000000 149186072.000000)">
<text x="115798717.000000" y="149686072.000000"
textLength="6671190.000000" font-size="1333333.000000" lengthAdjust="spacingAndGlyphs"
text-anchor="middle" opacity="0">SW_Push</text>
</g>
<g class="stroked-text"><desc>SW_Push</desc>
<path d="M118863892 149423790
L118734058 149347510
L118501165 149298007
L118398108 149324785
L118341629 149361463
L118275249 149444719
L118255448 149537876
L118282226 149640933
L118318903 149697412
L118402160 149763792
L118578573 149849973
L118661829 149916352
L118698507 149972831
L118725285 150075889
L118705484 150169046
L118639104 150252302
L118582625 150288980
L118479568 150315757
L118246675 150266254
L118116840 150189974
" />
<path d="M117780891 150167249
L117755910 149139598
L117421088 149798673
L117383282 149060394
L116942478 149989039
" />
<path d="M117030456 148888033
L116285201 148729624
" />
<path d="M116032507 148773278
L115824595 149751425
L115451968 149672221
L115368711 149605841
L115332034 149549362
L115305256 149446305
L115334958 149306570
L115401337 149223313
L115457816 149186635
L115560874 149159858
L115933502 149239062
" />
<path d="M114496546 149128360
L114635153 148476261
" />
<path d="M114915752 149217465
L115024658 148705102
L114997881 148602044
L114914624 148535664
L114774889 148505963
L114671831 148532740
L114615352 148569418
" />
<path d="M114206047 148433735
L114122790 148367355
L113936477 148327753
L113833419 148354530
L113767040 148437786
L113757139 148484365
L113783916 148587422
L113867173 148653802
L114006908 148683504
L114090164 148749883
L114116942 148852941
L114107041 148899519
L114040662 148982776
L113937604 149009553
L113797869 148979851
L113714612 148913472
" />
<path d="M113377535 148208946
L113169623 149187094
" />
<path d="M112958329 148119841
L112849423 148632204
L112876200 148735262
L112959457 148801641
L113099192 148831343
L113202249 148804565
L113258728 148767888
" />
</g><g transform="rotate(-12.000000 169451127.000000 122365953.000000)">
<text x="169451127.000000" y="122865953.000000"
textLength="6671190.000000" font-size="1333333.000000" lengthAdjust="spacingAndGlyphs"
text-anchor="middle" opacity="0">SW_Push</text>
</g>
<g class="stroked-text"><desc>SW_Push</desc>
<path d="M166554260 123395505
L166703896 123412382
L166936788 123362879
L167020045 123296499
L167056722 123240020
L167083500 123136963
L167063699 123043806
L166997319 122960550
L166940840 122923872
L166837783 122897094
L166641568 122890118
L166538511 122863341
L166482032 122826663
L166415652 122743407
L166395851 122650250
L166422628 122547192
L166459306 122490713
L166542563 122424334
L166775455 122374831
L166925091 122391708
" />
<path d="M167241240 122275825
L167682044 123204470
L167719849 122466191
L168054671 123125266
L168079652 122097615
" />
<path d="M168447100 123139218
L169192355 122980809
" />
<path d="M169405446 122838150
L169197535 121860002
L169570162 121780797
L169673220 121807575
L169729699 121844253
L169796078 121927509
L169825780 122067244
L169799003 122170302
L169762325 122226781
L169679069 122293160
L169306441 122372365
" />
<path d="M170664192 121889034
L170802800 122541133
" />
<path d="M170244986 121978139
L170353892 122490502
L170420272 122573759
L170523329 122600536
L170663065 122570834
L170746321 122504455
L170782999 122447976
" />
<path d="M171212106 122405449
L171315163 122432227
L171501477 122392624
L171584733 122326245
L171611511 122223187
L171601610 122176609
L171535231 122093353
L171432173 122066575
L171292438 122096277
L171189380 122069500
L171123001 121986243
L171113100 121939665
L171139877 121836607
L171223134 121770228
L171362869 121740526
L171465927 121767303
" />
<path d="M172060418 122273818
L171852507 121295670
" />
<path d="M172479625 122184713
L172370718 121672350
L172304339 121589093
L172201281 121562316
L172061546 121592018
L171978290 121658397
L171941612 121714876
" />
</g><g transform="rotate(-168.000000 116898722.000000 122361068.000000)">
<text x="116898722.000000" y="122861068.000000"
textLength="6671190.000000" font-size="1333333.000000" lengthAdjust="spacingAndGlyphs"
text-anchor="middle" opacity="0">SW_Push</text>
</g>
<g class="stroked-text"><desc>SW_Push</desc>
<path d="M119963897 122598786
L119834063 122522506
L119601170 122473003
L119498113 122499781
L119441634 122536459
L119375254 122619715
L119355453 122712872
L119382231 122815929
L119418908 122872408
L119502165 122938788
L119678578 123024969
L119761834 123091348
L119798512 123147827
L119825290 123250885
L119805489 123344042
L119739109 123427298
L119682630 123463976
L119579573 123490753
L119346680 123441250
L119216845 123364970
" />
<path d="M118880896 123342245
L118855915 122314594
L118521093 122973669
L118483287 122235390
L118042483 123164035
" />
<path d="M118130461 122063029
L117385206 121904620
" />
<path d="M117132512 121948274
L116924600 122926421
L116551973 122847217
L116468716 122780837
L116432039 122724358
L116405261 122621301
L116434963 122481566
L116501342 122398309
L116557821 122361631
L116660879 122334854
L117033507 122414058
" />
<path d="M115596551 122303356
L115735158 121651257
" />
<path d="M116015757 122392461
L116124663 121880098
L116097886 121777040
L116014629 121710660
L115874894 121680959
L115771836 121707736
L115715357 121744414
" />
<path d="M115306052 121608731
L115222795 121542351
L115036482 121502749
L114933424 121529526
L114867045 121612782
L114857144 121659361
L114883921 121762418
L114967178 121828798
L115106913 121858500
L115190169 121924879
L115216947 122027937
L115207046 122074515
L115140667 122157772
L115037609 122184549
L114897874 122154847
L114814617 122088468
" />
<path d="M114477540 121383942
L114269628 122362090
" />
<path d="M114058334 121294837
L113949428 121807200
L113976205 121910258
L114059462 121976637
L114199197 122006339
L114302254 121979561
L114358733 121942884
" />
</g><g transform="rotate(-170.000000 88836530.000000 75778921.000000)">
<text x="88836530.000000" y="76278921.000000"
textLength="6671190.000000" font-size="1333333.000000" lengthAdjust="spacingAndGlyphs"
text-anchor="middle" opacity="0">SW_Push</text>
</g>
<g class="stroked-text"><desc>SW_Push</desc>
<path d="M91908135 75909521
L91775717 75837819
L91541239 75796474
L91439178 75826832
L91384014 75865458
L91320580 75950981
L91304042 76044772
L91334400 76146832
L91373027 76201997
L91458549 76265430
L91637862 76345402
L91723385 76408835
L91762011 76464000
L91792369 76566060
L91775831 76659851
L91712398 76745373
L91657233 76784000
L91555173 76814358
L91320695 76773013
L91188277 76701310
" />
<path d="M90851739 76690323
L90790909 75664171
L90479292 76334529
L90415744 75598019
L90007618 76541482
" />
<path d="M90057117 75438076
L89306787 75305773
" />
<path d="M89055771 75358219
L88882123 76343027
L88506958 76276875
L88421436 76213442
L88382810 76158277
L88352452 76056217
L88377259 75915530
L88440692 75830008
L88495857 75791381
L88597917 75761023
L88973082 75827175
" />
<path d="M87533138 75766689
L87648903 75110150
" />
<path d="M87955198 75841109
L88046157 75325258
L88015799 75223198
L87930277 75159764
L87789590 75134957
L87687530 75165315
L87632365 75203942
" />
<path d="M87218574 75082625
L87133052 75019192
L86945469 74986116
L86843409 75016474
L86779975 75101996
L86771706 75148891
L86802064 75250952
L86887586 75314385
L87028273 75339192
L87113795 75402626
L87144153 75504686
L87135884 75551581
L87072451 75637104
L86970390 75667461
L86829704 75642654
L86744181 75579221
" />
<path d="M86382722 74886888
L86209074 75871696
" />
<path d="M85960661 74812468
L85869703 75328319
L85900060 75430380
L85985583 75493813
L86126270 75518620
L86228330 75488262
L86283494 75449636
" />
</g><g transform="rotate(-10.000000 197512921.000000 75788443.000000)">
<text x="197512921.000000" y="76288443.000000"
textLength="6671190.000000" font-size="1333333.000000" lengthAdjust="spacingAndGlyphs"
text-anchor="middle" opacity="0">SW_Push</text>
</g>
<g class="stroked-text"><desc>SW_Push</desc>
<path d="M194581888 76716269
L194730844 76738357
L194965322 76697013
L195050844 76633579
L195089471 76578414
L195119828 76476354
L195103290 76382563
L195039857 76297041
L194984692 76258414
L194882632 76228057
L194686781 76214237
L194584720 76183879
L194529556 76145252
L194466122 76059730
L194449584 75965939
L194479942 75863879
L194518569 75808714
L194604091 75745281
L194838569 75703936
L194987525 75726025
" />
<path d="M195307525 75621246
L195715651 76564709
L195779199 75828199
L196090816 76498558
L196151646 75472405
" />
<path d="M196482519 76526197
L197232849 76393894
" />
<path d="M197450789 76258758
L197277141 75273950
L197652305 75207798
L197754366 75238156
L197809530 75276783
L197872964 75362305
L197897771 75502992
L197867413 75605052
L197828786 75660216
L197743264 75723650
L197368099 75789802
" />
<path d="M198741892 75354150
L198857657 76010689
" />
<path d="M198319831 75428571
L198410790 75944423
L198474223 76029945
L198576283 76060303
L198716970 76035496
L198802492 75972062
L198841119 75916898
" />
<path d="M199271449 75889373
L199373509 75919730
L199561091 75886654
L199646613 75823221
L199676971 75721161
L199668702 75674265
L199605269 75588743
L199503208 75558385
L199362522 75583192
L199260461 75552834
L199197028 75467312
L199188759 75420416
L199219117 75318356
L199304639 75254923
L199445326 75230116
L199547386 75260474
" />
<path d="M200123838 75787427
L199950190 74802619
" />
<path d="M200545899 75713006
L200454940 75197155
L200391507 75111632
L200289447 75081275
L200148760 75106081
L200063238 75169515
L200024611 75224680
" />
</g><g transform="rotate(-174.000000 66652630.000000 93150149.000000)">
<text x="66652630.000000" y="93650149.000000"
textLength="6671190.000000" font-size="1333333.000000" lengthAdjust="spacingAndGlyphs"
text-anchor="middle" opacity="0">SW_Push</text>
</g>
<g class="stroked-text"><desc>SW_Push</desc>
<path d="M69725863 93066167
L69588766 93003876
L69351975 92978988
L69252281 93016391
L69199945 93058772
L69142632 93148511
L69132677 93243227
L69170080 93342921
L69212460 93395257
L69302199 93452570
L69486654 93519839
L69576393 93577152
L69618774 93629488
L69656177 93729181
L69646222 93823898
L69588909 93913637
L69536573 93956017
L69436879 93993420
L69200088 93968533
L69062991 93906242
" />
<path d="M68726506 93918757
L68594244 92899348
L68330148 93589810
L68215378 92859527
L67874059 93829161
" />
<path d="M67846468 92724990
L67088737 92645350
" />
<path d="M66841991 92715178
L66737462 93709700
L66358597 93669880
L66268858 93612567
L66226477 93560231
L66189074 93460537
L66204007 93318462
L66261320 93228724
L66313656 93186343
L66413350 93148940
L66792215 93188760
" />
<path d="M65351560 93228867
L65421245 92565852
" />
<path d="M65777783 93273665
L65832536 92752724
L65795133 92653031
L65705394 92595717
L65563320 92580785
L65463626 92618188
L65411290 92660568
" />
<path d="M64990044 92568412
L64900305 92511099
L64710872 92491189
L64611178 92528592
L64553865 92618331
L64548888 92665689
L64586291 92765383
L64676030 92822696
L64818104 92837629
L64907843 92894942
L64945246 92994636
L64940269 93041994
L64882955 93131733
L64783261 93169136
L64641187 93154203
L64551448 93096890
" />
<path d="M64142574 92431458
L64038046 93425980
" />
<path d="M63716350 92386660
L63661597 92907600
L63699001 93007294
L63788739 93064608
L63930814 93079540
L64030508 93042137
L64082844 92999756
" />
</g><text x="51578183.000000" y="143188755.000000"
textLength="6671190.000000" font-size="1333333.000000" lengthAdjust="spacingAndGlyphs"
text-anchor="middle" opacity="0">SW_Push</text>
<g class="stroked-text"><desc>SW_Push</desc>
<path d="M48530563 143093516
L48673421 143141135
L48911516 143141135
L49006754 143093516
L49054373 143045897
L49101992 142950659
L49101992 142855421
L49054373 142760183
L49006754 142712564
L48911516 142664945
L48721040 142617326
L48625802 142569707
L48578183 142522088
L48530563 142426850
L48530563 142331612
L48578183 142236374
L48625802 142188755
L48721040 142141135
L48959135 142141135
L49101992 142188755
" />
<path d="M49435325 142141135
L49673421 143141135
L49863897 142426850
L50054373 143141135
L50292468 142141135
" />
<path d="M50435325 143236374
L51197230 143236374
" />
<path d="M51435325 143141135
L51435325 142141135
L51816278 142141135
L51911516 142188755
L51959135 142236374
L52006754 142331612
L52006754 142474469
L51959135 142569707
L51911516 142617326
L51816278 142664945
L51435325 142664945
" />
<path d="M52863897 142474469
L52863897 143141135
" />
<path d="M52435325 142474469
L52435325 142998278
L52482944 143093516
L52578183 143141135
L52721040 143141135
L52816278 143093516
L52863897 143045897
" />
<path d="M53292468 143093516
L53387706 143141135
L53578183 143141135
L53673421 143093516
L53721040 142998278
L53721040 142950659
L53673421 142855421
L53578183 142807802
L53435325 142807802
L53340087 142760183
L53292468 142664945
L53292468 142617326
L53340087 142522088
L53435325 142474469
L53578183 142474469
L53673421 142522088
" />
<path d="M54149611 143141135
L54149611 142141135
" />
<path d="M54578183 143141135
L54578183 142617326
L54530563 142522088
L54435325 142474469
L54292468 142474469
L54197230 142522088
L54149611 142569707
" />
</g><g transform="rotate(-12.000000 179575130.000000 83410932.000000)">
<text x="179575130.000000" y="83910932.000000"
textLength="6671190.000000" font-size="1333333.000000" lengthAdjust="spacingAndGlyphs"
text-anchor="middle" opacity="0">SW_Push</text>
</g>
<g class="stroked-text"><desc>SW_Push</desc>
<path d="M176678263 84440484
L176827899 84457361
L177060791 84407858
L177144048 84341478
L177180725 84284999
L177207503 84181942
L177187702 84088785
L177121322 84005529
L177064843 83968851
L176961786 83942073
L176765571 83935097
L176662514 83908320
L176606035 83871642
L176539655 83788386
L176519854 83695229
L176546631 83592171
L176583309 83535692
L176666566 83469313
L176899458 83419810
L177049094 83436687
" />
<path d="M177365243 83320804
L177806047 84249449
L177843852 83511170
L178178674 84170245
L178203655 83142594
" />
<path d="M178571103 84184197
L179316358 84025788
" />
<path d="M179529449 83883129
L179321538 82904981
L179694165 82825776
L179797223 82852554
L179853702 82889232
L179920081 82972488
L179949783 83112223
L179923006 83215281
L179886328 83271760
L179803072 83338139
L179430444 83417344
" />
<path d="M180788195 82934013
L180926803 83586112
" />
<path d="M180368989 83023118
L180477895 83535481
L180544275 83618738
L180647332 83645515
L180787068 83615813
L180870324 83549434
L180907002 83492955
" />
<path d="M181336109 83450428
L181439166 83477206
L181625480 83437603
L181708736 83371224
L181735514 83268166
L181725613 83221588
L181659234 83138332
L181556176 83111554
L181416441 83141256
L181313383 83114479
L181247004 83031222
L181237103 82984644
L181263880 82881586
L181347137 82815207
L181486872 82785505
L181589930 82812282
" />
<path d="M182184421 83318797
L181976510 82340649
" />
<path d="M182603628 83229692
L182494721 82717329
L182428342 82634072
L182325284 82607295
L182185549 82636997
L182102293 82703376
L182065615 82759855
" />
</g><g transform="rotate(-168.000000 99710722.000000 116659071.000000)">
<text x="99710722.000000" y="117159071.000000"
textLength="6671190.000000" font-size="1333333.000000" lengthAdjust="spacingAndGlyphs"
text-anchor="middle" opacity="0">SW_Push</text>
</g>
<g class="stroked-text"><desc>SW_Push</desc>
<path d="M102775897 116896789
L102646063 116820509
L102413170 116771006
L102310113 116797784
L102253634 116834462
L102187254 116917718
L102167453 117010875
L102194231 117113932
L102230908 117170411
L102314165 117236791
L102490578 117322972
L102573834 117389351
L102610512 117445830
L102637290 117548888
L102617489 117642045
L102551109 117725301
L102494630 117761979
L102391573 117788756
L102158680 117739253
L102028845 117662973
" />
<path d="M101692896 117640248
L101667915 116612597
L101333093 117271672
L101295287 116533393
L100854483 117462038
" />
<path d="M100942461 116361032
L100197206 116202623
" />
<path d="M99944512 116246277
L99736600 117224424
L99363973 117145220
L99280716 117078840
L99244039 117022361
L99217261 116919304
L99246963 116779569
L99313342 116696312
L99369821 116659634
L99472879 116632857
L99845507 116712061
" />
<path d="M98408551 116601359
L98547158 115949260
" />
<path d="M98827757 116690464
L98936663 116178101
L98909886 116075043
L98826629 116008663
L98686894 115978962
L98583836 116005739
L98527357 116042417
" />
<path d="M98118052 115906734
L98034795 115840354
L97848482 115800752
L97745424 115827529
L97679045 115910785
L97669144 115957364
L97695921 116060421
L97779178 116126801
L97918913 116156503
L98002169 116222882
L98028947 116325940
L98019046 116372518
L97952667 116455775
L97849609 116482552
L97709874 116452850
L97626617 116386471
" />
<path d="M97289540 115681945
L97081628 116660093
" />
<path d="M96870334 115592840
L96761428 116105203
L96788205 116208261
L96871462 116274640
L97011197 116304342
L97114254 116277564
L97170733 116240887
" />
</g><g transform="rotate(-6.000000 217922861.000000 76252142.000000)">
<text x="217922861.000000" y="76752142.000000"
textLength="6671190.000000" font-size="1333333.000000" lengthAdjust="spacingAndGlyphs"
text-anchor="middle" opacity="0">SW_Push</text>
</g>
<g class="stroked-text"><desc>SW_Push</desc>
<path d="M214934246 76973249
L215081298 77005675
L215318089 76980787
L215407828 76923474
L215450208 76871138
L215487611 76771444
L215477656 76676728
L215420343 76586989
L215368007 76544608
L215268313 76507205
L215073903 76479757
L214974209 76442354
L214921873 76399973
L214864560 76310234
L214854605 76215518
L214892008 76115824
L214934389 76063488
L215024128 76006175
L215260919 75981287
L215407971 76013713
" />
<path d="M215734500 75931512
L216075820 76901146
L216190589 76170863
L216454685 76861326
L216586948 75841916
" />
<path d="M216843506 76916222
L217601237 76836581
" />
<path d="M217828073 76716977
L217723544 75722455
L218102410 75682635
L218202104 75720038
L218254439 75762418
L218311753 75852157
L218326685 75994232
L218289282 76093926
L218246901 76146261
L218157163 76203575
L217778297 76243395
" />
<path d="M219179133 75904636
L219248818 76567651
" />
<path d="M218752909 75949434
L218807662 76470374
L218864975 76560113
L218964669 76597516
L219106744 76582583
L219196482 76525270
L219238863 76472934
" />
<path d="M219670064 76475494
L219769758 76512898
L219959191 76492987
L220048930 76435674
L220086333 76335980
L220081355 76288622
L220024042 76198883
L219924348 76161480
L219782274 76176413
L219682580 76139010
L219625266 76049271
L219620289 76001913
L219657692 75902219
L219747431 75844905
L219889505 75829973
L219989199 75867376
" />
<path d="M220527489 76433257
L220422961 75438735
" />
<path d="M220953713 76388459
L220898960 75867519
L220841647 75777780
L220741953 75740377
L220599878 75755310
L220510139 75812623
L220467759 75864959
" />
</g><text x="47074188.000000" y="96681752.000000"
textLength="6671190.000000" font-size="1333333.000000" lengthAdjust="spacingAndGlyphs"
text-anchor="middle" opacity="0">SW_Push</text>
<g class="stroked-text"><desc>SW_Push</desc>
<path d="M44026568 96586513
L44169426 96634132
L44407521 96634132
L44502759 96586513
L44550378 96538894
L44597997 96443656
L44597997 96348418
L44550378 96253180
L44502759 96205561
L44407521 96157942
L44217045 96110323
L44121807 96062704
L44074188 96015085
L44026568 95919847
L44026568 95824609
L44074188 95729371
L44121807 95681752
L44217045 95634132
L44455140 95634132
L44597997 95681752
" />
<path d="M44931330 95634132
L45169426 96634132
L45359902 95919847
L45550378 96634132
L45788473 95634132
" />
<path d="M45931330 96729371
L46693235 96729371
" />
<path d="M46931330 96634132
L46931330 95634132
L47312283 95634132
L47407521 95681752
L47455140 95729371
L47502759 95824609
L47502759 95967466
L47455140 96062704
L47407521 96110323
L47312283 96157942
L46931330 96157942
" />
<path d="M48359902 95967466
L48359902 96634132
" />
<path d="M47931330 95967466
L47931330 96491275
L47978949 96586513
L48074188 96634132
L48217045 96634132
L48312283 96586513
L48359902 96538894
" />
<path d="M48788473 96586513
L48883711 96634132
L49074188 96634132
L49169426 96586513
L49217045 96491275
L49217045 96443656
L49169426 96348418
L49074188 96300799
L48931330 96300799
L48836092 96253180
L48788473 96157942
L48788473 96110323
L48836092 96015085
L48931330 95967466
L49074188 95967466
L49169426 96015085
" />
<path d="M49645616 96634132
L49645616 95634132
" />
<path d="M50074188 96634132
L50074188 96110323
L50026568 96015085
L49931330 95967466
L49788473 95967466
L49693235 96015085
L49645616 96062704
" />
</g><g transform="rotate(-168.000000 123967719.000000 89104056.000000)">
<text x="123967719.000000" y="89604056.000000"
textLength="6671190.000000" font-size="1333333.000000" lengthAdjust="spacingAndGlyphs"
text-anchor="middle" opacity="0">SW_Push</text>
</g>
<g class="stroked-text"><desc>SW_Push</desc>
<path d="M127032894 89341774
L126903060 89265494
L126670167 89215991
L126567110 89242769
L126510631 89279447
L126444251 89362703
L126424450 89455860
L126451228 89558917
L126487905 89615396
L126571162 89681776
L126747575 89767957
L126830831 89834336
L126867509 89890815
L126894287 89993873
L126874486 90087030
L126808106 90170286
L126751627 90206964
L126648570 90233741
L126415677 90184238
L126285842 90107958
" />
<path d="M125949893 90085233
L125924912 89057582
L125590090 89716657
L125552284 88978378
L125111480 89907023
" />
<path d="M125199458 88806017
L124454203 88647608
" />
<path d="M124201509 88691262
L123993597 89669409
L123620970 89590205
L123537713 89523825
L123501036 89467346
L123474258 89364289
L123503960 89224554
L123570339 89141297
L123626818 89104619
L123729876 89077842
L124102504 89157046
" />
<path d="M122665548 89046344
L122804155 88394245
" />
<path d="M123084754 89135449
L123193660 88623086
L123166883 88520028
L123083626 88453648
L122943891 88423947
L122840833 88450724
L122784354 88487402
" />
<path d="M122375049 88351719
L122291792 88285339
L122105479 88245737
L122002421 88272514
L121936042 88355770
L121926141 88402349
L121952918 88505406
L122036175 88571786
L122175910 88601488
L122259166 88667867
L122285944 88770925
L122276043 88817503
L122209664 88900760
L122106606 88927537
L121966871 88897835
L121883614 88831456
" />
<path d="M121546537 88126930
L121338625 89105078
" />
<path d="M121127331 88037825
L121018425 88550188
L121045202 88653246
L121128459 88719625
L121268194 88749327
L121371251 88722549
L121427730 88685872
" />
</g><text x="234773186.000000" y="143190753.000000"
textLength="6671190.000000" font-size="1333333.000000" lengthAdjust="spacingAndGlyphs"
text-anchor="middle" opacity="0">SW_Push</text>
<g class="stroked-text"><desc>SW_Push</desc>
<path d="M231725566 143095514
L231868424 143143133
L232106519 143143133
L232201757 143095514
L232249376 143047895
L232296995 142952657
L232296995 142857419
L232249376 142762181
L232201757 142714562
L232106519 142666943
L231916043 142619324
L231820805 142571705
L231773186 142524086
L231725566 142428848
L231725566 142333610
L231773186 142238372
L231820805 142190753
L231916043 142143133
L232154138 142143133
L232296995 142190753
" />
<path d="M232630328 142143133
L232868424 143143133
L233058900 142428848
L233249376 143143133
L233487471 142143133
" />
<path d="M233630328 143238372
L234392233 143238372
" />
<path d="M234630328 143143133
L234630328 142143133
L235011281 142143133
L235106519 142190753
L235154138 142238372
L235201757 142333610
L235201757 142476467
L235154138 142571705
L235106519 142619324
L235011281 142666943
L234630328 142666943
" />
<path d="M236058900 142476467
L236058900 143143133
" />
<path d="M235630328 142476467
L235630328 143000276
L235677947 143095514
L235773186 143143133
L235916043 143143133
L236011281 143095514
L236058900 143047895
" />
<path d="M236487471 143095514
L236582709 143143133
L236773186 143143133
L236868424 143095514
L236916043 143000276
L236916043 142952657
L236868424 142857419
L236773186 142809800
L236630328 142809800
L236535090 142762181
L236487471 142666943
L236487471 142619324
L236535090 142524086
L236630328 142476467
L236773186 142476467
L236868424 142524086
" />
<path d="M237344614 143143133
L237344614 142143133
" />
<path d="M237773186 143143133
L237773186 142619324
L237725566 142524086
L237630328 142476467
L237487471 142476467
L237392233 142524086
L237344614 142571705
" />
</g><g transform="rotate(-10.000000 200464936.000000 92530172.000000)">
<text x="200464936.000000" y="93030172.000000"
textLength="6671190.000000" font-size="1333333.000000" lengthAdjust="spacingAndGlyphs"
text-anchor="middle" opacity="0">SW_Push</text>
</g>
<g class="stroked-text"><desc>SW_Push</desc>
<path d="M197533903 93457998
L197682859 93480086
L197917337 93438742
L198002859 93375308
L198041486 93320143
L198071843 93218083
L198055305 93124292
L197991872 93038770
L197936707 93000143
L197834647 92969786
L197638796 92955966
L197536735 92925608
L197481571 92886981
L197418137 92801459
L197401599 92707668
L197431957 92605608
L197470584 92550443
L197556106 92487010
L197790584 92445665
L197939540 92467754
" />
<path d="M198259540 92362975
L198667666 93306438
L198731214 92569928
L199042831 93240287
L199103661 92214134
" />
<path d="M199434534 93267926
L200184864 93135623
" />
<path d="M200402804 93000487
L200229156 92015679
L200604320 91949527
L200706381 91979885
L200761545 92018512
L200824979 92104034
L200849786 92244721
L200819428 92346781
L200780801 92401945
L200695279 92465379
L200320114 92531531
" />
<path d="M201693907 92095879
L201809672 92752418
" />
<path d="M201271846 92170300
L201362805 92686152
L201426238 92771674
L201528298 92802032
L201668985 92777225
L201754507 92713791
L201793134 92658627
" />
<path d="M202223464 92631102
L202325524 92661459
L202513106 92628383
L202598628 92564950
L202628986 92462890
L202620717 92415994
L202557284 92330472
L202455223 92300114
L202314537 92324921
L202212476 92294563
L202149043 92209041
L202140774 92162145
L202171132 92060085
L202256654 91996652
L202397341 91971845
L202499401 92002203
" />
<path d="M203075853 92529156
L202902205 91544348
" />
<path d="M203497914 92454735
L203406955 91938884
L203343522 91853361
L203241462 91823004
L203100775 91847810
L203015253 91911244
L202976626 91966409
" />
</g><g transform="rotate(-6.000000 221476825.000000 110065881.000000)">
<text x="221476825.000000" y="110565881.000000"
textLength="6671190.000000" font-size="1333333.000000" lengthAdjust="spacingAndGlyphs"
text-anchor="middle" opacity="0">SW_Push</text>
</g>
<g class="stroked-text"><desc>SW_Push</desc>
<path d="M218488210 110786988
L218635262 110819414
L218872053 110794526
L218961792 110737213
L219004172 110684877
L219041575 110585183
L219031620 110490467
L218974307 110400728
L218921971 110358347
L218822277 110320944
L218627867 110293496
L218528173 110256093
L218475837 110213712
L218418524 110123973
L218408569 110029257
L218445972 109929563
L218488353 109877227
L218578092 109819914
L218814883 109795026
L218961935 109827452
" />
<path d="M219288464 109745251
L219629784 110714885
L219744553 109984602
L220008649 110675065
L220140912 109655655
" />
<path d="M220397470 110729961
L221155201 110650320
" />
<path d="M221382037 110530716
L221277508 109536194
L221656374 109496374
L221756068 109533777
L221808403 109576157
L221865717 109665896
L221880649 109807971
L221843246 109907665
L221800865 109960000
L221711127 110017314
L221332261 110057134
" />
<path d="M222733097 109718375
L222802782 110381390
" />
<path d="M222306873 109763173
L222361626 110284113
L222418939 110373852
L222518633 110411255
L222660708 110396322
L222750446 110339009
L222792827 110286673
" />
<path d="M223224028 110289233
L223323722 110326637
L223513155 110306726
L223602894 110249413
L223640297 110149719
L223635319 110102361
L223578006 110012622
L223478312 109975219
L223336238 109990152
L223236544 109952749
L223179230 109863010
L223174253 109815652
L223211656 109715958
L223301395 109658644
L223443469 109643712
L223543163 109681115
" />
<path d="M224081453 110246996
L223976925 109252474
" />
<path d="M224507677 110202198
L224452924 109681258
L224395611 109591519
L224295917 109554116
L224153842 109569049
L224064103 109626362
L224021723 109678698
" />
</g><g transform="rotate(-168.000000 120433213.000000 105732562.000000)">
<text x="120433213.000000" y="106232562.000000"
textLength="6671190.000000" font-size="1333333.000000" lengthAdjust="spacingAndGlyphs"
text-anchor="middle" opacity="0">SW_Push</text>
</g>
<g class="stroked-text"><desc>SW_Push</desc>
<path d="M123498388 105970280
L123368554 105894000
L123135661 105844497
L123032604 105871275
L122976125 105907953
L122909745 105991209
L122889944 106084366
L122916722 106187423
L122953399 106243902
L123036656 106310282
L123213069 106396463
L123296325 106462842
L123333003 106519321
L123359781 106622379
L123339980 106715536
L123273600 106798792
L123217121 106835470
L123114064 106862247
L122881171 106812744
L122751336 106736464
" />
<path d="M122415387 106713739
L122390406 105686088
L122055584 106345163
L122017778 105606884
L121576974 106535529
" />
<path d="M121664952 105434523
L120919697 105276114
" />
<path d="M120667003 105319768
L120459091 106297915
L120086464 106218711
L120003207 106152331
L119966530 106095852
L119939752 105992795
L119969454 105853060
L120035833 105769803
L120092312 105733125
L120195370 105706348
L120567998 105785552
" />
<path d="M119131042 105674850
L119269649 105022751
" />
<path d="M119550248 105763955
L119659154 105251592
L119632377 105148534
L119549120 105082154
L119409385 105052453
L119306327 105079230
L119249848 105115908
" />
<path d="M118840543 104980225
L118757286 104913845
L118570973 104874243
L118467915 104901020
L118401536 104984276
L118391635 105030855
L118418412 105133912
L118501669 105200292
L118641404 105229994
L118724660 105296373
L118751438 105399431
L118741537 105446009
L118675158 105529266
L118572100 105556043
L118432365 105526341
L118349108 105459962
" />
<path d="M118012031 104755436
L117804119 105733584
" />
<path d="M117592825 104666331
L117483919 105178694
L117510696 105281752
L117593953 105348131
L117733688 105377833
L117836745 105351055
L117893224 105314378
" />
</g><g transform="rotate(-10.000000 203416958.000000 109271911.000000)">
<text x="203416958.000000" y="109771911.000000"
textLength="6671190.000000" font-size="1333333.000000" lengthAdjust="spacingAndGlyphs"
text-anchor="middle" opacity="0">SW_Push</text>
</g>
<g class="stroked-text"><desc>SW_Push</desc>
<path d="M200485925 110199737
L200634881 110221825
L200869359 110180481
L200954881 110117047
L200993508 110061882
L201023865 109959822
L201007327 109866031
L200943894 109780509
L200888729 109741882
L200786669 109711525
L200590818 109697705
L200488757 109667347
L200433593 109628720
L200370159 109543198
L200353621 109449407
L200383979 109347347
L200422606 109292182
L200508128 109228749
L200742606 109187404
L200891562 109209493
" />
<path d="M201211562 109104714
L201619688 110048177
L201683236 109311667
L201994853 109982026
L202055683 108955873
" />
<path d="M202386556 110009665
L203136886 109877362
" />
<path d="M203354826 109742226
L203181178 108757418
L203556342 108691266
L203658403 108721624
L203713567 108760251
L203777001 108845773
L203801808 108986460
L203771450 109088520
L203732823 109143684
L203647301 109207118
L203272136 109273270
" />
<path d="M204645929 108837618
L204761694 109494157
" />
<path d="M204223868 108912039
L204314827 109427891
L204378260 109513413
L204480320 109543771
L204621007 109518964
L204706529 109455530
L204745156 109400366
" />
<path d="M205175486 109372841
L205277546 109403198
L205465128 109370122
L205550650 109306689
L205581008 109204629
L205572739 109157733
L205509306 109072211
L205407245 109041853
L205266559 109066660
L205164498 109036302
L205101065 108950780
L205092796 108903884
L205123154 108801824
L205208676 108738391
L205349363 108713584
L205451423 108743942
" />
<path d="M206027875 109270895
L205854227 108286087
" />
<path d="M206449936 109196474
L206358977 108680623
L206295544 108595100
L206193484 108564743
L206052797 108589549
L205967275 108652983
L205928648 108708148
" />
</g><g transform="rotate(-12.000000 165916630.000000 105737441.000000)">
<text x="165916630.000000" y="106237441.000000"
textLength="6671190.000000" font-size="1333333.000000" lengthAdjust="spacingAndGlyphs"
text-anchor="middle" opacity="0">SW_Push</text>
</g>
<g class="stroked-text"><desc>SW_Push</desc>
<path d="M163019763 106766993
L163169399 106783870
L163402291 106734367
L163485548 106667987
L163522225 106611508
L163549003 106508451
L163529202 106415294
L163462822 106332038
L163406343 106295360
L163303286 106268582
L163107071 106261606
L163004014 106234829
L162947535 106198151
L162881155 106114895
L162861354 106021738
L162888131 105918680
L162924809 105862201
L163008066 105795822
L163240958 105746319
L163390594 105763196
" />
<path d="M163706743 105647313
L164147547 106575958
L164185352 105837679
L164520174 106496754
L164545155 105469103
" />
<path d="M164912603 106510706
L165657858 106352297
" />
<path d="M165870949 106209638
L165663038 105231490
L166035665 105152285
L166138723 105179063
L166195202 105215741
L166261581 105298997
L166291283 105438732
L166264506 105541790
L166227828 105598269
L166144572 105664648
L165771944 105743853
" />
<path d="M167129695 105260522
L167268303 105912621
" />
<path d="M166710489 105349627
L166819395 105861990
L166885775 105945247
L166988832 105972024
L167128568 105942322
L167211824 105875943
L167248502 105819464
" />
<path d="M167677609 105776937
L167780666 105803715
L167966980 105764112
L168050236 105697733
L168077014 105594675
L168067113 105548097
L168000734 105464841
L167897676 105438063
L167757941 105467765
L167654883 105440988
L167588504 105357731
L167578603 105311153
L167605380 105208095
L167688637 105141716
L167828372 105112014
L167931430 105138791
" />
<path d="M168525921 105645306
L168318010 104667158
" />
<path d="M168945128 105556201
L168836221 105043838
L168769842 104960581
L168666784 104933804
L168527049 104963506
L168443793 105029885
L168407115 105086364
" />
</g><text x="47074185.000000" y="113681754.000000"
textLength="6671190.000000" font-size="1333333.000000" lengthAdjust="spacingAndGlyphs"
text-anchor="middle" opacity="0">SW_Push</text>
<g class="stroked-text"><desc>SW_Push</desc>
<path d="M44026565 113586515
L44169423 113634134
L44407518 113634134
L44502756 113586515
L44550375 113538896
L44597994 113443658
L44597994 113348420
L44550375 113253182
L44502756 113205563
L44407518 113157944
L44217042 113110325
L44121804 113062706
L44074185 113015087
L44026565 112919849
L44026565 112824611
L44074185 112729373
L44121804 112681754
L44217042 112634134
L44455137 112634134
L44597994 112681754
" />
<path d="M44931327 112634134
L45169423 113634134
L45359899 112919849
L45550375 113634134
L45788470 112634134
" />
<path d="M45931327 113729373
L46693232 113729373
" />
<path d="M46931327 113634134
L46931327 112634134
L47312280 112634134
L47407518 112681754
L47455137 112729373
L47502756 112824611
L47502756 112967468
L47455137 113062706
L47407518 113110325
L47312280 113157944
L46931327 113157944
" />
<path d="M48359899 112967468
L48359899 113634134
" />
<path d="M47931327 112967468
L47931327 113491277
L47978946 113586515
L48074185 113634134
L48217042 113634134
L48312280 113586515
L48359899 113538896
" />
<path d="M48788470 113586515
L48883708 113634134
L49074185 113634134
L49169423 113586515
L49217042 113491277
L49217042 113443658
L49169423 113348420
L49074185 113300801
L48931327 113300801
L48836089 113253182
L48788470 113157944
L48788470 113110325
L48836089 113015087
L48931327 112967468
L49074185 112967468
L49169423 113015087
" />
<path d="M49645613 113634134
L49645613 112634134
" />
<path d="M50074185 113634134
L50074185 113110325
L50026565 113015087
L49931327 112967468
L49788470 112967468
L49693232 113015087
L49645613 113062706
" />
</g><g transform="rotate(-174.000000 64875639.000000 110057016.000000)">
<text x="64875639.000000" y="110557016.000000"
textLength="6671190.000000" font-size="1333333.000000" lengthAdjust="spacingAndGlyphs"
text-anchor="middle" opacity="0">SW_Push</text>
</g>
<g class="stroked-text"><desc>SW_Push</desc>
<path d="M67948872 109973034
L67811775 109910743
L67574984 109885855
L67475290 109923258
L67422954 109965639
L67365641 110055378
L67355686 110150094
L67393089 110249788
L67435469 110302124
L67525208 110359437
L67709663 110426706
L67799402 110484019
L67841783 110536355
L67879186 110636048
L67869231 110730765
L67811918 110820504
L67759582 110862884
L67659888 110900287
L67423097 110875400
L67286000 110813109
" />
<path d="M66949515 110825624
L66817253 109806215
L66553157 110496677
L66438387 109766394
L66097068 110736028
" />
<path d="M66069477 109631857
L65311746 109552217
" />
<path d="M65065000 109622045
L64960471 110616567
L64581606 110576747
L64491867 110519434
L64449486 110467098
L64412083 110367404
L64427016 110225329
L64484329 110135591
L64536665 110093210
L64636359 110055807
L65015224 110095627
" />
<path d="M63574569 110135734
L63644254 109472719
" />
<path d="M64000792 110180532
L64055545 109659591
L64018142 109559898
L63928403 109502584
L63786329 109487652
L63686635 109525055
L63634299 109567435
" />
<path d="M63213053 109475279
L63123314 109417966
L62933881 109398056
L62834187 109435459
L62776874 109525198
L62771897 109572556
L62809300 109672250
L62899039 109729563
L63041113 109744496
L63130852 109801809
L63168255 109901503
L63163278 109948861
L63105964 110038600
L63006270 110076003
L62864196 110061070
L62774457 110003757
" />
<path d="M62365583 109338325
L62261055 110332847
" />
<path d="M61939359 109293527
L61884606 109814467
L61922010 109914161
L62011748 109971475
L62153823 109986407
L62253517 109949004
L62305853 109906623
" />
</g><g transform="rotate(-12.000000 186644130.000000 116667954.000000)">
<text x="186644130.000000" y="117167954.000000"
textLength="6671190.000000" font-size="1333333.000000" lengthAdjust="spacingAndGlyphs"
text-anchor="middle" opacity="0">SW_Push</text>
</g>
<g class="stroked-text"><desc>SW_Push</desc>
<path d="M183747263 117697506
L183896899 117714383
L184129791 117664880
L184213048 117598500
L184249725 117542021
L184276503 117438964
L184256702 117345807
L184190322 117262551
L184133843 117225873
L184030786 117199095
L183834571 117192119
L183731514 117165342
L183675035 117128664
L183608655 117045408
L183588854 116952251
L183615631 116849193
L183652309 116792714
L183735566 116726335
L183968458 116676832
L184118094 116693709
" />
<path d="M184434243 116577826
L184875047 117506471
L184912852 116768192
L185247674 117427267
L185272655 116399616
" />
<path d="M185640103 117441219
L186385358 117282810
" />
<path d="M186598449 117140151
L186390538 116162003
L186763165 116082798
L186866223 116109576
L186922702 116146254
L186989081 116229510
L187018783 116369245
L186992006 116472303
L186955328 116528782
L186872072 116595161
L186499444 116674366
" />
<path d="M187857195 116191035
L187995803 116843134
" />
<path d="M187437989 116280140
L187546895 116792503
L187613275 116875760
L187716332 116902537
L187856068 116872835
L187939324 116806456
L187976002 116749977
" />
<path d="M188405109 116707450
L188508166 116734228
L188694480 116694625
L188777736 116628246
L188804514 116525188
L188794613 116478610
L188728234 116395354
L188625176 116368576
L188485441 116398278
L188382383 116371501
L188316004 116288244
L188306103 116241666
L188332880 116138608
L188416137 116072229
L188555872 116042527
L188658930 116069304
" />
<path d="M189253421 116575819
L189045510 115597671
" />
<path d="M189672628 116486714
L189563721 115974351
L189497342 115891094
L189394284 115864317
L189254549 115894019
L189171293 115960398
L189134615 116016877
" />
</g><g transform="rotate(-12.000000 192563128.000000 144511952.000000)">
<text x="192563128.000000" y="145011952.000000"
textLength="6671190.000000" font-size="1333333.000000" lengthAdjust="spacingAndGlyphs"
text-anchor="middle" opacity="0">SW_Push</text>
</g>
<g class="stroked-text"><desc>SW_Push</desc>
<path d="M189666261 145541504
L189815897 145558381
L190048789 145508878
L190132046 145442498
L190168723 145386019
L190195501 145282962
L190175700 145189805
L190109320 145106549
L190052841 145069871
L189949784 145043093
L189753569 145036117
L189650512 145009340
L189594033 144972662
L189527653 144889406
L189507852 144796249
L189534629 144693191
L189571307 144636712
L189654564 144570333
L189887456 144520830
L190037092 144537707
" />
<path d="M190353241 144421824
L190794045 145350469
L190831850 144612190
L191166672 145271265
L191191653 144243614
" />
<path d="M191559101 145285217
L192304356 145126808
" />
<path d="M192517447 144984149
L192309536 144006001
L192682163 143926796
L192785221 143953574
L192841700 143990252
L192908079 144073508
L192937781 144213243
L192911004 144316301
L192874326 144372780
L192791070 144439159
L192418442 144518364
" />
<path d="M193776193 144035033
L193914801 144687132
" />
<path d="M193356987 144124138
L193465893 144636501
L193532273 144719758
L193635330 144746535
L193775066 144716833
L193858322 144650454
L193895000 144593975
" />
<path d="M194324107 144551448
L194427164 144578226
L194613478 144538623
L194696734 144472244
L194723512 144369186
L194713611 144322608
L194647232 144239352
L194544174 144212574
L194404439 144242276
L194301381 144215499
L194235002 144132242
L194225101 144085664
L194251878 143982606
L194335135 143916227
L194474870 143886525
L194577928 143913302
" />
<path d="M195172419 144419817
L194964508 143441669
" />
<path d="M195591626 144330712
L195482719 143818349
L195416340 143735092
L195313282 143708315
L195173547 143738017
L195090291 143804396
L195053613 143860875
" />
</g><g transform="rotate(-6.000000 219699846.000000 93159018.000000)">
<text x="219699846.000000" y="93659018.000000"
textLength="6671190.000000" font-size="1333333.000000" lengthAdjust="spacingAndGlyphs"
text-anchor="middle" opacity="0">SW_Push</text>
</g>
<g class="stroked-text"><desc>SW_Push</desc>
<path d="M216711231 93880125
L216858283 93912551
L217095074 93887663
L217184813 93830350
L217227193 93778014
L217264596 93678320
L217254641 93583604
L217197328 93493865
L217144992 93451484
L217045298 93414081
L216850888 93386633
L216751194 93349230
L216698858 93306849
L216641545 93217110
L216631590 93122394
L216668993 93022700
L216711374 92970364
L216801113 92913051
L217037904 92888163
L217184956 92920589
" />
<path d="M217511485 92838388
L217852805 93808022
L217967574 93077739
L218231670 93768202
L218363933 92748792
" />
<path d="M218620491 93823098
L219378222 93743457
" />
<path d="M219605058 93623853
L219500529 92629331
L219879395 92589511
L219979089 92626914
L220031424 92669294
L220088738 92759033
L220103670 92901108
L220066267 93000802
L220023886 93053137
L219934148 93110451
L219555282 93150271
" />
<path d="M220956118 92811512
L221025803 93474527
" />
<path d="M220529894 92856310
L220584647 93377250
L220641960 93466989
L220741654 93504392
L220883729 93489459
L220973467 93432146
L221015848 93379810
" />
<path d="M221447049 93382370
L221546743 93419774
L221736176 93399863
L221825915 93342550
L221863318 93242856
L221858340 93195498
L221801027 93105759
L221701333 93068356
L221559259 93083289
L221459565 93045886
L221402251 92956147
L221397274 92908789
L221434677 92809095
L221524416 92751781
L221666490 92736849
L221766184 92774252
" />
<path d="M222304474 93340133
L222199946 92345611
" />
<path d="M222730698 93295335
L222675945 92774395
L222618632 92684656
L222518938 92647253
L222376863 92662186
L222287124 92719499
L222244744 92771835
" />
</g><text x="131148556.000000" y="146235573.000000"
textLength="6671190.000000" font-size="1333333.000000" lengthAdjust="spacingAndGlyphs"
text-anchor="middle" opacity="0">SW_Push</text>
<g class="stroked-text"><desc>SW_Push</desc>
<path d="M128100936 146140334
L128243794 146187953
L128481889 146187953
L128577127 146140334
L128624746 146092715
L128672365 145997477
L128672365 145902239
L128624746 145807001
L128577127 145759382
L128481889 145711763
L128291413 145664144
L128196175 145616525
L128148556 145568906
L128100936 145473668
L128100936 145378430
L128148556 145283192
L128196175 145235573
L128291413 145187953
L128529508 145187953
L128672365 145235573
" />
<path d="M129005698 145187953
L129243794 146187953
L129434270 145473668
L129624746 146187953
L129862841 145187953
" />
<path d="M130005698 146283192
L130767603 146283192
" />
<path d="M131005698 146187953
L131005698 145187953
L131386651 145187953
L131481889 145235573
L131529508 145283192
L131577127 145378430
L131577127 145521287
L131529508 145616525
L131481889 145664144
L131386651 145711763
L131005698 145711763
" />
<path d="M132434270 145521287
L132434270 146187953
" />
<path d="M132005698 145521287
L132005698 146045096
L132053317 146140334
L132148556 146187953
L132291413 146187953
L132386651 146140334
L132434270 146092715
" />
<path d="M132862841 146140334
L132958079 146187953
L133148556 146187953
L133243794 146140334
L133291413 146045096
L133291413 145997477
L133243794 145902239
L133148556 145854620
L133005698 145854620
L132910460 145807001
L132862841 145711763
L132862841 145664144
L132910460 145568906
L133005698 145521287
L133148556 145521287
L133243794 145568906
" />
<path d="M133719984 146187953
L133719984 145187953
" />
<path d="M134148556 146187953
L134148556 145664144
L134100936 145568906
L134005698 145521287
L133862841 145521287
L133767603 145568906
L133719984 145616525
" />
</g><g transform="rotate(-12.000000 162382131.000000 89108933.000000)">
<text x="162382131.000000" y="89608933.000000"
textLength="6671190.000000" font-size="1333333.000000" lengthAdjust="spacingAndGlyphs"
text-anchor="middle" opacity="0">SW_Push</text>
</g>
<g class="stroked-text"><desc>SW_Push</desc>
<path d="M159485264 90138485
L159634900 90155362
L159867792 90105859
L159951049 90039479
L159987726 89983000
L160014504 89879943
L159994703 89786786
L159928323 89703530
L159871844 89666852
L159768787 89640074
L159572572 89633098
L159469515 89606321
L159413036 89569643
L159346656 89486387
L159326855 89393230
L159353632 89290172
L159390310 89233693
L159473567 89167314
L159706459 89117811
L159856095 89134688
" />
<path d="M160172244 89018805
L160613048 89947450
L160650853 89209171
L160985675 89868246
L161010656 88840595
" />
<path d="M161378104 89882198
L162123359 89723789
" />
<path d="M162336450 89581130
L162128539 88602982
L162501166 88523777
L162604224 88550555
L162660703 88587233
L162727082 88670489
L162756784 88810224
L162730007 88913282
L162693329 88969761
L162610073 89036140
L162237445 89115345
" />
<path d="M163595196 88632014
L163733804 89284113
" />
<path d="M163175990 88721119
L163284896 89233482
L163351276 89316739
L163454333 89343516
L163594069 89313814
L163677325 89247435
L163714003 89190956
" />
<path d="M164143110 89148429
L164246167 89175207
L164432481 89135604
L164515737 89069225
L164542515 88966167
L164532614 88919589
L164466235 88836333
L164363177 88809555
L164223442 88839257
L164120384 88812480
L164054005 88729223
L164044104 88682645
L164070881 88579587
L164154138 88513208
L164293873 88483506
L164396931 88510283
" />
<path d="M164991422 89016798
L164783511 88038650
" />
<path d="M165410629 88927693
L165301722 88415330
L165235343 88332073
L165132285 88305296
L164992550 88334998
L164909294 88401377
L164872616 88457856
" />
</g><g transform="rotate(-174.000000 68429615.000000 76243280.000000)">
<text x="68429615.000000" y="76743280.000000"
textLength="6671190.000000" font-size="1333333.000000" lengthAdjust="spacingAndGlyphs"
text-anchor="middle" opacity="0">SW_Push</text>
</g>
<g class="stroked-text"><desc>SW_Push</desc>
<path d="M71502848 76159298
L71365751 76097007
L71128960 76072119
L71029266 76109522
L70976930 76151903
L70919617 76241642
L70909662 76336358
L70947065 76436052
L70989445 76488388
L71079184 76545701
L71263639 76612970
L71353378 76670283
L71395759 76722619
L71433162 76822312
L71423207 76917029
L71365894 77006768
L71313558 77049148
L71213864 77086551
L70977073 77061664
L70839976 76999373
" />
<path d="M70503491 77011888
L70371229 75992479
L70107133 76682941
L69992363 75952658
L69651044 76922292
" />
<path d="M69623453 75818121
L68865722 75738481
" />
<path d="M68618976 75808309
L68514447 76802831
L68135582 76763011
L68045843 76705698
L68003462 76653362
L67966059 76553668
L67980992 76411593
L68038305 76321855
L68090641 76279474
L68190335 76242071
L68569200 76281891
" />
<path d="M67128545 76321998
L67198230 75658983
" />
<path d="M67554768 76366796
L67609521 75845855
L67572118 75746162
L67482379 75688848
L67340305 75673916
L67240611 75711319
L67188275 75753699
" />
<path d="M66767029 75661543
L66677290 75604230
L66487857 75584320
L66388163 75621723
L66330850 75711462
L66325873 75758820
L66363276 75858514
L66453015 75915827
L66595089 75930760
L66684828 75988073
L66722231 76087767
L66717254 76135125
L66659940 76224864
L66560246 76262267
L66418172 76247334
L66328433 76190021
" />
<path d="M65919559 75524589
L65815031 76519111
" />
<path d="M65493335 75479791
L65438582 76000731
L65475986 76100425
L65565724 76157739
L65707799 76172671
L65807493 76135268
L65859829 76092887
" />
</g><text x="239275186.000000" y="96689753.000000"
textLength="6671190.000000" font-size="1333333.000000" lengthAdjust="spacingAndGlyphs"
text-anchor="middle" opacity="0">SW_Push</text>
<g class="stroked-text"><desc>SW_Push</desc>
<path d="M236227566 96594514
L236370424 96642133
L236608519 96642133
L236703757 96594514
L236751376 96546895
L236798995 96451657
L236798995 96356419
L236751376 96261181
L236703757 96213562
L236608519 96165943
L236418043 96118324
L236322805 96070705
L236275186 96023086
L236227566 95927848
L236227566 95832610
L236275186 95737372
L236322805 95689753
L236418043 95642133
L236656138 95642133
L236798995 95689753
" />
<path d="M237132328 95642133
L237370424 96642133
L237560900 95927848
L237751376 96642133
L237989471 95642133
" />
<path d="M238132328 96737372
L238894233 96737372
" />
<path d="M239132328 96642133
L239132328 95642133
L239513281 95642133
L239608519 95689753
L239656138 95737372
L239703757 95832610
L239703757 95975467
L239656138 96070705
L239608519 96118324
L239513281 96165943
L239132328 96165943
" />
<path d="M240560900 95975467
L240560900 96642133
" />
<path d="M240132328 95975467
L240132328 96499276
L240179947 96594514
L240275186 96642133
L240418043 96642133
L240513281 96594514
L240560900 96546895
" />
<path d="M240989471 96594514
L241084709 96642133
L241275186 96642133
L241370424 96594514
L241418043 96499276
L241418043 96451657
L241370424 96356419
L241275186 96308800
L241132328 96308800
L241037090 96261181
L240989471 96165943
L240989471 96118324
L241037090 96023086
L241132328 95975467
L241275186 95975467
L241370424 96023086
" />
<path d="M241846614 96642133
L241846614 95642133
" />
<path d="M242275186 96642133
L242275186 96118324
L242227566 96023086
L242132328 95975467
L241989471 95975467
L241894233 96023086
L241846614 96070705
" />
</g><g transform="rotate(-170.000000 82932490.000000 109262394.000000)">
<text x="82932490.000000" y="109762394.000000"
textLength="6671190.000000" font-size="1333333.000000" lengthAdjust="spacingAndGlyphs"
text-anchor="middle" opacity="0">SW_Push</text>
</g>
<g class="stroked-text"><desc>SW_Push</desc>
<path d="M86004095 109392994
L85871677 109321292
L85637199 109279947
L85535138 109310305
L85479974 109348931
L85416540 109434454
L85400002 109528245
L85430360 109630305
L85468987 109685470
L85554509 109748903
L85733822 109828875
L85819345 109892308
L85857971 109947473
L85888329 110049533
L85871791 110143324
L85808358 110228846
L85753193 110267473
L85651133 110297831
L85416655 110256486
L85284237 110184783
" />
<path d="M84947699 110173796
L84886869 109147644
L84575252 109818002
L84511704 109081492
L84103578 110024955
" />
<path d="M84153077 108921549
L83402747 108789246
" />
<path d="M83151731 108841692
L82978083 109826500
L82602918 109760348
L82517396 109696915
L82478770 109641750
L82448412 109539690
L82473219 109399003
L82536652 109313481
L82591817 109274854
L82693877 109244496
L83069042 109310648
" />
<path d="M81629098 109250162
L81744863 108593623
" />
<path d="M82051158 109324582
L82142117 108808731
L82111759 108706671
L82026237 108643237
L81885550 108618430
L81783490 108648788
L81728325 108687415
" />
<path d="M81314534 108566098
L81229012 108502665
L81041429 108469589
L80939369 108499947
L80875935 108585469
L80867666 108632364
L80898024 108734425
L80983546 108797858
L81124233 108822665
L81209755 108886099
L81240113 108988159
L81231844 109035054
L81168411 109120577
L81066350 109150934
L80925664 109126127
L80840141 109062694
" />
<path d="M80478682 108370361
L80305034 109355169
" />
<path d="M80056621 108295941
L79965663 108811792
L79996020 108913853
L80081543 108977286
L80222230 109002093
L80324290 108971735
L80379454 108933109
" />
</g><g transform="rotate(-12.000000 183109629.000000 100039442.000000)">
<text x="183109629.000000" y="100539442.000000"
textLength="6671190.000000" font-size="1333333.000000" lengthAdjust="spacingAndGlyphs"
text-anchor="middle" opacity="0">SW_Push</text>
</g>
<g class="stroked-text"><desc>SW_Push</desc>
<path d="M180212762 101068994
L180362398 101085871
L180595290 101036368
L180678547 100969988
L180715224 100913509
L180742002 100810452
L180722201 100717295
L180655821 100634039
L180599342 100597361
L180496285 100570583
L180300070 100563607
L180197013 100536830
L180140534 100500152
L180074154 100416896
L180054353 100323739
L180081130 100220681
L180117808 100164202
L180201065 100097823
L180433957 100048320
L180583593 100065197
" />
<path d="M180899742 99949314
L181340546 100877959
L181378351 100139680
L181713173 100798755
L181738154 99771104
" />
<path d="M182105602 100812707
L182850857 100654298
" />
<path d="M183063948 100511639
L182856037 99533491
L183228664 99454286
L183331722 99481064
L183388201 99517742
L183454580 99600998
L183484282 99740733
L183457505 99843791
L183420827 99900270
L183337571 99966649
L182964943 100045854
" />
<path d="M184322694 99562523
L184461302 100214622
" />
<path d="M183903488 99651628
L184012394 100163991
L184078774 100247248
L184181831 100274025
L184321567 100244323
L184404823 100177944
L184441501 100121465
" />
<path d="M184870608 100078938
L184973665 100105716
L185159979 100066113
L185243235 99999734
L185270013 99896676
L185260112 99850098
L185193733 99766842
L185090675 99740064
L184950940 99769766
L184847882 99742989
L184781503 99659732
L184771602 99613154
L184798379 99510096
L184881636 99443717
L185021371 99414015
L185124429 99440792
" />
<path d="M185718920 99947307
L185511009 98969159
" />
<path d="M186138127 99858202
L186029220 99345839
L185962841 99262582
L185859783 99235805
L185720048 99265507
L185636792 99331886
L185600114 99388365
" />
</g><g transform="rotate(-168.000000 93787720.000000 144511078.000000)">
<text x="93787720.000000" y="145011078.000000"
textLength="6671190.000000" font-size="1333333.000000" lengthAdjust="spacingAndGlyphs"
text-anchor="middle" opacity="0">SW_Push</text>
</g>
<g class="stroked-text"><desc>SW_Push</desc>
<path d="M96852895 144748796
L96723061 144672516
L96490168 144623013
L96387111 144649791
L96330632 144686469
L96264252 144769725
L96244451 144862882
L96271229 144965939
L96307906 145022418
L96391163 145088798
L96567576 145174979
L96650832 145241358
L96687510 145297837
L96714288 145400895
L96694487 145494052
L96628107 145577308
L96571628 145613986
L96468571 145640763
L96235678 145591260
L96105843 145514980
" />
<path d="M95769894 145492255
L95744913 144464604
L95410091 145123679
L95372285 144385400
L94931481 145314045
" />
<path d="M95019459 144213039
L94274204 144054630
" />
<path d="M94021510 144098284
L93813598 145076431
L93440971 144997227
L93357714 144930847
L93321037 144874368
L93294259 144771311
L93323961 144631576
L93390340 144548319
L93446819 144511641
L93549877 144484864
L93922505 144564068
" />
<path d="M92485549 144453366
L92624156 143801267
" />
<path d="M92904755 144542471
L93013661 144030108
L92986884 143927050
L92903627 143860670
L92763892 143830969
L92660834 143857746
L92604355 143894424
" />
<path d="M92195050 143758741
L92111793 143692361
L91925480 143652759
L91822422 143679536
L91756043 143762792
L91746142 143809371
L91772919 143912428
L91856176 143978808
L91995911 144008510
L92079167 144074889
L92105945 144177947
L92096044 144224525
L92029665 144307782
L91926607 144334559
L91786872 144304857
L91703615 144238478
" />
<path d="M91366538 143533952
L91158626 144512100
" />
<path d="M90947332 143444847
L90838426 143957210
L90865203 144060268
L90948460 144126647
L91088195 144156349
L91191252 144129571
L91247731 144092894
" />
</g><g transform="rotate(-170.000000 85884511.000000 92520655.000000)">
<text x="85884511.000000" y="93020655.000000"
textLength="6671190.000000" font-size="1333333.000000" lengthAdjust="spacingAndGlyphs"
text-anchor="middle" opacity="0">SW_Push</text>
</g>
<g class="stroked-text"><desc>SW_Push</desc>
<path d="M88956116 92651255
L88823698 92579553
L88589220 92538208
L88487159 92568566
L88431995 92607192
L88368561 92692715
L88352023 92786506
L88382381 92888566
L88421008 92943731
L88506530 93007164
L88685843 93087136
L88771366 93150569
L88809992 93205734
L88840350 93307794
L88823812 93401585
L88760379 93487107
L88705214 93525734
L88603154 93556092
L88368676 93514747
L88236258 93443044
" />
<path d="M87899720 93432057
L87838890 92405905
L87527273 93076263
L87463725 92339753
L87055599 93283216
" />
<path d="M87105098 92179810
L86354768 92047507
" />
<path d="M86103752 92099953
L85930104 93084761
L85554939 93018609
L85469417 92955176
L85430791 92900011
L85400433 92797951
L85425240 92657264
L85488673 92571742
L85543838 92533115
L85645898 92502757
L86021063 92568909
" />
<path d="M84581119 92508423
L84696884 91851884
" />
<path d="M85003179 92582843
L85094138 92066992
L85063780 91964932
L84978258 91901498
L84837571 91876691
L84735511 91907049
L84680346 91945676
" />
<path d="M84266555 91824359
L84181033 91760926
L83993450 91727850
L83891390 91758208
L83827956 91843730
L83819687 91890625
L83850045 91992686
L83935567 92056119
L84076254 92080926
L84161776 92144360
L84192134 92246420
L84183865 92293315
L84120432 92378838
L84018371 92409195
L83877685 92384388
L83792162 92320955
" />
<path d="M83430703 91628622
L83257055 92613430
" />
<path d="M83008642 91554202
L82917684 92070053
L82948041 92172114
L83033564 92235547
L83174251 92260354
L83276311 92229996
L83331475 92191370
" />
</g><g transform="rotate(-168.000000 106779716.000000 83402058.000000)">
<text x="106779716.000000" y="83902058.000000"
textLength="6671190.000000" font-size="1333333.000000" lengthAdjust="spacingAndGlyphs"
text-anchor="middle" opacity="0">SW_Push</text>
</g>
<g class="stroked-text"><desc>SW_Push</desc>
<path d="M109844891 83639776
L109715057 83563496
L109482164 83513993
L109379107 83540771
L109322628 83577449
L109256248 83660705
L109236447 83753862
L109263225 83856919
L109299902 83913398
L109383159 83979778
L109559572 84065959
L109642828 84132338
L109679506 84188817
L109706284 84291875
L109686483 84385032
L109620103 84468288
L109563624 84504966
L109460567 84531743
L109227674 84482240
L109097839 84405960
" />
<path d="M108761890 84383235
L108736909 83355584
L108402087 84014659
L108364281 83276380
L107923477 84205025
" />
<path d="M108011455 83104019
L107266200 82945610
" />
<path d="M107013506 82989264
L106805594 83967411
L106432967 83888207
L106349710 83821827
L106313033 83765348
L106286255 83662291
L106315957 83522556
L106382336 83439299
L106438815 83402621
L106541873 83375844
L106914501 83455048
" />
<path d="M105477545 83344346
L105616152 82692247
" />
<path d="M105896751 83433451
L106005657 82921088
L105978880 82818030
L105895623 82751650
L105755888 82721949
L105652830 82748726
L105596351 82785404
" />
<path d="M105187046 82649721
L105103789 82583341
L104917476 82543739
L104814418 82570516
L104748039 82653772
L104738138 82700351
L104764915 82803408
L104848172 82869788
L104987907 82899490
L105071163 82965869
L105097941 83068927
L105088040 83115505
L105021661 83198762
L104918603 83225539
L104778868 83195837
L104695611 83129458
" />
<path d="M104358534 82424932
L104150622 83403080
" />
<path d="M103939328 82335827
L103830422 82848190
L103857199 82951248
L103940456 83017627
L104080191 83047329
L104183248 83020551
L104239727 82983874
" />
</g><g transform="rotate(-12.000000 170549128.000000 149189955.000000)">
<text x="170549128.000000" y="149689955.000000"
textLength="6671190.000000" font-size="1333333.000000" lengthAdjust="spacingAndGlyphs"
text-anchor="middle" opacity="0">SW_Push</text>
</g>
<g class="stroked-text"><desc>SW_Push</desc>
<path d="M167652261 150219507
L167801897 150236384
L168034789 150186881
L168118046 150120501
L168154723 150064022
L168181501 149960965
L168161700 149867808
L168095320 149784552
L168038841 149747874
L167935784 149721096
L167739569 149714120
L167636512 149687343
L167580033 149650665
L167513653 149567409
L167493852 149474252
L167520629 149371194
L167557307 149314715
L167640564 149248336
L167873456 149198833
L168023092 149215710
" />
<path d="M168339241 149099827
L168780045 150028472
L168817850 149290193
L169152672 149949268
L169177653 148921617
" />
<path d="M169545101 149963220
L170290356 149804811
" />
<path d="M170503447 149662152
L170295536 148684004
L170668163 148604799
L170771221 148631577
L170827700 148668255
L170894079 148751511
L170923781 148891246
L170897004 148994304
L170860326 149050783
L170777070 149117162
L170404442 149196367
" />
<path d="M171762193 148713036
L171900801 149365135
" />
<path d="M171342987 148802141
L171451893 149314504
L171518273 149397761
L171621330 149424538
L171761066 149394836
L171844322 149328457
L171881000 149271978
" />
<path d="M172310107 149229451
L172413164 149256229
L172599478 149216626
L172682734 149150247
L172709512 149047189
L172699611 149000611
L172633232 148917355
L172530174 148890577
L172390439 148920279
L172287381 148893502
L172221002 148810245
L172211101 148763667
L172237878 148660609
L172321135 148594230
L172460870 148564528
L172563928 148591305
" />
<path d="M173158419 149097820
L172950508 148119672
" />
<path d="M173577626 149008715
L173468719 148496352
L173402340 148413095
L173299282 148386318
L173159547 148416020
L173076291 148482399
L173039613 148538878
" />
</g><path d="M96065036 97737614
L99183712 83065400
" />
<path d="M99183712 83065400
L113855926 86184076
" />
<path d="M110737250 100856290
L96065036 97737614
" />
<path d="M113855926 86184076
L110737250 100856290
" />
<path d="M231775185 112439754
L231775185 97439754
" />
<path d="M246775185 97439754
L246775185 112439754
" />
<path d="M246775185 112439754
L231775185 112439754
" />
<path d="M231775185 97439754
L246775185 97439754
" />
<path d="M231775185 63439754
L246775185 63439754
" />
<path d="M231775185 78439754
L231775185 63439754
" />
<path d="M246775185 78439754
L231775185 78439754
" />
<path d="M246775185 63439754
L246775185 78439754
" />
<path d="M39574185 78431754
L39574185 63431754
" />
<path d="M54574185 78431754
L39574185 78431754
" />
<path d="M54574185 63431754
L54574185 78431754
" />
<path d="M39574185 63431754
L54574185 63431754
" />
<path d="M126409432 135339585
L123290756 150011799
" />
<path d="M123290756 150011799
L108618542 146893123
" />
<path d="M108618542 146893123
L111737218 132220909
" />
<path d="M111737218 132220909
L126409432 135339585
" />
<path d="M158840412 108519466
L173512626 105400790
" />
<path d="M176631302 120073004
L161959088 123191680
" />
<path d="M161959088 123191680
L158840412 108519466
" />
<path d="M173512626 105400790
L176631302 120073004
" />
<path d="M112837223 105395905
L127509437 108514581
" />
<path d="M109718547 120068119
L112837223 105395905
" />
<path d="M124390761 123186795
L109718547 120068119
" />
<path d="M127509437 108514581
L124390761 123186795
" />
<path d="M84185430 58965838
L98957546 61570560
" />
<path d="M81580708 73737954
L84185430 58965838
" />
<path d="M96352824 76342676
L81580708 73737954
" />
<path d="M98957546 61570560
L96352824 76342676
" />
<path d="M202164021 58975360
L204768743 73747476
" />
<path d="M189996627 76352198
L187391905 61580082
" />
<path d="M204768743 73747476
L189996627 76352198
" />
<path d="M187391905 61580082
L202164021 58975360
" />
<path d="M59272112 91620294
L60840039 76702465
" />
<path d="M74189941 93188221
L59272112 91620294
" />
<path d="M60840039 76702465
L75757868 78270392
" />
<path d="M75757868 78270392
L74189941 93188221
" />
<path d="M59078183 126938755
L59078183 141938755
" />
<path d="M44078183 126938755
L59078183 126938755
" />
<path d="M59078183 141938755
L44078183 141938755
" />
<path d="M44078183 141938755
L44078183 126938755
" />
<path d="M168964415 69564445
L183636629 66445769
" />
<path d="M186755305 81117983
L172083091 84236659
" />
<path d="M183636629 66445769
L186755305 81117983
" />
<path d="M172083091 84236659
L168964415 69564445
" />
<path d="M110321437 102812584
L107202761 117484798
" />
<path d="M92530547 114366122
L95649223 99693908
" />
<path d="M95649223 99693908
L110321437 102812584
" />
<path d="M107202761 117484798
L92530547 114366122
" />
<path d="M223735452 59804458
L225303379 74722287
" />
<path d="M210385550 76290214
L208817623 61372385
" />
<path d="M208817623 61372385
L223735452 59804458
" />
<path d="M225303379 74722287
L210385550 76290214
" />
<path d="M54574188 95431752
L39574188 95431752
" />
<path d="M54574188 80431752
L54574188 95431752
" />
<path d="M39574188 95431752
L39574188 80431752
" />
<path d="M39574188 80431752
L54574188 80431752
" />
<path d="M131459758 89929783
L116787544 86811107
" />
<path d="M116787544 86811107
L119906220 72138893
" />
<path d="M119906220 72138893
L134578434 75257569
" />
<path d="M134578434 75257569
L131459758 89929783
" />
<path d="M242273186 141940753
L227273186 141940753
" />
<path d="M227273186 141940753
L227273186 126940753
" />
<path d="M227273186 126940753
L242273186 126940753
" />
<path d="M242273186 126940753
L242273186 141940753
" />
<path d="M192948642 93093927
L190343920 78321811
" />
<path d="M205116036 75717089
L207720758 90489205
" />
<path d="M190343920 78321811
L205116036 75717089
" />
<path d="M207720758 90489205
L192948642 93093927
" />
<path d="M213939514 110103953
L212371587 95186124
" />
<path d="M227289416 93618197
L228857343 108536026
" />
<path d="M212371587 95186124
L227289416 93618197
" />
<path d="M228857343 108536026
L213939514 110103953
" />
<path d="M127925252 106558289
L113253038 103439613
" />
<path d="M113253038 103439613
L116371714 88767399
" />
<path d="M116371714 88767399
L131043928 91886075
" />
<path d="M131043928 91886075
L127925252 106558289
" />
<path d="M208068058 92458828
L210672780 107230944
" />
<path d="M193295942 95063550
L208068058 92458828
" />
<path d="M195900664 109835666
L193295942 95063550
" />
<path d="M210672780 107230944
L195900664 109835666
" />
<path d="M173096805 103444492
L158424591 106563168
" />
<path d="M155305915 91890954
L169978129 88772278
" />
<path d="M169978129 88772278
L173096805 103444492
" />
<path d="M158424591 106563168
L155305915 91890954
" />
<path d="M39574185 112431754
L39574185 97431754
" />
<path d="M54574185 97431754
L54574185 112431754
" />
<path d="M39574185 97431754
L54574185 97431754
" />
<path d="M54574185 112431754
L39574185 112431754
" />
<path d="M72412950 110095088
L57495121 108527161
" />
<path d="M59063048 93609332
L73980877 95177259
" />
<path d="M57495121 108527161
L59063048 93609332
" />
<path d="M73980877 95177259
L72412950 110095088
" />
<path d="M179152091 117493681
L176033415 102821467
" />
<path d="M176033415 102821467
L190705629 99702791
" />
<path d="M193824305 114375005
L179152091 117493681
" />
<path d="M190705629 99702791
L193824305 114375005
" />
<path d="M185071089 145337679
L181952413 130665465
" />
<path d="M196624627 127546789
L199743303 142219003
" />
<path d="M181952413 130665465
L196624627 127546789
" />
<path d="M199743303 142219003
L185071089 145337679
" />
<path d="M225512437 76711334
L227080364 91629163
" />
<path d="M227080364 91629163
L212162535 93197090
" />
<path d="M212162535 93197090
L210594608 78279261
" />
<path d="M210594608 78279261
L225512437 76711334
" />
</g>
<g style="fill:#000000; fill-opacity:0.0; 
stroke:#000000; stroke-width:100000.000000; stroke-opacity:1; 
stroke-linecap:round; stroke-linejoin:round;">
<path d="M133148556 150485573
L132148556 151485573
" />
<path d="M129948556 152085573
L132348556 152085573
" />
<path d="M132848556 147385573
L134348556 147385573
" />
<path d="M133748556 148285573
L132348556 146885573
" />
<path d="M132148556 147485573
L133148556 148485573
" />
<path d="M129448556 151585573
L127948556 151585573
" />
<path d="M132148556 151485573
L130148556 151485573
" />
<path d="M133148556 148485573
L133148556 150485573
" />
<path d="M127948556 151585573
L127948556 151085573
" />
<path d="M128448556 147385573
L128448556 147885573
" />
<path d="M129448556 147385573
L127948556 147385573
" />
<path d="M128448556 151585573
L128448556 151085573
" />
<path d="M132848556 151585573
L134348556 151585573
" />
<path d="M134348556 147385573
L134348556 147885573
" />
<path d="M127948556 147385573
L127948556 147885573
" />
<path d="M127948556 151085573
L128948556 151085573
" />
<path d="M134348556 151085573
L133348556 151085573
" />
<path d="M129948556 146885573
L128548556 148285573
" />
<path d="M132348556 152085573
L133748556 150685573
" />
<path d="M133848556 151585573
L133848556 151085573
" />
<path d="M128548556 150685573
L129948556 152085573
" />
<path d="M128548556 148285573
L128548556 150685573
" />
<path d="M133848556 147385573
L133848556 147885573
" />
<path d="M134348556 147885573
L133348556 147885573
" />
<path d="M130148556 147485573
L132148556 147485573
" />
<path d="M127948556 147885573
L128948556 147885573
" />
<path d="M129148556 150485573
L129148556 148485573
" />
<path d="M133748556 150685573
L133748556 148285573
" />
<path d="M129148556 148485573
L130148556 147485573
" />
<path d="M132348556 146885573
L129948556 146885573
" />
<path d="M134348556 151585573
L134348556 151085573
" />
<path d="M130148556 151485573
L129148556 150485573
" />
<circle cx="131148556.000000" cy="149485573.000000" r="1000000.000000" /> 
</g>
<g style="fill:#000000; fill-opacity:0.0; 
stroke:#000000; stroke-width:150000.000000; stroke-opacity:1; 
stroke-linecap:round; stroke-linejoin:round;">
<path d="M166443630 72143770
L169562306 86815984
" />
<path d="M169562306 86815984
L154890092 89934660
" />
<path d="M154890092 89934660
L151771416 75262446
" />
<path d="M151771416 75262446
L166443630 72143770
" />
<path d="M77534853 61363523
L75966926 76281352
" />
<path d="M62617024 59795596
L77534853 61363523
" />
<path d="M61049097 74713425
L62617024 59795596
" />
<path d="M75966926 76281352
L61049097 74713425
" />
<path d="M246775186 95439753
L231775186 95439753
" />
<path d="M231775186 80439753
L246775186 80439753
" />
<path d="M246775186 80439753
L246775186 95439753
" />
<path d="M231775186 95439753
L231775186 80439753
" />
<path d="M93053506 95054033
L90448784 109826149
" />
<path d="M75676668 107221427
L78281390 92449311
" />
<path d="M90448784 109826149
L75676668 107221427
" />
<path d="M78281390 92449311
L93053506 95054033
" />
<path d="M172498914 86192955
L187171128 83074279
" />
<path d="M175617590 100865169
L172498914 86192955
" />
<path d="M190289804 97746493
L175617590 100865169
" />
<path d="M187171128 83074279
L190289804 97746493
" />
<path d="M89726221 127545915
L104398435 130664591
" />
<path d="M101279759 145336805
L86607545 142218129
" />
<path d="M86607545 142218129
L89726221 127545915
" />
<path d="M104398435 130664591
L101279759 145336805
" />
<path d="M78628689 90479688
L81233411 75707572
" />
<path d="M93400805 93084410
L78628689 90479688
" />
<path d="M96005527 78312294
L93400805 93084410
" />
<path d="M81233411 75707572
L96005527 78312294
" />
<path d="M102718217 66436895
L117390431 69555571
" />
<path d="M114271755 84227785
L99599541 81109109
" />
<path d="M99599541 81109109
L102718217 66436895
" />
<path d="M117390431 69555571
L114271755 84227785
" />
<path d="M174610627 132224792
L177729303 146897006
" />
<path d="M177729303 146897006
L163057089 150015682
" />
<path d="M159938413 135343468
L174610627 132224792
" />
<path d="M163057089 150015682
L159938413 135343468
" />
<g >
</g>
<g >
</g>
<g >
</g>
<g >
</g>
<g >
</g>
<g >
</g>
<g >
</g>
<g >
</g>
<g >
</g>
<g >
</g>
<g >
</g>
<g >
</g>
<g >
</g>
<g >
</g>
<g >
</g>
<g >
</g>
<g >
</g>
<g >
</g>
<g >
</g>
<g >
</g>
<g >
</g>
<g >
</g>
<g >
</g>
<g >
</g>
<g >
</g>
<g >
</g>
<g >
</g>
<g >
</g>
<g >
</g>
<g >
</g>
<g >
</g>
<g >
</g>
<g >
</g>
<g >
</g>
<g >
</g>
<g >
</g>
<g >
</g>
<g >
</g>
<g >
</g>
<g >
</g>
<g >
</g>
<g >
</g>
<g >
</g>
<g >
</g>
<g >
</g>
<g >
</g>
<g >
</g>
<g >
</g>
<g >
</g>
<g >
</g>
<g >
</g>
<g >
</g>
<g >
</g>
<g >
</g>
<g >
</g>
<g >
</g>
<g >
</g>
<g >
</g>
<g >
</g>
<g >
</g>
<g >
</g>
<g >
</g>
<g >
</g>
<g >
</g>
<g >
</g>
<g >
</g>
<g >
</g>
<g >
</g>
<g >
</g>
<g >
</g>
<g >
</g>
<g >
</g>
<g >
</g>
<g >
</g>
<g >
</g>
<g >
</g>
<g >
</g>
<g >
</g>
<g >
</g>
</g> 
</svg>
