<?xml version="1.0" standalone="no"?>
 <!DOCTYPE svg PUBLIC "-//W3C//DTD SVG 1.1//EN" 
 "http://www.w3.org/Graphics/SVG/1.1/DTD/svg11.dtd"> 
<svg
  xmlns:svg="http://www.w3.org/2000/svg"
  xmlns="http://www.w3.org/2000/svg"
  xmlns:xlink="http://www.w3.org/1999/xlink"
  version="1.1"
  width="29.700220cm" height="21.000720cm" viewBox="0 0 297002200 210007200">
<title>SVG Picture created as The-ENDGAME-MX-BAD-Edge_Cuts.svg date 2022/11/14 22:09:06 </title>
  <desc>Picture generated by PCBNEW </desc>
<g style="fill:#000000; fill-opacity:1.000000;stroke:#000000; stroke-opacity:1.000000;
stroke-linecap:round; stroke-linejoin:round;"
 transform="translate(0 0) scale(1 1)">
</g>
<g style="fill:#000000; fill-opacity:0.0; 
stroke:#000000; stroke-width:0.000000; stroke-opacity:1; 
stroke-linecap:round; stroke-linejoin:round;">
</g>
<g style="fill:#000000; fill-opacity:0.0; 
stroke:#000000; stroke-width:150000.000000; stroke-opacity:1; 
stroke-linecap:round; stroke-linejoin:round;">
<path d="M233555000 49893359
L233555000 45143359
" />
<path d="M183066255.112894 63374836.919639 A200218.000000 200218.000000 0.0 0 0 183178920.918222 63306562.932402" />
<path d="M241875193.977965 49893307.022473 A250093.000000 250093.000000 0.0 0 0 241632658.277694 50203992.930654" />
<path d="M163099896.000016 154086556.999992 A1000157.000000 1000157.000000 0.0 0 0 163307807.021254 154064709.100010" />
<path d="M108853954.536475 123606299.025608 A199960.000000 199960.000000 0.0 0 0 108951305.013431 123658085.936847" />
<path d="M47995388.000480 44893379.000144 A500021.000000 500021.000000 0.0 0 0 47510317.378264 45272091.094596" />
<path d="M208605472 57220058
L201589334 54909093
" />
<path d="M228055000 145947000
L227382658 143257634
" />
<path d="M135602596.110238 72276381.774043 A499997.000000 499997.000000 0.0 0 0 135810506.014223 71298239.933122" />
<path d="M249497887.561355 50186257.438298 A999941.000000 999941.000000 0.0 0 0 248790786.000000 49893359.000098" />
<path d="M135782658 52582725
L136377342 50203993
" />
<path d="M242227335.977965 143257632.494528 A250000.000000 250000.000000 0.0 0 0 241984806.000000 142947000.000072" />
<path d="M50355000 150697000
L50355000 145947000
" />
<path d="M143205000 71787314
L145631293 71787314
" />
<path d="M136025194 151086561
L137009806 151086561
" />
<path d="M136134806.001320 154086615.999928 A250016.000000 250016.000000 0.0 0 0 136377342.321207 153775926.919648" />
<path d="M45652335.977965 143136367.505472 A250000.000000 250000.000000 0.0 0 0 45409806.000000 142947000.000072" />
<path d="M231844600 60301762
L246205000 60301762
" />
<path d="M74707972 112808880
L89411427 115401496
" />
<path d="M134624447 72068476
L120552778 69077450
" />
<path d="M35205000 52307573
L35205000 143532787
" />
<path d="M214542112.371000 113709236.928408 A199575.000000 199575.000000 0.0 0 0 214624957.949507 113717971.521830" />
<path d="M55214612.000264 150947010.999856 A500011.000000 500011.000000 0.0 0 0 55699682.568692 150568267.892175" />
<path d="M35497893 144239893
L36912107 145654107
" />
<path d="M236305000 150947000
L238414612 150947000
" />
<path d="M150807405 72276387
L151785553 72068476
" />
<path d="M168097879 65565241
L165466145 68107156
" />
<path d="M236055000.000000 145947000.000000 A1250000.000000 1250000.000000 0.0 0 0 233555000.000000 145947000.000000" />
<path d="M197285957 116379628
L194675414 117942839
" />
<path d="M144455000 154086561
L144455000 158836561
" />
<path d="M91734577.413525 117942853.348327 A200042.000000 200042.000000 0.0 0 0 91795753.007187 117966879.966149" />
<path d="M59027335.977965 143257632.494528 A250000.000000 250000.000000 0.0 0 0 58784806.000000 142947000.000072" />
<path d="M232066438.241117 115036416.870057 A199962.000000 199962.000000 0.0 0 0 232214315.000000 115101761.999437" />
<path d="M137252364.633673 151275921.338082 A250039.000000 250039.000000 0.0 0 0 137009806.000000 151086561.000072" />
<path d="M187270290.415557 58425175.749427 A200290.000000 200290.000000 0.0 0 0 187150784.049418 58494839.040824" />
<path d="M141705000 44893359
L139595388 44893359
" />
<path d="M238414612 44893359
L236305000 44893359
" />
<path d="M147299702.024226 45272086.242443 A500041.000000 500041.000000 0.0 0 0 146814612.000000 44893359.000144" />
<path d="M58784806.001368 52893415.999928 A250016.000000 250016.000000 0.0 0 0 59027341.850355 52582725.037436" />
<path d="M135602595 72276387
L134624447 72068476
" />
<path d="M136705000 109086561
L136705000 91188646
" />
<path d="M54637563 116101762
L40205000 116101762
" />
<path d="M55699702.024226 45272086.242443 A500041.000000 500041.000000 0.0 0 0 55214612.000000 44893359.000144" />
<path d="M47510317 45272091
L45652342 52703993
" />
<path d="M241000193.999856 142946994.000072 A250006.000000 250006.000000 0.0 0 0 240757658.201172 143136366.050292" />
<path d="M136377385.399369 50204003.842238 A250041.000000 250041.000000 0.0 0 0 136134806.000000 49893359.000072" />
<path d="M137252342 151275927
L139110317 158707829
" />
<path d="M229515393.465545 112234916.950773 A200030.000000 200030.000000 0.0 0 0 229346617.007505 112170663.071491" />
<path d="M52855000 45143359
L52855000 49893359
" />
<path d="M126911253 127318637
L124019102 126860565
" />
<path d="M106124845 121012622
L91795753 117966880
" />
<path d="M117726317 66431986
L103343737 63374874
" />
<path d="M44182713.445648 52582738.870442 A249959.000000 249959.000000 0.0 0 0 44425194.000000 52893358.999928" />
<path d="M246205000 116101762
L231772437 116101762
" />
<path d="M144705000.000000 44893400.000000 A250000.000000 250000.000000 0.0 0 0 144455000.003362 45143359.000001" />
<path d="M117823665.584943 66483775.919035 A199992.000000 199992.000000 0.0 0 0 117726316.993954 66431986.028418" />
<path d="M59027342 143257634
L58432658 145636366
" />
<path d="M151577641 71090328
L150599494 71298240
" />
<path d="M57557694.155595 52703983.967437 A249959.000000 249959.000000 0.0 0 0 57800194.000000 52893358.999928" />
<path d="M149157658 52703993
L147299683 45272091
" />
<path d="M54637563.002776 116101746.996577 A199947.000000 199947.000000 0.0 0 0 54785440.696034 116036417.723221" />
<path d="M144455000 45143359
L144455000 49893359
" />
<path d="M123310104 154086561
L136134806 154086561
" />
<path d="M214434877.120408 114726013.630522 A199849.000000 199849.000000 0.0 0 0 214517721.982377 114734750.832588" />
<path d="M55699683 150568268
L57557658 143136366
" />
<path d="M63127268 56725460
L54642795 60286180
" />
<path d="M47510328.102890 150568265.224340 A500000.000000 500000.000000 0.0 0 0 47995388.000000 150946999.999856" />
<path d="M136134806 49893359
L58675194 49893359
" />
<path d="M149704995.999988 91183921.999996 A19999996.000000 19999996.000000 0.0 0 0 149269893.287006 87034828.939136" />
<path d="M103892868 62469255
L118214758 65513467
" />
<path d="M35205010.000084 143532787.000130 A999990.000000 999990.000000 0.0 0 0 35497893.289919 144239892.710087" />
<path d="M194304575 116999322
L196930554 115426869
" />
<path d="M223282732 56725460
L231767205 60286180
" />
<path d="M50355000 49893359
L50355000 45143359
" />
<path d="M159342313.782626 126330952.943294 A499998.000000 499998.000000 0.0 1 0 159498747.066421 127318637.419198" />
<path d="M177458698.020395 123658100.182779 A200191.000000 200191.000000 0.0 0 0 177556057.744922 123606311.735835" />
<path d="M84894665 55937568
L77913486 58237018
" />
<path d="M211798700.511844 112815666.296790 A199671.000000 199671.000000 0.0 0 0 211702028.003551 112808880.020079" />
<path d="M208579989 58245962
L223184430 56710973
" />
<path d="M227625194 142947000
L228609806 142947000
" />
<path d="M99139706 58425196
L84991964 55930567
" />
<path d="M53105000.000000 44893400.000000 A250000.000000 250000.000000 0.0 0 0 52855000.003362 45143359.000001" />
<path d="M50355040.996637 45143358.993277 A250041.000000 250041.000000 0.0 0 0 50105000.000000 44893359.000000" />
<path d="M248790786 49893359
L241875194 49893359
" />
<path d="M197353974.981923 116354254.897475 A199983.000000 199983.000000 0.0 0 0 197285956.839364 116379627.731752" />
<path d="M77721054.776457 57228984.131762 A199984.000000 199984.000000 0.0 0 0 77804527.849681 57220057.543336" />
<path d="M146814612 44893359
L144705000 44893359
" />
<path d="M238414612.000264 150947010.999856 A500011.000000 500011.000000 0.0 0 0 238899682.568692 150568267.892175" />
<path d="M57800193.999856 142946994.000072 A250006.000000 250006.000000 0.0 0 0 57557658.201172 143136366.050292" />
<path d="M141955000 49893359
L141955000 45143359
" />
<path d="M52855000 145947000
L52855000 150697000
" />
<path d="M231624559 116036418
L229116696 113282325
" />
<path d="M57293304 113282325
L54785441 116036418
" />
<path d="M58675194 145947000
L84806271 145947000
" />
<path d="M118312129.238708 65565232.468444 A199998.000000 199998.000000 0.0 0 0 118214757.928286 65513467.337593" />
<path d="M246205000 59301762
L232045932 59301762
" />
<path d="M149705000 91183922
L149705000 109086561
" />
<path d="M52855000.000000 145947000.000000 A1250000.000000 1250000.000000 0.0 0 0 50355000.000000 145947000.000000" />
<path d="M136705000 109086561
L136705000 143886561
" />
<path d="M168195245.280548 65513482.421758 A200199.000000 200199.000000 0.0 0 0 168097879.337012 65565241.349225" />
<path d="M150384806.015049 52893318.982328 A249919.000000 249919.000000 0.0 0 0 150627341.859432 52582725.035179" />
<path d="M54565400.000000 60301757.000000 A200057.000000 200057.000000 0.0 0 0 54642794.948585 60286179.877446" />
<path d="M186733710.726983 57504422.198158 A200009.000000 200009.000000 0.0 0 0 186614192.662994 57574027.721640" />
<path d="M144455000.000000 154086561.000000 A1250000.000000 1250000.000000 0.0 0 0 141955000.000000 154086561.000000" />
<path d="M201492036 54902092
L186733704 57504384
" />
<path d="M35497906.718680 51600479.719204 A1000000.000000 1000000.000000 0.0 0 0 35205000.000364 52307573.000000" />
<path d="M250912093.070048 144239879.068354 A999900.000000 999900.000000 0.0 0 0 251204999.999915 143532787.000000" />
<path d="M228609806 52893359
L227625194 52893359
" />
<path d="M163307807 154064709
L201395817 145968853
" />
<path d="M44534806.000144 145947005.999928 A250006.000000 250006.000000 0.0 0 0 44777341.798828 145636366.050292" />
<path d="M201589336.517446 54909085.362922 A199756.000000 199756.000000 0.0 0 0 201492036.049409 54902092.279574" />
<path d="M71867887 113709235
L74611302 112815674
" />
<path d="M108853942 123606312
L106222208 121064397
" />
<path d="M136905000 144086561
L149505000 144086561
" />
<path d="M71892278.483330 114734746.406244 A199944.000000 199944.000000 0.0 0 0 71975122.854563 114726013.553485" />
<path d="M241875194 145947000
L248790786 145947000
" />
<path d="M228609806.025001 52893417.977528 A250118.000000 250118.000000 0.0 0 0 228852342.452850 52703993.113273" />
<path d="M106710641.548784 120145884.677511 A199969.000000 199969.000000 0.0 0 0 106613285.053207 120094102.749736" />
<path d="M50105000 44893359
L47995388 44893359
" />
<path d="M118312121 65565241
L120943855 68107156
" />
<path d="M58784806 52893359
L57800194 52893359
" />
<path d="M227625193.999856 142946994.000072 A250006.000000 250006.000000 0.0 0 0 227382658.201172 143257633.949708" />
<path d="M214624958 113717972
L229346617 112170663
" />
<path d="M139110317 45272091
L137252342 52703993
" />
<path d="M162218896 125875065
L176970254 122739567
" />
<path d="M74707968.190152 112808901.586802 A200043.000000 200043.000000 0.0 0 0 74611302.070867 112815674.217788" />
<path d="M36912100.218915 145654113.781219 A1000000.000000 1000000.000000 0.0 0 0 37619214.000000 145946999.999902" />
<path d="M50355000.000000 49893359.000000 A1250000.000000 1250000.000000 0.0 0 0 52855000.000000 49893359.000000" />
<path d="M103231085.142436 63306557.931268 A199942.000000 199942.000000 0.0 0 0 103343736.931943 63374874.320241" />
<path d="M71892278 114734751
L57462087 113218077
" />
<path d="M241984806 52893359
L241000194 52893359
" />
<path d="M106222229.693360 121064374.526567 A200040.000000 200040.000000 0.0 0 0 106124845.070023 121012621.670191" />
<path d="M146120411.011753 72183586.845685 A499986.000000 499986.000000 0.0 0 0 145631293.000000 71787314.000049" />
<path d="M89479446 115426869
L92105425 116999322
" />
<path d="M99795807 57574028
L103780210 62400944
" />
<path d="M208605472.493216 57220056.504780 A199603.000000 199603.000000 0.0 0 0 208688946.982597 57229000.835084" />
<path d="M103231079 63306563
L99259216 58494839
" />
<path d="M211726431.371640 113843842.859498 A199893.000000 199893.000000 0.0 0 0 211629761.927579 113837048.589608" />
<path d="M251205000 143532787
L251205000 52307573
" />
<path d="M236055000.000000 150697000.000000 A250000.000000 250000.000000 0.0 0 0 236305000.000000 150947000.000000" />
<path d="M140786960.996178 71787265.001521 A500035.000000 500035.000000 0.0 0 0 140297887.454721 72183358.096633" />
<path d="M201515336.552321 55937563.292720 A199682.000000 199682.000000 0.0 0 0 201418036.074658 55930567.422285" />
<path d="M241632664.022035 145636367.505472 A250000.000000 250000.000000 0.0 0 0 241875194.000000 145946999.999928" />
<path d="M106710648 120145878
L109342383 122687792
" />
<path d="M57063383.932089 112170654.120672 A200039.000000 200039.000000 0.0 0 0 56894599.880248 112234910.890944" />
<path d="M40205000.000000 115101838.000000 A499962.000000 499962.000000 0.0 0 0 40205000.000000 116101762.000000" />
<path d="M150275193.977965 49893307.022473 A250093.000000 250093.000000 0.0 0 0 150032658.277694 50203992.930654" />
<path d="M227977264.855485 50203973.695582 A249941.000000 249941.000000 0.0 0 0 227734806.000000 49893359.000072" />
<path d="M229116689.009620 113282331.365483 A200017.000000 200017.000000 0.0 0 0 228947912.954685 113218076.568431" />
<path d="M137142038.668408 87030410.016531 A20000000.000000 20000000.000000 0.0 0 0 136705000.000053 91188646.000000" />
<path d="M150384806 52893359
L149400194 52893359
" />
<path d="M85014183.908023 145968848.727937 A999900.000000 999900.000000 0.0 0 0 84806271.000000 145947000.000421" />
<path d="M227382592.904128 52582708.742270 A250059.000000 250059.000000 0.0 0 0 227625194.000000 52893358.999928" />
<path d="M179796715 120094103
L194243409 117023363
" />
<path d="M227382658 52582725
L227977342 50203993
" />
<path d="M103780181.953431 62400967.163384 A200014.000000 200014.000000 0.0 0 0 103892868.096472 62469254.545527" />
<path d="M233305000.000000 150947000.000000 A250000.000000 250000.000000 0.0 0 0 233555000.000000 150697000.000000" />
<path d="M150627382.988620 151397205.240311 A250039.000000 250039.000000 0.0 0 0 150384806.000000 151086561.000072" />
<path d="M165954585 69025675
L168586320 66483761
" />
<path d="M136025194.001008 151086603.000072 A249997.000000 249997.000000 0.0 0 0 135782657.758965 151397195.060218" />
<path d="M120455415 69025675
L117823680 66483761
" />
<path d="M54195684.999850 115101763.999437 A199964.000000 199964.000000 0.0 0 0 54343563.237781 115036418.216482" />
<path d="M186614193 57574028
L182629790 62400944
" />
<path d="M124019102 126860565
L124008806 126858657
" />
<path d="M241632658 50203993
L242227342 52582725
" />
<path d="M231968542.400132 59286167.150754 A199662.000000 199662.000000 0.0 0 0 232045932.000000 59301761.997436" />
<path d="M241984806.015049 52893318.982328 A249919.000000 249919.000000 0.0 0 0 242227341.859432 52582725.035179" />
<path d="M89124043.160636 116379627.731752 A199983.000000 199983.000000 0.0 0 0 89056025.018077 116354254.897475" />
<path d="M150032658 50203993
L150627342 52582725
" />
<path d="M228947913 113218077
L214517722 114734751
" />
<path d="M149505000.030518 144086499.975003 A199900.000000 199900.000000 0.0 0 0 149704999.996196 143886561.000001" />
<path d="M74683569 113843844
L71975123 114726014
" />
<path d="M120943854.759905 68107156.248581 A200001.000000 200001.000000 0.0 0 0 121041218.078425 68158930.631035" />
<path d="M57800194 142947000
L58784806 142947000
" />
<path d="M182517132 62469255
L168195242 65513467
" />
<path d="M92105427.067582 116999318.547384 A200038.000000 200038.000000 0.0 0 0 92166591.060833 117023362.713938" />
<path d="M141955000.000000 49893359.000000 A1250000.000000 1250000.000000 0.0 0 0 144455000.000000 49893359.000000" />
<path d="M223433244.898541 55704129.856237 A200344.000000 200344.000000 0.0 0 0 223334942.961323 55689644.630502" />
<path d="M36912107 50186252
L35497893 51600466
" />
<path d="M246205000.000000 116101838.000000 A500038.000000 500038.000000 0.0 0 0 246205000.000000 115101762.000000" />
<path d="M63075057 55689645
L77721053 57229001
" />
<path d="M143205000 71787314
L140786961 71787314
" />
<path d="M45409806.000888 52893395.999928 A249996.000000 249996.000000 0.0 0 0 45652341.741157 52703992.935335" />
<path d="M240757694.155595 52703983.967437 A249959.000000 249959.000000 0.0 0 0 241000194.000000 52893358.999928" />
<path d="M246205000.000000 60301838.000000 A500038.000000 500038.000000 0.0 0 0 246205000.000000 59301762.000000" />
<path d="M99795810.166364 57574025.386698 A199949.000000 199949.000000 0.0 0 0 99676295.947552 57504384.297669" />
<path d="M58432658 50203993
L59027342 52582725
" />
<path d="M149400194 151086561
L150384806 151086561
" />
<path d="M223334943 55689645
L208688947 57229001
" />
<path d="M121041218 68158931
L134832359 71090328
" />
<path d="M84991961.243911 55930582.612840 A199962.000000 199962.000000 0.0 0 0 84894664.991715 55937567.974836" />
<path d="M238899628.535964 45272104.609076 A499941.000000 499941.000000 0.0 0 0 238414612.000000 44893359.000144" />
<path d="M168683683 66431986
L183066263 63374874
" />
<path d="M168683678.138267 66431963.116584 A199799.000000 199799.000000 0.0 0 0 168586320.306707 66483761.317217" />
<path d="M236304999.976412 44893300.020001 A250100.000000 250100.000000 0.0 0 0 236055000.003361 45143359.000001" />
<path d="M250912107 51600466
L249497893 50186252
" />
<path d="M44777342 145636366
L44182658 143257634
" />
<path d="M177067617 122687792
L179699352 120145878
" />
<path d="M147299683 158707829
L149157658 151275927
" />
<path d="M236055000 145947000
L236055000 150697000
" />
<path d="M165368781.921575 68158930.631035 A200001.000000 200001.000000 0.0 0 0 165466145.240095 68107156.248581" />
<path d="M232214315 115101762
L246205000 115101762
" />
<path d="M120455424.803461 69025664.851618 A200028.000000 200028.000000 0.0 0 0 120552778.058566 69077449.724700" />
<path d="M144705000 159086561
L146814612 159086561
" />
<path d="M236055000 45143359
L236055000 49893359
" />
<path d="M194614247 117966880
L180285155 121012622
" />
<path d="M47995388 150947000
L50105000 150947000
" />
<path d="M227734806 49893359
L150275194 49893359
" />
<path d="M233305000 44893359
L231195388 44893359
" />
<path d="M99259238.748005 58494820.213307 A200038.000000 200038.000000 0.0 0 0 99139706.051602 58425195.707087" />
<path d="M183178921 63306563
L187150784 58494839
" />
<path d="M196998573 115401496
L211702028 112808880
" />
<path d="M150275194 154086561
L163099896 154086561
" />
<path d="M54343563 115036418
L56894600 112234911
" />
<path d="M180187792 121064397
L177556058 123606312
" />
<path d="M109439746 122739567
L124191104 125875065
" />
<path d="M84917964 54902092
L99676296 57504384
" />
<path d="M165857225.562001 69077466.766847 A199829.000000 199829.000000 0.0 0 0 165954585.139803 69025675.144625" />
<path d="M248790786.000140 145946989.999902 A999990.000000 999990.000000 0.0 0 0 249497892.710087 145654106.710081" />
<path d="M44425193.999856 142946994.000072 A250006.000000 250006.000000 0.0 0 0 44182658.201172 143257633.949708" />
<path d="M126911252.151105 127318642.357592 A500003.000000 500003.000000 0.0 1 0 127067686.999239 126330948.004804" />
<path d="M136377342 153775927
L135782658 151397195
" />
<path d="M40205000.000000 59301838.000000 A499962.000000 499962.000000 0.0 0 0 40205000.000000 60301762.000000" />
<path d="M187270294 58425196
L201418036 55930567
" />
<path d="M139595388.000480 44893379.000144 A500021.000000 500021.000000 0.0 0 0 139110317.378264 45272091.094596" />
<path d="M228852342 143136366
L230710317 150568268
" />
<path d="M45409806 52893359
L44425194 52893359
" />
<path d="M124008806 126858657
L108951305 123658086
" />
<path d="M77830011 58245962
L63225570 56710973
" />
<path d="M141705000.000000 159086600.000000 A250000.000000 250000.000000 0.0 0 0 141954999.996958 158836561.000000" />
<path d="M211629762 113837049
L197353975 116354255
" />
<path d="M242227342 143257634
L241632658 145636366
" />
<path d="M40205000 59301762
L54364068 59301762
" />
<path d="M50105000.000000 150947000.000000 A250000.000000 250000.000000 0.0 0 0 50355000.000000 150697000.000000" />
<path d="M150599492.945711 71298235.042492 A500002.000000 500002.000000 0.0 0 0 150807404.928807 72276386.664890" />
<path d="M238899683 150568268
L240757658 143136366
" />
<path d="M37619213.999692 49893381.000098 A1000019.000000 1000019.000000 0.0 0 0 36912107.284308 50186252.284330" />
<path d="M150032711.034689 153775940.266872 A249961.000000 249961.000000 0.0 0 0 150275194.000000 154086560.999928" />
<path d="M124191104 125875065
L124201400 125876973
" />
<path d="M162208600 125876973
L162218896 125875065
" />
<path d="M137009806.000888 52893395.999928 A249996.000000 249996.000000 0.0 0 0 137252341.741157 52703992.935335" />
<path d="M176970258.583472 122739588.500955 A200290.000000 200290.000000 0.0 0 0 177067617.069265 122687792.071742" />
<path d="M144455039.003042 158836561.006084 A249961.000000 249961.000000 0.0 0 0 144705000.000000 159086561.000000" />
<path d="M208496513.872909 58237018.386067 A200155.000000 200155.000000 0.0 0 0 208579988.998399 58245961.984746" />
<path d="M229515400 112234911
L232066437 115036418
" />
<path d="M196998575.605177 115401510.806630 A199812.000000 199812.000000 0.0 0 0 196930553.940524 115426868.900668" />
<path d="M57063383 112170663
L71785042 113717972
" />
<path d="M149157694.155595 52703983.967437 A249959.000000 249959.000000 0.0 0 0 149400194.000000 52893358.999928" />
<path d="M57462087.985152 113218067.617638 A200026.000000 200026.000000 0.0 0 0 57293304.335940 113282325.305909" />
<path d="M228852335.977965 143136367.505472 A250000.000000 250000.000000 0.0 0 0 228609806.000000 142947000.000072" />
<path d="M89479442.888724 115426874.194170 A199943.000000 199943.000000 0.0 0 0 89411427.023239 115401495.868235" />
<path d="M162401194 126858657
L162390898 126860565
" />
<path d="M165368782 68158931
L151577641 71090328
" />
<path d="M223282734.236849 56725454.663245 A200317.000000 200317.000000 0.0 0 0 223184430.014027 56710973.133904" />
<path d="M89056025 116354255
L74780238 113837049
" />
<path d="M231195387.982756 44893282.012545 A500118.000000 500118.000000 0.0 0 0 230710317.390917 45272091.097740" />
<path d="M57557658 52703993
L55699683 45272091
" />
<path d="M233555000.000000 49893359.000000 A1250000.000000 1250000.000000 0.0 0 0 236055000.000000 49893359.000000" />
<path d="M136705039.003802 143886561.007606 A199961.000000 199961.000000 0.0 0 0 136905000.000000 144086561.000000" />
<path d="M231767206.131321 60286177.304826 A199962.000000 199962.000000 0.0 0 0 231844600.000000 60301762.000000" />
<path d="M44182658 52582725
L44777342 50203993
" />
<path d="M233554940.993040 45143358.986074 A249941.000000 249941.000000 0.0 0 0 233305000.000000 44893359.000000" />
<path d="M231195388 150947000
L233305000 150947000
" />
<path d="M85014183 145968853
L123102193 154064709
" />
<path d="M146814611.996480 159086580.992254 A499881.000000 499881.000000 0.0 0 0 147299683.261269 158707829.065254" />
<path d="M182517133.522606 62469262.145837 A200259.000000 200259.000000 0.0 0 0 182629789.851871 62400943.877628" />
<path d="M141955000 158836561
L141955000 154086561
" />
<path d="M214434877 114726014
L211726431 113843844
" />
<path d="M251204977.997335 52307572.998394 A999878.000000 999878.000000 0.0 0 0 250912107.014030 51600465.985969" />
<path d="M139110356.764352 158707819.062334 A499961.000000 499961.000000 0.0 0 0 139595388.000000 159086560.999856" />
<path d="M146120415 72183586
L149269893 87034829
" />
<path d="M58675194.001080 49893404.000072 A249996.000000 249996.000000 0.0 0 0 58432658.258843 50203992.935335" />
<path d="M52855000.000000 150697000.000000 A250000.000000 250000.000000 0.0 0 0 53105000.000000 150947000.000000" />
<path d="M231968537 59286180
L223433244 55704132
" />
<path d="M150627342 151397195
L150032658 153775927
" />
<path d="M44777385.399369 50204003.842238 A250041.000000 250041.000000 0.0 0 0 44534806.000000 49893359.000072" />
<path d="M149705000 143886561
L149705000 109086561
" />
<path d="M179796717.729569 120094115.863025 A199837.000000 199837.000000 0.0 0 0 179699351.919717 120145877.916899" />
<path d="M231624572.386210 116036405.820116 A199862.000000 199862.000000 0.0 0 0 231772436.999999 116101761.996575" />
<path d="M91734586 117942839
L89124043 116379628
" />
<path d="M162390898 126860565
L159498747 127318637
" />
<path d="M249497893 145654107
L250912107 144239893
" />
<path d="M92166591 117023363
L106613285 120094103
" />
<path d="M230710328.102890 150568265.224340 A500000.000000 500000.000000 0.0 0 0 231195388.000000 150946999.999856" />
<path d="M201603729 145947000
L228055000 145947000
" />
<path d="M84917960.748197 54902110.428007 A200033.000000 200033.000000 0.0 0 0 84820665.968834 54909092.905303" />
<path d="M139595388 159086561
L141705000 159086561
" />
<path d="M40205000 115101762
L54195685 115101762
" />
<path d="M159342313 126330948
L162208600 125876973
" />
<path d="M74780237.294368 113837053.000660 A199987.000000 199987.000000 0.0 0 0 74683568.963555 113843843.888098" />
<path d="M240757658 52703993
L238899683 45272091
" />
<path d="M58432664.022035 145636367.505472 A250000.000000 250000.000000 0.0 0 0 58675194.000000 145946999.999928" />
<path d="M194614250.018916 117966894.152769 A200608.000000 200608.000000 0.0 0 0 194675413.808206 117942838.679508" />
<path d="M149400193.968638 151086487.022475 A250113.000000 250113.000000 0.0 0 0 149157657.690327 151275926.922566" />
<path d="M63075059.058009 55689625.368642 A200065.000000 200065.000000 0.0 0 0 62976756.011546 55704132.027502" />
<path d="M123102192.601345 154064710.875684 A1000061.000000 1000061.000000 0.0 0 0 123310104.000000 154086560.999992" />
<path d="M137009806 52893359
L136025194 52893359
" />
<path d="M37619214 145947000
L44534806 145947000
" />
<path d="M124201400 125876973
L127067687 126330948
" />
<path d="M151785553 72068476
L165857222 69077450
" />
<path d="M140297887 72183358
L137142048 87030412
" />
<path d="M54364068.002720 59301744.997441 A200045.000000 200045.000000 0.0 0 0 54441463.094588 59286180.225555" />
<path d="M230710317 45272091
L228852342 52703993
" />
<path d="M77804528 57220058
L84820666 54909093
" />
<path d="M55214612 44893359
L53105000 44893359
" />
<path d="M77830010.536570 58245966.414044 A200060.000000 200060.000000 0.0 0 0 77913486.121876 58237018.370029" />
<path d="M194243408.402921 117023360.188396 A199819.000000 199819.000000 0.0 0 0 194304574.967923 116999321.946445" />
<path d="M201515335 55937568
L208496514 58237018
" />
<path d="M45652342 143136366
L47510317 150568268
" />
<path d="M44534806 49893359
L37619214 49893359
" />
<path d="M135782713.445648 52582738.870442 A249959.000000 249959.000000 0.0 0 0 136025194.000000 52893358.999928" />
<path d="M54565400 60301762
L40205000 60301762
" />
<path d="M141955040.996637 45143358.993277 A250041.000000 250041.000000 0.0 0 0 141705000.000000 44893359.000000" />
<path d="M180285152.569940 121012610.613183 A200505.000000 200505.000000 0.0 0 0 180187791.944680 121064396.942655" />
<path d="M71785039.790509 113717993.066536 A199984.000000 199984.000000 0.0 0 0 71867886.917747 113709234.747703" />
<path d="M134832359 71090328
L135810506 71298240
" />
<path d="M241000194 142947000
L241984806 142947000
" />
<path d="M201603728.999432 145946992.002520 A1000308.000000 1000308.000000 0.0 0 0 201395816.934030 145968852.689649" />
<path d="M109342366.400881 122687809.193580 A200031.000000 200031.000000 0.0 0 0 109439745.952666 122739567.222884" />
<path d="M54441463 59286180
L62976756 55704132
" />
<path d="M233555000 150697000
L233555000 145947000
" />
<path d="M63225571.693474 56710956.858282 A200035.000000 200035.000000 0.0 0 0 63127267.832610 56725459.601284" />
<path d="M44425194 142947000
L45409806 142947000
" />
<path d="M177458695 123658086
L162401194 126858657
" />
<path d="M211798698 112815674
L214542113 113709235
" />
<path d="M53105000 150947000
L55214612 150947000
" />
<g >
</g>
<g >
</g>
<g >
</g>
<g >
</g>
<g >
</g>
<g >
</g>
<g >
</g>
<g >
</g>
<g >
</g>
<g >
</g>
<g >
</g>
<g >
</g>
<g >
</g>
<g >
</g>
<g >
</g>
<g >
</g>
<g >
</g>
<g >
</g>
<g >
</g>
<g >
</g>
<g >
</g>
<g >
</g>
<g >
</g>
<g >
</g>
<g >
</g>
<g >
</g>
<g >
</g>
<g >
</g>
<g >
</g>
<g >
</g>
<g >
</g>
<g >
</g>
<g >
</g>
<g >
</g>
<g >
</g>
<g >
</g>
<g >
</g>
<g >
</g>
<g >
</g>
<g >
</g>
<g >
</g>
<g >
</g>
<g >
</g>
<g >
</g>
<g >
</g>
<g >
</g>
<g >
</g>
<g >
</g>
<g >
</g>
<g >
</g>
<g >
</g>
<g >
</g>
<g >
</g>
<g >
</g>
<g >
</g>
<g >
</g>
<g >
</g>
<g >
</g>
<g >
</g>
<g >
</g>
<g >
</g>
<g >
</g>
<g >
</g>
<g >
</g>
<g >
</g>
<g >
</g>
<g >
</g>
<g >
</g>
<g >
</g>
<g >
</g>
<g >
</g>
<g >
</g>
<g >
</g>
<g >
</g>
<g >
</g>
<g >
</g>
<g >
</g>
<g >
</g>
<g >
</g>
</g> 
</svg>
