0
SECTION
2
HEADER
9
$INSUNITS
70
4
9
$ACADVER
1
AC1014
9
$HANDSEED
5
FFFF
0
ENDSEC
0
SECTION
2
TABLES
0
TABLE
2
VPORT
5
8
100
AcDbSymbolTable
0
ENDTAB
0
TABLE
2
LTYPE
5
5
100
AcDbSymbolTable
0
LTYPE
5
14
100
AcDbSymbolTableRecord
100
AcDbLinetypeTableRecord
2
BYBLOCK
70
0
0
LTYPE
5
15
100
AcDbSymbolTableRecord
100
AcDbLinetypeTableRecord
2
BYLAYER
70
0
0
ENDTAB
0
TABLE
2
LAYER
5
2
100
AcDbSymbolTable
70
2
0
LAYER
5
50
100
AcDbSymbolTableRecord
100
AcDbLayerTableRecord
2
0
70
0
6
CONTINUOUS
0
ENDTAB
0
TABLE
2
STYLE
5
3
100
AcDbSymbolTable
70
1
0
STYLE
5
11
100
AcDbSymbolTableRecord
100
AcDbTextStyleTableRecord
2
STANDARD
70
0
0
ENDTAB
0
TABLE
2
VIEW
5
6
100
AcDbSymbolTable
70
0
0
ENDTAB
0
TABLE
2
UCS
5
7
100
AcDbSymbolTable
70
0
0
ENDTAB
0
TABLE
2
APPID
5
9
100
AcDbSymbolTable
70
2
0
APPID
5
12
100
AcDbSymbolTableRecord
100
AcDbRegAppTableRecord
2
ACAD
70
0
0
ENDTAB
0
TABLE
2
DIMSTYLE
5
A
100
AcDbSymbolTable
70
1
0
ENDTAB
0
TABLE
2
BLOCK_RECORD
5
1
100
AcDbSymbolTable
70
1
0
BLOCK_RECORD
5
1F
100
AcDbSymbolTableRecord
100
AcDbBlockTableRecord
2
*MODEL_SPACE
0
BLOCK_RECORD
5
1B
100
AcDbSymbolTableRecord
100
AcDbBlockTableRecord
2
*PAPER_SPACE
0
ENDTAB
0
ENDSEC
0
SECTION
2
BLOCKS
0
BLOCK
5
20
100
AcDbEntity
100
AcDbBlockBegin
2
*MODEL_SPACE
0
ENDBLK
5
21
100
AcDbEntity
100
AcDbBlockEnd
0
BLOCK
5
1C
100
AcDbEntity
100
AcDbBlockBegin
2
*PAPER_SPACE
0
ENDBLK
5
1D
100
AcDbEntity
100
AcDbBlockEnd
0
ENDSEC
0
SECTION
2
ENTITIES
0
LWPOLYLINE
5
100
100
AcDbEntity
8
0
100
AcDbPolyline
90
38
70
1
43
0.0
10
-65.400472052636999
20
79.341749053679706
10
-58.384334229423125
20
81.652713940199135
42
-0.12380679755907889
10
-58.287035580967945
20
81.659714656365082
10
-43.52870380047505
20
79.057422574093451
42
-0.17840558890433283
10
-43.409193253771761
20
78.987779388963503
10
-39.424789880104399
20
74.160863019724715
42
0.16941495523973801
10
-39.312132036035159
20
74.092551865050865
10
-24.990242229902854
20
71.048340211815201
42
-0.14056478742908238
10
-24.892879377497398
20
70.996565597804334
10
-22.26114452629335
20
68.454650898986117
42
0.14056478742029674
10
-22.163781673894839
20
68.402876284976713
10
-8.3726413106637061
20
65.471478907899083
10
-7.3944937099406314
20
65.263567217083249
42
-0.99999999999999989
10
-7.6024054007587347
20
64.285419616349515
10
-8.5805530014818068
20
64.493331307165363
10
-22.652222405516319
20
67.484356972603962
42
-0.14056478742028969
10
-22.749585257914827
20
67.536131586613365
10
-25.381320109105051
20
70.078046285418182
42
0.1405647874291088
10
-25.478682961510508
20
70.129820899429063
10
-39.861262867075681
20
73.186932631525181
42
-0.16941495523975114
10
-39.973920711144928
20
73.255243786199017
10
-43.945783775713451
20
78.066968163666942
42
0.17840558890433489
10
-44.065294322416733
20
78.13661134879689
10
-58.213035994940512
20
80.63123992091613
42
0.12380679755908983
10
-58.310334643395684
20
80.624239204750197
10
-65.291514147027726
20
78.324788836770878
42
-0.10612239623724844
10
-65.374988852614479
20
78.315845292135748
10
-79.979430425390035
20
79.850833955131392
42
0.12618117357039835
10
-80.07773163739779
20
79.836347399447746
10
-88.562204950529065
20
76.275627473112053
42
-0.09966593876491342
10
-88.639600469883192
20
76.260045296502028
10
-102.99999999994648
20
76.260045296502028
42
-0.99999999999999989
10
-102.99999999994648
20
77.260045296502028
10
-88.840932236115179
20
77.260045296502028
42
0.09966593876485437
10
-88.763536716761053
20
77.275627473112024
10
-80.22824373023272
20
80.857675137427023
42
-0.12618117356989667
10
-80.129942518224937
20
80.872161693110684
10
-65.483946758223752
20
79.332805509044576
42
0.10612239623725311
0
LWPOLYLINE
5
101
100
AcDbEntity
8
0
100
AcDbPolyline
90
38
70
1
43
0.0
10
25.478682961510508
20
70.129820899429063
10
39.861262867075681
20
73.186932631525181
42
0.16941495523975109
10
39.973920711144928
20
73.255243786199017
10
43.945783775713437
20
78.066968163666942
42
-0.17840558890433492
10
44.065294322416733
20
78.13661134879689
10
58.213035994940512
20
80.63123992091613
42
-0.12380679755908981
10
58.310334643395684
20
80.624239204750197
10
65.291514147027726
20
78.324788836770878
42
0.1061223962372484
10
65.374988852614479
20
78.315845292135748
10
79.979430425390035
20
79.850833955131378
42
-0.12618117357022712
10
80.07773163739779
20
79.836347399447732
10
88.562204950529065
20
76.275627473112039
42
0.099665938764811848
10
88.639600469883192
20
76.260045296502028
10
102.99999999994648
20
76.260045296502028
42
0.99999999999999989
10
102.99999999994648
20
77.260045296502028
10
88.840932236115179
20
77.260045296502028
42
-0.099665938764854328
10
88.763536716761053
20
77.275627473112024
10
80.22824373023272
20
80.857675137427023
42
0.12618117356989667
10
80.129942518224937
20
80.872161693110684
10
65.483946758223752
20
79.332805509044576
42
-0.10612239623725314
10
65.400472052636999
20
79.341749053679706
10
58.384334229423125
20
81.652713940199121
42
0.12380679755907893
10
58.287035580967945
20
81.659714656365054
10
43.52870380047505
20
79.057422574093437
42
0.17840558890433489
10
43.409193253771761
20
78.987779388963489
10
39.424789880104399
20
74.160863019724715
42
-0.1694149552397492
10
39.312132036035152
20
74.092551865050865
10
24.990242229902854
20
71.048340211815201
42
0.14056478742910322
10
24.892879377497398
20
70.99656559780432
10
22.261144526293343
20
68.454650898986117
42
-0.14056478742025266
10
22.163781673894839
20
68.402876284976728
10
8.3726413106637061
20
65.471478907899083
10
7.394493709940634
20
65.263567217083249
42
0.99999999999999989
10
7.6024054007587347
20
64.285419616349515
10
8.5805530014818068
20
64.493331307165363
10
22.652222405516319
20
67.484356972603948
42
0.14056478742028417
10
22.749585257914827
20
67.536131586613351
10
25.381320109105047
20
70.078046285418182
42
-0.14056478742910319
0
LINE
5
102
100
AcDbEntity
8
0
100
AcDbLine
10
-6.50000000008394
20
27.475245733278385
30
0
11
-6.50000000008394
21
-7.3247542667216203
31
0
0
LINE
5
103
100
AcDbEntity
8
0
100
AcDbLine
10
-6.50000000008394
20
27.475245733278385
30
0
11
-6.5000000000839409
21
45.373161027959782
31
0
0
LINE
5
104
100
AcDbEntity
8
0
100
AcDbLine
10
-2.9071131767747147
20
64.378449262125528
30
0
11
-6.062952014757963
21
49.531394844324801
31
0
0
LINE
5
105
100
AcDbEntity
8
0
100
AcDbLine
10
-8.3921953417777148e-11
20
64.774493416716382
30
0
11
-2.4180393764078638
21
64.774493416716382
31
0
0
LINE
5
106
100
AcDbEntity
8
0
100
AcDbLine
10
-8.3921953417777148e-11
20
64.774493416716382
30
0
11
2.4262931023217087
21
64.774493416716382
31
0
0
LINE
5
107
100
AcDbEntity
8
0
100
AcDbLine
10
2.9154154211658003
20
64.378220738134502
30
0
11
6.0648927536797981
21
49.526977739034777
31
0
0
LINE
5
108
100
AcDbEntity
8
0
100
AcDbLine
10
6.4999999999160618
20
45.377884882310163
30
0
11
6.4999999999160609
21
27.475245733278385
31
0
0
LINE
5
109
100
AcDbEntity
8
0
100
AcDbLine
10
6.4999999999160609
20
-7.3247542667216177
30
0
11
6.4999999999160609
21
27.475245733278385
31
0
0
LINE
5
110
100
AcDbEntity
8
0
100
AcDbLine
10
-6.3000000000839398
20
-7.5247542667216187
30
0
11
6.2999999999160607
21
-7.5247542667216196
31
0
0
LWPOLYLINE
5
111
100
AcDbEntity
8
0
100
AcDbPolyline
90
40
70
1
43
0.0
10
-37.080155308824914
20
15.549184779285916
10
-51.409247418913331
20
18.594927329544987
42
-0.082713407298970851
10
-51.470413652256198
20
18.618968006656196
10
-54.080956520170631
20
20.182178911103776
42
0.091506326996808524
10
-54.148975456135346
20
20.207551618668958
10
-68.424762186231177
20
22.724757990144319
42
0.12296613964422812
10
-68.521431303261053
20
22.717963473047295
10
-71.229877110006953
20
21.835793068247234
42
-0.10528509268654578
10
-71.312722284151761
20
21.827055722678338
10
-85.742913278932221
20
23.343729911657981
42
0.23859865543787731
10
-85.911696231088683
20
23.279481821411601
10
-88.419559333762749
20
20.525388967154935
42
-0.21109383527963868
10
-88.567436593269377
20
20.460045255982607
10
-103.00000000021926
20
20.460045255989701
42
-0.99999999999999989
10
-103.00000000021876
20
21.460045255989698
10
-89.009314616911155
20
21.460045255982813
42
0.21109383527963113
10
-88.861437357404526
20
21.525388967155152
10
-86.310399586328757
20
24.326895512216264
42
-0.23859865543787667
10
-86.141616634172294
20
24.391143602462648
10
-71.419957874875152
20
22.843834916994219
42
0.10528509268654518
10
-71.337112700730344
20
22.852572262563111
10
-68.593697531899636
20
23.746132570838125
42
-0.12296613964418042
10
-68.497028414869746
20
23.752927087935145
10
-53.793573096004735
20
21.160311205454686
42
-0.091506326996807469
10
-53.725554160040019
20
21.134938497889504
10
-51.099575456730442
20
19.562484509750206
42
0.082713407298968297
10
-51.038409223387575
20
19.538443832638993
10
-36.591714577242854
20
16.467704091676346
42
-0.14056478741518072
10
-36.494351724845529
20
16.415929477672748
10
-33.862616872055163
20
13.874014777582939
42
0.14056478741220491
10
-33.765254019660127
20
13.822240163579824
10
-19.013895645161121
20
10.686742147883306
42
0.013090717079606873
10
-19.003600200009508
20
10.684833999911895
10
-16.137312621832052
20
10.230858646041083
42
-0.99999999999999989
10
-16.293747086869597
20
9.2431703054455205
10
-19.18589819445884
20
9.7012420399469654
42
-0.013090717079708158
10
-19.196193639610449
20
9.7031501879183732
10
-34.253694751246741
20
12.903720851193793
42
-0.14056478741221398
10
-34.35105760364177
20
12.955495465196904
10
-36.982792456427589
20
15.497410165282314
42
0.14056478741519512
0
LWPOLYLINE
5
112
100
AcDbEntity
8
0
100
AcDbPolyline
90
40
70
1
43
0.0
10
36.591714577074974
20
16.467704091676346
10
51.038409223219688
20
19.538443832638997
42
0.082713407299033745
10
51.099575456562562
20
19.562484509750206
10
53.725554159872139
20
21.134938497889504
42
-0.091506326996808468
10
53.793573095836855
20
21.160311205454686
10
68.497028414701873
20
23.752927087935145
42
-0.12296613964427339
10
68.593697531731749
20
23.746132570838125
10
71.337112700562457
20
22.852572262563111
42
0.10528509268654572
10
71.419957874707279
20
22.843834916994222
10
86.141616634004436
20
24.391143602462648
42
-0.23859865543787726
10
86.310399586160884
20
24.326895512216264
10
88.861437357236653
20
21.525388967155155
42
0.21109383527965575
10
89.009314616743296
20
21.460045255982823
10
103.0000000000509
20
21.460045255989698
42
-0.99999999999999989
10
103.0000000000514
20
20.460045255989701
10
88.567436593101519
20
20.460045255982603
42
-0.21109383527963005
10
88.419559333594876
20
20.525388967154928
10
85.911696230920825
20
23.279481821411601
42
0.23859865543786349
10
85.742913278764391
20
23.343729911657974
10
71.312722283983888
20
21.827055722678338
42
-0.10528509268654522
10
71.229877109839066
20
21.835793068247227
10
68.521431303093166
20
22.717963473047295
42
0.12296613964427343
10
68.42476218606329
20
22.724757990144315
10
54.148975455967459
20
20.207551618668951
42
0.091506326996807497
10
54.080956520002744
20
20.182178911103776
10
51.470413652088318
20
18.618968006656193
42
-0.082713407299031885
10
51.409247418745451
20
18.594927329544987
10
37.080155308657027
20
15.549184779285916
42
0.14056478741518072
10
36.982792456259702
20
15.497410165282318
10
34.35105760347389
20
12.955495465196904
42
-0.14056478741221318
10
34.253694751078847
20
12.903720851193789
10
19.196193639442573
20
9.703150187918375
42
-0.01309071707971027
10
19.185898194290964
20
9.7012420399469654
10
16.293747086701718
20
9.2431703054455205
42
-0.99999999999999989
10
16.137312621664176
20
10.230858646041083
10
19.003600199841632
20
10.684833999911895
42
0.013090717079606873
10
19.013895644993241
20
10.686742147883306
10
33.765254019492247
20
13.822240163579824
42
0.14056478741219519
10
33.862616871887276
20
13.874014777582939
10
36.494351724677649
20
16.415929477672744
42
-0.1405647874151951
0
ARC
5
113
100
AcDbEntity
8
0
100
AcDbCircle
10
-6.3000000000839362
20
-7.324754266721615
30
0
40
0.20000000000000351
210
0
220
0
230
1
100
AcDbArc
50
180
51
269.99999999999898
0
ARC
5
114
100
AcDbEntity
8
0
100
AcDbCircle
10
6.2999999999160581
20
-7.3247542667216168
30
0
40
0.2000000000000024
210
-0
220
0
230
1
100
AcDbArc
50
270.00000000000074
51
360
0
ARC
5
115
100
AcDbEntity
8
0
100
AcDbCircle
10
-2.4180393764078638
20
64.274493416716382
30
0
40
0.49999999999999822
210
0
220
-0
230
1
100
AcDbArc
50
90
51
167.99999999996885
0
ARC
5
116
100
AcDbEntity
8
0
100
AcDbCircle
10
2.4262931023217229
20
64.27449341671641
30
0
40
0.49999999999998018
210
0
220
-0
230
1
100
AcDbArc
50
11.973229376616672
51
90.000000000001634
0
ARC
5
117
100
AcDbEntity
8
0
100
AcDbCircle
10
13.49999999991606
20
45.373161027959775
30
0
40
20
210
0
220
0
230
1
100
AcDbArc
50
167.99999999997121
51
180
0
ARC
5
118
100
AcDbEntity
8
0
100
AcDbCircle
10
-13.500000000083316
20
45.377884882310227
30
0
40
19.999999999999378
210
-0
220
0
230
1
100
AcDbArc
50
0
51
11.973229376619186
0
LWPOLYLINE
5
119
100
AcDbEntity
8
0
100
AcDbPolyline
90
156
70
1
43
0.0
10
92.700000000003442
20
86.668448052849826
10
92.699999999999662
20
91.418448052849769
42
-0.4142135623732407
10
92.949999999999534
20
91.668448052849953
10
95.20961179679631
20
91.668448052851119
42
-0.34415073140897945
10
95.694683046869201
20
91.289715865369359
10
97.552658476564758
20
83.857814146591863
42
0.34415073140889146
10
97.795194101601069
20
83.668448052850977
10
98.779805898398877
20
83.668448052850977
42
0.48792836492650132
10
99.022341523435216
20
83.979081959110076
10
98.427658476564829
20
86.357814146591195
42
-0.48792836492650132
10
98.670194101601169
20
86.668448052850295
10
105.58578640926723
20
86.668448052850394
42
-0.19891236737965798
10
106.29289319045378
20
86.375554834036947
10
107.70710675282697
20
84.96134127166377
42
-0.19891236737960258
10
107.99999997164039
20
84.254234490477444
10
107.99999997166009
20
-6.9709795427282906
42
-0.19891236737970416
10
107.70710675284663
20
-7.6780863239150428
10
106.29289319047362
20
-9.0922998862880444
42
-0.1989123673796617
10
105.58578640928707
20
-9.3851931051014965
10
98.670194101601112
20
-9.3851931051013953
42
-0.4879283649265026
10
98.427658476564787
20
-9.0745591988422998
10
99.022341523435159
20
-6.6958270113611453
42
0.4879283649265026
10
98.77980589839882
20
-6.3851931051020516
10
97.795194101601027
20
-6.3851931051020392
42
0.34415073140883912
10
97.552658476564687
20
-6.5745591988429304
10
95.694683046869145
20
-14.006460917620442
42
-0.3441507314090444
10
95.209611796796253
20
-14.385193105102198
10
92.949999999999477
20
-14.385193105101086
42
-0.4142135623731471
10
92.699999999999605
20
-14.135193105100878
10
92.700000000003385
20
-9.3851931051009014
42
0.99999999999999989
10
90.500000000003382
20
-9.3851931051000204
10
90.500000000003382
20
-14.135193105100344
42
-0.4142135623727074
10
90.250000000003695
20
-14.385193105100342
10
87.990388203201505
20
-14.385193105103262
42
-0.34415073140939761
10
87.505316953128144
20
-14.006460917621226
10
85.647341523435188
20
-6.5745591988361971
42
0.34415073140908248
10
85.404805898398848
20
-6.385193105095178
10
84.420194101601084
20
-6.3851931050951807
42
0.4879283649263953
10
84.177658476564744
20
-6.6958270113542326
10
84.772341523436495
20
-9.074559198842481
42
-0.48792836492639663
10
84.529805898400156
20
-9.3851931051015356
10
58.319900577716027
20
-9.385193105101461
42
0.052407779283066849
10
58.267922655011589
20
-9.3906562049180096
10
20.02570186388802
20
-17.519291166904935
42
-0.052407779283094043
10
19.973723941183582
20
-17.524754266721484
10
7.0701941016011904
20
-17.524754266721466
42
-0.48792836492649533
10
6.82765847656486
20
-17.214120360462374
10
7.422341523435251
20
-14.835388172981228
42
0.48792836492650143
10
7.1798058983989197
20
-14.524754266722136
10
6.1951941016011114
20
-14.524754266722137
42
0.34415073140887359
10
5.9526584765647881
20
-14.714120360463014
10
4.094683046869247
20
-22.146022079240517
42
-0.3441507314090142
10
3.6096117967963401
20
-22.524754266722283
10
1.3499999999995649
20
-22.524754266721125
42
-0.41421356237318607
10
1.0999999999996939
20
-22.274754266720919
10
1.1000000000034706
20
-17.52475426672099
42
0.99999999999999989
10
-1.0999999999965295
20
-17.524754266720119
10
-1.099999999996528
20
-22.274754266720443
42
-0.41421356237271556
10
-1.3499999999962031
20
-22.524754266720443
10
-3.6096117967984087
20
-22.524754266723363
42
-0.34415073140939006
10
-4.0946830468717721
20
-22.146022079241327
10
-5.9526584765647268
20
-14.714120360456299
42
0.34415073140903163
10
-6.1951941016010856
20
-14.524754266715282
10
-7.1798058983988335
20
-14.524754266715282
42
0.48792836492644864
10
-7.4223415234351737
20
-14.835388172974335
10
-6.8276584765634185
20
-17.214120360462559
42
-0.48792836492644598
10
-7.0701941015997622
20
-17.524754266721615
10
-19.973723941183586
20
-17.524754266721487
42
-0.052407779283068216
10
-20.025701863888017
20
-17.519291166904939
10
-58.267922655011589
20
-9.3906562049179989
42
0.052407779283066981
10
-58.31990057771602
20
-9.3851931051014503
10
-84.529805898398891
20
-9.3851931051011714
42
-0.48792836492649999
10
-84.772341523435216
20
-9.0745591988420777
10
-84.177658476564844
20
-6.695827011360949
42
0.4879283649265026
10
-84.420194101601169
20
-6.3851931051018553
10
-85.40480589839899
20
-6.3851931051018438
42
0.34415073140883912
10
-85.647341523435315
20
-6.574559198842735
10
-87.505316953130858
20
-14.006460917620247
42
-0.3441507314090444
10
-87.99038820320375
20
-14.385193105102003
10
-90.250000000000512
20
-14.385193105100889
42
-0.41421356237314966
10
-90.500000000000398
20
-14.135193105100679
10
-90.499999999996589
20
-9.3851931051007043
42
0.99999999999999989
10
-92.699999999996621
20
-9.3851931050998232
10
-92.699999999996621
20
-14.135193105100148
42
-0.4142135623727074
10
-92.949999999996308
20
-14.385193105100146
10
-95.209611796798498
20
-14.385193105103067
42
-0.34415073140939761
10
-95.694683046871859
20
-14.00646091762103
10
-97.552658476564815
20
-6.5745591988360017
42
0.34415073140908248
10
-97.795194101601169
20
-6.3851931050949826
10
-98.779805898398919
20
-6.3851931050949817
42
0.48792836492639663
10
-99.022341523435259
20
-6.6958270113540355
10
-98.427658476563508
20
-9.0745591988423122
42
-0.4879283649263953
10
-98.670194101599847
20
-9.3851931051013668
10
-105.58578640928708
20
-9.3851931051014699
42
-0.19891236737967047
10
-106.29289319047365
20
-9.0922998862880196
10
-107.70710675284663
20
-7.6780863239150312
42
-0.19891236737974385
10
-107.99999997166009
20
-6.9709795427282728
10
-107.99999997164039
20
84.254234490477444
42
-0.19891236737960583
10
-107.70710675282695
20
84.961341271663784
10
-106.29289319045378
20
86.375554834036947
42
-0.19891236737965798
10
-105.58578640926723
20
86.668448052850408
10
-98.670194101599805
20
86.668448052850252
42
-0.48792836492648062
10
-98.427658476563451
20
86.35781414659121
10
-99.022341523435188
20
83.979081959103183
42
0.48792836492650737
10
-98.779805898398862
20
83.668448052844127
10
-97.795194101601112
20
83.668448052844127
42
0.3441507314089825
10
-97.552658476564758
20
83.857814146585127
10
-95.694683046871802
20
91.289715865370169
42
-0.34415073140935454
10
-95.209611796798441
20
91.668448052852213
10
-92.949999999996251
20
91.6684480528493
42
-0.41421356237276202
10
-92.699999999996564
20
91.4184480528493
10
-92.699999999996564
20
86.668448052848959
42
0.99999999999999989
10
-90.499999999996561
20
86.668448052849826
10
-90.500000000000341
20
91.418448052849769
42
-0.4142135623732407
10
-90.250000000000469
20
91.668448052849953
10
-87.990388203203693
20
91.668448052851119
42
-0.34415073140897945
10
-87.505316953130801
20
91.289715865369359
10
-85.647341523435244
20
83.857814146591863
42
0.34415073140889146
10
-85.404805898398934
20
83.668448052850977
10
-84.420194101601126
20
83.668448052850977
42
0.48792836492650132
10
-84.177658476564801
20
83.979081959110076
10
-84.772341523435159
20
86.357814146591195
42
-0.48792836492650132
10
-84.529805898398834
20
86.668448052850295
10
-7.070194101599804
20
86.668448052850252
42
-0.48792836492644537
10
-6.8276584765634656
20
86.357814146591195
10
-7.4223415234351968
20
83.979081959103183
42
0.48792836492649638
10
-7.1798058983988655
20
83.668448052844127
10
-6.1951941016011229
20
83.668448052844127
42
0.34415073140898983
10
-5.9526584765647623
20
83.857814146585127
10
-4.0946830468718067
20
91.289715865370169
42
-0.34415073140936897
10
-3.6096117967984496
20
91.668448052852213
10
-1.349999999996244
20
91.668448052849271
42
-0.41421356237276957
10
-1.0999999999965679
20
91.4184480528493
10
-1.0999999999965679
20
86.668448052848959
42
0.99999999999999989
10
1.1000000000034325
20
86.668448052849826
10
1.0999999999996579
20
91.418448052849769
42
-0.41421356237322154
10
1.3499999999995207
20
91.668448052849953
10
3.6096117967962984
20
91.668448052851147
42
-0.34415073140897456
10
4.0946830468692044
20
91.289715865369359
10
5.952658476564757
20
83.857814146591863
42
0.34415073140892671
10
6.195194101601075
20
83.668448052850977
10
7.1798058983988833
20
83.668448052850977
42
0.4879283649264996
10
7.4223415234352119
20
83.979081959110076
10
6.8276584765648192
20
86.357814146591195
42
-0.48792836492650277
10
7.0701941016011549
20
86.668448052850295
10
84.529805898400213
20
86.668448052850238
42
-0.48792836492645869
10
84.772341523436538
20
86.357814146591195
10
84.177658476564801
20
83.979081959103183
42
0.48792836492648056
10
84.42019410160114
20
83.668448052844127
10
85.404805898398891
20
83.668448052844127
42
0.3441507314089825
10
85.647341523435244
20
83.857814146585127
10
87.505316953128187
20
91.289715865370169
42
-0.34415073140935454
10
87.990388203201562
20
91.668448052852213
10
90.250000000003752
20
91.6684480528493
42
-0.41421356237276202
10
90.500000000003439
20
91.4184480528493
10
90.500000000003439
20
86.668448052848959
42
0.99999999999999989
0
ENDSEC
0
SECTION
2
OBJECTS
0
DICTIONARY
5
C
100
AcDbDictionary
3
ACAD_GROUP
350
D
3
ACAD_MLINESTYLE
350
17
0
DICTIONARY
5
D
100
AcDbDictionary
0
DICTIONARY
5
1A
330
C
100
AcDbDictionary
0
DICTIONARY
5
17
100
AcDbDictionary
0
ENDSEC
0
EOF
