<?xml version="1.0" standalone="no"?>
 <!DOCTYPE svg PUBLIC "-//W3C//DTD SVG 1.1//EN" 
 "http://www.w3.org/Graphics/SVG/1.1/DTD/svg11.dtd"> 
<svg
  xmlns:svg="http://www.w3.org/2000/svg"
  xmlns="http://www.w3.org/2000/svg"
  xmlns:xlink="http://www.w3.org/1999/xlink"
  version="1.1"
  width="29.700220cm" height="21.000720cm" viewBox="0 0 297002200 210007200">
<title>SVG Picture created as The-ENDGAME-MX-BAD-Edge_Cuts.svg date 2022/10/26 16:16:27 </title>
  <desc>Picture generated by PCBNEW </desc>
<g style="fill:#000000; fill-opacity:1.000000;stroke:#000000; stroke-opacity:1.000000;
stroke-linecap:round; stroke-linejoin:round;"
 transform="translate(0 0) scale(1 1)">
</g>
<g style="fill:#000000; fill-opacity:0.0; 
stroke:#000000; stroke-width:0.000000; stroke-opacity:1; 
stroke-linecap:round; stroke-linejoin:round;">
</g>
<g style="fill:#000000; fill-opacity:0.0; 
stroke:#000000; stroke-width:21200.000000; stroke-opacity:1; 
stroke-linecap:round; stroke-linejoin:round;">
</g>
<g style="fill:#000000; fill-opacity:0.0; 
stroke:#000000; stroke-width:150000.000000; stroke-opacity:1; 
stroke-linecap:round; stroke-linejoin:round;">
<rect x="177002200.000000" y="166007200.000000" width="108000000.000000" height="32000000.000000" rx="0.000000" />
</g>
<g style="fill:#000000; fill-opacity:0.0; 
stroke:#000000; stroke-width:21200.000000; stroke-opacity:1; 
stroke-linecap:round; stroke-linejoin:round;">
</g>
<g style="fill:#000000; fill-opacity:0.0; 
stroke:#000000; stroke-width:150000.000000; stroke-opacity:1; 
stroke-linecap:round; stroke-linejoin:round;">
<rect x="10000000.000000" y="10000000.000000" width="277002200.000000" height="190007200.000000" rx="0.000000" />
</g>
<g style="fill:#000000; fill-opacity:0.0; 
stroke:#000000; stroke-width:21200.000000; stroke-opacity:1; 
stroke-linecap:round; stroke-linejoin:round;">
</g>
<g style="fill:#000000; fill-opacity:0.0; 
stroke:#000000; stroke-width:150000.000000; stroke-opacity:1; 
stroke-linecap:round; stroke-linejoin:round;">
<rect x="12000000.000000" y="12000000.000000" width="273002200.000000" height="186007200.000000" rx="0.000000" />
</g>
<g style="fill:#000000; fill-opacity:0.0; 
stroke:#000000; stroke-width:21200.000000; stroke-opacity:1; 
stroke-linecap:round; stroke-linejoin:round;">
</g>
<g style="fill:#000000; fill-opacity:0.0; 
stroke:#000000; stroke-width:150000.000000; stroke-opacity:1; 
stroke-linecap:round; stroke-linejoin:round;">
<path d="M60000000 12000000
L60000000 10000000
" />
</g>
<g style="fill:#000000; fill-opacity:0.0; 
stroke:#000000; stroke-width:21200.000000; stroke-opacity:1; 
stroke-linecap:round; stroke-linejoin:round;">
</g>
<g style="fill:#000000; fill-opacity:0.0; 
stroke:#000000; stroke-width:150000.000000; stroke-opacity:1; 
stroke-linecap:round; stroke-linejoin:round;">
<path d="M110000000 12000000
L110000000 10000000
" />
</g>
<g style="fill:#000000; fill-opacity:0.0; 
stroke:#000000; stroke-width:21200.000000; stroke-opacity:1; 
stroke-linecap:round; stroke-linejoin:round;">
</g>
<g style="fill:#000000; fill-opacity:0.0; 
stroke:#000000; stroke-width:150000.000000; stroke-opacity:1; 
stroke-linecap:round; stroke-linejoin:round;">
<path d="M160000000 12000000
L160000000 10000000
" />
</g>
<g style="fill:#000000; fill-opacity:0.0; 
stroke:#000000; stroke-width:21200.000000; stroke-opacity:1; 
stroke-linecap:round; stroke-linejoin:round;">
</g>
<g style="fill:#000000; fill-opacity:0.0; 
stroke:#000000; stroke-width:150000.000000; stroke-opacity:1; 
stroke-linecap:round; stroke-linejoin:round;">
<path d="M210000000 12000000
L210000000 10000000
" />
</g>
<g style="fill:#000000; fill-opacity:0.0; 
stroke:#000000; stroke-width:21200.000000; stroke-opacity:1; 
stroke-linecap:round; stroke-linejoin:round;">
</g>
<g style="fill:#000000; fill-opacity:0.0; 
stroke:#000000; stroke-width:150000.000000; stroke-opacity:1; 
stroke-linecap:round; stroke-linejoin:round;">
<path d="M260000000 12000000
L260000000 10000000
" />
</g>
<g style="fill:#000000; fill-opacity:0.0; 
stroke:#000000; stroke-width:21200.000000; stroke-opacity:1; 
stroke-linecap:round; stroke-linejoin:round;">
</g>
<g style="fill:#000000; fill-opacity:0.0; 
stroke:#000000; stroke-width:150000.000000; stroke-opacity:1; 
stroke-linecap:round; stroke-linejoin:round;">
<text x="35000000.000000" y="11650000.000000"
textLength="1388095.000000" font-size="1733333.000000" lengthAdjust="spacingAndGlyphs"
text-anchor="start" opacity="0">1</text>
<g class="stroked-text"><desc>1</desc>
<path d="M36065476 11588095
L35322619 11588095
" />
<path d="M35694047 11588095
L35694047 10288095
L35570238 10473809
L35446428 10597619
L35322619 10659523
" />
</g></g>
<g style="fill:#000000; fill-opacity:0.0; 
stroke:#000000; stroke-width:21200.000000; stroke-opacity:1; 
stroke-linecap:round; stroke-linejoin:round;">
</g>
<g style="fill:#000000; fill-opacity:0.0; 
stroke:#000000; stroke-width:150000.000000; stroke-opacity:1; 
stroke-linecap:round; stroke-linejoin:round;">
<text x="85000000.000000" y="11650000.000000"
textLength="1388095.000000" font-size="1733333.000000" lengthAdjust="spacingAndGlyphs"
text-anchor="start" opacity="0">2</text>
<g class="stroked-text"><desc>2</desc>
<path d="M85322619 10411904
L85384523 10350000
L85508333 10288095
L85817857 10288095
L85941666 10350000
L86003571 10411904
L86065476 10535714
L86065476 10659523
L86003571 10845238
L85260714 11588095
L86065476 11588095
" />
</g></g>
<g style="fill:#000000; fill-opacity:0.0; 
stroke:#000000; stroke-width:21200.000000; stroke-opacity:1; 
stroke-linecap:round; stroke-linejoin:round;">
</g>
<g style="fill:#000000; fill-opacity:0.0; 
stroke:#000000; stroke-width:150000.000000; stroke-opacity:1; 
stroke-linecap:round; stroke-linejoin:round;">
<text x="135000000.000000" y="11650000.000000"
textLength="1388095.000000" font-size="1733333.000000" lengthAdjust="spacingAndGlyphs"
text-anchor="start" opacity="0">3</text>
<g class="stroked-text"><desc>3</desc>
<path d="M135260714 10288095
L136065476 10288095
L135632142 10783333
L135817857 10783333
L135941666 10845238
L136003571 10907142
L136065476 11030952
L136065476 11340476
L136003571 11464285
L135941666 11526190
L135817857 11588095
L135446428 11588095
L135322619 11526190
L135260714 11464285
" />
</g></g>
<g style="fill:#000000; fill-opacity:0.0; 
stroke:#000000; stroke-width:21200.000000; stroke-opacity:1; 
stroke-linecap:round; stroke-linejoin:round;">
</g>
<g style="fill:#000000; fill-opacity:0.0; 
stroke:#000000; stroke-width:150000.000000; stroke-opacity:1; 
stroke-linecap:round; stroke-linejoin:round;">
<text x="185000000.000000" y="11650000.000000"
textLength="1388095.000000" font-size="1733333.000000" lengthAdjust="spacingAndGlyphs"
text-anchor="start" opacity="0">4</text>
<g class="stroked-text"><desc>4</desc>
<path d="M185941666 10721428
L185941666 11588095
" />
<path d="M185632142 10226190
L185322619 11154761
L186127380 11154761
" />
</g></g>
<g style="fill:#000000; fill-opacity:0.0; 
stroke:#000000; stroke-width:21200.000000; stroke-opacity:1; 
stroke-linecap:round; stroke-linejoin:round;">
</g>
<g style="fill:#000000; fill-opacity:0.0; 
stroke:#000000; stroke-width:150000.000000; stroke-opacity:1; 
stroke-linecap:round; stroke-linejoin:round;">
<text x="235000000.000000" y="11650000.000000"
textLength="1388095.000000" font-size="1733333.000000" lengthAdjust="spacingAndGlyphs"
text-anchor="start" opacity="0">5</text>
<g class="stroked-text"><desc>5</desc>
<path d="M236003571 10288095
L235384523 10288095
L235322619 10907142
L235384523 10845238
L235508333 10783333
L235817857 10783333
L235941666 10845238
L236003571 10907142
L236065476 11030952
L236065476 11340476
L236003571 11464285
L235941666 11526190
L235817857 11588095
L235508333 11588095
L235384523 11526190
L235322619 11464285
" />
</g></g>
<g style="fill:#000000; fill-opacity:0.0; 
stroke:#000000; stroke-width:21200.000000; stroke-opacity:1; 
stroke-linecap:round; stroke-linejoin:round;">
</g>
<g style="fill:#000000; fill-opacity:0.0; 
stroke:#000000; stroke-width:150000.000000; stroke-opacity:1; 
stroke-linecap:round; stroke-linejoin:round;">
<text x="285000000.000000" y="11650000.000000"
textLength="1388095.000000" font-size="1733333.000000" lengthAdjust="spacingAndGlyphs"
text-anchor="start" opacity="0">6</text>
<g class="stroked-text"><desc>6</desc>
<path d="M285941666 10288095
L285694047 10288095
L285570238 10350000
L285508333 10411904
L285384523 10597619
L285322619 10845238
L285322619 11340476
L285384523 11464285
L285446428 11526190
L285570238 11588095
L285817857 11588095
L285941666 11526190
L286003571 11464285
L286065476 11340476
L286065476 11030952
L286003571 10907142
L285941666 10845238
L285817857 10783333
L285570238 10783333
L285446428 10845238
L285384523 10907142
L285322619 11030952
" />
</g></g>
<g style="fill:#000000; fill-opacity:0.0; 
stroke:#000000; stroke-width:21200.000000; stroke-opacity:1; 
stroke-linecap:round; stroke-linejoin:round;">
</g>
<g style="fill:#000000; fill-opacity:0.0; 
stroke:#000000; stroke-width:150000.000000; stroke-opacity:1; 
stroke-linecap:round; stroke-linejoin:round;">
<path d="M60000000 198007200
L60000000 200007200
" />
</g>
<g style="fill:#000000; fill-opacity:0.0; 
stroke:#000000; stroke-width:21200.000000; stroke-opacity:1; 
stroke-linecap:round; stroke-linejoin:round;">
</g>
<g style="fill:#000000; fill-opacity:0.0; 
stroke:#000000; stroke-width:150000.000000; stroke-opacity:1; 
stroke-linecap:round; stroke-linejoin:round;">
<path d="M110000000 198007200
L110000000 200007200
" />
</g>
<g style="fill:#000000; fill-opacity:0.0; 
stroke:#000000; stroke-width:21200.000000; stroke-opacity:1; 
stroke-linecap:round; stroke-linejoin:round;">
</g>
<g style="fill:#000000; fill-opacity:0.0; 
stroke:#000000; stroke-width:150000.000000; stroke-opacity:1; 
stroke-linecap:round; stroke-linejoin:round;">
<path d="M160000000 198007200
L160000000 200007200
" />
</g>
<g style="fill:#000000; fill-opacity:0.0; 
stroke:#000000; stroke-width:21200.000000; stroke-opacity:1; 
stroke-linecap:round; stroke-linejoin:round;">
</g>
<g style="fill:#000000; fill-opacity:0.0; 
stroke:#000000; stroke-width:150000.000000; stroke-opacity:1; 
stroke-linecap:round; stroke-linejoin:round;">
<path d="M210000000 198007200
L210000000 200007200
" />
</g>
<g style="fill:#000000; fill-opacity:0.0; 
stroke:#000000; stroke-width:21200.000000; stroke-opacity:1; 
stroke-linecap:round; stroke-linejoin:round;">
</g>
<g style="fill:#000000; fill-opacity:0.0; 
stroke:#000000; stroke-width:150000.000000; stroke-opacity:1; 
stroke-linecap:round; stroke-linejoin:round;">
<path d="M260000000 198007200
L260000000 200007200
" />
</g>
<g style="fill:#000000; fill-opacity:0.0; 
stroke:#000000; stroke-width:21200.000000; stroke-opacity:1; 
stroke-linecap:round; stroke-linejoin:round;">
</g>
<g style="fill:#000000; fill-opacity:0.0; 
stroke:#000000; stroke-width:150000.000000; stroke-opacity:1; 
stroke-linecap:round; stroke-linejoin:round;">
<text x="35000000.000000" y="199657200.000000"
textLength="1388095.000000" font-size="1733333.000000" lengthAdjust="spacingAndGlyphs"
text-anchor="start" opacity="0">1</text>
<g class="stroked-text"><desc>1</desc>
<path d="M36065476 199595295
L35322619 199595295
" />
<path d="M35694047 199595295
L35694047 198295295
L35570238 198481009
L35446428 198604819
L35322619 198666723
" />
</g></g>
<g style="fill:#000000; fill-opacity:0.0; 
stroke:#000000; stroke-width:21200.000000; stroke-opacity:1; 
stroke-linecap:round; stroke-linejoin:round;">
</g>
<g style="fill:#000000; fill-opacity:0.0; 
stroke:#000000; stroke-width:150000.000000; stroke-opacity:1; 
stroke-linecap:round; stroke-linejoin:round;">
<text x="85000000.000000" y="199657200.000000"
textLength="1388095.000000" font-size="1733333.000000" lengthAdjust="spacingAndGlyphs"
text-anchor="start" opacity="0">2</text>
<g class="stroked-text"><desc>2</desc>
<path d="M85322619 198419104
L85384523 198357200
L85508333 198295295
L85817857 198295295
L85941666 198357200
L86003571 198419104
L86065476 198542914
L86065476 198666723
L86003571 198852438
L85260714 199595295
L86065476 199595295
" />
</g></g>
<g style="fill:#000000; fill-opacity:0.0; 
stroke:#000000; stroke-width:21200.000000; stroke-opacity:1; 
stroke-linecap:round; stroke-linejoin:round;">
</g>
<g style="fill:#000000; fill-opacity:0.0; 
stroke:#000000; stroke-width:150000.000000; stroke-opacity:1; 
stroke-linecap:round; stroke-linejoin:round;">
<text x="135000000.000000" y="199657200.000000"
textLength="1388095.000000" font-size="1733333.000000" lengthAdjust="spacingAndGlyphs"
text-anchor="start" opacity="0">3</text>
<g class="stroked-text"><desc>3</desc>
<path d="M135260714 198295295
L136065476 198295295
L135632142 198790533
L135817857 198790533
L135941666 198852438
L136003571 198914342
L136065476 199038152
L136065476 199347676
L136003571 199471485
L135941666 199533390
L135817857 199595295
L135446428 199595295
L135322619 199533390
L135260714 199471485
" />
</g></g>
<g style="fill:#000000; fill-opacity:0.0; 
stroke:#000000; stroke-width:21200.000000; stroke-opacity:1; 
stroke-linecap:round; stroke-linejoin:round;">
</g>
<g style="fill:#000000; fill-opacity:0.0; 
stroke:#000000; stroke-width:150000.000000; stroke-opacity:1; 
stroke-linecap:round; stroke-linejoin:round;">
<text x="185000000.000000" y="199657200.000000"
textLength="1388095.000000" font-size="1733333.000000" lengthAdjust="spacingAndGlyphs"
text-anchor="start" opacity="0">4</text>
<g class="stroked-text"><desc>4</desc>
<path d="M185941666 198728628
L185941666 199595295
" />
<path d="M185632142 198233390
L185322619 199161961
L186127380 199161961
" />
</g></g>
<g style="fill:#000000; fill-opacity:0.0; 
stroke:#000000; stroke-width:21200.000000; stroke-opacity:1; 
stroke-linecap:round; stroke-linejoin:round;">
</g>
<g style="fill:#000000; fill-opacity:0.0; 
stroke:#000000; stroke-width:150000.000000; stroke-opacity:1; 
stroke-linecap:round; stroke-linejoin:round;">
<text x="235000000.000000" y="199657200.000000"
textLength="1388095.000000" font-size="1733333.000000" lengthAdjust="spacingAndGlyphs"
text-anchor="start" opacity="0">5</text>
<g class="stroked-text"><desc>5</desc>
<path d="M236003571 198295295
L235384523 198295295
L235322619 198914342
L235384523 198852438
L235508333 198790533
L235817857 198790533
L235941666 198852438
L236003571 198914342
L236065476 199038152
L236065476 199347676
L236003571 199471485
L235941666 199533390
L235817857 199595295
L235508333 199595295
L235384523 199533390
L235322619 199471485
" />
</g></g>
<g style="fill:#000000; fill-opacity:0.0; 
stroke:#000000; stroke-width:21200.000000; stroke-opacity:1; 
stroke-linecap:round; stroke-linejoin:round;">
</g>
<g style="fill:#000000; fill-opacity:0.0; 
stroke:#000000; stroke-width:150000.000000; stroke-opacity:1; 
stroke-linecap:round; stroke-linejoin:round;">
<text x="285000000.000000" y="199657200.000000"
textLength="1388095.000000" font-size="1733333.000000" lengthAdjust="spacingAndGlyphs"
text-anchor="start" opacity="0">6</text>
<g class="stroked-text"><desc>6</desc>
<path d="M285941666 198295295
L285694047 198295295
L285570238 198357200
L285508333 198419104
L285384523 198604819
L285322619 198852438
L285322619 199347676
L285384523 199471485
L285446428 199533390
L285570238 199595295
L285817857 199595295
L285941666 199533390
L286003571 199471485
L286065476 199347676
L286065476 199038152
L286003571 198914342
L285941666 198852438
L285817857 198790533
L285570238 198790533
L285446428 198852438
L285384523 198914342
L285322619 199038152
" />
</g></g>
<g style="fill:#000000; fill-opacity:0.0; 
stroke:#000000; stroke-width:21200.000000; stroke-opacity:1; 
stroke-linecap:round; stroke-linejoin:round;">
</g>
<g style="fill:#000000; fill-opacity:0.0; 
stroke:#000000; stroke-width:150000.000000; stroke-opacity:1; 
stroke-linecap:round; stroke-linejoin:round;">
<path d="M10000000 60000000
L12000000 60000000
" />
</g>
<g style="fill:#000000; fill-opacity:0.0; 
stroke:#000000; stroke-width:21200.000000; stroke-opacity:1; 
stroke-linecap:round; stroke-linejoin:round;">
</g>
<g style="fill:#000000; fill-opacity:0.0; 
stroke:#000000; stroke-width:150000.000000; stroke-opacity:1; 
stroke-linecap:round; stroke-linejoin:round;">
<path d="M10000000 110000000
L12000000 110000000
" />
</g>
<g style="fill:#000000; fill-opacity:0.0; 
stroke:#000000; stroke-width:21200.000000; stroke-opacity:1; 
stroke-linecap:round; stroke-linejoin:round;">
</g>
<g style="fill:#000000; fill-opacity:0.0; 
stroke:#000000; stroke-width:150000.000000; stroke-opacity:1; 
stroke-linecap:round; stroke-linejoin:round;">
<path d="M10000000 160000000
L12000000 160000000
" />
</g>
<g style="fill:#000000; fill-opacity:0.0; 
stroke:#000000; stroke-width:21200.000000; stroke-opacity:1; 
stroke-linecap:round; stroke-linejoin:round;">
</g>
<g style="fill:#000000; fill-opacity:0.0; 
stroke:#000000; stroke-width:150000.000000; stroke-opacity:1; 
stroke-linecap:round; stroke-linejoin:round;">
<text x="11000000.000000" y="35650000.000000"
textLength="1264286.000000" font-size="1733333.000000" lengthAdjust="spacingAndGlyphs"
text-anchor="middle" opacity="0">A</text>
<g class="stroked-text"><desc>A</desc>
<path d="M10690476 35216666
L11309523 35216666
" />
<path d="M10566666 35588095
L11000000 34288095
L11433333 35588095
" />
</g></g>
<g style="fill:#000000; fill-opacity:0.0; 
stroke:#000000; stroke-width:21200.000000; stroke-opacity:1; 
stroke-linecap:round; stroke-linejoin:round;">
</g>
<g style="fill:#000000; fill-opacity:0.0; 
stroke:#000000; stroke-width:150000.000000; stroke-opacity:1; 
stroke-linecap:round; stroke-linejoin:round;">
<text x="11000000.000000" y="85650000.000000"
textLength="1450000.000000" font-size="1733333.000000" lengthAdjust="spacingAndGlyphs"
text-anchor="middle" opacity="0">B</text>
<g class="stroked-text"><desc>B</desc>
<path d="M11092857 84907142
L11278571 84969047
L11340476 85030952
L11402380 85154761
L11402380 85340476
L11340476 85464285
L11278571 85526190
L11154761 85588095
L10659523 85588095
L10659523 84288095
L11092857 84288095
L11216666 84350000
L11278571 84411904
L11340476 84535714
L11340476 84659523
L11278571 84783333
L11216666 84845238
L11092857 84907142
L10659523 84907142
" />
</g></g>
<g style="fill:#000000; fill-opacity:0.0; 
stroke:#000000; stroke-width:21200.000000; stroke-opacity:1; 
stroke-linecap:round; stroke-linejoin:round;">
</g>
<g style="fill:#000000; fill-opacity:0.0; 
stroke:#000000; stroke-width:150000.000000; stroke-opacity:1; 
stroke-linecap:round; stroke-linejoin:round;">
<text x="11000000.000000" y="135650000.000000"
textLength="1450000.000000" font-size="1733333.000000" lengthAdjust="spacingAndGlyphs"
text-anchor="middle" opacity="0">C</text>
<g class="stroked-text"><desc>C</desc>
<path d="M11402380 135464285
L11340476 135526190
L11154761 135588095
L11030952 135588095
L10845238 135526190
L10721428 135402380
L10659523 135278571
L10597619 135030952
L10597619 134845238
L10659523 134597619
L10721428 134473809
L10845238 134350000
L11030952 134288095
L11154761 134288095
L11340476 134350000
L11402380 134411904
" />
</g></g>
<g style="fill:#000000; fill-opacity:0.0; 
stroke:#000000; stroke-width:21200.000000; stroke-opacity:1; 
stroke-linecap:round; stroke-linejoin:round;">
</g>
<g style="fill:#000000; fill-opacity:0.0; 
stroke:#000000; stroke-width:150000.000000; stroke-opacity:1; 
stroke-linecap:round; stroke-linejoin:round;">
<text x="11000000.000000" y="185650000.000000"
textLength="1450000.000000" font-size="1733333.000000" lengthAdjust="spacingAndGlyphs"
text-anchor="middle" opacity="0">D</text>
<g class="stroked-text"><desc>D</desc>
<path d="M10659523 185588095
L10659523 184288095
L10969047 184288095
L11154761 184350000
L11278571 184473809
L11340476 184597619
L11402380 184845238
L11402380 185030952
L11340476 185278571
L11278571 185402380
L11154761 185526190
L10969047 185588095
L10659523 185588095
" />
</g></g>
<g style="fill:#000000; fill-opacity:0.0; 
stroke:#000000; stroke-width:21200.000000; stroke-opacity:1; 
stroke-linecap:round; stroke-linejoin:round;">
</g>
<g style="fill:#000000; fill-opacity:0.0; 
stroke:#000000; stroke-width:150000.000000; stroke-opacity:1; 
stroke-linecap:round; stroke-linejoin:round;">
<path d="M287002200 60000000
L285002200 60000000
" />
</g>
<g style="fill:#000000; fill-opacity:0.0; 
stroke:#000000; stroke-width:21200.000000; stroke-opacity:1; 
stroke-linecap:round; stroke-linejoin:round;">
</g>
<g style="fill:#000000; fill-opacity:0.0; 
stroke:#000000; stroke-width:150000.000000; stroke-opacity:1; 
stroke-linecap:round; stroke-linejoin:round;">
<path d="M287002200 110000000
L285002200 110000000
" />
</g>
<g style="fill:#000000; fill-opacity:0.0; 
stroke:#000000; stroke-width:21200.000000; stroke-opacity:1; 
stroke-linecap:round; stroke-linejoin:round;">
</g>
<g style="fill:#000000; fill-opacity:0.0; 
stroke:#000000; stroke-width:150000.000000; stroke-opacity:1; 
stroke-linecap:round; stroke-linejoin:round;">
<path d="M287002200 160000000
L285002200 160000000
" />
</g>
<g style="fill:#000000; fill-opacity:0.0; 
stroke:#000000; stroke-width:21200.000000; stroke-opacity:1; 
stroke-linecap:round; stroke-linejoin:round;">
</g>
<g style="fill:#000000; fill-opacity:0.0; 
stroke:#000000; stroke-width:150000.000000; stroke-opacity:1; 
stroke-linecap:round; stroke-linejoin:round;">
<text x="286002200.000000" y="35650000.000000"
textLength="1264286.000000" font-size="1733333.000000" lengthAdjust="spacingAndGlyphs"
text-anchor="middle" opacity="0">A</text>
<g class="stroked-text"><desc>A</desc>
<path d="M285692676 35216666
L286311723 35216666
" />
<path d="M285568866 35588095
L286002200 34288095
L286435533 35588095
" />
</g></g>
<g style="fill:#000000; fill-opacity:0.0; 
stroke:#000000; stroke-width:21200.000000; stroke-opacity:1; 
stroke-linecap:round; stroke-linejoin:round;">
</g>
<g style="fill:#000000; fill-opacity:0.0; 
stroke:#000000; stroke-width:150000.000000; stroke-opacity:1; 
stroke-linecap:round; stroke-linejoin:round;">
<text x="286002200.000000" y="85650000.000000"
textLength="1450000.000000" font-size="1733333.000000" lengthAdjust="spacingAndGlyphs"
text-anchor="middle" opacity="0">B</text>
<g class="stroked-text"><desc>B</desc>
<path d="M286095057 84907142
L286280771 84969047
L286342676 85030952
L286404580 85154761
L286404580 85340476
L286342676 85464285
L286280771 85526190
L286156961 85588095
L285661723 85588095
L285661723 84288095
L286095057 84288095
L286218866 84350000
L286280771 84411904
L286342676 84535714
L286342676 84659523
L286280771 84783333
L286218866 84845238
L286095057 84907142
L285661723 84907142
" />
</g></g>
<g style="fill:#000000; fill-opacity:0.0; 
stroke:#000000; stroke-width:21200.000000; stroke-opacity:1; 
stroke-linecap:round; stroke-linejoin:round;">
</g>
<g style="fill:#000000; fill-opacity:0.0; 
stroke:#000000; stroke-width:150000.000000; stroke-opacity:1; 
stroke-linecap:round; stroke-linejoin:round;">
<text x="286002200.000000" y="135650000.000000"
textLength="1450000.000000" font-size="1733333.000000" lengthAdjust="spacingAndGlyphs"
text-anchor="middle" opacity="0">C</text>
<g class="stroked-text"><desc>C</desc>
<path d="M286404580 135464285
L286342676 135526190
L286156961 135588095
L286033152 135588095
L285847438 135526190
L285723628 135402380
L285661723 135278571
L285599819 135030952
L285599819 134845238
L285661723 134597619
L285723628 134473809
L285847438 134350000
L286033152 134288095
L286156961 134288095
L286342676 134350000
L286404580 134411904
" />
</g></g>
<g style="fill:#000000; fill-opacity:0.0; 
stroke:#000000; stroke-width:21200.000000; stroke-opacity:1; 
stroke-linecap:round; stroke-linejoin:round;">
</g>
<g style="fill:#000000; fill-opacity:0.0; 
stroke:#000000; stroke-width:150000.000000; stroke-opacity:1; 
stroke-linecap:round; stroke-linejoin:round;">
<text x="286002200.000000" y="185650000.000000"
textLength="1450000.000000" font-size="1733333.000000" lengthAdjust="spacingAndGlyphs"
text-anchor="middle" opacity="0">D</text>
<g class="stroked-text"><desc>D</desc>
<path d="M285661723 185588095
L285661723 184288095
L285971247 184288095
L286156961 184350000
L286280771 184473809
L286342676 184597619
L286404580 184845238
L286404580 185030952
L286342676 185278571
L286280771 185402380
L286156961 185526190
L285971247 185588095
L285661723 185588095
" />
</g></g>
<g style="fill:#000000; fill-opacity:0.0; 
stroke:#000000; stroke-width:21200.000000; stroke-opacity:1; 
stroke-linecap:round; stroke-linejoin:round;">
</g>
<g style="fill:#000000; fill-opacity:0.0; 
stroke:#000000; stroke-width:150000.000000; stroke-opacity:1; 
stroke-linecap:round; stroke-linejoin:round;">
<text x="200002200.000000" y="193857200.000000"
textLength="7007143.000000" font-size="2000000.000000" lengthAdjust="spacingAndGlyphs"
text-anchor="start" opacity="0">Date: </text>
<g class="stroked-text"><desc>Date: </desc>
<path d="M200434342 193785771
L200434342 192285771
L200791485 192285771
L201005771 192357200
L201148628 192500057
L201220057 192642914
L201291485 192928628
L201291485 193142914
L201220057 193428628
L201148628 193571485
L201005771 193714342
L200791485 193785771
L200434342 193785771
" />
<path d="M202577200 193785771
L202577200 193000057
L202505771 192857200
L202362914 192785771
L202077200 192785771
L201934342 192857200
" />
<path d="M202577200 193714342
L202434342 193785771
L202077200 193785771
L201934342 193714342
L201862914 193571485
L201862914 193428628
L201934342 193285771
L202077200 193214342
L202434342 193214342
L202577200 193142914
" />
<path d="M203077200 192785771
L203648628 192785771
" />
<path d="M203291485 192285771
L203291485 193571485
L203362914 193714342
L203505771 193785771
L203648628 193785771
" />
<path d="M204720057 193714342
L204577200 193785771
L204291485 193785771
L204148628 193714342
L204077200 193571485
L204077200 193000057
L204148628 192857200
L204291485 192785771
L204577200 192785771
L204720057 192857200
L204791485 193000057
L204791485 193142914
L204077200 193285771
" />
<path d="M205434342 193642914
L205505771 193714342
L205434342 193785771
L205362914 193714342
L205434342 193642914
L205434342 193785771
" />
<path d="M205434342 192857200
L205505771 192928628
L205434342 193000057
L205362914 192928628
L205434342 192857200
L205434342 193000057
" />
</g></g>
<g style="fill:#000000; fill-opacity:0.0; 
stroke:#000000; stroke-width:21200.000000; stroke-opacity:1; 
stroke-linecap:round; stroke-linejoin:round;">
</g>
<g style="fill:#000000; fill-opacity:0.0; 
stroke:#000000; stroke-width:150000.000000; stroke-opacity:1; 
stroke-linecap:round; stroke-linejoin:round;">
<path d="M177002200 194507200
L285002200 194507200
" />
</g>
<g style="fill:#000000; fill-opacity:0.0; 
stroke:#000000; stroke-width:21200.000000; stroke-opacity:1; 
stroke-linecap:round; stroke-linejoin:round;">
</g>
<g style="fill:#000000; fill-opacity:0.0; 
stroke:#000000; stroke-width:150000.000000; stroke-opacity:1; 
stroke-linecap:round; stroke-linejoin:round;">
<text x="178002200.000000" y="196657200.000000"
textLength="34364286.000000" font-size="2000000.000000" lengthAdjust="spacingAndGlyphs"
text-anchor="start" opacity="0">KiCad E.D.A.  kicad (6.0.4-0)</text>
<g class="stroked-text"><desc>KiCad E.D.A.  kicad (6.0.4-0)</desc>
<path d="M178434342 196585771
L178434342 195085771
" />
<path d="M179291485 196585771
L178648628 195728628
" />
<path d="M179291485 195085771
L178434342 195942914
" />
<path d="M179934342 196585771
L179934342 195585771
" />
<path d="M179934342 195085771
L179862914 195157200
L179934342 195228628
L180005771 195157200
L179934342 195085771
L179934342 195228628
" />
<path d="M181505771 196442914
L181434342 196514342
L181220057 196585771
L181077200 196585771
L180862914 196514342
L180720057 196371485
L180648628 196228628
L180577200 195942914
L180577200 195728628
L180648628 195442914
L180720057 195300057
L180862914 195157200
L181077200 195085771
L181220057 195085771
L181434342 195157200
L181505771 195228628
" />
<path d="M182791485 196585771
L182791485 195800057
L182720057 195657200
L182577200 195585771
L182291485 195585771
L182148628 195657200
" />
<path d="M182791485 196514342
L182648628 196585771
L182291485 196585771
L182148628 196514342
L182077200 196371485
L182077200 196228628
L182148628 196085771
L182291485 196014342
L182648628 196014342
L182791485 195942914
" />
<path d="M184148628 196585771
L184148628 195085771
" />
<path d="M184148628 196514342
L184005771 196585771
L183720057 196585771
L183577200 196514342
L183505771 196442914
L183434342 196300057
L183434342 195871485
L183505771 195728628
L183577200 195657200
L183720057 195585771
L184005771 195585771
L184148628 195657200
" />
<path d="M186005771 195800057
L186505771 195800057
" />
<path d="M186720057 196585771
L186005771 196585771
L186005771 195085771
L186720057 195085771
" />
<path d="M187362914 196442914
L187434342 196514342
L187362914 196585771
L187291485 196514342
L187362914 196442914
L187362914 196585771
" />
<path d="M188077200 196585771
L188077200 195085771
L188434342 195085771
L188648628 195157200
L188791485 195300057
L188862914 195442914
L188934342 195728628
L188934342 195942914
L188862914 196228628
L188791485 196371485
L188648628 196514342
L188434342 196585771
L188077200 196585771
" />
<path d="M189577200 196442914
L189648628 196514342
L189577200 196585771
L189505771 196514342
L189577200 196442914
L189577200 196585771
" />
<path d="M190220057 196157200
L190934342 196157200
" />
<path d="M190077200 196585771
L190577200 195085771
L191077200 196585771
" />
<path d="M191577200 196442914
L191648628 196514342
L191577200 196585771
L191505771 196514342
L191577200 196442914
L191577200 196585771
" />
<path d="M194577200 196585771
L194577200 195085771
" />
<path d="M194720057 196014342
L195148628 196585771
" />
<path d="M195148628 195585771
L194577200 196157200
" />
<path d="M195791485 196585771
L195791485 195585771
" />
<path d="M195791485 195085771
L195720057 195157200
L195791485 195228628
L195862914 195157200
L195791485 195085771
L195791485 195228628
" />
<path d="M197148628 196514342
L197005771 196585771
L196720057 196585771
L196577200 196514342
L196505771 196442914
L196434342 196300057
L196434342 195871485
L196505771 195728628
L196577200 195657200
L196720057 195585771
L197005771 195585771
L197148628 195657200
" />
<path d="M198434342 196585771
L198434342 195800057
L198362914 195657200
L198220057 195585771
L197934342 195585771
L197791485 195657200
" />
<path d="M198434342 196514342
L198291485 196585771
L197934342 196585771
L197791485 196514342
L197720057 196371485
L197720057 196228628
L197791485 196085771
L197934342 196014342
L198291485 196014342
L198434342 195942914
" />
<path d="M199791485 196585771
L199791485 195085771
" />
<path d="M199791485 196514342
L199648628 196585771
L199362914 196585771
L199220057 196514342
L199148628 196442914
L199077200 196300057
L199077200 195871485
L199148628 195728628
L199220057 195657200
L199362914 195585771
L199648628 195585771
L199791485 195657200
" />
<path d="M202077200 197157200
L202005771 197085771
L201862914 196871485
L201791485 196728628
L201720057 196514342
L201648628 196157200
L201648628 195871485
L201720057 195514342
L201791485 195300057
L201862914 195157200
L202005771 194942914
L202077200 194871485
" />
<path d="M203291485 195085771
L203005771 195085771
L202862914 195157200
L202791485 195228628
L202648628 195442914
L202577200 195728628
L202577200 196300057
L202648628 196442914
L202720057 196514342
L202862914 196585771
L203148628 196585771
L203291485 196514342
L203362914 196442914
L203434342 196300057
L203434342 195942914
L203362914 195800057
L203291485 195728628
L203148628 195657200
L202862914 195657200
L202720057 195728628
L202648628 195800057
L202577200 195942914
" />
<path d="M204077200 196442914
L204148628 196514342
L204077200 196585771
L204005771 196514342
L204077200 196442914
L204077200 196585771
" />
<path d="M205077200 195085771
L205220057 195085771
L205362914 195157200
L205434342 195228628
L205505771 195371485
L205577200 195657200
L205577200 196014342
L205505771 196300057
L205434342 196442914
L205362914 196514342
L205220057 196585771
L205077200 196585771
L204934342 196514342
L204862914 196442914
L204791485 196300057
L204720057 196014342
L204720057 195657200
L204791485 195371485
L204862914 195228628
L204934342 195157200
L205077200 195085771
" />
<path d="M206220057 196442914
L206291485 196514342
L206220057 196585771
L206148628 196514342
L206220057 196442914
L206220057 196585771
" />
<path d="M207577200 195585771
L207577200 196585771
" />
<path d="M207220057 195014342
L206862914 196085771
L207791485 196085771
" />
<path d="M208362914 196014342
L209505771 196014342
" />
<path d="M210505771 195085771
L210648628 195085771
L210791485 195157200
L210862914 195228628
L210934342 195371485
L211005771 195657200
L211005771 196014342
L210934342 196300057
L210862914 196442914
L210791485 196514342
L210648628 196585771
L210505771 196585771
L210362914 196514342
L210291485 196442914
L210220057 196300057
L210148628 196014342
L210148628 195657200
L210220057 195371485
L210291485 195228628
L210362914 195157200
L210505771 195085771
" />
<path d="M211505771 197157200
L211577200 197085771
L211720057 196871485
L211791485 196728628
L211862914 196514342
L211934342 196157200
L211934342 195871485
L211862914 195514342
L211791485 195300057
L211720057 195157200
L211577200 194942914
L211505771 194871485
" />
</g></g>
<g style="fill:#000000; fill-opacity:0.0; 
stroke:#000000; stroke-width:21200.000000; stroke-opacity:1; 
stroke-linecap:round; stroke-linejoin:round;">
</g>
<g style="fill:#000000; fill-opacity:0.0; 
stroke:#000000; stroke-width:150000.000000; stroke-opacity:1; 
stroke-linecap:round; stroke-linejoin:round;">
<path d="M177002200 191507200
L285002200 191507200
" />
</g>
<g style="fill:#000000; fill-opacity:0.0; 
stroke:#000000; stroke-width:21200.000000; stroke-opacity:1; 
stroke-linecap:round; stroke-linejoin:round;">
</g>
<g style="fill:#000000; fill-opacity:0.0; 
stroke:#000000; stroke-width:300000.000000; stroke-opacity:1; 
stroke-linecap:round; stroke-linejoin:round;">
<text x="263002200.000000" y="193857200.000000"
textLength="5935714.000000" font-size="2000000.000000" lengthAdjust="spacingAndGlyphs"
text-anchor="start" opacity="0">Rev: </text>
<g class="stroked-text"><desc>Rev: </desc>
<path d="M264411485 193785771
L263911485 193071485
" />
<path d="M263554342 193785771
L263554342 192285771
L264125771 192285771
L264268628 192357200
L264340057 192428628
L264411485 192571485
L264411485 192785771
L264340057 192928628
L264268628 193000057
L264125771 193071485
L263554342 193071485
" />
<path d="M265625771 193714342
L265482914 193785771
L265197200 193785771
L265054342 193714342
L264982914 193571485
L264982914 193000057
L265054342 192857200
L265197200 192785771
L265482914 192785771
L265625771 192857200
L265697200 193000057
L265697200 193142914
L264982914 193285771
" />
<path d="M266197200 192785771
L266554342 193785771
L266911485 192785771
" />
<path d="M267482914 193642914
L267554342 193714342
L267482914 193785771
L267411485 193714342
L267482914 193642914
L267482914 193785771
" />
<path d="M267482914 192857200
L267554342 192928628
L267482914 193000057
L267411485 192928628
L267482914 192857200
L267482914 193000057
" />
</g></g>
<g style="fill:#000000; fill-opacity:0.0; 
stroke:#000000; stroke-width:21200.000000; stroke-opacity:1; 
stroke-linecap:round; stroke-linejoin:round;">
</g>
<g style="fill:#000000; fill-opacity:0.0; 
stroke:#000000; stroke-width:150000.000000; stroke-opacity:1; 
stroke-linecap:round; stroke-linejoin:round;">
<text x="178002200.000000" y="193857200.000000"
textLength="9604286.000000" font-size="2000000.000000" lengthAdjust="spacingAndGlyphs"
text-anchor="start" opacity="0">Size: A4</text>
<g class="stroked-text"><desc>Size: A4</desc>
<path d="M178362914 193714342
L178577200 193785771
L178934342 193785771
L179077200 193714342
L179148628 193642914
L179220057 193500057
L179220057 193357200
L179148628 193214342
L179077200 193142914
L178934342 193071485
L178648628 193000057
L178505771 192928628
L178434342 192857200
L178362914 192714342
L178362914 192571485
L178434342 192428628
L178505771 192357200
L178648628 192285771
L179005771 192285771
L179220057 192357200
" />
<path d="M179862914 193785771
L179862914 192785771
" />
<path d="M179862914 192285771
L179791485 192357200
L179862914 192428628
L179934342 192357200
L179862914 192285771
L179862914 192428628
" />
<path d="M180434342 192785771
L181220057 192785771
L180434342 193785771
L181220057 193785771
" />
<path d="M182362914 193714342
L182220057 193785771
L181934342 193785771
L181791485 193714342
L181720057 193571485
L181720057 193000057
L181791485 192857200
L181934342 192785771
L182220057 192785771
L182362914 192857200
L182434342 193000057
L182434342 193142914
L181720057 193285771
" />
<path d="M183077200 193642914
L183148628 193714342
L183077200 193785771
L183005771 193714342
L183077200 193642914
L183077200 193785771
" />
<path d="M183077200 192857200
L183148628 192928628
L183077200 193000057
L183005771 192928628
L183077200 192857200
L183077200 193000057
" />
<path d="M184862914 193357200
L185577200 193357200
" />
<path d="M184720057 193785771
L185220057 192285771
L185720057 193785771
" />
<path d="M186862914 192785771
L186862914 193785771
" />
<path d="M186505771 192214342
L186148628 193285771
L187077200 193285771
" />
</g></g>
<g style="fill:#000000; fill-opacity:0.0; 
stroke:#000000; stroke-width:21200.000000; stroke-opacity:1; 
stroke-linecap:round; stroke-linejoin:round;">
</g>
<g style="fill:#000000; fill-opacity:0.0; 
stroke:#000000; stroke-width:150000.000000; stroke-opacity:1; 
stroke-linecap:round; stroke-linejoin:round;">
<text x="263002200.000000" y="196657200.000000"
textLength="8507143.000000" font-size="2000000.000000" lengthAdjust="spacingAndGlyphs"
text-anchor="start" opacity="0">Id: 1/1</text>
<g class="stroked-text"><desc>Id: 1/1</desc>
<path d="M263434342 196585771
L263434342 195085771
" />
<path d="M264791485 196585771
L264791485 195085771
" />
<path d="M264791485 196514342
L264648628 196585771
L264362914 196585771
L264220057 196514342
L264148628 196442914
L264077200 196300057
L264077200 195871485
L264148628 195728628
L264220057 195657200
L264362914 195585771
L264648628 195585771
L264791485 195657200
" />
<path d="M265505771 196442914
L265577200 196514342
L265505771 196585771
L265434342 196514342
L265505771 196442914
L265505771 196585771
" />
<path d="M265505771 195657200
L265577200 195728628
L265505771 195800057
L265434342 195728628
L265505771 195657200
L265505771 195800057
" />
<path d="M268148628 196585771
L267291485 196585771
" />
<path d="M267720057 196585771
L267720057 195085771
L267577200 195300057
L267434342 195442914
L267291485 195514342
" />
<path d="M269862914 195014342
L268577200 196942914
" />
<path d="M271148628 196585771
L270291485 196585771
" />
<path d="M270720057 196585771
L270720057 195085771
L270577200 195300057
L270434342 195442914
L270291485 195514342
" />
</g></g>
<g style="fill:#000000; fill-opacity:0.0; 
stroke:#000000; stroke-width:21200.000000; stroke-opacity:1; 
stroke-linecap:round; stroke-linejoin:round;">
</g>
<g style="fill:#000000; fill-opacity:0.0; 
stroke:#000000; stroke-width:150000.000000; stroke-opacity:1; 
stroke-linecap:round; stroke-linejoin:round;">
<path d="M177002200 187507200
L285002200 187507200
" />
</g>
<g style="fill:#000000; fill-opacity:0.0; 
stroke:#000000; stroke-width:21200.000000; stroke-opacity:1; 
stroke-linecap:round; stroke-linejoin:round;">
</g>
<g style="fill:#000000; fill-opacity:0.0; 
stroke:#000000; stroke-width:400000.000000; stroke-opacity:1; 
stroke-linecap:round; stroke-linejoin:round;">
<text x="178002200.000000" y="190307200.000000"
textLength="9409643.000000" font-size="2666666.000000" lengthAdjust="spacingAndGlyphs"
text-anchor="start" opacity="0">Title: </text>
<g class="stroked-text"><desc>Title: </desc>
<path d="M178714580 188211961
L179857438 188211961
" />
<path d="M179036009 190211961
L179286009 188211961
" />
<path d="M180274104 190211961
L180440771 188878628
" />
<path d="M180524104 188211961
L180416961 188307200
L180500295 188402438
L180607438 188307200
L180524104 188211961
L180500295 188402438
" />
<path d="M181107438 188878628
L181869342 188878628
" />
<path d="M181476485 188211961
L181262200 189926247
L181333628 190116723
L181512200 190211961
L181702676 190211961
" />
<path d="M182655057 190211961
L182476485 190116723
L182405057 189926247
L182619342 188211961
" />
<path d="M184190771 190116723
L183988390 190211961
L183607438 190211961
L183428866 190116723
L183357438 189926247
L183452676 189164342
L183571723 188973866
L183774104 188878628
L184155057 188878628
L184333628 188973866
L184405057 189164342
L184381247 189354819
L183405057 189545295
" />
<path d="M185155057 190021485
L185238390 190116723
L185131247 190211961
L185047914 190116723
L185155057 190021485
L185131247 190211961
" />
<path d="M185286009 188973866
L185369342 189069104
L185262200 189164342
L185178866 189069104
L185286009 188973866
L185262200 189164342
" />
</g></g>
<g style="fill:#000000; fill-opacity:0.0; 
stroke:#000000; stroke-width:21200.000000; stroke-opacity:1; 
stroke-linecap:round; stroke-linejoin:round;">
</g>
<g style="fill:#000000; fill-opacity:0.0; 
stroke:#000000; stroke-width:150000.000000; stroke-opacity:1; 
stroke-linecap:round; stroke-linejoin:round;">
<text x="178002200.000000" y="186457200.000000"
textLength="45305714.000000" font-size="2000000.000000" lengthAdjust="spacingAndGlyphs"
text-anchor="start" opacity="0">File: The-ENDGAME-MX-BAD.kicad_pcb</text>
<g class="stroked-text"><desc>File: The-ENDGAME-MX-BAD.kicad_pcb</desc>
<path d="M178934342 185600057
L178434342 185600057
" />
<path d="M178434342 186385771
L178434342 184885771
L179148628 184885771
" />
<path d="M179720057 186385771
L179720057 185385771
" />
<path d="M179720057 184885771
L179648628 184957200
L179720057 185028628
L179791485 184957200
L179720057 184885771
L179720057 185028628
" />
<path d="M180648628 186385771
L180505771 186314342
L180434342 186171485
L180434342 184885771
" />
<path d="M181791485 186314342
L181648628 186385771
L181362914 186385771
L181220057 186314342
L181148628 186171485
L181148628 185600057
L181220057 185457200
L181362914 185385771
L181648628 185385771
L181791485 185457200
L181862914 185600057
L181862914 185742914
L181148628 185885771
" />
<path d="M182505771 186242914
L182577200 186314342
L182505771 186385771
L182434342 186314342
L182505771 186242914
L182505771 186385771
" />
<path d="M182505771 185457200
L182577200 185528628
L182505771 185600057
L182434342 185528628
L182505771 185457200
L182505771 185600057
" />
<path d="M184148628 184885771
L185005771 184885771
" />
<path d="M184577200 186385771
L184577200 184885771
" />
<path d="M185505771 186385771
L185505771 184885771
" />
<path d="M186148628 186385771
L186148628 185600057
L186077200 185457200
L185934342 185385771
L185720057 185385771
L185577200 185457200
L185505771 185528628
" />
<path d="M187434342 186314342
L187291485 186385771
L187005771 186385771
L186862914 186314342
L186791485 186171485
L186791485 185600057
L186862914 185457200
L187005771 185385771
L187291485 185385771
L187434342 185457200
L187505771 185600057
L187505771 185742914
L186791485 185885771
" />
<path d="M188148628 185814342
L189291485 185814342
" />
<path d="M190005771 185600057
L190505771 185600057
" />
<path d="M190720057 186385771
L190005771 186385771
L190005771 184885771
L190720057 184885771
" />
<path d="M191362914 186385771
L191362914 184885771
L192220057 186385771
L192220057 184885771
" />
<path d="M192934342 186385771
L192934342 184885771
L193291485 184885771
L193505771 184957200
L193648628 185100057
L193720057 185242914
L193791485 185528628
L193791485 185742914
L193720057 186028628
L193648628 186171485
L193505771 186314342
L193291485 186385771
L192934342 186385771
" />
<path d="M195220057 184957200
L195077200 184885771
L194862914 184885771
L194648628 184957200
L194505771 185100057
L194434342 185242914
L194362914 185528628
L194362914 185742914
L194434342 186028628
L194505771 186171485
L194648628 186314342
L194862914 186385771
L195005771 186385771
L195220057 186314342
L195291485 186242914
L195291485 185742914
L195005771 185742914
" />
<path d="M195862914 185957200
L196577200 185957200
" />
<path d="M195720057 186385771
L196220057 184885771
L196720057 186385771
" />
<path d="M197220057 186385771
L197220057 184885771
L197720057 185957200
L198220057 184885771
L198220057 186385771
" />
<path d="M198934342 185600057
L199434342 185600057
" />
<path d="M199648628 186385771
L198934342 186385771
L198934342 184885771
L199648628 184885771
" />
<path d="M200291485 185814342
L201434342 185814342
" />
<path d="M202148628 186385771
L202148628 184885771
L202648628 185957200
L203148628 184885771
L203148628 186385771
" />
<path d="M203720057 184885771
L204720057 186385771
" />
<path d="M204720057 184885771
L203720057 186385771
" />
<path d="M205291485 185814342
L206434342 185814342
" />
<path d="M207648628 185600057
L207862914 185671485
L207934342 185742914
L208005771 185885771
L208005771 186100057
L207934342 186242914
L207862914 186314342
L207720057 186385771
L207148628 186385771
L207148628 184885771
L207648628 184885771
L207791485 184957200
L207862914 185028628
L207934342 185171485
L207934342 185314342
L207862914 185457200
L207791485 185528628
L207648628 185600057
L207148628 185600057
" />
<path d="M208577200 185957200
L209291485 185957200
" />
<path d="M208434342 186385771
L208934342 184885771
L209434342 186385771
" />
<path d="M209934342 186385771
L209934342 184885771
L210291485 184885771
L210505771 184957200
L210648628 185100057
L210720057 185242914
L210791485 185528628
L210791485 185742914
L210720057 186028628
L210648628 186171485
L210505771 186314342
L210291485 186385771
L209934342 186385771
" />
<path d="M211434342 186242914
L211505771 186314342
L211434342 186385771
L211362914 186314342
L211434342 186242914
L211434342 186385771
" />
<path d="M212148628 186385771
L212148628 184885771
" />
<path d="M212291485 185814342
L212720057 186385771
" />
<path d="M212720057 185385771
L212148628 185957200
" />
<path d="M213362914 186385771
L213362914 185385771
" />
<path d="M213362914 184885771
L213291485 184957200
L213362914 185028628
L213434342 184957200
L213362914 184885771
L213362914 185028628
" />
<path d="M214720057 186314342
L214577200 186385771
L214291485 186385771
L214148628 186314342
L214077200 186242914
L214005771 186100057
L214005771 185671485
L214077200 185528628
L214148628 185457200
L214291485 185385771
L214577200 185385771
L214720057 185457200
" />
<path d="M216005771 186385771
L216005771 185600057
L215934342 185457200
L215791485 185385771
L215505771 185385771
L215362914 185457200
" />
<path d="M216005771 186314342
L215862914 186385771
L215505771 186385771
L215362914 186314342
L215291485 186171485
L215291485 186028628
L215362914 185885771
L215505771 185814342
L215862914 185814342
L216005771 185742914
" />
<path d="M217362914 186385771
L217362914 184885771
" />
<path d="M217362914 186314342
L217220057 186385771
L216934342 186385771
L216791485 186314342
L216720057 186242914
L216648628 186100057
L216648628 185671485
L216720057 185528628
L216791485 185457200
L216934342 185385771
L217220057 185385771
L217362914 185457200
" />
<path d="M217720057 186528628
L218862914 186528628
" />
<path d="M219220057 185385771
L219220057 186885771
" />
<path d="M219220057 185457200
L219362914 185385771
L219648628 185385771
L219791485 185457200
L219862914 185528628
L219934342 185671485
L219934342 186100057
L219862914 186242914
L219791485 186314342
L219648628 186385771
L219362914 186385771
L219220057 186314342
" />
<path d="M221220057 186314342
L221077200 186385771
L220791485 186385771
L220648628 186314342
L220577200 186242914
L220505771 186100057
L220505771 185671485
L220577200 185528628
L220648628 185457200
L220791485 185385771
L221077200 185385771
L221220057 185457200
" />
<path d="M221862914 186385771
L221862914 184885771
" />
<path d="M221862914 185457200
L222005771 185385771
L222291485 185385771
L222434342 185457200
L222505771 185528628
L222577200 185671485
L222577200 186100057
L222505771 186242914
L222434342 186314342
L222291485 186385771
L222005771 186385771
L221862914 186314342
" />
</g></g>
<g style="fill:#000000; fill-opacity:0.0; 
stroke:#000000; stroke-width:21200.000000; stroke-opacity:1; 
stroke-linecap:round; stroke-linejoin:round;">
</g>
<g style="fill:#000000; fill-opacity:0.0; 
stroke:#000000; stroke-width:150000.000000; stroke-opacity:1; 
stroke-linecap:round; stroke-linejoin:round;">
<path d="M177002200 181507200
L285002200 181507200
" />
</g>
<g style="fill:#000000; fill-opacity:0.0; 
stroke:#000000; stroke-width:21200.000000; stroke-opacity:1; 
stroke-linecap:round; stroke-linejoin:round;">
</g>
<g style="fill:#000000; fill-opacity:0.0; 
stroke:#000000; stroke-width:150000.000000; stroke-opacity:1; 
stroke-linecap:round; stroke-linejoin:round;">
<text x="178002200.000000" y="183757200.000000"
textLength="8221429.000000" font-size="2000000.000000" lengthAdjust="spacingAndGlyphs"
text-anchor="start" opacity="0">Sheet: </text>
<g class="stroked-text"><desc>Sheet: </desc>
<path d="M178362914 183614342
L178577200 183685771
L178934342 183685771
L179077200 183614342
L179148628 183542914
L179220057 183400057
L179220057 183257200
L179148628 183114342
L179077200 183042914
L178934342 182971485
L178648628 182900057
L178505771 182828628
L178434342 182757200
L178362914 182614342
L178362914 182471485
L178434342 182328628
L178505771 182257200
L178648628 182185771
L179005771 182185771
L179220057 182257200
" />
<path d="M179862914 183685771
L179862914 182185771
" />
<path d="M180505771 183685771
L180505771 182900057
L180434342 182757200
L180291485 182685771
L180077200 182685771
L179934342 182757200
L179862914 182828628
" />
<path d="M181791485 183614342
L181648628 183685771
L181362914 183685771
L181220057 183614342
L181148628 183471485
L181148628 182900057
L181220057 182757200
L181362914 182685771
L181648628 182685771
L181791485 182757200
L181862914 182900057
L181862914 183042914
L181148628 183185771
" />
<path d="M183077200 183614342
L182934342 183685771
L182648628 183685771
L182505771 183614342
L182434342 183471485
L182434342 182900057
L182505771 182757200
L182648628 182685771
L182934342 182685771
L183077200 182757200
L183148628 182900057
L183148628 183042914
L182434342 183185771
" />
<path d="M183577200 182685771
L184148628 182685771
" />
<path d="M183791485 182185771
L183791485 183471485
L183862914 183614342
L184005771 183685771
L184148628 183685771
" />
<path d="M184648628 183542914
L184720057 183614342
L184648628 183685771
L184577200 183614342
L184648628 183542914
L184648628 183685771
" />
<path d="M184648628 182757200
L184720057 182828628
L184648628 182900057
L184577200 182828628
L184648628 182757200
L184648628 182900057
" />
</g></g>
<g style="fill:#000000; fill-opacity:0.0; 
stroke:#000000; stroke-width:21200.000000; stroke-opacity:1; 
stroke-linecap:round; stroke-linejoin:round;">
</g>
<g style="fill:#000000; fill-opacity:0.0; 
stroke:#000000; stroke-width:300000.000000; stroke-opacity:1; 
stroke-linecap:round; stroke-linejoin:round;">
<text x="178002200.000000" y="180757200.000000"
textLength="150000.000000" font-size="2000000.000000" lengthAdjust="spacingAndGlyphs"
text-anchor="start" opacity="0"></text>
<g class="stroked-text"><desc></desc>
</g></g>
<g style="fill:#000000; fill-opacity:0.0; 
stroke:#000000; stroke-width:21200.000000; stroke-opacity:1; 
stroke-linecap:round; stroke-linejoin:round;">
</g>
<g style="fill:#000000; fill-opacity:0.0; 
stroke:#000000; stroke-width:150000.000000; stroke-opacity:1; 
stroke-linecap:round; stroke-linejoin:round;">
<text x="178002200.000000" y="177757200.000000"
textLength="300000.000000" font-size="2000000.000000" lengthAdjust="spacingAndGlyphs"
text-anchor="start" opacity="0"></text>
<g class="stroked-text"><desc></desc>
</g></g>
<g style="fill:#000000; fill-opacity:0.0; 
stroke:#000000; stroke-width:21200.000000; stroke-opacity:1; 
stroke-linecap:round; stroke-linejoin:round;">
</g>
<g style="fill:#000000; fill-opacity:0.0; 
stroke:#000000; stroke-width:150000.000000; stroke-opacity:1; 
stroke-linecap:round; stroke-linejoin:round;">
<text x="178002200.000000" y="174757200.000000"
textLength="150000.000000" font-size="2000000.000000" lengthAdjust="spacingAndGlyphs"
text-anchor="start" opacity="0"></text>
<g class="stroked-text"><desc></desc>
</g></g>
<g style="fill:#000000; fill-opacity:0.0; 
stroke:#000000; stroke-width:21200.000000; stroke-opacity:1; 
stroke-linecap:round; stroke-linejoin:round;">
</g>
<g style="fill:#000000; fill-opacity:0.0; 
stroke:#000000; stroke-width:150000.000000; stroke-opacity:1; 
stroke-linecap:round; stroke-linejoin:round;">
<text x="178002200.000000" y="171757200.000000"
textLength="150000.000000" font-size="2000000.000000" lengthAdjust="spacingAndGlyphs"
text-anchor="start" opacity="0"></text>
<g class="stroked-text"><desc></desc>
</g></g>
<g style="fill:#000000; fill-opacity:0.0; 
stroke:#000000; stroke-width:21200.000000; stroke-opacity:1; 
stroke-linecap:round; stroke-linejoin:round;">
</g>
<g style="fill:#000000; fill-opacity:0.0; 
stroke:#000000; stroke-width:150000.000000; stroke-opacity:1; 
stroke-linecap:round; stroke-linejoin:round;">
<text x="178002200.000000" y="168757200.000000"
textLength="150000.000000" font-size="2000000.000000" lengthAdjust="spacingAndGlyphs"
text-anchor="start" opacity="0"></text>
<g class="stroked-text"><desc></desc>
</g></g>
<g style="fill:#000000; fill-opacity:0.0; 
stroke:#000000; stroke-width:21200.000000; stroke-opacity:1; 
stroke-linecap:round; stroke-linejoin:round;">
</g>
<g style="fill:#000000; fill-opacity:0.0; 
stroke:#000000; stroke-width:150000.000000; stroke-opacity:1; 
stroke-linecap:round; stroke-linejoin:round;">
<path d="M197002200 191507200
L197002200 194507200
" />
</g>
<g style="fill:#000000; fill-opacity:0.0; 
stroke:#000000; stroke-width:21200.000000; stroke-opacity:1; 
stroke-linecap:round; stroke-linejoin:round;">
</g>
<g style="fill:#000000; fill-opacity:0.0; 
stroke:#000000; stroke-width:150000.000000; stroke-opacity:1; 
stroke-linecap:round; stroke-linejoin:round;">
<path d="M261002200 191507200
L261002200 198007200
" />
<path d="M233555000 49893359
L233555000 45143359
" />
<path d="M183066255.112894 63374836.919639 A200218.000000 200218.000000 0.0 0 0 183178920.918222 63306562.932402" />
<path d="M241875193.977965 49893307.022473 A250093.000000 250093.000000 0.0 0 0 241632658.277694 50203992.930654" />
<path d="M163099896.000016 154086556.999992 A1000157.000000 1000157.000000 0.0 0 0 163307807.021254 154064709.100010" />
<path d="M108853954.536475 123606299.025608 A199960.000000 199960.000000 0.0 0 0 108951305.013431 123658085.936847" />
<path d="M47995388.000480 44893379.000144 A500021.000000 500021.000000 0.0 0 0 47510317.378264 45272091.094596" />
<path d="M208605472 57220058
L201589334 54909093
" />
<path d="M228055000 145947000
L227382658 143257634
" />
<path d="M135602596.110238 72276381.774043 A499997.000000 499997.000000 0.0 0 0 135810506.014223 71298239.933122" />
<path d="M249497887.561355 50186257.438298 A999941.000000 999941.000000 0.0 0 0 248790786.000000 49893359.000098" />
<path d="M135782658 52582725
L136377342 50203993
" />
<path d="M242227335.977965 143257632.494528 A250000.000000 250000.000000 0.0 0 0 241984806.000000 142947000.000072" />
<path d="M50355000 150697000
L50355000 145947000
" />
<path d="M143205000 71787314
L145631293 71787314
" />
<path d="M136025194 151086561
L137009806 151086561
" />
<path d="M136134806.001320 154086615.999928 A250016.000000 250016.000000 0.0 0 0 136377342.321207 153775926.919648" />
<path d="M45652335.977965 143136367.505472 A250000.000000 250000.000000 0.0 0 0 45409806.000000 142947000.000072" />
<path d="M231844600 60301762
L246205000 60301762
" />
<path d="M74707972 112808880
L89411427 115401496
" />
<path d="M134624447 72068476
L120552778 69077450
" />
<path d="M35205000 52307573
L35205000 143532787
" />
<path d="M214542112.371000 113709236.928408 A199575.000000 199575.000000 0.0 0 0 214624957.949507 113717971.521830" />
<path d="M55214612.000264 150947010.999856 A500011.000000 500011.000000 0.0 0 0 55699682.568692 150568267.892175" />
<path d="M35497893 144239893
L36912107 145654107
" />
<path d="M236305000 150947000
L238414612 150947000
" />
<path d="M150807405 72276387
L151785553 72068476
" />
<path d="M168097879 65565241
L165466145 68107156
" />
<path d="M236055000.000000 145947000.000000 A1250000.000000 1250000.000000 0.0 0 0 233555000.000000 145947000.000000" />
<path d="M197285957 116379628
L194675414 117942839
" />
<path d="M144455000 154086561
L144455000 158836561
" />
<path d="M91734577.413525 117942853.348327 A200042.000000 200042.000000 0.0 0 0 91795753.007187 117966879.966149" />
<path d="M59027335.977965 143257632.494528 A250000.000000 250000.000000 0.0 0 0 58784806.000000 142947000.000072" />
<path d="M232066438.241117 115036416.870057 A199962.000000 199962.000000 0.0 0 0 232214315.000000 115101761.999437" />
<path d="M137252364.633673 151275921.338082 A250039.000000 250039.000000 0.0 0 0 137009806.000000 151086561.000072" />
<path d="M187270290.415557 58425175.749427 A200290.000000 200290.000000 0.0 0 0 187150784.049418 58494839.040824" />
<path d="M141705000 44893359
L139595388 44893359
" />
<path d="M238414612 44893359
L236305000 44893359
" />
<path d="M147299702.024226 45272086.242443 A500041.000000 500041.000000 0.0 0 0 146814612.000000 44893359.000144" />
<path d="M58784806.001368 52893415.999928 A250016.000000 250016.000000 0.0 0 0 59027341.850355 52582725.037436" />
<path d="M135602595 72276387
L134624447 72068476
" />
<path d="M136705000 109086561
L136705000 91188646
" />
<path d="M54637563 116101762
L40205000 116101762
" />
<path d="M55699702.024226 45272086.242443 A500041.000000 500041.000000 0.0 0 0 55214612.000000 44893359.000144" />
<path d="M47510317 45272091
L45652342 52703993
" />
<path d="M241000193.999856 142946994.000072 A250006.000000 250006.000000 0.0 0 0 240757658.201172 143136366.050292" />
<path d="M136377385.399369 50204003.842238 A250041.000000 250041.000000 0.0 0 0 136134806.000000 49893359.000072" />
<path d="M137252342 151275927
L139110317 158707829
" />
<path d="M229515393.465545 112234916.950773 A200030.000000 200030.000000 0.0 0 0 229346617.007505 112170663.071491" />
<path d="M52855000 45143359
L52855000 49893359
" />
<path d="M126911253 127318637
L124019102 126860565
" />
<path d="M106124845 121012622
L91795753 117966880
" />
<path d="M117726317 66431986
L103343737 63374874
" />
<path d="M44182713.445648 52582738.870442 A249959.000000 249959.000000 0.0 0 0 44425194.000000 52893358.999928" />
<path d="M246205000 116101762
L231772437 116101762
" />
<path d="M144705000.000000 44893400.000000 A250000.000000 250000.000000 0.0 0 0 144455000.003362 45143359.000001" />
<path d="M117823665.584943 66483775.919035 A199992.000000 199992.000000 0.0 0 0 117726316.993954 66431986.028418" />
<path d="M59027342 143257634
L58432658 145636366
" />
<path d="M151577641 71090328
L150599494 71298240
" />
<path d="M57557694.155595 52703983.967437 A249959.000000 249959.000000 0.0 0 0 57800194.000000 52893358.999928" />
<path d="M149157658 52703993
L147299683 45272091
" />
<path d="M54637563.002776 116101746.996577 A199947.000000 199947.000000 0.0 0 0 54785440.696034 116036417.723221" />
<path d="M144455000 45143359
L144455000 49893359
" />
<path d="M123310104 154086561
L136134806 154086561
" />
<path d="M214434877.120408 114726013.630522 A199849.000000 199849.000000 0.0 0 0 214517721.982377 114734750.832588" />
<path d="M55699683 150568268
L57557658 143136366
" />
<path d="M63127268 56725460
L54642795 60286180
" />
<path d="M47510328.102890 150568265.224340 A500000.000000 500000.000000 0.0 0 0 47995388.000000 150946999.999856" />
<path d="M136134806 49893359
L58675194 49893359
" />
<path d="M149704995.999988 91183921.999996 A19999996.000000 19999996.000000 0.0 0 0 149269893.287006 87034828.939136" />
<path d="M103892868 62469255
L118214758 65513467
" />
<path d="M35205010.000084 143532787.000130 A999990.000000 999990.000000 0.0 0 0 35497893.289919 144239892.710087" />
<path d="M194304575 116999322
L196930554 115426869
" />
<path d="M223282732 56725460
L231767205 60286180
" />
<path d="M50355000 49893359
L50355000 45143359
" />
<path d="M159342313.782626 126330952.943294 A499998.000000 499998.000000 0.0 1 0 159498747.066421 127318637.419198" />
<path d="M177458698.020395 123658100.182779 A200191.000000 200191.000000 0.0 0 0 177556057.744922 123606311.735835" />
<path d="M84894665 55937568
L77913486 58237018
" />
<path d="M211798700.511844 112815666.296790 A199671.000000 199671.000000 0.0 0 0 211702028.003551 112808880.020079" />
<path d="M208579989 58245962
L223184430 56710973
" />
<path d="M227625194 142947000
L228609806 142947000
" />
<path d="M99139706 58425196
L84991964 55930567
" />
<path d="M53105000.000000 44893400.000000 A250000.000000 250000.000000 0.0 0 0 52855000.003362 45143359.000001" />
<path d="M50355040.996637 45143358.993277 A250041.000000 250041.000000 0.0 0 0 50105000.000000 44893359.000000" />
<path d="M248790786 49893359
L241875194 49893359
" />
<path d="M197353974.981923 116354254.897475 A199983.000000 199983.000000 0.0 0 0 197285956.839364 116379627.731752" />
<path d="M77721054.776457 57228984.131762 A199984.000000 199984.000000 0.0 0 0 77804527.849681 57220057.543336" />
<path d="M146814612 44893359
L144705000 44893359
" />
<path d="M238414612.000264 150947010.999856 A500011.000000 500011.000000 0.0 0 0 238899682.568692 150568267.892175" />
<path d="M57800193.999856 142946994.000072 A250006.000000 250006.000000 0.0 0 0 57557658.201172 143136366.050292" />
<path d="M141955000 49893359
L141955000 45143359
" />
<path d="M52855000 145947000
L52855000 150697000
" />
<path d="M231624559 116036418
L229116696 113282325
" />
<path d="M57293304 113282325
L54785441 116036418
" />
<path d="M58675194 145947000
L84806271 145947000
" />
<path d="M118312129.238708 65565232.468444 A199998.000000 199998.000000 0.0 0 0 118214757.928286 65513467.337593" />
<path d="M246205000 59301762
L232045932 59301762
" />
<path d="M149705000 91183922
L149705000 109086561
" />
<path d="M52855000.000000 145947000.000000 A1250000.000000 1250000.000000 0.0 0 0 50355000.000000 145947000.000000" />
<path d="M136705000 109086561
L136705000 143886561
" />
<path d="M168195245.280548 65513482.421758 A200199.000000 200199.000000 0.0 0 0 168097879.337012 65565241.349225" />
<path d="M150384806.015049 52893318.982328 A249919.000000 249919.000000 0.0 0 0 150627341.859432 52582725.035179" />
<path d="M54565400.000000 60301757.000000 A200057.000000 200057.000000 0.0 0 0 54642794.948585 60286179.877446" />
<path d="M186733710.726983 57504422.198158 A200009.000000 200009.000000 0.0 0 0 186614192.662994 57574027.721640" />
<path d="M144455000.000000 154086561.000000 A1250000.000000 1250000.000000 0.0 0 0 141955000.000000 154086561.000000" />
<path d="M201492036 54902092
L186733704 57504384
" />
<path d="M35497906.718680 51600479.719204 A1000000.000000 1000000.000000 0.0 0 0 35205000.000364 52307573.000000" />
<path d="M250912093.070048 144239879.068354 A999900.000000 999900.000000 0.0 0 0 251204999.999915 143532787.000000" />
<path d="M228609806 52893359
L227625194 52893359
" />
<path d="M163307807 154064709
L201395817 145968853
" />
<path d="M44534806.000144 145947005.999928 A250006.000000 250006.000000 0.0 0 0 44777341.798828 145636366.050292" />
<path d="M201589336.517446 54909085.362922 A199756.000000 199756.000000 0.0 0 0 201492036.049409 54902092.279574" />
<path d="M71867887 113709235
L74611302 112815674
" />
<path d="M108853942 123606312
L106222208 121064397
" />
<path d="M136905000 144086561
L149505000 144086561
" />
<path d="M71892278.483330 114734746.406244 A199944.000000 199944.000000 0.0 0 0 71975122.854563 114726013.553485" />
<path d="M241875194 145947000
L248790786 145947000
" />
<path d="M228609806.025001 52893417.977528 A250118.000000 250118.000000 0.0 0 0 228852342.452850 52703993.113273" />
<path d="M106710641.548784 120145884.677511 A199969.000000 199969.000000 0.0 0 0 106613285.053207 120094102.749736" />
<path d="M50105000 44893359
L47995388 44893359
" />
<path d="M118312121 65565241
L120943855 68107156
" />
<path d="M58784806 52893359
L57800194 52893359
" />
<path d="M227625193.999856 142946994.000072 A250006.000000 250006.000000 0.0 0 0 227382658.201172 143257633.949708" />
<path d="M214624958 113717972
L229346617 112170663
" />
<path d="M139110317 45272091
L137252342 52703993
" />
<path d="M162218896 125875065
L176970254 122739567
" />
<path d="M74707968.190152 112808901.586802 A200043.000000 200043.000000 0.0 0 0 74611302.070867 112815674.217788" />
<path d="M36912100.218915 145654113.781219 A1000000.000000 1000000.000000 0.0 0 0 37619214.000000 145946999.999902" />
<path d="M50355000.000000 49893359.000000 A1250000.000000 1250000.000000 0.0 0 0 52855000.000000 49893359.000000" />
<path d="M103231085.142436 63306557.931268 A199942.000000 199942.000000 0.0 0 0 103343736.931943 63374874.320241" />
<path d="M71892278 114734751
L57462087 113218077
" />
<path d="M241984806 52893359
L241000194 52893359
" />
<path d="M106222229.693360 121064374.526567 A200040.000000 200040.000000 0.0 0 0 106124845.070023 121012621.670191" />
<path d="M146120411.011753 72183586.845685 A499986.000000 499986.000000 0.0 0 0 145631293.000000 71787314.000049" />
<path d="M89479446 115426869
L92105425 116999322
" />
<path d="M99795807 57574028
L103780210 62400944
" />
<path d="M208605472.493216 57220056.504780 A199603.000000 199603.000000 0.0 0 0 208688946.982597 57229000.835084" />
<path d="M103231079 63306563
L99259216 58494839
" />
<path d="M211726431.371640 113843842.859498 A199893.000000 199893.000000 0.0 0 0 211629761.927579 113837048.589608" />
<path d="M251205000 143532787
L251205000 52307573
" />
<path d="M236055000.000000 150697000.000000 A250000.000000 250000.000000 0.0 0 0 236305000.000000 150947000.000000" />
<path d="M140786960.996178 71787265.001521 A500035.000000 500035.000000 0.0 0 0 140297887.454721 72183358.096633" />
<path d="M201515336.552321 55937563.292720 A199682.000000 199682.000000 0.0 0 0 201418036.074658 55930567.422285" />
<path d="M241632664.022035 145636367.505472 A250000.000000 250000.000000 0.0 0 0 241875194.000000 145946999.999928" />
<path d="M106710648 120145878
L109342383 122687792
" />
<path d="M57063383.932089 112170654.120672 A200039.000000 200039.000000 0.0 0 0 56894599.880248 112234910.890944" />
<path d="M40205000.000000 115101838.000000 A499962.000000 499962.000000 0.0 0 0 40205000.000000 116101762.000000" />
<path d="M150275193.977965 49893307.022473 A250093.000000 250093.000000 0.0 0 0 150032658.277694 50203992.930654" />
<path d="M227977264.855485 50203973.695582 A249941.000000 249941.000000 0.0 0 0 227734806.000000 49893359.000072" />
<path d="M229116689.009620 113282331.365483 A200017.000000 200017.000000 0.0 0 0 228947912.954685 113218076.568431" />
<path d="M137142038.668408 87030410.016531 A20000000.000000 20000000.000000 0.0 0 0 136705000.000053 91188646.000000" />
<path d="M150384806 52893359
L149400194 52893359
" />
<path d="M85014183.908023 145968848.727937 A999900.000000 999900.000000 0.0 0 0 84806271.000000 145947000.000421" />
<path d="M227382592.904128 52582708.742270 A250059.000000 250059.000000 0.0 0 0 227625194.000000 52893358.999928" />
<path d="M179796715 120094103
L194243409 117023363
" />
<path d="M227382658 52582725
L227977342 50203993
" />
<path d="M103780181.953431 62400967.163384 A200014.000000 200014.000000 0.0 0 0 103892868.096472 62469254.545527" />
<path d="M233305000.000000 150947000.000000 A250000.000000 250000.000000 0.0 0 0 233555000.000000 150697000.000000" />
<path d="M150627382.988620 151397205.240311 A250039.000000 250039.000000 0.0 0 0 150384806.000000 151086561.000072" />
<path d="M165954585 69025675
L168586320 66483761
" />
<path d="M136025194.001008 151086603.000072 A249997.000000 249997.000000 0.0 0 0 135782657.758965 151397195.060218" />
<path d="M120455415 69025675
L117823680 66483761
" />
<path d="M54195684.999850 115101763.999437 A199964.000000 199964.000000 0.0 0 0 54343563.237781 115036418.216482" />
<path d="M186614193 57574028
L182629790 62400944
" />
<path d="M124019102 126860565
L124008806 126858657
" />
<path d="M241632658 50203993
L242227342 52582725
" />
<path d="M231968542.400132 59286167.150754 A199662.000000 199662.000000 0.0 0 0 232045932.000000 59301761.997436" />
<path d="M241984806.015049 52893318.982328 A249919.000000 249919.000000 0.0 0 0 242227341.859432 52582725.035179" />
<path d="M89124043.160636 116379627.731752 A199983.000000 199983.000000 0.0 0 0 89056025.018077 116354254.897475" />
<path d="M150032658 50203993
L150627342 52582725
" />
<path d="M228947913 113218077
L214517722 114734751
" />
<path d="M149505000.030518 144086499.975003 A199900.000000 199900.000000 0.0 0 0 149704999.996196 143886561.000001" />
<path d="M74683569 113843844
L71975123 114726014
" />
<path d="M120943854.759905 68107156.248581 A200001.000000 200001.000000 0.0 0 0 121041218.078425 68158930.631035" />
<path d="M57800194 142947000
L58784806 142947000
" />
<path d="M182517132 62469255
L168195242 65513467
" />
<path d="M92105427.067582 116999318.547384 A200038.000000 200038.000000 0.0 0 0 92166591.060833 117023362.713938" />
<path d="M141955000.000000 49893359.000000 A1250000.000000 1250000.000000 0.0 0 0 144455000.000000 49893359.000000" />
<path d="M223433244.898541 55704129.856237 A200344.000000 200344.000000 0.0 0 0 223334942.961323 55689644.630502" />
<path d="M36912107 50186252
L35497893 51600466
" />
<path d="M246205000.000000 116101838.000000 A500038.000000 500038.000000 0.0 0 0 246205000.000000 115101762.000000" />
<path d="M63075057 55689645
L77721053 57229001
" />
<path d="M143205000 71787314
L140786961 71787314
" />
<path d="M45409806.000888 52893395.999928 A249996.000000 249996.000000 0.0 0 0 45652341.741157 52703992.935335" />
<path d="M240757694.155595 52703983.967437 A249959.000000 249959.000000 0.0 0 0 241000194.000000 52893358.999928" />
<path d="M246205000.000000 60301838.000000 A500038.000000 500038.000000 0.0 0 0 246205000.000000 59301762.000000" />
<path d="M99795810.166364 57574025.386698 A199949.000000 199949.000000 0.0 0 0 99676295.947552 57504384.297669" />
<path d="M58432658 50203993
L59027342 52582725
" />
<path d="M149400194 151086561
L150384806 151086561
" />
<path d="M223334943 55689645
L208688947 57229001
" />
<path d="M121041218 68158931
L134832359 71090328
" />
<path d="M84991961.243911 55930582.612840 A199962.000000 199962.000000 0.0 0 0 84894664.991715 55937567.974836" />
<path d="M238899628.535964 45272104.609076 A499941.000000 499941.000000 0.0 0 0 238414612.000000 44893359.000144" />
<path d="M168683683 66431986
L183066263 63374874
" />
<path d="M168683678.138267 66431963.116584 A199799.000000 199799.000000 0.0 0 0 168586320.306707 66483761.317217" />
<path d="M236304999.976412 44893300.020001 A250100.000000 250100.000000 0.0 0 0 236055000.003361 45143359.000001" />
<path d="M250912107 51600466
L249497893 50186252
" />
<path d="M44777342 145636366
L44182658 143257634
" />
<path d="M177067617 122687792
L179699352 120145878
" />
<path d="M147299683 158707829
L149157658 151275927
" />
<path d="M236055000 145947000
L236055000 150697000
" />
<path d="M165368781.921575 68158930.631035 A200001.000000 200001.000000 0.0 0 0 165466145.240095 68107156.248581" />
<path d="M232214315 115101762
L246205000 115101762
" />
<path d="M120455424.803461 69025664.851618 A200028.000000 200028.000000 0.0 0 0 120552778.058566 69077449.724700" />
<path d="M144705000 159086561
L146814612 159086561
" />
<path d="M236055000 45143359
L236055000 49893359
" />
<path d="M194614247 117966880
L180285155 121012622
" />
<path d="M47995388 150947000
L50105000 150947000
" />
<path d="M227734806 49893359
L150275194 49893359
" />
<path d="M233305000 44893359
L231195388 44893359
" />
<path d="M99259238.748005 58494820.213307 A200038.000000 200038.000000 0.0 0 0 99139706.051602 58425195.707087" />
<path d="M183178921 63306563
L187150784 58494839
" />
<path d="M196998573 115401496
L211702028 112808880
" />
<path d="M150275194 154086561
L163099896 154086561
" />
<path d="M54343563 115036418
L56894600 112234911
" />
<path d="M180187792 121064397
L177556058 123606312
" />
<path d="M109439746 122739567
L124191104 125875065
" />
<path d="M84917964 54902092
L99676296 57504384
" />
<path d="M165857225.562001 69077466.766847 A199829.000000 199829.000000 0.0 0 0 165954585.139803 69025675.144625" />
<path d="M248790786.000140 145946989.999902 A999990.000000 999990.000000 0.0 0 0 249497892.710087 145654106.710081" />
<path d="M44425193.999856 142946994.000072 A250006.000000 250006.000000 0.0 0 0 44182658.201172 143257633.949708" />
<path d="M126911252.151105 127318642.357592 A500003.000000 500003.000000 0.0 1 0 127067686.999239 126330948.004804" />
<path d="M136377342 153775927
L135782658 151397195
" />
<path d="M40205000.000000 59301838.000000 A499962.000000 499962.000000 0.0 0 0 40205000.000000 60301762.000000" />
<path d="M187270294 58425196
L201418036 55930567
" />
<path d="M139595388.000480 44893379.000144 A500021.000000 500021.000000 0.0 0 0 139110317.378264 45272091.094596" />
<path d="M228852342 143136366
L230710317 150568268
" />
<path d="M45409806 52893359
L44425194 52893359
" />
<path d="M124008806 126858657
L108951305 123658086
" />
<path d="M77830011 58245962
L63225570 56710973
" />
<path d="M141705000.000000 159086600.000000 A250000.000000 250000.000000 0.0 0 0 141954999.996958 158836561.000000" />
<path d="M211629762 113837049
L197353975 116354255
" />
<path d="M242227342 143257634
L241632658 145636366
" />
<path d="M40205000 59301762
L54364068 59301762
" />
<path d="M50105000.000000 150947000.000000 A250000.000000 250000.000000 0.0 0 0 50355000.000000 150697000.000000" />
<path d="M150599492.945711 71298235.042492 A500002.000000 500002.000000 0.0 0 0 150807404.928807 72276386.664890" />
<path d="M238899683 150568268
L240757658 143136366
" />
<path d="M37619213.999692 49893381.000098 A1000019.000000 1000019.000000 0.0 0 0 36912107.284308 50186252.284330" />
<path d="M150032711.034689 153775940.266872 A249961.000000 249961.000000 0.0 0 0 150275194.000000 154086560.999928" />
<path d="M124191104 125875065
L124201400 125876973
" />
<path d="M162208600 125876973
L162218896 125875065
" />
<path d="M137009806.000888 52893395.999928 A249996.000000 249996.000000 0.0 0 0 137252341.741157 52703992.935335" />
<path d="M176970258.583472 122739588.500955 A200290.000000 200290.000000 0.0 0 0 177067617.069265 122687792.071742" />
<path d="M144455039.003042 158836561.006084 A249961.000000 249961.000000 0.0 0 0 144705000.000000 159086561.000000" />
<path d="M208496513.872909 58237018.386067 A200155.000000 200155.000000 0.0 0 0 208579988.998399 58245961.984746" />
<path d="M229515400 112234911
L232066437 115036418
" />
<path d="M196998575.605177 115401510.806630 A199812.000000 199812.000000 0.0 0 0 196930553.940524 115426868.900668" />
<path d="M57063383 112170663
L71785042 113717972
" />
<path d="M149157694.155595 52703983.967437 A249959.000000 249959.000000 0.0 0 0 149400194.000000 52893358.999928" />
<path d="M57462087.985152 113218067.617638 A200026.000000 200026.000000 0.0 0 0 57293304.335940 113282325.305909" />
<path d="M228852335.977965 143136367.505472 A250000.000000 250000.000000 0.0 0 0 228609806.000000 142947000.000072" />
<path d="M89479442.888724 115426874.194170 A199943.000000 199943.000000 0.0 0 0 89411427.023239 115401495.868235" />
<path d="M162401194 126858657
L162390898 126860565
" />
<path d="M165368782 68158931
L151577641 71090328
" />
<path d="M223282734.236849 56725454.663245 A200317.000000 200317.000000 0.0 0 0 223184430.014027 56710973.133904" />
<path d="M89056025 116354255
L74780238 113837049
" />
<path d="M231195387.982756 44893282.012545 A500118.000000 500118.000000 0.0 0 0 230710317.390917 45272091.097740" />
<path d="M57557658 52703993
L55699683 45272091
" />
<path d="M233555000.000000 49893359.000000 A1250000.000000 1250000.000000 0.0 0 0 236055000.000000 49893359.000000" />
<path d="M136705039.003802 143886561.007606 A199961.000000 199961.000000 0.0 0 0 136905000.000000 144086561.000000" />
<path d="M231767206.131321 60286177.304826 A199962.000000 199962.000000 0.0 0 0 231844600.000000 60301762.000000" />
<path d="M44182658 52582725
L44777342 50203993
" />
<path d="M233554940.993040 45143358.986074 A249941.000000 249941.000000 0.0 0 0 233305000.000000 44893359.000000" />
<path d="M231195388 150947000
L233305000 150947000
" />
<path d="M85014183 145968853
L123102193 154064709
" />
<path d="M146814611.996480 159086580.992254 A499881.000000 499881.000000 0.0 0 0 147299683.261269 158707829.065254" />
<path d="M182517133.522606 62469262.145837 A200259.000000 200259.000000 0.0 0 0 182629789.851871 62400943.877628" />
<path d="M141955000 158836561
L141955000 154086561
" />
<path d="M214434877 114726014
L211726431 113843844
" />
<path d="M251204977.997335 52307572.998394 A999878.000000 999878.000000 0.0 0 0 250912107.014030 51600465.985969" />
<path d="M139110356.764352 158707819.062334 A499961.000000 499961.000000 0.0 0 0 139595388.000000 159086560.999856" />
<path d="M146120415 72183586
L149269893 87034829
" />
<path d="M58675194.001080 49893404.000072 A249996.000000 249996.000000 0.0 0 0 58432658.258843 50203992.935335" />
<path d="M52855000.000000 150697000.000000 A250000.000000 250000.000000 0.0 0 0 53105000.000000 150947000.000000" />
<path d="M231968537 59286180
L223433244 55704132
" />
<path d="M150627342 151397195
L150032658 153775927
" />
<path d="M44777385.399369 50204003.842238 A250041.000000 250041.000000 0.0 0 0 44534806.000000 49893359.000072" />
<path d="M149705000 143886561
L149705000 109086561
" />
<path d="M179796717.729569 120094115.863025 A199837.000000 199837.000000 0.0 0 0 179699351.919717 120145877.916899" />
<path d="M231624572.386210 116036405.820116 A199862.000000 199862.000000 0.0 0 0 231772436.999999 116101761.996575" />
<path d="M91734586 117942839
L89124043 116379628
" />
<path d="M162390898 126860565
L159498747 127318637
" />
<path d="M249497893 145654107
L250912107 144239893
" />
<path d="M92166591 117023363
L106613285 120094103
" />
<path d="M230710328.102890 150568265.224340 A500000.000000 500000.000000 0.0 0 0 231195388.000000 150946999.999856" />
<path d="M201603729 145947000
L228055000 145947000
" />
<path d="M84917960.748197 54902110.428007 A200033.000000 200033.000000 0.0 0 0 84820665.968834 54909092.905303" />
<path d="M139595388 159086561
L141705000 159086561
" />
<path d="M40205000 115101762
L54195685 115101762
" />
<path d="M159342313 126330948
L162208600 125876973
" />
<path d="M74780237.294368 113837053.000660 A199987.000000 199987.000000 0.0 0 0 74683568.963555 113843843.888098" />
<path d="M240757658 52703993
L238899683 45272091
" />
<path d="M58432664.022035 145636367.505472 A250000.000000 250000.000000 0.0 0 0 58675194.000000 145946999.999928" />
<path d="M194614250.018916 117966894.152769 A200608.000000 200608.000000 0.0 0 0 194675413.808206 117942838.679508" />
<path d="M149400193.968638 151086487.022475 A250113.000000 250113.000000 0.0 0 0 149157657.690327 151275926.922566" />
<path d="M63075059.058009 55689625.368642 A200065.000000 200065.000000 0.0 0 0 62976756.011546 55704132.027502" />
<path d="M123102192.601345 154064710.875684 A1000061.000000 1000061.000000 0.0 0 0 123310104.000000 154086560.999992" />
<path d="M137009806 52893359
L136025194 52893359
" />
<path d="M37619214 145947000
L44534806 145947000
" />
<path d="M124201400 125876973
L127067687 126330948
" />
<path d="M151785553 72068476
L165857222 69077450
" />
<path d="M140297887 72183358
L137142048 87030412
" />
<path d="M54364068.002720 59301744.997441 A200045.000000 200045.000000 0.0 0 0 54441463.094588 59286180.225555" />
<path d="M230710317 45272091
L228852342 52703993
" />
<path d="M77804528 57220058
L84820666 54909093
" />
<path d="M55214612 44893359
L53105000 44893359
" />
<path d="M77830010.536570 58245966.414044 A200060.000000 200060.000000 0.0 0 0 77913486.121876 58237018.370029" />
<path d="M194243408.402921 117023360.188396 A199819.000000 199819.000000 0.0 0 0 194304574.967923 116999321.946445" />
<path d="M201515335 55937568
L208496514 58237018
" />
<path d="M45652342 143136366
L47510317 150568268
" />
<path d="M44534806 49893359
L37619214 49893359
" />
<path d="M135782713.445648 52582738.870442 A249959.000000 249959.000000 0.0 0 0 136025194.000000 52893358.999928" />
<path d="M54565400 60301762
L40205000 60301762
" />
<path d="M141955040.996637 45143358.993277 A250041.000000 250041.000000 0.0 0 0 141705000.000000 44893359.000000" />
<path d="M180285152.569940 121012610.613183 A200505.000000 200505.000000 0.0 0 0 180187791.944680 121064396.942655" />
<path d="M71785039.790509 113717993.066536 A199984.000000 199984.000000 0.0 0 0 71867886.917747 113709234.747703" />
<path d="M134832359 71090328
L135810506 71298240
" />
<path d="M241000194 142947000
L241984806 142947000
" />
<path d="M201603728.999432 145946992.002520 A1000308.000000 1000308.000000 0.0 0 0 201395816.934030 145968852.689649" />
<path d="M109342366.400881 122687809.193580 A200031.000000 200031.000000 0.0 0 0 109439745.952666 122739567.222884" />
<path d="M54441463 59286180
L62976756 55704132
" />
<path d="M233555000 150697000
L233555000 145947000
" />
<path d="M63225571.693474 56710956.858282 A200035.000000 200035.000000 0.0 0 0 63127267.832610 56725459.601284" />
<path d="M44425194 142947000
L45409806 142947000
" />
<path d="M177458695 123658086
L162401194 126858657
" />
<path d="M211798698 112815674
L214542113 113709235
" />
<path d="M53105000 150947000
L55214612 150947000
" />
<g >
</g>
<g >
</g>
<g >
</g>
<g >
</g>
<g >
</g>
<g >
</g>
<g >
</g>
<g >
</g>
<g >
</g>
<g >
</g>
<g >
</g>
<g >
</g>
<g >
</g>
<g >
</g>
<g >
</g>
<g >
</g>
<g >
</g>
<g >
</g>
<g >
</g>
<g >
</g>
<g >
</g>
<g >
</g>
<g >
</g>
<g >
</g>
<g >
</g>
<g >
</g>
<g >
</g>
<g >
</g>
<g >
</g>
<g >
</g>
<g >
</g>
<g >
</g>
<g >
</g>
<g >
</g>
<g >
</g>
<g >
</g>
<g >
</g>
<g >
</g>
<g >
</g>
<g >
</g>
<g >
</g>
<g >
</g>
<g >
</g>
<g >
</g>
<g >
</g>
<g >
</g>
<g >
</g>
<g >
</g>
<g >
</g>
<g >
</g>
<g >
</g>
<g >
</g>
<g >
</g>
<g >
</g>
<g >
</g>
<g >
</g>
<g >
</g>
<g >
</g>
<g >
</g>
<g >
</g>
<g >
</g>
<g >
</g>
<g >
</g>
<g >
</g>
<g >
</g>
<g >
</g>
<g >
</g>
<g >
</g>
<g >
</g>
<g >
</g>
<g >
</g>
<g >
</g>
<g >
</g>
<g >
</g>
<g >
</g>
<g >
</g>
<g >
</g>
<g >
</g>
<g >
</g>
</g> 
</svg>
