<?xml version="1.0" encoding="UTF-8"?>
<svg id="Layer_25" data-name="Layer 25" xmlns="http://www.w3.org/2000/svg" width="588.83mm" height="298.73mm" viewBox="0 0 1669.12 846.8">
  <defs>
    <style>
      .cls-1 {
        fill: #fff;
      }
    </style>
  </defs>
  <g>
    <path class="cls-1" d="M1204.05,548.25l-2.43,2.43-.76-.77,2.43-2.43-2.43-2.43,.76-.77,2.43,2.43,2.33-2.33,.77,.77-2.33,2.33,2.33,2.33-.77,.77-2.33-2.33Z"/>
    <path class="cls-1" d="M1204.08,540.44c-3.38,0-5.86-2.63-5.86-5.9s2.48-5.9,5.86-5.9,5.86,2.62,5.86,5.9-2.5,5.9-5.86,5.9Zm0-1.29c2.6,0,4.67-2.06,4.67-4.61s-2.07-4.61-4.67-4.61-4.67,2.06-4.67,4.61,2.07,4.61,4.67,4.61Z"/>
    <path class="cls-1" d="M1197.27,552.58l.78-.95,10.83,10.52-.78,.95-10.83-10.52Z"/>
  </g>
  <g>
    <g>
      <path class="cls-1" d="M872.57,324.74v7.16h-.89v-7.16h-1.94v-.84h4.77v.84h-1.94Z"/>
      <path class="cls-1" d="M875.55,323.16h.86v4.34c.16-.2,.6-.7,1.43-.7,.59,0,1.13,.24,1.43,.68,.25,.37,.29,.78,.29,1.33v3.08h-.86v-3.06c0-.3-.02-.65-.23-.91-.17-.22-.43-.36-.82-.36-.3,0-.62,.08-.88,.38-.34,.4-.36,.98-.36,1.34v2.6h-.86v-8.74Z"/>
      <path class="cls-1" d="M885.6,330.63c-.14,.28-.36,.58-.61,.8-.46,.41-1.02,.61-1.66,.61-1.2,0-2.46-.75-2.46-2.6,0-1.49,.91-2.64,2.41-2.64,.97,0,1.58,.48,1.88,.91,.31,.44,.49,1.21,.47,1.87h-3.87c.01,1.03,.72,1.69,1.58,1.69,.41,0,.73-.12,1.02-.36,.23-.19,.41-.44,.52-.68l.72,.4Zm-.85-1.76c-.14-.78-.73-1.3-1.46-1.3s-1.33,.55-1.46,1.3h2.93Z"/>
      <path class="cls-1" d="M894.11,324.74h-3.26v2.38h3.17v.84h-3.17v3.11h3.26v.84h-4.15v-8h4.15v.84Z"/>
      <path class="cls-1" d="M895.79,331.9v-8.33l6.24,6.54v-6.2h.89v8.36l-6.24-6.54v6.18h-.89Z"/>
      <path class="cls-1" d="M905.05,323.9h1.63c.8,0,1.94,.08,2.95,.94,.73,.61,1.37,1.63,1.37,3.07,0,1.68-.83,2.58-1.4,3.07-.73,.62-1.5,.92-2.93,.92h-1.62v-8Zm.89,7.16h.78c.64,0,1.51-.07,2.29-.72,.6-.5,1.08-1.29,1.08-2.43,0-1.92-1.34-3.17-3.37-3.17h-.78v6.32Z"/>
      <path class="cls-1" d="M916.75,327.88h3.33v.19c0,.89-.26,1.85-.77,2.53-.24,.32-1.14,1.44-2.97,1.44-2.37,0-4.15-1.81-4.15-4.14s1.79-4.14,4.17-4.14c.77,0,1.67,.19,2.45,.79,.36,.28,.7,.64,.92,.95l-.66,.6c-.23-.32-.49-.61-.76-.83-.38-.31-.98-.67-1.94-.67-1.93,0-3.27,1.45-3.27,3.31,0,2.18,1.74,3.29,3.25,3.29,1.07,0,1.99-.54,2.45-1.34,.14-.25,.3-.64,.32-1.14h-2.38v-.84Z"/>
      <path class="cls-1" d="M925.81,329.65h-3.41l-.96,2.25h-.98l3.68-8.38,3.59,8.38h-.98l-.94-2.25Zm-.35-.84l-1.34-3.2-1.37,3.2h2.71Z"/>
      <path class="cls-1" d="M928.75,331.9l1.33-8.44,3.07,6.75,3.13-6.76,1.25,8.46h-.91l-.75-5.56-2.72,5.9-2.69-5.9-.79,5.56h-.91Z"/>
      <path class="cls-1" d="M943.47,324.74h-3.26v2.38h3.17v.84h-3.17v3.11h3.26v.84h-4.15v-8h4.15v.84Z"/>
    </g>
    <g>
      <path class="cls-1" d="M925.26,336.15c-.44-.4-.86-.44-1.09-.44-.87,0-1.46,.64-1.46,1.52s.61,1.5,1.46,1.5c.48,0,.85-.25,1.08-.46v.73c-.4,.24-.82,.3-1.1,.3-.73,0-1.18-.33-1.42-.55-.47-.44-.64-.95-.64-1.51,0-.74,.31-1.25,.64-1.56,.41-.39,.89-.52,1.45-.52,.37,0,.72,.07,1.07,.29v.72Z"/>
      <path class="cls-1" d="M926.85,336.8h1.71v-1.58h.61v4h-.61v-1.84h-1.71v1.84h-.61v-4h.61v1.58Z"/>
      <path class="cls-1" d="M934.28,337.22c0,1.18-.88,2.08-2.08,2.08s-2.08-.9-2.08-2.08,.88-2.07,2.08-2.07,2.08,.9,2.08,2.07Zm-.61,0c0-.89-.61-1.51-1.47-1.51s-1.47,.62-1.47,1.51,.61,1.51,1.47,1.51,1.47-.62,1.47-1.51Z"/>
      <path class="cls-1" d="M938.18,336.15c-.44-.4-.86-.44-1.09-.44-.87,0-1.46,.64-1.46,1.52s.61,1.5,1.46,1.5c.48,0,.85-.25,1.08-.46v.73c-.4,.24-.82,.3-1.1,.3-.73,0-1.18-.33-1.42-.55-.47-.44-.64-.95-.64-1.51,0-.74,.31-1.25,.64-1.56,.41-.39,.89-.52,1.45-.52,.37,0,.72,.07,1.07,.29v.72Z"/>
      <path class="cls-1" d="M940.35,334.89l.62,1.57,.62-1.57h.5l-.99,2.33h-.27l-.98-2.33h.5Z"/>
      <path class="cls-1" d="M942.92,335.28h-.34v-.39h.79v2.33h-.45v-1.94Z"/>
    </g>
  </g>
  <g>
    <g>
      <path class="cls-1" d="M1204.67,376.48c0-.27,.02-.67,.22-.97,.16-.23,.46-.44,.89-.44,.61,0,1.06,.4,1.1,1.01l1.79-1.27v.54l-1.75,1.22v.11h1.75v.44h-4v-.64Zm1.85,.2v-.28c0-.55-.26-.88-.73-.88-.22,0-.44,.07-.59,.32-.1,.18-.11,.38-.11,.58v.27h1.43Z"/>
      <path class="cls-1" d="M1205.09,371.89v1.63h1.19v-1.58h.42v1.58h1.55v-1.63h.42v2.08h-4v-2.08h.42Z"/>
      <path class="cls-1" d="M1204.67,370.78l3.05-1.13-3.05-1.13v-.49l4.24,1.62-4.24,1.62v-.49Z"/>
      <path class="cls-1" d="M1208.14,365.91c-.38,.26-.9,.4-1.47,.4s-1.08-.14-1.47-.4c-.44-.31-.6-.71-.6-1.03s.16-.72,.6-1.03c.38-.26,.9-.4,1.47-.4s1.09,.14,1.47,.4c.44,.31,.6,.71,.6,1.03s-.16,.72-.6,1.03Zm-2.69-.34c.34,.22,.8,.29,1.22,.29s.88-.08,1.22-.29c.34-.21,.44-.49,.44-.69s-.11-.48-.44-.69c-.34-.22-.8-.29-1.22-.29s-.88,.08-1.22,.29c-.34,.21-.44,.49-.44,.69s.11,.48,.44,.69Z"/>
      <path class="cls-1" d="M1206.18,362.04h2.49v.43h-2.49v-.43Z"/>
      <path class="cls-1" d="M1205.09,360.29v.67l-.42-.23v-.88h4v.44h-3.58Z"/>
    </g>
    <g>
      <path class="cls-1" d="M1203.02,349.59v-.49h2.91v.49h-.22c.25,.18,.28,.41,.28,.53,0,.53-.42,.88-.92,.88s-.92-.35-.92-.86c0-.13,.02-.39,.28-.56h-1.41Zm2.05,.91c.28,0,.49-.2,.49-.48s-.22-.48-.49-.48-.49,.2-.49,.48,.21,.48,.49,.48Z"/>
      <path class="cls-1" d="M1205.46,346.84c.13,.05,.54,.25,.54,.85,0,.28-.08,.49-.24,.66-.18,.19-.4,.27-.68,.27-.34,0-.56-.14-.68-.26-.2-.2-.24-.44-.24-.65,0-.35,.14-.56,.28-.68,.22-.18,.49-.21,.68-.21h.04v1.3c.1,0,.22-.03,.29-.08,.07-.05,.16-.16,.16-.35s-.09-.32-.23-.4l.07-.45Zm-.61,.45c-.24,.04-.35,.23-.35,.41s.12,.37,.35,.41v-.82Z"/>
      <path class="cls-1" d="M1204.62,345.43c-.11,.12-.12,.23-.12,.28,0,.12,.06,.19,.14,.19,.04,0,.11-.02,.16-.16l.04-.12c.04-.14,.11-.34,.25-.44,.07-.05,.18-.09,.29-.09,.16,0,.31,.05,.44,.19,.13,.14,.18,.31,.18,.52,0,.36-.17,.56-.29,.67l-.3-.26c.11-.1,.2-.24,.2-.38,0-.14-.07-.24-.19-.24-.11,0-.15,.09-.18,.15l-.04,.11c-.04,.12-.1,.27-.21,.37-.08,.08-.19,.13-.33,.13-.17,0-.31-.08-.39-.18-.11-.14-.12-.31-.12-.45,0-.13,.02-.33,.18-.55l.28,.24Z"/>
      <path class="cls-1" d="M1203.18,344.42c0-.16,.13-.29,.29-.29s.29,.13,.29,.29-.13,.29-.29,.29-.29-.13-.29-.29Zm1.02-.24h1.73v.49h-1.73v-.49Z"/>
      <path class="cls-1" d="M1204.21,342.29v-.49h1.65c.26,0,.54,.02,.76,.24,.12,.12,.24,.33,.24,.68,0,.34-.1,.54-.2,.65-.12,.14-.32,.24-.52,.28v-.53c.08-.02,.16-.06,.21-.12,.09-.1,.09-.23,.09-.3,0-.14-.05-.23-.11-.29-.11-.11-.24-.12-.38-.12h-.24c.26,.17,.29,.4,.29,.53,0,.23-.07,.43-.24,.6-.13,.13-.35,.28-.69,.28-.27,0-.52-.1-.69-.27-.15-.15-.23-.36-.23-.6,0-.32,.18-.48,.28-.54h-.22Zm.5,.75c.07,.08,.19,.16,.37,.16,.15,0,.26-.06,.34-.13,.11-.1,.15-.24,.15-.35s-.04-.24-.12-.32c-.09-.1-.23-.16-.37-.16-.16,0-.28,.07-.35,.14-.1,.1-.14,.21-.14,.34,0,.16,.06,.26,.12,.32Z"/>
      <path class="cls-1" d="M1204.21,341.23v-.49h.22c-.13-.09-.28-.26-.28-.54,0-.15,.04-.38,.21-.51,.15-.12,.32-.14,.49-.14h1.09v.49h-.94c-.1,0-.25,0-.34,.09-.08,.08-.09,.18-.09,.23,0,.13,.04,.23,.15,.3,.11,.07,.24,.08,.34,.08h.88v.49h-1.73Z"/>
      <path class="cls-1" d="M1205.46,337.3c.13,.05,.54,.25,.54,.85,0,.28-.08,.49-.24,.66-.18,.19-.4,.27-.68,.27-.34,0-.56-.14-.68-.26-.2-.2-.24-.44-.24-.65,0-.35,.14-.56,.28-.68,.22-.18,.49-.21,.68-.21h.04v1.3c.1,0,.22-.03,.29-.08,.07-.05,.16-.16,.16-.35s-.09-.32-.23-.4l.07-.45Zm-.61,.45c-.24,.04-.35,.23-.35,.41s.12,.37,.35,.41v-.82Z"/>
      <path class="cls-1" d="M1203.02,335.48v-.49h2.91v.49h-.22c.25,.18,.28,.41,.28,.53,0,.53-.42,.88-.92,.88s-.92-.35-.92-.86c0-.13,.02-.39,.28-.56h-1.41Zm2.05,.91c.28,0,.49-.2,.49-.48s-.22-.48-.49-.48-.49,.2-.49,.48,.21,.48,.49,.48Z"/>
      <path class="cls-1" d="M1204.43,333.1c-.24-.17-.28-.42-.28-.56,0-.51,.4-.85,.92-.85s.92,.35,.92,.86c0,.11-.02,.36-.28,.55h.22v.49h-2.91v-.49h1.41Zm.64,.05c.28,0,.49-.2,.49-.48s-.22-.48-.49-.48-.49,.2-.49,.48,.21,.48,.49,.48Z"/>
      <path class="cls-1" d="M1205.68,330.68l-1.47,.82v-.57l.98-.54-.98-.48v-.55l2.65,1.39v.55l-1.17-.63Z"/>
      <path class="cls-1" d="M1203.27,327.76v-.38l1.7-.71-1.7-.74v-.38l2.67-.45v.53l-1.64,.24,1.64,.72v.18l-1.64,.68,1.64,.27v.53l-2.67-.5Z"/>
      <path class="cls-1" d="M1203.72,323.05v.96h.6v-.92h.45v.92h.73v-.96h.45v1.48h-2.67v-1.48h.45Z"/>
      <path class="cls-1" d="M1204.62,321.19h1.32v.49h-1.32v.18h-.42v-.18h-.48c-.16,0-.43-.01-.61-.23-.09-.1-.14-.25-.14-.43,0-.11,.02-.2,.06-.28h.44c-.05,.07-.07,.14-.07,.22,0,.06,.02,.13,.09,.18,.06,.04,.16,.05,.3,.05h.41v-.45h.42v.45Z"/>
      <path class="cls-1" d="M1204.4,318.79c.16-.17,.4-.29,.68-.29s.52,.12,.68,.29c.14,.15,.24,.37,.24,.7s-.11,.55-.24,.7c-.16,.17-.4,.29-.68,.29s-.52-.12-.68-.29c-.14-.15-.24-.37-.24-.7s.11-.55,.24-.7Zm.68,.21c-.27,0-.49,.21-.49,.49s.22,.49,.49,.49,.49-.2,.49-.49-.22-.49-.49-.49Z"/>
      <path class="cls-1" d="M1204.21,318.02v-.49h.26c-.15-.08-.22-.18-.24-.22-.05-.08-.08-.17-.08-.29,0-.08,.02-.15,.04-.21l.46,.06c-.04,.06-.06,.13-.06,.23,0,.09,.02,.23,.14,.32,.12,.09,.26,.1,.38,.1h.83v.49h-1.73Z"/>
      <path class="cls-1" d="M1204.72,314.97l-1.45,.92v-.62l.93-.57-.93-.57v-.62l1.45,.94h1.22v.52h-1.22Z"/>
      <path class="cls-1" d="M1204.61,310.55c.81,0,1.39,.58,1.39,1.42s-.58,1.42-1.39,1.42-1.4-.58-1.4-1.42,.58-1.42,1.4-1.42Zm0,.54c-.54,0-.92,.37-.92,.89s.38,.89,.92,.89,.92-.37,.92-.89-.38-.89-.92-.89Z"/>
      <path class="cls-1" d="M1203.27,309.44h1.68c.2,0,.33-.07,.4-.13,.09-.08,.18-.22,.18-.42s-.09-.35-.18-.42c-.07-.06-.19-.13-.4-.13h-1.68v-.52h1.63c.25,0,.51,.04,.71,.2,.25,.19,.38,.53,.38,.87s-.13,.68-.38,.87c-.2,.16-.46,.2-.71,.2h-1.63v-.52Z"/>
      <path class="cls-1" d="M1207.44,350.33h2.8v-.38h.42v.84h-3.63v-.84h.42v.38Z"/>
      <path class="cls-1" d="M1209.94,348.65v.24l-1.73,.88v-.54l1-.46-1-.46v-.22l1-.46-1-.46v-.54l1.73,.88v.24l-1.02,.46,1.02,.46Z"/>
      <path class="cls-1" d="M1207.18,346.01c0-.16,.13-.29,.29-.29s.29,.13,.29,.29-.13,.29-.29,.29-.29-.13-.29-.29Zm1.02-.24h1.73v.49h-1.73v-.49Z"/>
      <path class="cls-1" d="M1208.62,344.68h1.32v.49h-1.32v.19h-.42v-.19h-.59v-.49h.59v-.34h.42v.34Z"/>
      <path class="cls-1" d="M1207.02,343.98v-.49h1.41c-.13-.09-.28-.26-.28-.54,0-.15,.04-.38,.21-.51,.15-.12,.32-.14,.49-.14h1.09v.49h-.94c-.1,0-.25,0-.34,.09-.08,.08-.09,.18-.09,.23,0,.13,.04,.23,.15,.3,.11,.07,.24,.08,.34,.08h.88v.49h-2.91Z"/>
      <path class="cls-1" d="M1207.02,340.92v-.49h1.41c-.13-.09-.28-.26-.28-.54,0-.15,.04-.38,.21-.51,.15-.12,.32-.14,.49-.14h1.09v.49h-.94c-.1,0-.25,0-.34,.09-.08,.08-.09,.18-.09,.23,0,.13,.04,.23,.15,.3,.11,.07,.24,.08,.34,.08h.88v.49h-2.91Z"/>
      <path class="cls-1" d="M1209.46,336.98c.13,.05,.54,.25,.54,.85,0,.28-.08,.49-.24,.66-.18,.19-.4,.27-.68,.27-.34,0-.56-.14-.68-.26-.2-.2-.24-.44-.24-.65,0-.35,.14-.56,.28-.68,.22-.18,.49-.21,.68-.21h.04v1.3c.1,0,.22-.03,.29-.08,.07-.05,.16-.16,.16-.35s-.09-.32-.23-.4l.07-.45Zm-.61,.45c-.24,.04-.35,.23-.35,.41s.12,.37,.35,.41v-.82Z"/>
      <path class="cls-1" d="M1207.02,335.99h2.91v.49h-2.91v-.49Z"/>
      <path class="cls-1" d="M1210.85,334.94v.49h-2.65v-.49h.22c-.11-.08-.28-.24-.28-.56,0-.15,.04-.4,.23-.59,.13-.13,.34-.26,.69-.26,.39,0,.6,.17,.7,.27,.12,.13,.22,.33,.22,.59,0,.12-.02,.36-.28,.56h1.14Zm-2.15-.12c.09,.11,.21,.16,.37,.16s.29-.06,.38-.16c.06-.06,.12-.17,.12-.32,0-.16-.06-.26-.12-.33-.1-.1-.24-.15-.37-.15s-.27,.05-.36,.15c-.08,.09-.12,.22-.12,.33,0,.13,.04,.23,.12,.32Z"/>
      <path class="cls-1" d="M1208.4,330.61c.16-.17,.4-.29,.68-.29s.52,.12,.68,.29c.14,.15,.24,.37,.24,.7s-.11,.55-.24,.7c-.16,.17-.4,.29-.68,.29s-.52-.12-.68-.29c-.14-.15-.24-.37-.24-.7s.11-.55,.24-.7Zm.68,.21c-.27,0-.49,.21-.49,.49s.22,.49,.49,.49,.49-.2,.49-.49-.22-.49-.49-.49Z"/>
      <path class="cls-1" d="M1208.62,329.35h1.32v.49h-1.32v.18h-.42v-.18h-.48c-.16,0-.43-.01-.61-.23-.09-.1-.14-.25-.14-.43,0-.11,.02-.2,.06-.28h.44c-.05,.07-.07,.14-.07,.22,0,.06,.02,.13,.09,.18,.06,.04,.16,.05,.3,.05h.41v-.45h.42v.45Z"/>
      <path class="cls-1" d="M1207.72,326.25v.9h.6v-.84h.45v.84h1.18v.52h-2.67v-1.42h.45Z"/>
      <path class="cls-1" d="M1207.27,324.92c0-.37,.1-.56,.2-.68,.17-.2,.4-.26,.6-.26,.26,0,.49,.1,.63,.31,.05,.07,.09,.16,.12,.29l1.12-.83v.65l-1.07,.71v.06h1.07v.52h-2.67v-.77Zm1.23,.25v-.15c0-.1-.01-.51-.4-.51s-.4,.41-.4,.5v.16h.8Z"/>
      <path class="cls-1" d="M1207.27,322.78h2.67v.52h-2.67v-.52Z"/>
      <path class="cls-1" d="M1207.72,320.57v.96h.6v-.92h.45v.92h.73v-.96h.45v1.48h-2.67v-1.48h.45Z"/>
      <path class="cls-1" d="M1209.94,319.92h-2.67v-.36l1.78-1.62h-1.78v-.52h2.67v.36l-1.78,1.62h1.78v.52Z"/>
      <path class="cls-1" d="M1207.27,315.98c0-.37,.04-.7,.26-.99,.24-.32,.63-.51,1.08-.51s.83,.18,1.08,.54c.22,.31,.26,.6,.26,.98v.69h-2.67v-.7Zm2.22,.18v-.16c0-.13,0-.42-.18-.65-.15-.21-.42-.33-.71-.33s-.55,.12-.71,.33c-.16,.22-.18,.48-.18,.66v.16h1.77Z"/>
      <path class="cls-1" d="M1207.88,312.63c-.21,.16-.23,.34-.23,.44,0,.28,.18,.37,.31,.37,.06,0,.12-.02,.18-.08,.06-.06,.09-.15,.15-.32,.07-.21,.14-.4,.27-.54,.11-.12,.29-.23,.56-.23,.52,0,.88,.38,.88,.93,0,.49-.3,.78-.5,.92l-.32-.34c.26-.13,.36-.37,.36-.56,0-.24-.14-.41-.37-.41-.1,0-.17,.03-.24,.1-.09,.1-.14,.26-.2,.41-.05,.14-.11,.31-.23,.44-.08,.09-.22,.21-.5,.21-.39,0-.78-.26-.78-.86,0-.17,.03-.48,.31-.75l.36,.27Z"/>
      <path class="cls-1" d="M1210.24,311.48h-2.8v.38h-.42v-.84h3.63v.84h-.42v-.38Z"/>
    </g>
    <rect class="cls-1" x="1202.23" y="354.55" width="8.5" height=".52"/>
  </g>
  <g>
    <g>
      <path class="cls-1" d="M608.67,561.25l-4.22-.67,3.38-1.54-3.38-1.57,4.23-.62v.46l-2.78,.38,2.95,1.36-2.95,1.34,2.78,.4v.46Z"/>
      <path class="cls-1" d="M606.6,554.97l-1.93,1.07v-.5l1.5-.83-1.5-.85v-.5l1.93,1.1,2.07-1.16v.5l-1.64,.92,1.64,.93v.5l-2.07-1.18Z"/>
      <path class="cls-1" d="M604.67,550.58c0-.22,.02-.62,.25-.92,.1-.13,.34-.36,.83-.36,.2,0,.54,.04,.79,.4,.14-.56,.62-.76,1.01-.76s.7,.19,.86,.41c.25,.32,.26,.68,.26,.96v1h-4v-.72Zm1.76,.28v-.33c0-.23-.05-.79-.67-.79-.66,0-.67,.65-.67,.77v.35h1.34Zm1.82,0v-.51c0-.26-.02-.51-.17-.7-.11-.16-.31-.26-.55-.26-.32,0-.5,.19-.59,.34-.08,.15-.12,.36-.12,.68v.46h1.43Z"/>
      <path class="cls-1" d="M607.54,545.79v1.7l1.13,.48v.49l-4.19-1.84,4.19-1.79v.49l-1.13,.47Zm-.42,.17l-1.6,.67,1.6,.68v-1.36Z"/>
      <path class="cls-1" d="M604.67,544.09v-.82c0-.4,.04-.97,.47-1.48,.31-.37,.82-.68,1.54-.68,.84,0,1.29,.41,1.54,.7,.31,.37,.46,.75,.46,1.46v.81h-4Zm3.58-.44v-.39c0-.32-.04-.75-.36-1.14-.25-.3-.65-.54-1.22-.54-.96,0-1.58,.67-1.58,1.68v.39h3.16Z"/>
    </g>
    <g>
      <path class="cls-1" d="M605.55,529.92c-.13,.13-.28,.32-.37,.52-.1,.21-.16,.46-.16,.69,0,.92,.74,1.61,1.67,1.61,1.08,0,1.63-.88,1.63-1.61,0-.27-.08-.53-.19-.74-.11-.23-.26-.39-.33-.46h.55c.32,.44,.39,.91,.39,1.21,0,1.19-.9,2.07-2.06,2.07s-2.08-.89-2.08-2.09c0-.24,.03-.7,.4-1.18h.55Z"/>
      <path class="cls-1" d="M606.29,528.44v-2.05h-1.62v-.44h4v.44h-1.96v2.05h1.96v.44h-4v-.44h1.62Z"/>
      <path class="cls-1" d="M606.67,524.95c-1.19,0-2.07-.93-2.07-2.08s.88-2.08,2.07-2.08,2.07,.92,2.07,2.08-.88,2.08-2.07,2.08Zm0-.46c.92,0,1.65-.73,1.65-1.62s-.73-1.62-1.65-1.62-1.65,.73-1.65,1.62,.73,1.62,1.65,1.62Z"/>
      <path class="cls-1" d="M605.55,516.73c-.13,.13-.28,.32-.37,.52-.1,.21-.16,.46-.16,.69,0,.92,.74,1.61,1.67,1.61,1.08,0,1.63-.88,1.63-1.61,0-.27-.08-.53-.19-.74-.11-.23-.26-.39-.33-.46h.55c.32,.44,.39,.91,.39,1.21,0,1.19-.9,2.07-2.06,2.07s-2.08-.89-2.08-2.09c0-.24,.03-.7,.4-1.18h.55Z"/>
      <path class="cls-1" d="M605.55,512.75c-.13,.13-.28,.32-.37,.52-.1,.21-.16,.46-.16,.69,0,.92,.74,1.61,1.67,1.61,1.08,0,1.63-.88,1.63-1.61,0-.27-.08-.53-.19-.74-.11-.23-.26-.39-.33-.46h.55c.32,.44,.39,.91,.39,1.21,0,1.19-.9,2.07-2.06,2.07s-2.08-.89-2.08-2.09c0-.24,.03-.7,.4-1.18h.55Z"/>
      <path class="cls-1" d="M606.07,509.97h2.6v.73h-2.6v-.73Z"/>
      <path class="cls-1" d="M605.09,506.72h3.58v.44h-3.58v.97h-.42v-2.39h.42v.97Z"/>
      <path class="cls-1" d="M606.29,504.55v-2.05h-1.62v-.44h4v.44h-1.96v2.05h1.96v.44h-4v-.44h1.62Z"/>
      <path class="cls-1" d="M606.67,501.06c-1.19,0-2.07-.93-2.07-2.08s.88-2.08,2.07-2.08,2.07,.92,2.07,2.08-.88,2.08-2.07,2.08Zm0-.46c.92,0,1.65-.73,1.65-1.62s-.73-1.62-1.65-1.62-1.65,.73-1.65,1.62,.73,1.62,1.65,1.62Z"/>
      <path class="cls-1" d="M605.55,492.84c-.13,.13-.28,.32-.37,.52-.1,.21-.16,.46-.16,.69,0,.92,.74,1.61,1.67,1.61,1.08,0,1.63-.88,1.63-1.61,0-.27-.08-.53-.19-.74-.11-.23-.26-.39-.33-.46h.55c.32,.44,.39,.91,.39,1.21,0,1.19-.9,2.07-2.06,2.07s-2.08-.89-2.08-2.09c0-.24,.03-.7,.4-1.18h.55Z"/>
      <path class="cls-1" d="M605.55,488.86c-.13,.13-.28,.32-.37,.52-.1,.21-.16,.46-.16,.69,0,.92,.74,1.61,1.67,1.61,1.08,0,1.63-.88,1.63-1.61,0-.27-.08-.53-.19-.74-.11-.23-.26-.39-.33-.46h.55c.32,.44,.39,.91,.39,1.21,0,1.19-.9,2.07-2.06,2.07s-2.08-.89-2.08-2.09c0-.24,.03-.7,.4-1.18h.55Z"/>
      <path class="cls-1" d="M606.07,486.08h2.6v.73h-2.6v-.73Z"/>
      <path class="cls-1" d="M604.67,483.18c0-.27,.02-.67,.22-.97,.16-.23,.46-.44,.89-.44,.61,0,1.06,.4,1.1,1.01l1.79-1.27v.54l-1.75,1.22v.11h1.75v.44h-4v-.64Zm1.85,.2v-.28c0-.55-.26-.88-.73-.88-.22,0-.44,.07-.59,.32-.1,.18-.11,.38-.11,.58v.27h1.43Z"/>
      <path class="cls-1" d="M605.09,478.59v1.63h1.19v-1.58h.42v1.58h1.55v-1.63h.42v2.08h-4v-2.08h.42Z"/>
      <path class="cls-1" d="M604.67,476.87c0-.4,.05-.74,.28-1.01,.25-.29,.61-.37,.86-.37,.56,0,1.12,.35,1.12,1.26v.39h1.74v.44h-4v-.73Zm1.84,.28v-.37c0-.53-.26-.85-.73-.85-.64,0-.7,.59-.7,.88v.33h1.42Z"/>
      <path class="cls-1" d="M605.09,472.63v1.63h1.19v-1.58h.42v1.58h1.55v-1.63h.42v2.08h-4v-2.08h.42Z"/>
      <path class="cls-1" d="M607.54,469.33v1.7l1.13,.48v.49l-4.19-1.84,4.19-1.79v.49l-1.13,.47Zm-.42,.17l-1.6,.67,1.6,.68v-1.36Z"/>
      <path class="cls-1" d="M605.09,466.89h3.58v.44h-3.58v.97h-.42v-2.39h.42v.97Z"/>
    </g>
    <rect class="cls-1" x="602.23" y="536.89" width="8.5" height=".52"/>
  </g>
  <g>
    <path class="cls-1" d="M607.51,380.31v-.49h.41v.49h.76v.44h-.76v2.05l-3.47-2.49h3.06Zm0,.44h-1.77l1.77,1.27v-1.27Z"/>
    <path class="cls-1" d="M608.14,378.71c-.38,.26-.9,.4-1.47,.4s-1.08-.14-1.47-.4c-.44-.31-.6-.71-.6-1.03s.16-.72,.6-1.03c.38-.26,.9-.4,1.47-.4s1.09,.14,1.47,.4c.44,.31,.6,.71,.6,1.03s-.16,.72-.6,1.03Zm-2.69-.34c.34,.22,.8,.29,1.22,.29s.88-.08,1.22-.29c.34-.21,.44-.49,.44-.69s-.11-.48-.44-.69c-.34-.22-.8-.29-1.22-.29s-.88,.08-1.22,.29c-.34,.21-.44,.49-.44,.69s.11,.48,.44,.69Z"/>
    <path class="cls-1" d="M604.59,372.64l.13-.23,4.02,2.33-.14,.23-4.02-2.33Zm.91,1.24c.49,0,.87,.38,.87,.87s-.38,.87-.87,.87-.87-.38-.87-.87,.38-.87,.87-.87Zm0,.36c-.29,0-.54,.22-.54,.51s.24,.51,.54,.51,.54-.23,.54-.51-.25-.51-.54-.51Zm2.34-2.48c.49,0,.87,.38,.87,.87s-.38,.87-.87,.87-.87-.38-.87-.87,.38-.87,.87-.87Zm0,.36c-.29,0-.54,.22-.54,.51s.24,.51,.54,.51,.54-.23,.54-.51-.25-.51-.54-.51Z"/>
    <path class="cls-1" d="M606.38,369.21l-1.71-1.7v-.6l1.87,1.87,2.13-1.93v.61l-1.83,1.64,.11,.11h1.72v.44h-4v-.44h1.71Z"/>
    <path class="cls-1" d="M605.09,364.01v1.63h1.19v-1.58h.42v1.58h1.55v-1.63h.42v2.08h-4v-2.08h.42Z"/>
    <path class="cls-1" d="M606.95,362.08l-2.28,1.31v-.52l1.79-1.02-1.79-1.03v-.52l2.28,1.33h1.72v.44h-1.72Z"/>
    <path class="cls-1" d="M604.67,358.85c0-.22,.02-.62,.25-.92,.1-.13,.34-.36,.83-.36,.2,0,.54,.04,.79,.4,.14-.56,.62-.76,1.01-.76s.7,.19,.86,.41c.25,.32,.26,.68,.26,.96v1h-4v-.72Zm1.76,.28v-.33c0-.23-.05-.79-.67-.79-.66,0-.67,.65-.67,.77v.35h1.34Zm1.82,0v-.51c0-.26-.02-.51-.17-.7-.11-.16-.31-.26-.55-.26-.32,0-.5,.19-.59,.34-.08,.15-.12,.36-.12,.68v.46h1.43Z"/>
    <path class="cls-1" d="M606.67,356.48c-1.19,0-2.07-.93-2.07-2.08s.88-2.08,2.07-2.08,2.07,.92,2.07,2.08-.88,2.08-2.07,2.08Zm0-.46c.92,0,1.65-.73,1.65-1.62s-.73-1.62-1.65-1.62-1.65,.73-1.65,1.62,.73,1.62,1.65,1.62Z"/>
    <path class="cls-1" d="M607.54,349.3v1.7l1.13,.48v.49l-4.19-1.84,4.19-1.79v.49l-1.13,.47Zm-.42,.17l-1.6,.67,1.6,.68v-1.36Z"/>
    <path class="cls-1" d="M604.67,346.96c0-.27,.02-.67,.22-.97,.16-.23,.46-.44,.89-.44,.61,0,1.06,.4,1.1,1.01l1.79-1.27v.54l-1.75,1.22v.11h1.75v.44h-4v-.64Zm1.85,.2v-.28c0-.55-.26-.88-.73-.88-.22,0-.44,.07-.59,.32-.1,.18-.11,.38-.11,.58v.27h1.43Z"/>
    <path class="cls-1" d="M604.67,344.44v-.82c0-.4,.04-.97,.47-1.48,.31-.37,.82-.68,1.54-.68,.84,0,1.29,.41,1.54,.7,.31,.37,.46,.75,.46,1.46v.81h-4Zm3.58-.44v-.39c0-.32-.04-.75-.36-1.14-.25-.3-.65-.54-1.22-.54-.96,0-1.58,.67-1.58,1.68v.39h3.16Z"/>
    <path class="cls-1" d="M606.18,338.93h2.49v.43h-2.49v-.43Z"/>
    <path class="cls-1" d="M605.09,337.18v.67l-.42-.23v-.88h4v.44h-3.58Z"/>
    <path class="cls-1" d="M608.14,334.85c-.38,.26-.9,.4-1.47,.4s-1.08-.14-1.47-.4c-.44-.31-.6-.71-.6-1.03s.16-.72,.6-1.03c.38-.26,.9-.4,1.47-.4s1.09,.14,1.47,.4c.44,.31,.6,.71,.6,1.03s-.16,.72-.6,1.03Zm-2.69-.34c.34,.22,.8,.29,1.22,.29s.88-.08,1.22-.29c.34-.21,.44-.49,.44-.69s-.11-.48-.44-.69c-.34-.22-.8-.29-1.22-.29s-.88,.08-1.22,.29c-.34,.21-.44,.49-.44,.69s.11,.48,.44,.69Z"/>
    <path class="cls-1" d="M608.14,331.2c-.38,.26-.9,.4-1.47,.4s-1.08-.14-1.47-.4c-.44-.31-.6-.71-.6-1.03s.16-.72,.6-1.03c.38-.26,.9-.4,1.47-.4s1.09,.14,1.47,.4c.44,.31,.6,.71,.6,1.03s-.16,.72-.6,1.03Zm-2.69-.34c.34,.22,.8,.29,1.22,.29s.88-.08,1.22-.29c.34-.21,.44-.49,.44-.69s-.11-.48-.44-.69c-.34-.22-.8-.29-1.22-.29s-.88,.08-1.22,.29c-.34,.21-.44,.49-.44,.69s.11,.48,.44,.69Z"/>
    <path class="cls-1" d="M604.59,325.14l.13-.23,4.02,2.33-.14,.23-4.02-2.33Zm.91,1.24c.49,0,.87,.38,.87,.87s-.38,.87-.87,.87-.87-.38-.87-.87,.38-.87,.87-.87Zm0,.36c-.29,0-.54,.22-.54,.51s.24,.51,.54,.51,.54-.23,.54-.51-.25-.51-.54-.51Zm2.34-2.48c.49,0,.87,.38,.87,.87s-.38,.87-.87,.87-.87-.38-.87-.87,.38-.87,.87-.87Zm0,.36c-.29,0-.54,.22-.54,.51s.24,.51,.54,.51,.54-.23,.54-.51-.25-.51-.54-.51Z"/>
    <path class="cls-1" d="M605.09,321.16h3.58v.44h-3.58v.97h-.42v-2.39h.42v.97Z"/>
    <path class="cls-1" d="M606.67,319.84c-1.19,0-2.07-.93-2.07-2.08s.88-2.08,2.07-2.08,2.07,.92,2.07,2.08-.88,2.08-2.07,2.08Zm0-.46c.92,0,1.65-.73,1.65-1.62s-.73-1.62-1.65-1.62-1.65,.73-1.65,1.62,.73,1.62,1.65,1.62Z"/>
    <path class="cls-1" d="M606.6,314.03l-1.93,1.07v-.5l1.51-.83-1.51-.85v-.5l1.93,1.1,2.07-1.16v.5l-1.64,.92,1.64,.93v.5l-2.07-1.18Z"/>
    <path class="cls-1" d="M604.67,311.14h4v.44h-4v-.44Z"/>
    <path class="cls-1" d="M605.55,306.87c-.13,.13-.28,.32-.37,.52-.1,.21-.16,.46-.16,.69,0,.92,.74,1.61,1.67,1.61,1.08,0,1.63-.88,1.63-1.61,0-.27-.08-.53-.19-.74-.11-.23-.26-.39-.33-.46h.55c.32,.44,.39,.91,.39,1.21,0,1.19-.9,2.07-2.06,2.07s-2.08-.89-2.08-2.09c0-.24,.03-.7,.4-1.18h.55Z"/>
  </g>
  <g>
    <rect class="cls-1" x="694.91" y="520.34" width="1.32" height="1.32"/>
    <rect class="cls-1" x="698.87" y="520.34" width="1.32" height="1.32"/>
    <rect class="cls-1" x="702.83" y="520.34" width="1.32" height="1.32"/>
    <rect class="cls-1" x="694.91" y="521.66" width="1.32" height="1.32"/>
    <rect class="cls-1" x="697.55" y="521.66" width="1.32" height="1.32"/>
    <rect class="cls-1" x="698.87" y="521.66" width="1.32" height="1.32"/>
    <rect class="cls-1" x="700.19" y="521.66" width="1.32" height="1.32"/>
    <rect class="cls-1" x="701.51" y="521.66" width="1.32" height="1.32"/>
    <rect class="cls-1" x="692.27" y="522.98" width="1.32" height="1.32"/>
    <rect class="cls-1" x="693.59" y="522.98" width="1.32" height="1.32"/>
    <rect class="cls-1" x="694.91" y="522.98" width="1.32" height="1.32"/>
    <rect class="cls-1" x="697.55" y="522.98" width="1.32" height="1.32"/>
    <rect class="cls-1" x="700.19" y="522.98" width="1.32" height="1.32"/>
    <rect class="cls-1" x="702.83" y="522.98" width="1.32" height="1.32"/>
    <rect class="cls-1" x="692.27" y="524.3" width="1.32" height="1.32"/>
    <rect class="cls-1" x="696.23" y="524.3" width="1.32" height="1.32"/>
    <rect class="cls-1" x="697.55" y="524.3" width="1.32" height="1.32"/>
    <rect class="cls-1" x="698.87" y="524.3" width="1.32" height="1.32"/>
    <rect class="cls-1" x="700.19" y="524.3" width="1.32" height="1.32"/>
    <rect class="cls-1" x="692.27" y="525.62" width="1.32" height="1.32"/>
    <rect class="cls-1" x="693.59" y="525.62" width="1.32" height="1.32"/>
    <rect class="cls-1" x="696.23" y="525.62" width="1.32" height="1.32"/>
    <rect class="cls-1" x="697.55" y="525.62" width="1.32" height="1.32"/>
    <rect class="cls-1" x="700.19" y="525.62" width="1.32" height="1.32"/>
    <rect class="cls-1" x="692.27" y="526.94" width="1.32" height="1.32"/>
    <rect class="cls-1" x="698.87" y="526.94" width="1.32" height="1.32"/>
    <rect class="cls-1" x="701.51" y="526.94" width="1.32" height="1.32"/>
    <rect class="cls-1" x="702.83" y="526.94" width="1.32" height="1.32"/>
    <rect class="cls-1" x="692.27" y="528.26" width="1.32" height="1.32"/>
    <rect class="cls-1" x="694.91" y="528.26" width="1.32" height="1.32"/>
    <rect class="cls-1" x="697.55" y="528.26" width="1.32" height="1.32"/>
    <rect class="cls-1" x="700.19" y="528.26" width="1.32" height="1.32"/>
    <rect class="cls-1" x="702.83" y="528.26" width="1.32" height="1.32"/>
    <rect class="cls-1" x="692.27" y="529.58" width="1.32" height="1.32"/>
    <rect class="cls-1" x="693.59" y="529.58" width="1.32" height="1.32"/>
    <rect class="cls-1" x="694.91" y="529.58" width="1.32" height="1.32"/>
    <rect class="cls-1" x="681.71" y="530.9" width="1.32" height="1.32"/>
    <rect class="cls-1" x="684.35" y="530.9" width="1.32" height="1.32"/>
    <rect class="cls-1" x="685.67" y="530.9" width="1.32" height="1.32"/>
    <rect class="cls-1" x="686.99" y="530.9" width="1.32" height="1.32"/>
    <rect class="cls-1" x="688.31" y="530.9" width="1.32" height="1.32"/>
    <rect class="cls-1" x="689.63" y="530.9" width="1.32" height="1.32"/>
    <rect class="cls-1" x="696.23" y="530.9" width="1.32" height="1.32"/>
    <rect class="cls-1" x="698.87" y="530.9" width="1.32" height="1.32"/>
    <rect class="cls-1" x="700.19" y="530.9" width="1.32" height="1.32"/>
    <rect class="cls-1" x="701.51" y="530.9" width="1.32" height="1.32"/>
    <rect class="cls-1" x="702.83" y="530.9" width="1.32" height="1.32"/>
    <rect class="cls-1" x="705.47" y="530.9" width="1.32" height="1.32"/>
    <rect class="cls-1" x="706.79" y="530.9" width="1.32" height="1.32"/>
    <rect class="cls-1" x="708.11" y="530.9" width="1.32" height="1.32"/>
    <rect class="cls-1" x="709.43" y="530.9" width="1.32" height="1.32"/>
    <rect class="cls-1" x="710.75" y="530.9" width="1.32" height="1.32"/>
    <rect class="cls-1" x="683.03" y="532.22" width="1.32" height="1.32"/>
    <rect class="cls-1" x="684.35" y="532.22" width="1.32" height="1.32"/>
    <rect class="cls-1" x="686.99" y="532.22" width="1.32" height="1.32"/>
    <rect class="cls-1" x="688.31" y="532.22" width="1.32" height="1.32"/>
    <rect class="cls-1" x="692.27" y="532.22" width="1.32" height="1.32"/>
    <rect class="cls-1" x="693.59" y="532.22" width="1.32" height="1.32"/>
    <rect class="cls-1" x="696.23" y="532.22" width="1.32" height="1.32"/>
    <rect class="cls-1" x="702.83" y="532.22" width="1.32" height="1.32"/>
    <rect class="cls-1" x="704.15" y="532.22" width="1.32" height="1.32"/>
    <rect class="cls-1" x="706.79" y="532.22" width="1.32" height="1.32"/>
    <rect class="cls-1" x="712.07" y="532.22" width="1.32" height="1.32"/>
    <rect class="cls-1" x="684.35" y="533.54" width="1.32" height="1.32"/>
    <rect class="cls-1" x="685.67" y="533.54" width="1.32" height="1.32"/>
    <rect class="cls-1" x="686.99" y="533.54" width="1.32" height="1.32"/>
    <rect class="cls-1" x="689.63" y="533.54" width="1.32" height="1.32"/>
    <rect class="cls-1" x="690.95" y="533.54" width="1.32" height="1.32"/>
    <rect class="cls-1" x="692.27" y="533.54" width="1.32" height="1.32"/>
    <rect class="cls-1" x="698.87" y="533.54" width="1.32" height="1.32"/>
    <rect class="cls-1" x="700.19" y="533.54" width="1.32" height="1.32"/>
    <rect class="cls-1" x="701.51" y="533.54" width="1.32" height="1.32"/>
    <rect class="cls-1" x="702.83" y="533.54" width="1.32" height="1.32"/>
    <rect class="cls-1" x="704.15" y="533.54" width="1.32" height="1.32"/>
    <rect class="cls-1" x="705.47" y="533.54" width="1.32" height="1.32"/>
    <rect class="cls-1" x="706.79" y="533.54" width="1.32" height="1.32"/>
    <rect class="cls-1" x="708.11" y="533.54" width="1.32" height="1.32"/>
    <rect class="cls-1" x="709.43" y="533.54" width="1.32" height="1.32"/>
    <rect class="cls-1" x="712.07" y="533.54" width="1.32" height="1.32"/>
    <rect class="cls-1" x="713.39" y="533.54" width="1.32" height="1.32"/>
    <rect class="cls-1" x="681.71" y="534.86" width="1.32" height="1.32"/>
    <rect class="cls-1" x="684.35" y="534.86" width="1.32" height="1.32"/>
    <rect class="cls-1" x="685.67" y="534.86" width="1.32" height="1.32"/>
    <rect class="cls-1" x="690.95" y="534.86" width="1.32" height="1.32"/>
    <rect class="cls-1" x="692.27" y="534.86" width="1.32" height="1.32"/>
    <rect class="cls-1" x="694.91" y="534.86" width="1.32" height="1.32"/>
    <rect class="cls-1" x="700.19" y="534.86" width="1.32" height="1.32"/>
    <rect class="cls-1" x="701.51" y="534.86" width="1.32" height="1.32"/>
    <rect class="cls-1" x="702.83" y="534.86" width="1.32" height="1.32"/>
    <rect class="cls-1" x="704.15" y="534.86" width="1.32" height="1.32"/>
    <rect class="cls-1" x="706.79" y="534.86" width="1.32" height="1.32"/>
    <rect class="cls-1" x="713.39" y="534.86" width="1.32" height="1.32"/>
    <rect class="cls-1" x="683.03" y="536.18" width="1.32" height="1.32"/>
    <rect class="cls-1" x="684.35" y="536.18" width="1.32" height="1.32"/>
    <rect class="cls-1" x="686.99" y="536.18" width="1.32" height="1.32"/>
    <rect class="cls-1" x="689.63" y="536.18" width="1.32" height="1.32"/>
    <rect class="cls-1" x="693.59" y="536.18" width="1.32" height="1.32"/>
    <rect class="cls-1" x="694.91" y="536.18" width="1.32" height="1.32"/>
    <rect class="cls-1" x="696.23" y="536.18" width="1.32" height="1.32"/>
    <rect class="cls-1" x="697.55" y="536.18" width="1.32" height="1.32"/>
    <rect class="cls-1" x="698.87" y="536.18" width="1.32" height="1.32"/>
    <rect class="cls-1" x="704.15" y="536.18" width="1.32" height="1.32"/>
    <rect class="cls-1" x="705.47" y="536.18" width="1.32" height="1.32"/>
    <rect class="cls-1" x="706.79" y="536.18" width="1.32" height="1.32"/>
    <rect class="cls-1" x="708.11" y="536.18" width="1.32" height="1.32"/>
    <rect class="cls-1" x="710.75" y="536.18" width="1.32" height="1.32"/>
    <rect class="cls-1" x="712.07" y="536.18" width="1.32" height="1.32"/>
    <rect class="cls-1" x="713.39" y="536.18" width="1.32" height="1.32"/>
    <rect class="cls-1" x="681.71" y="537.5" width="1.32" height="1.32"/>
    <rect class="cls-1" x="684.35" y="537.5" width="1.32" height="1.32"/>
    <rect class="cls-1" x="686.99" y="537.5" width="1.32" height="1.32"/>
    <rect class="cls-1" x="688.31" y="537.5" width="1.32" height="1.32"/>
    <rect class="cls-1" x="690.95" y="537.5" width="1.32" height="1.32"/>
    <rect class="cls-1" x="694.91" y="537.5" width="1.32" height="1.32"/>
    <rect class="cls-1" x="698.87" y="537.5" width="1.32" height="1.32"/>
    <rect class="cls-1" x="702.83" y="537.5" width="1.32" height="1.32"/>
    <rect class="cls-1" x="704.15" y="537.5" width="1.32" height="1.32"/>
    <rect class="cls-1" x="706.79" y="537.5" width="1.32" height="1.32"/>
    <rect class="cls-1" x="709.43" y="537.5" width="1.32" height="1.32"/>
    <rect class="cls-1" x="712.07" y="537.5" width="1.32" height="1.32"/>
    <rect class="cls-1" x="681.71" y="538.82" width="1.32" height="1.32"/>
    <rect class="cls-1" x="686.99" y="538.82" width="1.32" height="1.32"/>
    <rect class="cls-1" x="688.31" y="538.82" width="1.32" height="1.32"/>
    <rect class="cls-1" x="689.63" y="538.82" width="1.32" height="1.32"/>
    <rect class="cls-1" x="696.23" y="538.82" width="1.32" height="1.32"/>
    <rect class="cls-1" x="697.55" y="538.82" width="1.32" height="1.32"/>
    <rect class="cls-1" x="698.87" y="538.82" width="1.32" height="1.32"/>
    <rect class="cls-1" x="700.19" y="538.82" width="1.32" height="1.32"/>
    <rect class="cls-1" x="701.51" y="538.82" width="1.32" height="1.32"/>
    <rect class="cls-1" x="702.83" y="538.82" width="1.32" height="1.32"/>
    <rect class="cls-1" x="704.15" y="538.82" width="1.32" height="1.32"/>
    <rect class="cls-1" x="705.47" y="538.82" width="1.32" height="1.32"/>
    <rect class="cls-1" x="706.79" y="538.82" width="1.32" height="1.32"/>
    <rect class="cls-1" x="708.11" y="538.82" width="1.32" height="1.32"/>
    <rect class="cls-1" x="709.43" y="538.82" width="1.32" height="1.32"/>
    <rect class="cls-1" x="712.07" y="538.82" width="1.32" height="1.32"/>
    <rect class="cls-1" x="713.39" y="538.82" width="1.32" height="1.32"/>
    <rect class="cls-1" x="681.71" y="540.14" width="1.32" height="1.32"/>
    <rect class="cls-1" x="684.35" y="540.14" width="1.32" height="1.32"/>
    <rect class="cls-1" x="685.67" y="540.14" width="1.32" height="1.32"/>
    <rect class="cls-1" x="686.99" y="540.14" width="1.32" height="1.32"/>
    <rect class="cls-1" x="688.31" y="540.14" width="1.32" height="1.32"/>
    <rect class="cls-1" x="693.59" y="540.14" width="1.32" height="1.32"/>
    <rect class="cls-1" x="694.91" y="540.14" width="1.32" height="1.32"/>
    <rect class="cls-1" x="696.23" y="540.14" width="1.32" height="1.32"/>
    <rect class="cls-1" x="700.19" y="540.14" width="1.32" height="1.32"/>
    <rect class="cls-1" x="704.15" y="540.14" width="1.32" height="1.32"/>
    <rect class="cls-1" x="706.79" y="540.14" width="1.32" height="1.32"/>
    <rect class="cls-1" x="708.11" y="540.14" width="1.32" height="1.32"/>
    <rect class="cls-1" x="713.39" y="540.14" width="1.32" height="1.32"/>
    <rect class="cls-1" x="681.71" y="541.46" width="1.32" height="1.32"/>
    <rect class="cls-1" x="684.35" y="541.46" width="1.32" height="1.32"/>
    <rect class="cls-1" x="686.99" y="541.46" width="1.32" height="1.32"/>
    <rect class="cls-1" x="689.63" y="541.46" width="1.32" height="1.32"/>
    <rect class="cls-1" x="690.95" y="541.46" width="1.32" height="1.32"/>
    <rect class="cls-1" x="693.59" y="541.46" width="1.32" height="1.32"/>
    <rect class="cls-1" x="694.91" y="541.46" width="1.32" height="1.32"/>
    <rect class="cls-1" x="696.23" y="541.46" width="1.32" height="1.32"/>
    <rect class="cls-1" x="702.83" y="541.46" width="1.32" height="1.32"/>
    <rect class="cls-1" x="704.15" y="541.46" width="1.32" height="1.32"/>
    <rect class="cls-1" x="705.47" y="541.46" width="1.32" height="1.32"/>
    <rect class="cls-1" x="706.79" y="541.46" width="1.32" height="1.32"/>
    <rect class="cls-1" x="708.11" y="541.46" width="1.32" height="1.32"/>
    <rect class="cls-1" x="710.75" y="541.46" width="1.32" height="1.32"/>
    <rect class="cls-1" x="692.27" y="542.78" width="1.32" height="1.32"/>
    <rect class="cls-1" x="693.59" y="542.78" width="1.32" height="1.32"/>
    <rect class="cls-1" x="697.55" y="542.78" width="1.32" height="1.32"/>
    <rect class="cls-1" x="698.87" y="542.78" width="1.32" height="1.32"/>
    <rect class="cls-1" x="701.51" y="542.78" width="1.32" height="1.32"/>
    <rect class="cls-1" x="702.83" y="542.78" width="1.32" height="1.32"/>
    <rect class="cls-1" x="708.11" y="542.78" width="1.32" height="1.32"/>
    <rect class="cls-1" x="709.43" y="542.78" width="1.32" height="1.32"/>
    <rect class="cls-1" x="694.91" y="544.1" width="1.32" height="1.32"/>
    <rect class="cls-1" x="698.87" y="544.1" width="1.32" height="1.32"/>
    <rect class="cls-1" x="700.19" y="544.1" width="1.32" height="1.32"/>
    <rect class="cls-1" x="702.83" y="544.1" width="1.32" height="1.32"/>
    <rect class="cls-1" x="705.47" y="544.1" width="1.32" height="1.32"/>
    <rect class="cls-1" x="708.11" y="544.1" width="1.32" height="1.32"/>
    <rect class="cls-1" x="710.75" y="544.1" width="1.32" height="1.32"/>
    <rect class="cls-1" x="712.07" y="544.1" width="1.32" height="1.32"/>
    <rect class="cls-1" x="713.39" y="544.1" width="1.32" height="1.32"/>
    <rect class="cls-1" x="692.27" y="545.42" width="1.32" height="1.32"/>
    <rect class="cls-1" x="694.91" y="545.42" width="1.32" height="1.32"/>
    <rect class="cls-1" x="697.55" y="545.42" width="1.32" height="1.32"/>
    <rect class="cls-1" x="698.87" y="545.42" width="1.32" height="1.32"/>
    <rect class="cls-1" x="702.83" y="545.42" width="1.32" height="1.32"/>
    <rect class="cls-1" x="708.11" y="545.42" width="1.32" height="1.32"/>
    <rect class="cls-1" x="709.43" y="545.42" width="1.32" height="1.32"/>
    <rect class="cls-1" x="712.07" y="545.42" width="1.32" height="1.32"/>
    <rect class="cls-1" x="713.39" y="545.42" width="1.32" height="1.32"/>
    <rect class="cls-1" x="692.27" y="546.74" width="1.32" height="1.32"/>
    <rect class="cls-1" x="693.59" y="546.74" width="1.32" height="1.32"/>
    <rect class="cls-1" x="694.91" y="546.74" width="1.32" height="1.32"/>
    <rect class="cls-1" x="697.55" y="546.74" width="1.32" height="1.32"/>
    <rect class="cls-1" x="700.19" y="546.74" width="1.32" height="1.32"/>
    <rect class="cls-1" x="701.51" y="546.74" width="1.32" height="1.32"/>
    <rect class="cls-1" x="702.83" y="546.74" width="1.32" height="1.32"/>
    <rect class="cls-1" x="704.15" y="546.74" width="1.32" height="1.32"/>
    <rect class="cls-1" x="705.47" y="546.74" width="1.32" height="1.32"/>
    <rect class="cls-1" x="706.79" y="546.74" width="1.32" height="1.32"/>
    <rect class="cls-1" x="708.11" y="546.74" width="1.32" height="1.32"/>
    <rect class="cls-1" x="710.75" y="546.74" width="1.32" height="1.32"/>
    <rect class="cls-1" x="712.07" y="546.74" width="1.32" height="1.32"/>
    <rect class="cls-1" x="713.39" y="546.74" width="1.32" height="1.32"/>
    <rect class="cls-1" x="692.27" y="548.06" width="1.32" height="1.32"/>
    <rect class="cls-1" x="693.59" y="548.06" width="1.32" height="1.32"/>
    <rect class="cls-1" x="694.91" y="548.06" width="1.32" height="1.32"/>
    <rect class="cls-1" x="701.51" y="548.06" width="1.32" height="1.32"/>
    <rect class="cls-1" x="705.47" y="548.06" width="1.32" height="1.32"/>
    <rect class="cls-1" x="708.11" y="548.06" width="1.32" height="1.32"/>
    <rect class="cls-1" x="709.43" y="548.06" width="1.32" height="1.32"/>
    <rect class="cls-1" x="710.75" y="548.06" width="1.32" height="1.32"/>
    <rect class="cls-1" x="712.07" y="548.06" width="1.32" height="1.32"/>
    <rect class="cls-1" x="713.39" y="548.06" width="1.32" height="1.32"/>
    <rect class="cls-1" x="692.27" y="549.38" width="1.32" height="1.32"/>
    <rect class="cls-1" x="694.91" y="549.38" width="1.32" height="1.32"/>
    <rect class="cls-1" x="696.23" y="549.38" width="1.32" height="1.32"/>
    <rect class="cls-1" x="697.55" y="549.38" width="1.32" height="1.32"/>
    <rect class="cls-1" x="709.43" y="549.38" width="1.32" height="1.32"/>
    <rect class="cls-1" x="710.75" y="549.38" width="1.32" height="1.32"/>
    <rect class="cls-1" x="713.39" y="549.38" width="1.32" height="1.32"/>
    <rect class="cls-1" x="693.59" y="550.7" width="1.32" height="1.32"/>
    <rect class="cls-1" x="694.91" y="550.7" width="1.32" height="1.32"/>
    <rect class="cls-1" x="696.23" y="550.7" width="1.32" height="1.32"/>
    <rect class="cls-1" x="700.19" y="550.7" width="1.32" height="1.32"/>
    <rect class="cls-1" x="701.51" y="550.7" width="1.32" height="1.32"/>
    <rect class="cls-1" x="702.83" y="550.7" width="1.32" height="1.32"/>
    <rect class="cls-1" x="704.15" y="550.7" width="1.32" height="1.32"/>
    <rect class="cls-1" x="706.79" y="550.7" width="1.32" height="1.32"/>
    <rect class="cls-1" x="708.11" y="550.7" width="1.32" height="1.32"/>
    <rect class="cls-1" x="709.43" y="550.7" width="1.32" height="1.32"/>
    <rect class="cls-1" x="713.39" y="550.7" width="1.32" height="1.32"/>
    <rect class="cls-1" x="692.27" y="552.02" width="1.32" height="1.32"/>
    <rect class="cls-1" x="694.91" y="552.02" width="1.32" height="1.32"/>
    <rect class="cls-1" x="696.23" y="552.02" width="1.32" height="1.32"/>
    <rect class="cls-1" x="706.79" y="552.02" width="1.32" height="1.32"/>
    <rect class="cls-1" x="708.11" y="552.02" width="1.32" height="1.32"/>
    <rect class="cls-1" x="709.43" y="552.02" width="1.32" height="1.32"/>
    <rect class="cls-1" x="710.75" y="552.02" width="1.32" height="1.32"/>
    <rect class="cls-1" x="712.07" y="552.02" width="1.32" height="1.32"/>
    <rect class="cls-1" x="713.39" y="552.02" width="1.32" height="1.32"/>
    <path class="cls-1" d="M689.56,520.34h-7.85v9.24h9.24v-9.24h-1.39Zm0,7.85h-6.47v-6.47h6.47v6.47Z"/>
    <path class="cls-1" d="M713.32,520.34h-7.85v9.24h9.24v-9.24h-1.39Zm0,7.85h-6.47v-6.47h6.47v6.47Z"/>
    <path class="cls-1" d="M689.56,544.1h-7.85v9.24h9.24v-9.24h-1.39Zm0,7.85h-6.47v-6.47h6.47v6.47Z"/>
    <rect class="cls-1" x="684.35" y="522.98" width="3.96" height="3.96"/>
    <rect class="cls-1" x="708.11" y="522.98" width="3.96" height="3.96"/>
    <rect class="cls-1" x="684.35" y="546.74" width="3.96" height="3.96"/>
  </g>
  <rect class="cls-1" x="721.31" y="519.02" width="1.32" height="1.32"/>
  <rect class="cls-1" x="717.35" y="520.34" width="2.64" height="2.64"/>
  <rect class="cls-1" x="726.59" y="517.7" width="1.32" height="1.32"/>
  <rect class="cls-1" x="734.51" y="512.42" width="1.32" height="1.32"/>
  <rect class="cls-1" x="739.79" y="515.06" width="3.96" height="1.32"/>
  <rect class="cls-1" x="734.51" y="517.7" width="2.64" height="1.32"/>
  <rect class="cls-1" x="730.55" y="516.38" width="1.32" height="1.32"/>
  <rect class="cls-1" x="725.27" y="519.02" width="1.32" height="1.32"/>
  <rect class="cls-1" x="722.63" y="520.34" width="1.32" height="1.32"/>
  <rect class="cls-1" x="719.99" y="520.34" width="1.32" height="1.32"/>
  <rect class="cls-1" x="723.95" y="519.02" width="1.32" height="1.32"/>
  <rect class="cls-1" x="737.15" y="516.38" width="1.32" height="1.32"/>
  <rect class="cls-1" x="743.75" y="516.38" width="1.32" height="1.32"/>
  <rect class="cls-1" x="745.07" y="515.06" width="1.32" height="1.32"/>
  <rect class="cls-1" x="747.71" y="513.74" width="1.32" height="1.32"/>
  <rect class="cls-1" x="723.95" y="526.94" width="2.64" height="1.32"/>
  <rect class="cls-1" x="716.03" y="528.26" width="5.28" height="2.64"/>
  <rect class="cls-1" x="721.31" y="525.62" width="1.32" height="1.32"/>
  <rect class="cls-1" x="721.31" y="526.94" width="1.32" height="1.32"/>
  <rect class="cls-1" x="722.63" y="524.3" width="1.32" height="1.32"/>
  <rect class="cls-1" x="723.95" y="525.62" width="1.32" height="1.32"/>
  <rect class="cls-1" x="727.91" y="524.3" width="1.32" height="1.32"/>
  <rect class="cls-1" x="719.99" y="526.94" width="1.32" height="1.32"/>
  <rect class="cls-1" x="721.31" y="529.58" width="1.32" height="1.32"/>
  <rect class="cls-1" x="729.23" y="528.26" width="3.96" height="1.32"/>
  <rect class="cls-1" x="734.51" y="525.62" width="1.32" height="1.32"/>
  <rect class="cls-1" x="735.83" y="528.26" width="1.32" height="1.32"/>
  <rect class="cls-1" x="731.87" y="526.94" width="2.64" height="1.32"/>
  <rect class="cls-1" x="738.47" y="525.62" width="2.64" height="1.32"/>
  <rect class="cls-1" x="742.43" y="522.98" width="1.32" height="1.32"/>
  <rect class="cls-1" x="739.79" y="521.66" width="1.32" height="1.32"/>
  <rect class="cls-1" x="729.23" y="521.66" width="5.28" height="1.32"/>
  <rect class="cls-1" x="734.51" y="520.34" width="1.32" height="1.32"/>
  <rect class="cls-1" x="713.39" y="517.7" width="2.64" height="1.32"/>
  <rect class="cls-1" x="717.35" y="516.38" width="1.32" height="1.32"/>
  <rect class="cls-1" x="719.99" y="513.74" width="2.64" height="1.32"/>
  <rect class="cls-1" x="723.95" y="511.1" width="1.32" height="2.64"/>
  <rect class="cls-1" x="722.63" y="512.42" width="1.32" height="1.32"/>
  <rect class="cls-1" x="725.27" y="509.78" width="1.32" height="1.32"/>
  <rect class="cls-1" x="726.59" y="508.46" width="2.64" height="1.32"/>
  <rect class="cls-1" x="729.23" y="511.1" width="2.64" height="1.32"/>
  <rect class="cls-1" x="726.59" y="513.74" width="2.64" height="1.32"/>
  <rect class="cls-1" x="731.87" y="509.78" width="1.32" height="1.32"/>
  <rect class="cls-1" x="722.63" y="516.38" width="1.32" height="1.32"/>
  <rect class="cls-1" x="714.71" y="513.74" width="1.32" height="1.32"/>
  <rect class="cls-1" x="709.43" y="515.06" width="2.64" height="1.32"/>
  <rect class="cls-1" x="708.11" y="516.38" width="1.32" height="1.32"/>
  <rect class="cls-1" x="705.47" y="517.7" width="1.32" height="1.32"/>
  <rect class="cls-1" x="700.19" y="519.02" width="2.64" height="1.32"/>
  <rect class="cls-1" x="696.23" y="519.02" width="1.32" height="1.32"/>
  <rect class="cls-1" x="697.55" y="517.7" width="1.32" height="1.32"/>
  <rect class="cls-1" x="700.19" y="516.38" width="2.64" height="1.32"/>
  <rect class="cls-1" x="702.83" y="515.06" width="1.32" height="1.32"/>
  <rect class="cls-1" x="705.47" y="512.42" width="2.64" height="1.32"/>
  <rect class="cls-1" x="708.11" y="511.1" width="1.32" height="1.32"/>
  <rect class="cls-1" x="709.43" y="509.78" width="1.32" height="1.32"/>
  <rect class="cls-1" x="705.47" y="513.74" width="1.32" height="1.32"/>
  <rect class="cls-1" x="713.39" y="508.46" width="2.64" height="1.32"/>
  <rect class="cls-1" x="718.67" y="505.82" width="1.32" height="1.32"/>
  <rect class="cls-1" x="722.63" y="503.18" width="1.32" height="1.32"/>
  <rect class="cls-1" x="727.91" y="503.18" width="1.32" height="1.32"/>
  <rect class="cls-1" x="725.27" y="505.82" width="1.32" height="1.32"/>
  <rect class="cls-1" x="716.03" y="532.22" width="2.64" height="1.32"/>
  <rect class="cls-1" x="714.71" y="530.9" width="1.32" height="1.32"/>
  <rect class="cls-1" x="716.03" y="536.18" width="1.32" height="1.32"/>
  <rect class="cls-1" x="718.67" y="534.86" width="2.64" height="1.32"/>
  <rect class="cls-1" x="722.63" y="533.54" width="1.32" height="1.32"/>
  <rect class="cls-1" x="725.27" y="530.9" width="1.32" height="1.32"/>
  <rect class="cls-1" x="727.91" y="529.58" width="1.32" height="1.32"/>
  <rect class="cls-1" x="731.87" y="524.3" width="1.32" height="1.32"/>
  <rect class="cls-1" x="716.03" y="538.82" width="3.96" height="1.32"/>
  <rect class="cls-1" x="714.71" y="541.46" width="1.32" height="1.32"/>
  <rect class="cls-1" x="719.99" y="537.5" width="1.32" height="1.32"/>
  <rect class="cls-1" x="725.27" y="537.5" width="2.64" height="1.32"/>
  <rect class="cls-1" x="723.95" y="540.14" width="1.32" height="1.32"/>
  <rect class="cls-1" x="719.99" y="542.78" width="1.32" height="1.32"/>
  <rect class="cls-1" x="716.03" y="545.42" width="1.32" height="1.32"/>
  <rect class="cls-1" x="718.67" y="544.1" width="1.32" height="1.32"/>
  <rect class="cls-1" x="730.55" y="536.18" width="1.32" height="1.32"/>
  <rect class="cls-1" x="733.19" y="533.54" width="1.32" height="1.32"/>
  <rect class="cls-1" x="727.91" y="533.54" width="1.32" height="1.32"/>
  <rect class="cls-1" x="725.27" y="534.86" width="1.32" height="1.32"/>
  <rect class="cls-1" x="722.63" y="537.5" width="1.32" height="1.32"/>
  <rect class="cls-1" x="722.63" y="541.46" width="1.32" height="1.32"/>
  <rect class="cls-1" x="717.35" y="541.46" width="1.32" height="1.32"/>
  <rect class="cls-1" x="739.79" y="529.58" width="1.32" height="1.32"/>
  <rect class="cls-1" x="737.15" y="532.22" width="1.32" height="1.32"/>
  <rect class="cls-1" x="747.71" y="519.02" width="1.32" height="1.32"/>
  <rect class="cls-1" x="750.35" y="516.38" width="1.32" height="1.32"/>
  <rect class="cls-1" x="751.67" y="512.42" width="1.32" height="1.32"/>
  <rect class="cls-1" x="739.79" y="509.78" width="1.32" height="1.32"/>
  <rect class="cls-1" x="745.07" y="500.54" width="1.32" height="1.32"/>
  <rect class="cls-1" x="755.63" y="492.62" width="1.32" height="1.32"/>
  <rect class="cls-1" x="762.23" y="496.58" width="1.32" height="1.32"/>
  <rect class="cls-1" x="756.95" y="500.54" width="1.32" height="1.32"/>
  <rect class="cls-1" x="738.47" y="500.54" width="1.32" height="1.32"/>
  <rect class="cls-1" x="735.83" y="505.82" width="1.32" height="1.32"/>
  <rect class="cls-1" x="749.03" y="507.14" width="1.32" height="1.32"/>
  <rect class="cls-1" x="743.75" y="505.82" width="1.32" height="1.32"/>
  <rect class="cls-1" x="688.31" y="519.02" width="3.96" height="1.32"/>
  <rect class="cls-1" x="693.59" y="517.7" width="1.32" height="1.32"/>
  <rect class="cls-1" x="697.55" y="515.06" width="1.32" height="1.32"/>
  <rect class="cls-1" x="692.27" y="513.74" width="1.32" height="1.32"/>
  <rect class="cls-1" x="685.67" y="517.7" width="1.32" height="1.32"/>
  <rect class="cls-1" x="683.03" y="519.02" width="1.32" height="1.32"/>
  <rect class="cls-1" x="689.63" y="516.38" width="1.32" height="1.32"/>
  <rect class="cls-1" x="698.87" y="511.1" width="1.32" height="1.32"/>
  <rect class="cls-1" x="704.15" y="509.78" width="2.64" height="1.32"/>
  <rect class="cls-1" x="702.83" y="512.42" width="1.32" height="1.32"/>
  <rect class="cls-1" x="713.39" y="505.82" width="1.32" height="1.32"/>
  <rect class="cls-1" x="709.43" y="507.14" width="1.32" height="1.32"/>
  <rect class="cls-1" x="760.91" y="508.46" width="1.32" height="1.32"/>
  <rect class="cls-1" x="756.95" y="517.7" width="1.32" height="1.32"/>
  <rect class="cls-1" x="747.71" y="525.62" width="1.32" height="1.32"/>
  <rect class="cls-1" x="714.71" y="549.38" width="2.64" height="1.32"/>
  <rect class="cls-1" x="714.71" y="550.7" width="1.32" height="1.32"/>
  <rect class="cls-1" x="719.99" y="546.74" width="1.32" height="1.32"/>
  <rect class="cls-1" x="723.95" y="542.78" width="1.32" height="1.32"/>
  <rect class="cls-1" x="726.59" y="540.14" width="2.64" height="1.32"/>
  <rect class="cls-1" x="729.23" y="538.82" width="1.32" height="1.32"/>
  <rect class="cls-1" x="742.43" y="526.94" width="1.32" height="1.32"/>
  <rect class="cls-1" x="743.75" y="519.02" width="1.32" height="1.32"/>
  <rect class="cls-1" x="754.31" y="508.46" width="1.32" height="1.32"/>
  <rect class="cls-1" x="770.15" y="500.54" width="1.32" height="1.32"/>
  <rect class="cls-1" x="776.75" y="495.26" width="1.32" height="1.32"/>
  <rect class="cls-1" x="774.11" y="492.62" width="1.32" height="1.32"/>
  <rect class="cls-1" x="680.39" y="546.74" width="1.32" height="1.32"/>
  <rect class="cls-1" x="686.99" y="554.66" width="1.32" height="1.32"/>
  <rect class="cls-1" x="681.71" y="554.66" width="1.32" height="1.32"/>
  <rect class="cls-1" x="679.07" y="552.02" width="1.32" height="1.32"/>
  <rect class="cls-1" x="679.07" y="542.78" width="1.32" height="1.32"/>
  <rect class="cls-1" x="680.39" y="536.18" width="1.32" height="1.32"/>
  <rect class="cls-1" x="698.87" y="553.34" width="1.32" height="1.32"/>
  <rect class="cls-1" x="679.07" y="555.98" width="1.32" height="1.32"/>
  <rect class="cls-1" x="702.83" y="553.34" width="1.32" height="1.32"/>
  <rect class="cls-1" x="692.27" y="554.66" width="1.32" height="1.32"/>
  <rect class="cls-1" x="683.03" y="553.34" width="2.64" height="1.32"/>
  <rect class="cls-1" x="684.35" y="519.02" width="1.32" height="1.32"/>
  <rect class="cls-1" x="680.39" y="522.98" width="1.32" height="5.28"/>
  <rect class="cls-1" x="679.07" y="530.9" width="1.32" height="1.32"/>
  <rect class="cls-1" x="680.39" y="533.54" width="1.32" height="1.32"/>
  <rect class="cls-1" x="712.07" y="553.34" width="1.32" height="1.32"/>
  <rect class="cls-1" x="704.15" y="553.34" width="1.32" height="1.32"/>
  <rect class="cls-1" x="689.63" y="553.34" width="1.32" height="1.32"/>
  <rect class="cls-1" x="693.59" y="553.34" width="3.96" height="1.32"/>
  <rect class="cls-1" x="679.07" y="524.3" width="1.32" height="2.64"/>
  <rect class="cls-1" x="680.39" y="521.66" width="1.32" height="1.32"/>
  <rect class="cls-1" x="680.39" y="541.46" width="1.32" height="1.32"/>
  <rect class="cls-1" x="722.63" y="525.62" width="1.32" height="1.32"/>
  <rect class="cls-1" x="725.27" y="522.98" width="1.32" height="1.32"/>
  <rect class="cls-1" x="714.71" y="524.3" width="2.64" height="1.32"/>
  <rect class="cls-1" x="714.71" y="525.62" width="1.32" height="1.32"/>
  <rect class="cls-1" x="714.71" y="519.02" width="1.32" height="1.32"/>
  <rect class="cls-1" x="716.03" y="517.7" width="1.32" height="1.32"/>
  <rect class="cls-1" x="709.43" y="519.02" width="2.64" height="1.32"/>
  <rect class="cls-1" x="712.07" y="517.7" width="1.32" height="1.32"/>
  <rect class="cls-1" x="716.03" y="516.38" width="1.32" height="1.32"/>
  <rect class="cls-1" x="718.67" y="524.3" width="2.64" height="1.32"/>
  <rect class="cls-1" x="719.99" y="532.22" width="3.96" height="1.32"/>
  <rect class="cls-1" x="714.71" y="542.78" width="1.32" height="3.96"/>
  <rect class="cls-1" x="716.03" y="540.14" width="1.32" height="1.32"/>
  <rect class="cls-1" x="714.71" y="534.86" width="1.32" height="3.96"/>
</svg>