<?xml version="1.0" encoding="UTF-8"?>
<svg id="Layer_25" data-name="Layer 25" xmlns="http://www.w3.org/2000/svg" width="588.83mm" height="298.73mm" viewBox="0 0 1669.12 846.8">
  <defs>
    <style>
      .cls-1 {
        fill: #fff;
      }
    </style>
  </defs>
  <rect class="cls-1" x="699.82" y="504.6" width="2" height="2"/>
  <rect class="cls-1" x="705.82" y="504.6" width="2" height="2"/>
  <rect class="cls-1" x="711.82" y="504.6" width="2" height="2"/>
  <rect class="cls-1" x="699.82" y="506.6" width="2" height="2"/>
  <rect class="cls-1" x="703.82" y="506.6" width="2" height="2"/>
  <rect class="cls-1" x="705.82" y="506.6" width="2" height="2"/>
  <rect class="cls-1" x="707.82" y="506.6" width="2" height="2"/>
  <rect class="cls-1" x="709.82" y="506.6" width="2" height="2"/>
  <rect class="cls-1" x="695.82" y="508.6" width="2" height="2"/>
  <rect class="cls-1" x="697.82" y="508.6" width="2" height="2"/>
  <rect class="cls-1" x="699.82" y="508.6" width="2" height="2"/>
  <rect class="cls-1" x="703.82" y="508.6" width="2" height="2"/>
  <rect class="cls-1" x="707.82" y="508.6" width="2" height="2"/>
  <rect class="cls-1" x="711.82" y="508.6" width="2" height="2"/>
  <rect class="cls-1" x="695.82" y="510.6" width="2" height="2"/>
  <rect class="cls-1" x="701.82" y="510.6" width="2" height="2"/>
  <rect class="cls-1" x="703.82" y="510.6" width="2" height="2"/>
  <rect class="cls-1" x="705.82" y="510.6" width="2" height="2"/>
  <rect class="cls-1" x="707.82" y="510.6" width="2" height="2"/>
  <rect class="cls-1" x="695.82" y="512.6" width="2" height="2"/>
  <rect class="cls-1" x="697.82" y="512.6" width="2" height="2"/>
  <rect class="cls-1" x="701.82" y="512.6" width="2" height="2"/>
  <rect class="cls-1" x="703.82" y="512.6" width="2" height="2"/>
  <rect class="cls-1" x="707.82" y="512.6" width="2" height="2"/>
  <rect class="cls-1" x="695.82" y="514.6" width="2" height="2"/>
  <rect class="cls-1" x="705.82" y="514.6" width="2" height="2"/>
  <rect class="cls-1" x="709.82" y="514.6" width="2" height="2"/>
  <rect class="cls-1" x="711.82" y="514.6" width="2" height="2"/>
  <rect class="cls-1" x="695.82" y="516.6" width="2" height="2"/>
  <rect class="cls-1" x="699.82" y="516.6" width="2" height="2"/>
  <rect class="cls-1" x="703.82" y="516.6" width="2" height="2"/>
  <rect class="cls-1" x="707.82" y="516.6" width="2" height="2"/>
  <rect class="cls-1" x="711.82" y="516.6" width="2" height="2"/>
  <rect class="cls-1" x="695.82" y="518.6" width="2" height="2"/>
  <rect class="cls-1" x="697.82" y="518.6" width="2" height="2"/>
  <rect class="cls-1" x="699.82" y="518.6" width="2" height="2"/>
  <rect class="cls-1" x="679.82" y="520.6" width="2" height="2"/>
  <rect class="cls-1" x="683.82" y="520.6" width="2" height="2"/>
  <rect class="cls-1" x="685.82" y="520.6" width="2" height="2"/>
  <rect class="cls-1" x="687.82" y="520.6" width="2" height="2"/>
  <rect class="cls-1" x="689.82" y="520.6" width="2" height="2"/>
  <rect class="cls-1" x="691.82" y="520.6" width="2" height="2"/>
  <rect class="cls-1" x="701.82" y="520.6" width="2" height="2"/>
  <rect class="cls-1" x="705.82" y="520.6" width="2" height="2"/>
  <rect class="cls-1" x="707.82" y="520.6" width="2" height="2"/>
  <rect class="cls-1" x="709.82" y="520.6" width="2" height="2"/>
  <rect class="cls-1" x="711.82" y="520.6" width="2" height="2"/>
  <rect class="cls-1" x="715.82" y="520.6" width="2" height="2"/>
  <rect class="cls-1" x="717.82" y="520.6" width="2" height="2"/>
  <rect class="cls-1" x="719.82" y="520.6" width="2" height="2"/>
  <rect class="cls-1" x="721.82" y="520.6" width="2" height="2"/>
  <rect class="cls-1" x="723.82" y="520.6" width="2" height="2"/>
  <rect class="cls-1" x="681.82" y="522.6" width="2" height="2"/>
  <rect class="cls-1" x="683.82" y="522.6" width="2" height="2"/>
  <rect class="cls-1" x="687.82" y="522.6" width="2" height="2"/>
  <rect class="cls-1" x="689.82" y="522.6" width="2" height="2"/>
  <rect class="cls-1" x="695.82" y="522.6" width="2" height="2"/>
  <rect class="cls-1" x="697.82" y="522.6" width="2" height="2"/>
  <rect class="cls-1" x="701.82" y="522.6" width="2" height="2"/>
  <rect class="cls-1" x="711.82" y="522.6" width="2" height="2"/>
  <rect class="cls-1" x="713.82" y="522.6" width="2" height="2"/>
  <rect class="cls-1" x="717.82" y="522.6" width="2" height="2"/>
  <rect class="cls-1" x="725.82" y="522.6" width="2" height="2"/>
  <rect class="cls-1" x="683.82" y="524.6" width="2" height="2"/>
  <rect class="cls-1" x="685.82" y="524.6" width="2" height="2"/>
  <rect class="cls-1" x="687.82" y="524.6" width="2" height="2"/>
  <rect class="cls-1" x="691.82" y="524.6" width="2" height="2"/>
  <rect class="cls-1" x="693.82" y="524.6" width="2" height="2"/>
  <rect class="cls-1" x="695.82" y="524.6" width="2" height="2"/>
  <rect class="cls-1" x="705.82" y="524.6" width="2" height="2"/>
  <rect class="cls-1" x="707.82" y="524.6" width="2" height="2"/>
  <rect class="cls-1" x="709.82" y="524.6" width="2" height="2"/>
  <rect class="cls-1" x="711.82" y="524.6" width="2" height="2"/>
  <rect class="cls-1" x="713.82" y="524.6" width="2" height="2"/>
  <rect class="cls-1" x="715.82" y="524.6" width="2" height="2"/>
  <rect class="cls-1" x="717.82" y="524.6" width="2" height="2"/>
  <rect class="cls-1" x="719.82" y="524.6" width="2" height="2"/>
  <rect class="cls-1" x="721.82" y="524.6" width="2" height="2"/>
  <rect class="cls-1" x="725.82" y="524.6" width="2" height="2"/>
  <rect class="cls-1" x="727.82" y="524.6" width="2" height="2"/>
  <rect class="cls-1" x="679.82" y="526.6" width="2" height="2"/>
  <rect class="cls-1" x="683.82" y="526.6" width="2" height="2"/>
  <rect class="cls-1" x="685.82" y="526.6" width="2" height="2"/>
  <rect class="cls-1" x="693.82" y="526.6" width="2" height="2"/>
  <rect class="cls-1" x="695.82" y="526.6" width="2" height="2"/>
  <rect class="cls-1" x="699.82" y="526.6" width="2" height="2"/>
  <rect class="cls-1" x="707.82" y="526.6" width="2" height="2"/>
  <rect class="cls-1" x="709.82" y="526.6" width="2" height="2"/>
  <rect class="cls-1" x="711.82" y="526.6" width="2" height="2"/>
  <rect class="cls-1" x="713.82" y="526.6" width="2" height="2"/>
  <rect class="cls-1" x="717.82" y="526.6" width="2" height="2"/>
  <rect class="cls-1" x="727.82" y="526.6" width="2" height="2"/>
  <rect class="cls-1" x="681.82" y="528.6" width="2" height="2"/>
  <rect class="cls-1" x="683.82" y="528.6" width="2" height="2"/>
  <rect class="cls-1" x="687.82" y="528.6" width="2" height="2"/>
  <rect class="cls-1" x="691.82" y="528.6" width="2" height="2"/>
  <rect class="cls-1" x="697.82" y="528.6" width="2" height="2"/>
  <rect class="cls-1" x="699.82" y="528.6" width="2" height="2"/>
  <rect class="cls-1" x="701.82" y="528.6" width="2" height="2"/>
  <rect class="cls-1" x="703.82" y="528.6" width="2" height="2"/>
  <rect class="cls-1" x="705.82" y="528.6" width="2" height="2"/>
  <rect class="cls-1" x="713.82" y="528.6" width="2" height="2"/>
  <rect class="cls-1" x="715.82" y="528.6" width="2" height="2"/>
  <rect class="cls-1" x="717.82" y="528.6" width="2" height="2"/>
  <rect class="cls-1" x="719.82" y="528.6" width="2" height="2"/>
  <rect class="cls-1" x="723.82" y="528.6" width="2" height="2"/>
  <rect class="cls-1" x="725.82" y="528.6" width="2" height="2"/>
  <rect class="cls-1" x="727.82" y="528.6" width="2" height="2"/>
  <rect class="cls-1" x="679.82" y="530.6" width="2" height="2"/>
  <rect class="cls-1" x="683.82" y="530.6" width="2" height="2"/>
  <rect class="cls-1" x="687.82" y="530.6" width="2" height="2"/>
  <rect class="cls-1" x="689.82" y="530.6" width="2" height="2"/>
  <rect class="cls-1" x="693.82" y="530.6" width="2" height="2"/>
  <rect class="cls-1" x="699.82" y="530.6" width="2" height="2"/>
  <rect class="cls-1" x="705.82" y="530.6" width="2" height="2"/>
  <rect class="cls-1" x="711.82" y="530.6" width="2" height="2"/>
  <rect class="cls-1" x="713.82" y="530.6" width="2" height="2"/>
  <rect class="cls-1" x="717.82" y="530.6" width="2" height="2"/>
  <rect class="cls-1" x="721.82" y="530.6" width="2" height="2"/>
  <rect class="cls-1" x="725.82" y="530.6" width="2" height="2"/>
  <rect class="cls-1" x="679.82" y="532.6" width="2" height="2"/>
  <rect class="cls-1" x="687.82" y="532.6" width="2" height="2"/>
  <rect class="cls-1" x="689.82" y="532.6" width="2" height="2"/>
  <rect class="cls-1" x="691.82" y="532.6" width="2" height="2"/>
  <rect class="cls-1" x="701.82" y="532.6" width="2" height="2"/>
  <rect class="cls-1" x="703.82" y="532.6" width="2" height="2"/>
  <rect class="cls-1" x="705.82" y="532.6" width="2" height="2"/>
  <rect class="cls-1" x="707.82" y="532.6" width="2" height="2"/>
  <rect class="cls-1" x="709.82" y="532.6" width="2" height="2"/>
  <rect class="cls-1" x="711.82" y="532.6" width="2" height="2"/>
  <rect class="cls-1" x="713.82" y="532.6" width="2" height="2"/>
  <rect class="cls-1" x="715.82" y="532.6" width="2" height="2"/>
  <rect class="cls-1" x="717.82" y="532.6" width="2" height="2"/>
  <rect class="cls-1" x="719.82" y="532.6" width="2" height="2"/>
  <rect class="cls-1" x="721.82" y="532.6" width="2" height="2"/>
  <rect class="cls-1" x="725.82" y="532.6" width="2" height="2"/>
  <rect class="cls-1" x="727.82" y="532.6" width="2" height="2"/>
  <rect class="cls-1" x="679.82" y="534.6" width="2" height="2"/>
  <rect class="cls-1" x="683.82" y="534.6" width="2" height="2"/>
  <rect class="cls-1" x="685.82" y="534.6" width="2" height="2"/>
  <rect class="cls-1" x="687.82" y="534.6" width="2" height="2"/>
  <rect class="cls-1" x="689.82" y="534.6" width="2" height="2"/>
  <rect class="cls-1" x="697.82" y="534.6" width="2" height="2"/>
  <rect class="cls-1" x="699.82" y="534.6" width="2" height="2"/>
  <rect class="cls-1" x="701.82" y="534.6" width="2" height="2"/>
  <rect class="cls-1" x="707.82" y="534.6" width="2" height="2"/>
  <rect class="cls-1" x="713.82" y="534.6" width="2" height="2"/>
  <rect class="cls-1" x="717.82" y="534.6" width="2" height="2"/>
  <rect class="cls-1" x="719.82" y="534.6" width="2" height="2"/>
  <rect class="cls-1" x="727.82" y="534.6" width="2" height="2"/>
  <rect class="cls-1" x="679.82" y="536.6" width="2" height="2"/>
  <rect class="cls-1" x="683.82" y="536.6" width="2" height="2"/>
  <rect class="cls-1" x="687.82" y="536.6" width="2" height="2"/>
  <rect class="cls-1" x="691.82" y="536.6" width="2" height="2"/>
  <rect class="cls-1" x="693.82" y="536.6" width="2" height="2"/>
  <rect class="cls-1" x="697.82" y="536.6" width="2" height="2"/>
  <rect class="cls-1" x="699.82" y="536.6" width="2" height="2"/>
  <rect class="cls-1" x="701.82" y="536.6" width="2" height="2"/>
  <rect class="cls-1" x="711.82" y="536.6" width="2" height="2"/>
  <rect class="cls-1" x="713.82" y="536.6" width="2" height="2"/>
  <rect class="cls-1" x="715.82" y="536.6" width="2" height="2"/>
  <rect class="cls-1" x="717.82" y="536.6" width="2" height="2"/>
  <rect class="cls-1" x="719.82" y="536.6" width="2" height="2"/>
  <rect class="cls-1" x="723.82" y="536.6" width="2" height="2"/>
  <rect class="cls-1" x="695.82" y="538.6" width="2" height="2"/>
  <rect class="cls-1" x="697.82" y="538.6" width="2" height="2"/>
  <rect class="cls-1" x="703.82" y="538.6" width="2" height="2"/>
  <rect class="cls-1" x="705.82" y="538.6" width="2" height="2"/>
  <rect class="cls-1" x="709.82" y="538.6" width="2" height="2"/>
  <rect class="cls-1" x="711.82" y="538.6" width="2" height="2"/>
  <rect class="cls-1" x="719.82" y="538.6" width="2" height="2"/>
  <rect class="cls-1" x="721.82" y="538.6" width="2" height="2"/>
  <rect class="cls-1" x="699.82" y="540.6" width="2" height="2"/>
  <rect class="cls-1" x="705.82" y="540.6" width="2" height="2"/>
  <rect class="cls-1" x="707.82" y="540.6" width="2" height="2"/>
  <rect class="cls-1" x="711.82" y="540.6" width="2" height="2"/>
  <rect class="cls-1" x="715.82" y="540.6" width="2" height="2"/>
  <rect class="cls-1" x="719.82" y="540.6" width="2" height="2"/>
  <rect class="cls-1" x="723.82" y="540.6" width="2" height="2"/>
  <rect class="cls-1" x="725.82" y="540.6" width="2" height="2"/>
  <rect class="cls-1" x="727.82" y="540.6" width="2" height="2"/>
  <rect class="cls-1" x="695.82" y="542.6" width="2" height="2"/>
  <rect class="cls-1" x="699.82" y="542.6" width="2" height="2"/>
  <rect class="cls-1" x="703.82" y="542.6" width="2" height="2"/>
  <rect class="cls-1" x="705.82" y="542.6" width="2" height="2"/>
  <rect class="cls-1" x="711.82" y="542.6" width="2" height="2"/>
  <rect class="cls-1" x="719.82" y="542.6" width="2" height="2"/>
  <rect class="cls-1" x="721.82" y="542.6" width="2" height="2"/>
  <rect class="cls-1" x="725.82" y="542.6" width="2" height="2"/>
  <rect class="cls-1" x="727.82" y="542.6" width="2" height="2"/>
  <rect class="cls-1" x="695.82" y="544.6" width="2" height="2"/>
  <rect class="cls-1" x="697.82" y="544.6" width="2" height="2"/>
  <rect class="cls-1" x="699.82" y="544.6" width="2" height="2"/>
  <rect class="cls-1" x="703.82" y="544.6" width="2" height="2"/>
  <rect class="cls-1" x="707.82" y="544.6" width="2" height="2"/>
  <rect class="cls-1" x="709.82" y="544.6" width="2" height="2"/>
  <rect class="cls-1" x="711.82" y="544.6" width="2" height="2"/>
  <rect class="cls-1" x="713.82" y="544.6" width="2" height="2"/>
  <rect class="cls-1" x="715.82" y="544.6" width="2" height="2"/>
  <rect class="cls-1" x="717.82" y="544.6" width="2" height="2"/>
  <rect class="cls-1" x="719.82" y="544.6" width="2" height="2"/>
  <rect class="cls-1" x="723.82" y="544.6" width="2" height="2"/>
  <rect class="cls-1" x="725.82" y="544.6" width="2" height="2"/>
  <rect class="cls-1" x="727.82" y="544.6" width="2" height="2"/>
  <rect class="cls-1" x="695.82" y="546.6" width="2" height="2"/>
  <rect class="cls-1" x="697.82" y="546.6" width="2" height="2"/>
  <rect class="cls-1" x="699.82" y="546.6" width="2" height="2"/>
  <rect class="cls-1" x="709.82" y="546.6" width="2" height="2"/>
  <rect class="cls-1" x="715.82" y="546.6" width="2" height="2"/>
  <rect class="cls-1" x="719.82" y="546.6" width="2" height="2"/>
  <rect class="cls-1" x="721.82" y="546.6" width="2" height="2"/>
  <rect class="cls-1" x="723.82" y="546.6" width="2" height="2"/>
  <rect class="cls-1" x="725.82" y="546.6" width="2" height="2"/>
  <rect class="cls-1" x="727.82" y="546.6" width="2" height="2"/>
  <rect class="cls-1" x="695.82" y="548.6" width="2" height="2"/>
  <rect class="cls-1" x="699.82" y="548.6" width="2" height="2"/>
  <rect class="cls-1" x="701.82" y="548.6" width="2" height="2"/>
  <rect class="cls-1" x="703.82" y="548.6" width="2" height="2"/>
  <rect class="cls-1" x="721.82" y="548.6" width="2" height="2"/>
  <rect class="cls-1" x="723.82" y="548.6" width="2" height="2"/>
  <rect class="cls-1" x="727.82" y="548.6" width="2" height="2"/>
  <rect class="cls-1" x="697.82" y="550.6" width="2" height="2"/>
  <rect class="cls-1" x="699.82" y="550.6" width="2" height="2"/>
  <rect class="cls-1" x="701.82" y="550.6" width="2" height="2"/>
  <rect class="cls-1" x="707.82" y="550.6" width="2" height="2"/>
  <rect class="cls-1" x="709.82" y="550.6" width="2" height="2"/>
  <rect class="cls-1" x="711.82" y="550.6" width="2" height="2"/>
  <rect class="cls-1" x="713.82" y="550.6" width="2" height="2"/>
  <rect class="cls-1" x="717.82" y="550.6" width="2" height="2"/>
  <rect class="cls-1" x="719.82" y="550.6" width="2" height="2"/>
  <rect class="cls-1" x="721.82" y="550.6" width="2" height="2"/>
  <rect class="cls-1" x="727.82" y="550.6" width="2" height="2"/>
  <rect class="cls-1" x="695.82" y="552.6" width="2" height="2"/>
  <rect class="cls-1" x="699.82" y="552.6" width="2" height="2"/>
  <rect class="cls-1" x="701.82" y="552.6" width="2" height="2"/>
  <rect class="cls-1" x="717.82" y="552.6" width="2" height="2"/>
  <rect class="cls-1" x="719.82" y="552.6" width="2" height="2"/>
  <rect class="cls-1" x="721.82" y="552.6" width="2" height="2"/>
  <rect class="cls-1" x="723.82" y="552.6" width="2" height="2"/>
  <rect class="cls-1" x="725.82" y="552.6" width="2" height="2"/>
  <rect class="cls-1" x="727.82" y="552.6" width="2" height="2"/>
  <path class="cls-1" d="M691.72,504.6h-11.9v14h14v-14h-2.1Zm0,11.9h-9.8v-9.8h9.8v9.8Z"/>
  <path class="cls-1" d="M727.72,504.6h-11.9v14h14v-14h-2.1Zm0,11.9h-9.8v-9.8h9.8v9.8Z"/>
  <path class="cls-1" d="M691.72,540.6h-11.9v14h14v-14h-2.1Zm0,11.9h-9.8v-9.8h9.8v9.8Z"/>
  <rect class="cls-1" x="683.82" y="508.6" width="6" height="6"/>
  <rect class="cls-1" x="719.82" y="508.6" width="6" height="6"/>
  <rect class="cls-1" x="683.82" y="544.6" width="6" height="6"/>
</svg>