0
SECTION
2
HEADER
9
$INSUNITS
70
4
9
$ACADVER
1
AC1014
9
$HANDSEED
5
FFFF
0
ENDSEC
0
SECTION
2
TABLES
0
TABLE
2
VPORT
5
8
100
AcDbSymbolTable
0
ENDTAB
0
TABLE
2
LTYPE
5
5
100
AcDbSymbolTable
0
LTYPE
5
14
100
AcDbSymbolTableRecord
100
AcDbLinetypeTableRecord
2
BYBLOCK
70
0
0
LTYPE
5
15
100
AcDbSymbolTableRecord
100
AcDbLinetypeTableRecord
2
BYLAYER
70
0
0
ENDTAB
0
TABLE
2
LAYER
5
2
100
AcDbSymbolTable
70
2
0
LAYER
5
50
100
AcDbSymbolTableRecord
100
AcDbLayerTableRecord
2
0
70
0
6
CONTINUOUS
0
ENDTAB
0
TABLE
2
STYLE
5
3
100
AcDbSymbolTable
70
1
0
STYLE
5
11
100
AcDbSymbolTableRecord
100
AcDbTextStyleTableRecord
2
STANDARD
70
0
0
ENDTAB
0
TABLE
2
VIEW
5
6
100
AcDbSymbolTable
70
0
0
ENDTAB
0
TABLE
2
UCS
5
7
100
AcDbSymbolTable
70
0
0
ENDTAB
0
TABLE
2
APPID
5
9
100
AcDbSymbolTable
70
2
0
APPID
5
12
100
AcDbSymbolTableRecord
100
AcDbRegAppTableRecord
2
ACAD
70
0
0
ENDTAB
0
TABLE
2
DIMSTYLE
5
A
100
AcDbSymbolTable
70
1
0
ENDTAB
0
TABLE
2
BLOCK_RECORD
5
1
100
AcDbSymbolTable
70
1
0
BLOCK_RECORD
5
1F
100
AcDbSymbolTableRecord
100
AcDbBlockTableRecord
2
*MODEL_SPACE
0
BLOCK_RECORD
5
1B
100
AcDbSymbolTableRecord
100
AcDbBlockTableRecord
2
*PAPER_SPACE
0
ENDTAB
0
ENDSEC
0
SECTION
2
BLOCKS
0
BLOCK
5
20
100
AcDbEntity
100
AcDbBlockBegin
2
*MODEL_SPACE
0
ENDBLK
5
21
100
AcDbEntity
100
AcDbBlockEnd
0
BLOCK
5
1C
100
AcDbEntity
100
AcDbBlockBegin
2
*PAPER_SPACE
0
ENDBLK
5
1D
100
AcDbEntity
100
AcDbBlockEnd
0
ENDSEC
0
SECTION
2
ENTITIES
0
LWPOLYLINE
5
100
100
AcDbEntity
8
0
100
AcDbPolyline
90
8
70
1
43
0.0
10
-6.3000000000839398
20
-7.5247231749721983
10
6.299999999916059
20
-7.5247231749721983
42
0.41421356237309176
10
6.49999999991606
20
-7.324723174972199
10
6.49999999991606
20
27.275276825027799
42
0.41421356237309992
10
6.2999999999160607
20
27.475276825027805
10
-6.3000000000839407
20
27.475276825027805
42
0.41421356237309509
10
-6.5000000000839409
20
27.275276825027802
10
-6.5000000000839409
20
-7.324723174972199
42
0.41421356237309509
0
LWPOLYLINE
5
101
100
AcDbEntity
8
0
100
AcDbPolyline
90
8
70
1
43
0.0
10
-92.799999833975008
20
88.183843048023277
10
-93.899999833958404
20
88.183843048023306
42
0.41421356237304296
10
-94.09999983397131
20
87.983843048010399
10
-94.09999983397131
20
85.383843048019159
42
0.41421356237293888
10
-93.899999833975386
20
85.183843048023235
10
-92.79999983397127
20
85.183843048023235
42
0.414213562373069
10
-92.599999833971353
20
85.383843048023081
10
-92.599999833971339
20
87.98384304801948
42
0.41421356237317308
0
LWPOLYLINE
5
102
100
AcDbEntity
8
0
100
AcDbPolyline
90
8
70
1
43
0.0
10
-90.399999833969815
20
85.183843048029331
10
-89.299999833971313
20
85.183843048029303
42
0.414213562373069
10
-89.099999833971353
20
85.383843048029291
10
-89.099999833971353
20
87.983843048029826
42
0.414213562373069
10
-89.299999833970844
20
88.183843048029345
10
-90.399999833971535
20
88.18384304802936
42
0.41421356237335516
10
-90.599999833971708
20
87.983843048029257
10
-90.599999833971353
20
85.38384304803094
42
0.414213562373069
0
LWPOLYLINE
5
103
100
AcDbEntity
8
0
100
AcDbPolyline
90
8
70
1
43
0.0
10
-95.099999833970926
20
82.983843048023516
10
-95.099999833969648
20
81.883843048020012
42
0.41421356237265278
10
-94.899999833972615
20
81.683843048023277
10
-88.299999833969906
20
81.683843048023164
42
0.41421356237280893
10
-88.099999833970898
20
81.883843048022072
10
-88.099999833969761
20
82.983843048021271
42
0.41421356237338125
10
-88.299999833971526
20
83.183843048023249
10
-94.899999833971322
20
83.183843048023334
42
0.41421356237348528
0
LWPOLYLINE
5
104
100
AcDbEntity
8
0
100
AcDbPolyline
90
8
70
1
43
0.0
10
95.099999833970855
20
82.983843048023473
42
0.41421356237332918
10
94.89999983397135
20
83.183843048023249
10
88.299999833971569
20
83.183843048023249
42
0.41421356237338125
10
88.099999833969832
20
82.983843048021257
10
88.099999833970926
20
81.883843048022058
42
0.41421356237283485
10
88.299999833969949
20
81.68384304802322
10
94.899999833972686
20
81.683843048023249
42
0.41421356237275686
10
95.099999833969676
20
81.883843048020069
0
LWPOLYLINE
5
105
100
AcDbEntity
8
0
100
AcDbPolyline
90
8
70
1
43
0.0
10
90.399999833969844
20
85.183843048029303
42
0.414213562373069
10
90.599999833971395
20
85.383843048030911
10
90.599999833971751
20
87.983843048029243
42
0.41421356237335516
10
90.399999833971577
20
88.183843048029345
10
89.299999833970887
20
88.183843048029331
42
0.414213562373069
10
89.099999833971395
20
87.983843048029811
10
89.099999833971395
20
85.383843048029263
42
0.414213562373069
10
89.299999833971356
20
85.183843048029289
0
LWPOLYLINE
5
106
100
AcDbEntity
8
0
100
AcDbPolyline
90
8
70
1
43
0.0
10
92.799999833975036
20
88.183843048023249
42
0.41421356237317308
10
92.599999833971367
20
87.983843048019452
10
92.599999833971381
20
85.383843048023067
42
0.414213562373069
10
92.799999833971313
20
85.18384304802322
10
93.899999833975428
20
85.18384304802322
42
0.41421356237293888
10
94.099999833971353
20
85.383843048019145
10
94.099999833971353
20
87.983843048010385
42
0.41421356237304296
10
93.899999833958447
20
88.183843048023292
0
LWPOLYLINE
5
107
100
AcDbEntity
8
0
100
AcDbPolyline
90
8
70
1
43
0.0
10
3.5000000000006892
20
82.983832847337197
42
0.41421356237330315
10
3.3000000000012086
20
83.183832847337015
10
-3.2999999999988106
20
83.183832847336973
42
0.41421356237338125
10
-3.5000000000005649
20
82.983832847334924
10
-3.4999999999994102
20
81.883832847335725
42
0.41421356237273083
10
-3.3000000000004448
20
81.683832847336959
10
3.300000000002381
20
81.683832847336944
42
0.41421356237265278
10
3.4999999999994635
20
81.883832847333693
0
CIRCLE
5
108
100
AcDbEntity
8
0
100
AcDbCircle
10
1.7499999999991189
20
86.683832847336859
30
0
40
0.99999999999999978
210
0
220
0
230
1
0
CIRCLE
5
109
100
AcDbEntity
8
0
100
AcDbCircle
10
-1.7499999999999538
20
86.68383284774832
30
0
40
1
210
0
220
0
230
1
0
LWPOLYLINE
5
110
100
AcDbEntity
8
0
100
AcDbPolyline
90
60
70
1
43
0.0
10
105.99999998918869
20
-9.3851931051014965
10
98.100000000000009
20
-9.3851931051015036
10
98.100000000000009
20
-6.3851931051014965
10
96.599999999999994
20
-6.3851931051014965
10
96.599999999999994
20
-16.385193105101497
10
86.599999999999994
20
-16.385193105101497
10
86.599999999999994
20
-6.3851931051014965
10
85.099999999999994
20
-6.3851931051014965
10
85.099999999999994
20
-9.3851931051015036
10
58.293478242165961
20
-9.3851931050939861
10
20.000000000000004
20
-17.524723174634431
10
6.5000000000000036
20
-17.524723174634431
10
6.5000000000000036
20
-14.524723174634424
10
5
20
-14.524723174634424
10
5
20
-24.524723174634424
10
-5
20
-24.524723174634424
10
-5
20
-14.524723174634424
10
-6.5000000000000036
20
-14.524723174634424
10
-6.5000000000000036
20
-17.524723174634431
10
-20.000000000000004
20
-17.524723174634431
10
-58.293478242165961
20
-9.3851931050939896
10
-85.100000000000023
20
-9.3851931051015036
10
-85.100000000000023
20
-6.3851931051014965
10
-86.599999999999994
20
-6.3851931051014965
10
-86.599999999999994
20
-16.385193105101497
10
-96.599999999999994
20
-16.385193105101497
10
-96.599999999999994
20
-6.3851931051014965
10
-98.099999999999994
20
-6.3851931051014965
10
-98.099999999999994
20
-9.3851931051015036
10
-105.99999998918869
20
-9.3851931051014859
10
-107.99999998918869
20
-7.385193105101493
10
-107.99999998916891
20
83.683843048023903
10
-105.99999998916893
20
85.683843048023903
10
-98.100000000000009
20
85.683843048023903
10
-98.100000000000009
20
82.683843048023888
10
-96.599999999999994
20
82.683843048023888
10
-96.599999999999994
20
92.683843048023888
10
-86.599999999999994
20
92.683843048023888
10
-86.599999999999994
20
82.683843048023888
10
-85.099999999999994
20
82.683843048023888
10
-85.099999999999994
20
85.683843048023903
10
-6.5000000000000036
20
85.683843048023903
10
-6.5000000000000036
20
82.683843048023888
10
-5
20
82.683843048023888
10
-5
20
92.683843048023888
10
5
20
92.683843048023888
10
5
20
82.683843048023888
10
6.5000000000000036
20
82.683843048023888
10
6.5000000000000036
20
85.683843048023903
10
85.099999999999994
20
85.683843048023903
10
85.099999999999994
20
82.683843048023888
10
86.599999999999994
20
82.683843048023888
10
86.599999999999994
20
92.683843048023888
10
96.599999999999994
20
92.683843048023888
10
96.599999999999994
20
82.683843048023888
10
98.100000000000009
20
82.683843048023888
10
98.100000000000009
20
85.683843048023903
10
105.99999998916893
20
85.683843048023903
10
107.99999998916891
20
83.683843048023903
10
107.99999998918869
20
-7.3851931051015027
0
LWPOLYLINE
5
111
100
AcDbEntity
8
0
100
AcDbPolyline
90
20
70
1
43
0.0
10
36.32769707568314
20
17.433926034247417
10
50.864029607529417
20
20.523718895986885
10
53.584533125450065
20
22.138878430405939
10
68.440959341725943
20
24.758467209364294
10
71.445244392127179
20
22.846492858877319
10
86.18064663210842
20
24.395246042372758
10
88.861606099281005
20
22.460051091790074
10
104.99760029988254
20
22.460051091798018
42
-0.99760319290326216
10
105.00000000004158
20
21.460045333270333
10
88.538393878000861
20
21.460045333262237
10
85.905176038485138
20
23.360784636735215
10
71.202730054603151
20
21.815495295333726
10
68.231900694682736
20
23.706177917451292
10
53.938017389485289
20
21.185780631526935
10
51.232974253481167
20
19.579799906506146
10
36.816137807271204
20
16.515406721858245
10
34.101888866651095
20
13.893794109215055
10
18.005011606469981
20
10.472297225547251
42
-0.97415687093335535
10
17.822713612018667
20
11.455889185511792
10
33.613448135058107
20
14.812313421599443
0
LWPOLYLINE
5
112
100
AcDbEntity
8
0
100
AcDbPolyline
90
22
70
1
43
0.0
10
25.142048110686574
20
70.058266953033552
10
22.427799170473612
20
67.436654341404378
10
8.5805529993724665
20
64.493331306716328
10
6.6242577978775943
20
64.077507925074016
42
0.99999999999999989
10
6.8321694886958149
20
63.09936032434031
10
8.7884646901905956
20
63.515183705982601
10
22.916239901999859
20
66.518135029011404
10
25.630488842390168
20
69.139747640667821
10
40.13837487795869
20
72.223494012908546
10
44.16732920460494
20
77.139176239618493
10
58.435121713067069
20
79.654973013163172
10
65.435735142803779
20
77.316721704828879
10
80.133659445575915
20
78.861535798671582
10
88.598050495007143
20
75.260045374788277
10
104.99999999994046
20
75.260045374788248
42
0.99999999999999989
10
104.99999999994046
20
76.260045374788248
10
88.801949350959688
20
76.260045374788291
10
80.286786824944414
20
79.883138414341829
10
65.546862848027473
20
78.333909976866906
10
58.511305310847817
20
80.683832848810226
10
43.628788333134445
20
78.059643565671422
10
39.587331055114646
20
73.128706627474088
0
LWPOLYLINE
5
113
100
AcDbEntity
8
0
100
AcDbPolyline
90
22
70
1
43
0.0
10
-25.142048110686574
20
70.058266953033552
10
-22.427799170473612
20
67.436654341404378
10
-8.5805529993724665
20
64.493331306716328
10
-6.6242577978792792
20
64.077507925074642
42
-0.99999999999999989
10
-6.8321694886958149
20
63.09936032434031
10
-8.7884646901905956
20
63.515183705982601
10
-22.916239901999859
20
66.518135029011418
10
-25.630488842390168
20
69.139747640667821
10
-40.13837487795869
20
72.223494012908546
10
-44.16732920460494
20
77.139176239618493
10
-58.435121713067069
20
79.654973013163172
10
-65.435735142803779
20
77.316721704828879
10
-80.133659445575915
20
78.861535798671582
10
-88.598050495007143
20
75.260045374788277
10
-104.99999999994046
20
75.260045374788263
42
-0.99999999999999989
10
-104.99999999994046
20
76.260045374788234
10
-88.801949350959688
20
76.260045374788277
10
-80.286786824944414
20
79.883138414341843
10
-65.546862848027473
20
78.333909976866906
10
-58.511305310847817
20
80.683832848810226
10
-43.628788333134445
20
78.059643565671422
10
-39.587331055114646
20
73.128706627474088
0
LWPOLYLINE
5
114
100
AcDbEntity
8
0
100
AcDbPolyline
90
20
70
1
43
0.0
10
-53.584533125450065
20
22.138878430405935
10
-68.440959341725943
20
24.758467209364294
10
-71.445244392127179
20
22.846492858877312
10
-86.18064663210842
20
24.395246042372758
10
-88.861606099281005
20
22.460051091790074
10
-104.99760029988255
20
22.460051091798015
42
0.99760319290326216
10
-105.00000000004158
20
21.460045333270337
10
-88.538393878000861
20
21.460045333262237
10
-85.905176038485138
20
23.360784636735215
10
-71.202730054603151
20
21.815495295333722
10
-68.231900694682736
20
23.706177917451292
10
-53.938017389485289
20
21.185780631526931
10
-51.232974253481167
20
19.579799906506139
10
-36.816137807271204
20
16.515406721858241
10
-34.101888866651095
20
13.893794109215047
10
-18.005011606469981
20
10.472297225547251
42
0.97415687093335535
10
-17.822713612018667
20
11.455889185511801
10
-33.613448135058107
20
14.812313421599441
10
-36.32769707568314
20
17.433926034247413
10
-50.864029607529417
20
20.523718895986889
0
CIRCLE
5
115
100
AcDbEntity
8
0
100
AcDbCircle
10
-91.599999999999994
20
90.433843048023888
30
0
40
1.25
210
0
220
0
230
1
0
CIRCLE
5
116
100
AcDbEntity
8
0
100
AcDbCircle
10
-91.599999999999994
20
-14.1351931051015
30
0
40
1.25
210
0
220
0
230
1
0
CIRCLE
5
117
100
AcDbEntity
8
0
100
AcDbCircle
10
0
20
-22.274723174634428
30
0
40
1.25
210
0
220
0
230
1
0
CIRCLE
5
118
100
AcDbEntity
8
0
100
AcDbCircle
10
91.599999999999994
20
-14.1351931051015
30
0
40
1.25
210
0
220
0
230
1
0
CIRCLE
5
119
100
AcDbEntity
8
0
100
AcDbCircle
10
91.599999999999994
20
90.433843048023888
30
0
40
1.25
210
0
220
0
230
1
0
CIRCLE
5
120
100
AcDbEntity
8
0
100
AcDbCircle
10
0
20
90.433843048023888
30
0
40
1.25
210
0
220
0
230
1
0
ENDSEC
0
SECTION
2
OBJECTS
0
DICTIONARY
5
C
100
AcDbDictionary
3
ACAD_GROUP
350
D
3
ACAD_MLINESTYLE
350
17
0
DICTIONARY
5
D
100
AcDbDictionary
0
DICTIONARY
5
1A
330
C
100
AcDbDictionary
0
DICTIONARY
5
17
100
AcDbDictionary
0
ENDSEC
0
EOF
