0
SECTION
2
HEADER
9
$INSUNITS
70
4
9
$ACADVER
1
AC1014
9
$HANDSEED
5
FFFF
0
ENDSEC
0
SECTION
2
TABLES
0
TABLE
2
VPORT
5
8
100
AcDbSymbolTable
0
ENDTAB
0
TABLE
2
LTYPE
5
5
100
AcDbSymbolTable
0
LTYPE
5
14
100
AcDbSymbolTableRecord
100
AcDbLinetypeTableRecord
2
BYBLOCK
70
0
0
LTYPE
5
15
100
AcDbSymbolTableRecord
100
AcDbLinetypeTableRecord
2
BYLAYER
70
0
0
ENDTAB
0
TABLE
2
LAYER
5
2
100
AcDbSymbolTable
70
2
0
LAYER
5
50
100
AcDbSymbolTableRecord
100
AcDbLayerTableRecord
2
0
70
0
6
CONTINUOUS
0
ENDTAB
0
TABLE
2
STYLE
5
3
100
AcDbSymbolTable
70
1
0
STYLE
5
11
100
AcDbSymbolTableRecord
100
AcDbTextStyleTableRecord
2
STANDARD
70
0
0
ENDTAB
0
TABLE
2
VIEW
5
6
100
AcDbSymbolTable
70
0
0
ENDTAB
0
TABLE
2
UCS
5
7
100
AcDbSymbolTable
70
0
0
ENDTAB
0
TABLE
2
APPID
5
9
100
AcDbSymbolTable
70
2
0
APPID
5
12
100
AcDbSymbolTableRecord
100
AcDbRegAppTableRecord
2
ACAD
70
0
0
ENDTAB
0
TABLE
2
DIMSTYLE
5
A
100
AcDbSymbolTable
70
1
0
ENDTAB
0
TABLE
2
BLOCK_RECORD
5
1
100
AcDbSymbolTable
70
1
0
BLOCK_RECORD
5
1F
100
AcDbSymbolTableRecord
100
AcDbBlockTableRecord
2
*MODEL_SPACE
0
BLOCK_RECORD
5
1B
100
AcDbSymbolTableRecord
100
AcDbBlockTableRecord
2
*PAPER_SPACE
0
ENDTAB
0
ENDSEC
0
SECTION
2
BLOCKS
0
BLOCK
5
20
100
AcDbEntity
100
AcDbBlockBegin
2
*MODEL_SPACE
0
ENDBLK
5
21
100
AcDbEntity
100
AcDbBlockEnd
0
BLOCK
5
1C
100
AcDbEntity
100
AcDbBlockBegin
2
*PAPER_SPACE
0
ENDBLK
5
1D
100
AcDbEntity
100
AcDbBlockEnd
0
ENDSEC
0
SECTION
2
ENTITIES
0
LWPOLYLINE
5
100
100
AcDbEntity
8
0
100
AcDbPolyline
90
40
70
1
43
0.0
10
-36.370592799072881
20
18.87432063530018
10
-50.371037719342468
20
21.850207069402693
42
-0.23046144468767296
10
-50.716139764644659
20
22.119401332772316
10
-52.741872956896941
20
26.256536997504337
42
0.23967033903619317
10
-53.10410675877457
20
26.529061337013168
10
-67.679261503357296
20
29.099054366483269
42
0.22184630440892131
10
-68.087700781184552
20
28.989486839098383
10
-71.158643207262273
20
26.409633251477423
42
-0.20360281980202358
10
-71.532522627889875
20
26.295208652914518
10
-85.828957857485406
20
27.797824544745286
42
0.2600690528367679
10
-86.276896222427339
20
27.606246406899778
10
-88.989137530056439
20
24.095536304211144
42
-0.23230112625892829
10
-89.384811663364601
20
23.901219114049784
10
-103.19370756076165
20
23.90121911405036
42
0.41421356237308465
10
-103.69370756076164
20
23.401219114050352
10
-103.69370756076164
20
23.40121911404918
42
0.41421356237313667
10
-103.19370756076162
20
22.901219114049173
10
-88.893707560760546
20
22.90121911404977
42
0.23230112625899493
10
-88.498033427452384
20
23.095536304211176
10
-85.826610593752207
20
26.553411200683534
42
-0.26006905283677478
10
-85.378672228810217
20
26.744989338529081
10
-71.214562269306384
20
25.256281393017236
42
0.20360281980224643
10
-70.840682848678426
20
25.370705991580436
10
-67.801778939492891
20
27.923644492148505
42
-0.22184630440918238
10
-67.393339661665294
20
28.033212019533668
10
-53.778581783913992
20
25.632562869873546
42
-0.23967033903620416
10
-53.416347982036392
20
25.360038530364747
10
-51.400191026051232
20
21.242460322037957
42
0.23046144468767482
10
-51.055088980749062
20
20.973266058668358
10
-36.859033530654408
20
17.955801322919736
42
-0.14056478739968734
10
-36.615626399687372
20
17.826364787923477
10
-34.107662680144479
20
15.403996957478148
42
0.14056478739968709
10
-33.864255549177464
20
15.274560422481894
10
-18.409523457582754
20
11.98955570756112
42
0.41421356237309476
10
-17.816493811806971
20
12.374673662519143
10
-17.816493811806975
20
12.374673662519138
42
0.4142135623730917
10
-18.201611766764994
20
12.967703308294919
10
-33.375814817595455
20
16.193079734862231
42
-0.14056478739969017
10
-33.619221948562441
20
16.322516269858465
10
-36.127185668105867
20
18.744884100303949
42
0.14056478739968947
0
LWPOLYLINE
5
101
100
AcDbEntity
8
0
100
AcDbPolyline
90
40
70
1
43
0.0
10
40.182148422862227
20
71.937463823526414
10
43.946608974828621
20
76.576893236051603
42
-0.18057677246881396
10
44.248049697765822
20
76.75425674063581
10
58.823204442347489
20
79.32424977010615
42
-0.12637798336209063
10
59.071251953367664
20
79.305139679887603
10
65.784354105717611
20
77.018379671943237
42
0.1086831703261541
10
65.997841759538176
20
76.994412510546653
10
80.498006230835813
20
78.518441208529254
42
-0.12923198723423623
10
80.749281133994216
20
78.479868338539902
10
88.902283356776778
20
74.942531036355078
42
0.10269852782045098
10
89.101294028301368
20
74.901219114049866
10
103.19370756084928
20
74.901219114050136
42
-0.4142135623730534
10
103.69370756084932
20
74.401219114050136
10
103.69370756084933
20
74.40121911404961
42
-0.41421356237306384
10
103.19370756084929
20
73.901219114049638
10
88.893707560758969
20
73.90121911404988
42
-0.10269852782040399
10
88.69469688923445
20
73.942531036355078
10
80.592395665856316
20
77.457870731823007
42
0.1292319872342392
10
80.341120762697983
20
77.496443601812331
10
65.883610642656919
20
75.976898056799754
42
-0.10868317032617951
10
65.67012298883634
20
76.000865218196338
10
58.99194403371866
20
78.275728941984013
42
0.12637798336203046
10
58.743896522698442
20
78.294839032202589
10
44.789353179931979
20
75.834276537407362
42
0.18057677246882234
10
44.487912456994763
20
75.656913032823141
10
40.735901715404708
20
71.032827124537789
42
-0.17157951772874208
10
40.451592749042923
20
70.858793696092775
10
26.255537298947658
20
67.841328960343318
42
0.14056478739972231
10
26.012130167980636
20
67.711892425347045
10
23.504166448438248
20
65.289524594902034
42
-0.14056478739970171
10
23.260759317471205
20
65.160088059905775
10
7.8060272258769681
20
61.875083344985413
42
-0.41421356237311757
10
7.2129975801011916
20
62.260201299943446
10
7.212997580101189
20
62.260201299943454
42
-0.41421356237309637
10
7.5981155350592235
20
62.853230945719218
10
22.772318585889664
20
66.078607372286214
42
0.14056478739972275
10
23.0157257168567
20
66.208043907282473
10
25.523689436399199
20
68.630411737727542
42
-0.14056478739969444
10
25.76709656736622
20
68.759848272723815
10
39.897839456500435
20
71.763430395081414
42
0.17157951772873251
0
LWPOLYLINE
5
102
100
AcDbEntity
8
0
100
AcDbPolyline
90
40
70
1
43
0.0
10
-7.2129975801012556
20
62.260201299943446
42
0.41421356237310136
10
-7.5981155350592902
20
62.853230945719218
10
-22.772318585889735
20
66.078607372286186
42
-0.14056478739972048
10
-23.015725716856771
20
66.208043907282445
10
-25.52368943639927
20
68.630411737727499
42
0.14056478739969538
10
-25.767096567366291
20
68.759848272723772
10
-39.897839456500513
20
71.763430395081386
42
-0.17157951772873317
10
-40.182148422862298
20
71.937463823526372
10
-43.946608974828706
20
76.576893236051546
42
0.18057677246881759
10
-44.248049697765914
20
76.754256740635753
10
-58.823204442347574
20
79.324249770106107
42
0.12637798336208833
10
-59.071251953367749
20
79.305139679887517
10
-65.784354105717696
20
77.018379671943165
42
-0.10868317032615592
10
-65.997841759538261
20
76.994412510546582
10
-80.49800623083587
20
78.518441208529154
42
0.12923198723423857
10
-80.749281133994288
20
78.479868338539802
10
-88.902283356776849
20
74.942531036354978
42
-0.10269852782045269
10
-89.101294028301439
20
74.901219114049766
10
-103.19370756084935
20
74.901219114050036
42
0.4142135623730534
10
-103.69370756084939
20
74.401219114050022
10
-103.6937075608494
20
74.40121911404951
42
0.41421356237306384
10
-103.19370756084936
20
73.901219114049525
10
-88.89370756075904
20
73.901219114049781
42
0.10269852782040405
10
-88.694696889234521
20
73.942531036354993
10
-80.592395665856387
20
77.457870731822908
42
-0.12923198723423962
10
-80.341120762698054
20
77.496443601812231
10
-65.883610642657004
20
75.976898056799683
42
0.10868317032617947
10
-65.670122988836425
20
76.000865218196267
10
-58.991944033718759
20
78.275728941983957
42
-0.12637798336203335
10
-58.743896522698535
20
78.294839032202518
10
-44.789353179932064
20
75.834276537407305
42
-0.18057677246882151
10
-44.487912456994856
20
75.656913032823084
10
-40.735901715404779
20
71.032827124537746
42
0.17157951772874211
10
-40.451592749042995
20
70.858793696092732
10
-26.255537298947729
20
67.841328960343276
42
-0.14056478739972139
10
-26.012130167980708
20
67.711892425347017
10
-23.504166448438319
20
65.289524594902005
42
0.14056478739969863
10
-23.260759317471276
20
65.160088059905746
10
-7.8060272258770347
20
61.875083344985399
42
0.41421356237312268
10
-7.2129975801012582
20
62.260201299943446
0
ARC
5
103
100
AcDbEntity
8
0
100
AcDbCircle
10
4.8840289437904083
20
85.346551262562556
30
0
40
1.0000000000000395
210
0
220
0
230
1
100
AcDbArc
50
200.00000000000011
51
270
0
ARC
5
104
100
AcDbEntity
8
0
100
AcDbCircle
10
1.2997924617737744
20
89.346551262562059
30
0
40
1.0000000000000011
210
0
220
-0
230
1
100
AcDbArc
50
20.00000000000081
51
90
0
LINE
5
105
100
AcDbEntity
8
0
100
AcDbLine
10
-4.8840289438238411
20
84.346551262561604
30
0
11
-6.1838214056141556
21
84.346551262561604
31
0
0
LINE
5
106
100
AcDbEntity
8
0
100
AcDbLine
10
-2.2394850825927426
20
89.688571405887785
30
0
11
-3.9443363230379456
21
85.004531119235907
31
0
0
LINE
5
107
100
AcDbEntity
8
0
100
AcDbLine
10
1.2997924617737744
20
90.346551262562087
30
0
11
-1.299792461806859
21
90.346551262562087
31
0
0
LINE
5
108
100
AcDbEntity
8
0
100
AcDbLine
10
2.239485082559681
20
89.688571405887743
30
0
11
3.944336323004467
21
85.004531119236873
31
0
0
CIRCLE
5
109
100
AcDbEntity
8
0
100
AcDbCircle
10
-1.7016388298429774e-11
20
88.096551262562087
30
0
40
1.2499999999999989
210
0
220
0
230
1
0
ARC
5
110
100
AcDbEntity
8
0
100
AcDbCircle
10
-4.8840289438238411
20
85.346551262561604
30
0
40
0.99999999999999645
210
-0
220
0
230
1
100
AcDbArc
50
270
51
339.99999999999818
0
LINE
5
111
100
AcDbEntity
8
0
100
AcDbLine
10
4.8840289437904083
20
84.346551262562528
30
0
11
6.1838214055806944
21
84.346551262562528
31
0
0
ARC
5
112
100
AcDbEntity
8
0
100
AcDbCircle
10
-1.299792461806859
20
89.346551262562087
30
0
40
0.99999999999999645
210
0
220
-0
230
1
100
AcDbArc
50
90
51
159.99999999999798
0
LINE
5
113
100
AcDbEntity
8
0
100
AcDbLine
10
92.009886155159251
20
84.346551262561604
30
0
11
6.1838214055806944
21
84.346551262562528
31
0
0
LWPOLYLINE
5
114
100
AcDbEntity
8
0
100
AcDbPolyline
90
40
70
1
43
0.0
10
70.840682848678384
20
25.370705991580508
10
67.801778939492849
20
27.923644492148568
42
0.22184630440918462
10
67.393339661665252
20
28.033212019533735
10
53.778581783913957
20
25.632562869873595
42
0.2396703390362063
10
53.416347982036356
20
25.360038530364797
10
51.400191026051218
20
21.242460322038006
42
-0.23046144468767479
10
51.055088980749048
20
20.973266058668408
10
36.859033530654386
20
17.955801322919779
42
0.14056478739968775
10
36.615626399687351
20
17.826364787923517
10
34.107662680144458
20
15.403996957478183
42
-0.14056478739968653
10
33.864255549177443
20
15.27456042248193
10
18.409523457582743
20
11.98955570756114
42
-0.4142135623730937
10
17.816493811806961
20
12.374673662519157
10
17.816493811806961
20
12.374673662519156
42
-0.41421356237309093
10
18.201611766764984
20
12.967703308294938
10
33.375814817595433
20
16.193079734862266
42
0.14056478739969017
10
33.619221948562419
20
16.3225162698585
10
36.127185668105852
20
18.744884100303992
42
-0.14056478739968833
10
36.37059279907286
20
18.874320635300222
10
50.371037719342446
20
21.850207069402742
42
0.23046144468767457
10
50.716139764644637
20
22.11940133277237
10
52.741872956896913
20
26.256536997504398
42
-0.23967033903619148
10
53.104106758774535
20
26.529061337013225
10
67.679261503357267
20
29.09905436648334
42
-0.22184630440891792
10
68.087700781184509
20
28.989486839098461
10
71.15864320726223
20
26.409633251477509
42
0.20360281980202402
10
71.532522627889833
20
26.295208652914603
10
85.828957857485406
20
27.797824544745385
42
-0.26006905283676762
10
86.276896222427339
20
27.606246406899867
10
88.989137530056439
20
24.095536304211251
42
0.23230112625893209
10
89.384811663364601
20
23.901219114049876
10
103.19370756076165
20
23.901219114050463
42
-0.41421356237307944
10
103.69370756076164
20
23.401219114050463
10
103.69370756076164
20
23.40121911404929
42
-0.41421356237313928
10
103.19370756076162
20
22.901219114049276
10
88.893707560760546
20
22.901219114049873
42
-0.23230112625899499
10
88.498033427452384
20
23.095536304211276
10
85.826610593752207
20
26.553411200683623
42
0.26006905283677456
10
85.378672228810217
20
26.744989338529169
10
71.214562269306342
20
25.256281393017311
42
-0.20360281980224673
0
LINE
5
115
100
AcDbEntity
8
0
100
AcDbLine
10
107.90081434194384
20
-8.0916741047647083
30
0
11
106.48660077957075
21
-9.5058876671378165
31
0
0
LINE
5
116
100
AcDbEntity
8
0
100
AcDbLine
10
103.07773650456383
20
-9.7987808859509329
30
0
11
104.37752896635416
21
-9.7987808859509329
31
0
0
LINE
5
117
100
AcDbEntity
8
0
100
AcDbLine
10
100.43319264333306
20
-15.140801029276165
30
0
11
102.13804388377788
21
-10.456760742625288
31
0
0
CIRCLE
5
118
100
AcDbEntity
8
0
100
AcDbCircle
10
98.193707560756422
20
-13.548780885950507
30
0
40
1.2499999999999989
210
0
220
0
230
1
0
ARC
5
119
100
AcDbEntity
8
0
100
AcDbCircle
10
103.07773650456383
20
-10.798780885950965
30
0
40
1.000000000000032
210
0
220
-0
230
1
100
AcDbArc
50
90
51
160.00000000000037
0
ARC
5
120
100
AcDbEntity
8
0
100
AcDbCircle
10
99.493500022547153
20
-14.798780885950489
30
0
40
1.0000000000000142
210
-0
220
0
230
1
100
AcDbArc
50
270
51
339.99999999999955
0
ARC
5
121
100
AcDbEntity
8
0
100
AcDbCircle
10
96.893915098966588
20
-14.798780885950507
30
0
40
1.0000000000000064
210
0
220
0
230
1
100
AcDbArc
50
200.0000000000002
51
270
0
LINE
5
122
100
AcDbEntity
8
0
100
AcDbLine
10
95.954222478180668
20
-15.140801029276183
30
0
11
94.249371237735488
21
-10.456760742624329
31
0
0
LINE
5
123
100
AcDbEntity
8
0
100
AcDbLine
10
99.493500022547153
20
-15.798780885950503
30
0
11
96.893915098966588
21
-15.798780885950503
31
0
0
LINE
5
124
100
AcDbEntity
8
0
100
AcDbLine
10
105.77949399838272
20
-9.7987808859500749
30
0
11
104.37752896635416
21
-9.7987808859509329
31
0
0
ARC
5
125
100
AcDbEntity
8
0
100
AcDbCircle
10
93.309678616949583
20
-10.798780885950006
30
0
40
1.0000000000000064
210
-0
220
0
230
1
100
AcDbArc
50
20.000000000000458
51
90
0
LINE
5
126
100
AcDbEntity
8
0
100
AcDbLine
10
93.309678616949583
20
-9.7987808859500092
30
0
11
92.009886155159251
21
-9.7987808859500092
31
0
0
ARC
5
127
100
AcDbEntity
8
0
100
AcDbCircle
10
107.19370756075647
20
-7.3845673235770253
30
0
40
1.0000000000013931
210
0
220
0
230
1
100
AcDbArc
50
314.99999999998766
51
360
0
ARC
5
128
100
AcDbEntity
8
0
100
AcDbCircle
10
105.77949399838424
20
-8.7987808859512988
30
0
40
0.9999999999987752
210
0
220
0
230
1
100
AcDbArc
50
269.99999999991286
51
314.99999999999972
0
LINE
5
129
100
AcDbEntity
8
0
100
AcDbLine
10
4.8840289438071132
20
-17.673328000018746
30
0
11
6.1838214055973992
21
-17.673328000018319
31
0
0
LINE
5
130
100
AcDbEntity
8
0
100
AcDbLine
10
2.2394850825781361
20
-23.015348143344831
30
0
11
3.9443363230213881
21
-18.331307856693385
31
0
0
ARC
5
131
100
AcDbEntity
8
0
100
AcDbCircle
10
19.39552271969351
20
-16.673327999998463
30
0
40
0.99999999999965228
210
0
220
0
230
1
100
AcDbArc
50
270.00000000001097
51
281.99999999991621
0
LINE
5
132
100
AcDbEntity
8
0
100
AcDbLine
10
1.2997924617924443
20
-23.67332800001947
30
0
11
-1.2997924617881891
21
-23.673328000020323
31
0
0
ARC
5
133
100
AcDbEntity
8
0
100
AcDbCircle
10
4.8840289438074409
20
-18.673328000018778
30
0
40
1.000000000000032
210
0
220
0
230
1
100
AcDbArc
50
90.000000000018787
51
160.00000000001774
0
LINE
5
134
100
AcDbEntity
8
0
100
AcDbLine
10
-2.239485082574288
20
-23.015348143346323
30
0
11
-3.9443363230210249
21
-18.33130785669502
31
0
0
LINE
5
135
100
AcDbEntity
8
0
100
AcDbLine
10
6.1838214055973992
20
-17.673328000018319
30
0
11
19.395522719693702
21
-17.673327999998115
31
0
0
ARC
5
136
100
AcDbEntity
8
0
100
AcDbCircle
10
-1.2997924617885164
20
-22.673328000020327
30
0
40
0.99999999999998335
210
0
220
0
230
1
100
AcDbArc
50
200.00000000002032
51
270.00000000001876
0
ARC
5
137
100
AcDbEntity
8
0
100
AcDbCircle
10
-4.8840289438068094
20
-18.673328000021016
30
0
40
0.99999999999999534
210
-0
220
0
230
1
100
AcDbArc
50
20.000000000020044
51
90.00000000001873
0
LINE
5
138
100
AcDbEntity
8
0
100
AcDbLine
10
19.603434410509767
20
-17.651475600732233
30
0
11
56.444650089810466
21
-9.8206332852159743
31
0
0
LINE
5
139
100
AcDbEntity
8
0
100
AcDbLine
10
-4.8840289438071363
20
-17.673328000021019
30
0
11
-6.1838214055974507
21
-17.673328000021446
31
0
0
CIRCLE
5
140
100
AcDbEntity
8
0
100
AcDbCircle
10
9.168952024930415e-13
20
-21.4233280000199
30
0
40
1.2499999999999989
210
0
220
0
230
1
0
ARC
5
141
100
AcDbEntity
8
0
100
AcDbCircle
10
1.299792461792117
20
-22.673328000019456
30
0
40
1.0000000000000142
210
-0
220
0
230
1
100
AcDbArc
50
270.00000000001876
51
340.00000000001796
0
ARC
5
142
100
AcDbEntity
8
0
100
AcDbCircle
10
56.652561780626826
20
-10.798780885950059
30
0
40
0.99999999999998535
210
0
220
-0
230
1
100
AcDbArc
50
90
51
101.99999999991823
0
LINE
5
143
100
AcDbEntity
8
0
100
AcDbLine
10
92.009886155159251
20
-9.7987808859500092
30
0
11
56.652561780626826
21
-9.7987808859500731
31
0
0
LINE
5
144
100
AcDbEntity
8
0
100
AcDbLine
10
108.19370756075651
20
-7.3845673235770262
30
0
11
108.19370756075654
21
81.932337700188626
31
0
0
CIRCLE
5
145
100
AcDbEntity
8
0
100
AcDbCircle
10
-98.193707560756494
20
88.096551262562002
30
0
40
1.2499999999999989
210
0
220
0
230
1
0
LINE
5
146
100
AcDbEntity
8
0
100
AcDbLine
10
-105.77949399838369
20
84.346551262561007
30
0
11
-104.37752896635423
21
84.346551262562429
31
0
0
ARC
5
147
100
AcDbEntity
8
0
100
AcDbCircle
10
-93.309678616949554
20
-10.798780885950103
30
0
40
0.99999999999999534
210
-0
220
0
230
1
100
AcDbArc
50
90
51
159.99999999999963
0
LINE
5
148
100
AcDbEntity
8
0
100
AcDbLine
10
-93.309678616949554
20
-9.7987808859501087
30
0
11
-92.009886155159222
21
-9.7987808859501051
31
0
0
ARC
5
149
100
AcDbEntity
8
0
100
AcDbCircle
10
-107.19370756075642
20
-7.3845673235771381
30
0
40
1.0000000000000497
210
0
220
0
230
1
100
AcDbArc
50
180
51
225.00000000001248
0
ARC
5
150
100
AcDbEntity
8
0
100
AcDbCircle
10
-103.0777365045638
20
-10.798780885951073
30
0
40
1.0000000000000406
210
0
220
-0
230
1
100
AcDbArc
50
19.999999999999456
51
90
0
LINE
5
151
100
AcDbEntity
8
0
100
AcDbLine
10
-99.49350002254711
20
-15.798780885950608
30
0
11
-96.893915098966545
21
-15.798780885950606
31
0
0
LINE
5
152
100
AcDbEntity
8
0
100
AcDbLine
10
-100.43319264333303
20
-15.140801029276272
30
0
11
-102.13804388377784
21
-10.456760742625395
31
0
0
ARC
5
153
100
AcDbEntity
8
0
100
AcDbCircle
10
-96.893915098966545
20
-14.79878088595061
30
0
40
0.99999999999999645
210
0
220
0
230
1
100
AcDbArc
50
270
51
339.99999999999955
0
ARC
5
154
100
AcDbEntity
8
0
100
AcDbCircle
10
-105.7794939983842
20
-8.7987808859514125
30
0
40
0.99999999999995248
210
0
220
0
230
1
100
AcDbArc
50
224.99999999999963
51
270.00000000008714
0
ARC
5
155
100
AcDbEntity
8
0
100
AcDbCircle
10
-99.49350002254711
20
-14.798780885950594
30
0
40
1.0000000000000073
210
0
220
0
230
1
100
AcDbArc
50
200.00000000000026
51
270
0
LINE
5
156
100
AcDbEntity
8
0
100
AcDbLine
10
-95.95422247818064
20
-15.140801029276286
30
0
11
-94.24937123773546
21
-10.456760742624429
31
0
0
LINE
5
157
100
AcDbEntity
8
0
100
AcDbLine
10
-107.9008143419438
20
-8.0916741047648237
30
0
11
-106.48660077957072
21
-9.5058876671379284
31
0
0
LINE
5
158
100
AcDbEntity
8
0
100
AcDbLine
10
-56.652561780626804
20
-9.7987808859501335
30
0
11
-92.009886155159222
21
-9.7987808859501051
31
0
0
LINE
5
159
100
AcDbEntity
8
0
100
AcDbLine
10
-108.19370756075648
20
-7.3845673235771407
30
0
11
-108.19370756075659
21
81.932337700188512
31
0
0
LINE
5
160
100
AcDbEntity
8
0
100
AcDbLine
10
107.90081434194306
20
82.639444481375165
30
0
11
106.48660077957031
21
84.053658043747731
31
0
0
LINE
5
161
100
AcDbEntity
8
0
100
AcDbLine
10
93.309678616949583
20
84.346551262561604
30
0
11
92.009886155159251
21
84.346551262561604
31
0
0
LINE
5
162
100
AcDbEntity
8
0
100
AcDbLine
10
95.954222478180668
20
89.688571405887785
30
0
11
94.249371237735488
21
85.004531119235921
31
0
0
LINE
5
163
100
AcDbEntity
8
0
100
AcDbLine
10
105.77949399838361
20
84.346551262561107
30
0
11
104.37752896635416
21
84.346551262562528
31
0
0
CIRCLE
5
164
100
AcDbEntity
8
0
100
AcDbCircle
10
98.193707560756422
20
88.096551262562102
30
0
40
1.2499999999999989
210
0
220
0
230
1
0
ARC
5
165
100
AcDbEntity
8
0
100
AcDbCircle
10
99.493500022547153
20
89.346551262562087
30
0
40
1.0000000000000064
210
0
220
-0
230
1
100
AcDbArc
50
20.000000000000085
51
90
0
ARC
5
166
100
AcDbEntity
8
0
100
AcDbCircle
10
96.893915098966588
20
89.346551262562102
30
0
40
0.99999999999999645
210
0
220
-0
230
1
100
AcDbArc
50
90
51
159.99999999999943
0
ARC
5
167
100
AcDbEntity
8
0
100
AcDbCircle
10
105.7794939983838
20
83.346551262561107
30
0
40
1.0000000000000233
210
0
220
-0
230
1
100
AcDbArc
50
45.000000000004604
51
90.000000000010587
0
ARC
5
168
100
AcDbEntity
8
0
100
AcDbCircle
10
103.07773650456383
20
85.346551262562556
30
0
40
1.00000000000004
210
0
220
0
230
1
100
AcDbArc
50
199.99999999999926
51
270
0
LINE
5
169
100
AcDbEntity
8
0
100
AcDbLine
10
103.07773650456383
20
84.346551262562528
30
0
11
104.37752896635416
21
84.346551262562528
31
0
0
LINE
5
170
100
AcDbEntity
8
0
100
AcDbLine
10
100.43319264333306
20
89.688571405887757
30
0
11
102.13804388377788
21
85.004531119236887
31
0
0
ARC
5
171
100
AcDbEntity
8
0
100
AcDbCircle
10
93.309678616949583
20
85.346551262561604
30
0
40
0.99999999999999645
210
-0
220
0
230
1
100
AcDbArc
50
270
51
339.99999999999915
0
ARC
5
172
100
AcDbEntity
8
0
100
AcDbCircle
10
107.19370756075656
20
81.932337700188583
30
0
40
0.99999999999996092
210
-0
220
0
230
1
100
AcDbArc
50
0
51
45.00000000000346
0
LINE
5
173
100
AcDbEntity
8
0
100
AcDbLine
10
99.493500022547153
20
90.346551262562102
30
0
11
96.893915098966588
21
90.346551262562102
31
0
0
LINE
5
174
100
AcDbEntity
8
0
100
AcDbLine
10
-105.77949399838268
20
-9.7987808859501868
30
0
11
-104.37752896635413
21
-9.798780885951043
31
0
0
CIRCLE
5
175
100
AcDbEntity
8
0
100
AcDbCircle
10
-98.193707560756394
20
-13.548780885950611
30
0
40
1.2499999999999989
210
0
220
0
230
1
0
LINE
5
176
100
AcDbEntity
8
0
100
AcDbLine
10
-103.0777365045638
20
-9.7987808859510412
30
0
11
-104.37752896635413
21
-9.798780885951043
31
0
0
LINE
5
177
100
AcDbEntity
8
0
100
AcDbLine
10
-6.1838214055973815
20
-17.673328000018326
30
0
11
-19.395522719693684
21
-17.673327999998133
31
0
0
ARC
5
178
100
AcDbEntity
8
0
100
AcDbCircle
10
-19.395522719693492
20
-16.673327999998481
30
0
40
0.99999999999965228
210
0
220
0
230
1
100
AcDbArc
50
258.00000000008379
51
269.99999999998903
0
LINE
5
179
100
AcDbEntity
8
0
100
AcDbLine
10
-19.603434410509749
20
-17.651475600732251
30
0
11
-56.444650089810445
21
-9.820633285216033
31
0
0
ARC
5
180
100
AcDbEntity
8
0
100
AcDbCircle
10
-56.652561780626804
20
-10.798780885950119
30
0
40
0.9999999999999819
210
0
220
-0
230
1
100
AcDbArc
50
78.000000000081769
51
90
0
LINE
5
181
100
AcDbEntity
8
0
100
AcDbLine
10
-92.009886155159322
20
84.346551262561519
30
0
11
-6.183821405580785
21
84.346551262562528
31
0
0
ARC
5
182
100
AcDbEntity
8
0
100
AcDbCircle
10
-93.309678616949654
20
85.346551262561491
30
0
40
1.0000000000000064
210
0
220
0
230
1
100
AcDbArc
50
199.9999999999998
51
270
0
ARC
5
183
100
AcDbEntity
8
0
100
AcDbCircle
10
-107.19370756075664
20
81.932337700188484
30
0
40
0.99999999999998546
210
0
220
0
230
1
100
AcDbArc
50
134.99999999999656
51
180
0
LINE
5
184
100
AcDbEntity
8
0
100
AcDbLine
10
-103.0777365045639
20
84.346551262562429
30
0
11
-104.37752896635423
21
84.346551262562429
31
0
0
LINE
5
185
100
AcDbEntity
8
0
100
AcDbLine
10
-99.493500022547209
20
90.346551262561988
30
0
11
-96.893915098966659
21
90.346551262561988
31
0
0
ARC
5
186
100
AcDbEntity
8
0
100
AcDbCircle
10
-103.0777365045639
20
85.346551262562457
30
0
40
1.000000000000032
210
0
220
0
230
1
100
AcDbArc
50
270
51
340
0
LINE
5
187
100
AcDbEntity
8
0
100
AcDbLine
10
-93.309678616949654
20
84.346551262561491
30
0
11
-92.009886155159322
21
84.346551262561519
31
0
0
LINE
5
188
100
AcDbEntity
8
0
100
AcDbLine
10
-95.954222478180753
20
89.688571405887672
30
0
11
-94.249371237735573
21
85.004531119235821
31
0
0
ARC
5
189
100
AcDbEntity
8
0
100
AcDbCircle
10
-96.893915098966659
20
89.346551262562002
30
0
40
1.0000000000000064
210
0
220
-0
230
1
100
AcDbArc
50
20.000000000000085
51
90
0
ARC
5
190
100
AcDbEntity
8
0
100
AcDbCircle
10
-99.493500022547209
20
89.346551262561974
30
0
40
1.0000000000000142
210
0
220
-0
230
1
100
AcDbArc
50
90
51
159.99999999999943
0
LINE
5
191
100
AcDbEntity
8
0
100
AcDbLine
10
-107.90081434194313
20
82.639444481375065
30
0
11
-106.48660077957038
21
84.053658043747618
31
0
0
LINE
5
192
100
AcDbEntity
8
0
100
AcDbLine
10
-100.43319264333313
20
89.688571405887657
30
0
11
-102.13804388377795
21
85.004531119236773
31
0
0
ARC
5
193
100
AcDbEntity
8
0
100
AcDbCircle
10
-105.77949399838387
20
83.346551262561007
30
0
40
0.99999999999999645
210
0
220
-0
230
1
100
AcDbArc
50
89.999999999989413
51
134.99999999999596
0
ENDSEC
0
SECTION
2
OBJECTS
0
DICTIONARY
5
C
100
AcDbDictionary
3
ACAD_GROUP
350
D
3
ACAD_MLINESTYLE
350
17
0
DICTIONARY
5
D
100
AcDbDictionary
0
DICTIONARY
5
1A
330
C
100
AcDbDictionary
0
DICTIONARY
5
17
100
AcDbDictionary
0
ENDSEC
0
EOF
