0
SECTION
2
HEADER
9
$INSUNITS
70
4
9
$ACADVER
1
AC1014
9
$HANDSEED
5
FFFF
0
ENDSEC
0
SECTION
2
TABLES
0
TABLE
2
VPORT
5
8
100
AcDbSymbolTable
0
ENDTAB
0
TABLE
2
LTYPE
5
5
100
AcDbSymbolTable
0
LTYPE
5
14
100
AcDbSymbolTableRecord
100
AcDbLinetypeTableRecord
2
BYBLOCK
70
0
0
LTYPE
5
15
100
AcDbSymbolTableRecord
100
AcDbLinetypeTableRecord
2
BYLAYER
70
0
0
ENDTAB
0
TABLE
2
LAYER
5
2
100
AcDbSymbolTable
70
2
0
LAYER
5
50
100
AcDbSymbolTableRecord
100
AcDbLayerTableRecord
2
0
70
0
6
CONTINUOUS
0
ENDTAB
0
TABLE
2
STYLE
5
3
100
AcDbSymbolTable
70
1
0
STYLE
5
11
100
AcDbSymbolTableRecord
100
AcDbTextStyleTableRecord
2
STANDARD
70
0
0
ENDTAB
0
TABLE
2
VIEW
5
6
100
AcDbSymbolTable
70
0
0
ENDTAB
0
TABLE
2
UCS
5
7
100
AcDbSymbolTable
70
0
0
ENDTAB
0
TABLE
2
APPID
5
9
100
AcDbSymbolTable
70
2
0
APPID
5
12
100
AcDbSymbolTableRecord
100
AcDbRegAppTableRecord
2
ACAD
70
0
0
ENDTAB
0
TABLE
2
DIMSTYLE
5
A
100
AcDbSymbolTable
70
1
0
ENDTAB
0
TABLE
2
BLOCK_RECORD
5
1
100
AcDbSymbolTable
70
1
0
BLOCK_RECORD
5
1F
100
AcDbSymbolTableRecord
100
AcDbBlockTableRecord
2
*MODEL_SPACE
0
BLOCK_RECORD
5
1B
100
AcDbSymbolTableRecord
100
AcDbBlockTableRecord
2
*PAPER_SPACE
0
ENDTAB
0
ENDSEC
0
SECTION
2
BLOCKS
0
BLOCK
5
20
100
AcDbEntity
100
AcDbBlockBegin
2
*MODEL_SPACE
0
ENDBLK
5
21
100
AcDbEntity
100
AcDbBlockEnd
0
BLOCK
5
1C
100
AcDbEntity
100
AcDbBlockBegin
2
*PAPER_SPACE
0
ENDBLK
5
1D
100
AcDbEntity
100
AcDbBlockEnd
0
ENDSEC
0
SECTION
2
ENTITIES
0
ARC
5
100
100
AcDbEntity
8
0
100
AcDbCircle
10
19.39552271969351
20
-16.673327999998463
30
0
40
0.99999999999965228
210
0
220
0
230
1
100
AcDbArc
50
270.00000000001097
51
281.99999999991621
0
LINE
5
101
100
AcDbEntity
8
0
100
AcDbLine
10
19.603434410509767
20
-17.651475600732233
30
0
11
56.444650089810466
21
-9.8206332852159743
31
0
0
ARC
5
102
100
AcDbEntity
8
0
100
AcDbCircle
10
56.652561780626826
20
-10.798780885950059
30
0
40
0.99999999999998535
210
0
220
-0
230
1
100
AcDbArc
50
90
51
101.99999999991823
0
ARC
5
103
100
AcDbEntity
8
0
100
AcDbCircle
10
105.77949399838424
20
-8.7987808859512988
30
0
40
0.9999999999987752
210
0
220
0
230
1
100
AcDbArc
50
269.99999999991286
51
314.99999999999972
0
LINE
5
104
100
AcDbEntity
8
0
100
AcDbLine
10
107.90081434194384
20
-8.0916741047647083
30
0
11
106.48660077957075
21
-9.5058876671378165
31
0
0
ARC
5
105
100
AcDbEntity
8
0
100
AcDbCircle
10
107.19370756075647
20
-7.3845673235770253
30
0
40
1.0000000000013931
210
0
220
0
230
1
100
AcDbArc
50
314.99999999998766
51
360
0
LINE
5
106
100
AcDbEntity
8
0
100
AcDbLine
10
108.19370756075651
20
-7.3845673235770262
30
0
11
108.19370756075654
21
81.932337700188626
31
0
0
ARC
5
107
100
AcDbEntity
8
0
100
AcDbCircle
10
107.19370756075656
20
81.932337700188583
30
0
40
0.99999999999996092
210
-0
220
0
230
1
100
AcDbArc
50
0
51
45.00000000000346
0
LINE
5
108
100
AcDbEntity
8
0
100
AcDbLine
10
107.90081434194306
20
82.639444481375165
30
0
11
106.48660077957031
21
84.053658043747731
31
0
0
ARC
5
109
100
AcDbEntity
8
0
100
AcDbCircle
10
105.7794939983838
20
83.346551262561107
30
0
40
1.0000000000000233
210
0
220
-0
230
1
100
AcDbArc
50
45.000000000004604
51
90.000000000010587
0
LINE
5
110
100
AcDbEntity
8
0
100
AcDbLine
10
-4.8840289438238411
20
84.346551262561604
30
0
11
-6.1838214056141556
21
84.346551262561604
31
0
0
ARC
5
111
100
AcDbEntity
8
0
100
AcDbCircle
10
-4.8840289438238411
20
85.346551262561604
30
0
40
0.99999999999999645
210
-0
220
0
230
1
100
AcDbArc
50
270
51
339.99999999999818
0
LINE
5
112
100
AcDbEntity
8
0
100
AcDbLine
10
-2.2394850825927426
20
89.688571405887785
30
0
11
-3.9443363230379456
21
85.004531119235907
31
0
0
ARC
5
113
100
AcDbEntity
8
0
100
AcDbCircle
10
-1.299792461806859
20
89.346551262562087
30
0
40
0.99999999999999645
210
0
220
-0
230
1
100
AcDbArc
50
90
51
159.99999999999798
0
LINE
5
114
100
AcDbEntity
8
0
100
AcDbLine
10
1.2997924617737744
20
90.346551262562087
30
0
11
-1.299792461806859
21
90.346551262562087
31
0
0
ARC
5
115
100
AcDbEntity
8
0
100
AcDbCircle
10
1.2997924617737744
20
89.346551262562059
30
0
40
1.0000000000000011
210
0
220
-0
230
1
100
AcDbArc
50
20.00000000000081
51
90
0
ARC
5
116
100
AcDbEntity
8
0
100
AcDbCircle
10
4.8840289437904083
20
85.346551262562556
30
0
40
1.0000000000000395
210
0
220
0
230
1
100
AcDbArc
50
200.00000000000011
51
270
0
LINE
5
117
100
AcDbEntity
8
0
100
AcDbLine
10
4.8840289437904083
20
84.346551262562528
30
0
11
6.1838214055806944
21
84.346551262562528
31
0
0
LINE
5
118
100
AcDbEntity
8
0
100
AcDbLine
10
2.239485082559681
20
89.688571405887743
30
0
11
3.944336323004467
21
85.004531119236873
31
0
0
CIRCLE
5
119
100
AcDbEntity
8
0
100
AcDbCircle
10
-1.7016388298429774e-11
20
88.096551262562087
30
0
40
1.2499999999999989
210
0
220
0
230
1
0
LINE
5
120
100
AcDbEntity
8
0
100
AcDbLine
10
93.309678616949583
20
84.346551262561604
30
0
11
92.009886155159251
21
84.346551262561604
31
0
0
ARC
5
121
100
AcDbEntity
8
0
100
AcDbCircle
10
93.309678616949583
20
85.346551262561604
30
0
40
0.99999999999999645
210
-0
220
0
230
1
100
AcDbArc
50
270
51
339.99999999999915
0
LINE
5
122
100
AcDbEntity
8
0
100
AcDbLine
10
95.954222478180668
20
89.688571405887785
30
0
11
94.249371237735488
21
85.004531119235921
31
0
0
ARC
5
123
100
AcDbEntity
8
0
100
AcDbCircle
10
96.893915098966588
20
89.346551262562102
30
0
40
0.99999999999999645
210
0
220
-0
230
1
100
AcDbArc
50
90
51
159.99999999999943
0
LINE
5
124
100
AcDbEntity
8
0
100
AcDbLine
10
99.493500022547153
20
90.346551262562102
30
0
11
96.893915098966588
21
90.346551262562102
31
0
0
ARC
5
125
100
AcDbEntity
8
0
100
AcDbCircle
10
99.493500022547153
20
89.346551262562087
30
0
40
1.0000000000000064
210
0
220
-0
230
1
100
AcDbArc
50
20.000000000000085
51
90
0
ARC
5
126
100
AcDbEntity
8
0
100
AcDbCircle
10
103.07773650456383
20
85.346551262562556
30
0
40
1.00000000000004
210
0
220
0
230
1
100
AcDbArc
50
199.99999999999926
51
270
0
LINE
5
127
100
AcDbEntity
8
0
100
AcDbLine
10
103.07773650456383
20
84.346551262562528
30
0
11
104.37752896635416
21
84.346551262562528
31
0
0
LINE
5
128
100
AcDbEntity
8
0
100
AcDbLine
10
100.43319264333306
20
89.688571405887757
30
0
11
102.13804388377788
21
85.004531119236887
31
0
0
CIRCLE
5
129
100
AcDbEntity
8
0
100
AcDbCircle
10
98.193707560756422
20
88.096551262562102
30
0
40
1.2499999999999989
210
0
220
0
230
1
0
LINE
5
130
100
AcDbEntity
8
0
100
AcDbLine
10
93.309678616949583
20
-9.7987808859500092
30
0
11
92.009886155159251
21
-9.7987808859500092
31
0
0
ARC
5
131
100
AcDbEntity
8
0
100
AcDbCircle
10
93.309678616949583
20
-10.798780885950006
30
0
40
1.0000000000000064
210
-0
220
0
230
1
100
AcDbArc
50
20.000000000000458
51
90
0
LINE
5
132
100
AcDbEntity
8
0
100
AcDbLine
10
95.954222478180668
20
-15.140801029276183
30
0
11
94.249371237735488
21
-10.456760742624329
31
0
0
ARC
5
133
100
AcDbEntity
8
0
100
AcDbCircle
10
96.893915098966588
20
-14.798780885950507
30
0
40
1.0000000000000064
210
0
220
0
230
1
100
AcDbArc
50
200.0000000000002
51
270
0
LINE
5
134
100
AcDbEntity
8
0
100
AcDbLine
10
99.493500022547153
20
-15.798780885950503
30
0
11
96.893915098966588
21
-15.798780885950503
31
0
0
ARC
5
135
100
AcDbEntity
8
0
100
AcDbCircle
10
99.493500022547153
20
-14.798780885950489
30
0
40
1.0000000000000142
210
-0
220
0
230
1
100
AcDbArc
50
270
51
339.99999999999955
0
ARC
5
136
100
AcDbEntity
8
0
100
AcDbCircle
10
103.07773650456383
20
-10.798780885950965
30
0
40
1.000000000000032
210
0
220
-0
230
1
100
AcDbArc
50
90
51
160.00000000000037
0
LINE
5
137
100
AcDbEntity
8
0
100
AcDbLine
10
103.07773650456383
20
-9.7987808859509329
30
0
11
104.37752896635416
21
-9.7987808859509329
31
0
0
LINE
5
138
100
AcDbEntity
8
0
100
AcDbLine
10
100.43319264333306
20
-15.140801029276165
30
0
11
102.13804388377788
21
-10.456760742625288
31
0
0
CIRCLE
5
139
100
AcDbEntity
8
0
100
AcDbCircle
10
98.193707560756422
20
-13.548780885950507
30
0
40
1.2499999999999989
210
0
220
0
230
1
0
LINE
5
140
100
AcDbEntity
8
0
100
AcDbLine
10
-4.8840289438071363
20
-17.673328000021019
30
0
11
-6.1838214055974507
21
-17.673328000021446
31
0
0
ARC
5
141
100
AcDbEntity
8
0
100
AcDbCircle
10
-4.8840289438068094
20
-18.673328000021016
30
0
40
0.99999999999999534
210
-0
220
0
230
1
100
AcDbArc
50
20.000000000020044
51
90.00000000001873
0
LINE
5
142
100
AcDbEntity
8
0
100
AcDbLine
10
-2.239485082574288
20
-23.015348143346323
30
0
11
-3.9443363230210249
21
-18.33130785669502
31
0
0
ARC
5
143
100
AcDbEntity
8
0
100
AcDbCircle
10
-1.2997924617885164
20
-22.673328000020327
30
0
40
0.99999999999998335
210
0
220
0
230
1
100
AcDbArc
50
200.00000000002032
51
270.00000000001876
0
LINE
5
144
100
AcDbEntity
8
0
100
AcDbLine
10
1.2997924617924443
20
-23.67332800001947
30
0
11
-1.2997924617881891
21
-23.673328000020323
31
0
0
ARC
5
145
100
AcDbEntity
8
0
100
AcDbCircle
10
1.299792461792117
20
-22.673328000019456
30
0
40
1.0000000000000142
210
-0
220
0
230
1
100
AcDbArc
50
270.00000000001876
51
340.00000000001796
0
ARC
5
146
100
AcDbEntity
8
0
100
AcDbCircle
10
4.8840289438074409
20
-18.673328000018778
30
0
40
1.000000000000032
210
0
220
0
230
1
100
AcDbArc
50
90.000000000018787
51
160.00000000001774
0
LINE
5
147
100
AcDbEntity
8
0
100
AcDbLine
10
4.8840289438071132
20
-17.673328000018746
30
0
11
6.1838214055973992
21
-17.673328000018319
31
0
0
LINE
5
148
100
AcDbEntity
8
0
100
AcDbLine
10
2.2394850825781361
20
-23.015348143344831
30
0
11
3.9443363230213881
21
-18.331307856693385
31
0
0
CIRCLE
5
149
100
AcDbEntity
8
0
100
AcDbCircle
10
9.168952024930415e-13
20
-21.4233280000199
30
0
40
1.2499999999999989
210
0
220
0
230
1
0
LWPOLYLINE
5
150
100
AcDbEntity
8
0
100
AcDbPolyline
90
40
70
1
43
0.0
10
36.615626399687351
20
17.826364787923517
10
34.107662680144458
20
15.403996957478183
42
-0.14056478739968653
10
33.864255549177443
20
15.27456042248193
10
18.409523457582743
20
11.98955570756114
42
-0.4142135623730937
10
17.816494811806962
20
12.374673662519156
10
17.816493811806961
20
12.374673662519156
42
-0.41421356237309093
10
18.201611766764984
20
12.967703308294938
10
33.375814817595433
20
16.193079734862266
42
0.14056478739969017
10
33.619221948562419
20
16.3225162698585
10
36.127185668105852
20
18.744884100303992
42
-0.14056478739968833
10
36.37059279907286
20
18.874320635300222
10
50.371037719342446
20
21.850207069402742
42
0.23046144468767457
10
50.716139764644637
20
22.11940133277237
10
52.741872956896913
20
26.256536997504398
42
-0.23967033903619148
10
53.104106758774535
20
26.529061337013225
10
67.679261503357267
20
29.09905436648334
42
-0.22184630440891792
10
68.087700781184509
20
28.989486839098461
10
71.15864320726223
20
26.409633251477509
42
0.20360281980202402
10
71.532522627889833
20
26.295208652914603
10
85.828957857485406
20
27.797824544745385
42
-0.26006905283676762
10
86.276896222427339
20
27.606246406899867
10
88.989137530056439
20
24.095536304211251
42
0.23230112625893209
10
89.384811663364601
20
23.901219114049876
10
103.19370756076165
20
23.901219114050463
42
-0.41421356237307944
10
103.69370756076164
20
23.401219114050463
10
103.69370756076164
20
23.40121911404929
42
-0.41421356237313928
10
103.19370756076162
20
22.901219114049276
10
88.893707560760546
20
22.901219114049873
42
-0.23230112625899499
10
88.498033427452384
20
23.095536304211276
10
85.826610593752207
20
26.553411200683623
42
0.26006905283677456
10
85.378672228810217
20
26.744989338529169
10
71.214562269306342
20
25.256281393017311
42
-0.20360281980224673
10
70.840682848678384
20
25.370705991580508
10
67.801778939492849
20
27.923644492148568
42
0.22184630440918462
10
67.393339661665252
20
28.033212019533735
10
53.778581783913957
20
25.632562869873595
42
0.2396703390362063
10
53.416347982036356
20
25.360038530364797
10
51.400191026051218
20
21.242460322038006
42
-0.23046144468767479
10
51.055088980749048
20
20.973266058668408
10
36.859033530654386
20
17.955801322919779
42
0.14056478739968775
0
LWPOLYLINE
5
151
100
AcDbEntity
8
0
100
AcDbPolyline
90
40
70
1
43
0.0
10
33.08112765578511
20
34.454874000398107
10
30.573163936241667
20
32.032506169952072
42
-0.14056478739971279
10
30.329756805274613
20
31.903069634955802
10
14.875024713680798
20
28.618064920035895
42
-0.41421356237310575
10
14.281996067905032
20
29.003182874993946
10
14.281995067905031
20
29.003182874993946
42
-0.41421356237309637
10
14.667113022863074
20
29.596212520769711
10
29.841316073693498
20
32.82158894733638
42
0.14056478739971168
10
30.084723204660566
20
32.951025482332668
10
32.592686924203669
20
35.373393312778575
42
-0.14056478739971359
10
32.836094055170705
20
35.502829847774862
10
46.887888791680929
20
38.489631022260497
42
0.20776663252801472
10
47.212285701084625
20
38.720801900107169
10
49.810559072458638
20
43.036292184235087
42
-0.21688674894696605
10
50.152087738437778
20
43.270793138220974
10
64.727242483020831
20
45.840786167691341
42
-0.17838022501540043
10
65.067506482243374
20
45.779390657486836
10
69.354868693904436
20
43.25835213553696
42
0.1604256526133383
10
69.66057283592734
20
43.19209955415441
10
84.051973981936285
20
44.704696766006727
42
-0.19652913108349432
10
84.415320337229645
20
44.598879188862284
10
88.931589974767192
20
41.009775743510168
42
0.16947106119999886
10
89.242672098426752
20
40.901219114049866
10
103.19370756079103
20
40.901219114050271
42
-0.41421356237308982
10
103.69370756079104
20
40.401219114050271
10
103.69370756079101
20
40.401219114049461
42
-0.41421356237308982
10
103.19370756079101
20
39.901219114049461
10
88.893707560756511
20
39.901219114049887
42
-0.16947106120000577
10
88.582625437096937
20
40.009775743510232
10
84.113238977037497
20
43.561620878948219
42
0.19652913108352743
10
83.749892621744081
20
43.667438456092697
10
69.437578393755956
20
42.163153614277945
42
-0.16042565261348288
10
69.131874251732881
20
42.229406195660573
10
64.878267306928976
20
44.730596073186383
42
0.17838022501549353
10
64.538003307706262
20
44.791991583390995
10
50.77400598185443
20
42.365027492444398
42
0.21688674894695287
10
50.43247731587531
20
42.130526538458511
10
47.844987146250077
20
37.832946148990303
42
-0.20776663252802011
10
47.520590236846374
20
37.601775271143616
10
33.324534786752132
20
34.58431053539438
42
0.14056478739966768
0
LWPOLYLINE
5
152
100
AcDbEntity
8
0
100
AcDbPolyline
90
40
70
1
43
0.0
10
29.790036042847827
20
51.212819747883472
10
43.986091492942748
20
54.230284483632701
42
0.18829807005763433
10
44.289978845871047
20
54.430111113624342
10
47.457152061818562
20
58.895876681543513
42
-0.19734923244089364
10
47.778171171322285
20
59.099033387674353
10
61.650572416511487
20
61.545112014414698
42
-0.14812739995528082
10
61.938396147743802
20
61.510528128467698
10
67.407330644164873
20
59.10946679267731
42
0.13033534343208306
10
67.660594518197556
20
59.070025835552272
10
82.061298094949251
20
60.583600772274437
42
-0.15608879223802363
10
82.359672096131291
20
60.521575371544955
10
88.647597791205115
20
56.965983567109689
42
0.1293740762716255
10
88.893707560753313
20
56.901219114064361
10
103.19370756081804
20
56.901219114064013
42
0.41421356237308465
10
103.69370856081807
20
57.401219114064673
10
103.69370756081807
20
57.401219114064673
42
0.41421356237308465
10
103.19370756081804
20
57.901219114064673
10
89.156860271693347
20
57.901219114064347
42
-0.12937407627162775
10
88.910750502145135
20
57.965983567109674
10
82.57336410756777
20
61.5495435865529
42
0.15608879223801647
10
82.274990106385758
20
61.611568987282368
10
67.819788696588887
20
60.092266097494402
42
-0.1303353434319888
10
67.566524822556318
20
60.131707054619412
10
62.063047193912965
20
62.547934082966989
42
0.1481273999551701
10
61.775223462680742
20
62.582517968913947
10
47.200068718098407
20
60.012524939442983
42
0.19734923244085972
10
46.87904960859467
20
59.809368233312114
10
43.70015956636707
20
55.327081750431461
42
-0.18829807005764998
10
43.396272213438749
20
55.127255120439784
10
29.301595311266233
20
52.131339060263983
42
0.14056478739969178
10
29.058188180299215
20
52.00190252526771
10
26.550224460756169
20
49.579534694822172
42
-0.14056478739970241
10
26.306817329789141
20
49.450098159825906
10
11.132614278958691
20
46.224721733258789
42
0.41421356237308427
10
10.747496324000654
20
45.631692087483003
10
10.747496324000656
20
45.631692087482996
42
0.41421356237310342
10
11.340525969776433
20
45.24657413252497
10
26.795258061370653
20
48.531578847445459
42
0.14056478739971182
10
27.038665192337671
20
48.661015382441704
10
29.546628911880816
20
51.083383212887227
42
-0.14056478739972308
0
LWPOLYLINE
5
153
100
AcDbEntity
8
0
100
AcDbPolyline
90
40
70
1
43
0.0
10
26.255537298947658
20
67.841328960343318
10
40.451592749042923
20
70.858793696092775
42
0.17157951772874211
10
40.735901715404708
20
71.032827124537789
10
44.487912456994763
20
75.656913032823141
42
-0.18057677246882234
10
44.789353179931979
20
75.834276537407362
10
58.743896522698442
20
78.294839032202589
42
-0.1263779833620304
10
58.99194403371866
20
78.275728941984013
10
65.67012298883634
20
76.000865218196338
42
0.10868317032617947
10
65.883610642656919
20
75.976898056799754
10
80.341120762697983
20
77.496443601812331
42
-0.12923198723423918
10
80.592395665856316
20
77.457870731823007
10
88.69469688923445
20
73.942531036355078
42
0.10269852782040398
10
88.893707560758969
20
73.90121911404988
10
103.19370756084929
20
73.901219114049638
42
0.41421356237306384
10
103.6937085608493
20
74.401219114050136
10
103.69370756084932
20
74.401219114050136
42
0.4142135623730534
10
103.19370756084928
20
74.901219114050136
10
89.101294028301368
20
74.901219114049866
42
-0.102698527820451
10
88.902283356776778
20
74.942531036355078
10
80.749281133994216
20
78.479868338539902
42
0.12923198723423626
10
80.498006230835813
20
78.518441208529254
10
65.997841759538176
20
76.994412510546653
42
-0.10868317032615413
10
65.784354105717611
20
77.018379671943237
10
59.071251953367664
20
79.305139679887603
42
0.12637798336209061
10
58.823204442347489
20
79.32424977010615
10
44.248049697765822
20
76.75425674063581
42
0.18057677246881401
10
43.946608974828614
20
76.576893236051603
10
40.182148422862227
20
71.937463823526414
42
-0.17157951772873248
10
39.897839456500435
20
71.763430395081414
10
25.76709656736622
20
68.759848272723815
42
0.14056478739969447
10
25.523689436399199
20
68.630411737727542
10
23.0157257168567
20
66.208043907282473
42
-0.14056478739972278
10
22.772318585889664
20
66.078607372286214
10
7.5981155350592235
20
62.853230945719218
42
0.41421356237309637
10
7.212997580101189
20
62.260201299943454
10
7.2129975801011916
20
62.260201299943446
42
0.41421356237311757
10
7.8060272258769681
20
61.875083344985413
10
23.260759317471205
20
65.160088059905775
42
0.14056478739970177
10
23.504166448438248
20
65.289524594902034
10
26.012130167980636
20
67.711892425347045
42
-0.14056478739972231
0
ARC
5
154
100
AcDbEntity
8
0
100
AcDbCircle
10
-105.77949399838387
20
83.346551262561007
30
0
40
0.99999999999999645
210
0
220
-0
230
1
100
AcDbArc
50
89.999999999989413
51
134.99999999999596
0
LWPOLYLINE
5
155
100
AcDbEntity
8
0
100
AcDbPolyline
90
40
70
1
43
0.0
10
-80.749281133994288
20
78.479868338539802
10
-88.902283356776849
20
74.942531036354978
42
-0.10269852782045269
10
-89.101294028301439
20
74.901219114049766
10
-103.19370756084935
20
74.901219114050036
42
0.4142135623730534
10
-103.69370756084939
20
74.401219114050022
10
-103.6937075608494
20
74.40121911404951
42
0.41421356237306384
10
-103.19370756084936
20
73.901219114049525
10
-88.89370756075904
20
73.901219114049781
42
0.10269852782040405
10
-88.694696889234521
20
73.942531036354993
10
-80.592395665856387
20
77.457870731822908
42
-0.12923198723423962
10
-80.341120762698054
20
77.496443601812231
10
-65.883610642657004
20
75.976898056799683
42
0.10868317032617947
10
-65.670122988836425
20
76.000865218196267
10
-58.991944033718759
20
78.275728941983957
42
-0.12637798336203335
10
-58.743896522698535
20
78.294839032202518
10
-44.789353179932064
20
75.834276537407305
42
-0.18057677246882151
10
-44.487912456994856
20
75.656913032823084
10
-40.735901715404779
20
71.032827124537746
42
0.17157951772874211
10
-40.451592749042995
20
70.858793696092732
10
-26.255537298947729
20
67.841328960343276
42
-0.14056478739972139
10
-26.012130167980708
20
67.711892425347017
10
-23.504166448438319
20
65.289524594902005
42
0.14056478739969863
10
-23.260759317471276
20
65.160088059905746
10
-7.8060272258770347
20
61.875083344985399
42
0.41421356237312268
10
-7.2129975801012582
20
62.260201299943446
10
-7.2129975801012556
20
62.260201299943446
42
0.41421356237310136
10
-7.5981155350592902
20
62.853230945719218
10
-22.772318585889735
20
66.078607372286186
42
-0.14056478739972048
10
-23.015725716856771
20
66.208043907282445
10
-25.52368943639927
20
68.630411737727499
42
0.14056478739969538
10
-25.767096567366291
20
68.759848272723772
10
-39.897839456500513
20
71.763430395081386
42
-0.17157951772873317
10
-40.182148422862298
20
71.937463823526372
10
-43.946608974828706
20
76.576893236051546
42
0.18057677246881759
10
-44.248049697765914
20
76.754256740635753
10
-58.823204442347574
20
79.324249770106107
42
0.12637798336208833
10
-59.071251953367749
20
79.305139679887517
10
-65.784354105717696
20
77.018379671943165
42
-0.10868317032615592
10
-65.997841759538261
20
76.994412510546582
10
-80.49800623083587
20
78.518441208529154
42
0.12923198723423857
0
LINE
5
156
100
AcDbEntity
8
0
100
AcDbLine
10
-19.603434410509749
20
-17.651475600732251
30
0
11
-56.444650089810445
21
-9.820633285216033
31
0
0
LWPOLYLINE
5
157
100
AcDbEntity
8
0
100
AcDbPolyline
90
40
70
1
43
0.0
10
-36.859033530654408
20
17.95580132291974
10
-51.055088980749062
20
20.973266058668358
42
-0.23046144468767479
10
-51.400191026051232
20
21.242460322037957
10
-53.416347982036392
20
25.360038530364747
42
0.23967033903620416
10
-53.778581783913992
20
25.632562869873542
10
-67.393339661665294
20
28.033212019533668
42
0.22184630440918235
10
-67.801778939492891
20
27.923644492148497
10
-70.840682848678412
20
25.370705991580436
42
-0.20360281980224651
10
-71.214562269306384
20
25.256281393017236
10
-85.378672228810217
20
26.744989338529081
42
0.26006905283677489
10
-85.826610593752207
20
26.553411200683538
10
-88.498033427452356
20
23.095536304211173
42
-0.23230112625899488
10
-88.893707560760546
20
22.90121911404977
10
-103.19370756076162
20
22.901219114049173
42
-0.41421356237313667
10
-103.69370756076164
20
23.40121911404918
10
-103.69370756076164
20
23.401219114050352
42
-0.41421356237308465
10
-103.19370756076165
20
23.90121911405036
10
-89.384811663364601
20
23.901219114049784
42
0.23230112625892832
10
-88.989137530056439
20
24.095536304211148
10
-86.276896222427339
20
27.606246406899775
42
-0.2600690528367679
10
-85.828957857485406
20
27.797824544745286
10
-71.532522627889875
20
26.295208652914518
42
0.20360281980202352
10
-71.158643207262273
20
26.40963325147743
10
-68.087700781184552
20
28.989486839098383
42
-0.22184630440892131
10
-67.679261503357296
20
29.099054366483269
10
-53.10410675877457
20
26.529061337013175
42
-0.23967033903619323
10
-52.741872956896941
20
26.256536997504337
10
-50.716139764644659
20
22.119401332772316
42
0.23046144468767293
10
-50.371037719342468
20
21.850207069402686
10
-36.370592799072881
20
18.87432063530018
42
-0.14056478739968947
10
-36.127185668105867
20
18.744884100303949
10
-33.619221948562441
20
16.322516269858465
42
0.14056478739969017
10
-33.375814817595455
20
16.193079734862231
10
-18.201611766764994
20
12.967703308294922
42
-0.4142135623730917
10
-17.816493811806975
20
12.374673662519138
10
-17.816493811806971
20
12.374673662519143
42
-0.41421356237309476
10
-18.409523457582754
20
11.98955570756112
10
-33.864255549177464
20
15.27456042248189
42
-0.14056478739968711
10
-34.107662680144479
20
15.403996957478148
10
-36.615626399687372
20
17.826364787923477
42
0.14056478739968734
0
ARC
5
158
100
AcDbEntity
8
0
100
AcDbCircle
10
-96.893915098966545
20
-14.79878088595061
30
0
40
0.99999999999999645
210
0
220
0
230
1
100
AcDbArc
50
270
51
339.99999999999955
0
LINE
5
159
100
AcDbEntity
8
0
100
AcDbLine
10
-103.0777365045638
20
-9.7987808859510412
30
0
11
-104.37752896635413
21
-9.798780885951043
31
0
0
ARC
5
160
100
AcDbEntity
8
0
100
AcDbCircle
10
-105.7794939983842
20
-8.7987808859514125
30
0
40
0.99999999999995248
210
0
220
0
230
1
100
AcDbArc
50
224.99999999999963
51
270.00000000008714
0
LINE
5
161
100
AcDbEntity
8
0
100
AcDbLine
10
-100.43319264333303
20
-15.140801029276272
30
0
11
-102.13804388377784
21
-10.456760742625395
31
0
0
LINE
5
162
100
AcDbEntity
8
0
100
AcDbLine
10
-107.9008143419438
20
-8.0916741047648237
30
0
11
-106.48660077957072
21
-9.5058876671379284
31
0
0
LINE
5
163
100
AcDbEntity
8
0
100
AcDbLine
10
-95.95422247818064
20
-15.140801029276286
30
0
11
-94.24937123773546
21
-10.456760742624429
31
0
0
LWPOLYLINE
5
164
100
AcDbEntity
8
0
100
AcDbPolyline
90
40
70
1
43
0.0
10
-62.063047193913036
20
62.547934082966918
10
-67.566524822556389
20
60.131707054619341
42
-0.13033534343198699
10
-67.819788696588972
20
60.092266097494331
10
-82.2749901063858
20
61.611568987282283
42
0.15608879223801647
10
-82.573364107567798
20
61.549543586552815
10
-88.910750502145163
20
57.965983567109582
42
-0.12937407627162989
10
-89.156860271693375
20
57.901219114064247
10
-103.19370756081808
20
57.901219114064574
42
0.41421356237308465
10
-103.6937075608181
20
57.40121911406456
10
-103.6937075608181
20
57.401219114063906
42
0.41421356237308465
10
-103.19370756081808
20
56.901219114063899
10
-88.893707560753356
20
56.901219114064276
42
0.12937407627162559
10
-88.647597791205158
20
56.965983567109589
10
-82.359672096131334
20
60.521575371544863
42
-0.15608879223802591
10
-82.061298094949279
20
60.583600772274337
10
-67.660594518197627
20
59.070025835552201
42
0.13033534343208306
10
-67.407330644164944
20
59.109466792677239
10
-61.938396147743873
20
61.510528128467634
42
-0.1481273999552789
10
-61.650572416511558
20
61.545112014414642
10
-47.778171171322356
20
59.099033387674289
42
-0.19734923244089445
10
-47.457152061818633
20
58.895876681543449
10
-44.289978845871104
20
54.430111113624307
42
0.1882980700576371
10
-43.986091492942805
20
54.230284483632673
10
-29.790036042847881
20
51.212819747883444
42
-0.14056478739972614
10
-29.546628911880866
20
51.083383212887185
10
-27.038665192337724
20
48.661015382441676
42
0.14056478739971084
10
-26.79525806137071
20
48.531578847445438
10
-11.340525969776483
20
45.24657413252497
42
0.41421356237309825
10
-10.747496324000705
20
45.631692087482989
10
-10.747496324000704
20
45.631692087483003
42
0.41421356237307921
10
-11.132614278958739
20
46.224721733258782
10
-26.306817329789197
20
49.450098159825885
42
-0.14056478739969921
10
-26.550224460756226
20
49.579534694822144
10
-29.058188180299268
20
52.001902525267681
42
0.14056478739969269
10
-29.301595311266286
20
52.131339060263961
10
-43.396272213438813
20
55.127255120439749
42
-0.18829807005765276
10
-43.700159566367127
20
55.327081750431418
10
-46.879049608594741
20
59.809368233312057
42
0.19734923244085681
10
-47.200068718098478
20
60.012524939442926
10
-61.775223462680813
20
62.582517968913876
42
0.14812739995517274
0
LINE
5
165
100
AcDbEntity
8
0
100
AcDbLine
10
-108.19370756075648
20
-7.3845673235771407
30
0
11
-108.19370756075659
21
81.932337700188512
31
0
0
LINE
5
166
100
AcDbEntity
8
0
100
AcDbLine
10
-99.493500022547209
20
90.346551262561988
30
0
11
-96.893915098966659
21
90.346551262561988
31
0
0
ARC
5
167
100
AcDbEntity
8
0
100
AcDbCircle
10
-96.893915098966659
20
89.346551262562002
30
0
40
1.0000000000000064
210
0
220
-0
230
1
100
AcDbArc
50
20.000000000000085
51
90
0
ARC
5
168
100
AcDbEntity
8
0
100
AcDbCircle
10
-99.493500022547209
20
89.346551262561974
30
0
40
1.0000000000000142
210
0
220
-0
230
1
100
AcDbArc
50
90
51
159.99999999999943
0
LINE
5
169
100
AcDbEntity
8
0
100
AcDbLine
10
-95.954222478180753
20
89.688571405887672
30
0
11
-94.249371237735573
21
85.004531119235821
31
0
0
CIRCLE
5
170
100
AcDbEntity
8
0
100
AcDbCircle
10
-98.193707560756494
20
88.096551262562002
30
0
40
1.2499999999999989
210
0
220
0
230
1
0
LINE
5
171
100
AcDbEntity
8
0
100
AcDbLine
10
-100.43319264333313
20
89.688571405887657
30
0
11
-102.13804388377795
21
85.004531119236773
31
0
0
ARC
5
172
100
AcDbEntity
8
0
100
AcDbCircle
10
-107.19370756075642
20
-7.3845673235771381
30
0
40
1.0000000000000497
210
0
220
0
230
1
100
AcDbArc
50
180
51
225.00000000001248
0
LINE
5
173
100
AcDbEntity
8
0
100
AcDbLine
10
-99.49350002254711
20
-15.798780885950608
30
0
11
-96.893915098966545
21
-15.798780885950606
31
0
0
CIRCLE
5
174
100
AcDbEntity
8
0
100
AcDbCircle
10
-98.193707560756394
20
-13.548780885950611
30
0
40
1.2499999999999989
210
0
220
0
230
1
0
ARC
5
175
100
AcDbEntity
8
0
100
AcDbCircle
10
-103.0777365045639
20
85.346551262562457
30
0
40
1.000000000000032
210
0
220
0
230
1
100
AcDbArc
50
270
51
340
0
LINE
5
176
100
AcDbEntity
8
0
100
AcDbLine
10
-107.90081434194313
20
82.639444481375065
30
0
11
-106.48660077957038
21
84.053658043747618
31
0
0
ARC
5
177
100
AcDbEntity
8
0
100
AcDbCircle
10
-103.0777365045638
20
-10.798780885951073
30
0
40
1.0000000000000406
210
0
220
-0
230
1
100
AcDbArc
50
19.999999999999456
51
90
0
ARC
5
178
100
AcDbEntity
8
0
100
AcDbCircle
10
-56.652561780626804
20
-10.798780885950119
30
0
40
0.9999999999999819
210
0
220
-0
230
1
100
AcDbArc
50
78.000000000081769
51
90
0
LINE
5
179
100
AcDbEntity
8
0
100
AcDbLine
10
-93.309678616949554
20
-9.7987808859501087
30
0
11
-92.009886155159222
21
-9.7987808859501051
31
0
0
ARC
5
180
100
AcDbEntity
8
0
100
AcDbCircle
10
-93.309678616949654
20
85.346551262561491
30
0
40
1.0000000000000064
210
0
220
0
230
1
100
AcDbArc
50
199.9999999999998
51
270
0
ARC
5
181
100
AcDbEntity
8
0
100
AcDbCircle
10
-107.19370756075664
20
81.932337700188484
30
0
40
0.99999999999998546
210
0
220
0
230
1
100
AcDbArc
50
134.99999999999656
51
180
0
ARC
5
182
100
AcDbEntity
8
0
100
AcDbCircle
10
-99.49350002254711
20
-14.798780885950594
30
0
40
1.0000000000000073
210
0
220
0
230
1
100
AcDbArc
50
200.00000000000026
51
270
0
ARC
5
183
100
AcDbEntity
8
0
100
AcDbCircle
10
-93.309678616949554
20
-10.798780885950103
30
0
40
0.99999999999999534
210
-0
220
0
230
1
100
AcDbArc
50
90
51
159.99999999999963
0
ARC
5
184
100
AcDbEntity
8
0
100
AcDbCircle
10
-19.395522719693492
20
-16.673327999998481
30
0
40
0.99999999999965228
210
0
220
0
230
1
100
AcDbArc
50
258.00000000008379
51
269.99999999998903
0
LINE
5
185
100
AcDbEntity
8
0
100
AcDbLine
10
-103.0777365045639
20
84.346551262562429
30
0
11
-104.37752896635423
21
84.346551262562429
31
0
0
LINE
5
186
100
AcDbEntity
8
0
100
AcDbLine
10
-93.309678616949654
20
84.346551262561491
30
0
11
-92.009886155159322
21
84.346551262561519
31
0
0
LWPOLYLINE
5
187
100
AcDbEntity
8
0
100
AcDbPolyline
90
40
70
1
43
0.0
10
-69.660572835927397
20
43.192099554154325
10
-84.051973981936328
20
44.704696766006634
42
0.19652913108349762
10
-84.415320337229673
20
44.598879188862185
10
-88.931589974767235
20
41.009775743510076
42
-0.16947106120000177
10
-89.242672098426794
20
40.901219114049781
10
-103.19370756079107
20
40.90121911405015
42
0.41421356237308465
10
-103.69370756079107
20
40.401219114050164
10
-103.69370756079105
20
40.401219114049347
42
0.41421356237308465
10
-103.19370756079104
20
39.901219114049354
10
-88.893707560756553
20
39.901219114049788
42
0.16947106120000305
10
-88.582625437096979
20
40.009775743510133
10
-84.113238977037526
20
43.561620878948126
42
-0.19652913108352407
10
-83.74989262174411
20
43.667438456092604
10
-69.437578393756013
20
42.163153614277874
42
0.16042565261348352
10
-69.131874251732924
20
42.229406195660495
10
-64.878267306929033
20
44.730596073186312
42
-0.17838022501549267
10
-64.538003307706319
20
44.791991583390924
10
-50.774005981854486
20
42.365027492444341
42
-0.21688674894694887
10
-50.43247731587536
20
42.130526538458462
10
-47.844987146250105
20
37.832946148990246
42
0.20776663252801758
10
-47.520590236846409
20
37.601775271143566
10
-33.324534786752167
20
34.584310535394344
42
-0.14056478739966569
10
-33.081127655785146
20
34.454874000398078
10
-30.573163936241702
20
32.032506169952043
42
0.14056478739971434
10
-30.329756805274648
20
31.903069634955767
10
-14.87502471368083
20
28.618064920035881
42
0.41421356237310625
10
-14.281995067905061
20
29.003182874993922
10
-14.281995067905061
20
29.003182874993922
42
0.41421356237309936
10
-14.667113022863106
20
29.596212520769697
10
-29.841316073693534
20
32.821588947336352
42
-0.14056478739971373
10
-30.084723204660602
20
32.951025482332639
10
-32.592686924203697
20
35.373393312778546
42
0.14056478739971193
10
-32.836094055170747
20
35.502829847774827
10
-46.887888791680965
20
38.489631022260447
42
-0.20776663252801675
10
-47.21228570108466
20
38.720801900107119
10
-49.810559072458688
20
43.036292184235023
42
0.216886748946966
10
-50.152087738437828
20
43.27079313822091
10
-64.727242483020888
20
45.840786167691263
42
0.17838022501539821
10
-65.067506482243431
20
45.779390657486765
10
-69.354868693904479
20
43.258352135536882
42
-0.16042565261333827
0
LINE
5
188
100
AcDbEntity
8
0
100
AcDbLine
10
-105.77949399838268
20
-9.7987808859501868
30
0
11
-104.37752896635413
21
-9.798780885951043
31
0
0
LINE
5
189
100
AcDbEntity
8
0
100
AcDbLine
10
-56.652561780626804
20
-9.7987808859501335
30
0
11
-92.009886155159222
21
-9.7987808859501051
31
0
0
LINE
5
190
100
AcDbEntity
8
0
100
AcDbLine
10
-6.1838214055973815
20
-17.673328000018326
30
0
11
-19.395522719693684
21
-17.673327999998133
31
0
0
LINE
5
191
100
AcDbEntity
8
0
100
AcDbLine
10
6.1838214055973992
20
-17.673328000018319
30
0
11
19.395522719693702
21
-17.673327999998115
31
0
0
LINE
5
192
100
AcDbEntity
8
0
100
AcDbLine
10
92.009886155159251
20
-9.7987808859500092
30
0
11
56.652561780626826
21
-9.7987808859500731
31
0
0
LINE
5
193
100
AcDbEntity
8
0
100
AcDbLine
10
92.009886155159251
20
84.346551262561604
30
0
11
6.1838214055806944
21
84.346551262562528
31
0
0
LINE
5
194
100
AcDbEntity
8
0
100
AcDbLine
10
105.77949399838272
20
-9.7987808859500749
30
0
11
104.37752896635416
21
-9.7987808859509329
31
0
0
LINE
5
195
100
AcDbEntity
8
0
100
AcDbLine
10
-105.77949399838369
20
84.346551262561007
30
0
11
-104.37752896635423
21
84.346551262562429
31
0
0
LINE
5
196
100
AcDbEntity
8
0
100
AcDbLine
10
-92.009886155159322
20
84.346551262561519
30
0
11
-6.183821405580785
21
84.346551262562528
31
0
0
LINE
5
197
100
AcDbEntity
8
0
100
AcDbLine
10
105.77949399838361
20
84.346551262561107
30
0
11
104.37752896635416
21
84.346551262562528
31
0
0
ENDSEC
0
SECTION
2
OBJECTS
0
DICTIONARY
5
C
100
AcDbDictionary
3
ACAD_GROUP
350
D
3
ACAD_MLINESTYLE
350
17
0
DICTIONARY
5
D
100
AcDbDictionary
0
DICTIONARY
5
1A
330
C
100
AcDbDictionary
0
DICTIONARY
5
17
100
AcDbDictionary
0
ENDSEC
0
EOF
