0
SECTION
2
HEADER
9
$INSUNITS
70
4
9
$ACADVER
1
AC1014
9
$HANDSEED
5
FFFF
0
ENDSEC
0
SECTION
2
TABLES
0
TABLE
2
VPORT
5
8
100
AcDbSymbolTable
0
ENDTAB
0
TABLE
2
LTYPE
5
5
100
AcDbSymbolTable
0
LTYPE
5
14
100
AcDbSymbolTableRecord
100
AcDbLinetypeTableRecord
2
BYBLOCK
70
0
0
LTYPE
5
15
100
AcDbSymbolTableRecord
100
AcDbLinetypeTableRecord
2
BYLAYER
70
0
0
ENDTAB
0
TABLE
2
LAYER
5
2
100
AcDbSymbolTable
70
2
0
LAYER
5
50
100
AcDbSymbolTableRecord
100
AcDbLayerTableRecord
2
0
70
0
6
CONTINUOUS
0
ENDTAB
0
TABLE
2
STYLE
5
3
100
AcDbSymbolTable
70
1
0
STYLE
5
11
100
AcDbSymbolTableRecord
100
AcDbTextStyleTableRecord
2
STANDARD
70
0
0
ENDTAB
0
TABLE
2
VIEW
5
6
100
AcDbSymbolTable
70
0
0
ENDTAB
0
TABLE
2
UCS
5
7
100
AcDbSymbolTable
70
0
0
ENDTAB
0
TABLE
2
APPID
5
9
100
AcDbSymbolTable
70
2
0
APPID
5
12
100
AcDbSymbolTableRecord
100
AcDbRegAppTableRecord
2
ACAD
70
0
0
ENDTAB
0
TABLE
2
DIMSTYLE
5
A
100
AcDbSymbolTable
70
1
0
ENDTAB
0
TABLE
2
BLOCK_RECORD
5
1
100
AcDbSymbolTable
70
1
0
BLOCK_RECORD
5
1F
100
AcDbSymbolTableRecord
100
AcDbBlockTableRecord
2
*MODEL_SPACE
0
BLOCK_RECORD
5
1B
100
AcDbSymbolTableRecord
100
AcDbBlockTableRecord
2
*PAPER_SPACE
0
ENDTAB
0
ENDSEC
0
SECTION
2
BLOCKS
0
BLOCK
5
20
100
AcDbEntity
100
AcDbBlockBegin
2
*MODEL_SPACE
0
ENDBLK
5
21
100
AcDbEntity
100
AcDbBlockEnd
0
BLOCK
5
1C
100
AcDbEntity
100
AcDbBlockBegin
2
*PAPER_SPACE
0
ENDBLK
5
1D
100
AcDbEntity
100
AcDbBlockEnd
0
ENDSEC
0
SECTION
2
ENTITIES
0
LINE
5
100
100
AcDbEntity
8
0
100
AcDbLine
10
25.93483117948244
20
64.60390492617509
30
0
11
12.436394291477853
21
61.734723593373808
31
0
0
LINE
5
101
100
AcDbEntity
8
0
100
AcDbLine
10
43.125664610245387
20
70.302610561699211
30
0
11
29.627227720842178
21
67.433429229107688
31
0
0
LINE
5
102
100
AcDbEntity
8
0
100
AcDbLine
10
61.629904541289442
20
77.793064471647369
30
0
11
48.039557549205234
21
75.396719620559878
31
0
0
LINE
5
103
100
AcDbEntity
8
0
100
AcDbLine
10
83.154697858274602
20
77.001416069117099
30
0
11
69.430295701987575
21
75.558923275995568
31
0
0
LINE
5
104
100
AcDbEntity
8
0
100
AcDbLine
10
106.12815036276159
20
73.424954187637042
30
0
11
92.328150361740313
21
73.424954187041337
31
0
0
LINE
5
105
100
AcDbEntity
8
0
100
AcDbLine
10
92.328150362958269
20
25.624954186549687
30
0
11
106.12815036297646
21
25.624954186556486
31
0
0
LINE
5
106
100
AcDbEntity
8
0
100
AcDbLine
10
74.426756246278586
20
28.020776677402338
30
0
11
88.151158402386898
21
29.463269470247212
31
0
0
LINE
5
107
100
AcDbEntity
8
0
100
AcDbLine
10
56.339940442001421
20
28.322909026632146
30
0
11
69.93028743355039
21
30.719253878546198
31
0
0
LINE
5
108
100
AcDbEntity
8
0
100
AcDbLine
10
39.565406541733239
20
20.677973913985504
30
0
11
53.063843431958304
21
23.547155246806991
31
0
0
LINE
5
109
100
AcDbEntity
8
0
100
AcDbLine
10
22.374573110160934
20
14.979268277792396
30
0
11
35.873010000353027
21
17.848449610771798
31
0
0
LINE
5
110
100
AcDbEntity
8
0
100
AcDbLine
10
23.47572791894644
20
-11.845062345218649
30
0
11
36.97416480907296
21
-8.9758810119335628
31
0
0
LINE
5
111
100
AcDbEntity
8
0
100
AcDbLine
10
45.484048936219722
20
-7.1670493015748082
30
0
11
58.982485826333928
21
-4.2978679682318264
31
0
0
LINE
5
112
100
AcDbEntity
8
0
100
AcDbLine
10
87.828150362977851
20
-3.8837306012004791
30
0
11
101.62815036297786
21
-3.8837306010552024
31
0
0
LINE
5
113
100
AcDbEntity
8
0
100
AcDbLine
10
106.12815036297646
20
25.624954186556486
30
0
11
106.12815036307322
21
39.424954186556491
31
0
0
LINE
5
114
100
AcDbEntity
8
0
100
AcDbLine
10
106.12815036285775
20
42.624954186556003
30
0
11
106.12815036297914
21
56.424954187343133
31
0
0
LINE
5
115
100
AcDbEntity
8
0
100
AcDbLine
10
106.12815036276159
20
59.624954187041354
30
0
11
106.12815036276159
21
73.424954187637042
31
0
0
LINE
5
116
100
AcDbEntity
8
0
100
AcDbLine
10
101.62815036297786
20
-3.8837306010552024
30
0
11
101.62815036295066
21
9.9162693983094385
31
0
0
LINE
5
117
100
AcDbEntity
8
0
100
AcDbLine
10
58.982485826333928
20
-4.2978679682318264
30
0
11
56.113304493392313
21
9.2005689219575864
31
0
0
LINE
5
118
100
AcDbEntity
8
0
100
AcDbLine
10
36.97416480907296
20
-8.9758810119335628
30
0
11
34.104983476499136
21
4.5225558783945266
31
0
0
LINE
5
119
100
AcDbEntity
8
0
100
AcDbLine
10
20.052025815318203
20
4.2621896618310133
30
0
11
26.33040374145849
21
-25.275256168101485
31
0
0
LINE
5
120
100
AcDbEntity
8
0
100
AcDbLine
10
20.187364008645954
20
-10.80372951168113
30
0
11
23.24684071268749
21
-25.197435731072865
31
0
0
LINE
5
121
100
AcDbEntity
8
0
100
AcDbLine
10
42.0603468316354
20
8.9402027051987627
30
0
11
49.284623321331942
21
-25.047345986712514
31
0
0
LINE
5
122
100
AcDbEntity
8
0
100
AcDbLine
10
58.982485826333928
20
-4.2978679682318264
30
0
11
61.076976071588767
21
-14.151669843996824
31
0
0
LINE
5
123
100
AcDbEntity
8
0
100
AcDbLine
10
111.12815036306699
20
-6.6766238198676451
30
0
11
111.12815036306836
21
84.127205038269196
31
0
0
LINE
5
124
100
AcDbEntity
8
0
100
AcDbLine
10
108.92104358188178
20
86.334311819455706
30
0
11
1.6393401234383693e-15
21
86.334311819455678
31
0
0
LINE
5
125
100
AcDbEntity
8
0
100
AcDbLine
10
108.92104358188047
20
-8.8837306010541823
30
0
11
61.508922248003522
21
-8.8837306010541823
31
0
0
LINE
5
126
100
AcDbEntity
8
0
100
AcDbLine
10
3.8393837693099202e-17
20
-18.758336903635684
30
0
11
14.947447882367129
21
-18.758336903635684
31
0
0
LINE
5
127
100
AcDbEntity
8
0
100
AcDbLine
10
15.051403727776053
20
-18.747410704002583
30
0
11
61.404966402594646
21
-8.8946568006872795
31
0
0
LINE
5
128
100
AcDbEntity
8
0
100
AcDbLine
10
3.8393837693099202e-17
20
-18.758336903635684
30
0
11
0
21
-14.499999675899744
31
0
0
LINE
5
129
100
AcDbEntity
8
0
100
AcDbLine
10
1.6393401234383693e-15
20
86.334311819455678
30
0
11
0
21
78.311704579164029
31
0
0
LINE
5
130
100
AcDbEntity
8
0
100
AcDbLine
10
42.0603468316354
20
8.9402027051987627
30
0
11
27.836869579299261
21
75.856402045525215
31
0
0
LINE
5
131
100
AcDbEntity
8
0
100
AcDbLine
10
28.384630006068832
20
70.874524679009255
30
0
11
41.277712134446681
21
10.21734229232516
31
0
0
LINE
5
132
100
AcDbEntity
8
0
100
AcDbLine
10
25.279054324445038
20
70.093959634470281
30
0
11
37.984012458647094
21
10.321831057289721
31
0
0
LINE
5
133
100
AcDbEntity
8
0
100
AcDbLine
10
24.453690018342755
20
5.1977922704552393
30
0
11
8.8215324500912633
21
78.741311442006378
31
0
0
LINE
5
134
100
AcDbEntity
8
0
100
AcDbLine
10
20.6894264879056
20
8.478056781451869
30
0
11
8.8782164143857436
21
64.045431322571162
31
0
0
LINE
5
135
100
AcDbEntity
8
0
100
AcDbLine
10
8.8782164143857454
20
64.045431322571162
30
0
11
15.890312350243121
21
6.9364928347755583
31
0
0
LINE
5
136
100
AcDbEntity
8
0
100
AcDbLine
10
108.12815036286605
20
23.424970243492513
30
0
11
108.12815036276245
21
78.67041434235864
31
0
0
LINE
5
137
100
AcDbEntity
8
0
100
AcDbLine
10
91.828150362966795
20
78.240457478038834
30
0
11
91.828150363498239
21
19.851122754721011
31
0
0
LINE
5
138
100
AcDbEntity
8
0
100
AcDbLine
10
92.328150362993725
20
19.624954186549687
30
0
11
92.328150362664658
21
75.284389068408927
31
0
0
LINE
5
139
100
AcDbEntity
8
0
100
AcDbLine
10
83.632694937255138
20
77.236963766779965
30
0
11
89.672786436435743
21
19.769331899328808
31
0
0
LINE
5
140
100
AcDbEntity
8
0
100
AcDbLine
10
75.681097805522498
20
16.086513932986431
30
0
11
69.389341561973779
21
75.948575889692037
31
0
0
LINE
5
141
100
AcDbEntity
8
0
100
AcDbLine
10
68.755942945059303
20
77.191575060341194
30
0
11
75.000251195441194
21
17.780950603725707
31
0
0
LINE
5
142
100
AcDbEntity
8
0
100
AcDbLine
10
62.297305899488222
20
76.887428522980258
30
0
11
72.737687215506213
21
17.67708377571962
31
0
0
LINE
5
143
100
AcDbEntity
8
0
100
AcDbLine
10
47.170972438264876
20
77.44332532975767
30
0
11
58.200302021187596
21
14.892888983711856
31
0
0
LINE
5
144
100
AcDbEntity
8
0
100
AcDbLine
10
42.750739642316773
20
74.471361028862418
30
0
11
55.661501262220654
21
13.731003175382748
31
0
0
LINE
5
145
100
AcDbEntity
8
0
100
AcDbLine
10
7.9103390504542419e-15
20
0
30
0
11
113.12815036286658
21
24.046130669267892
31
0
0
LINE
5
146
100
AcDbEntity
8
0
100
AcDbLine
10
110.98170375366163
20
84.480758428862472
30
0
11
109.27459697247507
21
86.187865210048997
31
0
0
LINE
5
147
100
AcDbEntity
8
0
100
AcDbLine
10
110.98170375366026
20
-7.0301772104609164
30
0
11
109.27459697247374
21
-8.7372839916474447
31
0
0
ARC
5
148
100
AcDbEntity
8
0
100
AcDbCircle
10
108.92104358188178
20
85.834311819455706
30
0
40
0.50000000000002409
210
0
220
-0
230
1
100
AcDbArc
50
45
51
90
0
ARC
5
149
100
AcDbEntity
8
0
100
AcDbCircle
10
110.62815036306836
20
84.127205038269196
30
0
40
0.50000000000000711
210
-0
220
0
230
1
100
AcDbArc
50
0
51
45
0
ARC
5
150
100
AcDbEntity
8
0
100
AcDbCircle
10
110.62815036306699
20
-6.6766238198676451
30
0
40
0.49999999999999745
210
0
220
0
230
1
100
AcDbArc
50
-45.000000000000718
51
0
0
ARC
5
151
100
AcDbEntity
8
0
100
AcDbCircle
10
108.92104358188047
20
-8.3837306010541504
30
0
40
0.50000000000003264
210
-0
220
0
230
1
100
AcDbArc
50
270
51
314.99999999999858
0
ARC
5
152
100
AcDbEntity
8
0
100
AcDbCircle
10
61.508922248003522
20
-9.3837306010541806
30
0
40
0.49999999999999822
210
0
220
-0
230
1
100
AcDbArc
50
90
51
101.99999999999966
0
ARC
5
153
100
AcDbEntity
8
0
100
AcDbCircle
10
14.947447882367129
20
-18.258336903635463
30
0
40
0.50000000000022027
210
0
220
0
230
1
100
AcDbArc
50
270
51
281.99999999999983
0
LINE
5
154
100
AcDbEntity
8
0
100
AcDbLine
10
20.063865380385735
20
11.421090403201434
30
0
11
36.985818873291095
21
15.017962653992743
31
0
0
LINE
5
155
100
AcDbEntity
8
0
100
AcDbLine
10
56.889425631597973
20
22.327238419739128
30
0
11
71.46458037595275
21
24.897231449291969
31
0
0
LINE
5
156
100
AcDbEntity
8
0
100
AcDbLine
10
74.452137615127953
20
22.995902968956777
30
0
11
89.171061665645766
21
24.542924224950315
31
0
0
LINE
5
157
100
AcDbEntity
8
0
100
AcDbLine
10
91.828150363472986
20
22.624954186549438
30
0
11
108.12815036286756
21
22.624954186557463
31
0
0
LINE
5
158
100
AcDbEntity
8
0
100
AcDbLine
10
89.171061665645766
20
24.542924224950315
30
0
11
91.828150363472986
21
22.624954186549438
31
0
0
LINE
5
159
100
AcDbEntity
8
0
100
AcDbLine
10
71.46458037595275
20
24.897231449291969
30
0
11
74.452137615127953
21
22.995902968956777
31
0
0
LINE
5
160
100
AcDbEntity
8
0
100
AcDbLine
10
54.176652304497182
20
20.716668289937104
30
0
11
56.889425631597973
21
22.327238419739128
31
0
0
LINE
5
161
100
AcDbEntity
8
0
100
AcDbLine
10
20.063865380385735
20
11.421090403201434
30
0
11
15.40983735866984
21
10.849647616125184
31
0
0
LINE
5
162
100
AcDbEntity
8
0
100
AcDbLine
10
39.700067813614311
20
17.639575266349134
30
0
11
54.176652304497182
21
20.716668289937104
31
0
0
LINE
5
163
100
AcDbEntity
8
0
100
AcDbLine
10
36.985818873291095
20
15.017962653992743
30
0
11
39.700067813614311
21
17.639575266349134
31
0
0
LINE
5
164
100
AcDbEntity
8
0
100
AcDbLine
10
11.812659216597293
20
64.669166395065105
30
0
11
25.800169907120114
21
67.642303573725343
31
0
0
LINE
5
165
100
AcDbEntity
8
0
100
AcDbLine
10
28.514418847889154
20
70.263916185891532
30
0
11
42.991003338544431
21
73.341009209371862
31
0
0
LINE
5
166
100
AcDbEntity
8
0
100
AcDbLine
10
47.02620914008682
20
78.264318790860784
30
0
11
61.601363884610279
21
80.834311819455706
31
0
0
LINE
5
167
100
AcDbEntity
8
0
100
AcDbLine
10
68.61944936459706
20
78.490224730476484
30
0
11
83.338373416025291
21
80.037245986842294
31
0
0
LINE
5
168
100
AcDbEntity
8
0
100
AcDbLine
10
91.828150362983308
20
76.424954187371569
30
0
11
108.12815036276668
21
76.424954187371554
31
0
0
LINE
5
169
100
AcDbEntity
8
0
100
AcDbLine
10
83.338373416025291
20
80.037245986842294
30
0
11
91.828150362983308
21
76.424954187371569
31
0
0
LINE
5
170
100
AcDbEntity
8
0
100
AcDbLine
10
68.61944936459706
20
78.490224730476484
30
0
11
61.601363884610279
21
80.834311819455706
31
0
0
LINE
5
171
100
AcDbEntity
8
0
100
AcDbLine
10
47.02620914008682
20
78.264318790860784
30
0
11
42.991003338544431
21
73.341009209371862
31
0
0
LINE
5
172
100
AcDbEntity
8
0
100
AcDbLine
10
28.514418847889154
20
70.263916185891532
30
0
11
25.800169907120114
21
67.642303573725343
31
0
0
LINE
5
173
100
AcDbEntity
8
0
100
AcDbLine
10
11.812659216597293
20
64.669166395065105
30
0
11
8.8782164143782101
21
64.045431322606618
31
0
0
LWPOLYLINE
5
174
100
AcDbEntity
8
0
100
AcDbPolyline
90
22
70
1
43
0.0
10
11.916615062006404
20
64.180092594698252
10
8.9821722597873226
20
63.556357522239757
42
-0.99999999999999989
10
8.7742605689690993
20
64.534505122973471
10
11.70870337118818
20
65.158240195431958
10
25.555949541328498
20
68.101563229915783
10
28.270198482104462
20
70.723175842088665
10
42.715481427218776
20
73.793615516675089
10
46.756938704444657
20
78.724552453903655
10
61.63945568338066
20
81.348741737258081
10
68.675013217069591
20
78.998818866480832
10
83.414937107470664
20
80.548047294862613
10
91.930099793155918
20
76.924954187371554
10
108.12815036276668
20
76.924954187371554
42
-0.99999999999999989
10
108.12815036276668
20
75.924954187371554
10
91.726200932810741
20
75.924954187371569
10
83.261809724579919
20
79.526444678821989
10
68.563885512124514
20
77.981630594472122
10
61.563272085839898
20
80.319881901653332
10
47.295479575728976
20
77.804085127817913
10
43.266525249870078
20
72.88840290206862
10
28.758639213673845
20
69.804656529694398
10
26.04439027291172
20
67.183043917534889
0
LWPOLYLINE
5
175
100
AcDbEntity
8
0
100
AcDbPolyline
90
22
70
1
43
0.0
10
20.146467802513108
20
10.927477792602435
10
15.470772030372419
20
10.353374540304523
42
-0.99999999999999989
10
15.348902686967261
20
11.345920691945846
10
19.98126295825837
20
11.914703013800434
10
36.741598507472055
20
15.477222310180288
10
39.455847447797552
20
18.098834922538881
10
53.992179981444508
20
21.188627784661151
10
56.712683499510192
20
22.803787319166233
10
71.569109699428878
20
25.423376095240489
10
74.573394783859172
20
23.51140175072533
10
89.308796964558752
20
25.060154927989934
10
91.989756476520355
20
23.124954186549516
10
108.1281503628673
20
23.124954186557463
42
-0.99999999999999989
10
108.1281503628678
20
22.124954186557467
10
91.666544250425602
20
22.12495418654936
10
89.033326366732766
20
24.025693521910696
10
74.330880446396733
20
22.480404187188224
10
71.360051052476621
20
24.371086803343445
10
57.066167763685755
20
21.850689520312024
10
54.361124627549856
20
20.244708795213061
10
39.944288179431069
20
17.18031561015939
10
37.230039239110127
20
14.558702997805195
0
LINE
5
176
100
AcDbEntity
8
0
100
AcDbLine
10
3.8393837693099202e-17
20
-18.758336903635684
30
0
11
-14.947447882367129
21
-18.758336903635684
31
0
0
ARC
5
177
100
AcDbEntity
8
0
100
AcDbCircle
10
-14.947447882367129
20
-18.258336903635463
30
0
40
0.50000000000022105
210
0
220
0
230
1
100
AcDbArc
50
258.00000000000017
51
270
0
LINE
5
178
100
AcDbEntity
8
0
100
AcDbLine
10
-15.051403727776053
20
-18.747410704002583
30
0
11
-61.404966402594646
21
-8.8946568006872813
31
0
0
ARC
5
179
100
AcDbEntity
8
0
100
AcDbCircle
10
-61.508922248003522
20
-9.3837306010541823
30
0
40
0.499999999999998
210
0
220
-0
230
1
100
AcDbArc
50
78.000000000000341
51
90
0
LINE
5
180
100
AcDbEntity
8
0
100
AcDbLine
10
-108.92104358188047
20
-8.8837306010541859
30
0
11
-61.508922248003522
21
-8.8837306010541841
31
0
0
ARC
5
181
100
AcDbEntity
8
0
100
AcDbCircle
10
-108.92104358188047
20
-8.3837306010541504
30
0
40
0.50000000000002731
210
0
220
0
230
1
100
AcDbArc
50
225.00000000000159
51
270
0
LINE
5
182
100
AcDbEntity
8
0
100
AcDbLine
10
-110.98170375366026
20
-7.0301772104609173
30
0
11
-109.27459697247374
21
-8.7372839916474465
31
0
0
ARC
5
183
100
AcDbEntity
8
0
100
AcDbCircle
10
-110.62815036306699
20
-6.6766238198676486
30
0
40
0.50000000000000711
210
0
220
0
230
1
100
AcDbArc
50
180
51
225.00000000000045
0
LINE
5
184
100
AcDbEntity
8
0
100
AcDbLine
10
-111.12815036306699
20
-6.6766238198676486
30
0
11
-111.12815036306836
21
84.127205038269196
31
0
0
ARC
5
185
100
AcDbEntity
8
0
100
AcDbCircle
10
-110.62815036306836
20
84.127205038269196
30
0
40
0.499999999999999
210
0
220
0
230
1
100
AcDbArc
50
135
51
180
0
LINE
5
186
100
AcDbEntity
8
0
100
AcDbLine
10
-110.98170375366163
20
84.480758428862472
30
0
11
-109.27459697247507
21
86.187865210048997
31
0
0
ARC
5
187
100
AcDbEntity
8
0
100
AcDbCircle
10
-108.92104358188178
20
85.834311819455706
30
0
40
0.50000000000000711
210
0
220
-0
230
1
100
AcDbArc
50
90
51
135
0
LINE
5
188
100
AcDbEntity
8
0
100
AcDbLine
10
-108.92104358188178
20
86.334311819455706
30
0
11
-3.4576161229211183e-15
21
86.334311819455678
31
0
0
LWPOLYLINE
5
189
100
AcDbEntity
8
0
100
AcDbPolyline
90
22
70
1
43
0.0
10
-39.455847447797552
20
18.098834922538881
10
-53.992179981444508
20
21.188627784661158
10
-56.712683499510192
20
22.803787319166233
10
-71.569109699428878
20
25.423376095240489
10
-74.573394783859172
20
23.511401750725334
10
-89.308796964558752
20
25.060154927989934
10
-91.989756476520355
20
23.124954186549516
10
-108.1281503628673
20
23.124954186557467
42
0.99999999999999989
10
-108.1281503628678
20
22.124954186557471
10
-91.666544250425602
20
22.12495418654936
10
-89.033326366732766
20
24.025693521910696
10
-74.330880446396733
20
22.480404187188228
10
-71.360051052476621
20
24.371086803343445
10
-57.066167763685755
20
21.850689520312024
10
-54.361124627549856
20
20.244708795213064
10
-39.944288179431069
20
17.18031561015939
10
-37.230039239110127
20
14.558702997805193
10
-20.146467802513108
20
10.927477792602438
10
-15.470772030372419
20
10.353374540304523
42
0.99999999999999989
10
-15.348902686967261
20
11.345920691945846
10
-19.98126295825837
20
11.914703013800432
10
-36.741598507472055
20
15.477222310180288
0
LWPOLYLINE
5
190
100
AcDbEntity
8
0
100
AcDbPolyline
90
22
70
1
43
0.0
10
-28.270198482104462
20
70.723175842088665
10
-25.555949541328498
20
68.101563229915783
10
-11.70870337118818
20
65.158240195431972
10
-8.7742605689691011
20
64.534505122973485
42
-0.99999999999999989
10
-8.9821722597873244
20
63.556357522239757
10
-11.916615062006404
20
64.180092594698252
10
-26.04439027291172
20
67.183043917534889
10
-28.758639213673845
20
69.804656529694398
10
-43.266525249870078
20
72.88840290206862
10
-47.295479575728976
20
77.804085127817913
10
-61.563272085839898
20
80.319881901653332
10
-68.563885512124514
20
77.981630594472136
10
-83.261809724579919
20
79.526444678821989
10
-91.726200932810741
20
75.924954187371569
10
-108.12815036276668
20
75.924954187371569
42
-0.99999999999999989
10
-108.12815036276668
20
76.924954187371554
10
-91.930099793155918
20
76.924954187371554
10
-83.414937107470664
20
80.548047294862613
10
-68.675013217069591
20
78.998818866480846
10
-61.63945568338066
20
81.348741737258081
10
-46.756938704444657
20
78.724552453903655
10
-42.715481427218776
20
73.793615516675104
0
ENDSEC
0
SECTION
2
OBJECTS
0
DICTIONARY
5
C
100
AcDbDictionary
3
ACAD_GROUP
350
D
3
ACAD_MLINESTYLE
350
17
0
DICTIONARY
5
D
100
AcDbDictionary
0
DICTIONARY
5
1A
330
C
100
AcDbDictionary
0
DICTIONARY
5
17
100
AcDbDictionary
0
ENDSEC
0
EOF
