0
SECTION
2
HEADER
9
$INSUNITS
70
4
9
$ACADVER
1
AC1014
9
$HANDSEED
5
FFFF
0
ENDSEC
0
SECTION
2
TABLES
0
TABLE
2
VPORT
5
8
100
AcDbSymbolTable
0
ENDTAB
0
TABLE
2
LTYPE
5
5
100
AcDbSymbolTable
0
LTYPE
5
14
100
AcDbSymbolTableRecord
100
AcDbLinetypeTableRecord
2
BYBLOCK
70
0
0
LTYPE
5
15
100
AcDbSymbolTableRecord
100
AcDbLinetypeTableRecord
2
BYLAYER
70
0
0
ENDTAB
0
TABLE
2
LAYER
5
2
100
AcDbSymbolTable
70
2
0
LAYER
5
50
100
AcDbSymbolTableRecord
100
AcDbLayerTableRecord
2
0
70
0
6
CONTINUOUS
0
ENDTAB
0
TABLE
2
STYLE
5
3
100
AcDbSymbolTable
70
1
0
STYLE
5
11
100
AcDbSymbolTableRecord
100
AcDbTextStyleTableRecord
2
STANDARD
70
0
0
ENDTAB
0
TABLE
2
VIEW
5
6
100
AcDbSymbolTable
70
0
0
ENDTAB
0
TABLE
2
UCS
5
7
100
AcDbSymbolTable
70
0
0
ENDTAB
0
TABLE
2
APPID
5
9
100
AcDbSymbolTable
70
2
0
APPID
5
12
100
AcDbSymbolTableRecord
100
AcDbRegAppTableRecord
2
ACAD
70
0
0
ENDTAB
0
TABLE
2
DIMSTYLE
5
A
100
AcDbSymbolTable
70
1
0
ENDTAB
0
TABLE
2
BLOCK_RECORD
5
1
100
AcDbSymbolTable
70
1
0
BLOCK_RECORD
5
1F
100
AcDbSymbolTableRecord
100
AcDbBlockTableRecord
2
*MODEL_SPACE
0
BLOCK_RECORD
5
1B
100
AcDbSymbolTableRecord
100
AcDbBlockTableRecord
2
*PAPER_SPACE
0
ENDTAB
0
ENDSEC
0
SECTION
2
BLOCKS
0
BLOCK
5
20
100
AcDbEntity
100
AcDbBlockBegin
2
*MODEL_SPACE
0
ENDBLK
5
21
100
AcDbEntity
100
AcDbBlockEnd
0
BLOCK
5
1C
100
AcDbEntity
100
AcDbBlockBegin
2
*PAPER_SPACE
0
ENDBLK
5
1D
100
AcDbEntity
100
AcDbBlockEnd
0
ENDSEC
0
SECTION
2
ENTITIES
0
LINE
5
100
100
AcDbEntity
8
0
100
AcDbLine
10
21.325539646481015
20
4.5328833819045817
30
0
11
5.6476493089449793
21
78.291558316884874
31
0
0
LINE
5
101
100
AcDbEntity
8
0
100
AcDbLine
10
5.2584548414875903e-09
20
1.9387045606711586e-24
30
0
11
113.12815000000001
21
24.046130591018191
31
0
0
LINE
5
102
100
AcDbEntity
8
0
100
AcDbLine
10
50.045204256680464
20
42.737215445545438
30
0
11
47.222926819982348
21
38.049675253710554
31
0
0
LINE
5
103
100
AcDbEntity
8
0
100
AcDbLine
10
32.746342330875365
20
34.972582231388067
30
0
11
47.222926819982348
21
38.049675253710554
31
0
0
LWPOLYLINE
5
104
100
AcDbEntity
8
0
100
AcDbPolyline
90
4
70
1
43
0.0
10
33.811272838492521
20
-9.4773435330610347
10
30.942091506445443
20
4.0210933573288274
10
17.443654616055717
20
1.1519120252817274
10
20.312835948102816
20
-12.346524865107927
0
LWPOLYLINE
5
105
100
AcDbEntity
8
0
100
AcDbPolyline
90
4
70
1
43
0.0
10
89.199999999920891
20
41.960045296498464
10
102.9999999999209
20
41.960045296508468
10
103.00000000000004
20
55.760045374791893
10
89.199999999920422
20
55.760045296498461
0
LINE
5
106
100
AcDbEntity
8
0
100
AcDbLine
10
85.023008057487033
20
28.79836058199826
30
0
11
89.200000018066561
21
29.237380127410756
31
0
0
LWPOLYLINE
5
107
100
AcDbEntity
8
0
100
AcDbPolyline
90
4
70
1
43
0.0
10
32.902757425979452
20
36.641574237933298
10
46.401194316372845
20
39.510755569962598
10
43.532012984343538
20
53.009192460356047
10
30.033576093950334
20
50.140011128326741
0
LINE
5
108
100
AcDbEntity
8
0
100
AcDbLine
10
17.913862609336668
20
10.964093205092363
30
0
11
33.857668500464023
21
14.35305376577195
31
0
0
LWPOLYLINE
5
109
100
AcDbEntity
8
0
100
AcDbPolyline
90
4
70
1
43
0.0
10
83.580515313881051
20
42.522762738188135
10
69.856113086709613
20
41.080269945614361
10
71.298605871908208
20
27.355867788702387
10
85.023008057487033
20
28.79836058199826
0
LWPOLYLINE
5
110
100
AcDbEntity
8
0
100
AcDbPolyline
90
8
70
1
43
0.0
10
39.451975632995442
20
5.8299250666628524
10
42.321156965052054
20
-7.6685118237247538
10
55.819593855439692
20
-4.7993304916682646
10
56.100274637923555
20
-6.1198297526844039
10
57.90984769931606
20
-5.7351931248363748
10
57.62916691683229
20
-4.4146938638201743
10
55.819593855439692
20
-4.7993304916682646
10
52.950412523392316
20
8.6991064072252069
0
LINE
5
111
100
AcDbEntity
8
0
100
AcDbLine
10
69.191606591284881
20
42.619240740369861
30
0
11
64.620359001771789
21
45.307208474115882
31
0
0
LWPOLYLINE
5
112
100
AcDbEntity
8
0
100
AcDbPolyline
90
8
70
1
43
0.0
10
98.500000091608925
20
-4.3851930853644481
10
98.500000091608925
20
9.4148069146311801
10
84.700000062324108
20
9.4148068751614602
10
82.850004433249907
20
9.41078538208364
10
82.847069830259585
20
10.760782192461679
10
84.697065459260514
20
10.764803685566896
10
84.700000062324108
20
9.4148068751614602
10
84.700000091608914
20
-4.3851931248385672
0
LINE
5
113
100
AcDbEntity
8
0
100
AcDbLine
10
88.700000010844462
20
40.360045349381615
30
0
11
104.99999999955442
21
40.360045349381615
31
0
0
LINE
5
114
100
AcDbEntity
8
0
100
AcDbLine
10
66.802137058934193
20
30.054344989899299
30
0
11
64.405792207555152
21
43.64469198175901
31
0
0
LINE
5
115
100
AcDbEntity
8
0
100
AcDbLine
10
88.700000011010914
20
21.960045296401063
30
0
11
104.99999999958894
21
21.960045296373622
31
0
0
LWPOLYLINE
5
116
100
AcDbEntity
8
0
100
AcDbPolyline
90
4
70
1
43
0.0
10
36.437256169892748
20
20.013065025461021
10
49.935693059999394
20
22.882246358839776
10
47.066511726620689
20
36.380683248946383
10
33.568074836513986
20
33.511501915567635
0
LINE
5
117
100
AcDbEntity
8
0
100
AcDbLine
10
66.802137058934193
20
30.054344989899299
30
0
11
70.938329621610308
21
30.783667335959727
31
0
0
LWPOLYLINE
5
118
100
AcDbEntity
8
0
100
AcDbPolyline
90
4
70
1
43
0.0
10
19.246422738301
20
14.314359389241725
10
32.744859628452616
20
17.18354072240874
10
29.875678295355357
20
30.681977612482058
10
16.37724140519299
20
27.812796279365841
0
LWPOLYLINE
5
119
100
AcDbEntity
8
0
100
AcDbPolyline
90
4
70
1
43
0.0
10
103.00000001503498
20
24.960045362901848
10
102.99999998797121
20
38.760045362913502
10
89.199999951458736
20
38.760045296498461
10
89.200000015034973
20
24.960045296402619
0
LINE
5
120
100
AcDbEntity
8
0
100
AcDbLine
10
36.571917441790227
20
16.974666378050006
30
0
11
33.857668500464023
21
14.35305376577195
31
0
0
LINE
5
121
100
AcDbEntity
8
0
100
AcDbLine
10
53.211790070186154
20
27.65800013805616
30
0
11
49.075597507535278
21
26.928677791852913
31
0
0
LINE
5
122
100
AcDbEntity
8
0
100
AcDbLine
10
69.191606591284881
20
42.619240740369861
30
0
11
83.910530665501597
21
44.166261998014427
31
0
0
LINE
5
123
100
AcDbEntity
8
0
100
AcDbLine
10
36.571917441790227
20
16.974666378050006
30
0
11
51.048501929165823
21
20.051759400687118
31
0
0
LINE
5
124
100
AcDbEntity
8
0
100
AcDbLine
10
88.700000011010914
20
21.960045296401063
30
0
11
86.042911315979893
21
23.878015335506014
31
0
0
LWPOLYLINE
5
125
100
AcDbEntity
8
0
100
AcDbPolyline
90
4
70
1
43
0.0
10
69.521621997967017
20
44.262740010132148
10
83.246024154156771
20
45.705232802202218
10
81.803531360973579
20
59.429634958274846
10
68.079129205896209
20
57.987142166321803
0
LINE
5
126
100
AcDbEntity
8
0
100
AcDbLine
10
61.668339982885044
20
62.048940276692747
30
0
11
67.414622715097906
21
59.526112966968157
31
0
0
LINE
5
127
100
AcDbEntity
8
0
100
AcDbLine
10
30.942091506445443
20
4.0210933573288274
30
0
11
39.451975632995449
21
5.8299250666628577
31
0
0
LINE
5
128
100
AcDbEntity
8
0
100
AcDbLine
10
53.761275258789041
20
21.662329530923934
30
0
11
51.048501929165823
21
20.051759400687118
31
0
0
LINE
5
129
100
AcDbEntity
8
0
100
AcDbLine
10
71.323987241720758
20
22.330994077856833
30
0
11
68.336430001641759
21
24.232322560061487
31
0
0
LINE
5
130
100
AcDbEntity
8
0
100
AcDbLine
10
88.700000010844462
20
40.360045349381615
30
0
11
83.910530665501597
21
44.166261998014427
31
0
0
LINE
5
131
100
AcDbEntity
8
0
100
AcDbLine
10
26.497594646934989
20
48.979478831491676
30
0
11
29.211843587055881
21
51.601091443896941
31
0
0
LWPOLYLINE
5
132
100
AcDbEntity
8
0
100
AcDbPolyline
90
4
70
1
43
0.0
10
58.501754171495477
20
77.128155583937385
10
44.911407179878893
20
74.73181073242273
10
47.307752031391118
20
61.141463740802863
10
60.898099023010523
20
63.537808592317887
0
LWPOLYLINE
5
133
100
AcDbEntity
8
0
100
AcDbPolyline
90
4
70
1
43
0.0
10
103.00000003913254
20
58.960045374788351
10
103.00000003913254
20
72.760045374788362
10
89.200000039132533
20
72.760045374788362
10
89.200000039132533
20
58.960045374788351
0
LINE
5
134
100
AcDbEntity
8
0
100
AcDbLine
10
88.700000010690658
20
57.360045374723363
30
0
11
104.99999999952254
21
57.360045374654874
31
0
0
LINE
5
135
100
AcDbEntity
8
0
100
AcDbLine
10
71.323987241720758
20
22.330994077856833
30
0
11
86.042911315979893
21
23.878015335506014
31
0
0
LINE
5
136
100
AcDbEntity
8
0
100
AcDbLine
10
36.437256169892748
20
20.013065025461021
30
0
11
32.329036246816841
21
19.139835923997936
31
0
0
LINE
5
137
100
AcDbEntity
8
0
100
AcDbLine
10
55.819593855439692
20
-4.7993304916682646
30
0
11
58.018832040853056
21
-15.14593268128715
31
0
0
LINE
5
138
100
AcDbEntity
8
0
100
AcDbLine
10
29.211843587055881
20
51.601091443896941
30
0
11
43.688428077734542
21
54.678184466060486
31
0
0
LWPOLYLINE
5
139
100
AcDbEntity
8
0
100
AcDbPolyline
90
4
70
1
43
0.0
10
63.850118041239547
20
46.796076789663502
10
61.453773190683719
20
60.386423781935875
10
47.863426200318671
20
57.990078931233164
10
50.259771050788643
20
44.399731939429508
0
LINE
5
140
100
AcDbEntity
8
0
100
AcDbLine
10
43.898058767264857
20
77.599409902137879
30
0
11
58.47321351558989
21
80.169402932432376
31
0
0
LWPOLYLINE
5
141
100
AcDbEntity
8
0
100
AcDbPolyline
90
4
70
1
43
0.0
10
25.675862140685027
20
50.44055914714577
10
22.806680807689194
20
63.938996037339479
10
9.3082439175030878
20
61.069814704339443
10
12.177425250496798
20
47.571377814150978
0
LWPOLYLINE
5
142
100
AcDbEntity
8
0
100
AcDbPolyline
90
4
70
1
43
0.0
10
12.842742661627007
20
44.441305491911926
10
15.711923994402966
20
30.942868601677205
10
29.210360884637694
20
33.812049934453199
10
26.341179551861721
20
47.310486824687899
0
LWPOLYLINE
5
143
100
AcDbEntity
8
0
100
AcDbPolyline
90
4
70
1
43
0.0
10
66.302145331062775
20
74.894014387657791
10
67.744638121249125
20
61.169612231270037
10
81.469040277636964
20
62.612105021454852
10
80.026547487452348
20
76.336507177842279
0
LINE
5
144
100
AcDbEntity
8
0
100
AcDbLine
10
39.862852968373204
20
72.676100319921005
30
0
11
43.898058767264857
21
77.599409902137879
31
0
0
LINE
5
145
100
AcDbEntity
8
0
100
AcDbLine
10
80.210223065779687
20
79.372337092287211
30
0
11
88.700000010524192
21
75.760045374788362
31
0
0
LINE
5
146
100
AcDbEntity
8
0
100
AcDbLine
10
88.700000010524192
20
75.760045374788362
30
0
11
104.99999999948804
21
75.760045374788362
31
0
0
LINE
5
147
100
AcDbEntity
8
0
100
AcDbLine
10
43.688428077734542
20
54.678184466060486
30
0
11
47.093185236343132
21
59.478947246714078
31
0
0
LINE
5
148
100
AcDbEntity
8
0
100
AcDbLine
10
58.47321351558989
20
80.169402932432376
30
0
11
65.491298990891963
21
77.825315841734977
31
0
0
LWPOLYLINE
5
149
100
AcDbEntity
8
0
100
AcDbPolyline
90
4
70
1
43
0.0
10
42.866695572553013
20
56.139264781994996
10
39.997514240963625
20
69.637701672482038
10
26.499077350476604
20
66.768520340892493
10
29.36825868206607
20
53.270083450405522
0
LINE
5
150
100
AcDbEntity
8
0
100
AcDbLine
10
82.13354679002363
20
61.073134217526999
30
0
11
88.700000010690658
21
57.360045374723363
31
0
0
LINE
5
151
100
AcDbEntity
8
0
100
AcDbLine
10
53.211790070186154
20
27.65800013805616
30
0
11
66.802137058934193
21
30.054344989899299
31
0
0
LINE
5
152
100
AcDbEntity
8
0
100
AcDbLine
10
47.093185236343132
20
59.478947246714078
30
0
11
61.668339982885044
21
62.048940276692747
31
0
0
LINE
5
153
100
AcDbEntity
8
0
100
AcDbLine
10
25.386268476101925
20
69.599007297418922
30
0
11
39.862852968373204
21
72.676100319921005
31
0
0
LINE
5
154
100
AcDbEntity
8
0
100
AcDbLine
10
50.8154452188395
20
41.248347129705223
30
0
11
53.211790070186154
21
27.65800013805616
31
0
0
LINE
5
155
100
AcDbEntity
8
0
100
AcDbLine
10
38.932196459717915
20
8.2752938166382997
30
0
11
43.910531831983974
21
-15.145932681286943
31
0
0
LINE
5
156
100
AcDbEntity
8
0
100
AcDbLine
10
16.923875443209589
20
3.5972807732294276
30
0
11
20.907868447963338
21
-15.145932681286943
31
0
0
LINE
5
157
100
AcDbEntity
8
0
100
AcDbLine
10
10.553788754304074
20
45.590518271378222
30
0
11
26.497594646934989
21
48.979478831491676
31
0
0
LINE
5
158
100
AcDbEntity
8
0
100
AcDbLine
10
67.414622715097906
20
59.526112966968157
30
0
11
82.13354679002363
21
61.073134217526999
31
0
0
LINE
5
159
100
AcDbEntity
8
0
100
AcDbLine
10
32.746342330875365
20
34.972582231388067
30
0
11
30.032093390257927
21
32.350969618656976
31
0
0
LINE
5
160
100
AcDbEntity
8
0
100
AcDbLine
10
65.491298990891963
20
77.825315841734977
30
0
11
80.210223065779687
21
79.372337092287211
31
0
0
LINE
5
161
100
AcDbEntity
8
0
100
AcDbLine
10
65.581287896184676
20
76.969128599980195
30
0
11
71.825596146611616
21
17.558504143445461
31
0
0
LINE
5
162
100
AcDbEntity
8
0
100
AcDbLine
10
64.405792207555152
20
43.64469198175901
30
0
11
50.8154452188395
21
41.248347129705223
31
0
0
LINE
5
163
100
AcDbEntity
8
0
100
AcDbLine
10
39.576856502689239
20
74.021607904201716
30
0
11
52.487618116859096
21
13.281250049909548
31
0
0
LINE
5
164
100
AcDbEntity
8
0
100
AcDbLine
10
22.105171184630986
20
69.644206509659483
30
0
11
34.810129316411597
21
9.8720779321357828
31
0
0
LINE
5
165
100
AcDbEntity
8
0
100
AcDbLine
10
43.991483442966185
20
77.069572237330391
30
0
11
55.020813127668553
21
14.519135314042835
31
0
0
LINE
5
166
100
AcDbEntity
8
0
100
AcDbLine
10
72.55294743251919
20
15.421605044193532
30
0
11
66.222455338342456
21
75.652213936034528
31
0
0
LINE
5
167
100
AcDbEntity
8
0
100
AcDbLine
10
59.117816644041881
20
76.513676927077981
30
0
11
69.558201881488884
21
17.303309906191657
31
0
0
LINE
5
168
100
AcDbEntity
8
0
100
AcDbLine
10
50.045204256680464
20
42.737215445545438
30
0
11
64.620359001771789
21
45.307208474115882
31
0
0
LINE
5
169
100
AcDbEntity
8
0
100
AcDbLine
10
53.761275258789041
20
21.662329530923934
30
0
11
68.336430001641759
21
24.232322560061487
31
0
0
LINE
5
170
100
AcDbEntity
8
0
100
AcDbLine
10
14.088287498207606
20
28.962009058937014
30
0
11
30.032093390257927
21
32.350969618656976
31
0
0
LINE
5
171
100
AcDbEntity
8
0
100
AcDbLine
10
22.67201953656614
20
66.977394685142229
30
0
11
25.386268476101925
21
69.599007297418922
31
0
0
LINE
5
172
100
AcDbEntity
8
0
100
AcDbLine
10
18.507991218566616
20
8.1689378612134984
30
0
11
6.7282136432473223
21
63.588434124882681
31
0
0
LINE
5
173
100
AcDbEntity
8
0
100
AcDbLine
10
6.7282136432473223
20
63.588434124882681
30
0
11
22.67201953656614
21
66.977394685142229
31
0
0
LINE
5
174
100
AcDbEntity
8
0
100
AcDbLine
10
80.458044558175544
20
77.014473094191771
30
0
11
86.498140344770732
21
19.546800445720194
31
0
0
LINE
5
175
100
AcDbEntity
8
0
100
AcDbLine
10
55.990160911372058
20
11.901076089577266
30
0
11
44.815563748205363
21
75.275365857609046
31
0
0
LINE
5
176
100
AcDbEntity
8
0
100
AcDbLine
10
38.932196459717915
20
8.2752938166382997
30
0
11
24.662986438344838
21
75.406648921434851
31
0
0
LINE
5
177
100
AcDbEntity
8
0
100
AcDbLine
10
105.00000000003858
20
23.425024616902007
30
0
11
104.99999999993499
21
78.670398152601152
31
0
0
LINE
5
178
100
AcDbEntity
8
0
100
AcDbLine
10
89.200000015034973
20
18.960045303079831
30
0
11
89.200000015034973
21
75.284300298822075
31
0
0
LINE
5
179
100
AcDbEntity
8
0
100
AcDbLine
10
25.21074686498876
20
70.424771553947039
30
0
11
38.103828993366619
21
9.7675891672629547
31
0
0
LINE
5
180
100
AcDbEntity
8
0
100
AcDbLine
10
88.700000010501753
20
78.24044500593844
30
0
11
88.700000011029999
21
19.851171913153053
31
0
0
LINE
5
181
100
AcDbEntity
8
0
100
AcDbLine
10
14.088287498207606
20
28.962009058937014
30
0
11
13.481823315422075
21
28.84412436360622
31
0
0
LINE
5
182
100
AcDbEntity
8
0
100
AcDbLine
10
5.2584548414875903e-09
20
1.9387045606711586e-24
30
0
11
5.2584548414875903e-09
21
1.0000000000000009
31
0
0
LINE
5
183
100
AcDbEntity
8
0
100
AcDbLine
10
5.2584548414875903e-09
20
1.9387045606711586e-24
30
0
11
1.0209176152199821
21
8.0491169285323849e-15
31
0
0
LWPOLYLINE
5
184
100
AcDbEntity
8
0
100
AcDbPolyline
90
4
70
1
43
0.0
10
0
20
0
10
5
20
0
10
5
20
5
10
0
20
5
0
LWPOLYLINE
5
185
100
AcDbEntity
8
0
100
AcDbPolyline
90
4
70
1
43
0.0
10
54.759985584747838
20
9.0837430352476183
10
52.950412523392316
20
8.6991064072252069
10
52.669731740783163
20
10.019605668213924
10
54.479304802138763
20
10.404242296237172
0
LINE
5
186
100
AcDbEntity
8
0
100
AcDbLine
10
54.479304802138763
20
10.404242296237172
30
0
11
109.9999968510174
21
10.404242296521272
31
0
0
LWPOLYLINE
5
187
100
AcDbEntity
8
0
100
AcDbPolyline
90
4
70
1
43
0.0
10
84.700000101822468
20
-5.7351931248385393
10
82.850000101822445
20
-5.7351931248383927
10
82.850000101807083
20
-4.3851931248705611
10
84.700000091608914
20
-4.3851931248385672
0
LINE
5
188
100
AcDbEntity
8
0
100
AcDbLine
10
57.90984769931606
20
-5.7351931248363748
30
0
11
66.489508036993001
21
-5.7351931248370525
31
0
0
LINE
5
189
100
AcDbEntity
8
0
100
AcDbLine
10
-14.088287498207608
20
28.962009058937017
30
0
11
-30.032093390257938
21
32.350969618656968
31
0
0
LINE
5
190
100
AcDbEntity
8
0
100
AcDbLine
10
-53.211790070186154
20
27.658000138056138
30
0
11
-49.075597507535285
21
26.928677791852905
31
0
0
LWPOLYLINE
5
191
100
AcDbEntity
8
0
100
AcDbPolyline
90
4
70
1
43
0.0
10
-47.066511726620689
20
36.380683248946383
10
-33.568074836513979
20
33.511501915567628
10
-36.437256169892734
20
20.013065025461025
10
-49.935693059999394
20
22.882246358839776
0
LWPOLYLINE
5
192
100
AcDbEntity
8
0
100
AcDbPolyline
90
4
70
1
43
0.0
10
-32.902757425979409
20
36.641574237933298
10
-46.401194316372845
20
39.510755569962591
10
-43.532012984343538
20
53.00919246035604
10
-30.033576093950284
20
50.140011128326769
0
LINE
5
193
100
AcDbEntity
8
0
100
AcDbLine
10
-32.746342330875365
20
34.972582231388074
30
0
11
-47.222926819982341
21
38.049675253710554
31
0
0
LWPOLYLINE
5
194
100
AcDbEntity
8
0
100
AcDbPolyline
90
4
70
1
43
0.0
10
-42.866695572553013
20
56.139264781994996
10
-39.997514240963625
20
69.637701672482038
10
-26.499077350476604
20
66.768520340892508
10
-29.368258682066077
20
53.270083450405544
0
LINE
5
195
100
AcDbEntity
8
0
100
AcDbLine
10
-43.688428077734535
20
54.678184466060472
30
0
11
-47.093185236343125
21
59.478947246714078
31
0
0
LINE
5
196
100
AcDbEntity
8
0
100
AcDbLine
10
-22.672019536566147
20
66.977394685142229
30
0
11
-25.386268476101929
21
69.599007297418922
31
0
0
LINE
5
197
100
AcDbEntity
8
0
100
AcDbLine
10
-39.862852968373204
20
72.676100319921034
30
0
11
-43.898058767264871
21
77.599409902137864
31
0
0
LINE
5
198
100
AcDbEntity
8
0
100
AcDbLine
10
-29.211843587055874
20
51.601091443896941
30
0
11
-43.688428077734535
21
54.678184466060472
31
0
0
LINE
5
199
100
AcDbEntity
8
0
100
AcDbLine
10
-25.386268476101929
20
69.599007297418922
30
0
11
-39.862852968373204
21
72.676100319921034
31
0
0
LWPOLYLINE
5
200
100
AcDbEntity
8
0
100
AcDbPolyline
90
4
70
1
43
0.0
10
-44.911407179878886
20
74.731810732422744
10
-47.307752031391132
20
61.141463740802891
10
-60.898099023010523
20
63.537808592317894
10
-58.501754171495477
20
77.128155583937385
0
LWPOLYLINE
5
201
100
AcDbEntity
8
0
100
AcDbPolyline
90
4
70
1
43
0.0
10
-22.80668080768919
20
63.938996037339479
10
-9.3082439175030878
20
61.06981470433945
10
-12.177425250496814
20
47.571377814151035
10
-25.675862140685034
20
50.440559147145763
0
LINE
5
202
100
AcDbEntity
8
0
100
AcDbLine
10
-26.497594646934996
20
48.979478831491654
30
0
11
-29.211843587055874
21
51.601091443896941
31
0
0
LWPOLYLINE
5
203
100
AcDbEntity
8
0
100
AcDbPolyline
90
4
70
1
43
0.0
10
-47.863426200318671
20
57.990078931233157
10
-50.259771050788643
20
44.399731939429529
10
-63.850118041239547
20
46.796076789925642
10
-61.453773190683719
20
60.386423781935875
0
LINE
5
204
100
AcDbEntity
8
0
100
AcDbLine
10
-32.746342330875365
20
34.972582231388074
30
0
11
-30.032093390257938
21
32.350969618656968
31
0
0
LWPOLYLINE
5
205
100
AcDbEntity
8
0
100
AcDbPolyline
90
4
70
1
43
0.0
10
-12.842742661627042
20
44.44130549191194
10
-15.711923994402968
20
30.942868601677212
10
-29.210360884637705
20
33.812049934453199
10
-26.341179551861728
20
47.310486824687899
0
LINE
5
206
100
AcDbEntity
8
0
100
AcDbLine
10
-50.045204256680449
20
42.737215445545445
30
0
11
-47.222926819982341
21
38.049675253710554
31
0
0
LWPOLYLINE
5
207
100
AcDbEntity
8
0
100
AcDbPolyline
90
4
70
1
43
0.0
10
-50.8154452188395
20
41.248347129705223
10
-53.211790070186154
20
27.658000138056138
10
-66.802137058934193
20
30.054344989984358
10
-64.405792207555152
20
43.64469198175901
0
LINE
5
208
100
AcDbEntity
8
0
100
AcDbLine
10
-10.553788754304076
20
45.590518271378215
30
0
11
-10.238564433307879
21
45.529244870415269
31
0
0
LWPOLYLINE
5
209
100
AcDbEntity
8
0
100
AcDbPolyline
90
4
70
1
43
0.0
10
-55.819593855439706
20
-4.7993304916682904
10
-57.629166916832276
20
-4.4146938638201663
10
-57.909847699316046
20
-5.7351931248363659
10
-56.100274637923604
20
-6.1198297526844403
0
LWPOLYLINE
5
210
100
AcDbEntity
8
0
100
AcDbPolyline
90
12
70
1
43
0.0
10
-84.700000101822454
20
-5.7351931248385402
10
-82.850000101822445
20
-5.7351931248383927
10
-82.850000101807083
20
-4.3851931248705602
10
-84.700000091608914
20
-4.3851931248385529
10
-98.500000091608925
20
-4.385193085364433
10
-98.500000091608925
20
9.4148069146311801
10
-84.700000062324023
20
9.414806875161462
10
-84.697065459260571
20
10.764803685566891
10
-82.847069830259585
20
10.760782192461683
10
-82.850004433249907
20
9.41078538208364
10
-84.700000062324023
20
9.414806875161462
10
-84.700000091608914
20
-4.3851931248385529
0
LWPOLYLINE
5
211
100
AcDbEntity
8
0
100
AcDbPolyline
90
4
70
1
43
0.0
10
-102.9999999999209
20
41.960045296508468
10
-103.00000000000486
20
55.760045374791893
10
-89.199999999920891
20
55.760045296498461
10
-89.199999999920891
20
41.960045296498464
0
LINE
5
212
100
AcDbEntity
8
0
100
AcDbLine
10
-88.700000010844462
20
40.36004533580094
30
0
11
-83.910530665501597
21
44.166261998014377
31
0
0
LINE
5
213
100
AcDbEntity
8
0
100
AcDbLine
10
-55.819593855439706
20
-4.7993304916682904
30
0
11
-58.018832040853063
21
-15.145932681287146
31
0
0
LINE
5
214
100
AcDbEntity
8
0
100
AcDbLine
10
-57.909847699316046
20
-5.7351931248363659
30
0
11
-66.489508036993001
21
-5.7351931248370702
31
0
0
LINE
5
215
100
AcDbEntity
8
0
100
AcDbLine
10
-21.325539646481019
20
4.5328833819045826
30
0
11
-5.6476493089449864
21
78.291558316884874
31
0
0
LINE
5
216
100
AcDbEntity
8
0
100
AcDbLine
10
-6.728213643247325
20
63.588434124882667
30
0
11
-22.672019536566147
21
66.977394685142229
31
0
0
LWPOLYLINE
5
217
100
AcDbEntity
8
0
100
AcDbPolyline
90
4
70
1
43
0.0
10
-89.200000015034973
20
24.960045296402619
10
-103.00000001503498
20
24.960045335740517
10
-102.99999998797121
20
38.760045335752174
10
-89.19999995100784
20
38.760045296402616
0
LINE
5
218
100
AcDbEntity
8
0
100
AcDbLine
10
-88.700000011010914
20
21.960045296401063
30
0
11
-86.042911315979893
21
23.878015335506014
31
0
0
LINE
5
219
100
AcDbEntity
8
0
100
AcDbLine
10
-43.991483442966192
20
77.069572237330391
30
0
11
-55.020813127668553
21
14.519135314042835
31
0
0
LINE
5
220
100
AcDbEntity
8
0
100
AcDbLine
10
-6.728213643247325
20
63.588434124882667
30
0
11
-17.662234489329059
21
7.3377732704796541
31
0
0
LINE
5
221
100
AcDbEntity
8
0
100
AcDbLine
10
-18.507991218566616
20
8.1689378612134949
30
0
11
-6.728213643247325
21
63.588434124882667
31
0
0
LINE
5
222
100
AcDbEntity
8
0
100
AcDbLine
10
-14.088287498207608
20
28.962009058937017
30
0
11
-13.481823315422075
21
28.84412436360622
31
0
0
LWPOLYLINE
5
223
100
AcDbEntity
8
0
100
AcDbPolyline
90
4
70
1
43
0.0
10
-29.875678295355357
20
30.681977612482065
10
-16.377241405192983
20
27.812796279365838
10
-19.246422738301007
20
14.314359389241723
10
-32.74485962845263
20
17.183540722408736
0
LINE
5
224
100
AcDbEntity
8
0
100
AcDbLine
10
-66.802137058934193
20
30.054344989984358
30
0
11
-70.938329621610308
21
30.783667336044786
31
0
0
LINE
5
225
100
AcDbEntity
8
0
100
AcDbLine
10
-85.023008057487033
20
28.798360581998299
30
0
11
-89.200000018066561
21
29.237380127410795
31
0
0
LINE
5
226
100
AcDbEntity
8
0
100
AcDbLine
10
-71.323987241720758
20
22.330994080446452
30
0
11
-86.042911315979893
21
23.878015335506014
31
0
0
LINE
5
227
100
AcDbEntity
8
0
100
AcDbLine
10
-88.700000011010914
20
21.960045296401063
30
0
11
-104.99999999958894
21
21.960045296373622
31
0
0
LWPOLYLINE
5
228
100
AcDbEntity
8
0
100
AcDbPolyline
90
4
70
1
43
0.0
10
-71.298605871908208
20
27.355867788994228
10
-85.023008057487033
20
28.798360581998299
10
-83.580515313881051
20
42.522762738188177
10
-69.856113086709627
20
41.080269945614333
0
LINE
5
229
100
AcDbEntity
8
0
100
AcDbLine
10
-71.323987241720758
20
22.330994080446452
30
0
11
-68.336430001641759
21
24.232322560061483
31
0
0
LINE
5
230
100
AcDbEntity
8
0
100
AcDbLine
10
-10.553788754304076
20
45.590518271378215
30
0
11
-26.497594646934996
21
48.979478831491654
31
0
0
LINE
5
231
100
AcDbEntity
8
0
100
AcDbLine
10
-17.913862609336668
20
10.964093205092363
30
0
11
-16.992174105548983
21
10.784935108797445
31
0
0
LINE
5
232
100
AcDbEntity
8
0
100
AcDbLine
10
-53.761275258789027
20
21.662329530923937
30
0
11
-51.048501929165823
21
20.051759400687118
31
0
0
LINE
5
233
100
AcDbEntity
8
0
100
AcDbLine
10
-17.913862609336668
20
10.964093205092363
30
0
11
-33.857668500464023
21
14.353053765824143
31
0
0
LWPOLYLINE
5
234
100
AcDbEntity
8
0
100
AcDbPolyline
90
4
70
1
43
0.0
10
-52.669731740779106
20
10.019605659699288
10
-54.479304802138756
20
10.40424229623717
10
-54.759985584747838
20
9.0837430352476183
10
-52.950412523392316
20
8.6991064072252087
0
LINE
5
235
100
AcDbEntity
8
0
100
AcDbLine
10
-36.57191744179022
20
16.974666378050003
30
0
11
-33.857668500464023
21
14.353053765824143
31
0
0
LINE
5
236
100
AcDbEntity
8
0
100
AcDbLine
10
-36.437256169892734
20
20.013065025461025
30
0
11
-32.329036246816841
21
19.139835923997932
31
0
0
LINE
5
237
100
AcDbEntity
8
0
100
AcDbLine
10
-36.57191744179022
20
16.974666378050003
30
0
11
-51.048501929165823
21
20.051759400687118
31
0
0
LINE
5
238
100
AcDbEntity
8
0
100
AcDbLine
10
-20.187363646462359
20
-10.803729601496897
30
0
11
-23.246840332934717
21
-25.197435746413959
31
0
0
LWPOLYLINE
5
239
100
AcDbEntity
8
0
100
AcDbPolyline
90
4
70
1
43
0.0
10
-20.312835948102794
20
-12.34652486510792
10
-33.811272838492584
20
-9.4773435330610418
10
-30.942091506445454
20
4.0210933573288514
10
-17.443654616055746
20
1.1519120252817343
0
LWPOLYLINE
5
240
100
AcDbEntity
8
0
100
AcDbPolyline
90
4
70
1
43
0.0
10
-39.451975632995435
20
5.8299250666628897
10
-42.321156965052069
20
-7.6685118237247494
10
-55.819593855439706
20
-4.7993304916682904
10
-52.950412523392316
20
8.6991064072252087
0
LINE
5
241
100
AcDbEntity
8
0
100
AcDbLine
10
-30.942091506445454
20
4.0210933573288514
30
0
11
-39.451975632995449
21
5.8299250666628595
31
0
0
LINE
5
242
100
AcDbEntity
8
0
100
AcDbLine
10
-16.923875443209528
20
3.5972807732294343
30
0
11
-20.907868447963359
21
-15.145932681286954
31
0
0
LINE
5
243
100
AcDbEntity
8
0
100
AcDbLine
10
-38.9321964597179
20
8.2752938166382997
30
0
11
-43.910531831983974
21
-15.145932681286947
31
0
0
LINE
5
244
100
AcDbEntity
8
0
100
AcDbLine
10
-39.576856502689232
20
74.021607904201716
30
0
11
-52.487618116859096
21
13.281250049909545
31
0
0
LINE
5
245
100
AcDbEntity
8
0
100
AcDbLine
10
-25.21074686498876
20
70.424771553947039
30
0
11
-38.103828993366619
21
9.7675891672629529
31
0
0
LINE
5
246
100
AcDbEntity
8
0
100
AcDbLine
10
-38.9321964597179
20
8.2752938166382997
30
0
11
-24.662986438344838
21
75.406648921434851
31
0
0
LINE
5
247
100
AcDbEntity
8
0
100
AcDbLine
10
-22.105171184630986
20
69.644206509659483
30
0
11
-34.810129316411597
21
9.8720779321357881
31
0
0
LINE
5
248
100
AcDbEntity
8
0
100
AcDbLine
10
-88.700000010690658
20
57.36004537481945
30
0
11
-104.99999999952254
21
57.36004537475096
31
0
0
LINE
5
249
100
AcDbEntity
8
0
100
AcDbLine
10
-69.191606591284881
20
42.61924074295942
30
0
11
-83.910530665501597
21
44.166261998014377
31
0
0
LWPOLYLINE
5
250
100
AcDbEntity
8
0
100
AcDbPolyline
90
4
70
1
43
0.0
10
-89.200000039132533
20
72.760045374788362
10
-89.200000039132533
20
58.960045374788351
10
-103.00000003913254
20
58.960045374788351
10
-103.00000003913254
20
72.760045374788362
0
LINE
5
251
100
AcDbEntity
8
0
100
AcDbLine
10
-58.47321351558989
20
80.169402932432376
30
0
11
-65.491298990891963
21
77.825315841734977
31
0
0
LWPOLYLINE
5
252
100
AcDbEntity
8
0
100
AcDbPolyline
90
4
70
1
43
0.0
10
-67.744638121249096
20
61.16961223127003
10
-81.469040277636964
20
62.612105021454852
10
-80.026547487452362
20
76.336507177842265
10
-66.302145331062775
20
74.894014387657776
0
LINE
5
253
100
AcDbEntity
8
0
100
AcDbLine
10
-67.414622715097906
20
59.526112966968157
30
0
11
-82.13354679002363
21
61.073134217526999
31
0
0
LINE
5
254
100
AcDbEntity
8
0
100
AcDbLine
10
-61.668339982885044
20
62.048940276692747
30
0
11
-67.414622715097906
21
59.526112966968157
31
0
0
LINE
5
255
100
AcDbEntity
8
0
100
AcDbLine
10
-88.700000010524192
20
75.760045374788362
30
0
11
-104.99999999948804
21
75.760045374788362
31
0
0
LINE
5
256
100
AcDbEntity
8
0
100
AcDbLine
10
-80.210223065779687
20
79.372337092287211
30
0
11
-88.700000010524192
21
75.760045374788362
31
0
0
LINE
5
257
100
AcDbEntity
8
0
100
AcDbLine
10
-65.491298990891963
20
77.825315841734977
30
0
11
-80.210223065779687
21
79.372337092287211
31
0
0
LINE
5
258
100
AcDbEntity
8
0
100
AcDbLine
10
-82.13354679002363
20
61.073134217526999
30
0
11
-88.700000010690658
21
57.36004537481945
31
0
0
LWPOLYLINE
5
259
100
AcDbEntity
8
0
100
AcDbPolyline
90
4
70
1
43
0.0
10
-81.803531360973579
20
59.429634958274839
10
-68.079129205896223
20
57.987142166321803
10
-69.521621997967046
20
44.262740010132113
10
-83.246024154156771
20
45.705232802202225
0
LINE
5
260
100
AcDbEntity
8
0
100
AcDbLine
10
-80.458044558175544
20
77.014473094191771
30
0
11
-86.498140344770732
21
19.546800445720194
31
0
0
LINE
5
261
100
AcDbEntity
8
0
100
AcDbLine
10
-89.199999984072008
20
18.960045303079831
30
0
11
-89.200000050702371
21
75.284300298822075
31
0
0
LINE
5
262
100
AcDbEntity
8
0
100
AcDbLine
10
-72.55294743251919
20
15.421605065611574
30
0
11
-66.222455338342471
21
75.652213957452787
31
0
0
LINE
5
263
100
AcDbEntity
8
0
100
AcDbLine
10
-88.700000010501753
20
78.24044500593844
30
0
11
-88.700000011029999
21
19.851171913153053
31
0
0
LINE
5
264
100
AcDbEntity
8
0
100
AcDbLine
10
-105.00000000003858
20
23.425024616902014
30
0
11
-104.99999999993499
21
78.670398152601152
31
0
0
LINE
5
265
100
AcDbEntity
8
0
100
AcDbLine
10
-59.117816644041881
20
76.513676927077981
30
0
11
-69.558201881488884
21
17.303309906191657
31
0
0
LINE
5
266
100
AcDbEntity
8
0
100
AcDbLine
10
-65.581287896184676
20
76.969128599980195
30
0
11
-71.825596146611616
21
17.558504143445461
31
0
0
LINE
5
267
100
AcDbEntity
8
0
100
AcDbLine
10
-54.479304802138756
20
10.40424229623717
30
0
11
-109.9999968510174
21
10.404242296521272
31
0
0
LINE
5
268
100
AcDbEntity
8
0
100
AcDbLine
10
-53.761275258789027
20
21.662329530923937
30
0
11
-68.336430001641759
21
24.232322560061483
31
0
0
LINE
5
269
100
AcDbEntity
8
0
100
AcDbLine
10
-43.898058767264871
20
77.599409902137864
30
0
11
-58.47321351558989
21
80.169402932432376
31
0
0
LINE
5
270
100
AcDbEntity
8
0
100
AcDbLine
10
-5.2584548414875903e-09
20
1.9387045606711586e-24
30
0
11
-113.12815000000001
21
24.046130591018191
31
0
0
LINE
5
271
100
AcDbEntity
8
0
100
AcDbLine
10
-47.093185236343125
20
59.478947246714078
30
0
11
-61.668339982885044
21
62.048940276692747
31
0
0
LINE
5
272
100
AcDbEntity
8
0
100
AcDbLine
10
-55.990160911372058
20
11.901076079421697
30
0
11
-44.815563748205385
21
75.27536584694036
31
0
0
LINE
5
273
100
AcDbEntity
8
0
100
AcDbLine
10
-50.045204256680449
20
42.737215445545445
30
0
11
-64.620359001771789
21
45.307208474115882
31
0
0
LINE
5
274
100
AcDbEntity
8
0
100
AcDbLine
10
-69.191606591284881
20
42.61924074295942
30
0
11
-64.620359001771789
21
45.307208474115882
31
0
0
LINE
5
275
100
AcDbEntity
8
0
100
AcDbLine
10
-88.700000010844462
20
40.36004533580094
30
0
11
-104.99999999955442
21
40.36004533580094
31
0
0
LINE
5
276
100
AcDbEntity
8
0
100
AcDbLine
10
0
20
-10
30
0
11
0
21
-15
31
0
0
LINE
5
277
100
AcDbEntity
8
0
100
AcDbLine
10
107.99999999999545
20
53.000000789759518
30
0
11
108.00000000000458
21
35.000000521538617
31
0
0
LINE
5
278
100
AcDbEntity
8
0
100
AcDbLine
10
20.907868447963338
20
-15.145932681286943
30
0
11
32.000000476837158
21
-15.145932681286943
31
0
0
LINE
5
279
100
AcDbEntity
8
0
100
AcDbLine
10
43.910531831983974
20
-15.145932681286943
30
0
11
56.000000834465027
21
-15.145932681286943
31
0
0
LINE
5
280
100
AcDbEntity
8
0
100
AcDbLine
10
58.018832040853056
20
-15.14593268128715
30
0
11
67.0000009983778
21
-15.145932681287114
31
0
0
LWPOLYLINE
5
281
100
AcDbEntity
8
0
100
AcDbPolyline
90
132
70
1
43
0.0
10
-7.9999999972805504
20
-17.52472316972468
10
-20
20
-17.524723174634428
10
-58.293478242165961
20
-9.3851931050939701
10
-83.600000097263603
20
-9.3851930345350869
10
-84.400000097347572
20
-9.3851931051001181
42
-0.414213562373134
10
-84.600000097265223
20
-9.1851931051853786
10
-84.60000009728445
20
-6.5851931051852963
42
0.41421356237087409
10
-84.80000009736969
20
-6.3851931051014965
10
-86.400000020949804
20
-6.3851931051014859
42
0.41421356237523788
10
-86.600000097284493
20
-6.5851931814377469
10
-86.600000097263745
20
-9.3851931051014841
10
-86.600000097215542
20
-15.885193105258132
42
-0.41421356237520213
10
-87.100000097055087
20
-16.385193105101497
10
-96.10000009795742
20
-16.385193105101454
42
-0.4142135627398294
10
-96.6000000971747
20
-15.885193105258127
10
-96.600000096694373
20
-9.3851931051014859
10
-96.600000096694401
20
-6.5850720703014485
42
0.40405959780147371
10
-96.793043134387702
20
-6.3851931051014832
10
-98.391711043206399
20
-6.385193105101421
42
0.42640886962198965
10
-98.600000096620434
20
-6.5850212601237956
10
-98.600000096620434
20
-9.1851931049071069
42
-0.41421356237324131
10
-98.800000096814671
20
-9.3851931051014823
10
-99.600000096620462
20
-9.3851931051014965
10
-105.99999998918869
20
-9.3851931051014699
10
-107.99999998918869
20
-7.3851931051014752
10
-107.99999998916888
20
83.683843048023903
10
-105.99999998916888
20
85.683843048023931
10
-99.099999833964674
20
85.683843048017948
10
-98.299999833957528
20
85.683843048017962
42
-0.41421356237309509
10
-98.099999833964674
20
85.483843048025108
10
-98.099999833964631
20
82.883843048044454
42
0.41421356237309509
10
-97.899999833946083
20
82.683843048025835
10
-96.799999833853562
20
82.683843048025722
42
0.41421356237325113
10
-96.599999833957412
20
82.883843047921872
10
-96.599999833957355
20
85.683843048017025
10
-96.599999833967928
20
92.18384304800469
42
-0.41421356237356327
10
-96.09999983394664
20
92.683843048026574
10
-87.099999833963892
20
92.683843048024755
42
-0.41421356237442697
10
-86.599999833955167
20
92.183843048013543
10
-86.599999833986132
20
85.683843048025807
10
-86.599999834005388
20
82.880957529348336
42
0.36523342269153175
10
-86.433850701905897
20
82.683843048025778
10
-85.334333148603733
20
82.683843048025778
42
0.46569548320322407
10
-85.099999833990921
20
82.880874069681568
10
-85.09999983399085
20
85.483843048004019
42
-0.41421356237317308
10
-84.899999833983998
20
85.683843048010928
10
-84.099999833990907
20
85.683843048010928
10
-7.4999999999799272
20
85.683832829988305
10
-6.6999999999867601
20
85.683832829987963
42
-0.41421356237309337
10
-6.4999999999799085
20
85.483832829981083
10
-6.4999999999801572
20
82.881132426443969
42
0.46326199602774804
10
-6.2672453175107803
20
82.683832829983459
10
-5.1677077631143398
20
82.683832829983444
42
0.36747405317424975
10
-4.9999999999655529
20
82.88120864269581
10
-4.9999999999847358
20
85.683832829987878
10
-5.0000000000158078
20
92.183832829971365
42
-0.41421356237442108
10
-4.500000000007053
20
92.683832829982578
10
4.4999999999757483
20
92.68383282998434
42
-0.41421356237363161
10
4.9999999999970015
20
92.18383282996237
10
4.9999999999864322
20
85.683832829979082
10
4.999999999986473
20
82.88383282987958
42
0.41421356237309509
10
5.1999999998825874
20
82.683832829983459
10
6.2999999999662881
20
82.683832829983459
42
0.41421356237309509
10
6.499999999984829
20
82.883832830002007
10
6.499999999984829
20
85.483832829987136
42
-0.41421356237309509
10
6.6999999999776838
20
85.683832829979991
10
7.4999999999848033
20
85.683832829979991
10
84.09999983399095
20
85.683843048010971
10
84.899999833984126
20
85.683843048010971
42
-0.41421356237309509
10
85.099999833991006
20
85.483843048004076
10
85.099999833991006
20
82.880874069681525
42
0.46569548320311716
10
85.334333148603761
20
82.68384304802575
10
86.433850701905925
20
82.683843048025736
42
0.3652334226915856
10
86.599999834005416
20
82.880957529348308
10
86.599999833986175
20
85.683843048025793
10
86.599999833955209
20
92.183843048013557
42
-0.41421356237440615
10
87.099999833963935
20
92.683843048024741
10
96.099999833946669
20
92.683843048026674
42
-0.4142135623736361
10
96.599999833967956
20
92.183843048004675
10
96.599999833957384
20
85.683843048016996
10
96.599999833957412
20
82.883843047921857
42
0.414213562373069
10
96.799999833853562
20
82.68384304802575
10
97.899999833946168
20
82.683843048025821
42
0.41421356237301699
10
98.099999833964731
20
82.88384304804444
10
98.099999833964731
20
85.483843048025093
42
-0.41421356237309509
10
98.299999833957571
20
85.683843048017934
10
99.099999833964716
20
85.683843048017906
10
105.99999998916893
20
85.683843048023903
10
107.99999998916891
20
83.683843048023903
10
107.99999998918869
20
-7.3851931051015027
10
105.99999998918869
20
-9.3851931051014965
10
99.600000096620462
20
-9.3851931051015214
10
98.800000096814671
20
-9.3851931051014894
42
-0.41421356237324131
10
98.600000096620448
20
-9.1851931049071318
10
98.600000096620434
20
-6.5850212601238205
42
0.42640886962198965
10
98.391711043206399
20
-6.385193105101445
10
96.793043134387702
20
-6.3851931051015072
42
0.40405959780182016
10
96.600000096694401
20
-6.5850720703015764
10
96.600000096694373
20
-9.3851931051015107
10
96.600000097174714
20
-15.885193105258148
42
-0.41421356239473878
10
96.100000097957434
20
-16.385193104512361
10
87.100000097055087
20
-16.385193105101514
42
-0.41421356237520213
10
86.600000097215542
20
-15.885193105258155
10
86.600000097263745
20
-9.3851931051015072
10
86.600000097284493
20
-6.58519318143777
42
0.41421356237523788
10
86.400000020949804
20
-6.3851931051015063
10
84.80000009736969
20
-6.3851931051015178
42
0.41421356237087409
10
84.60000009728445
20
-6.5851931051853176
10
84.600000097265209
20
-9.1851931051853999
42
-0.414213562373134
10
84.400000097347572
20
-9.3851931051001127
10
83.600000097263745
20
-9.3851931050941033
10
58.293478242165961
20
-9.3851931050939861
10
20.000000000000004
20
-17.524723174634431
10
7.9999999468672165
20
-17.52472317829714
10
7.2000000199823173
20
-17.524723216378753
42
-0.41421358719064511
10
7.0000000028145557
20
-17.324723216222985
10
7.0000000295155127
20
-14.714407294430245
42
0.3225937576673002
10
6.8634029991887164
20
-14.524723184226339
10
5.2309528000999537
20
-14.524723178647911
42
0.46049379387918055
10
5.0000000040711097
20
-14.722313471353804
10
5.0000000000597931
20
-17.52472317766491
10
5.00000002933721
20
-24.024723276451208
42
-0.41421353952127815
10
4.5000000302861345
20
-24.52472323682429
10
-4.4999999993100301
20
-24.524723235976793
42
-0.41421356272367593
10
-4.9999999999509841
20
-24.024723236316451
10
-5.0000000009364944
20
-17.524723192313637
10
-5.0000000009235421
20
-14.724723260186018
42
0.41421357225396044
10
-5.2000000782150879
20
-14.52472317724248
10
-6.8000000022816653
20
-14.524723191979747
42
0.41421354106225677
10
-7.0000000027809941
20
-14.72472317787126
10
-6.9999999953758243
20
-17.324723177299084
42
-0.414213572229576
10
-7.2000000040355268
20
-17.524723179228094
0
CIRCLE
5
282
100
AcDbEntity
8
0
100
AcDbCircle
10
2.8328154256914057e-13
20
90.433832829983473
30
0
40
1.2499999999999962
210
0
220
0
230
1
0
CIRCLE
5
283
100
AcDbEntity
8
0
100
AcDbCircle
10
-1.7499999999999538
20
86.68383284774832
30
0
40
1
210
0
220
0
230
1
0
CIRCLE
5
284
100
AcDbEntity
8
0
100
AcDbCircle
10
1.7499999999991189
20
86.683832847336859
30
0
40
0.99999999999999978
210
0
220
0
230
1
0
LWPOLYLINE
5
285
100
AcDbEntity
8
0
100
AcDbPolyline
90
8
70
1
43
0.0
10
6.2999999999160607
20
27.475276825027805
10
-6.3000000000839407
20
27.475276825027805
42
0.41421356237309509
10
-6.5000000000839409
20
27.275276825027802
10
-6.5000000000839409
20
-7.324723174972199
42
0.41421356237309509
10
-6.3000000000839398
20
-7.5247231749721983
10
6.299999999916059
20
-7.5247231749721983
42
0.41421356237309176
10
6.49999999991606
20
-7.324723174972199
10
6.49999999991606
20
27.275276825027799
42
0.41421356237309992
0
ENDSEC
0
SECTION
2
OBJECTS
0
DICTIONARY
5
C
100
AcDbDictionary
3
ACAD_GROUP
350
D
3
ACAD_MLINESTYLE
350
17
0
DICTIONARY
5
D
100
AcDbDictionary
0
DICTIONARY
5
1A
330
C
100
AcDbDictionary
0
DICTIONARY
5
17
100
AcDbDictionary
0
ENDSEC
0
EOF
