0
SECTION
2
HEADER
9
$INSUNITS
70
4
9
$ACADVER
1
AC1014
9
$HANDSEED
5
FFFF
0
ENDSEC
0
SECTION
2
TABLES
0
TABLE
2
VPORT
5
8
100
AcDbSymbolTable
0
ENDTAB
0
TABLE
2
LTYPE
5
5
100
AcDbSymbolTable
0
LTYPE
5
14
100
AcDbSymbolTableRecord
100
AcDbLinetypeTableRecord
2
BYBLOCK
70
0
0
LTYPE
5
15
100
AcDbSymbolTableRecord
100
AcDbLinetypeTableRecord
2
BYLAYER
70
0
0
ENDTAB
0
TABLE
2
LAYER
5
2
100
AcDbSymbolTable
70
2
0
LAYER
5
50
100
AcDbSymbolTableRecord
100
AcDbLayerTableRecord
2
0
70
0
6
CONTINUOUS
0
ENDTAB
0
TABLE
2
STYLE
5
3
100
AcDbSymbolTable
70
1
0
STYLE
5
11
100
AcDbSymbolTableRecord
100
AcDbTextStyleTableRecord
2
STANDARD
70
0
0
ENDTAB
0
TABLE
2
VIEW
5
6
100
AcDbSymbolTable
70
0
0
ENDTAB
0
TABLE
2
UCS
5
7
100
AcDbSymbolTable
70
0
0
ENDTAB
0
TABLE
2
APPID
5
9
100
AcDbSymbolTable
70
2
0
APPID
5
12
100
AcDbSymbolTableRecord
100
AcDbRegAppTableRecord
2
ACAD
70
0
0
ENDTAB
0
TABLE
2
DIMSTYLE
5
A
100
AcDbSymbolTable
70
1
0
ENDTAB
0
TABLE
2
BLOCK_RECORD
5
1
100
AcDbSymbolTable
70
1
0
BLOCK_RECORD
5
1F
100
AcDbSymbolTableRecord
100
AcDbBlockTableRecord
2
*MODEL_SPACE
0
BLOCK_RECORD
5
1B
100
AcDbSymbolTableRecord
100
AcDbBlockTableRecord
2
*PAPER_SPACE
0
ENDTAB
0
ENDSEC
0
SECTION
2
BLOCKS
0
BLOCK
5
20
100
AcDbEntity
100
AcDbBlockBegin
2
*MODEL_SPACE
0
ENDBLK
5
21
100
AcDbEntity
100
AcDbBlockEnd
0
BLOCK
5
1C
100
AcDbEntity
100
AcDbBlockBegin
2
*PAPER_SPACE
0
ENDBLK
5
1D
100
AcDbEntity
100
AcDbBlockEnd
0
ENDSEC
0
SECTION
2
ENTITIES
0
LINE
5
100
100
AcDbEntity
8
0
100
AcDbLine
10
24.453690018342755
20
5.1977922704552393
30
0
11
8.8215324500977292
21
78.741311442017704
31
0
0
LINE
5
101
100
AcDbEntity
8
0
100
AcDbLine
10
7.9103390504542419e-15
20
0
30
0
11
113.12815036286658
21
24.046130669267892
31
0
0
LINE
5
102
100
AcDbEntity
8
0
100
AcDbLine
10
53.173354629540327
20
43.402124334204338
30
0
11
50.351077193358307
21
38.714584143926089
31
0
0
LINE
5
103
100
AcDbEntity
8
0
100
AcDbLine
10
35.874492702663112
20
35.637491119858225
30
0
11
50.351077193358307
21
38.714584143926089
31
0
0
LWPOLYLINE
5
104
100
AcDbEntity
8
0
100
AcDbPolyline
90
4
70
1
43
0.0
10
36.97416480907296
20
-8.9758810119335628
10
34.104983476499136
20
4.5225558783945257
10
20.60654658656469
20
1.6533745450998794
10
23.47572791894644
20
-11.845062345218649
0
LWPOLYLINE
5
105
100
AcDbEntity
8
0
100
AcDbPolyline
90
4
70
1
43
0.0
10
92.32815036285831
20
42.624954186545992
10
106.12815036285775
20
42.624954186556003
10
106.12815036297914
20
56.424954187343133
10
92.328150362877736
20
56.424954186549698
0
LINE
5
106
100
AcDbEntity
8
0
100
AcDbLine
10
88.151158402386898
20
29.463269470247212
30
0
11
92.328150362932973
21
29.902289015977633
31
0
0
LWPOLYLINE
5
107
100
AcDbEntity
8
0
100
AcDbPolyline
90
4
70
1
43
0.0
10
36.030907797704323
20
37.306483126437449
10
49.529344687994637
20
40.175664458951871
10
46.660163354870576
20
53.674101349944543
10
33.161726465856546
20
50.804920016869488
0
LINE
5
108
100
AcDbEntity
8
0
100
AcDbLine
10
20.06386538040087
20
11.421090403133807
30
0
11
36.985818873110141
21
15.017962654843778
31
0
0
LWPOLYLINE
5
109
100
AcDbEntity
8
0
100
AcDbPolyline
90
4
70
1
43
0.0
10
86.708665609162878
20
43.187671627509005
10
72.984263453176752
20
41.745178833480495
10
74.426756246278586
20
28.020776677402338
10
88.151158402386898
20
29.463269470247212
0
LWPOLYLINE
5
110
100
AcDbEntity
8
0
100
AcDbPolyline
90
8
70
1
43
0.0
10
42.614867602876785
20
6.3313875885394282
10
45.484048936219722
20
-7.1670493015748082
10
58.982485826333928
20
-4.2978679682318264
10
59.263166608943585
20
-5.6183672292212439
10
61.072739670292933
20
-5.2337306012020672
10
60.792058887683311
20
-3.9132313402126284
10
58.982485826333928
20
-4.2978679682318264
10
56.113304493392313
20
9.2005689219575864
0
LINE
5
111
100
AcDbEntity
8
0
100
AcDbLine
10
72.319756964341082
20
43.284149635388687
30
0
11
67.748509373867492
21
45.972117363636251
31
0
0
LWPOLYLINE
5
112
100
AcDbEntity
8
0
100
AcDbPolyline
90
8
70
1
43
0.0
10
101.62815036297786
20
-3.8837306010552024
10
101.62815036295066
20
9.9162693983094385
10
87.828150362970021
20
9.9162693987994803
10
85.978165453879541
20
9.9087970405756991
10
85.972712651933122
20
11.258786028290395
10
87.822697561024881
20
11.266258386514174
10
87.828150362970021
20
9.9162693987994803
10
87.828150362977851
20
-3.8837306012004791
0
LINE
5
113
100
AcDbEntity
8
0
100
AcDbLine
10
91.82815036331219
20
41.024954186545529
30
0
11
108.12815036284081
21
41.02495418624563
31
0
0
LINE
5
114
100
AcDbEntity
8
0
100
AcDbLine
10
69.93028743355039
20
30.719253878546198
30
0
11
67.53394258179695
21
44.309600869793393
31
0
0
LINE
5
115
100
AcDbEntity
8
0
100
AcDbLine
10
91.828150363473014
20
22.624954186549409
30
0
11
108.12815036286727
21
22.624954186600199
31
0
0
LWPOLYLINE
5
116
100
AcDbEntity
8
0
100
AcDbPolyline
90
4
70
1
43
0.0
10
39.565406541733239
20
20.677973913985504
10
53.063843431958304
20
23.547155246806991
10
50.194662098546544
20
37.045592137069079
10
36.696225208626949
20
34.176410804150031
0
LINE
5
117
100
AcDbEntity
8
0
100
AcDbLine
10
69.93028743355039
20
30.719253878546198
30
0
11
74.066479996201352
21
31.448576224749232
31
0
0
LWPOLYLINE
5
118
100
AcDbEntity
8
0
100
AcDbPolyline
90
4
70
1
43
0.0
10
22.374573110160934
20
14.979268277792396
10
35.873010000353027
20
17.848449610771798
10
33.003828667048928
20
31.346886500986564
10
19.505391777049081
20
28.477705167955744
0
LWPOLYLINE
5
119
100
AcDbEntity
8
0
100
AcDbPolyline
90
4
70
1
43
0.0
10
106.12815036296459
20
25.624954186552099
10
106.12815036306213
20
39.4249541865521
10
92.328150362972551
20
39.424954186545989
10
92.328150362958269
20
25.624954186549687
0
LINE
5
120
100
AcDbEntity
8
0
100
AcDbLine
10
39.700067813617814
20
17.63957526633266
30
0
11
36.985818873110141
21
15.017962654843778
31
0
0
LINE
5
121
100
AcDbEntity
8
0
100
AcDbLine
10
56.339940442001421
20
28.322909026632146
30
0
11
52.203747879294212
21
27.593586680764201
31
0
0
LINE
5
122
100
AcDbEntity
8
0
100
AcDbLine
10
72.319756964341082
20
43.284149635388687
30
0
11
87.038681015728912
21
44.83117089079937
31
0
0
LINE
5
123
100
AcDbEntity
8
0
100
AcDbLine
10
39.700067813617814
20
17.63957526633266
30
0
11
54.176652304542458
21
20.71666828972414
31
0
0
LINE
5
124
100
AcDbEntity
8
0
100
AcDbLine
10
91.828150363473014
20
22.624954186549409
30
0
11
89.171061665654335
21
24.542924225259583
31
0
0
LWPOLYLINE
5
125
100
AcDbEntity
8
0
100
AcDbPolyline
90
4
70
1
43
0.0
10
72.649772370679699
20
44.927648898654702
10
86.374174526797532
20
46.370141691444687
10
84.93168173366351
20
60.094543847049486
10
71.207279578118332
20
58.652051054792778
0
LINE
5
126
100
AcDbEntity
8
0
100
AcDbLine
10
64.796490353523424
20
62.713849164842649
30
0
11
70.542773088814101
21
60.191021855706822
31
0
0
LINE
5
127
100
AcDbEntity
8
0
100
AcDbLine
10
34.104983476499136
20
4.5225558783945257
30
0
11
42.614867602876068
21
6.3313875885428361
31
0
0
LINE
5
128
100
AcDbEntity
8
0
100
AcDbLine
10
56.889425631620412
20
22.327238419744372
30
0
11
54.176652304542458
21
20.71666828972414
31
0
0
LINE
5
129
100
AcDbEntity
8
0
100
AcDbLine
10
74.452137615189599
20
22.995902968950752
30
0
11
71.464580375947648
21
24.897231449176314
31
0
0
LINE
5
130
100
AcDbEntity
8
0
100
AcDbLine
10
91.82815036331219
20
41.024954186545529
30
0
11
87.038681015728912
21
44.83117089079937
31
0
0
LINE
5
131
100
AcDbEntity
8
0
100
AcDbLine
10
29.625745018198497
20
49.644387720269933
30
0
11
32.339993958847003
21
52.266000332351162
31
0
0
LWPOLYLINE
5
132
100
AcDbEntity
8
0
100
AcDbPolyline
90
4
70
1
43
0.0
10
61.629904541244571
20
77.793064471636029
10
48.039557549160193
20
75.396719620549334
10
50.435902401053035
20
61.806372628996499
10
64.026249392663843
20
64.202717480559869
0
LWPOLYLINE
5
133
100
AcDbEntity
8
0
100
AcDbPolyline
90
4
70
1
43
0.0
10
106.12815036274979
20
59.624954186742173
10
106.12815036253343
20
73.424954187338017
10
92.328150362318638
20
73.424954187332347
10
92.328150362749781
20
59.624954187332392
0
LINE
5
134
100
AcDbEntity
8
0
100
AcDbLine
10
91.828150363150797
20
58.02495418733659
30
0
11
108.12815036280155
21
58.024954187268101
31
0
0
LINE
5
135
100
AcDbEntity
8
0
100
AcDbLine
10
74.452137615189599
20
22.995902968950752
30
0
11
89.171061665654335
21
24.542924225259583
31
0
0
LINE
5
136
100
AcDbEntity
8
0
100
AcDbLine
10
20.187364008645954
20
-10.80372951168113
30
0
11
23.24684071268749
21
-25.197435731072865
31
0
0
LINE
5
137
100
AcDbEntity
8
0
100
AcDbLine
10
39.565406541733239
20
20.677973913985504
30
0
11
35.457186618735875
21
19.804744812152816
31
0
0
LINE
5
138
100
AcDbEntity
8
0
100
AcDbLine
10
58.982485826333928
20
-4.2978679682318264
30
0
11
61.076976071553361
21
-14.151669844001841
31
0
0
LINE
5
139
100
AcDbEntity
8
0
100
AcDbLine
10
32.339993958847003
20
52.266000332351162
30
0
11
46.816578449466476
21
55.343093356402974
31
0
0
LWPOLYLINE
5
140
100
AcDbEntity
8
0
100
AcDbPolyline
90
4
70
1
43
0.0
10
66.978268413140597
20
47.460985679371177
10
64.581923560858058
20
61.051332670985012
10
50.991576569441833
20
58.654987819331794
10
53.387921421530329
20
45.064640827813619
0
LINE
5
141
100
AcDbEntity
8
0
100
AcDbLine
10
47.026209140257407
20
78.264318790044484
30
0
11
61.601363884387254
21
80.834311821413905
31
0
0
LWPOLYLINE
5
142
100
AcDbEntity
8
0
100
AcDbPolyline
90
4
70
1
43
0.0
10
28.804012512565492
20
51.105468035571079
10
25.93483117948244
20
64.60390492617509
10
12.436394291477853
20
61.734723593373808
10
15.30557562234274
20
48.236286702738731
0
LWPOLYLINE
5
143
100
AcDbEntity
8
0
100
AcDbPolyline
90
4
70
1
43
0.0
10
15.97089303238498
20
45.106214380268419
10
18.840074366251834
20
31.607777490265573
10
32.338511256565091
20
34.476958822672117
10
29.469329923627463
20
47.975395713667368
0
LWPOLYLINE
5
144
100
AcDbEntity
8
0
100
AcDbPolyline
90
4
70
1
43
0.0
10
69.430295701966813
20
75.558923275990225
10
70.872788495075113
20
61.834521119909596
10
84.597190651248013
20
63.277013912117312
10
83.154697858252604
20
77.001416069117695
0
LINE
5
145
100
AcDbEntity
8
0
100
AcDbLine
10
42.991003338540452
20
73.341009209390563
30
0
11
47.026209140257407
21
78.264318790044484
31
0
0
LINE
5
146
100
AcDbEntity
8
0
100
AcDbLine
10
83.338373416018015
20
80.037245986851318
30
0
11
91.828150362991948
21
76.424954187331366
31
0
0
LINE
5
147
100
AcDbEntity
8
0
100
AcDbLine
10
91.828150362991948
20
76.424954187331366
30
0
11
108.12815036276672
21
76.424954187148785
31
0
0
LINE
5
148
100
AcDbEntity
8
0
100
AcDbLine
10
46.816578449466476
20
55.343093356402974
30
0
11
50.221335609196345
21
60.143856135410722
31
0
0
LINE
5
149
100
AcDbEntity
8
0
100
AcDbLine
10
61.601363884387254
20
80.834311821413905
30
0
11
68.619449364613615
21
78.490224730484471
31
0
0
LWPOLYLINE
5
150
100
AcDbEntity
8
0
100
AcDbPolyline
90
4
70
1
43
0.0
10
45.994845943854074
20
56.804173671929149
10
43.125664610245387
20
70.302610561699211
10
29.627227720842178
20
67.433429229107688
10
32.496409053676267
20
53.934992338885301
0
LINE
5
151
100
AcDbEntity
8
0
100
AcDbLine
10
85.261697139907142
20
61.738043112044132
30
0
11
91.828150363150797
21
58.02495418733659
31
0
0
LINE
5
152
100
AcDbEntity
8
0
100
AcDbLine
10
56.339940442001421
20
28.322909026632146
30
0
11
69.93028743355039
21
30.719253878546198
31
0
0
LINE
5
153
100
AcDbEntity
8
0
100
AcDbLine
10
50.221335609196345
20
60.143856135410722
30
0
11
64.796490353523424
21
62.713849164842649
31
0
0
LINE
5
154
100
AcDbEntity
8
0
100
AcDbLine
10
28.514418848002983
20
70.263916185356038
30
0
11
42.991003338540452
21
73.341009209390563
31
0
0
LINE
5
155
100
AcDbEntity
8
0
100
AcDbLine
10
53.943595590170787
20
41.913256018193287
30
0
11
56.339940442001421
21
28.322909026632146
31
0
0
LINE
5
156
100
AcDbEntity
8
0
100
AcDbLine
10
42.0603468316354
20
8.9402027051987627
30
0
11
49.284623321331942
21
-25.047345986712514
31
0
0
LINE
5
157
100
AcDbEntity
8
0
100
AcDbLine
10
20.052025815318203
20
4.2621896618310133
30
0
11
26.33040374145849
21
-25.275256168101485
31
0
0
LINE
5
158
100
AcDbEntity
8
0
100
AcDbLine
10
12.703791525433981
20
46.047515469108063
30
0
11
29.625745018198497
21
49.644387720269933
31
0
0
LINE
5
159
100
AcDbEntity
8
0
100
AcDbLine
10
70.542773088814101
20
60.191021855706822
30
0
11
85.261697139907142
21
61.738043112044132
31
0
0
LINE
5
160
100
AcDbEntity
8
0
100
AcDbLine
10
35.874492702663112
20
35.637491119858225
30
0
11
33.160243762086523
21
33.015878508041254
31
0
0
LINE
5
161
100
AcDbEntity
8
0
100
AcDbLine
10
68.619449364613615
20
78.490224730484471
30
0
11
83.338373416018015
21
80.037245986851318
31
0
0
LINE
5
162
100
AcDbEntity
8
0
100
AcDbLine
10
68.755942945071368
20
77.191575060342046
30
0
11
75.000251195506451
21
17.780950603730275
31
0
0
LINE
5
163
100
AcDbEntity
8
0
100
AcDbLine
10
67.53394258179695
20
44.309600869793393
30
0
11
53.943595590170787
21
41.913256018193287
31
0
0
LINE
5
164
100
AcDbEntity
8
0
100
AcDbLine
10
42.750739642316773
20
74.471361028862418
30
0
11
55.661501262220654
21
13.731003175382746
31
0
0
LINE
5
165
100
AcDbEntity
8
0
100
AcDbLine
10
25.279054324445038
20
70.093959634470281
30
0
11
37.984012458647094
21
10.321831057289723
31
0
0
LINE
5
166
100
AcDbEntity
8
0
100
AcDbLine
10
47.17097243829091
20
77.443325329760725
30
0
11
58.200302021210064
21
14.892888983714499
31
0
0
LINE
5
167
100
AcDbEntity
8
0
100
AcDbLine
10
75.681097805534876
20
16.086513932984559
30
0
11
69.389341561948996
21
75.948575889703378
31
0
0
LINE
5
168
100
AcDbEntity
8
0
100
AcDbLine
10
62.297305899466195
20
76.887428522977672
30
0
11
72.737687215480818
21
17.677083775716639
31
0
0
LINE
5
169
100
AcDbEntity
8
0
100
AcDbLine
10
53.173354629540327
20
43.402124334204338
30
0
11
67.748509373867492
21
45.972117363636251
31
0
0
LINE
5
170
100
AcDbEntity
8
0
100
AcDbLine
10
56.889425631620412
20
22.327238419744372
30
0
11
71.464580375947648
21
24.897231449176314
31
0
0
LINE
5
171
100
AcDbEntity
8
0
100
AcDbLine
10
16.238290269344422
20
29.419006256635551
30
0
11
33.160243762086523
21
33.015878508041254
31
0
0
LINE
5
172
100
AcDbEntity
8
0
100
AcDbLine
10
25.800169907158832
20
67.642303573542904
30
0
11
28.514418848002983
21
70.263916185356038
31
0
0
LINE
5
173
100
AcDbEntity
8
0
100
AcDbLine
10
20.6894264879056
20
8.478056781451869
30
0
11
8.8782164143857454
21
64.045431322571162
31
0
0
LINE
5
174
100
AcDbEntity
8
0
100
AcDbLine
10
8.8782164143857454
20
64.045431322571162
30
0
11
25.800169907158832
21
67.642303573542904
31
0
0
LINE
5
175
100
AcDbEntity
8
0
100
AcDbLine
10
83.632694937255138
20
77.236963766779965
30
0
11
89.672786436480791
21
19.769331899330233
31
0
0
LINE
5
176
100
AcDbEntity
8
0
100
AcDbLine
10
59.118311284805294
20
12.565984978457696
30
0
11
47.994967056780233
21
75.649604869165998
31
0
0
LINE
5
177
100
AcDbEntity
8
0
100
AcDbLine
10
42.0603468316354
20
8.9402027051987627
30
0
11
27.836869579299261
21
75.856402045525215
31
0
0
LINE
5
178
100
AcDbEntity
8
0
100
AcDbLine
10
108.12815036286605
20
23.424970243492513
30
0
11
108.12815036276245
21
78.67041434235864
31
0
0
LINE
5
179
100
AcDbEntity
8
0
100
AcDbLine
10
92.328150363002493
20
19.624954186546052
30
0
11
92.328150362650817
21
75.284389068261476
31
0
0
LINE
5
180
100
AcDbEntity
8
0
100
AcDbLine
10
28.384630006068832
20
70.874524679009255
30
0
11
41.277712134446681
21
10.217342292325162
31
0
0
LINE
5
181
100
AcDbEntity
8
0
100
AcDbLine
10
91.828150362975521
20
78.240457478026414
30
0
11
91.828150363503752
21
19.851122754709838
31
0
0
LINE
5
182
100
AcDbEntity
8
0
100
AcDbLine
10
8.8782164143857454
20
64.045431322571162
30
0
11
15.890312350243121
21
6.9364928347755566
31
0
0
LINE
5
183
100
AcDbEntity
8
0
100
AcDbLine
10
12.703791525433981
20
46.047515469108063
30
0
11
11.112079339595907
21
45.852077787067394
31
0
0
LINE
5
184
100
AcDbEntity
8
0
100
AcDbLine
10
20.06386538040087
20
11.421090403133807
30
0
11
15.409837358700454
21
10.849647615876879
31
0
0
LINE
5
185
100
AcDbEntity
8
0
100
AcDbLine
10
16.238290269344422
20
29.419006256635551
30
0
11
13.175974433501922
21
29.043001151300981
31
0
0
LINE
5
186
100
AcDbEntity
8
0
100
AcDbLine
10
7.9103390504542419e-15
20
0
30
0
11
9.8607613152626476e-31
21
1.0000000000000009
31
0
0
LINE
5
187
100
AcDbEntity
8
0
100
AcDbLine
10
7.9103390504542419e-15
20
0
30
0
11
1.0209176152199821
21
8.0491169285323849e-15
31
0
0
LWPOLYLINE
5
188
100
AcDbEntity
8
0
100
AcDbPolyline
90
4
70
1
43
0.0
10
0
20
0
10
5
20
0
10
5
20
5
10
0
20
5
0
LWPOLYLINE
5
189
100
AcDbEntity
8
0
100
AcDbPolyline
90
4
70
1
43
0.0
10
57.922877554748126
20
9.5852055499785731
10
56.113304493392313
20
9.2005689219575864
10
55.83262371078294
20
10.521068182945719
10
57.642196772138412
20
10.905704810967995
0
LINE
5
190
100
AcDbEntity
8
0
100
AcDbLine
10
57.642196772138412
20
10.905704810967995
30
0
11
300.40827520577636
21
10.905704810638552
31
0
0
LWPOLYLINE
5
191
100
AcDbEntity
8
0
100
AcDbPolyline
90
4
70
1
43
0.0
10
87.828150362979784
20
-5.2337306012005076
10
85.97815036297979
20
-5.233730601200528
10
85.97815036297915
20
-3.8837306012005119
10
87.828150362977851
20
-3.8837306012004791
0
LINE
5
192
100
AcDbEntity
8
0
100
AcDbLine
10
61.072739670292933
20
-5.2337306012020672
30
0
11
66.500000990927219
21
-5.2337306012020672
31
0
0
LINE
5
193
100
AcDbEntity
8
0
100
AcDbLine
10
-16.238290269344422
20
29.419006256635551
30
0
11
-33.160243762086523
21
33.015878508041254
31
0
0
LINE
5
194
100
AcDbEntity
8
0
100
AcDbLine
10
-56.339940442001421
20
28.322909026632146
30
0
11
-52.203747879294212
21
27.593586680764201
31
0
0
LWPOLYLINE
5
195
100
AcDbEntity
8
0
100
AcDbPolyline
90
4
70
1
43
0.0
10
-50.194662098546544
20
37.045592137069079
10
-36.696225208626949
20
34.176410804150031
10
-39.565406541733239
20
20.677973913985504
10
-53.063843431958304
20
23.547155246806991
0
LWPOLYLINE
5
196
100
AcDbEntity
8
0
100
AcDbPolyline
90
4
70
1
43
0.0
10
-36.030907797704323
20
37.306483126437449
10
-49.529344687994637
20
40.175664458951871
10
-46.660163354870576
20
53.674101349944543
10
-33.161726465856546
20
50.804920016869488
0
LINE
5
197
100
AcDbEntity
8
0
100
AcDbLine
10
-35.874492702663112
20
35.637491119858225
30
0
11
-50.351077193358307
21
38.714584143926089
31
0
0
LWPOLYLINE
5
198
100
AcDbEntity
8
0
100
AcDbPolyline
90
4
70
1
43
0.0
10
-45.994845943854074
20
56.804173671929149
10
-43.125664610245387
20
70.302610561699211
10
-29.627227720842178
20
67.433429229107688
10
-32.496409053676267
20
53.934992338885301
0
LINE
5
199
100
AcDbEntity
8
0
100
AcDbLine
10
-46.816578449466476
20
55.343093356402974
30
0
11
-50.221335609196345
21
60.143856135410722
31
0
0
LINE
5
200
100
AcDbEntity
8
0
100
AcDbLine
10
-25.800169907158832
20
67.642303573542904
30
0
11
-28.514418848002983
21
70.263916185356038
31
0
0
LINE
5
201
100
AcDbEntity
8
0
100
AcDbLine
10
-42.991003338540452
20
73.341009209390563
30
0
11
-47.026209140257407
21
78.264318790044484
31
0
0
LINE
5
202
100
AcDbEntity
8
0
100
AcDbLine
10
-32.339993958847003
20
52.266000332351162
30
0
11
-46.816578449466476
21
55.343093356402974
31
0
0
LINE
5
203
100
AcDbEntity
8
0
100
AcDbLine
10
-28.514418848002983
20
70.263916185356038
30
0
11
-42.991003338540452
21
73.341009209390563
31
0
0
LWPOLYLINE
5
204
100
AcDbEntity
8
0
100
AcDbPolyline
90
4
70
1
43
0.0
10
-48.039557549160193
20
75.396719620549334
10
-50.435902401053035
20
61.806372628996499
10
-64.026249392663843
20
64.202717480559869
10
-61.629904541244571
20
77.793064471636029
0
LWPOLYLINE
5
205
100
AcDbEntity
8
0
100
AcDbPolyline
90
4
70
1
43
0.0
10
-25.93483117948244
20
64.60390492617509
10
-12.436394291477853
20
61.734723593373808
10
-15.30557562234274
20
48.236286702738731
10
-28.804012512565492
20
51.105468035571079
0
LINE
5
206
100
AcDbEntity
8
0
100
AcDbLine
10
-29.625745018198497
20
49.644387720269933
30
0
11
-32.339993958847003
21
52.266000332351162
31
0
0
LWPOLYLINE
5
207
100
AcDbEntity
8
0
100
AcDbPolyline
90
4
70
1
43
0.0
10
-50.991576569441833
20
58.654987819331794
10
-53.387921421530329
20
45.064640827813619
10
-66.978268413140597
20
47.460985679371177
10
-64.581923560858058
20
61.051332670985012
0
LINE
5
208
100
AcDbEntity
8
0
100
AcDbLine
10
-35.874492702663112
20
35.637491119858225
30
0
11
-33.160243762086523
21
33.015878508041254
31
0
0
LWPOLYLINE
5
209
100
AcDbEntity
8
0
100
AcDbPolyline
90
4
70
1
43
0.0
10
-15.97089303238498
20
45.106214380268419
10
-18.840074366251834
20
31.607777490265573
10
-32.338511256565091
20
34.476958822672117
10
-29.469329923627463
20
47.975395713667368
0
LINE
5
210
100
AcDbEntity
8
0
100
AcDbLine
10
-53.173354629540327
20
43.402124334204338
30
0
11
-50.351077193358307
21
38.714584143926089
31
0
0
LWPOLYLINE
5
211
100
AcDbEntity
8
0
100
AcDbPolyline
90
4
70
1
43
0.0
10
-53.943595590170787
20
41.913256018193287
10
-56.339940442001421
20
28.322909026632146
10
-69.93028743355039
20
30.719253878546198
10
-67.53394258179695
20
44.309600869793393
0
LINE
5
212
100
AcDbEntity
8
0
100
AcDbLine
10
-12.703791525433981
20
46.047515469108063
30
0
11
-11.112079339595907
21
45.852077787067394
31
0
0
LWPOLYLINE
5
213
100
AcDbEntity
8
0
100
AcDbPolyline
90
4
70
1
43
0.0
10
-58.982485826333928
20
-4.2978679682318264
10
-60.792058887683311
20
-3.9132313402126284
10
-61.072739670292933
20
-5.2337306012020672
10
-59.263166608943585
20
-5.6183672292212439
0
LWPOLYLINE
5
214
100
AcDbEntity
8
0
100
AcDbPolyline
90
12
70
1
43
0.0
10
-87.828150362979784
20
-5.2337306012005076
10
-85.97815036297979
20
-5.233730601200528
10
-85.97815036297915
20
-3.8837306012005124
10
-87.828150362977851
20
-3.8837306012004791
10
-101.62815036297786
20
-3.883730601055202
10
-101.62815036295066
20
9.9162693983094385
10
-87.828150362970021
20
9.9162693987994803
10
-87.822697561024881
20
11.266258386514174
10
-85.972712651933122
20
11.258786028290395
10
-85.978165453879541
20
9.9087970405756991
10
-87.828150362970021
20
9.9162693987994803
10
-87.828150362977851
20
-3.8837306012004791
0
LWPOLYLINE
5
215
100
AcDbEntity
8
0
100
AcDbPolyline
90
4
70
1
43
0.0
10
-106.12815036285775
20
42.624954186556003
10
-106.12815036297914
20
56.424954187343133
10
-92.328150362877736
20
56.424954186549698
10
-92.32815036285831
20
42.624954186545992
0
LINE
5
216
100
AcDbEntity
8
0
100
AcDbLine
10
-91.82815036331219
20
41.024954186545529
30
0
11
-87.038681015728912
21
44.83117089079937
31
0
0
LINE
5
217
100
AcDbEntity
8
0
100
AcDbLine
10
-58.982485826333928
20
-4.2978679682318264
30
0
11
-61.076976071553361
21
-14.151669844001841
31
0
0
LINE
5
218
100
AcDbEntity
8
0
100
AcDbLine
10
-61.072739670292933
20
-5.2337306012020672
30
0
11
-66.500000990927219
21
-5.2337306012020672
31
0
0
LINE
5
219
100
AcDbEntity
8
0
100
AcDbLine
10
-24.453690018342755
20
5.1977922704552393
30
0
11
-8.8215324500977292
21
78.741311442017704
31
0
0
LINE
5
220
100
AcDbEntity
8
0
100
AcDbLine
10
-8.8782164143857454
20
64.045431322571162
30
0
11
-25.800169907158832
21
67.642303573542904
31
0
0
LWPOLYLINE
5
221
100
AcDbEntity
8
0
100
AcDbPolyline
90
4
70
1
43
0.0
10
-92.328150362958269
20
25.624954186549687
10
-106.12815036296459
20
25.624954186552099
10
-106.12815036306213
20
39.4249541865521
10
-92.328150362972551
20
39.424954186545989
0
LINE
5
222
100
AcDbEntity
8
0
100
AcDbLine
10
-91.828150363473014
20
22.624954186549409
30
0
11
-89.171061665654335
21
24.542924225259583
31
0
0
LINE
5
223
100
AcDbEntity
8
0
100
AcDbLine
10
-47.17097243829091
20
77.443325329760725
30
0
11
-58.200302021210064
21
14.892888983714499
31
0
0
LINE
5
224
100
AcDbEntity
8
0
100
AcDbLine
10
-8.8782164143857454
20
64.045431322571162
30
0
11
-15.890312350243121
21
6.9364928347755566
31
0
0
LINE
5
225
100
AcDbEntity
8
0
100
AcDbLine
10
-20.6894264879056
20
8.478056781451869
30
0
11
-8.8782164143857454
21
64.045431322571162
31
0
0
LINE
5
226
100
AcDbEntity
8
0
100
AcDbLine
10
-16.238290269344422
20
29.419006256635551
30
0
11
-13.175974433501922
21
29.043001151300981
31
0
0
LWPOLYLINE
5
227
100
AcDbEntity
8
0
100
AcDbPolyline
90
4
70
1
43
0.0
10
-33.003828667048928
20
31.346886500986564
10
-19.505391777049081
20
28.477705167955744
10
-22.374573110160934
20
14.979268277792396
10
-35.873010000353027
20
17.848449610771798
0
LINE
5
228
100
AcDbEntity
8
0
100
AcDbLine
10
-69.93028743355039
20
30.719253878546198
30
0
11
-74.066479996201352
21
31.448576224749232
31
0
0
LINE
5
229
100
AcDbEntity
8
0
100
AcDbLine
10
-88.151158402386898
20
29.463269470247212
30
0
11
-92.328150362932973
21
29.902289015977633
31
0
0
LINE
5
230
100
AcDbEntity
8
0
100
AcDbLine
10
-74.452137615189599
20
22.995902968950752
30
0
11
-89.171061665654335
21
24.542924225259583
31
0
0
LINE
5
231
100
AcDbEntity
8
0
100
AcDbLine
10
-91.828150363473014
20
22.624954186549409
30
0
11
-108.12815036286727
21
22.624954186600199
31
0
0
LWPOLYLINE
5
232
100
AcDbEntity
8
0
100
AcDbPolyline
90
4
70
1
43
0.0
10
-74.426756246278586
20
28.020776677402338
10
-88.151158402386898
20
29.463269470247212
10
-86.708665609162878
20
43.187671627509005
10
-72.984263453176752
20
41.745178833480495
0
LINE
5
233
100
AcDbEntity
8
0
100
AcDbLine
10
-74.452137615189599
20
22.995902968950752
30
0
11
-71.464580375947648
21
24.897231449176314
31
0
0
LINE
5
234
100
AcDbEntity
8
0
100
AcDbLine
10
-12.703791525433981
20
46.047515469108063
30
0
11
-29.625745018198497
21
49.644387720269933
31
0
0
LINE
5
235
100
AcDbEntity
8
0
100
AcDbLine
10
-20.06386538040087
20
11.421090403133807
30
0
11
-15.409837358700454
21
10.849647615876879
31
0
0
LINE
5
236
100
AcDbEntity
8
0
100
AcDbLine
10
-56.889425631620412
20
22.327238419744372
30
0
11
-54.176652304542458
21
20.71666828972414
31
0
0
LINE
5
237
100
AcDbEntity
8
0
100
AcDbLine
10
-20.06386538040087
20
11.421090403133807
30
0
11
-36.985818873110141
21
15.017962654843778
31
0
0
LWPOLYLINE
5
238
100
AcDbEntity
8
0
100
AcDbPolyline
90
4
70
1
43
0.0
10
-55.83262371078294
20
10.521068182945719
10
-57.642196772138412
20
10.905704810967995
10
-57.922877554748126
20
9.5852055499785731
10
-56.113304493392313
20
9.2005689219575864
0
LINE
5
239
100
AcDbEntity
8
0
100
AcDbLine
10
-39.700067813617814
20
17.63957526633266
30
0
11
-36.985818873110141
21
15.017962654843778
31
0
0
LINE
5
240
100
AcDbEntity
8
0
100
AcDbLine
10
-39.565406541733239
20
20.677973913985504
30
0
11
-35.457186618735875
21
19.804744812152816
31
0
0
LINE
5
241
100
AcDbEntity
8
0
100
AcDbLine
10
-39.700067813617814
20
17.63957526633266
30
0
11
-54.176652304542458
21
20.71666828972414
31
0
0
LINE
5
242
100
AcDbEntity
8
0
100
AcDbLine
10
-20.187364008645954
20
-10.80372951168113
30
0
11
-23.24684071268749
21
-25.197435731072865
31
0
0
LWPOLYLINE
5
243
100
AcDbEntity
8
0
100
AcDbPolyline
90
4
70
1
43
0.0
10
-23.47572791894644
20
-11.845062345218649
10
-36.97416480907296
20
-8.9758810119335628
10
-34.104983476499136
20
4.5225558783945257
10
-20.60654658656469
20
1.6533745450998794
0
LWPOLYLINE
5
244
100
AcDbEntity
8
0
100
AcDbPolyline
90
4
70
1
43
0.0
10
-42.614867602876785
20
6.3313875885394282
10
-45.484048936219722
20
-7.1670493015748082
10
-58.982485826333928
20
-4.2978679682318264
10
-56.113304493392313
20
9.2005689219575864
0
LINE
5
245
100
AcDbEntity
8
0
100
AcDbLine
10
-34.104983476499136
20
4.5225558783945257
30
0
11
-42.614867602876068
21
6.3313875885428361
31
0
0
LINE
5
246
100
AcDbEntity
8
0
100
AcDbLine
10
-20.052025815318203
20
4.2621896618310133
30
0
11
-26.33040374145849
21
-25.275256168101485
31
0
0
LINE
5
247
100
AcDbEntity
8
0
100
AcDbLine
10
-42.0603468316354
20
8.9402027051987627
30
0
11
-49.284623321331942
21
-25.047345986712514
31
0
0
LINE
5
248
100
AcDbEntity
8
0
100
AcDbLine
10
-42.750739642316773
20
74.471361028862418
30
0
11
-55.661501262220654
21
13.731003175382746
31
0
0
LINE
5
249
100
AcDbEntity
8
0
100
AcDbLine
10
-28.384630006068832
20
70.874524679009255
30
0
11
-41.277712134446681
21
10.217342292325162
31
0
0
LINE
5
250
100
AcDbEntity
8
0
100
AcDbLine
10
-42.0603468316354
20
8.9402027051987627
30
0
11
-27.836869579299261
21
75.856402045525215
31
0
0
LINE
5
251
100
AcDbEntity
8
0
100
AcDbLine
10
-25.279054324445038
20
70.093959634470281
30
0
11
-37.984012458647094
21
10.321831057289723
31
0
0
LINE
5
252
100
AcDbEntity
8
0
100
AcDbLine
10
-91.828150363150797
20
58.02495418733659
30
0
11
-108.12815036280155
21
58.024954187268101
31
0
0
LINE
5
253
100
AcDbEntity
8
0
100
AcDbLine
10
-72.319756964341082
20
43.284149635388687
30
0
11
-87.038681015728912
21
44.83117089079937
31
0
0
LWPOLYLINE
5
254
100
AcDbEntity
8
0
100
AcDbPolyline
90
4
70
1
43
0.0
10
-92.328150362318638
20
73.424954187332347
10
-92.328150362749781
20
59.624954187332392
10
-106.12815036274979
20
59.624954186742173
10
-106.12815036253343
20
73.424954187338017
0
LINE
5
255
100
AcDbEntity
8
0
100
AcDbLine
10
-61.601363884387254
20
80.834311821413905
30
0
11
-68.619449364613615
21
78.490224730484471
31
0
0
LWPOLYLINE
5
256
100
AcDbEntity
8
0
100
AcDbPolyline
90
4
70
1
43
0.0
10
-70.872788495075113
20
61.834521119909596
10
-84.597190651248013
20
63.277013912117312
10
-83.154697858252604
20
77.001416069117695
10
-69.430295701966813
20
75.558923275990225
0
LINE
5
257
100
AcDbEntity
8
0
100
AcDbLine
10
-70.542773088814101
20
60.191021855706822
30
0
11
-85.261697139907142
21
61.738043112044132
31
0
0
LINE
5
258
100
AcDbEntity
8
0
100
AcDbLine
10
-64.796490353523424
20
62.713849164842649
30
0
11
-70.542773088814101
21
60.191021855706822
31
0
0
LINE
5
259
100
AcDbEntity
8
0
100
AcDbLine
10
-91.828150362991948
20
76.424954187331366
30
0
11
-108.12815036276672
21
76.424954187148785
31
0
0
LINE
5
260
100
AcDbEntity
8
0
100
AcDbLine
10
-83.338373416018015
20
80.037245986851318
30
0
11
-91.828150362991948
21
76.424954187331366
31
0
0
LINE
5
261
100
AcDbEntity
8
0
100
AcDbLine
10
-68.619449364613615
20
78.490224730484471
30
0
11
-83.338373416018015
21
80.037245986851318
31
0
0
LINE
5
262
100
AcDbEntity
8
0
100
AcDbLine
10
-85.261697139907142
20
61.738043112044132
30
0
11
-91.828150363150797
21
58.02495418733659
31
0
0
LWPOLYLINE
5
263
100
AcDbEntity
8
0
100
AcDbPolyline
90
4
70
1
43
0.0
10
-84.93168173366351
20
60.094543847049486
10
-71.207279578118332
20
58.652051054792778
10
-72.649772370679699
20
44.927648898654702
10
-86.374174526797532
20
46.370141691444687
0
LINE
5
264
100
AcDbEntity
8
0
100
AcDbLine
10
-83.632694937255138
20
77.236963766779965
30
0
11
-89.672786436480791
21
19.769331899330233
31
0
0
LINE
5
265
100
AcDbEntity
8
0
100
AcDbLine
10
-92.328150363002493
20
19.624954186546052
30
0
11
-92.328150362650817
21
75.284389068261476
31
0
0
LINE
5
266
100
AcDbEntity
8
0
100
AcDbLine
10
-75.681097805534876
20
16.086513932984559
30
0
11
-69.389341561948996
21
75.948575889703378
31
0
0
LINE
5
267
100
AcDbEntity
8
0
100
AcDbLine
10
-91.828150362975521
20
78.240457478026414
30
0
11
-91.828150363503752
21
19.851122754709838
31
0
0
LINE
5
268
100
AcDbEntity
8
0
100
AcDbLine
10
-108.12815036286605
20
23.424970243492513
30
0
11
-108.12815036276245
21
78.67041434235864
31
0
0
LINE
5
269
100
AcDbEntity
8
0
100
AcDbLine
10
-62.297305899466195
20
76.887428522977672
30
0
11
-72.737687215480818
21
17.677083775716639
31
0
0
LINE
5
270
100
AcDbEntity
8
0
100
AcDbLine
10
-68.755942945071368
20
77.191575060342046
30
0
11
-75.000251195506451
21
17.780950603730275
31
0
0
LINE
5
271
100
AcDbEntity
8
0
100
AcDbLine
10
-57.642196772138412
20
10.905704810967995
30
0
11
-300.40827520577636
21
10.905704810638552
31
0
0
LINE
5
272
100
AcDbEntity
8
0
100
AcDbLine
10
-56.889425631620412
20
22.327238419744372
30
0
11
-71.464580375947648
21
24.897231449176314
31
0
0
LINE
5
273
100
AcDbEntity
8
0
100
AcDbLine
10
-47.026209140257407
20
78.264318790044484
30
0
11
-61.601363884387254
21
80.834311821413905
31
0
0
LINE
5
274
100
AcDbEntity
8
0
100
AcDbLine
10
-7.9103390504542419e-15
20
0
30
0
11
-113.12815036286658
21
24.046130669267892
31
0
0
LINE
5
275
100
AcDbEntity
8
0
100
AcDbLine
10
-50.221335609196345
20
60.143856135410722
30
0
11
-64.796490353523424
21
62.713849164842649
31
0
0
LINE
5
276
100
AcDbEntity
8
0
100
AcDbLine
10
-59.118311284805294
20
12.565984978457696
30
0
11
-47.994967056780233
21
75.649604869165998
31
0
0
LINE
5
277
100
AcDbEntity
8
0
100
AcDbLine
10
-53.173354629540327
20
43.402124334204338
30
0
11
-67.748509373867492
21
45.972117363636251
31
0
0
LINE
5
278
100
AcDbEntity
8
0
100
AcDbLine
10
-72.319756964341082
20
43.284149635388687
30
0
11
-67.748509373867492
21
45.972117363636251
31
0
0
LINE
5
279
100
AcDbEntity
8
0
100
AcDbLine
10
-91.82815036331219
20
41.024954186545529
30
0
11
-108.12815036284081
21
41.02495418624563
31
0
0
ENDSEC
0
SECTION
2
OBJECTS
0
DICTIONARY
5
C
100
AcDbDictionary
3
ACAD_GROUP
350
D
3
ACAD_MLINESTYLE
350
17
0
DICTIONARY
5
D
100
AcDbDictionary
0
DICTIONARY
5
1A
330
C
100
AcDbDictionary
0
DICTIONARY
5
17
100
AcDbDictionary
0
ENDSEC
0
EOF
