0
SECTION
2
HEADER
9
$INSUNITS
70
4
9
$ACADVER
1
AC1014
9
$HANDSEED
5
FFFF
0
ENDSEC
0
SECTION
2
TABLES
0
TABLE
2
VPORT
5
8
100
AcDbSymbolTable
0
ENDTAB
0
TABLE
2
LTYPE
5
5
100
AcDbSymbolTable
0
LTYPE
5
14
100
AcDbSymbolTableRecord
100
AcDbLinetypeTableRecord
2
BYBLOCK
70
0
0
LTYPE
5
15
100
AcDbSymbolTableRecord
100
AcDbLinetypeTableRecord
2
BYLAYER
70
0
0
ENDTAB
0
TABLE
2
LAYER
5
2
100
AcDbSymbolTable
70
2
0
LAYER
5
50
100
AcDbSymbolTableRecord
100
AcDbLayerTableRecord
2
0
70
0
6
CONTINUOUS
0
ENDTAB
0
TABLE
2
STYLE
5
3
100
AcDbSymbolTable
70
1
0
STYLE
5
11
100
AcDbSymbolTableRecord
100
AcDbTextStyleTableRecord
2
STANDARD
70
0
0
ENDTAB
0
TABLE
2
VIEW
5
6
100
AcDbSymbolTable
70
0
0
ENDTAB
0
TABLE
2
UCS
5
7
100
AcDbSymbolTable
70
0
0
ENDTAB
0
TABLE
2
APPID
5
9
100
AcDbSymbolTable
70
2
0
APPID
5
12
100
AcDbSymbolTableRecord
100
AcDbRegAppTableRecord
2
ACAD
70
0
0
ENDTAB
0
TABLE
2
DIMSTYLE
5
A
100
AcDbSymbolTable
70
1
0
ENDTAB
0
TABLE
2
BLOCK_RECORD
5
1
100
AcDbSymbolTable
70
1
0
BLOCK_RECORD
5
1F
100
AcDbSymbolTableRecord
100
AcDbBlockTableRecord
2
*MODEL_SPACE
0
BLOCK_RECORD
5
1B
100
AcDbSymbolTableRecord
100
AcDbBlockTableRecord
2
*PAPER_SPACE
0
ENDTAB
0
ENDSEC
0
SECTION
2
BLOCKS
0
BLOCK
5
20
100
AcDbEntity
100
AcDbBlockBegin
2
*MODEL_SPACE
0
ENDBLK
5
21
100
AcDbEntity
100
AcDbBlockEnd
0
BLOCK
5
1C
100
AcDbEntity
100
AcDbBlockBegin
2
*PAPER_SPACE
0
ENDBLK
5
1D
100
AcDbEntity
100
AcDbBlockEnd
0
ENDSEC
0
SECTION
2
ENTITIES
0
LINE
5
100
100
AcDbEntity
8
0
100
AcDbLine
10
53.416347982036356
20
25.360038530364797
30
0
11
51.400191026051218
21
21.242460322038006
31
0
0
ARC
5
101
100
AcDbEntity
8
0
100
AcDbCircle
10
53.865405872747381
20
25.14015899336751
30
0
40
0.49999999999997613
210
0
220
0
230
1
100
AcDbArc
50
99.999999999995751
51
153.91148987655799
0
LINE
5
102
100
AcDbEntity
8
0
100
AcDbLine
10
53.778581783913957
20
25.632562869873595
30
0
11
67.393339661665252
21
28.033212019533735
31
0
0
ARC
5
103
100
AcDbEntity
8
0
100
AcDbCircle
10
67.480163750498704
20
27.540808143027668
30
0
40
0.49999999999996109
210
0
220
-0
230
1
100
AcDbArc
50
49.96687540590387
51
99.999999999999389
0
LINE
5
104
100
AcDbEntity
8
0
100
AcDbLine
10
70.840682848678384
20
25.370705991580508
30
0
11
67.801778939492849
21
27.923644492148568
31
0
0
ARC
5
105
100
AcDbEntity
8
0
100
AcDbCircle
10
71.162298037672556
20
25.753542340701504
30
0
40
0.50000000000004963
210
0
220
0
230
1
100
AcDbArc
50
229.9668754059085
51
275.9999999999946
0
LINE
5
106
100
AcDbEntity
8
0
100
AcDbLine
10
71.214562269306342
20
25.256281393017311
30
0
11
85.378672228810217
21
26.744989338529169
31
0
0
ARC
5
107
100
AcDbEntity
8
0
100
AcDbCircle
10
85.430936460444002
20
26.247728390844998
30
0
40
0.50000000000003364
210
0
220
-0
230
1
100
AcDbArc
50
37.688311792436316
51
95.999999999994785
0
LINE
5
108
100
AcDbEntity
8
0
100
AcDbLine
10
88.498033427452384
20
23.095536304211276
30
0
11
85.826610593752207
21
26.553411200683623
31
0
0
ARC
5
109
100
AcDbEntity
8
0
100
AcDbCircle
10
88.893707560760561
20
23.401219114049873
30
0
40
0.50000000000000333
210
0
220
0
230
1
100
AcDbArc
50
217.68831179243571
51
269.99999999999835
0
LINE
5
110
100
AcDbEntity
8
0
100
AcDbLine
10
88.893707560760546
20
22.901219114049873
30
0
11
103.19370756076162
21
22.901219114049276
31
0
0
ARC
5
111
100
AcDbEntity
8
0
100
AcDbCircle
10
103.19370756076167
20
23.401219114049251
30
0
40
0.49999999999997602
210
0
220
0
230
1
100
AcDbArc
50
-90.000000000004889
51
0
0
ARC
5
112
100
AcDbEntity
8
0
100
AcDbCircle
10
103.19370756076162
20
23.401219114050456
30
0
40
0.50000000000000711
210
0
220
-0
230
1
100
AcDbArc
50
0
51
89.999999999996746
0
LINE
5
113
100
AcDbEntity
8
0
100
AcDbLine
10
89.384811663364601
20
23.901219114049876
30
0
11
103.19370756076165
21
23.901219114050463
31
0
0
ARC
5
114
100
AcDbEntity
8
0
100
AcDbCircle
10
89.384811663364644
20
24.40121911404999
30
0
40
0.50000000000010425
210
0
220
0
230
1
100
AcDbArc
50
217.6883117924466
51
269.99999999999511
0
LINE
5
115
100
AcDbEntity
8
0
100
AcDbLine
10
88.989137530056439
20
24.095536304211251
30
0
11
86.276896222427339
21
27.606246406899867
31
0
0
ARC
5
116
100
AcDbEntity
8
0
100
AcDbCircle
10
85.881222089119191
20
27.300563597061259
30
0
40
0.49999999999998057
210
0
220
-0
230
1
100
AcDbArc
50
37.688311792438689
51
95.999999999995381
0
LINE
5
117
100
AcDbEntity
8
0
100
AcDbLine
10
71.532522627889833
20
26.295208652914603
30
0
11
85.828957857485406
21
27.797824544745382
31
0
0
ARC
5
118
100
AcDbEntity
8
0
100
AcDbCircle
10
71.480258396256048
20
26.79246960059875
30
0
40
0.50000000000001166
210
0
220
0
230
1
100
AcDbArc
50
229.96687540595767
51
275.99999999999517
0
LINE
5
119
100
AcDbEntity
8
0
100
AcDbLine
10
71.15864320726223
20
26.409633251477509
30
0
11
68.087700781184509
21
28.989486839098461
31
0
0
ARC
5
120
100
AcDbEntity
8
0
100
AcDbCircle
10
67.766085592190692
20
28.606650489977206
30
0
40
0.50000000000002409
210
0
220
-0
230
1
100
AcDbArc
50
49.966875405958731
51
99.999999999994756
0
LINE
5
121
100
AcDbEntity
8
0
100
AcDbLine
10
53.104106758774535
20
26.529061337013225
30
0
11
67.679261503357267
21
29.09905436648334
31
0
0
ARC
5
122
100
AcDbEntity
8
0
100
AcDbCircle
10
53.190930847608001
20
26.036657460507072
30
0
40
0.50000000000004796
210
0
220
0
230
1
100
AcDbArc
50
99.999999999999233
51
153.9114898765568
0
LINE
5
123
100
AcDbEntity
8
0
100
AcDbLine
10
52.741872956896913
20
26.256536997504398
30
0
11
50.716139764644637
21
22.11940133277237
31
0
0
ARC
5
124
100
AcDbEntity
8
0
100
AcDbCircle
10
50.267081873933599
20
22.339280869769631
30
0
40
0.49999999999998163
210
-0
220
0
230
1
100
AcDbArc
50
281.99999999999676
51
333.91148987656089
0
LINE
5
125
100
AcDbEntity
8
0
100
AcDbLine
10
36.37059279907286
20
18.874320635300222
30
0
11
50.371037719342446
21
21.850207069402742
31
0
0
ARC
5
126
100
AcDbEntity
8
0
100
AcDbCircle
10
36.474548644481708
20
18.385246834933337
30
0
40
0.49999999999997724
210
0
220
0
230
1
100
AcDbArc
50
101.99999999999687
51
134.00538320807422
0
LINE
5
127
100
AcDbEntity
8
0
100
AcDbLine
10
36.127185668105852
20
18.744884100303992
30
0
11
33.619221948562419
21
16.3225162698585
31
0
0
ARC
5
128
100
AcDbEntity
8
0
100
AcDbCircle
10
33.271858972186578
20
16.682153535229109
30
0
40
0.49999999999993572
210
-0
220
0
230
1
100
AcDbArc
50
281.99999999999864
51
314.00538320807675
0
LINE
5
129
100
AcDbEntity
8
0
100
AcDbLine
10
18.201611766764984
20
12.967703308294938
30
0
11
33.375814817595433
21
16.193079734862266
31
0
0
ARC
5
130
100
AcDbEntity
8
0
100
AcDbCircle
10
18.305567612173867
20
12.478629507928034
30
0
40
0.500000000000002
210
0
220
0
230
1
100
AcDbArc
50
102.00000000000038
51
191.99999999999972
0
ARC
5
131
100
AcDbEntity
8
0
100
AcDbCircle
10
18.30556761217386
20
12.478629507928041
30
0
40
0.49999999999999939
210
0
220
0
230
1
100
AcDbArc
50
192.00000000000051
51
282.00000000000051
0
LINE
5
132
100
AcDbEntity
8
0
100
AcDbLine
10
18.409523457582743
20
11.98955570756114
30
0
11
33.864255549177443
21
15.27456042248193
31
0
0
ARC
5
133
100
AcDbEntity
8
0
100
AcDbCircle
10
33.76029970376856
20
15.76363422284884
30
0
40
0.50000000000000944
210
-0
220
0
230
1
100
AcDbArc
50
282.00000000000028
51
314.0053832080776
0
LINE
5
134
100
AcDbEntity
8
0
100
AcDbLine
10
36.615626399687351
20
17.826364787923517
30
0
11
34.107662680144458
21
15.403996957478183
31
0
0
ARC
5
135
100
AcDbEntity
8
0
100
AcDbCircle
10
36.962989376063277
20
17.46672752255283
30
0
40
0.50000000000004641
210
0
220
0
230
1
100
AcDbArc
50
102.0000000000001
51
134.00538320807755
0
ARC
5
136
100
AcDbEntity
8
0
100
AcDbCircle
10
50.951133135340214
20
21.462339859035254
30
0
40
0.49999999999993444
210
-0
220
0
230
1
100
AcDbArc
50
281.99999999999619
51
333.91148987656055
0
LINE
5
137
100
AcDbEntity
8
0
100
AcDbLine
10
36.859033530654386
20
17.955801322919779
30
0
11
51.055088980749048
21
20.973266058668408
31
0
0
LINE
5
138
100
AcDbEntity
8
0
100
AcDbLine
10
50.43247731587531
20
42.130526538458511
30
0
11
47.844987146250077
21
37.832946148990303
31
0
0
ARC
5
139
100
AcDbEntity
8
0
100
AcDbCircle
10
50.860830070687896
20
41.872623615938281
30
0
40
0.50000000000000855
210
0
220
0
230
1
100
AcDbArc
50
99.999999999999929
51
148.94866598629685
0
LINE
5
140
100
AcDbEntity
8
0
100
AcDbLine
10
50.77400598185443
20
42.365027492444398
30
0
11
64.538003307706262
21
44.791991583390995
31
0
0
ARC
5
141
100
AcDbEntity
8
0
100
AcDbCircle
10
64.6248273965397
20
44.299587706884871
30
0
40
0.50000000000001565
210
0
220
-0
230
1
100
AcDbArc
50
59.543781249949731
51
99.999999999996589
0
LINE
5
142
100
AcDbEntity
8
0
100
AcDbLine
10
69.131874251732881
20
42.229406195660573
30
0
11
64.878267306928976
21
44.730596073186383
31
0
0
ARC
5
143
100
AcDbEntity
8
0
100
AcDbCircle
10
69.3853141621221
20
42.660414561961922
30
0
40
0.49999999999985528
210
0
220
0
230
1
100
AcDbArc
50
239.54378124994582
51
276.00000000000529
0
LINE
5
144
100
AcDbEntity
8
0
100
AcDbLine
10
69.437578393755956
20
42.163153614277945
30
0
11
83.749892621744081
21
43.667438456092697
31
0
0
ARC
5
145
100
AcDbEntity
8
0
100
AcDbCircle
10
83.802156853377909
20
43.170177508408571
30
0
40
0.4999999999999889
210
0
220
-0
230
1
100
AcDbArc
50
51.525647900640863
51
96.000000000000256
0
LINE
5
146
100
AcDbEntity
8
0
100
AcDbLine
10
88.582625437096937
20
40.009775743510232
30
0
11
84.113238977037497
21
43.561620878948219
31
0
0
ARC
5
147
100
AcDbEntity
8
0
100
AcDbCircle
10
88.893707560756553
20
40.401219114049965
30
0
40
0.5000000000000806
210
0
220
0
230
1
100
AcDbArc
50
231.52564790064434
51
269.99999999999511
0
LINE
5
148
100
AcDbEntity
8
0
100
AcDbLine
10
88.893707560756511
20
39.901219114049887
30
0
11
103.19370756079101
21
39.901219114049461
31
0
0
ARC
5
149
100
AcDbEntity
8
0
100
AcDbCircle
10
103.19370756079101
20
40.401219114049468
30
0
40
0.50000000000001155
210
-0
220
0
230
1
100
AcDbArc
50
270
51
360
0
ARC
5
150
100
AcDbEntity
8
0
100
AcDbCircle
10
103.19370756079103
20
40.401219114050264
30
0
40
0.50000000000000711
210
0
220
-0
230
1
100
AcDbArc
50
0
51
89.99999999999838
0
LINE
5
151
100
AcDbEntity
8
0
100
AcDbLine
10
89.242672098426752
20
40.901219114049866
30
0
11
103.19370756079103
21
40.901219114050271
31
0
0
ARC
5
152
100
AcDbEntity
8
0
100
AcDbCircle
10
89.242672098426738
20
41.401219114049923
30
0
40
0.50000000000005029
210
0
220
0
230
1
100
AcDbArc
50
231.5256479006523
51
270.00000000000159
0
LINE
5
153
100
AcDbEntity
8
0
100
AcDbLine
10
88.931589974767192
20
41.009775743510168
30
0
11
84.415320337229645
21
44.598879188862284
31
0
0
ARC
5
154
100
AcDbEntity
8
0
100
AcDbCircle
10
84.104238213570127
20
44.207435818322608
30
0
40
0.49999999999998357
210
0
220
-0
230
1
100
AcDbArc
50
51.525647900649268
51
96.000000000001961
0
LINE
5
155
100
AcDbEntity
8
0
100
AcDbLine
10
69.66057283592734
20
43.19209955415441
30
0
11
84.051973981936285
21
44.704696766006727
31
0
0
ARC
5
156
100
AcDbEntity
8
0
100
AcDbCircle
10
69.608308604293526
20
43.689360501838522
30
0
40
0.49999999999997602
210
0
220
0
230
1
100
AcDbArc
50
239.54378124997086
51
275.99999999999881
0
LINE
5
157
100
AcDbEntity
8
0
100
AcDbLine
10
69.354868693904436
20
43.25835213553696
30
0
11
65.067506482243374
21
45.779390657486836
31
0
0
ARC
5
158
100
AcDbEntity
8
0
100
AcDbCircle
10
64.814066571854283
20
45.348382291185246
30
0
40
0.49999999999999445
210
0
220
-0
230
1
100
AcDbArc
50
59.543781249972533
51
99.999999999998749
0
LINE
5
159
100
AcDbEntity
8
0
100
AcDbLine
10
50.152087738437778
20
43.270793138220974
30
0
11
64.727242483020831
21
45.840786167691341
31
0
0
ARC
5
160
100
AcDbEntity
8
0
100
AcDbCircle
10
50.238911827271224
20
42.778389261714864
30
0
40
0.50000000000000555
210
0
220
0
230
1
100
AcDbArc
50
99.999999999997655
51
148.94866598629753
0
LINE
5
161
100
AcDbEntity
8
0
100
AcDbLine
10
49.810559072458638
20
43.036292184235087
30
0
11
47.212285701084625
21
38.720801900107169
31
0
0
ARC
5
162
100
AcDbEntity
8
0
100
AcDbCircle
10
46.78393294627206
20
38.978704822627385
30
0
40
0.49999999999998535
210
-0
220
0
230
1
100
AcDbArc
50
281.99999999999915
51
328.94866598629693
0
LINE
5
163
100
AcDbEntity
8
0
100
AcDbLine
10
32.836094055170705
20
35.502829847774862
30
0
11
46.887888791680929
21
38.489631022260497
31
0
0
ARC
5
164
100
AcDbEntity
8
0
100
AcDbCircle
10
32.940049900579588
20
35.013756047407966
30
0
40
0.49999999999998812
210
0
220
0
230
1
100
AcDbArc
50
102.0000000000006
51
134.00538320808317
0
LINE
5
165
100
AcDbEntity
8
0
100
AcDbLine
10
32.592686924203662
20
35.373393312778575
30
0
11
30.084723204660566
21
32.951025482332668
31
0
0
ARC
5
166
100
AcDbEntity
8
0
100
AcDbCircle
10
29.737360228284622
20
33.310662747703319
30
0
40
0.50000000000003497
210
-0
220
0
230
1
100
AcDbArc
50
281.99999999999875
51
314.00538320808181
0
LINE
5
167
100
AcDbEntity
8
0
100
AcDbLine
10
14.667113022863074
20
29.596212520769711
30
0
11
29.841316073693498
21
32.82158894733638
31
0
0
ARC
5
168
100
AcDbEntity
8
0
100
AcDbCircle
10
14.771068868271936
20
29.107138720402808
30
0
40
0.499999999999997
210
0
220
0
230
1
100
AcDbArc
50
101.99999999999802
51
191.99999999999798
0
ARC
5
169
100
AcDbEntity
8
0
100
AcDbCircle
10
14.77106886827193
20
29.107138720402791
30
0
40
0.49999999999999034
210
0
220
0
230
1
100
AcDbArc
50
191.9999999999969
51
281.99999999999881
0
LINE
5
170
100
AcDbEntity
8
0
100
AcDbLine
10
14.875024713680798
20
28.618064920035895
30
0
11
30.329756805274613
21
31.903069634955802
31
0
0
ARC
5
171
100
AcDbEntity
8
0
100
AcDbCircle
10
30.225800959865762
20
32.392143435322708
30
0
40
0.49999999999999989
210
-0
220
0
230
1
100
AcDbArc
50
281.99999999999676
51
314.00538320807971
0
LINE
5
172
100
AcDbEntity
8
0
100
AcDbLine
10
33.08112765578511
20
34.454874000398107
30
0
11
30.573163936241667
21
32.032506169952072
31
0
0
ARC
5
173
100
AcDbEntity
8
0
100
AcDbCircle
10
33.428490632161072
20
34.095236735027385
30
0
40
0.50000000000009992
210
0
220
0
230
1
100
AcDbArc
50
102.00000000000458
51
134.00538320807763
0
ARC
5
174
100
AcDbEntity
8
0
100
AcDbCircle
10
47.416634391437498
20
38.090849071510505
30
0
40
0.49999999999998279
210
-0
220
0
230
1
100
AcDbArc
50
282
51
328.9486659862992
0
LINE
5
175
100
AcDbEntity
8
0
100
AcDbLine
10
33.324534786752132
20
34.58431053539438
30
0
11
47.520590236846374
21
37.601775271143616
31
0
0
LINE
5
176
100
AcDbEntity
8
0
100
AcDbLine
10
44.289978845871047
20
54.430111113624342
30
0
11
47.457152061818562
21
58.895876681543513
31
0
0
ARC
5
177
100
AcDbEntity
8
0
100
AcDbCircle
10
47.864995260155723
20
58.606629511168286
30
0
40
0.49999999999996181
210
0
220
0
230
1
100
AcDbArc
50
99.999999999997712
51
144.65528787538318
0
LINE
5
178
100
AcDbEntity
8
0
100
AcDbLine
10
47.778171171322285
20
59.099033387674353
30
0
11
61.650572416511487
21
61.545112014414698
31
0
0
ARC
5
179
100
AcDbEntity
8
0
100
AcDbCircle
10
61.737396505344968
20
61.052708137908695
30
0
40
0.49999999999990341
210
0
220
-0
230
1
100
AcDbArc
50
66.296776939894897
51
100.00000000000378
0
LINE
5
180
100
AcDbEntity
8
0
100
AcDbLine
10
61.938396147743802
20
61.510528128467698
30
0
11
67.407330644164873
21
59.10946679267731
31
0
0
ARC
5
181
100
AcDbEntity
8
0
100
AcDbCircle
10
67.608330286563714
20
59.567286783236391
30
0
40
0.49999999999997663
210
0
220
0
230
1
100
AcDbArc
50
246.29677693989774
51
276.00000000000193
0
LINE
5
182
100
AcDbEntity
8
0
100
AcDbLine
10
67.660594518197556
20
59.070025835552272
30
0
11
82.061298094949251
21
60.583600772274423
31
0
0
ARC
5
183
100
AcDbEntity
8
0
100
AcDbCircle
10
82.113562326583065
20
60.086339824590276
30
0
40
0.5000000000000151
210
0
220
-0
230
1
100
AcDbArc
50
60.513429874413333
51
95.999999999998209
0
LINE
5
184
100
AcDbEntity
8
0
100
AcDbLine
10
82.359672096131291
20
60.521575371544955
30
0
11
88.647597791205115
21
56.965983567109689
31
0
0
ARC
5
185
100
AcDbEntity
8
0
100
AcDbCircle
10
88.89370756075337
20
57.401219114064574
30
0
40
0.50000000000021039
210
0
220
0
230
1
100
AcDbArc
50
240.51342987442209
51
269.99999999999346
0
LINE
5
186
100
AcDbEntity
8
0
100
AcDbLine
10
88.893707560753313
20
56.901219114064361
30
0
11
103.19370756081804
21
56.901219114064013
31
0
0
ARC
5
187
100
AcDbEntity
8
0
100
AcDbCircle
10
103.19370756081804
20
57.401219114064041
30
0
40
0.50000000000002487
210
-0
220
0
230
1
100
AcDbArc
50
270
51
360
0
ARC
5
188
100
AcDbEntity
8
0
100
AcDbCircle
10
103.19370756081804
20
57.401219114064652
30
0
40
0.50000000000002487
210
0
220
-0
230
1
100
AcDbArc
50
0
51
90
0
LINE
5
189
100
AcDbEntity
8
0
100
AcDbLine
10
89.156860271693347
20
57.901219114064347
30
0
11
103.19370756081804
21
57.901219114064673
31
0
0
ARC
5
190
100
AcDbEntity
8
0
100
AcDbCircle
10
89.156860271693404
20
58.401219114064553
30
0
40
0.50000000000020262
210
0
220
0
230
1
100
AcDbArc
50
240.51342987442032
51
269.99999999999346
0
LINE
5
191
100
AcDbEntity
8
0
100
AcDbLine
10
82.57336410756777
20
61.5495435865529
30
0
11
88.910750502145135
21
57.965983567109674
31
0
0
ARC
5
192
100
AcDbEntity
8
0
100
AcDbCircle
10
82.327254338019586
20
61.114308039598257
30
0
40
0.49999999999997435
210
0
220
-0
230
1
100
AcDbArc
50
60.513429874415586
51
96.000000000000412
0
LINE
5
193
100
AcDbEntity
8
0
100
AcDbLine
10
67.819788696588887
20
60.092266097494402
30
0
11
82.274990106385758
21
61.611568987282368
31
0
0
ARC
5
194
100
AcDbEntity
8
0
100
AcDbCircle
10
67.767524464955102
20
60.589527045178677
30
0
40
0.50000000000012956
210
0
220
0
230
1
100
AcDbArc
50
246.29677693991226
51
275.99999999999363
0
LINE
5
195
100
AcDbEntity
8
0
100
AcDbLine
10
62.063047193912965
20
62.547934082966989
30
0
11
67.566524822556318
21
60.131707054619412
31
0
0
ARC
5
196
100
AcDbEntity
8
0
100
AcDbCircle
10
61.862047551514195
20
62.090114092407759
30
0
40
0.50000000000008638
210
0
220
-0
230
1
100
AcDbArc
50
66.296776939912093
51
99.999999999996916
0
LINE
5
197
100
AcDbEntity
8
0
100
AcDbLine
10
47.200068718098407
20
60.012524939442983
30
0
11
61.775223462680742
21
62.582517968913947
31
0
0
ARC
5
198
100
AcDbEntity
8
0
100
AcDbCircle
10
47.286892806931924
20
59.520121062936802
30
0
40
0.50000000000007905
210
0
220
0
230
1
100
AcDbArc
50
100.00000000000426
51
144.65528787538136
0
LINE
5
199
100
AcDbEntity
8
0
100
AcDbLine
10
43.70015956636707
20
55.327081750431461
30
0
11
46.87904960859467
21
59.809368233312114
31
0
0
ARC
5
200
100
AcDbEntity
8
0
100
AcDbCircle
10
43.292316368029844
20
55.616328920806708
30
0
40
0.50000000000002742
210
-0
220
0
230
1
100
AcDbArc
50
282.00000000000227
51
324.6552878753854
0
LINE
5
201
100
AcDbEntity
8
0
100
AcDbLine
10
29.301595311266233
20
52.131339060263983
30
0
11
43.396272213438749
21
55.127255120439784
31
0
0
ARC
5
202
100
AcDbEntity
8
0
100
AcDbCircle
10
29.405551156675138
20
51.642265259897073
30
0
40
0.5000000000000101
210
0
220
0
230
1
100
AcDbArc
50
102.00000000000264
51
134.00538320808118
0
LINE
5
203
100
AcDbEntity
8
0
100
AcDbLine
10
26.550224460756169
20
49.579534694822172
30
0
11
29.058188180299215
21
52.00190252526771
31
0
0
ARC
5
204
100
AcDbEntity
8
0
100
AcDbCircle
10
26.202861484380264
20
49.939171960192809
30
0
40
0.49999999999999589
210
-0
220
0
230
1
100
AcDbArc
50
281.9999999999996
51
314.00538320807971
0
LINE
5
205
100
AcDbEntity
8
0
100
AcDbLine
10
11.132614278958691
20
46.224721733258789
30
0
11
26.306817329789141
21
49.450098159825906
31
0
0
ARC
5
206
100
AcDbEntity
8
0
100
AcDbCircle
10
11.236570124367574
20
45.735647932891872
30
0
40
0.5000000000000151
210
0
220
0
230
1
100
AcDbArc
50
102.00000000000009
51
191.99999999999838
0
ARC
5
207
100
AcDbEntity
8
0
100
AcDbCircle
10
11.236570124367551
20
45.735647932891865
30
0
40
0.49999999999998962
210
0
220
0
230
1
100
AcDbArc
50
191.99999999999898
51
282.00000000000017
0
LINE
5
208
100
AcDbEntity
8
0
100
AcDbLine
10
11.340525969776433
20
45.24657413252497
30
0
11
26.795258061370653
21
48.531578847445459
31
0
0
ARC
5
209
100
AcDbEntity
8
0
100
AcDbCircle
10
26.691302215961819
20
49.020652647812291
30
0
40
0.49999999999992667
210
-0
220
0
230
1
100
AcDbArc
50
281.99999999999653
51
314.00538320807931
0
LINE
5
210
100
AcDbEntity
8
0
100
AcDbLine
10
27.038665192337671
20
48.661015382441704
30
0
11
29.546628911880816
21
51.083383212887227
31
0
0
ARC
5
211
100
AcDbEntity
8
0
100
AcDbCircle
10
29.89399188825665
20
50.723745947516683
30
0
40
0.49999999999988054
210
0
220
0
230
1
100
AcDbArc
50
101.99999999999636
51
134.00538320808124
0
ARC
5
212
100
AcDbEntity
8
0
100
AcDbCircle
10
43.882135647533858
20
54.719358283999611
30
0
40
0.50000000000000822
210
-0
220
0
230
1
100
AcDbArc
50
282.00000000000102
51
324.65528787538108
0
LINE
5
213
100
AcDbEntity
8
0
100
AcDbLine
10
29.790036042847827
20
51.212819747883472
30
0
11
43.986091492942748
21
54.230284483632701
31
0
0
LINE
5
214
100
AcDbEntity
8
0
100
AcDbLine
10
40.735901715404708
20
71.032827124537789
30
0
11
44.487912456994763
21
75.656913032823141
31
0
0
ARC
5
215
100
AcDbEntity
8
0
100
AcDbCircle
10
44.876177268765403
20
75.341872660901316
30
0
40
0.49999999999992373
210
0
220
0
230
1
100
AcDbArc
50
99.999999999996533
51
140.94392007833039
0
LINE
5
216
100
AcDbEntity
8
0
100
AcDbLine
10
44.789353179931979
20
75.834276537407362
30
0
11
58.743896522698442
21
78.294839032202589
31
0
0
ARC
5
217
100
AcDbEntity
8
0
100
AcDbCircle
10
58.830720611531895
20
77.802435155696315
30
0
40
0.50000000000016442
210
0
220
-0
230
1
100
AcDbArc
50
71.189035622864793
51
99.999999999995211
0
LINE
5
218
100
AcDbEntity
8
0
100
AcDbLine
10
58.99194403371866
20
78.275728941984013
30
0
11
65.67012298883634
21
76.000865218196338
31
0
0
ARC
5
219
100
AcDbEntity
8
0
100
AcDbCircle
10
65.831346411023063
20
76.474159004483738
30
0
40
0.49999999999986422
210
0
220
0
230
1
100
AcDbArc
50
251.18903562285837
51
276.00000000000517
0
LINE
5
220
100
AcDbEntity
8
0
100
AcDbLine
10
65.883610642656919
20
75.976898056799754
30
0
11
80.341120762697983
21
77.496443601812331
31
0
0
ARC
5
221
100
AcDbEntity
8
0
100
AcDbCircle
10
80.393384994331797
20
76.999182654128163
30
0
40
0.5000000000000403
210
0
220
-0
230
1
100
AcDbArc
50
66.545458782907389
51
95.999999999998124
0
LINE
5
222
100
AcDbEntity
8
0
100
AcDbLine
10
80.592395665856316
20
77.457870731823007
30
0
11
88.69469688923445
21
73.942531036355078
31
0
0
ARC
5
223
100
AcDbEntity
8
0
100
AcDbCircle
10
88.893707560758941
20
74.401219114049738
30
0
40
0.49999999999985395
210
0
220
0
230
1
100
AcDbArc
50
246.54545878290193
51
270.00000000000324
0
LINE
5
224
100
AcDbEntity
8
0
100
AcDbLine
10
88.893707560758969
20
73.90121911404988
30
0
11
103.19370756084929
21
73.901219114049638
31
0
0
ARC
5
225
100
AcDbEntity
8
0
100
AcDbCircle
10
103.19370756084929
20
74.401219114049667
30
0
40
0.50000000000003375
210
-0
220
0
230
1
100
AcDbArc
50
270
51
360
0
ARC
5
226
100
AcDbEntity
8
0
100
AcDbCircle
10
103.19370756084925
20
74.401219114050079
30
0
40
0.5000000000000604
210
0
220
-0
230
1
100
AcDbArc
50
0
51
89.999999999996746
0
LINE
5
227
100
AcDbEntity
8
0
100
AcDbLine
10
89.101294028301368
20
74.901219114049866
30
0
11
103.19370756084928
21
74.901219114050136
31
0
0
ARC
5
228
100
AcDbEntity
8
0
100
AcDbCircle
10
89.101294028301311
20
75.401219114049681
30
0
40
0.4999999999998111
210
0
220
0
230
1
100
AcDbArc
50
246.54545878289491
51
270.00000000000648
0
LINE
5
229
100
AcDbEntity
8
0
100
AcDbLine
10
80.749281133994216
20
78.479868338539902
30
0
11
88.902283356776778
21
74.942531036355078
31
0
0
ARC
5
230
100
AcDbEntity
8
0
100
AcDbCircle
10
80.550270462469612
20
78.021180260844915
30
0
40
0.50000000000019795
210
0
220
-0
230
1
100
AcDbArc
50
66.545458782904902
51
95.999999999994458
0
LINE
5
231
100
AcDbEntity
8
0
100
AcDbLine
10
65.997841759538176
20
76.994412510546653
30
0
11
80.498006230835813
21
78.518441208529254
31
0
0
ARC
5
232
100
AcDbEntity
8
0
100
AcDbCircle
10
65.945577527904334
20
77.491673458230736
30
0
40
0.49999999999995387
210
0
220
0
230
1
100
AcDbArc
50
251.18903562286209
51
276.00000000000239
0
LINE
5
233
100
AcDbEntity
8
0
100
AcDbLine
10
59.071251953367664
20
79.305139679887603
30
0
11
65.784354105717611
21
77.018379671943237
31
0
0
ARC
5
234
100
AcDbEntity
8
0
100
AcDbCircle
10
58.910028531180956
20
78.831845893600217
30
0
40
0.49999999999984168
210
0
220
-0
230
1
100
AcDbArc
50
71.189035622859407
51
100.00000000000361
0
LINE
5
235
100
AcDbEntity
8
0
100
AcDbLine
10
44.248049697765822
20
76.75425674063581
30
0
11
58.823204442347489
21
79.32424977010615
31
0
0
ARC
5
236
100
AcDbEntity
8
0
100
AcDbCircle
10
44.334873786599246
20
76.261852864129764
30
0
40
0.49999999999993083
210
0
220
0
230
1
100
AcDbArc
50
99.999999999996533
51
140.94392007832809
0
LINE
5
237
100
AcDbEntity
8
0
100
AcDbLine
10
40.182148422862227
20
71.937463823526414
30
0
11
43.946608974828614
21
76.576893236051603
31
0
0
ARC
5
238
100
AcDbEntity
8
0
100
AcDbCircle
10
39.793883611091573
20
72.252504195448296
30
0
40
0.49999999999997569
210
-0
220
0
230
1
100
AcDbArc
50
281.99999999999852
51
320.94392007832636
0
LINE
5
239
100
AcDbEntity
8
0
100
AcDbLine
10
25.76709656736622
20
68.759848272723815
30
0
11
39.897839456500435
21
71.763430395081414
31
0
0
ARC
5
240
100
AcDbEntity
8
0
100
AcDbCircle
10
25.871052412775114
20
68.270774472356905
30
0
40
0.50000000000000822
210
0
220
0
230
1
100
AcDbArc
50
102.00000000000145
51
134.00538320808062
0
LINE
5
241
100
AcDbEntity
8
0
100
AcDbLine
10
23.0157257168567
20
66.208043907282473
30
0
11
25.523689436399199
21
68.630411737727542
31
0
0
ARC
5
242
100
AcDbEntity
8
0
100
AcDbCircle
10
22.668362740480838
20
66.567681172653039
30
0
40
0.49999999999992489
210
-0
220
0
230
1
100
AcDbArc
50
281.99999999999591
51
314.00538320808187
0
LINE
5
243
100
AcDbEntity
8
0
100
AcDbLine
10
7.5981155350592235
20
62.853230945719218
30
0
11
22.772318585889664
21
66.078607372286214
31
0
0
ARC
5
244
100
AcDbEntity
8
0
100
AcDbCircle
10
7.7020713804680883
20
62.364157145352323
30
0
40
0.49999999999999356
210
0
220
0
230
1
100
AcDbArc
50
101.99999999999849
51
191.99999999999889
0
ARC
5
245
100
AcDbEntity
8
0
100
AcDbCircle
10
7.7020713804680803
20
62.364157145352294
30
0
40
0.49999999999998052
210
0
220
0
230
1
100
AcDbArc
50
191.99999999999673
51
282.00000000000142
0
LINE
5
246
100
AcDbEntity
8
0
100
AcDbLine
10
7.8060272258769681
20
61.875083344985413
30
0
11
23.260759317471205
21
65.160088059905775
31
0
0
ARC
5
247
100
AcDbEntity
8
0
100
AcDbCircle
10
23.156803472062336
20
65.649161860272685
30
0
40
0.50000000000001232
210
-0
220
0
230
1
100
AcDbArc
50
281.99999999999864
51
314.00538320807914
0
LINE
5
248
100
AcDbEntity
8
0
100
AcDbLine
10
23.504166448438248
20
65.289524594902034
30
0
11
26.012130167980636
21
67.711892425347045
31
0
0
ARC
5
249
100
AcDbEntity
8
0
100
AcDbCircle
10
26.359493144356509
20
67.352255159976494
30
0
40
0.49999999999991213
210
0
220
0
230
1
100
AcDbArc
50
101.99999999999869
51
134.00538320808388
0
ARC
5
250
100
AcDbEntity
8
0
100
AcDbCircle
10
40.347636903634061
20
71.347867496459642
30
0
40
0.49999999999995742
210
-0
220
0
230
1
100
AcDbArc
50
281.99999999999886
51
320.94392007832835
0
LINE
5
251
100
AcDbEntity
8
0
100
AcDbLine
10
26.255537298947658
20
67.841328960343318
30
0
11
40.451592749042923
21
70.858793696092775
31
0
0
LINE
5
252
100
AcDbEntity
8
0
100
AcDbLine
10
12.371132820162325
20
47.612551630278205
30
0
11
25.869569710288886
21
50.481732963563097
31
0
0
LINE
5
253
100
AcDbEntity
8
0
100
AcDbLine
10
25.869569710288886
20
50.481732963563097
30
0
11
23.000388377003848
21
63.980169853689915
31
0
0
LINE
5
254
100
AcDbEntity
8
0
100
AcDbLine
10
9.5019514868772266
20
61.11098852040471
30
0
11
12.371132820162325
21
47.612551630278205
31
0
0
LINE
5
255
100
AcDbEntity
8
0
100
AcDbLine
10
23.000388377003848
20
63.980169853689915
30
0
11
9.5019514868772248
21
61.11098852040471
31
0
0
LINE
5
256
100
AcDbEntity
8
0
100
AcDbLine
10
29.561966251731491
20
53.311257266479529
30
0
11
43.06040314185806
21
56.180438599764251
31
0
0
LINE
5
257
100
AcDbEntity
8
0
100
AcDbLine
10
43.06040314185806
20
56.180438599764251
30
0
11
40.191221808575634
21
69.678875489876489
31
0
0
LINE
5
258
100
AcDbEntity
8
0
100
AcDbLine
10
26.692784918446758
20
66.809694156606113
30
0
11
29.561966251731491
21
53.311257266479529
31
0
0
LINE
5
259
100
AcDbEntity
8
0
100
AcDbLine
10
40.191221808575634
20
69.678875489876489
30
0
11
26.692784918446758
21
66.809694156606113
31
0
0
LINE
5
260
100
AcDbEntity
8
0
100
AcDbLine
10
47.501459599176471
20
61.18263755659089
30
0
11
61.091806590745115
21
63.578982408393557
31
0
0
LINE
5
261
100
AcDbEntity
8
0
100
AcDbLine
10
61.091806590745115
20
63.578982408393557
30
0
11
58.695461738944445
21
77.169329399947856
31
0
0
LINE
5
262
100
AcDbEntity
8
0
100
AcDbLine
10
45.105114747376021
20
74.772984548145132
30
0
11
47.501459599176471
21
61.18263755659089
31
0
0
LINE
5
263
100
AcDbEntity
8
0
100
AcDbLine
10
58.695461738944445
20
77.169329399947856
30
0
11
45.105114747376021
21
74.772984548145132
31
0
0
LINE
5
264
100
AcDbEntity
8
0
100
AcDbLine
10
67.938345693027486
20
61.210786047445737
30
0
11
81.662747849108271
21
62.65327884055403
31
0
0
LINE
5
265
100
AcDbEntity
8
0
100
AcDbLine
10
81.662747849108271
20
62.65327884055403
30
0
11
80.220255056016455
21
76.377680996621947
31
0
0
LINE
5
266
100
AcDbEntity
8
0
100
AcDbLine
10
66.495852899933652
20
74.9351882035279
30
0
11
67.938345693027486
21
61.210786047445737
31
0
0
LINE
5
267
100
AcDbEntity
8
0
100
AcDbLine
10
80.220255056016455
20
76.377680996621947
30
0
11
66.495852899933652
21
74.9351882035279
31
0
0
LINE
5
268
100
AcDbEntity
8
0
100
AcDbLine
10
103.19370756075656
20
72.801219114049871
30
0
11
89.393707560756525
21
72.801219114049871
31
0
0
LINE
5
269
100
AcDbEntity
8
0
100
AcDbLine
10
89.393707560756525
20
72.801219114049871
30
0
11
89.393707560756525
21
59.001219114049881
31
0
0
LINE
5
270
100
AcDbEntity
8
0
100
AcDbLine
10
103.19370756075654
20
59.001219114049889
30
0
11
103.19370756075656
21
72.801219114049871
31
0
0
LINE
5
271
100
AcDbEntity
8
0
100
AcDbLine
10
89.393707560756525
20
59.001219114049881
30
0
11
103.19370756075654
21
59.001219114049889
31
0
0
LINE
5
272
100
AcDbEntity
8
0
100
AcDbLine
10
26.437618004784408
20
49.497709191516066
30
0
11
25.869569710288886
21
50.481732963563097
31
0
0
LINE
5
273
100
AcDbEntity
8
0
100
AcDbLine
10
25.869569710288886
20
50.481732963563097
30
0
11
24.751436550794228
21
52.418662657602468
31
0
0
CIRCLE
5
274
100
AcDbEntity
8
0
100
AcDbCircle
10
26.287633469936779
20
49.757525740847591
30
0
40
0.099999999999999617
210
0
220
0
230
1
0
CIRCLE
5
275
100
AcDbEntity
8
0
100
AcDbCircle
10
26.062656667665337
20
50.147250564844875
30
0
40
0.099999999999999617
210
0
220
0
230
1
0
CIRCLE
5
276
100
AcDbEntity
8
0
100
AcDbCircle
10
25.837679865393891
20
50.536975388842158
30
0
40
0.099999999999999617
210
0
220
0
230
1
0
LINE
5
277
100
AcDbEntity
8
0
100
AcDbLine
10
29.170794636270973
20
52.083728028573816
30
0
11
27.508196873298942
21
54.963827727789791
31
0
0
CIRCLE
5
278
100
AcDbEntity
8
0
100
AcDbCircle
10
29.020810101423343
20
52.343544577905341
30
0
40
0.10000000000000038
210
0
220
0
230
1
0
CIRCLE
5
279
100
AcDbEntity
8
0
100
AcDbCircle
10
28.795833299151901
20
52.733269401902625
30
0
40
0.10000000000000038
210
0
220
0
230
1
0
CIRCLE
5
280
100
AcDbEntity
8
0
100
AcDbCircle
10
28.570856496880456
20
53.122994225899916
30
0
40
0.10000000000000038
210
0
220
0
230
1
0
LINE
5
281
100
AcDbEntity
8
0
100
AcDbLine
10
44.156848653793674
20
54.301587097592865
30
0
11
43.567029374289689
21
55.198557734399962
31
0
0
LINE
5
282
100
AcDbEntity
8
0
100
AcDbLine
10
43.567029374289689
20
55.198557734399962
30
0
11
42.454280242227313
21
56.890776575452264
31
0
0
LINE
5
283
100
AcDbEntity
8
0
100
AcDbLine
10
47.597615206560349
20
59.029131472038642
30
0
11
47.019512753336471
21
59.942623023807251
31
0
0
LINE
5
284
100
AcDbEntity
8
0
100
AcDbLine
10
47.019512753336471
20
59.942623023807251
30
0
11
45.456633587030169
21
62.412214541529238
31
0
0
LINE
5
285
100
AcDbEntity
8
0
100
AcDbLine
10
61.797045692680484
20
61.54913736191763
30
0
11
61.92169673884969
21
62.586543316416879
31
0
0
LINE
5
286
100
AcDbEntity
8
0
100
AcDbLine
10
61.92169673884969
20
62.586543316416879
30
0
11
62.063047193912965
21
63.76292978295939
31
0
0
LINE
5
287
100
AcDbEntity
8
0
100
AcDbLine
10
67.531392305835126
20
59.073241697114305
30
0
11
67.690586484226515
21
60.095481959056436
31
0
0
LINE
5
288
100
AcDbEntity
8
0
100
AcDbLine
10
67.690586484226515
20
60.095481959056436
30
0
11
67.993895750862521
21
62.043134488241009
31
0
0
LINE
5
289
100
AcDbEntity
8
0
100
AcDbLine
10
82.215325830484232
20
60.575874490649554
30
0
11
82.429017841920725
21
61.603842705657499
31
0
0
LINE
5
290
100
AcDbEntity
8
0
100
AcDbLine
10
82.429017841920725
20
61.603842705657499
30
0
11
82.819433147033578
21
63.481940635527593
31
0
0
LINE
5
291
100
AcDbEntity
8
0
100
AcDbLine
10
88.766463255335225
20
56.917681228538662
30
0
11
89.029615966275259
21
57.917681228538655
31
0
0
LINE
5
292
100
AcDbEntity
8
0
100
AcDbLine
10
89.029615966275259
20
57.917681228538655
30
0
11
89.7215839781814
21
60.547211471393865
31
0
0
LINE
5
293
100
AcDbEntity
8
0
100
AcDbLine
10
103.69370756081807
20
57.901219114064688
30
0
11
103.69370756081807
21
62.801262619363534
31
0
0
LINE
5
294
100
AcDbEntity
8
0
100
AcDbLine
10
11.340525969776431
20
45.24657413252497
30
0
11
11.132614278958691
21
46.224721733258789
31
0
0
LINE
5
295
100
AcDbEntity
8
0
100
AcDbLine
10
11.132614278958691
20
46.224721733258789
30
0
11
10.254481655146115
21
50.356010915363186
31
0
0
LINE
5
296
100
AcDbEntity
8
0
100
AcDbLine
10
14.875024713680798
20
28.618064920035895
30
0
11
14.667113022863074
21
29.596212520769711
31
0
0
LINE
5
297
100
AcDbEntity
8
0
100
AcDbLine
10
14.667113022863074
20
29.596212520769711
30
0
11
13.728329203671004
21
34.012843142832708
31
0
0
LINE
5
298
100
AcDbEntity
8
0
100
AcDbLine
10
30.460557480269891
20
31.950680666645962
30
0
11
29.972116748688787
21
32.869199979026547
31
0
0
LINE
5
299
100
AcDbEntity
8
0
100
AcDbLine
10
29.972116748688787
20
32.869199979026547
30
0
11
28.926701113356788
21
34.83511802891713
31
0
0
LINE
5
300
100
AcDbEntity
8
0
100
AcDbLine
10
33.193734111756868
20
34.536699503704213
30
0
11
32.705293380175434
21
35.455218816084695
31
0
0
LINE
5
301
100
AcDbEntity
8
0
100
AcDbLine
10
32.705293380175434
20
35.455218816084695
30
0
11
31.841926196497599
21
37.078792323797799
31
0
0
LINE
5
302
100
AcDbEntity
8
0
100
AcDbLine
10
47.706803488962599
20
37.683661283332306
30
0
11
47.074102043797154
21
38.571517034449187
31
0
0
LINE
5
303
100
AcDbEntity
8
0
100
AcDbLine
10
47.074102043797154
20
38.571517034449187
30
0
11
45.93741973968438
21
40.166597824307992
31
0
0
LINE
5
304
100
AcDbEntity
8
0
100
AcDbLine
10
50.577811574097396
20
42.284813536469663
30
0
11
49.955893330680723
21
43.190579182246232
31
0
0
LINE
5
305
100
AcDbEntity
8
0
100
AcDbLine
10
49.955893330680723
20
43.190579182246232
30
0
11
48.613494702198167
21
45.145656997518586
31
0
0
LINE
5
306
100
AcDbEntity
8
0
100
AcDbLine
10
64.71361117978023
20
44.791642012661697
30
0
11
64.902850355094714
21
45.840436596962071
31
0
0
LINE
5
307
100
AcDbEntity
8
0
100
AcDbLine
10
64.902850355094714
20
45.840436596962071
30
0
11
65.504209008756348
21
49.173265003841209
31
0
0
LINE
5
308
100
AcDbEntity
8
0
100
AcDbLine
10
69.279412015941602
20
42.171758511723908
30
0
11
69.502406458113086
21
43.200704451600373
31
0
0
LINE
5
309
100
AcDbEntity
8
0
100
AcDbLine
10
69.502406458113086
20
43.200704451600373
30
0
11
69.971868672015603
21
45.366907493328846
31
0
0
LINE
5
310
100
AcDbEntity
8
0
100
AcDbLine
10
83.941963917635576
20
43.65023373926455
30
0
11
84.244045277827752
21
44.687492049178587
31
0
0
LINE
5
311
100
AcDbEntity
8
0
100
AcDbLine
10
84.244045277827752
20
44.687492049178587
30
0
11
85.279899351119639
21
48.244309473122939
31
0
0
LINE
5
312
100
AcDbEntity
8
0
100
AcDbLine
10
88.728967895329248
20
39.929137719971585
30
0
11
89.077932432999503
21
40.929137719971543
31
0
0
LINE
5
313
100
AcDbEntity
8
0
100
AcDbLine
10
89.077932432999503
20
40.929137719971543
30
0
11
90.348557131224254
21
44.570266147254152
31
0
0
LINE
5
314
100
AcDbEntity
8
0
100
AcDbLine
10
103.69370756079101
20
40.901219114050285
30
0
11
103.69370756079101
21
45.099998991936445
31
0
0
LINE
5
315
100
AcDbEntity
8
0
100
AcDbLine
10
18.409523457582743
20
11.98955570756114
30
0
11
18.201611766764984
21
12.967703308294938
31
0
0
LINE
5
316
100
AcDbEntity
8
0
100
AcDbLine
10
18.201611766764984
20
12.967703308294938
30
0
11
17.116085439898253
21
18.074703150303669
31
0
0
LINE
5
317
100
AcDbEntity
8
0
100
AcDbLine
10
34.107662680144458
20
15.403996957478183
30
0
11
33.506615492590676
21
16.240690766552412
31
0
0
LINE
5
318
100
AcDbEntity
8
0
100
AcDbLine
10
33.506615492590676
20
16.240690766552412
30
0
11
31.621935333697895
21
18.864278820343152
31
0
0
LINE
5
319
100
AcDbEntity
8
0
100
AcDbLine
10
36.728232855659122
20
17.908190291229623
30
0
11
36.23979212407761
21
18.82670960361008
31
0
0
LINE
5
320
100
AcDbEntity
8
0
100
AcDbLine
10
36.23979212407761
20
18.82670960361008
30
0
11
35.182178773773984
21
20.815565619241461
31
0
0
LINE
5
321
100
AcDbEntity
8
0
100
AcDbLine
10
51.258659452819025
20
21.068096832390705
30
0
11
50.574608191412445
21
21.94503784312505
31
0
0
LINE
5
322
100
AcDbEntity
8
0
100
AcDbLine
10
50.574608191412445
20
21.94503784312505
30
0
11
48.89548097849498
21
24.097647739961666
31
0
0
LINE
5
323
100
AcDbEntity
8
0
100
AcDbLine
10
53.564806882552311
20
25.53970904917238
30
0
11
52.890331857412882
21
26.436207516311999
31
0
0
LINE
5
324
100
AcDbEntity
8
0
100
AcDbLine
10
52.890331857412882
20
26.436207516311999
30
0
11
51.373816805458986
21
28.4519284382094
31
0
0
LINE
5
325
100
AcDbEntity
8
0
100
AcDbLine
10
67.609712876095884
20
28.023733628021958
30
0
11
67.895634717787672
21
29.089575974971609
31
0
0
LINE
5
326
100
AcDbEntity
8
0
100
AcDbLine
10
67.895634717787672
20
29.089575974971609
30
0
11
68.59841683662205
21
31.709365140082397
31
0
0
LINE
5
327
100
AcDbEntity
8
0
100
AcDbLine
10
71.01597397353126
20
25.275432240145967
30
0
11
71.333934332114978
21
26.314359500043189
31
0
0
LINE
5
328
100
AcDbEntity
8
0
100
AcDbLine
10
71.333934332114978
20
26.314359500043189
30
0
11
72.019378666574042
21
28.554031160320751
31
0
0
LINE
5
329
100
AcDbEntity
8
0
100
AcDbLine
10
85.627553183708073
20
26.707447722756257
30
0
11
86.077838812383249
21
27.760282928972472
31
0
0
LINE
5
330
100
AcDbEntity
8
0
100
AcDbLine
10
86.077838812383249
20
27.760282928972472
30
0
11
86.809933270690095
21
29.472029364782621
31
0
0
LINE
5
331
100
AcDbEntity
8
0
100
AcDbLine
10
88.673300443043459
20
22.952419935731054
30
0
11
89.164404545647528
21
23.952419935731058
31
0
0
LINE
5
332
100
AcDbEntity
8
0
100
AcDbLine
10
89.164404545647528
20
23.952419935731058
30
0
11
92.166999279407065
21
30.066387866029967
31
0
0
LINE
5
333
100
AcDbEntity
8
0
100
AcDbLine
10
103.69370756076164
20
23.901219114050484
30
0
11
103.69370756076164
21
28.799999356269836
31
0
0
LINE
5
334
100
AcDbEntity
8
0
100
AcDbLine
10
0
20
0
30
0
11
0
21
15
31
0
0
ARC
5
335
100
AcDbEntity
8
0
100
AcDbCircle
10
-14.771068868271936
20
29.107138720402808
30
0
40
0.49999999999999739
210
0
220
0
230
1
100
AcDbArc
50
-11.999999999997982
51
78.000000000001975
0
ARC
5
336
100
AcDbEntity
8
0
100
AcDbCircle
10
-14.77106886827193
20
29.107138720402791
30
0
40
0.49999999999998962
210
0
220
0
230
1
100
AcDbArc
50
258.00000000000119
51
348.00000000000307
0
ARC
5
337
100
AcDbEntity
8
0
100
AcDbCircle
10
-30.225800959865762
20
32.392143435322708
30
0
40
0.50000000000000111
210
0
220
0
230
1
100
AcDbArc
50
225.99461679192024
51
258.00000000000324
0
LINE
5
338
100
AcDbEntity
8
0
100
AcDbLine
10
-32.705293380175434
20
35.455218816084695
30
0
11
-31.841926196497599
21
37.078792323797799
31
0
0
LINE
5
339
100
AcDbEntity
8
0
100
AcDbLine
10
-29.972116748688787
20
32.869199979026547
30
0
11
-28.926701113356788
21
34.83511802891713
31
0
0
LINE
5
340
100
AcDbEntity
8
0
100
AcDbLine
10
-30.460557480269891
20
31.950680666645962
30
0
11
-29.972116748688787
21
32.869199979026547
31
0
0
LINE
5
341
100
AcDbEntity
8
0
100
AcDbLine
10
-14.875024713680798
20
28.618064920035895
30
0
11
-30.329756805274613
21
31.903069634955802
31
0
0
LINE
5
342
100
AcDbEntity
8
0
100
AcDbLine
10
-14.667113022863074
20
29.596212520769711
30
0
11
-29.841316073693498
21
32.82158894733638
31
0
0
LINE
5
343
100
AcDbEntity
8
0
100
AcDbLine
10
-32.592686924203662
20
35.373393312778575
30
0
11
-30.084723204660566
21
32.951025482332668
31
0
0
LINE
5
344
100
AcDbEntity
8
0
100
AcDbLine
10
-32.836094055170705
20
35.502829847774862
30
0
11
-46.887888791680929
21
38.489631022260497
31
0
0
LINE
5
345
100
AcDbEntity
8
0
100
AcDbLine
10
-47.706803488962599
20
37.683661283332306
30
0
11
-47.074102043797154
21
38.571517034449187
31
0
0
ARC
5
346
100
AcDbEntity
8
0
100
AcDbCircle
10
-33.428490632161072
20
34.095236735027385
30
0
40
0.50000000000009881
210
0
220
-0
230
1
100
AcDbArc
50
45.994616791922361
51
77.999999999995424
0
ARC
5
347
100
AcDbEntity
8
0
100
AcDbCircle
10
-47.416634391437498
20
38.090849071510505
30
0
40
0.49999999999998324
210
0
220
0
230
1
100
AcDbArc
50
211.05133401370082
51
258.00000000000006
0
ARC
5
348
100
AcDbEntity
8
0
100
AcDbCircle
10
-32.940049900579588
20
35.013756047407966
30
0
40
0.49999999999998485
210
0
220
-0
230
1
100
AcDbArc
50
45.994616791916833
51
77.999999999999403
0
LINE
5
349
100
AcDbEntity
8
0
100
AcDbLine
10
-33.324534786752132
20
34.58431053539438
30
0
11
-47.520590236846374
21
37.601775271143616
31
0
0
LINE
5
350
100
AcDbEntity
8
0
100
AcDbLine
10
-33.193734111756868
20
34.536699503704213
30
0
11
-32.705293380175434
21
35.455218816084695
31
0
0
ARC
5
351
100
AcDbEntity
8
0
100
AcDbCircle
10
-29.737360228284622
20
33.310662747703319
30
0
40
0.50000000000003531
210
0
220
0
230
1
100
AcDbArc
50
225.99461679191816
51
258.00000000000125
0
LINE
5
352
100
AcDbEntity
8
0
100
AcDbLine
10
-14.667113022863074
20
29.596212520769711
30
0
11
-13.728329203671004
21
34.012843142832708
31
0
0
LINE
5
353
100
AcDbEntity
8
0
100
AcDbLine
10
-14.875024713680798
20
28.618064920035895
30
0
11
-14.667113022863074
21
29.596212520769711
31
0
0
LINE
5
354
100
AcDbEntity
8
0
100
AcDbLine
10
-33.08112765578511
20
34.454874000398107
30
0
11
-30.573163936241667
21
32.032506169952072
31
0
0
ARC
5
355
100
AcDbEntity
8
0
100
AcDbCircle
10
-46.78393294627206
20
38.978704822627385
30
0
40
0.49999999999998479
210
0
220
0
230
1
100
AcDbArc
50
211.05133401370307
51
258.00000000000085
0
ARC
5
356
100
AcDbEntity
8
0
100
AcDbCircle
10
-33.76029970376856
20
15.76363422284884
30
0
40
0.50000000000000921
210
0
220
0
230
1
100
AcDbArc
50
225.99461679192243
51
257.99999999999972
0
ARC
5
357
100
AcDbEntity
8
0
100
AcDbCircle
10
-36.474548644481708
20
18.385246834933337
30
0
40
0.4999999999999768
210
0
220
-0
230
1
100
AcDbArc
50
45.994616791925779
51
78.000000000003141
0
LINE
5
358
100
AcDbEntity
8
0
100
AcDbLine
10
-36.728232855659122
20
17.908190291229623
30
0
11
-36.23979212407761
21
18.82670960361008
31
0
0
LINE
5
359
100
AcDbEntity
8
0
100
AcDbLine
10
-18.201611766764984
20
12.967703308294938
30
0
11
-17.116085439898253
21
18.074703150303669
31
0
0
ARC
5
360
100
AcDbEntity
8
0
100
AcDbCircle
10
-36.962989376063277
20
17.46672752255283
30
0
40
0.50000000000004696
210
0
220
-0
230
1
100
AcDbArc
50
45.994616791922468
51
77.999999999999901
0
LINE
5
361
100
AcDbEntity
8
0
100
AcDbLine
10
-36.23979212407761
20
18.82670960361008
30
0
11
-35.182178773773984
21
20.815565619241461
31
0
0
LINE
5
362
100
AcDbEntity
8
0
100
AcDbLine
10
-36.127185668105852
20
18.744884100303992
30
0
11
-33.619221948562419
21
16.3225162698585
31
0
0
ARC
5
363
100
AcDbEntity
8
0
100
AcDbCircle
10
-33.271858972186578
20
16.682153535229109
30
0
40
0.49999999999993555
210
0
220
0
230
1
100
AcDbArc
50
225.99461679192325
51
258.00000000000136
0
LINE
5
364
100
AcDbEntity
8
0
100
AcDbLine
10
-33.506615492590676
20
16.240690766552412
30
0
11
-31.621935333697895
21
18.864278820343152
31
0
0
LINE
5
365
100
AcDbEntity
8
0
100
AcDbLine
10
-34.107662680144458
20
15.403996957478183
30
0
11
-33.506615492590676
21
16.240690766552412
31
0
0
LINE
5
366
100
AcDbEntity
8
0
100
AcDbLine
10
-18.409523457582743
20
11.98955570756114
30
0
11
-18.201611766764984
21
12.967703308294938
31
0
0
ARC
5
367
100
AcDbEntity
8
0
100
AcDbCircle
10
-18.305567612173867
20
12.478629507928034
30
0
40
0.50000000000000278
210
0
220
0
230
1
100
AcDbArc
50
-11.99999999999971
51
77.999999999999631
0
LINE
5
368
100
AcDbEntity
8
0
100
AcDbLine
10
-36.615626399687351
20
17.826364787923517
30
0
11
-34.107662680144458
21
15.403996957478183
31
0
0
LINE
5
369
100
AcDbEntity
8
0
100
AcDbLine
10
-18.409523457582743
20
11.98955570756114
30
0
11
-33.864255549177443
21
15.27456042248193
31
0
0
ARC
5
370
100
AcDbEntity
8
0
100
AcDbCircle
10
-18.30556761217386
20
12.478629507928041
30
0
40
0.49999999999999889
210
0
220
0
230
1
100
AcDbArc
50
257.99999999999955
51
347.99999999999949
0
LINE
5
371
100
AcDbEntity
8
0
100
AcDbLine
10
-18.201611766764984
20
12.967703308294938
30
0
11
-33.375814817595433
21
16.193079734862266
31
0
0
ARC
5
372
100
AcDbEntity
8
0
100
AcDbCircle
10
-67.766085592190692
20
28.606650489977206
30
0
40
0.5000000000000242
210
0
220
-0
230
1
100
AcDbArc
50
80.000000000005244
51
130.03312459404128
0
LINE
5
373
100
AcDbEntity
8
0
100
AcDbLine
10
-71.532522627889833
20
26.295208652914603
30
0
11
-85.828957857485406
21
27.797824544745382
31
0
0
LINE
5
374
100
AcDbEntity
8
0
100
AcDbLine
10
-71.214562269306342
20
25.256281393017311
30
0
11
-85.378672228810217
21
26.744989338529169
31
0
0
LINE
5
375
100
AcDbEntity
8
0
100
AcDbLine
10
-53.416347982036356
20
25.360038530364797
30
0
11
-51.400191026051218
21
21.242460322038006
31
0
0
ARC
5
376
100
AcDbEntity
8
0
100
AcDbCircle
10
-71.162298037672556
20
25.753542340701504
30
0
40
0.50000000000004918
210
0
220
0
230
1
100
AcDbArc
50
264.0000000000054
51
310.03312459409153
0
ARC
5
377
100
AcDbEntity
8
0
100
AcDbCircle
10
-103.19370756076167
20
23.401219114049251
30
0
40
0.49999999999997158
210
0
220
0
230
1
100
AcDbArc
50
180
51
270.00000000000489
0
ARC
5
378
100
AcDbEntity
8
0
100
AcDbCircle
10
-53.190930847608001
20
26.036657460507072
30
0
40
0.50000000000004907
210
0
220
-0
230
1
100
AcDbArc
50
26.088510123443193
51
80.000000000000782
0
ARC
5
379
100
AcDbEntity
8
0
100
AcDbCircle
10
-50.951133135340214
20
21.462339859035254
30
0
40
0.49999999999993616
210
0
220
0
230
1
100
AcDbArc
50
206.08851012343948
51
258.00000000000381
0
LINE
5
380
100
AcDbEntity
8
0
100
AcDbLine
10
-71.01597397353126
20
25.275432240145967
30
0
11
-71.333934332114978
21
26.314359500043189
31
0
0
LINE
5
381
100
AcDbEntity
8
0
100
AcDbLine
10
-88.673300443043459
20
22.952419935731054
30
0
11
-89.164404545647528
21
23.952419935731058
31
0
0
LINE
5
382
100
AcDbEntity
8
0
100
AcDbLine
10
-53.564806882552311
20
25.53970904917238
30
0
11
-52.890331857412882
21
26.436207516311999
31
0
0
LINE
5
383
100
AcDbEntity
8
0
100
AcDbLine
10
-85.627553183708073
20
26.707447722756257
30
0
11
-86.077838812383249
21
27.760282928972472
31
0
0
ARC
5
384
100
AcDbEntity
8
0
100
AcDbCircle
10
-50.267081873933599
20
22.339280869769631
30
0
40
0.4999999999999819
210
0
220
0
230
1
100
AcDbArc
50
206.08851012343911
51
258.00000000000324
0
ARC
5
385
100
AcDbEntity
8
0
100
AcDbCircle
10
-89.384811663364644
20
24.40121911404999
30
0
40
0.50000000000010481
210
0
220
0
230
1
100
AcDbArc
50
270.00000000000489
51
322.3116882075534
0
LINE
5
386
100
AcDbEntity
8
0
100
AcDbLine
10
-103.69370756076164
20
23.901219114050484
30
0
11
-103.69370756076164
21
28.799999356269836
31
0
0
LINE
5
387
100
AcDbEntity
8
0
100
AcDbLine
10
-89.384811663364601
20
23.901219114049876
30
0
11
-103.19370756076165
21
23.901219114050463
31
0
0
LINE
5
388
100
AcDbEntity
8
0
100
AcDbLine
10
-53.104106758774535
20
26.529061337013225
30
0
11
-67.679261503357267
21
29.09905436648334
31
0
0
LINE
5
389
100
AcDbEntity
8
0
100
AcDbLine
10
-88.989137530056439
20
24.095536304211251
30
0
11
-86.276896222427339
21
27.606246406899867
31
0
0
LINE
5
390
100
AcDbEntity
8
0
100
AcDbLine
10
-88.893707560760546
20
22.901219114049873
30
0
11
-103.19370756076162
21
22.901219114049276
31
0
0
ARC
5
391
100
AcDbEntity
8
0
100
AcDbCircle
10
-85.881222089119191
20
27.300563597061259
30
0
40
0.49999999999998296
210
0
220
-0
230
1
100
AcDbArc
50
84.000000000004619
51
142.31168820756133
0
ARC
5
392
100
AcDbEntity
8
0
100
AcDbCircle
10
-53.865405872747381
20
25.14015899336751
30
0
40
0.49999999999997574
210
0
220
-0
230
1
100
AcDbArc
50
26.088510123442024
51
80.000000000004249
0
LINE
5
393
100
AcDbEntity
8
0
100
AcDbLine
10
-88.498033427452384
20
23.095536304211276
30
0
11
-85.826610593752207
21
26.553411200683623
31
0
0
ARC
5
394
100
AcDbEntity
8
0
100
AcDbCircle
10
-67.480163750498704
20
27.540808143027668
30
0
40
0.49999999999995892
210
0
220
-0
230
1
100
AcDbArc
50
80.000000000000611
51
130.03312459409614
0
ARC
5
395
100
AcDbEntity
8
0
100
AcDbCircle
10
-71.480258396256048
20
26.79246960059875
30
0
40
0.50000000000000944
210
0
220
0
230
1
100
AcDbArc
50
264.00000000000483
51
310.03312459404231
0
LINE
5
396
100
AcDbEntity
8
0
100
AcDbLine
10
-86.077838812383249
20
27.760282928972472
30
0
11
-86.809933270690095
21
29.472029364782621
31
0
0
LINE
5
397
100
AcDbEntity
8
0
100
AcDbLine
10
-71.333934332114978
20
26.314359500043189
30
0
11
-72.019378666574042
21
28.554031160320751
31
0
0
LINE
5
398
100
AcDbEntity
8
0
100
AcDbLine
10
-67.609712876095884
20
28.023733628021958
30
0
11
-67.895634717787672
21
29.089575974971609
31
0
0
LINE
5
399
100
AcDbEntity
8
0
100
AcDbLine
10
-52.890331857412882
20
26.436207516311999
30
0
11
-51.373816805458986
21
28.4519284382094
31
0
0
LINE
5
400
100
AcDbEntity
8
0
100
AcDbLine
10
-51.258659452819025
20
21.068096832390705
30
0
11
-50.574608191412445
21
21.94503784312505
31
0
0
LINE
5
401
100
AcDbEntity
8
0
100
AcDbLine
10
-67.895634717787672
20
29.089575974971609
30
0
11
-68.59841683662205
21
31.709365140082397
31
0
0
LINE
5
402
100
AcDbEntity
8
0
100
AcDbLine
10
-71.15864320726223
20
26.409633251477509
30
0
11
-68.087700781184509
21
28.989486839098461
31
0
0
ARC
5
403
100
AcDbEntity
8
0
100
AcDbCircle
10
-103.19370756076162
20
23.401219114050456
30
0
40
0.50000000000000711
210
0
220
0
230
1
100
AcDbArc
50
90.000000000003254
51
180
0
LINE
5
404
100
AcDbEntity
8
0
100
AcDbLine
10
-53.778581783913957
20
25.632562869873595
30
0
11
-67.393339661665252
21
28.033212019533735
31
0
0
LINE
5
405
100
AcDbEntity
8
0
100
AcDbLine
10
-89.164404545647528
20
23.952419935731058
30
0
11
-92.166999279407065
21
30.066387866029967
31
0
0
ARC
5
406
100
AcDbEntity
8
0
100
AcDbCircle
10
-85.430936460444002
20
26.247728390844998
30
0
40
0.50000000000003597
210
0
220
-0
230
1
100
AcDbArc
50
84.000000000005215
51
142.31168820756369
0
ARC
5
407
100
AcDbEntity
8
0
100
AcDbCircle
10
-88.893707560760561
20
23.401219114049873
30
0
40
0.50000000000000266
210
0
220
0
230
1
100
AcDbArc
50
270.00000000000159
51
322.31168820756426
0
LINE
5
408
100
AcDbEntity
8
0
100
AcDbLine
10
-52.741872956896913
20
26.256536997504398
30
0
11
-50.716139764644637
21
22.11940133277237
31
0
0
LINE
5
409
100
AcDbEntity
8
0
100
AcDbLine
10
-70.840682848678384
20
25.370705991580508
30
0
11
-67.801778939492849
21
27.923644492148568
31
0
0
LINE
5
410
100
AcDbEntity
8
0
100
AcDbLine
10
-36.37059279907286
20
18.874320635300222
30
0
11
-50.371037719342446
21
21.850207069402742
31
0
0
LINE
5
411
100
AcDbEntity
8
0
100
AcDbLine
10
-50.574608191412445
20
21.94503784312505
30
0
11
-48.89548097849498
21
24.097647739961666
31
0
0
LINE
5
412
100
AcDbEntity
8
0
100
AcDbLine
10
-36.859033530654386
20
17.955801322919779
30
0
11
-51.055088980749048
21
20.973266058668408
31
0
0
ARC
5
413
100
AcDbEntity
8
0
100
AcDbCircle
10
-50.860830070687896
20
41.872623615938281
30
0
40
0.50000000000000688
210
0
220
-0
230
1
100
AcDbArc
50
31.051334013703183
51
80.000000000000071
0
LINE
5
414
100
AcDbEntity
8
0
100
AcDbLine
10
-47.019512753336471
20
59.942623023807251
30
0
11
-45.456633587030169
21
62.412214541529238
31
0
0
LINE
5
415
100
AcDbEntity
8
0
100
AcDbLine
10
-40.182148422862227
20
71.937463823526414
30
0
11
-43.946608974828614
21
76.576893236051603
31
0
0
LINE
5
416
100
AcDbEntity
8
0
100
AcDbLine
10
-40.735901715404708
20
71.032827124537789
30
0
11
-44.487912456994763
21
75.656913032823141
31
0
0
ARC
5
417
100
AcDbEntity
8
0
100
AcDbCircle
10
-50.238911827271224
20
42.778389261714864
30
0
40
0.50000000000000233
210
0
220
-0
230
1
100
AcDbArc
50
31.05133401370248
51
80.000000000002345
0
ARC
5
418
100
AcDbEntity
8
0
100
AcDbCircle
10
-47.286892806931924
20
59.520121062936802
30
0
40
0.5000000000000806
210
0
220
-0
230
1
100
AcDbArc
50
35.344712124618653
51
79.999999999995737
0
ARC
5
419
100
AcDbEntity
8
0
100
AcDbCircle
10
-43.292316368029844
20
55.616328920806708
30
0
40
0.50000000000002809
210
0
220
0
230
1
100
AcDbArc
50
215.34471212461457
51
257.99999999999767
0
LINE
5
420
100
AcDbEntity
8
0
100
AcDbLine
10
-50.577811574097396
20
42.284813536469663
30
0
11
-49.955893330680723
21
43.190579182246232
31
0
0
LINE
5
421
100
AcDbEntity
8
0
100
AcDbLine
10
-43.567029374289689
20
55.198557734399962
30
0
11
-42.454280242227313
21
56.890776575452264
31
0
0
LINE
5
422
100
AcDbEntity
8
0
100
AcDbLine
10
-44.156848653793674
20
54.301587097592865
30
0
11
-43.567029374289689
21
55.198557734399962
31
0
0
LINE
5
423
100
AcDbEntity
8
0
100
AcDbLine
10
-47.597615206560349
20
59.029131472038642
30
0
11
-47.019512753336471
21
59.942623023807251
31
0
0
LINE
5
424
100
AcDbEntity
8
0
100
AcDbLine
10
-44.289978845871047
20
54.430111113624342
30
0
11
-47.457152061818562
21
58.895876681543513
31
0
0
ARC
5
425
100
AcDbEntity
8
0
100
AcDbCircle
10
-44.334873786599246
20
76.261852864129764
30
0
40
0.49999999999992889
210
0
220
-0
230
1
100
AcDbArc
50
39.056079921671923
51
80.000000000003467
0
ARC
5
426
100
AcDbEntity
8
0
100
AcDbCircle
10
-39.793883611091573
20
72.252504195448296
30
0
40
0.49999999999997541
210
0
220
0
230
1
100
AcDbArc
50
219.05607992167364
51
258.00000000000142
0
ARC
5
427
100
AcDbEntity
8
0
100
AcDbCircle
10
-40.347636903634061
20
71.347867496459642
30
0
40
0.4999999999999552
210
0
220
0
230
1
100
AcDbArc
50
219.05607992167162
51
258.00000000000114
0
ARC
5
428
100
AcDbEntity
8
0
100
AcDbCircle
10
-47.864995260155723
20
58.606629511168286
30
0
40
0.49999999999996203
210
0
220
-0
230
1
100
AcDbArc
50
35.344712124616805
51
80.000000000002288
0
LINE
5
429
100
AcDbEntity
8
0
100
AcDbLine
10
-45.105114747376021
20
74.772984548145132
30
0
11
-47.501459599176471
21
61.18263755659089
31
0
0
ARC
5
430
100
AcDbEntity
8
0
100
AcDbCircle
10
-43.882135647533858
20
54.719358283999611
30
0
40
0.50000000000000944
210
0
220
0
230
1
100
AcDbArc
50
215.34471212461892
51
257.99999999999898
0
LINE
5
431
100
AcDbEntity
8
0
100
AcDbLine
10
-49.955893330680723
20
43.190579182246232
30
0
11
-48.613494702198167
21
45.145656997518586
31
0
0
LINE
5
432
100
AcDbEntity
8
0
100
AcDbLine
10
-43.06040314185806
20
56.180438599764251
30
0
11
-40.191221808575634
21
69.678875489876489
31
0
0
LINE
5
433
100
AcDbEntity
8
0
100
AcDbLine
10
-43.70015956636707
20
55.327081750431461
30
0
11
-46.87904960859467
21
59.809368233312114
31
0
0
ARC
5
434
100
AcDbEntity
8
0
100
AcDbCircle
10
-44.876177268765403
20
75.341872660901316
30
0
40
0.49999999999992595
210
0
220
-0
230
1
100
AcDbArc
50
39.056079921669621
51
80.000000000003467
0
LINE
5
435
100
AcDbEntity
8
0
100
AcDbLine
10
-25.869569710288886
20
50.481732963563097
30
0
11
-24.751436550794228
21
52.418662657602468
31
0
0
LINE
5
436
100
AcDbEntity
8
0
100
AcDbLine
10
-25.869569710288886
20
50.481732963563097
30
0
11
-23.000388377003848
21
63.980169853689915
31
0
0
LINE
5
437
100
AcDbEntity
8
0
100
AcDbLine
10
-23.504166448438248
20
65.289524594902034
30
0
11
-26.012130167980636
21
67.711892425347045
31
0
0
LINE
5
438
100
AcDbEntity
8
0
100
AcDbLine
10
-23.0157257168567
20
66.208043907282473
30
0
11
-25.523689436399199
21
68.630411737727542
31
0
0
ARC
5
439
100
AcDbEntity
8
0
100
AcDbCircle
10
-26.202861484380264
20
49.939171960192809
30
0
40
0.49999999999999478
210
0
220
0
230
1
100
AcDbArc
50
225.99461679192024
51
258.0000000000004
0
ARC
5
440
100
AcDbEntity
8
0
100
AcDbCircle
10
-29.89399188825665
20
50.723745947516683
30
0
40
0.49999999999988154
210
0
220
-0
230
1
100
AcDbArc
50
45.994616791918766
51
78.000000000003638
0
CIRCLE
5
441
100
AcDbEntity
8
0
100
AcDbCircle
10
-29.020810101423343
20
52.343544577905341
30
0
40
0.10000000000000038
210
0
220
0
230
1
0
ARC
5
442
100
AcDbEntity
8
0
100
AcDbCircle
10
-26.691302215961819
20
49.020652647812291
30
0
40
0.49999999999992578
210
0
220
0
230
1
100
AcDbArc
50
225.99461679192069
51
258.00000000000352
0
ARC
5
443
100
AcDbEntity
8
0
100
AcDbCircle
10
-22.668362740480838
20
66.567681172653039
30
0
40
0.49999999999992556
210
0
220
0
230
1
100
AcDbArc
50
225.99461679191811
51
258.00000000000409
0
ARC
5
444
100
AcDbEntity
8
0
100
AcDbCircle
10
-26.359493144356509
20
67.352255159976494
30
0
40
0.49999999999991251
210
0
220
-0
230
1
100
AcDbArc
50
45.994616791916108
51
78.000000000001307
0
CIRCLE
5
445
100
AcDbEntity
8
0
100
AcDbCircle
10
-28.795833299151901
20
52.733269401902625
30
0
40
0.10000000000000038
210
0
220
0
230
1
0
CIRCLE
5
446
100
AcDbEntity
8
0
100
AcDbCircle
10
-28.570856496880456
20
53.122994225899916
30
0
40
0.10000000000000038
210
0
220
0
230
1
0
LINE
5
447
100
AcDbEntity
8
0
100
AcDbLine
10
-49.810559072458638
20
43.036292184235087
30
0
11
-47.212285701084625
21
38.720801900107169
31
0
0
CIRCLE
5
448
100
AcDbEntity
8
0
100
AcDbCircle
10
-25.837679865393891
20
50.536975388842158
30
0
40
0.099999999999999617
210
0
220
0
230
1
0
LINE
5
449
100
AcDbEntity
8
0
100
AcDbLine
10
-47.074102043797154
20
38.571517034449187
30
0
11
-45.93741973968438
21
40.166597824307992
31
0
0
ARC
5
450
100
AcDbEntity
8
0
100
AcDbCircle
10
-29.405551156675138
20
51.642265259897073
30
0
40
0.50000000000001033
210
0
220
-0
230
1
100
AcDbArc
50
45.994616791918801
51
77.999999999997371
0
LINE
5
451
100
AcDbEntity
8
0
100
AcDbLine
10
-26.550224460756169
20
49.579534694822172
30
0
11
-29.058188180299215
21
52.00190252526771
31
0
0
LINE
5
452
100
AcDbEntity
8
0
100
AcDbLine
10
-29.170794636270973
20
52.083728028573816
30
0
11
-27.508196873298942
21
54.963827727789791
31
0
0
LINE
5
453
100
AcDbEntity
8
0
100
AcDbLine
10
-26.437618004784408
20
49.497709191516066
30
0
11
-25.869569710288886
21
50.481732963563097
31
0
0
LINE
5
454
100
AcDbEntity
8
0
100
AcDbLine
10
-26.692784918446758
20
66.809694156606113
30
0
11
-29.561966251731491
21
53.311257266479529
31
0
0
ARC
5
455
100
AcDbEntity
8
0
100
AcDbCircle
10
-25.871052412775114
20
68.270774472356905
30
0
40
0.50000000000000733
210
0
220
-0
230
1
100
AcDbArc
50
45.994616791919384
51
77.999999999998565
0
ARC
5
456
100
AcDbEntity
8
0
100
AcDbCircle
10
-23.156803472062336
20
65.649161860272685
30
0
40
0.50000000000001055
210
0
220
0
230
1
100
AcDbArc
50
225.99461679192078
51
258.00000000000136
0
CIRCLE
5
457
100
AcDbEntity
8
0
100
AcDbCircle
10
-26.287633469936779
20
49.757525740847591
30
0
40
0.099999999999999617
210
0
220
0
230
1
0
LINE
5
458
100
AcDbEntity
8
0
100
AcDbLine
10
-27.038665192337671
20
48.661015382441704
30
0
11
-29.546628911880816
21
51.083383212887227
31
0
0
CIRCLE
5
459
100
AcDbEntity
8
0
100
AcDbCircle
10
-26.062656667665337
20
50.147250564844875
30
0
40
0.099999999999999617
210
0
220
0
230
1
0
LINE
5
460
100
AcDbEntity
8
0
100
AcDbLine
10
-7.5981155350592235
20
62.853230945719218
30
0
11
-22.772318585889664
21
66.078607372286214
31
0
0
ARC
5
461
100
AcDbEntity
8
0
100
AcDbCircle
10
-11.236570124367551
20
45.735647932891865
30
0
40
0.49999999999999678
210
0
220
0
230
1
100
AcDbArc
50
257.99999999999983
51
348.00000000000097
0
ARC
5
462
100
AcDbEntity
8
0
100
AcDbCircle
10
-11.236570124367574
20
45.735647932891872
30
0
40
0.50000000000001577
210
0
220
0
230
1
100
AcDbArc
50
-11.999999999998389
51
77.999999999999915
0
LINE
5
463
100
AcDbEntity
8
0
100
AcDbLine
10
-11.340525969776431
20
45.24657413252497
30
0
11
-11.132614278958691
21
46.224721733258789
31
0
0
ARC
5
464
100
AcDbEntity
8
0
100
AcDbCircle
10
-7.7020713804680803
20
62.364157145352294
30
0
40
0.49999999999998074
210
0
220
0
230
1
100
AcDbArc
50
257.99999999999864
51
348.00000000000324
0
ARC
5
465
100
AcDbEntity
8
0
100
AcDbCircle
10
-7.7020713804680883
20
62.364157145352323
30
0
40
0.499999999999994
210
0
220
0
230
1
100
AcDbArc
50
-11.999999999998897
51
78.000000000001506
0
LINE
5
466
100
AcDbEntity
8
0
100
AcDbLine
10
-11.132614278958691
20
46.224721733258789
30
0
11
-10.254481655146115
21
50.356010915363186
31
0
0
LINE
5
467
100
AcDbEntity
8
0
100
AcDbLine
10
-9.5019514868772266
20
61.11098852040471
30
0
11
-12.371132820162325
21
47.612551630278205
31
0
0
LINE
5
468
100
AcDbEntity
8
0
100
AcDbLine
10
-11.340525969776433
20
45.24657413252497
30
0
11
-26.795258061370653
21
48.531578847445459
31
0
0
LINE
5
469
100
AcDbEntity
8
0
100
AcDbLine
10
-7.8060272258769681
20
61.875083344985413
30
0
11
-23.260759317471205
21
65.160088059905775
31
0
0
LINE
5
470
100
AcDbEntity
8
0
100
AcDbLine
10
-12.371132820162325
20
47.612551630278205
30
0
11
-25.869569710288886
21
50.481732963563097
31
0
0
LINE
5
471
100
AcDbEntity
8
0
100
AcDbLine
10
-23.000388377003848
20
63.980169853689915
30
0
11
-9.5019514868772248
21
61.11098852040471
31
0
0
LINE
5
472
100
AcDbEntity
8
0
100
AcDbLine
10
-11.132614278958691
20
46.224721733258789
30
0
11
-26.306817329789141
21
49.450098159825906
31
0
0
LINE
5
473
100
AcDbEntity
8
0
100
AcDbLine
10
-29.790036042847827
20
51.212819747883472
30
0
11
-43.986091492942748
21
54.230284483632701
31
0
0
LINE
5
474
100
AcDbEntity
8
0
100
AcDbLine
10
-25.76709656736622
20
68.759848272723815
30
0
11
-39.897839456500435
21
71.763430395081414
31
0
0
LINE
5
475
100
AcDbEntity
8
0
100
AcDbLine
10
-40.191221808575634
20
69.678875489876489
30
0
11
-26.692784918446758
21
66.809694156606113
31
0
0
LINE
5
476
100
AcDbEntity
8
0
100
AcDbLine
10
-26.255537298947658
20
67.841328960343318
30
0
11
-40.451592749042923
21
70.858793696092775
31
0
0
LINE
5
477
100
AcDbEntity
8
0
100
AcDbLine
10
-29.301595311266233
20
52.131339060263983
30
0
11
-43.396272213438749
21
55.127255120439784
31
0
0
LINE
5
478
100
AcDbEntity
8
0
100
AcDbLine
10
-29.561966251731491
20
53.311257266479529
30
0
11
-43.06040314185806
21
56.180438599764251
31
0
0
LINE
5
479
100
AcDbEntity
8
0
100
AcDbLine
10
-69.131874251732881
20
42.229406195660573
30
0
11
-64.878267306928976
21
44.730596073186383
31
0
0
LINE
5
480
100
AcDbEntity
8
0
100
AcDbLine
10
-69.502406458113086
20
43.200704451600373
30
0
11
-69.971868672015603
21
45.366907493328846
31
0
0
ARC
5
481
100
AcDbEntity
8
0
100
AcDbCircle
10
-64.814066571854283
20
45.348382291185246
30
0
40
0.49999999999998956
210
0
220
-0
230
1
100
AcDbArc
50
80.000000000001251
51
120.45621875002749
0
ARC
5
482
100
AcDbEntity
8
0
100
AcDbCircle
10
-69.3853141621221
20
42.660414561961922
30
0
40
0.49999999999984995
210
0
220
0
230
1
100
AcDbArc
50
263.99999999999471
51
300.45621875005418
0
LINE
5
483
100
AcDbEntity
8
0
100
AcDbLine
10
-69.279412015941602
20
42.171758511723908
30
0
11
-69.502406458113086
21
43.200704451600373
31
0
0
LINE
5
484
100
AcDbEntity
8
0
100
AcDbLine
10
-69.354868693904436
20
43.25835213553696
30
0
11
-65.067506482243374
21
45.779390657486836
31
0
0
ARC
5
485
100
AcDbEntity
8
0
100
AcDbCircle
10
-69.608308604293526
20
43.689360501838522
30
0
40
0.49999999999997691
210
0
220
0
230
1
100
AcDbArc
50
264.00000000000119
51
300.45621875002917
0
LINE
5
486
100
AcDbEntity
8
0
100
AcDbLine
10
-64.902850355094714
20
45.840436596962071
30
0
11
-65.504209008756348
21
49.173265003841209
31
0
0
LINE
5
487
100
AcDbEntity
8
0
100
AcDbLine
10
-64.71361117978023
20
44.791642012661697
30
0
11
-64.902850355094714
21
45.840436596962071
31
0
0
ARC
5
488
100
AcDbEntity
8
0
100
AcDbCircle
10
-64.6248273965397
20
44.299587706884871
30
0
40
0.50000000000001421
210
0
220
-0
230
1
100
AcDbArc
50
80.000000000003425
51
120.45621875005028
0
LINE
5
489
100
AcDbEntity
8
0
100
AcDbLine
10
-59.071251953367664
20
79.305139679887603
30
0
11
-65.784354105717611
21
77.018379671943237
31
0
0
LINE
5
490
100
AcDbEntity
8
0
100
AcDbLine
10
-61.797045692680484
20
61.54913736191763
30
0
11
-61.92169673884969
21
62.586543316416879
31
0
0
LINE
5
491
100
AcDbEntity
8
0
100
AcDbLine
10
-61.938396147743802
20
61.510528128467698
30
0
11
-67.407330644164873
21
59.10946679267731
31
0
0
ARC
5
492
100
AcDbEntity
8
0
100
AcDbCircle
10
-58.830720611531895
20
77.802435155696315
30
0
40
0.50000000000016454
210
0
220
-0
230
1
100
AcDbArc
50
80.000000000004789
51
108.81096437713521
0
ARC
5
493
100
AcDbEntity
8
0
100
AcDbCircle
10
-61.862047551514195
20
62.090114092407759
30
0
40
0.50000000000008571
210
0
220
-0
230
1
100
AcDbArc
50
80.000000000003098
51
113.70322306008792
0
ARC
5
494
100
AcDbEntity
8
0
100
AcDbCircle
10
-61.737396505344968
20
61.052708137908695
30
0
40
0.49999999999990669
210
0
220
-0
230
1
100
AcDbArc
50
79.999999999996206
51
113.7032230601051
0
LINE
5
495
100
AcDbEntity
8
0
100
AcDbLine
10
-66.495852899933652
20
74.9351882035279
30
0
11
-67.938345693027486
21
61.210786047445737
31
0
0
LINE
5
496
100
AcDbEntity
8
0
100
AcDbLine
10
-61.92169673884969
20
62.586543316416879
30
0
11
-62.063047193912965
21
63.76292978295939
31
0
0
LINE
5
497
100
AcDbEntity
8
0
100
AcDbLine
10
-67.690586484226515
20
60.095481959056436
30
0
11
-67.993895750862521
21
62.043134488241009
31
0
0
ARC
5
498
100
AcDbEntity
8
0
100
AcDbCircle
10
-67.767524464955102
20
60.589527045178677
30
0
40
0.50000000000013312
210
0
220
0
230
1
100
AcDbArc
50
264.00000000000637
51
293.70322306008774
0
LINE
5
499
100
AcDbEntity
8
0
100
AcDbLine
10
-62.063047193912965
20
62.547934082966989
30
0
11
-67.566524822556318
21
60.131707054619412
31
0
0
LINE
5
500
100
AcDbEntity
8
0
100
AcDbLine
10
-58.99194403371866
20
78.275728941984013
30
0
11
-65.67012298883634
21
76.000865218196338
31
0
0
LINE
5
501
100
AcDbEntity
8
0
100
AcDbLine
10
-61.091806590745115
20
63.578982408393557
30
0
11
-58.695461738944445
21
77.169329399947856
31
0
0
LINE
5
502
100
AcDbEntity
8
0
100
AcDbLine
10
-67.531392305835126
20
59.073241697114305
30
0
11
-67.690586484226515
21
60.095481959056436
31
0
0
ARC
5
503
100
AcDbEntity
8
0
100
AcDbCircle
10
-67.608330286563714
20
59.567286783236391
30
0
40
0.49999999999997968
210
0
220
0
230
1
100
AcDbArc
50
263.99999999999801
51
293.70322306010229
0
ARC
5
504
100
AcDbEntity
8
0
100
AcDbCircle
10
-58.910028531180956
20
78.831845893600217
30
0
40
0.4999999999998439
210
0
220
-0
230
1
100
AcDbArc
50
79.999999999996405
51
108.81096437714059
0
ARC
5
505
100
AcDbEntity
8
0
100
AcDbCircle
10
-65.945577527904334
20
77.491673458230736
30
0
40
0.49999999999995409
210
0
220
0
230
1
100
AcDbArc
50
263.99999999999761
51
288.81096437713791
0
ARC
5
506
100
AcDbEntity
8
0
100
AcDbCircle
10
-65.831346411023063
20
76.474159004483738
30
0
40
0.49999999999985689
210
0
220
0
230
1
100
AcDbArc
50
263.99999999999483
51
288.8109643771416
0
LINE
5
507
100
AcDbEntity
8
0
100
AcDbLine
10
-88.893707560756511
20
39.901219114049887
30
0
11
-103.19370756079101
21
39.901219114049461
31
0
0
ARC
5
508
100
AcDbEntity
8
0
100
AcDbCircle
10
-103.19370756079101
20
40.401219114049468
30
0
40
0.50000000000000711
210
0
220
0
230
1
100
AcDbArc
50
180
51
270
0
ARC
5
509
100
AcDbEntity
8
0
100
AcDbCircle
10
-88.893707560756553
20
40.401219114049965
30
0
40
0.50000000000008704
210
0
220
0
230
1
100
AcDbArc
50
270.00000000000489
51
308.4743520993556
0
ARC
5
510
100
AcDbEntity
8
0
100
AcDbCircle
10
-83.802156853377909
20
43.170177508408571
30
0
40
0.49999999999998851
210
0
220
-0
230
1
100
AcDbArc
50
83.999999999999744
51
128.47435209935915
0
ARC
5
511
100
AcDbEntity
8
0
100
AcDbCircle
10
-103.19370756079103
20
40.401219114050264
30
0
40
0.50000000000000711
210
0
220
0
230
1
100
AcDbArc
50
90.000000000001634
51
180
0
LINE
5
512
100
AcDbEntity
8
0
100
AcDbLine
10
-89.077932432999503
20
40.929137719971543
30
0
11
-90.348557131224254
21
44.570266147254152
31
0
0
LINE
5
513
100
AcDbEntity
8
0
100
AcDbLine
10
-83.941963917635576
20
43.65023373926455
30
0
11
-84.244045277827752
21
44.687492049178587
31
0
0
LINE
5
514
100
AcDbEntity
8
0
100
AcDbLine
10
-89.242672098426752
20
40.901219114049866
30
0
11
-103.19370756079103
21
40.901219114050271
31
0
0
LINE
5
515
100
AcDbEntity
8
0
100
AcDbLine
10
-88.931589974767192
20
41.009775743510168
30
0
11
-84.415320337229645
21
44.598879188862284
31
0
0
LINE
5
516
100
AcDbEntity
8
0
100
AcDbLine
10
-84.244045277827752
20
44.687492049178587
30
0
11
-85.279899351119639
21
48.244309473122939
31
0
0
LINE
5
517
100
AcDbEntity
8
0
100
AcDbLine
10
-103.69370756079101
20
40.901219114050285
30
0
11
-103.69370756079101
21
45.099998991936445
31
0
0
LINE
5
518
100
AcDbEntity
8
0
100
AcDbLine
10
-88.582625437096937
20
40.009775743510232
30
0
11
-84.113238977037497
21
43.561620878948219
31
0
0
LINE
5
519
100
AcDbEntity
8
0
100
AcDbLine
10
-88.728967895329248
20
39.929137719971585
30
0
11
-89.077932432999503
21
40.929137719971543
31
0
0
ARC
5
520
100
AcDbEntity
8
0
100
AcDbCircle
10
-84.104238213570127
20
44.207435818322608
30
0
40
0.49999999999998851
210
0
220
-0
230
1
100
AcDbArc
50
83.999999999998053
51
128.47435209935074
0
ARC
5
521
100
AcDbEntity
8
0
100
AcDbCircle
10
-89.242672098426738
20
41.401219114049923
30
0
40
0.50000000000005151
210
0
220
0
230
1
100
AcDbArc
50
269.99999999999835
51
308.4743520993477
0
LINE
5
522
100
AcDbEntity
8
0
100
AcDbLine
10
-82.57336410756777
20
61.5495435865529
30
0
11
-88.910750502145135
21
57.965983567109674
31
0
0
LINE
5
523
100
AcDbEntity
8
0
100
AcDbLine
10
-82.429017841920725
20
61.603842705657499
30
0
11
-82.819433147033578
21
63.481940635527593
31
0
0
ARC
5
524
100
AcDbEntity
8
0
100
AcDbCircle
10
-82.327254338019586
20
61.114308039598257
30
0
40
0.4999999999999778
210
0
220
-0
230
1
100
AcDbArc
50
83.999999999999588
51
119.48657012558444
0
LINE
5
525
100
AcDbEntity
8
0
100
AcDbLine
10
-89.156860271693347
20
57.901219114064347
30
0
11
-103.19370756081804
21
57.901219114064673
31
0
0
LINE
5
526
100
AcDbEntity
8
0
100
AcDbLine
10
-89.393707560756525
20
59.001219114049881
30
0
11
-103.19370756075654
21
59.001219114049889
31
0
0
LINE
5
527
100
AcDbEntity
8
0
100
AcDbLine
10
-89.029615966275259
20
57.917681228538655
30
0
11
-89.7215839781814
21
60.547211471393865
31
0
0
ARC
5
528
100
AcDbEntity
8
0
100
AcDbCircle
10
-103.19370756081804
20
57.401219114064041
30
0
40
0.50000000000002487
210
0
220
0
230
1
100
AcDbArc
50
180
51
270
0
ARC
5
529
100
AcDbEntity
8
0
100
AcDbCircle
10
-89.156860271693404
20
58.401219114064553
30
0
40
0.5000000000002025
210
0
220
0
230
1
100
AcDbArc
50
270.00000000000648
51
299.48657012557965
0
ARC
5
530
100
AcDbEntity
8
0
100
AcDbCircle
10
-103.19370756081804
20
57.401219114064652
30
0
40
0.50000000000002487
210
0
220
-0
230
1
100
AcDbArc
50
90
51
180
0
ARC
5
531
100
AcDbEntity
8
0
100
AcDbCircle
10
-88.89370756075337
20
57.401219114064574
30
0
40
0.50000000000021139
210
0
220
0
230
1
100
AcDbArc
50
270.00000000000648
51
299.48657012557788
0
LINE
5
532
100
AcDbEntity
8
0
100
AcDbLine
10
-88.893707560753313
20
56.901219114064361
30
0
11
-103.19370756081804
21
56.901219114064013
31
0
0
LINE
5
533
100
AcDbEntity
8
0
100
AcDbLine
10
-103.69370756081807
20
57.901219114064688
30
0
11
-103.69370756081807
21
62.801262619363534
31
0
0
LINE
5
534
100
AcDbEntity
8
0
100
AcDbLine
10
-82.359672096131291
20
60.521575371544955
30
0
11
-88.647597791205115
21
56.965983567109689
31
0
0
ARC
5
535
100
AcDbEntity
8
0
100
AcDbCircle
10
-82.113562326583065
20
60.086339824590276
30
0
40
0.50000000000002198
210
0
220
-0
230
1
100
AcDbArc
50
84.000000000001791
51
119.48657012558667
0
LINE
5
536
100
AcDbEntity
8
0
100
AcDbLine
10
-82.215325830484232
20
60.575874490649554
30
0
11
-82.429017841920725
21
61.603842705657499
31
0
0
LINE
5
537
100
AcDbEntity
8
0
100
AcDbLine
10
-88.766463255335225
20
56.917681228538662
30
0
11
-89.029615966275259
21
57.917681228538655
31
0
0
ARC
5
538
100
AcDbEntity
8
0
100
AcDbCircle
10
-103.19370756084925
20
74.401219114050079
30
0
40
0.5000000000000604
210
0
220
0
230
1
100
AcDbArc
50
90.000000000003254
51
180
0
LINE
5
539
100
AcDbEntity
8
0
100
AcDbLine
10
-88.893707560758969
20
73.90121911404988
30
0
11
-103.19370756084929
21
73.901219114049638
31
0
0
ARC
5
540
100
AcDbEntity
8
0
100
AcDbCircle
10
-88.893707560758941
20
74.401219114049738
30
0
40
0.49999999999985612
210
0
220
0
230
1
100
AcDbArc
50
269.99999999999676
51
293.4545412170981
0
ARC
5
541
100
AcDbEntity
8
0
100
AcDbCircle
10
-89.101294028301311
20
75.401219114049681
30
0
40
0.49999999999981171
210
0
220
0
230
1
100
AcDbArc
50
269.99999999999346
51
293.45454121710509
0
ARC
5
542
100
AcDbEntity
8
0
100
AcDbCircle
10
-80.550270462469612
20
78.021180260844915
30
0
40
0.50000000000019673
210
0
220
-0
230
1
100
AcDbArc
50
84.000000000005542
51
113.45454121709508
0
LINE
5
543
100
AcDbEntity
8
0
100
AcDbLine
10
-103.19370756075656
20
72.801219114049871
30
0
11
-89.393707560756525
21
72.801219114049871
31
0
0
LINE
5
544
100
AcDbEntity
8
0
100
AcDbLine
10
-80.592395665856316
20
77.457870731823007
30
0
11
-88.69469688923445
21
73.942531036355078
31
0
0
LINE
5
545
100
AcDbEntity
8
0
100
AcDbLine
10
-80.749281133994216
20
78.479868338539902
30
0
11
-88.902283356776778
21
74.942531036355078
31
0
0
ARC
5
546
100
AcDbEntity
8
0
100
AcDbCircle
10
-103.19370756084929
20
74.401219114049667
30
0
40
0.50000000000004263
210
0
220
0
230
1
100
AcDbArc
50
180
51
270
0
ARC
5
547
100
AcDbEntity
8
0
100
AcDbCircle
10
-80.393384994331797
20
76.999182654128163
30
0
40
0.50000000000003963
210
0
220
-0
230
1
100
AcDbArc
50
84.000000000001862
51
113.45454121709261
0
LINE
5
548
100
AcDbEntity
8
0
100
AcDbLine
10
-89.101294028301368
20
74.901219114049866
30
0
11
-103.19370756084928
21
74.901219114050136
31
0
0
LINE
5
549
100
AcDbEntity
8
0
100
AcDbLine
10
-50.43247731587531
20
42.130526538458511
30
0
11
-47.844987146250077
21
37.832946148990303
31
0
0
LINE
5
550
100
AcDbEntity
8
0
100
AcDbLine
10
-89.393707560756525
20
72.801219114049871
30
0
11
-89.393707560756525
21
59.001219114049881
31
0
0
LINE
5
551
100
AcDbEntity
8
0
100
AcDbLine
10
-81.662747849108271
20
62.65327884055403
30
0
11
-80.220255056016455
21
76.377680996621947
31
0
0
LINE
5
552
100
AcDbEntity
8
0
100
AcDbLine
10
-50.77400598185443
20
42.365027492444398
30
0
11
-64.538003307706262
21
44.791991583390995
31
0
0
LINE
5
553
100
AcDbEntity
8
0
100
AcDbLine
10
-50.152087738437778
20
43.270793138220974
30
0
11
-64.727242483020831
21
45.840786167691341
31
0
0
LINE
5
554
100
AcDbEntity
8
0
100
AcDbLine
10
-103.19370756075654
20
59.001219114049889
30
0
11
-103.19370756075656
21
72.801219114049871
31
0
0
LINE
5
555
100
AcDbEntity
8
0
100
AcDbLine
10
-47.778171171322285
20
59.099033387674353
30
0
11
-61.650572416511487
21
61.545112014414698
31
0
0
LINE
5
556
100
AcDbEntity
8
0
100
AcDbLine
10
-80.220255056016455
20
76.377680996621947
30
0
11
-66.495852899933652
21
74.9351882035279
31
0
0
LINE
5
557
100
AcDbEntity
8
0
100
AcDbLine
10
-67.938345693027486
20
61.210786047445737
30
0
11
-81.662747849108271
21
62.65327884055403
31
0
0
LINE
5
558
100
AcDbEntity
8
0
100
AcDbLine
10
-47.501459599176471
20
61.18263755659089
30
0
11
-61.091806590745115
21
63.578982408393557
31
0
0
LINE
5
559
100
AcDbEntity
8
0
100
AcDbLine
10
-58.695461738944445
20
77.169329399947856
30
0
11
-45.105114747376021
21
74.772984548145132
31
0
0
LINE
5
560
100
AcDbEntity
8
0
100
AcDbLine
10
-67.660594518197556
20
59.070025835552272
30
0
11
-82.061298094949251
21
60.583600772274423
31
0
0
LINE
5
561
100
AcDbEntity
8
0
100
AcDbLine
10
-47.200068718098407
20
60.012524939442983
30
0
11
-61.775223462680742
21
62.582517968913947
31
0
0
LINE
5
562
100
AcDbEntity
8
0
100
AcDbLine
10
-44.789353179931979
20
75.834276537407362
30
0
11
-58.743896522698442
21
78.294839032202589
31
0
0
LINE
5
563
100
AcDbEntity
8
0
100
AcDbLine
10
-69.437578393755956
20
42.163153614277945
30
0
11
-83.749892621744081
21
43.667438456092697
31
0
0
LINE
5
564
100
AcDbEntity
8
0
100
AcDbLine
10
-44.248049697765822
20
76.75425674063581
30
0
11
-58.823204442347489
21
79.32424977010615
31
0
0
LINE
5
565
100
AcDbEntity
8
0
100
AcDbLine
10
-67.819788696588887
20
60.092266097494402
30
0
11
-82.274990106385758
21
61.611568987282368
31
0
0
LINE
5
566
100
AcDbEntity
8
0
100
AcDbLine
10
-69.66057283592734
20
43.19209955415441
30
0
11
-84.051973981936285
21
44.704696766006727
31
0
0
LINE
5
567
100
AcDbEntity
8
0
100
AcDbLine
10
-65.997841759538176
20
76.994412510546653
30
0
11
-80.498006230835813
21
78.518441208529254
31
0
0
LINE
5
568
100
AcDbEntity
8
0
100
AcDbLine
10
-65.883610642656919
20
75.976898056799754
30
0
11
-80.341120762697983
21
77.496443601812331
31
0
0
ENDSEC
0
SECTION
2
OBJECTS
0
DICTIONARY
5
C
100
AcDbDictionary
3
ACAD_GROUP
350
D
3
ACAD_MLINESTYLE
350
17
0
DICTIONARY
5
D
100
AcDbDictionary
0
DICTIONARY
5
1A
330
C
100
AcDbDictionary
0
DICTIONARY
5
17
100
AcDbDictionary
0
ENDSEC
0
EOF
