0
SECTION
2
HEADER
9
$INSUNITS
70
4
9
$ACADVER
1
AC1014
9
$HANDSEED
5
FFFF
0
ENDSEC
0
SECTION
2
TABLES
0
TABLE
2
VPORT
5
8
100
AcDbSymbolTable
0
ENDTAB
0
TABLE
2
LTYPE
5
5
100
AcDbSymbolTable
0
LTYPE
5
14
100
AcDbSymbolTableRecord
100
AcDbLinetypeTableRecord
2
BYBLOCK
70
0
0
LTYPE
5
15
100
AcDbSymbolTableRecord
100
AcDbLinetypeTableRecord
2
BYLAYER
70
0
0
ENDTAB
0
TABLE
2
LAYER
5
2
100
AcDbSymbolTable
70
2
0
LAYER
5
50
100
AcDbSymbolTableRecord
100
AcDbLayerTableRecord
2
0
70
0
6
CONTINUOUS
0
ENDTAB
0
TABLE
2
STYLE
5
3
100
AcDbSymbolTable
70
1
0
STYLE
5
11
100
AcDbSymbolTableRecord
100
AcDbTextStyleTableRecord
2
STANDARD
70
0
0
ENDTAB
0
TABLE
2
VIEW
5
6
100
AcDbSymbolTable
70
0
0
ENDTAB
0
TABLE
2
UCS
5
7
100
AcDbSymbolTable
70
0
0
ENDTAB
0
TABLE
2
APPID
5
9
100
AcDbSymbolTable
70
2
0
APPID
5
12
100
AcDbSymbolTableRecord
100
AcDbRegAppTableRecord
2
ACAD
70
0
0
ENDTAB
0
TABLE
2
DIMSTYLE
5
A
100
AcDbSymbolTable
70
1
0
ENDTAB
0
TABLE
2
BLOCK_RECORD
5
1
100
AcDbSymbolTable
70
1
0
BLOCK_RECORD
5
1F
100
AcDbSymbolTableRecord
100
AcDbBlockTableRecord
2
*MODEL_SPACE
0
BLOCK_RECORD
5
1B
100
AcDbSymbolTableRecord
100
AcDbBlockTableRecord
2
*PAPER_SPACE
0
ENDTAB
0
ENDSEC
0
SECTION
2
BLOCKS
0
BLOCK
5
20
100
AcDbEntity
100
AcDbBlockBegin
2
*MODEL_SPACE
0
ENDBLK
5
21
100
AcDbEntity
100
AcDbBlockEnd
0
BLOCK
5
1C
100
AcDbEntity
100
AcDbBlockBegin
2
*PAPER_SPACE
0
ENDBLK
5
1D
100
AcDbEntity
100
AcDbBlockEnd
0
ENDSEC
0
SECTION
2
ENTITIES
0
LINE
5
100
100
AcDbEntity
8
0
100
AcDbLine
10
21.32553964859035
20
4.5328833823529351
30
0
11
5.1683749976618802
21
80.546366682816227
31
0
0
LINE
5
101
100
AcDbEntity
8
0
100
AcDbLine
10
5.2584548414875903e-09
20
1.9387045606711586e-24
30
0
11
113.12815000000001
21
24.046130591018191
31
0
0
LINE
5
102
100
AcDbEntity
8
0
100
AcDbLine
10
50.045204259690607
20
42.737215446135941
30
0
11
47.222926822077142
21
38.049675254135373
31
0
0
LINE
5
103
100
AcDbEntity
8
0
100
AcDbLine
10
32.746342332992946
20
34.972582231817711
30
0
11
47.222926822077142
21
38.049675254135373
31
0
0
LWPOLYLINE
5
104
100
AcDbEntity
8
0
100
AcDbPolyline
90
4
70
1
43
0.0
10
33.811279163791447
20
-9.4773732808863205
10
30.942097831744363
20
4.0210636095035452
10
17.443660941354636
20
1.151882277456441
10
20.312842273401731
20
-12.346554612933211
0
LWPOLYLINE
5
105
100
AcDbEntity
8
0
100
AcDbPolyline
90
4
70
1
43
0.0
10
89.199999999969535
20
41.960045373914951
10
102.9999999999209
20
41.960045373924956
10
103.00000000002215
20
55.760045295635727
10
89.199999999987853
20
55.760045373914949
0
LINE
5
106
100
AcDbEntity
8
0
100
AcDbLine
10
85.023008036361958
20
28.798360533450655
30
0
11
89.199999998474823
21
29.237380064274504
31
0
0
LWPOLYLINE
5
107
100
AcDbEntity
8
0
100
AcDbPolyline
90
4
70
1
43
0.0
10
32.902757428091959
20
36.641574238361756
10
46.401194318485352
20
39.510755570391062
10
43.532012986456067
20
53.009192460784519
10
30.033576096062838
20
50.140011128755198
0
LWPOLYLINE
5
108
100
AcDbEntity
8
0
100
AcDbPolyline
90
4
70
1
43
0.0
10
83.580515293700842
20
42.522762694678519
10
69.856113255384201
20
41.080269741535119
10
71.298605958456605
20
27.355867575991333
10
85.023008036361958
20
28.798360533450655
0
LWPOLYLINE
5
109
100
AcDbEntity
8
0
100
AcDbPolyline
90
8
70
1
43
0.0
10
39.451981954780436
20
5.8298953426170232
10
42.321163294963561
20
-7.6685415460432393
10
55.819600183623905
20
-4.799360205860153
10
56.100280963214004
20
-6.1198595005213976
10
57.90985402460678
20
-5.7352228726746546
10
57.629173242123912
20
-4.4147236116583874
10
55.819600183623905
20
-4.799360205860153
10
52.950418848683952
20
8.6990766508846793
0
LINE
5
110
100
AcDbEntity
8
0
100
AcDbLine
10
69.19160659440719
20
42.619240748125726
30
0
11
64.620359004368424
21
45.307208474152311
31
0
0
LWPOLYLINE
5
111
100
AcDbEntity
8
0
100
AcDbPolyline
90
8
70
1
43
0.0
10
98.50000000001485
20
-4.3852235134928987
10
98.50000000001485
20
9.4147771273153253
10
84.69999998641994
20
9.4147771273232301
10
82.850004355955093
20
9.4107562740277704
10
82.84707021976655
20
10.760753085448012
10
84.697065850231397
20
10.76477393874347
10
84.69999998641994
20
9.4147771273232301
10
84.700000000014839
20
-4.3852235134894579
0
LINE
5
112
100
AcDbEntity
8
0
100
AcDbLine
10
88.700000000086419
20
40.360045293711195
30
0
11
103.00000000001475
21
40.360045293711195
31
0
0
LINE
5
113
100
AcDbEntity
8
0
100
AcDbLine
10
66.802137063938716
20
30.054344989877514
30
0
11
64.405792212596694
21
43.644691981527401
31
0
0
LWPOLYLINE
5
114
100
AcDbEntity
8
0
100
AcDbPolyline
90
4
70
1
43
0.0
10
36.437256172006244
20
20.013065025889709
10
49.93569306211284
20
22.882246359268443
10
47.066511728734142
20
36.380683249375032
10
33.568074838627446
20
33.511501915996284
0
LINE
5
115
100
AcDbEntity
8
0
100
AcDbLine
10
66.802137063938716
20
30.054344989877514
30
0
11
70.938329626614831
21
30.783667335937942
31
0
0
LWPOLYLINE
5
116
100
AcDbEntity
8
0
100
AcDbPolyline
90
4
70
1
43
0.0
10
19.246422740418389
20
14.314359389652275
10
32.744859630572662
20
17.183540722806754
10
29.875678297464596
20
30.681977612930922
10
16.377241407302208
20
27.812796279814691
0
LWPOLYLINE
5
117
100
AcDbEntity
8
0
100
AcDbPolyline
90
4
70
1
43
0.0
10
103.00000000001484
20
24.960045260453725
10
102.9999999714159
20
38.760045293711201
10
89.199999963492346
20
38.760045333062472
10
89.20000000000482
20
24.960045223941265
0
LINE
5
118
100
AcDbEntity
8
0
100
AcDbLine
10
53.211790072288849
20
27.65800013853546
30
0
11
49.075597509637973
21
26.928677792332213
31
0
0
LINE
5
119
100
AcDbEntity
8
0
100
AcDbLine
10
69.19160659440719
20
42.619240748125726
30
0
11
83.910530651386566
21
44.166261951982705
31
0
0
LWPOLYLINE
5
120
100
AcDbEntity
8
0
100
AcDbPolyline
90
4
70
1
43
0.0
10
69.521622001049607
20
44.262740010574845
10
83.246024162277465
20
45.705232754710494
10
81.803531369094244
20
59.42963491078315
10
68.079129256913248
20
57.98714217180261
0
LINE
5
121
100
AcDbEntity
8
0
100
AcDbLine
10
61.668339985481701
20
62.048940276729027
30
0
11
67.414622718957432
21
59.526112967709963
31
0
0
LINE
5
122
100
AcDbEntity
8
0
100
AcDbLine
10
30.942097831744363
20
4.0210636095035452
30
0
11
39.451981958294368
21
5.8298953188375693
31
0
0
LINE
5
123
100
AcDbEntity
8
0
100
AcDbLine
10
88.700000000086419
20
40.360045293711195
30
0
11
83.910530651386566
21
44.166261951982705
31
0
0
LINE
5
124
100
AcDbEntity
8
0
100
AcDbLine
10
26.497594649044153
20
48.979478831940554
30
0
11
29.211843589173448
21
51.601091444326585
31
0
0
LWPOLYLINE
5
125
100
AcDbEntity
8
0
100
AcDbPolyline
90
4
70
1
43
0.0
10
58.501754171495477
20
77.128155583937385
10
44.911407179878893
20
74.73181073242273
10
47.307752031391118
20
61.141463740802863
10
60.898099023010523
20
63.537808592317887
0
LWPOLYLINE
5
126
100
AcDbEntity
8
0
100
AcDbPolyline
90
4
70
1
43
0.0
10
102.99999999993426
20
58.96004529563217
10
102.99999999993426
20
72.760045295632167
10
89.199999999934249
20
72.760045295632182
10
89.199999999934249
20
58.960045295632185
0
LINE
5
127
100
AcDbEntity
8
0
100
AcDbLine
10
88.699999999932615
20
57.360045295663284
30
0
11
102.99999999998289
21
57.360045295603193
31
0
0
LINE
5
128
100
AcDbEntity
8
0
100
AcDbLine
10
36.437256172006244
20
20.013065025889709
30
0
11
32.329036248930343
21
19.139835924426624
31
0
0
LINE
5
129
100
AcDbEntity
8
0
100
AcDbLine
10
55.819600183623905
20
-4.799360205860153
30
0
11
58.018832033169083
21
-15.145932634853541
31
0
0
LINE
5
130
100
AcDbEntity
8
0
100
AcDbLine
10
29.211843589173448
20
51.601091444326585
30
0
11
43.68842807982935
21
54.678184466485327
31
0
0
LWPOLYLINE
5
131
100
AcDbEntity
8
0
100
AcDbPolyline
90
4
70
1
43
0.0
10
63.850118043745567
20
46.79607679021391
10
61.453773193272369
20
60.386423782017687
10
47.863426201472443
20
57.990078931545128
10
50.259771051942401
20
44.399731939741471
0
LWPOLYLINE
5
132
100
AcDbEntity
8
0
100
AcDbPolyline
90
4
70
1
43
0.0
10
25.675862142794234
20
50.440559147594641
10
22.806680809798419
20
63.938996037788378
10
9.3082439196123126
20
61.069814704788293
10
12.177425252606042
20
47.571377814599842
0
LWPOLYLINE
5
133
100
AcDbEntity
8
0
100
AcDbPolyline
90
4
70
1
43
0.0
10
12.842742663736226
20
44.441305492360783
10
15.711923996512189
20
30.942868602126058
10
29.210360886746901
20
33.812049934902042
10
26.341179553970942
20
47.310486825136749
0
LWPOLYLINE
5
134
100
AcDbEntity
8
0
100
AcDbPolyline
90
4
70
1
43
0.0
10
66.302145335304459
20
74.894014388222303
10
67.744638125490795
20
61.169612231834556
10
81.469040281878634
20
62.612105022019392
10
80.026547491694032
20
76.336507178406848
0
LINE
5
135
100
AcDbEntity
8
0
100
AcDbLine
10
43.68842807982935
20
54.678184466485327
30
0
11
47.093185239353268
21
59.478947247304617
31
0
0
LWPOLYLINE
5
136
100
AcDbEntity
8
0
100
AcDbPolyline
90
4
70
1
43
0.0
10
42.866695574664639
20
56.139264782423275
10
39.997514243075244
20
69.637701672910339
10
26.499077352588223
20
66.768520341320809
10
29.368258684177697
20
53.270083450833845
0
LINE
5
137
100
AcDbEntity
8
0
100
AcDbLine
10
82.133546770710893
20
61.073134220948873
30
0
11
88.699999999932615
21
57.360045295663284
31
0
0
LINE
5
138
100
AcDbEntity
8
0
100
AcDbLine
10
53.211790072288849
20
27.65800013853546
30
0
11
66.802137063938716
21
30.054344989877514
31
0
0
LINE
5
139
100
AcDbEntity
8
0
100
AcDbLine
10
47.093185239353268
20
59.478947247304617
30
0
11
61.668339985481701
21
62.048940276729027
31
0
0
LINE
5
140
100
AcDbEntity
8
0
100
AcDbLine
10
50.815445220942053
20
41.248347130184435
30
0
11
53.211790072288849
21
27.65800013853546
31
0
0
LINE
5
141
100
AcDbEntity
8
0
100
AcDbLine
10
38.932196461828084
20
8.2752938170858865
30
0
11
43.910531834133131
21
-15.145932681104835
31
0
0
LINE
5
142
100
AcDbEntity
8
0
100
AcDbLine
10
16.923875445317794
20
3.5972807736775385
30
0
11
20.907869400726291
21
-15.145937153317803
31
0
0
LINE
5
143
100
AcDbEntity
8
0
100
AcDbLine
10
11.531936357191917
20
45.79842996263239
30
0
11
26.497594649044153
21
48.979478831940554
31
0
0
LINE
5
144
100
AcDbEntity
8
0
100
AcDbLine
10
67.414622718957432
20
59.526112967709963
30
0
11
82.133546770710893
21
61.073134220948873
31
0
0
LINE
5
145
100
AcDbEntity
8
0
100
AcDbLine
10
32.746342332992946
20
34.972582231817711
30
0
11
30.032093392367067
21
32.35096961910584
31
0
0
LINE
5
146
100
AcDbEntity
8
0
100
AcDbLine
10
65.205305027046364
20
80.546366682816227
30
0
11
71.82559615052034
21
17.558504143719141
31
0
0
LINE
5
147
100
AcDbEntity
8
0
100
AcDbLine
10
64.405792212596694
20
43.644691981527401
30
0
11
50.815445220942053
21
41.248347130184435
31
0
0
LINE
5
148
100
AcDbEntity
8
0
100
AcDbLine
10
38.189976213804371
20
80.546366682816227
30
0
11
52.487618118979654
21
13.281250050213186
31
0
0
LINE
5
149
100
AcDbEntity
8
0
100
AcDbLine
10
19.787845506083244
20
80.546366682816227
30
0
11
34.810129318551681
21
9.8720779324390406
31
0
0
LINE
5
150
100
AcDbEntity
8
0
100
AcDbLine
10
43.37843077896266
20
80.546366682816227
30
0
11
55.02081312213673
21
14.519135363077357
31
0
0
LINE
5
151
100
AcDbEntity
8
0
100
AcDbLine
10
72.55294537048016
20
15.421604605893604
30
0
11
65.708059166979425
21
80.546366682816227
31
0
0
LINE
5
152
100
AcDbEntity
8
0
100
AcDbLine
10
58.406744638289332
20
80.546366682816227
30
0
11
69.558201884039065
21
17.303309906491435
31
0
0
LINE
5
153
100
AcDbEntity
8
0
100
AcDbLine
10
50.045204259690607
20
42.737215446135941
30
0
11
64.620359004368424
21
45.307208474152311
31
0
0
LINE
5
154
100
AcDbEntity
8
0
100
AcDbLine
10
15.066435101098818
20
29.169920750175319
30
0
11
30.032093392367067
21
32.35096961910584
31
0
0
LINE
5
155
100
AcDbEntity
8
0
100
AcDbLine
10
19.486138821480786
20
8.3768495523437903
30
0
11
4.146034402803874
21
80.546366682816227
31
0
0
LINE
5
156
100
AcDbEntity
8
0
100
AcDbLine
10
80.08682756452697
20
80.546366682816227
30
0
11
86.498140339649524
21
19.546800314118464
31
0
0
LINE
5
157
100
AcDbEntity
8
0
100
AcDbLine
10
55.990160914967937
20
11.901076090341594
30
0
11
43.886144084905048
21
80.546366682816227
31
0
0
LINE
5
158
100
AcDbEntity
8
0
100
AcDbLine
10
38.932196461828084
20
8.2752938170858865
30
0
11
23.570505705228598
21
80.546366682816227
31
0
0
LINE
5
159
100
AcDbEntity
8
0
100
AcDbLine
10
103.00000000005519
20
18.79456940939604
30
0
11
102.9999999999394
21
80.546366682773126
31
0
0
LINE
5
160
100
AcDbEntity
8
0
100
AcDbLine
10
89.199999642717273
20
18.960045223941265
30
0
11
89.199999999889442
21
80.546366682816085
31
0
0
LINE
5
161
100
AcDbEntity
8
0
100
AcDbLine
10
23.059335408043765
20
80.546366682816227
30
0
11
38.103828995510952
21
9.7675891675667099
31
0
0
LINE
5
162
100
AcDbEntity
8
0
100
AcDbLine
10
88.699999999722863
20
80.546366682478791
30
0
11
88.700000000271956
21
19.851171913153053
31
0
0
LINE
5
163
100
AcDbEntity
8
0
100
AcDbLine
10
15.066435101098818
20
29.169920750175319
30
0
11
13.478493239130314
21
28.861256125714327
31
0
0
LINE
5
164
100
AcDbEntity
8
0
100
AcDbLine
10
5.2584548414875903e-09
20
1.9387045606711586e-24
30
0
11
5.2584548414875903e-09
21
1.0000000000000009
31
0
0
LINE
5
165
100
AcDbEntity
8
0
100
AcDbLine
10
5.2584548414875903e-09
20
1.9387045606711586e-24
30
0
11
1.0209176152199821
21
8.0491169285323849e-15
31
0
0
LWPOLYLINE
5
166
100
AcDbEntity
8
0
100
AcDbPolyline
90
4
70
1
43
0.0
10
0
20
0
10
5
20
0
10
5
20
5
10
0
20
5
0
LWPOLYLINE
5
167
100
AcDbEntity
8
0
100
AcDbPolyline
90
4
70
1
43
0.0
10
54.759991910076387
20
9.0837132787333772
10
52.950418848683952
20
8.6990766508846793
10
52.66973806620102
20
10.019575911902937
10
54.47931112759413
20
10.404212539749862
0
LINE
5
168
100
AcDbEntity
8
0
100
AcDbLine
10
54.47931112759413
20
10.404212539749862
30
0
11
109.99999685191119
21
10.404212534724277
31
0
0
LWPOLYLINE
5
169
100
AcDbEntity
8
0
100
AcDbPolyline
90
4
70
1
43
0.0
10
84.699999986419826
20
-5.7352228726767729
10
82.849999986419803
20
-5.7352228726766263
10
82.849999986421281
20
-4.3852228726766276
10
84.700000000014839
20
-4.3852235134894579
0
LINE
5
170
100
AcDbEntity
8
0
100
AcDbLine
10
57.90985402460678
20
-5.7352228726746546
30
0
11
66.489508040058723
21
-5.7352228726753278
31
0
0
LINE
5
171
100
AcDbEntity
8
0
100
AcDbLine
10
0
20
-10
30
0
11
0
21
-15
31
0
0
LINE
5
172
100
AcDbEntity
8
0
100
AcDbLine
10
107.99999999999545
20
53.000000789759518
30
0
11
108.00000000000458
21
35.000000521538617
31
0
0
LINE
5
173
100
AcDbEntity
8
0
100
AcDbLine
10
20.907869400726291
20
-15.145937153317803
30
0
11
32.000000476837158
21
-15.145937153317817
31
0
0
LINE
5
174
100
AcDbEntity
8
0
100
AcDbLine
10
43.910531834133131
20
-15.145932681104835
30
0
11
56.000000834465027
21
-15.145932681286943
31
0
0
LINE
5
175
100
AcDbEntity
8
0
100
AcDbLine
10
58.018832033169083
20
-15.145932634853541
30
0
11
67.0000009983778
21
-15.145932634853503
31
0
0
LINE
5
176
100
AcDbEntity
8
0
100
AcDbLine
10
4.146034402803874
20
80.546366682816227
30
0
11
6.5000000968575478
21
80.546366682816227
31
0
0
LINE
5
177
100
AcDbEntity
8
0
100
AcDbLine
10
5.1683749976618802
20
80.546366682816227
30
0
11
7.500000111758709
21
80.546366682816227
31
0
0
LINE
5
178
100
AcDbEntity
8
0
100
AcDbLine
10
19.787845506083244
20
80.546366682816227
30
0
11
23.189538507183606
21
80.546366682816227
31
0
0
LINE
5
179
100
AcDbEntity
8
0
100
AcDbLine
10
23.059335408043765
20
80.546366682816227
30
0
11
24.000000357627869
21
80.546366682816227
31
0
0
LINE
5
180
100
AcDbEntity
8
0
100
AcDbLine
10
23.570505705228598
20
80.546366682816227
30
0
11
26.000000387430191
21
80.546366682816227
31
0
0
LINE
5
181
100
AcDbEntity
8
0
100
AcDbLine
10
38.189976213804371
20
80.546366682816227
30
0
11
40.747575141281061
21
80.546366682816227
31
0
0
LINE
5
182
100
AcDbEntity
8
0
100
AcDbLine
10
43.37843077896266
20
80.546366682816227
30
0
11
42.500000633299351
21
80.546366682816227
31
0
0
LINE
5
183
100
AcDbEntity
8
0
100
AcDbLine
10
43.886144084905048
20
80.546366682816227
30
0
11
46.000000685453415
21
80.546366682816227
31
0
0
LINE
5
184
100
AcDbEntity
8
0
100
AcDbLine
10
58.406744638289332
20
80.546366682816227
30
0
11
61.000000908970833
21
80.546366682816227
31
0
0
LINE
5
185
100
AcDbEntity
8
0
100
AcDbLine
10
65.205305027046364
20
80.546366682816227
30
0
11
64.182496710809062
21
80.546366682816227
31
0
0
LINE
5
186
100
AcDbEntity
8
0
100
AcDbLine
10
65.708059166979425
20
80.546366682816227
30
0
11
67.500001005828381
21
80.546366682816227
31
0
0
LINE
5
187
100
AcDbEntity
8
0
100
AcDbLine
10
80.08682756452697
20
80.546366682816227
30
0
11
82.27220210561407
21
80.546366682816227
31
0
0
LINE
5
188
100
AcDbEntity
8
0
100
AcDbLine
10
88.699999999722863
20
80.546366682478791
30
0
11
86.823805398480147
21
80.546366682461809
31
0
0
LINE
5
189
100
AcDbEntity
8
0
100
AcDbLine
10
89.199999999889442
20
80.546366682816085
30
0
11
89.41471804214504
21
80.546366682816199
31
0
0
LINE
5
190
100
AcDbEntity
8
0
100
AcDbLine
10
89.41471804214504
20
80.546366682816199
30
0
11
90.581795809551821
21
80.546366682815872
31
0
0
LINE
5
191
100
AcDbEntity
8
0
100
AcDbLine
10
102.9999999999394
20
80.546366682773126
30
0
11
101.132178826904
21
80.54636668276963
31
0
0
LINE
5
192
100
AcDbEntity
8
0
100
AcDbLine
10
120.08068519939212
20
80.546366682816227
30
0
11
126.00000187754631
21
80.546366682816227
31
0
0
LWPOLYLINE
5
193
100
AcDbEntity
8
0
100
AcDbPolyline
90
12
70
1
43
0.0
10
-98.50000000001485
20
-4.3852235134928996
10
-98.50000000001485
20
9.4147771273153253
10
-84.69999998641994
20
9.4147771273232284
10
-84.697065850231397
20
10.76477393874347
10
-82.84707021976655
20
10.760753085448012
10
-82.850004355955093
20
9.4107562740277686
10
-84.69999998641994
20
9.4147771273232284
10
-84.700000000014839
20
-4.3852235134894579
10
-82.849999986421281
20
-4.3852228726766276
10
-82.849999986419803
20
-5.7352228726766263
10
-84.699999986419826
20
-5.7352228726767729
10
-84.700000000014839
20
-4.3852235134894579
0
LINE
5
194
100
AcDbEntity
8
0
100
AcDbLine
10
-5.2584548414875903e-09
20
0
30
0
11
-113.12815000000001
21
24.046130591018191
31
0
0
LWPOLYLINE
5
195
100
AcDbEntity
8
0
100
AcDbPolyline
90
4
70
1
43
0.0
10
-15.711923996512189
20
30.942868602126055
10
-29.210360886746901
20
33.812049934902042
10
-26.341179553970942
20
47.310486825136749
10
-12.842742663736226
20
44.441305492360783
0
LINE
5
196
100
AcDbEntity
8
0
100
AcDbLine
10
-15.066435101098818
20
29.169920750175319
30
0
11
-30.032093392367067
21
32.35096961910584
31
0
0
LINE
5
197
100
AcDbEntity
8
0
100
AcDbLine
10
-32.746342332992946
20
34.972582231817711
30
0
11
-30.032093392367067
21
32.35096961910584
31
0
0
LWPOLYLINE
5
198
100
AcDbEntity
8
0
100
AcDbPolyline
90
4
70
1
43
0.0
10
-19.246422740418389
20
14.314359389652275
10
-32.744859630572662
20
17.183540722806754
10
-29.875678297464596
20
30.681977612930922
10
-16.377241407302208
20
27.812796279814691
0
LINE
5
199
100
AcDbEntity
8
0
100
AcDbLine
10
-32.746342332992946
20
34.972582231817711
30
0
11
-47.222926822077142
21
38.04967525413538
31
0
0
LINE
5
200
100
AcDbEntity
8
0
100
AcDbLine
10
-50.045204259690607
20
42.737215446135941
30
0
11
-47.222926822077142
21
38.04967525413538
31
0
0
LWPOLYLINE
5
201
100
AcDbEntity
8
0
100
AcDbPolyline
90
4
70
1
43
0.0
10
-50.815445220942053
20
41.248347130184435
10
-53.211790072288849
20
27.65800013853546
10
-66.802137063938716
20
30.054344989877517
10
-64.405792212596694
20
43.644691981527401
0
LWPOLYLINE
5
202
100
AcDbEntity
8
0
100
AcDbPolyline
90
4
70
1
43
0.0
10
-33.568074838627446
20
33.511501915996291
10
-36.437256172006244
20
20.013065025889709
10
-49.93569306211284
20
22.882246359268443
10
-47.066511728734142
20
36.380683249375032
0
LINE
5
203
100
AcDbEntity
8
0
100
AcDbLine
10
-53.211790072288849
20
27.65800013853546
30
0
11
-49.075597509637973
21
26.928677792332213
31
0
0
LINE
5
204
100
AcDbEntity
8
0
100
AcDbLine
10
-36.437256172006244
20
20.013065025889709
30
0
11
-32.329036248930343
21
19.13983592442662
31
0
0
LWPOLYLINE
5
205
100
AcDbEntity
8
0
100
AcDbPolyline
90
4
70
1
43
0.0
10
-85.023008036361958
20
28.798360533450655
10
-83.580515293700842
20
42.522762694678519
10
-69.856113255384201
20
41.080269741535119
10
-71.298605958456605
20
27.355867575991333
0
LWPOLYLINE
5
206
100
AcDbEntity
8
0
100
AcDbPolyline
90
4
70
1
43
0.0
10
-89.199999963492346
20
38.760045333062472
10
-89.20000000000482
20
24.960045223941265
10
-103.00000000001484
20
24.960045260453725
10
-102.9999999714159
20
38.760045293711194
0
LWPOLYLINE
5
207
100
AcDbEntity
8
0
100
AcDbPolyline
90
4
70
1
43
0.0
10
-58.501754171495477
20
77.128155583937399
10
-44.911407179878893
20
74.73181073242273
10
-47.307752031391118
20
61.141463740802863
10
-60.898099023010523
20
63.537808592317887
0
LINE
5
208
100
AcDbEntity
8
0
100
AcDbLine
10
-21.32553964859035
20
4.5328833823529351
30
0
11
-5.1683749976618802
21
80.546366682816227
31
0
0
LINE
5
209
100
AcDbEntity
8
0
100
AcDbLine
10
-65.708059166979425
20
80.546366682816227
30
0
11
-67.500001005828381
21
80.546366682816227
31
0
0
LINE
5
210
100
AcDbEntity
8
0
100
AcDbLine
10
-43.886144084905048
20
80.546366682816227
30
0
11
-46.000000685453415
21
80.546366682816227
31
0
0
LINE
5
211
100
AcDbEntity
8
0
100
AcDbLine
10
-43.37843077896266
20
80.546366682816227
30
0
11
-55.02081312213673
21
14.519135363077357
31
0
0
LWPOLYLINE
5
212
100
AcDbEntity
8
0
100
AcDbPolyline
90
4
70
1
43
0.0
10
-61.453773193272369
20
60.386423782017687
10
-47.863426201472443
20
57.990078931545128
10
-50.259771051942401
20
44.399731939741471
10
-63.850118043745567
20
46.79607679021391
0
LWPOLYLINE
5
213
100
AcDbEntity
8
0
100
AcDbPolyline
90
4
70
1
43
0.0
10
-42.866695574664639
20
56.139264782423275
10
-39.997514243075244
20
69.637701672910339
10
-26.499077352588223
20
66.768520341320809
10
-29.368258684177697
20
53.270083450833845
0
LWPOLYLINE
5
214
100
AcDbEntity
8
0
100
AcDbPolyline
90
4
70
1
43
0.0
10
-66.302145335304459
20
74.894014388222303
10
-67.744638125490795
20
61.169612231834556
10
-81.469040281878634
20
62.612105022019392
10
-80.026547491694032
20
76.336507178406833
0
LINE
5
215
100
AcDbEntity
8
0
100
AcDbLine
10
-65.205305027046364
20
80.546366682816227
30
0
11
-64.182496710809062
21
80.546366682816227
31
0
0
LINE
5
216
100
AcDbEntity
8
0
100
AcDbLine
10
-58.406744638289332
20
80.546366682816227
30
0
11
-61.000000908970833
21
80.546366682816227
31
0
0
LINE
5
217
100
AcDbEntity
8
0
100
AcDbLine
10
-61.668339985481701
20
62.048940276729027
30
0
11
-67.414622718957432
21
59.526112967709963
31
0
0
LINE
5
218
100
AcDbEntity
8
0
100
AcDbLine
10
-47.093185239353268
20
59.478947247304617
30
0
11
-61.668339985481701
21
62.048940276729027
31
0
0
LINE
5
219
100
AcDbEntity
8
0
100
AcDbLine
10
-43.68842807982935
20
54.678184466485327
30
0
11
-47.093185239353268
21
59.478947247304617
31
0
0
LWPOLYLINE
5
220
100
AcDbEntity
8
0
100
AcDbPolyline
90
4
70
1
43
0.0
10
-43.532012986456067
20
53.009192460784519
10
-30.033576096062838
20
50.140011128755198
10
-32.902757428091959
20
36.641574238361763
10
-46.401194318485352
20
39.510755570391055
0
LINE
5
221
100
AcDbEntity
8
0
100
AcDbLine
10
-38.189976213804371
20
80.546366682816227
30
0
11
-40.747575141281061
21
80.546366682816227
31
0
0
LINE
5
222
100
AcDbEntity
8
0
100
AcDbLine
10
-29.211843589173448
20
51.601091444326585
30
0
11
-43.68842807982935
21
54.678184466485327
31
0
0
LWPOLYLINE
5
223
100
AcDbEntity
8
0
100
AcDbPolyline
90
4
70
1
43
0.0
10
-83.246024162277465
20
45.705232754710494
10
-81.803531369094244
20
59.42963491078315
10
-68.079129256913248
20
57.98714217180261
10
-69.521622001049607
20
44.262740010574845
0
LINE
5
224
100
AcDbEntity
8
0
100
AcDbLine
10
-82.133546770710893
20
61.073134220948873
30
0
11
-88.699999999932615
21
57.360045295663284
31
0
0
LINE
5
225
100
AcDbEntity
8
0
100
AcDbLine
10
-69.19160659440719
20
42.619240748125726
30
0
11
-83.910530651386566
21
44.166261951982705
31
0
0
LINE
5
226
100
AcDbEntity
8
0
100
AcDbLine
10
-85.023008036361958
20
28.798360533450655
30
0
11
-89.199999998474823
21
29.237380064274504
31
0
0
LINE
5
227
100
AcDbEntity
8
0
100
AcDbLine
10
-88.700000000086419
20
40.360045293711195
30
0
11
-83.910530651386566
21
44.166261951982705
31
0
0
LINE
5
228
100
AcDbEntity
8
0
100
AcDbLine
10
-66.802137063938716
20
30.054344989877517
30
0
11
-70.938329626614831
21
30.783667335937945
31
0
0
LINE
5
229
100
AcDbEntity
8
0
100
AcDbLine
10
-26.497594649044153
20
48.979478831940554
30
0
11
-29.211843589173448
21
51.601091444326585
31
0
0
LINE
5
230
100
AcDbEntity
8
0
100
AcDbLine
10
-15.066435101098818
20
29.169920750175319
30
0
11
-13.478493239130314
21
28.861256125714327
31
0
0
LINE
5
231
100
AcDbEntity
8
0
100
AcDbLine
10
-43.910531834133131
20
-15.145932681104835
30
0
11
-56.000000834465027
21
-15.145932681286943
31
0
0
LWPOLYLINE
5
232
100
AcDbEntity
8
0
100
AcDbPolyline
90
4
70
1
43
0.0
10
-55.819600183623905
20
-4.7993602058601521
10
-57.629173242123912
20
-4.4147236116583866
10
-57.90985402460678
20
-5.7352228726746546
10
-56.100280963214004
20
-6.1198595005213976
0
LWPOLYLINE
5
233
100
AcDbEntity
8
0
100
AcDbPolyline
90
4
70
1
43
0.0
10
-52.950418848683952
20
8.6990766508846775
10
-52.66973806620102
20
10.019575911902937
10
-54.47931112759413
20
10.404212539749862
10
-54.759991910076387
20
9.0837132787333772
0
LINE
5
234
100
AcDbEntity
8
0
100
AcDbLine
10
-20.907869400726291
20
-15.145937153317803
30
0
11
-32.000000476837158
21
-15.145937153317817
31
0
0
LINE
5
235
100
AcDbEntity
8
0
100
AcDbLine
10
-30.942097831744363
20
4.0210636095035461
30
0
11
-39.451981958294368
21
5.8298953188375702
31
0
0
LINE
5
236
100
AcDbEntity
8
0
100
AcDbLine
10
-88.700000000086419
20
40.360045293711195
30
0
11
-103.00000000001475
21
40.360045293711195
31
0
0
LINE
5
237
100
AcDbEntity
8
0
100
AcDbLine
10
-69.19160659440719
20
42.619240748125726
30
0
11
-64.620359004368424
21
45.307208474152311
31
0
0
LWPOLYLINE
5
238
100
AcDbEntity
8
0
100
AcDbPolyline
90
4
70
1
43
0.0
10
-89.199999999969535
20
41.960045373914951
10
-102.9999999999209
20
41.960045373924956
10
-103.00000000002215
20
55.760045295635727
10
-89.199999999987853
20
55.760045373914949
0
LWPOLYLINE
5
239
100
AcDbEntity
8
0
100
AcDbPolyline
90
4
70
1
43
0.0
10
-33.811279163791447
20
-9.4773732808863205
10
-30.942097831744363
20
4.0210636095035461
10
-17.443660941354636
20
1.1518822774564419
10
-20.312842273401731
20
-12.346554612933211
0
LINE
5
240
100
AcDbEntity
8
0
100
AcDbLine
10
-16.923875445317794
20
3.5972807736775381
30
0
11
-20.907869400726291
21
-15.145937153317803
31
0
0
LWPOLYLINE
5
241
100
AcDbEntity
8
0
100
AcDbPolyline
90
4
70
1
43
0.0
10
-39.451981954780436
20
5.8298953426170241
10
-42.321163294963561
20
-7.6685415460432393
10
-55.819600183623905
20
-4.7993602058601521
10
-52.950418848683952
20
8.6990766508846775
0
LINE
5
242
100
AcDbEntity
8
0
100
AcDbLine
10
-89.199999642717273
20
18.960045223941265
30
0
11
-89.199999999889442
21
80.546366682816085
31
0
0
LINE
5
243
100
AcDbEntity
8
0
100
AcDbLine
10
-23.570505705228598
20
80.546366682816227
30
0
11
-26.000000387430191
21
80.546366682816227
31
0
0
LINE
5
244
100
AcDbEntity
8
0
100
AcDbLine
10
-23.059335408043765
20
80.546366682816227
30
0
11
-24.000000357627869
21
80.546366682816227
31
0
0
LWPOLYLINE
5
245
100
AcDbEntity
8
0
100
AcDbPolyline
90
4
70
1
43
0.0
10
-22.806680809798419
20
63.938996037788378
10
-9.3082439196123126
20
61.069814704788293
10
-12.177425252606042
20
47.571377814599842
10
-25.675862142794234
20
50.440559147594641
0
LINE
5
246
100
AcDbEntity
8
0
100
AcDbLine
10
-23.059335408043765
20
80.546366682816227
30
0
11
-38.103828995510952
21
9.7675891675667099
31
0
0
LINE
5
247
100
AcDbEntity
8
0
100
AcDbLine
10
-11.531936357191917
20
45.79842996263239
30
0
11
-26.497594649044153
21
48.979478831940554
31
0
0
LWPOLYLINE
5
248
100
AcDbEntity
8
0
100
AcDbPolyline
90
4
70
1
43
0.0
10
-89.199999999934249
20
58.960045295632185
10
-102.99999999993426
20
58.96004529563217
10
-102.99999999993426
20
72.760045295632167
10
-89.199999999934249
20
72.760045295632182
0
LINE
5
249
100
AcDbEntity
8
0
100
AcDbLine
10
-19.486138821480786
20
8.3768495523437903
30
0
11
-4.146034402803874
21
80.546366682816227
31
0
0
LINE
5
250
100
AcDbEntity
8
0
100
AcDbLine
10
-55.990160914967937
20
11.901076090341594
30
0
11
-43.886144084905048
21
80.546366682816227
31
0
0
LINE
5
251
100
AcDbEntity
8
0
100
AcDbLine
10
-89.199999999889442
20
80.546366682816085
30
0
11
-89.41471804214504
21
80.546366682816199
31
0
0
LINE
5
252
100
AcDbEntity
8
0
100
AcDbLine
10
-88.699999999722863
20
80.546366682478791
30
0
11
-86.823805398480147
21
80.546366682461809
31
0
0
LINE
5
253
100
AcDbEntity
8
0
100
AcDbLine
10
-102.9999999999394
20
80.546366682773126
30
0
11
-101.132178826904
21
80.54636668276963
31
0
0
LINE
5
254
100
AcDbEntity
8
0
100
AcDbLine
10
-80.08682756452697
20
80.546366682816227
30
0
11
-82.27220210561407
21
80.546366682816227
31
0
0
LINE
5
255
100
AcDbEntity
8
0
100
AcDbLine
10
-89.41471804214504
20
80.546366682816199
30
0
11
-90.581795809551821
21
80.546366682815872
31
0
0
LINE
5
256
100
AcDbEntity
8
0
100
AcDbLine
10
-88.699999999932615
20
57.360045295663284
30
0
11
-102.99999999998289
21
57.360045295603193
31
0
0
LINE
5
257
100
AcDbEntity
8
0
100
AcDbLine
10
-67.414622718957432
20
59.526112967709963
30
0
11
-82.133546770710893
21
61.073134220948873
31
0
0
LINE
5
258
100
AcDbEntity
8
0
100
AcDbLine
10
-88.699999999722863
20
80.546366682478791
30
0
11
-88.700000000271956
21
19.851171913153053
31
0
0
LINE
5
259
100
AcDbEntity
8
0
100
AcDbLine
10
-103.00000000005519
20
18.79456940939604
30
0
11
-102.9999999999394
21
80.546366682773126
31
0
0
LINE
5
260
100
AcDbEntity
8
0
100
AcDbLine
10
-38.932196461828084
20
8.2752938170858865
30
0
11
-23.570505705228598
21
80.546366682816227
31
0
0
LINE
5
261
100
AcDbEntity
8
0
100
AcDbLine
10
-107.99999999999545
20
53.000000789759518
30
0
11
-108.00000000000458
21
35.000000521538617
31
0
0
LINE
5
262
100
AcDbEntity
8
0
100
AcDbLine
10
-58.406744638289332
20
80.546366682816227
30
0
11
-69.558201884039065
21
17.303309906491435
31
0
0
LINE
5
263
100
AcDbEntity
8
0
100
AcDbLine
10
-38.189976213804371
20
80.546366682816227
30
0
11
-52.487618118979654
21
13.281250050213185
31
0
0
LINE
5
264
100
AcDbEntity
8
0
100
AcDbLine
10
-65.205305027046364
20
80.546366682816227
30
0
11
-71.82559615052034
21
17.558504143719141
31
0
0
LINE
5
265
100
AcDbEntity
8
0
100
AcDbLine
10
-54.47931112759413
20
10.404212539749862
30
0
11
-109.99999685191119
21
10.404212534724277
31
0
0
LINE
5
266
100
AcDbEntity
8
0
100
AcDbLine
10
-19.787845506083244
20
80.546366682816227
30
0
11
-34.810129318551681
21
9.8720779324390406
31
0
0
LINE
5
267
100
AcDbEntity
8
0
100
AcDbLine
10
-58.018832033169083
20
-15.145932634853541
30
0
11
-67.0000009983778
21
-15.145932634853503
31
0
0
LINE
5
268
100
AcDbEntity
8
0
100
AcDbLine
10
-57.90985402460678
20
-5.7352228726746546
30
0
11
-66.489508040058723
21
-5.7352228726753278
31
0
0
LINE
5
269
100
AcDbEntity
8
0
100
AcDbLine
10
-50.045204259690607
20
42.737215446135941
30
0
11
-64.620359004368424
21
45.307208474152311
31
0
0
LINE
5
270
100
AcDbEntity
8
0
100
AcDbLine
10
-43.37843077896266
20
80.546366682816227
30
0
11
-42.500000633299351
21
80.546366682816227
31
0
0
LINE
5
271
100
AcDbEntity
8
0
100
AcDbLine
10
-72.55294537048016
20
15.421604605893604
30
0
11
-65.708059166979425
21
80.546366682816227
31
0
0
LINE
5
272
100
AcDbEntity
8
0
100
AcDbLine
10
-19.787845506083244
20
80.546366682816227
30
0
11
-23.189538507183606
21
80.546366682816227
31
0
0
LINE
5
273
100
AcDbEntity
8
0
100
AcDbLine
10
-80.08682756452697
20
80.546366682816227
30
0
11
-86.498140339649524
21
19.546800314118464
31
0
0
LINE
5
274
100
AcDbEntity
8
0
100
AcDbLine
10
-38.932196461828084
20
8.2752938170858865
30
0
11
-43.910531834133131
21
-15.145932681104835
31
0
0
LINE
5
275
100
AcDbEntity
8
0
100
AcDbLine
10
-55.819600183623905
20
-4.7993602058601521
30
0
11
-58.018832033169083
21
-15.145932634853541
31
0
0
CIRCLE
5
276
100
AcDbEntity
8
0
100
AcDbCircle
10
0
20
91.418448052850408
30
0
40
1.25
210
0
220
0
230
1
0
CIRCLE
5
277
100
AcDbEntity
8
0
100
AcDbCircle
10
-1.7499999998254234
20
88.168448053056153
30
0
40
1
210
0
220
0
230
1
0
CIRCLE
5
278
100
AcDbEntity
8
0
100
AcDbCircle
10
1.7500000001736493
20
88.168448052644692
30
0
40
0.99999999999999978
210
0
220
0
230
1
0
LWPOLYLINE
5
279
100
AcDbEntity
8
0
100
AcDbPolyline
90
60
70
1
43
0.0
10
-6.499999999999968
20
-14.524754266721569
10
-6.499999999999968
20
-17.524754266721576
10
-20
20
-17.524754266721487
10
-58.293624518899605
20
-9.3851931051014503
10
-85.099999999999994
20
-9.3851931051015214
10
-85.099999999999994
20
-6.3851931051014787
10
-86.599999999999994
20
-6.3851931051014787
10
-86.599999999999994
20
-16.385193105101479
10
-96.599999999999994
20
-16.385193105101479
10
-96.599999999999994
20
-6.3851931051014787
10
-98.100000000000009
20
-6.3851931051014787
10
-98.100000000000009
20
-9.3851931051015214
10
-105.99999997370742
20
-9.3851931051014859
10
-107.9999999737074
20
-7.385193105101493
10
-107.99999997368755
20
84.668448052850422
10
-105.99999997368755
20
86.668448052850408
10
-98.100000000000009
20
86.668448052850408
10
-98.100000000000009
20
83.668448052850408
10
-96.599999999999994
20
83.668448052850408
10
-96.599999999999994
20
93.668448052850408
10
-86.599999999999994
20
93.668448052850408
10
-86.599999999999994
20
83.668448052850408
10
-85.099999999999994
20
83.668448052850408
10
-85.099999999999994
20
86.668448052850408
10
-6.5
20
86.668448052850408
10
-6.5
20
83.668448052850408
10
-5
20
83.668448052850408
10
-5
20
93.668448052850408
10
5
20
93.668448052850408
10
5
20
83.668448052850408
10
6.5
20
83.668448052850408
10
6.5000000000000036
20
86.668448052850408
10
85.099999999999994
20
86.668448052850408
10
85.099999999999994
20
83.668448052850408
10
86.599999999999994
20
83.668448052850408
10
86.599999999999994
20
93.668448052850408
10
96.599999999999994
20
93.668448052850408
10
96.599999999999994
20
83.668448052850408
10
98.100000000000009
20
83.668448052850408
10
98.100000000000009
20
86.668448052850408
10
105.99999997368755
20
86.668448052850408
10
107.99999997368755
20
84.668448052850422
10
107.9999999737074
20
-7.3851931051015027
10
105.99999997370742
20
-9.3851931051015018
10
98.100000000000009
20
-9.3851931051015036
10
98.100000000000009
20
-6.3851931051014965
10
96.599999999999994
20
-6.3851931051014965
10
96.599999999999994
20
-16.385193105101497
10
86.599999999999994
20
-16.385193105101497
10
86.599999999999994
20
-6.3851931051014965
10
85.099999999999994
20
-6.3851931051014965
10
85.099999999999994
20
-9.3851931051015036
10
58.293624518899605
20
-9.385193105101461
10
20
20
-17.524754266721484
10
6.5000000000000391
20
-17.524754266721576
10
6.5000000000000391
20
-14.524754266721569
10
5.0000000000000355
20
-14.524754266721569
10
5.0000000000000355
20
-24.524754266721569
10
-4.9999999999999645
20
-24.524754266721569
10
-4.9999999999999645
20
-14.524754266721569
0
ENDSEC
0
SECTION
2
OBJECTS
0
DICTIONARY
5
C
100
AcDbDictionary
3
ACAD_GROUP
350
D
3
ACAD_MLINESTYLE
350
17
0
DICTIONARY
5
D
100
AcDbDictionary
0
DICTIONARY
5
1A
330
C
100
AcDbDictionary
0
DICTIONARY
5
17
100
AcDbDictionary
0
ENDSEC
0
EOF
