%FSLAX45Y45*%
G04 Gerber Fmt 4.5, Leading zero omitted, Abs format (unit mm)*
G04 Created by KiCad (PCBNEW (6.0.4-0)) date 2022-11-11 23:09:15*
%MOMM*%
%LPD*%
G01*
G04 APERTURE LIST*
%TA.AperFunction,Profile*%
%ADD10C,0.150000*%
%TD*%
%ADD11C,0.200000*%
%ADD12C,0.090000*%
%ADD13C,0.170180*%
%ADD14C,0.300000*%
%ADD15C,0.342900*%
G04 APERTURE END LIST*
D10*
X23355500Y-4989336D02*
X23355500Y-4514336D01*
X18306626Y-6337484D02*
G75*
G03*
X18317892Y-6330656I-4166J19584D01*
G01*
X24187519Y-4989331D02*
G75*
G03*
X24163266Y-5020399I11J-25009D01*
G01*
X16309990Y-15408656D02*
G75*
G03*
X16330781Y-15406471I0J100016D01*
G01*
X10885396Y-12360630D02*
G75*
G03*
X10895131Y-12365809I13895J14380D01*
G01*
X4799539Y-4489338D02*
G75*
G03*
X4751032Y-4527209I1J-50002D01*
G01*
X20860547Y-5722006D02*
X20158933Y-5490909D01*
X22805500Y-14594700D02*
X22738266Y-14325763D01*
X13560260Y-7227638D02*
G75*
G03*
X13581051Y-7129824I10390J48908D01*
G01*
X24949789Y-5018626D02*
G75*
G03*
X24879079Y-4989336I-70709J-70704D01*
G01*
X13578266Y-5258273D02*
X13637734Y-5020399D01*
X24222734Y-14325763D02*
G75*
G03*
X24198481Y-14294700I-24254J6063D01*
G01*
X5035500Y-15069700D02*
X5035500Y-14594700D01*
X14320500Y-7178731D02*
X14563129Y-7178731D01*
X13602519Y-15108656D02*
X13700981Y-15108656D01*
X13613481Y-15408662D02*
G75*
G03*
X13637734Y-15377593I-1J25002D01*
G01*
X4565234Y-14313637D02*
G75*
G03*
X4540981Y-14294700I-24254J-6063D01*
G01*
X23184460Y-6030176D02*
X24620500Y-6030176D01*
X7470797Y-11280888D02*
X8941143Y-11540150D01*
X13462445Y-7206848D02*
X12055278Y-6907745D01*
X3520500Y-5230757D02*
X3520500Y-14353279D01*
X21454211Y-11370924D02*
G75*
G03*
X21462496Y-11371797I6189J18974D01*
G01*
X5521461Y-15094701D02*
G75*
G03*
X5569968Y-15056827I-1J50001D01*
G01*
X3549789Y-14423989D02*
X3691211Y-14565411D01*
X23630500Y-15094700D02*
X23841461Y-15094700D01*
X15080740Y-7227639D02*
X15178555Y-7206848D01*
X16809788Y-6556524D02*
X16546614Y-6810716D01*
X23605500Y-14594700D02*
G75*
G03*
X23355500Y-14594700I-125000J0D01*
G01*
X19728596Y-11637963D02*
X19467541Y-11794284D01*
X14445500Y-15408656D02*
X14445500Y-15883656D01*
X9173458Y-11794285D02*
G75*
G03*
X9179575Y-11796688I10272J17165D01*
G01*
X5902734Y-14325763D02*
G75*
G03*
X5878481Y-14294700I-24254J6063D01*
G01*
X23206644Y-11503642D02*
G75*
G03*
X23221431Y-11510176I14786J13462D01*
G01*
X13725236Y-15127592D02*
G75*
G03*
X13700981Y-15108656I-24257J-6068D01*
G01*
X18727029Y-5842518D02*
G75*
G03*
X18715078Y-5849484I3491J-19722D01*
G01*
X14170500Y-4489336D02*
X13959539Y-4489336D01*
X23841461Y-4489336D02*
X23630500Y-4489336D01*
X14729970Y-4527209D02*
G75*
G03*
X14681461Y-4489336I-48510J-12131D01*
G01*
X5878481Y-5289342D02*
G75*
G03*
X5902734Y-5258273I-1J25002D01*
G01*
X13560259Y-7227639D02*
X13462445Y-7206848D01*
X13670500Y-10908656D02*
X13670500Y-9118865D01*
X5463756Y-11610176D02*
X4020500Y-11610176D01*
X5569970Y-4527209D02*
G75*
G03*
X5521461Y-4489336I-48510J-12131D01*
G01*
X4751032Y-4527209D02*
X4565234Y-5270399D01*
X24100019Y-14294699D02*
G75*
G03*
X24075766Y-14313637I1J-25001D01*
G01*
X13637738Y-5020400D02*
G75*
G03*
X13613481Y-4989336I-24259J6060D01*
G01*
X13725234Y-15127593D02*
X13911032Y-15870783D01*
X22951539Y-11223492D02*
G75*
G03*
X22934662Y-11217066I-14789J-13468D01*
G01*
X5285500Y-4514336D02*
X5285500Y-4989336D01*
X12691125Y-12731864D02*
X12401910Y-12686056D01*
X10612485Y-12101262D02*
X9179575Y-11796688D01*
X11772632Y-6643199D02*
X10334374Y-6337487D01*
X4418271Y-5258274D02*
G75*
G03*
X4442519Y-5289336I24249J-6066D01*
G01*
X24620500Y-11610176D02*
X23177244Y-11610176D01*
X14470500Y-4489340D02*
G75*
G03*
X14445500Y-4514336I0J-25000D01*
G01*
X11782367Y-6648378D02*
G75*
G03*
X11772632Y-6643199I-13897J-14382D01*
G01*
X5902734Y-14325763D02*
X5843266Y-14563637D01*
X15157764Y-7109033D02*
X15059949Y-7129824D01*
X5755769Y-5270398D02*
G75*
G03*
X5780019Y-5289336I24251J6058D01*
G01*
X14915766Y-5270399D02*
X14729968Y-4527209D01*
X5463756Y-11610175D02*
G75*
G03*
X5478544Y-11603642I4J19995D01*
G01*
X14445500Y-4514336D02*
X14445500Y-4989336D01*
X12331010Y-15408656D02*
X13613481Y-15408656D01*
X21443488Y-11472601D02*
G75*
G03*
X21451772Y-11473475I6192J19001D01*
G01*
X5569968Y-15056827D02*
X5755766Y-14313637D01*
X6312727Y-5672546D02*
X5464280Y-6028618D01*
X4751033Y-15056826D02*
G75*
G03*
X4799539Y-15094700I48507J12127D01*
G01*
X13613481Y-4989336D02*
X5867519Y-4989336D01*
X14970500Y-9118392D02*
G75*
G03*
X14926989Y-8703483I-2000000J2D01*
G01*
X10389287Y-6246925D02*
X11821476Y-6551347D01*
X3520501Y-14353279D02*
G75*
G03*
X3549789Y-14423989I99999J-1D01*
G01*
X19430458Y-11699932D02*
X19693055Y-11542687D01*
X22328273Y-5672546D02*
X23176720Y-6028618D01*
X5035500Y-4989336D02*
X5035500Y-4514336D01*
X15934231Y-12633095D02*
G75*
G03*
X15949875Y-12731864I7819J-49385D01*
G01*
X17745870Y-12365810D02*
G75*
G03*
X17755606Y-12360631I-4170J19580D01*
G01*
X8489467Y-5593757D02*
X7791349Y-5823702D01*
X21179870Y-11281567D02*
G75*
G03*
X21170203Y-11280888I-6190J-18983D01*
G01*
X20857999Y-5824596D02*
X22318443Y-5671097D01*
X22762519Y-14294700D02*
X22860981Y-14294700D01*
X9913971Y-5842520D02*
X8499196Y-5593057D01*
X5310500Y-4489340D02*
G75*
G03*
X5285500Y-4514336I0J-25000D01*
G01*
X5035504Y-4514336D02*
G75*
G03*
X5010500Y-4489336I-25004J-4D01*
G01*
X24879079Y-4989336D02*
X24187519Y-4989336D01*
X19735398Y-11635425D02*
G75*
G03*
X19728596Y-11637963I3473J-19695D01*
G01*
X7772105Y-5722898D02*
G75*
G03*
X7780453Y-5722006I2095J19888D01*
G01*
X14681461Y-4489336D02*
X14470500Y-4489336D01*
X23841461Y-15094701D02*
G75*
G03*
X23889968Y-15056827I-1J50001D01*
G01*
X5780019Y-14294699D02*
G75*
G03*
X5755766Y-14313637I1J-25001D01*
G01*
X14195500Y-4989336D02*
X14195500Y-4514336D01*
X5285500Y-14594700D02*
X5285500Y-15069700D01*
X23162456Y-11603642D02*
X22911670Y-11328232D01*
X5729330Y-11328232D02*
X5478544Y-11603642D01*
X5867519Y-14594700D02*
X8480627Y-14594700D01*
X11831213Y-6556523D02*
G75*
G03*
X11821476Y-6551347I-13893J-14387D01*
G01*
X24620500Y-5930176D02*
X23204593Y-5930176D01*
X14970500Y-9118392D02*
X14970500Y-10908656D01*
X5285500Y-14594700D02*
G75*
G03*
X5035500Y-14594700I-125000J0D01*
G01*
X13670500Y-10908656D02*
X13670500Y-14388656D01*
X16819525Y-6551348D02*
G75*
G03*
X16809788Y-6556524I4166J-19582D01*
G01*
X15038481Y-5289332D02*
G75*
G03*
X15062734Y-5258273I9J24992D01*
G01*
X5456540Y-6030176D02*
G75*
G03*
X5464280Y-6028618I0J20006D01*
G01*
X18673371Y-5750442D02*
G75*
G03*
X18661419Y-5757403I3469J-19698D01*
G01*
X14445500Y-15408656D02*
G75*
G03*
X14195500Y-15408656I-125000J0D01*
G01*
X20149204Y-5490209D02*
X18673370Y-5750438D01*
X3549791Y-5160048D02*
G75*
G03*
X3520500Y-5230757I70709J-70712D01*
G01*
X25091209Y-14423988D02*
G75*
G03*
X25120500Y-14353279I-70699J70708D01*
G01*
X22860981Y-5289336D02*
X22762519Y-5289336D01*
X16330781Y-15406471D02*
X20139582Y-14596885D01*
X4453481Y-14594701D02*
G75*
G03*
X4477734Y-14563637I-1J25001D01*
G01*
X20158934Y-5490909D02*
G75*
G03*
X20149204Y-5490209I-6254J-18972D01*
G01*
X7186789Y-11370923D02*
X7461130Y-11281567D01*
X10885394Y-12360631D02*
X10622221Y-12106440D01*
X13690500Y-14408656D02*
X14950500Y-14408656D01*
X7189228Y-11473475D02*
G75*
G03*
X7197512Y-11472601I2092J19885D01*
G01*
X24187519Y-14594700D02*
X24879079Y-14594700D01*
X22860981Y-5289342D02*
G75*
G03*
X22885234Y-5270399I-11J25012D01*
G01*
X10671064Y-12014588D02*
G75*
G03*
X10661329Y-12009410I-13894J-14382D01*
G01*
X5010500Y-4489336D02*
X4799539Y-4489336D01*
X11831212Y-6556524D02*
X12094385Y-6810716D01*
X5878481Y-5289336D02*
X5780019Y-5289336D01*
X22762519Y-14294699D02*
G75*
G03*
X22738266Y-14325763I1J-25001D01*
G01*
X21462496Y-11371797D02*
X22934662Y-11217066D01*
X13911032Y-4527209D02*
X13725234Y-5270399D01*
X16221890Y-12587506D02*
X17697025Y-12273957D01*
X7470797Y-11280890D02*
G75*
G03*
X7461130Y-11281567I-3477J-19700D01*
G01*
X3691210Y-14565411D02*
G75*
G03*
X3761921Y-14594700I70710J70711D01*
G01*
X5035500Y-4989336D02*
G75*
G03*
X5285500Y-4989336I125000J0D01*
G01*
X10323109Y-6330656D02*
G75*
G03*
X10334374Y-6337487I15422J12726D01*
G01*
X7189228Y-11473475D02*
X5746209Y-11321808D01*
X24198481Y-5289336D02*
X24100019Y-5289336D01*
X10622223Y-12106437D02*
G75*
G03*
X10612485Y-12101262I-13893J-14393D01*
G01*
X14612041Y-7218359D02*
G75*
G03*
X14563129Y-7178731I-48911J-10371D01*
G01*
X8947945Y-11542687D02*
X9210543Y-11699932D01*
X9979581Y-5757403D02*
X10378021Y-6240094D01*
X20860547Y-5722006D02*
G75*
G03*
X20868895Y-5722900I6253J18956D01*
G01*
X10323108Y-6330656D02*
X9925922Y-5849484D01*
X21172643Y-11384384D02*
G75*
G03*
X21162976Y-11383705I-6193J-19006D01*
G01*
X25120500Y-14353279D02*
X25120500Y-5230757D01*
X23605500Y-15069700D02*
G75*
G03*
X23630500Y-15094700I25000J0D01*
G01*
X14078696Y-7178726D02*
G75*
G03*
X14029789Y-7218336I4J-50004D01*
G01*
X20151534Y-5593756D02*
G75*
G03*
X20141804Y-5593057I-6254J-18964D01*
G01*
X24163266Y-14563637D02*
G75*
G03*
X24187519Y-14594700I24254J-6063D01*
G01*
X10671065Y-12014588D02*
X10934238Y-12268779D01*
X5706338Y-11217065D02*
G75*
G03*
X5689460Y-11223491I-2088J-19895D01*
G01*
X4020500Y-11510184D02*
G75*
G03*
X4020500Y-11610176I0J-49996D01*
G01*
X15027519Y-4989331D02*
G75*
G03*
X15003266Y-5020399I11J-25009D01*
G01*
X22797726Y-5020397D02*
G75*
G03*
X22773481Y-4989336I-24247J6067D01*
G01*
X22911669Y-11328233D02*
G75*
G03*
X22894791Y-11321808I-14789J-13467D01*
G01*
X13714204Y-8703041D02*
G75*
G03*
X13670500Y-9118865I1956296J-415819D01*
G01*
X15038481Y-5289336D02*
X14940019Y-5289336D01*
X8501418Y-14596885D02*
G75*
G03*
X8480627Y-14594700I-20788J-97805D01*
G01*
X22738259Y-5258271D02*
G75*
G03*
X22762519Y-5289336I24261J-6059D01*
G01*
X17979672Y-12009410D02*
X19424341Y-11702336D01*
X22738266Y-5258273D02*
X22797734Y-5020399D01*
X10378018Y-6240097D02*
G75*
G03*
X10389287Y-6246925I15422J12737D01*
G01*
X23330500Y-15094700D02*
G75*
G03*
X23355500Y-15069700I0J25000D01*
G01*
X15062738Y-15139720D02*
G75*
G03*
X15038481Y-15108656I-24258J6061D01*
G01*
X16595458Y-6902567D02*
X16858632Y-6648376D01*
X13602519Y-15108660D02*
G75*
G03*
X13578266Y-15139719I1J-25000D01*
G01*
X12045541Y-6902567D02*
X11782368Y-6648376D01*
X5419569Y-11510176D02*
G75*
G03*
X5434356Y-11503642I2J19996D01*
G01*
X18661419Y-5757403D02*
X18262979Y-6240094D01*
X12401910Y-12686056D02*
X12400881Y-12685866D01*
X24163266Y-5020399D02*
X24222734Y-5258273D01*
X23196854Y-5928617D02*
G75*
G03*
X23204593Y-5930176I7736J18407D01*
G01*
X24198481Y-5289332D02*
G75*
G03*
X24222734Y-5258273I9J24992D01*
G01*
X8912404Y-11637963D02*
G75*
G03*
X8905603Y-11635425I-10274J-17157D01*
G01*
X15003266Y-5020399D02*
X15062734Y-5258273D01*
X22894791Y-11321808D02*
X21451772Y-11473475D01*
X14950500Y-14408650D02*
G75*
G03*
X14970500Y-14388656I10J19990D01*
G01*
X7468357Y-11384384D02*
X7197512Y-11472601D01*
X12094385Y-6810716D02*
G75*
G03*
X12104122Y-6815893I13895J14386D01*
G01*
X5780019Y-14294700D02*
X5878481Y-14294700D01*
X18251713Y-6246925D02*
X16819524Y-6551347D01*
X9210543Y-11699932D02*
G75*
G03*
X9216659Y-11702336I10277J17162D01*
G01*
X14195500Y-4989336D02*
G75*
G03*
X14445500Y-4989336I125000J0D01*
G01*
X22343325Y-5570413D02*
G75*
G03*
X22333494Y-5568965I-7745J-18477D01*
G01*
X3691211Y-5018625D02*
X3549789Y-5160047D01*
X24620500Y-11610184D02*
G75*
G03*
X24620500Y-11510176I0J50004D01*
G01*
X6307506Y-5568965D02*
X7772105Y-5722900D01*
X14320500Y-7178731D02*
X14078696Y-7178731D01*
X4540981Y-5289340D02*
G75*
G03*
X4565234Y-5270399I-1J25000D01*
G01*
X24075769Y-5270398D02*
G75*
G03*
X24100019Y-5289336I24251J6058D01*
G01*
X24620500Y-6030184D02*
G75*
G03*
X24620500Y-5930176I0J50004D01*
G01*
X9979581Y-5757402D02*
G75*
G03*
X9967630Y-5750438I-15421J-12728D01*
G01*
X5843266Y-5020399D02*
X5902734Y-5258273D01*
X14940019Y-15108656D02*
X15038481Y-15108656D01*
X22333494Y-5568965D02*
X20868895Y-5722900D01*
X12104122Y-6815893D02*
X13483236Y-7109033D01*
X8499196Y-5593058D02*
G75*
G03*
X8489467Y-5593757I-3476J-19692D01*
G01*
X23889963Y-4527211D02*
G75*
G03*
X23841461Y-4489336I-48503J-12120D01*
G01*
X16868368Y-6643199D02*
X18306626Y-6337487D01*
X16868368Y-6643196D02*
G75*
G03*
X16858632Y-6648376I4152J-19544D01*
G01*
X23630500Y-4489330D02*
G75*
G03*
X23605500Y-4514336I10J-25010D01*
G01*
X25091211Y-5160047D02*
X24949789Y-5018625D01*
X4477734Y-14563637D02*
X4418266Y-14325763D01*
X17706762Y-12268779D02*
X17969935Y-12014588D01*
X14729968Y-15870783D02*
X14915766Y-15127593D01*
X23605500Y-14594700D02*
X23605500Y-15069700D01*
X16536878Y-6815893D02*
G75*
G03*
X16546614Y-6810716I-4158J19563D01*
G01*
X23221431Y-11510176D02*
X24620500Y-11510176D01*
X12045542Y-6902566D02*
G75*
G03*
X12055278Y-6907745I13898J14387D01*
G01*
X14470500Y-15908656D02*
X14681461Y-15908656D01*
X23605500Y-4514336D02*
X23605500Y-4989336D01*
X19461425Y-11796688D02*
X18028516Y-12101262D01*
X4799539Y-15094700D02*
X5010500Y-15094700D01*
X22773481Y-4989336D02*
X15027519Y-4989336D01*
X23330500Y-4489336D02*
X23119539Y-4489336D01*
X9925924Y-5849482D02*
G75*
G03*
X9913971Y-5842520I-15424J-12738D01*
G01*
X18317892Y-6330656D02*
X18715078Y-5849484D01*
X19699857Y-11540150D02*
X21170203Y-11280888D01*
X15027519Y-15408656D02*
X16309990Y-15408656D01*
X5434356Y-11503642D02*
X5689460Y-11223491D01*
X18018779Y-12106440D02*
X17755606Y-12360631D01*
X10943975Y-12273957D02*
X12419110Y-12587506D01*
X8491796Y-5490209D02*
X9967630Y-5750438D01*
X16585723Y-6907747D02*
G75*
G03*
X16595458Y-6902567I-4153J19547D01*
G01*
X24879079Y-14594699D02*
G75*
G03*
X24949789Y-14565411I1J99999D01*
G01*
X4442519Y-14294699D02*
G75*
G03*
X4418266Y-14325763I1J-25001D01*
G01*
X12691125Y-12731864D02*
G75*
G03*
X12706769Y-12633095I7825J49384D01*
G01*
X13637734Y-15377593D02*
X13578266Y-15139719D01*
X4020500Y-5930184D02*
G75*
G03*
X4020500Y-6030176I0J-49996D01*
G01*
X18727029Y-5842520D02*
X20141804Y-5593057D01*
X13959539Y-4489338D02*
G75*
G03*
X13911032Y-4527209I1J-50002D01*
G01*
X22885234Y-14313637D02*
X23071032Y-15056827D01*
X4540981Y-5289336D02*
X4442519Y-5289336D01*
X12400881Y-12685866D02*
X10895131Y-12365809D01*
X7783001Y-5824596D02*
X6322557Y-5671097D01*
X14170500Y-15908660D02*
G75*
G03*
X14195500Y-15883656I0J25000D01*
G01*
X21162976Y-11383705D02*
X19735398Y-11635425D01*
X24222734Y-14325763D02*
X24163266Y-14563637D01*
X4020500Y-5930176D02*
X5436407Y-5930176D01*
X5010500Y-15094700D02*
G75*
G03*
X5035500Y-15069700I0J25000D01*
G01*
X15059949Y-7129823D02*
G75*
G03*
X15080740Y-7227639I10401J-48907D01*
G01*
X23889968Y-15056827D02*
X24075766Y-14313637D01*
X3761921Y-4989338D02*
G75*
G03*
X3691211Y-5018625I-1J-100002D01*
G01*
X15003271Y-15377594D02*
G75*
G03*
X15027519Y-15408656I24249J-6066D01*
G01*
X12419110Y-12587506D02*
X12420140Y-12587697D01*
X16220860Y-12587697D02*
X16221890Y-12587506D01*
X13700981Y-5289340D02*
G75*
G03*
X13725234Y-5270399I-1J25000D01*
G01*
X17697026Y-12273959D02*
G75*
G03*
X17706762Y-12268779I-4176J19589D01*
G01*
X14445504Y-15883656D02*
G75*
G03*
X14470500Y-15908656I24996J-4D01*
G01*
X20849651Y-5823702D02*
G75*
G03*
X20857999Y-5824596I6259J19012D01*
G01*
X22951540Y-11223491D02*
X23206644Y-11503642D01*
X19699858Y-11540151D02*
G75*
G03*
X19693055Y-11542687I3462J-19679D01*
G01*
X5706338Y-11217066D02*
X7178504Y-11371797D01*
X14915769Y-5270398D02*
G75*
G03*
X14940019Y-5289336I24251J6058D01*
G01*
X5746209Y-11321807D02*
G75*
G03*
X5729330Y-11328232I-2089J-19893D01*
G01*
X22885234Y-14313637D02*
G75*
G03*
X22860981Y-14294700I-24254J-6063D01*
G01*
X8947944Y-11542687D02*
G75*
G03*
X8941143Y-11540150I-10274J-17153D01*
G01*
X16240119Y-12685866D02*
X16239090Y-12686056D01*
X16536878Y-6815893D02*
X15157764Y-7109033D01*
X22328273Y-5672545D02*
G75*
G03*
X22318443Y-5671097I-7743J-18475D01*
G01*
X8905603Y-11635425D02*
X7478024Y-11383705D01*
X23119539Y-4489328D02*
G75*
G03*
X23071032Y-4527209I11J-50012D01*
G01*
X5755766Y-5270399D02*
X5569968Y-4527209D01*
X23355500Y-4989336D02*
G75*
G03*
X23605500Y-4989336I125000J0D01*
G01*
X13670504Y-14388656D02*
G75*
G03*
X13690500Y-14408656I19996J-4D01*
G01*
X23176721Y-6028618D02*
G75*
G03*
X23184460Y-6030176I7739J18438D01*
G01*
X4418266Y-5258273D02*
X4477734Y-5020399D01*
X23355494Y-4514336D02*
G75*
G03*
X23330500Y-4489336I-24994J6D01*
G01*
X23119539Y-15094700D02*
X23330500Y-15094700D01*
X8501418Y-14596885D02*
X12310219Y-15406471D01*
X14681461Y-15908658D02*
G75*
G03*
X14729968Y-15870783I9J49988D01*
G01*
X18251713Y-6246926D02*
G75*
G03*
X18262979Y-6240094I-4173J19586D01*
G01*
X14195500Y-15883656D02*
X14195500Y-15408656D01*
X21443488Y-11472601D02*
X21172643Y-11384384D01*
X25120498Y-5230757D02*
G75*
G03*
X25091211Y-5160047I-99988J7D01*
G01*
X13911036Y-15870782D02*
G75*
G03*
X13959539Y-15908656I48504J12122D01*
G01*
X14612041Y-7218359D02*
X14926989Y-8703483D01*
X5867519Y-4989340D02*
G75*
G03*
X5843266Y-5020399I1J-25000D01*
G01*
X5285500Y-15069700D02*
G75*
G03*
X5310500Y-15094700I25000J0D01*
G01*
X23196854Y-5928618D02*
X22343324Y-5570413D01*
X15062734Y-15139719D02*
X15003266Y-15377593D01*
X4477739Y-5020400D02*
G75*
G03*
X4453481Y-4989336I-24259J6060D01*
G01*
X14970500Y-14388656D02*
X14970500Y-10908656D01*
X17979672Y-12009412D02*
G75*
G03*
X17969935Y-12014588I4148J-19548D01*
G01*
X23162457Y-11603641D02*
G75*
G03*
X23177244Y-11610176I14783J13451D01*
G01*
X9173459Y-11794284D02*
X8912404Y-11637963D01*
X16239090Y-12686056D02*
X15949875Y-12731864D01*
X24949789Y-14565411D02*
X25091211Y-14423989D01*
X9216659Y-11702336D02*
X10661329Y-12009410D01*
X23071033Y-15056826D02*
G75*
G03*
X23119539Y-15094700I48507J12127D01*
G01*
X20160373Y-14594700D02*
X22805500Y-14594700D01*
X8491796Y-5490211D02*
G75*
G03*
X8482067Y-5490909I-3476J-19699D01*
G01*
X13959539Y-15908656D02*
X14170500Y-15908656D01*
X4020500Y-11510176D02*
X5419569Y-11510176D01*
X15934231Y-12633095D02*
X16220860Y-12587697D01*
X7478024Y-11383705D02*
G75*
G03*
X7468357Y-11384384I-3474J-19695D01*
G01*
X24075766Y-5270399D02*
X23889968Y-4527209D01*
X5843266Y-14563637D02*
G75*
G03*
X5867519Y-14594700I24254J-6063D01*
G01*
X19461425Y-11796689D02*
G75*
G03*
X19467541Y-11794284I-4185J19619D01*
G01*
X14940019Y-15108649D02*
G75*
G03*
X14915766Y-15127593I11J-25011D01*
G01*
X6307506Y-5568963D02*
G75*
G03*
X6297676Y-5570413I-2086J-19898D01*
G01*
X12310219Y-15406471D02*
G75*
G03*
X12331010Y-15408656I20791J97821D01*
G01*
X13700981Y-5289336D02*
X13602519Y-5289336D01*
X3761921Y-14594700D02*
X4453481Y-14594700D01*
X12420140Y-12587697D02*
X12706769Y-12633095D01*
X15178555Y-7206848D02*
X16585722Y-6907745D01*
X14029789Y-7218336D02*
X13714205Y-8703041D01*
X5436407Y-5930174D02*
G75*
G03*
X5444146Y-5928618I3J20005D01*
G01*
X23071032Y-4527209D02*
X22885234Y-5270399D01*
X7780453Y-5722006D02*
X8482067Y-5490909D01*
X5521461Y-4489336D02*
X5310500Y-4489336D01*
X7783001Y-5824597D02*
G75*
G03*
X7791349Y-5823702I2089J19897D01*
G01*
X19424341Y-11702336D02*
G75*
G03*
X19430458Y-11699932I-4151J19546D01*
G01*
X20151534Y-5593757D02*
X20849651Y-5823702D01*
X4565234Y-14313637D02*
X4751032Y-15056827D01*
X4453481Y-4989336D02*
X3761921Y-4989336D01*
X13578271Y-5258274D02*
G75*
G03*
X13602519Y-5289336I24249J-6066D01*
G01*
X5456540Y-6030176D02*
X4020500Y-6030176D01*
X14195504Y-4514336D02*
G75*
G03*
X14170500Y-4489336I-25004J-4D01*
G01*
X18028515Y-12101261D02*
G75*
G03*
X18018779Y-12106440I4185J-19609D01*
G01*
X7178504Y-11371799D02*
G75*
G03*
X7186789Y-11370923I2086J19889D01*
G01*
X13483236Y-7109033D02*
X13581051Y-7129824D01*
X24100019Y-14294700D02*
X24198481Y-14294700D01*
X20160373Y-14594699D02*
G75*
G03*
X20139582Y-14596885I7J-100031D01*
G01*
X10934237Y-12268781D02*
G75*
G03*
X10943975Y-12273957I13893J14391D01*
G01*
X5444146Y-5928618D02*
X6297676Y-5570413D01*
X23355500Y-15069700D02*
X23355500Y-14594700D01*
X6322557Y-5671096D02*
G75*
G03*
X6312727Y-5672546I-2087J-19894D01*
G01*
X4442519Y-14294700D02*
X4540981Y-14294700D01*
X17745870Y-12365809D02*
X16240119Y-12685866D01*
X21179870Y-11281567D02*
X21454211Y-11370923D01*
X5310500Y-15094700D02*
X5521461Y-15094700D01*
D11*
D12*
X11667203Y-5158341D02*
X11757203Y-5248341D01*
X11757203Y-5158341D02*
X11667203Y-5248341D01*
X11967203Y-5158341D02*
X12057203Y-5248341D01*
X12057203Y-5158341D02*
X11967203Y-5248341D01*
D13*
X4245756Y-7070259D02*
G75*
G03*
X4245756Y-7070259I-85090J0D01*
G01*
X4245756Y-10470259D02*
G75*
G03*
X4245756Y-10470259I-85090J0D01*
G01*
X4245756Y-8770259D02*
G75*
G03*
X4245756Y-8770259I-85090J0D01*
G01*
X4696156Y-13420959D02*
G75*
G03*
X4696156Y-13420959I-85090J0D01*
G01*
X5345756Y-7070259D02*
G75*
G03*
X5345756Y-7070259I-85090J0D01*
G01*
X5345756Y-10470259D02*
G75*
G03*
X5345756Y-10470259I-85090J0D01*
G01*
X5345756Y-8770259D02*
G75*
G03*
X5345756Y-8770259I-85090J0D01*
G01*
X5796156Y-13420959D02*
G75*
G03*
X5796156Y-13420959I-85090J0D01*
G01*
X6115150Y-10104814D02*
G75*
G03*
X6115150Y-10104814I-85090J0D01*
G01*
X6292849Y-8414127D02*
G75*
G03*
X6292849Y-8414127I-85090J0D01*
G01*
X6470548Y-6723440D02*
G75*
G03*
X6470548Y-6723440I-85090J0D01*
G01*
X7209124Y-10219795D02*
G75*
G03*
X7209124Y-10219795I-85090J0D01*
G01*
X7386823Y-8529108D02*
G75*
G03*
X7386823Y-8529108I-85090J0D01*
G01*
X7564522Y-6838421D02*
G75*
G03*
X7564522Y-6838421I-85090J0D01*
G01*
X7983202Y-9995350D02*
G75*
G03*
X7983202Y-9995350I-85090J0D01*
G01*
X8278404Y-8321176D02*
G75*
G03*
X8278404Y-8321176I-85090J0D01*
G01*
X8573606Y-6647003D02*
G75*
G03*
X8573606Y-6647003I-85090J0D01*
G01*
X9066490Y-10186363D02*
G75*
G03*
X9066490Y-10186363I-85090J0D01*
G01*
X9100655Y-13506868D02*
G75*
G03*
X9100655Y-13506868I-85090J0D01*
G01*
X9361693Y-8512189D02*
G75*
G03*
X9361693Y-8512189I-85090J0D01*
G01*
X9656895Y-6838016D02*
G75*
G03*
X9656895Y-6838016I-85090J0D01*
G01*
X9692955Y-10721667D02*
G75*
G03*
X9692955Y-10721667I-85090J0D01*
G01*
X10046404Y-9058817D02*
G75*
G03*
X10046404Y-9058817I-85090J0D01*
G01*
X10176618Y-13735571D02*
G75*
G03*
X10176618Y-13735571I-85090J0D01*
G01*
X10399855Y-7395966D02*
G75*
G03*
X10399855Y-7395966I-85090J0D01*
G01*
X10768918Y-10950370D02*
G75*
G03*
X10768918Y-10950370I-85090J0D01*
G01*
X11122367Y-9287519D02*
G75*
G03*
X11122367Y-9287519I-85090J0D01*
G01*
X11301755Y-13974367D02*
G75*
G03*
X11301755Y-13974367I-85090J0D01*
G01*
X11411755Y-11291867D02*
G75*
G03*
X11411755Y-11291867I-85090J0D01*
G01*
X11475817Y-7624669D02*
G75*
G03*
X11475817Y-7624669I-85090J0D01*
G01*
X11765204Y-9629016D02*
G75*
G03*
X11765204Y-9629016I-85090J0D01*
G01*
X12118655Y-7966166D02*
G75*
G03*
X12118655Y-7966166I-85090J0D01*
G01*
X12377717Y-14203070D02*
G75*
G03*
X12377717Y-14203070I-85090J0D01*
G01*
X12487718Y-11520570D02*
G75*
G03*
X12487718Y-11520570I-85090J0D01*
G01*
X12841167Y-9857719D02*
G75*
G03*
X12841167Y-9857719I-85090J0D01*
G01*
X13194617Y-8194869D02*
G75*
G03*
X13194617Y-8194869I-85090J0D01*
G01*
X15617042Y-8195356D02*
G75*
G03*
X15617042Y-8195356I-85090J0D01*
G01*
X15970492Y-9858207D02*
G75*
G03*
X15970492Y-9858207I-85090J0D01*
G01*
X16323942Y-11521058D02*
G75*
G03*
X16323942Y-11521058I-85090J0D01*
G01*
X16433742Y-14203458D02*
G75*
G03*
X16433742Y-14203458I-85090J0D01*
G01*
X16693005Y-7966654D02*
G75*
G03*
X16693005Y-7966654I-85090J0D01*
G01*
X17046455Y-9629504D02*
G75*
G03*
X17046455Y-9629504I-85090J0D01*
G01*
X17336342Y-7625556D02*
G75*
G03*
X17336342Y-7625556I-85090J0D01*
G01*
X17399904Y-11292355D02*
G75*
G03*
X17399904Y-11292355I-85090J0D01*
G01*
X17509705Y-13974756D02*
G75*
G03*
X17509705Y-13974756I-85090J0D01*
G01*
X17689792Y-9288407D02*
G75*
G03*
X17689792Y-9288407I-85090J0D01*
G01*
X18043242Y-10951258D02*
G75*
G03*
X18043242Y-10951258I-85090J0D01*
G01*
X18412305Y-7396853D02*
G75*
G03*
X18412305Y-7396853I-85090J0D01*
G01*
X18635142Y-13735658D02*
G75*
G03*
X18635142Y-13735658I-85090J0D01*
G01*
X18765755Y-9059705D02*
G75*
G03*
X18765755Y-9059705I-85090J0D01*
G01*
X19119205Y-10722556D02*
G75*
G03*
X19119205Y-10722556I-85090J0D01*
G01*
X19154726Y-6838968D02*
G75*
G03*
X19154726Y-6838968I-85090J0D01*
G01*
X19449927Y-8513141D02*
G75*
G03*
X19449927Y-8513141I-85090J0D01*
G01*
X19711104Y-13506955D02*
G75*
G03*
X19711104Y-13506955I-85090J0D01*
G01*
X19745129Y-10187315D02*
G75*
G03*
X19745129Y-10187315I-85090J0D01*
G01*
X20238014Y-6647955D02*
G75*
G03*
X20238014Y-6647955I-85090J0D01*
G01*
X20533216Y-8322128D02*
G75*
G03*
X20533216Y-8322128I-85090J0D01*
G01*
X20828418Y-9996302D02*
G75*
G03*
X20828418Y-9996302I-85090J0D01*
G01*
X21247401Y-6839308D02*
G75*
G03*
X21247401Y-6839308I-85090J0D01*
G01*
X21425099Y-8529995D02*
G75*
G03*
X21425099Y-8529995I-85090J0D01*
G01*
X21602797Y-10220682D02*
G75*
G03*
X21602797Y-10220682I-85090J0D01*
G01*
X22341375Y-6724326D02*
G75*
G03*
X22341375Y-6724326I-85090J0D01*
G01*
X22519073Y-8415014D02*
G75*
G03*
X22519073Y-8415014I-85090J0D01*
G01*
X22696771Y-10105700D02*
G75*
G03*
X22696771Y-10105700I-85090J0D01*
G01*
X23015656Y-13421159D02*
G75*
G03*
X23015656Y-13421159I-85090J0D01*
G01*
X23465856Y-10471059D02*
G75*
G03*
X23465856Y-10471059I-85090J0D01*
G01*
X23465856Y-7071059D02*
G75*
G03*
X23465856Y-7071059I-85090J0D01*
G01*
X23465856Y-8771059D02*
G75*
G03*
X23465856Y-8771059I-85090J0D01*
G01*
X24115656Y-13421159D02*
G75*
G03*
X24115656Y-13421159I-85090J0D01*
G01*
X24565856Y-10471059D02*
G75*
G03*
X24565856Y-10471059I-85090J0D01*
G01*
X24565856Y-7071059D02*
G75*
G03*
X24565856Y-7071059I-85090J0D01*
G01*
X24565856Y-8771059D02*
G75*
G03*
X24565856Y-8771059I-85090J0D01*
G01*
D14*
X4710666Y-6325259D02*
X4710666Y-6625259D01*
X4560666Y-6475259D02*
X4860666Y-6475259D01*
X4710666Y-9725259D02*
X4710666Y-10025259D01*
X4560666Y-9875259D02*
X4860666Y-9875259D01*
X4710666Y-8025259D02*
X4710666Y-8325259D01*
X4560666Y-8175259D02*
X4860666Y-8175259D01*
X5161066Y-12675959D02*
X5161066Y-12975959D01*
X5011066Y-12825959D02*
X5311066Y-12825959D01*
X5210666Y-6545259D02*
X5210666Y-6845259D01*
X5060666Y-6695259D02*
X5360666Y-6695259D01*
X5210666Y-9945259D02*
X5210666Y-10245259D01*
X5060666Y-10095259D02*
X5360666Y-10095259D01*
X5210666Y-8245259D02*
X5210666Y-8545259D01*
X5060666Y-8395259D02*
X5360666Y-8395259D01*
X5661066Y-12895959D02*
X5661066Y-13195959D01*
X5511066Y-13045959D02*
X5811066Y-13045959D01*
X6639242Y-9420564D02*
X6639242Y-9720564D01*
X6489242Y-9570564D02*
X6789242Y-9570564D01*
X6816941Y-7729877D02*
X6816941Y-8029877D01*
X6666941Y-7879877D02*
X6966941Y-7879877D01*
X6994639Y-6039190D02*
X6994639Y-6339190D01*
X6844639Y-6189190D02*
X7144639Y-6189190D01*
X7113506Y-9691623D02*
X7113506Y-9991623D01*
X6963506Y-9841623D02*
X7263506Y-9841623D01*
X7291206Y-8000936D02*
X7291206Y-8300936D01*
X7141206Y-8150936D02*
X7441206Y-8150936D01*
X7468904Y-6310249D02*
X7468904Y-6610249D01*
X7318904Y-6460249D02*
X7618904Y-6460249D01*
X8543077Y-9354896D02*
X8543077Y-9654896D01*
X8393077Y-9504896D02*
X8693077Y-9504896D01*
X8838279Y-7680722D02*
X8838279Y-7980722D01*
X8688279Y-7830722D02*
X8988279Y-7830722D01*
X8997278Y-9658378D02*
X8997278Y-9958378D01*
X8847278Y-9808378D02*
X9147278Y-9808378D01*
X9133481Y-6006548D02*
X9133481Y-6306548D01*
X8983481Y-6156548D02*
X9283481Y-6156548D01*
X9292480Y-7984204D02*
X9292480Y-8284204D01*
X9142480Y-8134204D02*
X9442480Y-8134204D01*
X9587682Y-6310030D02*
X9587682Y-6610030D01*
X9437682Y-6460030D02*
X9737682Y-6460030D01*
X9677254Y-12889222D02*
X9677254Y-13189222D01*
X9527254Y-13039222D02*
X9827254Y-13039222D01*
X10120587Y-13208370D02*
X10120587Y-13508370D01*
X9970587Y-13358370D02*
X10270587Y-13358370D01*
X10269554Y-10104021D02*
X10269554Y-10404021D01*
X10119554Y-10254021D02*
X10419554Y-10254021D01*
X10623003Y-8441170D02*
X10623003Y-8741170D01*
X10473003Y-8591170D02*
X10773003Y-8591170D01*
X10712887Y-10423169D02*
X10712887Y-10723169D01*
X10562887Y-10573169D02*
X10862887Y-10573169D01*
X10976454Y-6778320D02*
X10976454Y-7078320D01*
X10826454Y-6928320D02*
X11126454Y-6928320D01*
X11066336Y-8760318D02*
X11066336Y-9060318D01*
X10916336Y-8910318D02*
X11216336Y-8910318D01*
X11419787Y-7097468D02*
X11419787Y-7397468D01*
X11269787Y-7247468D02*
X11569787Y-7247468D01*
X11878354Y-13356721D02*
X11878354Y-13656721D01*
X11728354Y-13506721D02*
X12028354Y-13506721D01*
X11988354Y-10674221D02*
X11988354Y-10974221D01*
X11838354Y-10824221D02*
X12138354Y-10824221D01*
X12321687Y-13675869D02*
X12321687Y-13975869D01*
X12171687Y-13825869D02*
X12471687Y-13825869D01*
X12341803Y-9011370D02*
X12341803Y-9311370D01*
X12191803Y-9161370D02*
X12491803Y-9161370D01*
X12431687Y-10993369D02*
X12431687Y-11293369D01*
X12281687Y-11143369D02*
X12581687Y-11143369D01*
X12695254Y-7348519D02*
X12695254Y-7648519D01*
X12545254Y-7498519D02*
X12845254Y-7498519D01*
X12785136Y-9330518D02*
X12785136Y-9630518D01*
X12635136Y-9480518D02*
X12935136Y-9480518D01*
X13138587Y-7667668D02*
X13138587Y-7967668D01*
X12988587Y-7817668D02*
X13288587Y-7817668D01*
X15946226Y-7349007D02*
X15946226Y-7649007D01*
X15796226Y-7499007D02*
X16096226Y-7499007D01*
X16299676Y-9011858D02*
X16299676Y-9311858D01*
X16149676Y-9161858D02*
X16449676Y-9161858D01*
X16481040Y-7460244D02*
X16481040Y-7760244D01*
X16331040Y-7610244D02*
X16631040Y-7610244D01*
X16653126Y-10674709D02*
X16653126Y-10974709D01*
X16503126Y-10824709D02*
X16803126Y-10824709D01*
X16762926Y-13357109D02*
X16762926Y-13657109D01*
X16612926Y-13507109D02*
X16912926Y-13507109D01*
X16834490Y-9123095D02*
X16834490Y-9423095D01*
X16684490Y-9273095D02*
X16984490Y-9273095D01*
X17187940Y-10785946D02*
X17187940Y-11085946D01*
X17037940Y-10935946D02*
X17337940Y-10935946D01*
X17297740Y-13468346D02*
X17297740Y-13768346D01*
X17147740Y-13618346D02*
X17447740Y-13618346D01*
X17665526Y-6779207D02*
X17665526Y-7079207D01*
X17515526Y-6929207D02*
X17815526Y-6929207D01*
X18018976Y-8442058D02*
X18018976Y-8742058D01*
X17868976Y-8592058D02*
X18168976Y-8592058D01*
X18200340Y-6890444D02*
X18200340Y-7190444D01*
X18050340Y-7040444D02*
X18350340Y-7040444D01*
X18372426Y-10104909D02*
X18372426Y-10404909D01*
X18222426Y-10254909D02*
X18522426Y-10254909D01*
X18553790Y-8553295D02*
X18553790Y-8853295D01*
X18403790Y-8703295D02*
X18703790Y-8703295D01*
X18907240Y-10216146D02*
X18907240Y-10516146D01*
X18757240Y-10366146D02*
X19057240Y-10366146D01*
X18964326Y-12889309D02*
X18964326Y-13189309D01*
X18814326Y-13039309D02*
X19114326Y-13039309D01*
X19499140Y-13000546D02*
X19499140Y-13300546D01*
X19349140Y-13150546D02*
X19649140Y-13150546D01*
X19507959Y-6007501D02*
X19507959Y-6307501D01*
X19357959Y-6157501D02*
X19657959Y-6157501D01*
X19803161Y-7681674D02*
X19803161Y-7981674D01*
X19653161Y-7831674D02*
X19953161Y-7831674D01*
X20038566Y-6137334D02*
X20038566Y-6437334D01*
X19888566Y-6287334D02*
X20188566Y-6287334D01*
X20098363Y-9355848D02*
X20098363Y-9655848D01*
X19948363Y-9505848D02*
X20248363Y-9505848D01*
X20333767Y-7811507D02*
X20333767Y-8111507D01*
X20183767Y-7961507D02*
X20483767Y-7961507D01*
X20628969Y-9485681D02*
X20628969Y-9785681D01*
X20478969Y-9635681D02*
X20778969Y-9635681D01*
X21647103Y-6040076D02*
X21647103Y-6340076D01*
X21497103Y-6190076D02*
X21797103Y-6190076D01*
X21824802Y-7730764D02*
X21824802Y-8030764D01*
X21674802Y-7880764D02*
X21974802Y-7880764D01*
X22002500Y-9421450D02*
X22002500Y-9721450D01*
X21852500Y-9571450D02*
X22152500Y-9571450D01*
X22167360Y-6206607D02*
X22167360Y-6506607D01*
X22017360Y-6356607D02*
X22317360Y-6356607D01*
X22345059Y-7897295D02*
X22345059Y-8197295D01*
X22195059Y-8047295D02*
X22495059Y-8047295D01*
X22522757Y-9587981D02*
X22522757Y-9887981D01*
X22372757Y-9737981D02*
X22672757Y-9737981D01*
X23480566Y-12676159D02*
X23480566Y-12976159D01*
X23330566Y-12826159D02*
X23630566Y-12826159D01*
X23930766Y-9726059D02*
X23930766Y-10026059D01*
X23780766Y-9876059D02*
X24080766Y-9876059D01*
X23930766Y-6326059D02*
X23930766Y-6626059D01*
X23780766Y-6476059D02*
X24080766Y-6476059D01*
X23930766Y-8026059D02*
X23930766Y-8326059D01*
X23780766Y-8176059D02*
X24080766Y-8176059D01*
X23980566Y-12896159D02*
X23980566Y-13196159D01*
X23830566Y-13046159D02*
X24130566Y-13046159D01*
X24430766Y-9946059D02*
X24430766Y-10246059D01*
X24280766Y-10096059D02*
X24580766Y-10096059D01*
X24430766Y-6546059D02*
X24430766Y-6846059D01*
X24280766Y-6696059D02*
X24580766Y-6696059D01*
X24430766Y-8246059D02*
X24430766Y-8546059D01*
X24280766Y-8396059D02*
X24580766Y-8396059D01*
D15*
X4831901Y-7191493D02*
X4831901Y-6949024D01*
X4589431Y-6949024D01*
X4589431Y-7191493D01*
X4831901Y-7191493D01*
X4831901Y-10591493D02*
X4831901Y-10349024D01*
X4589431Y-10349024D01*
X4589431Y-10591493D01*
X4831901Y-10591493D01*
X4831901Y-8891493D02*
X4831901Y-8649024D01*
X4589432Y-8649024D01*
X4589432Y-8891493D01*
X4831901Y-8891493D01*
X5282300Y-13542193D02*
X5282300Y-13299724D01*
X5039831Y-13299724D01*
X5039831Y-13542193D01*
X5282300Y-13542193D01*
X6698282Y-10283539D02*
X6698282Y-10041070D01*
X6455813Y-10041070D01*
X6455813Y-10283539D01*
X6698282Y-10283539D01*
X6875981Y-8592852D02*
X6875981Y-8350383D01*
X6633512Y-8350383D01*
X6633512Y-8592852D01*
X6875981Y-8592852D01*
X7053679Y-6902165D02*
X7053679Y-6659696D01*
X6811210Y-6659696D01*
X6811210Y-6902165D01*
X7053679Y-6902165D01*
X8560991Y-10212091D02*
X8560991Y-9969622D01*
X8318521Y-9969622D01*
X8318521Y-10212091D01*
X8560991Y-10212091D01*
X8856193Y-8537917D02*
X8856193Y-8295448D01*
X8613724Y-8295448D01*
X8613724Y-8537917D01*
X8856193Y-8537917D01*
X9151395Y-6863744D02*
X9151395Y-6621274D01*
X8908926Y-6621274D01*
X8908926Y-6863744D01*
X9151395Y-6863744D01*
X9674781Y-13742454D02*
X9674781Y-13499985D01*
X9432312Y-13499985D01*
X9432312Y-13742454D01*
X9674781Y-13742454D01*
X10267081Y-10957253D02*
X10267081Y-10714784D01*
X10024612Y-10714784D01*
X10024612Y-10957253D01*
X10267081Y-10957253D01*
X10620530Y-9294403D02*
X10620530Y-9051933D01*
X10378061Y-9051933D01*
X10378061Y-9294403D01*
X10620530Y-9294403D01*
X10973981Y-7631552D02*
X10973981Y-7389083D01*
X10731512Y-7389083D01*
X10731512Y-7631552D01*
X10973981Y-7631552D01*
X11875881Y-14209953D02*
X11875881Y-13967484D01*
X11633412Y-13967484D01*
X11633412Y-14209953D01*
X11875881Y-14209953D01*
X11985881Y-11527453D02*
X11985881Y-11284984D01*
X11743412Y-11284984D01*
X11743412Y-11527453D01*
X11985881Y-11527453D01*
X12339330Y-9864602D02*
X12339330Y-9622133D01*
X12096861Y-9622133D01*
X12096861Y-9864602D01*
X12339330Y-9864602D01*
X12692781Y-8201752D02*
X12692781Y-7959283D01*
X12450312Y-7959283D01*
X12450312Y-8201752D01*
X12692781Y-8201752D01*
X16191168Y-8202240D02*
X16191168Y-7959770D01*
X15948699Y-7959770D01*
X15948699Y-8202240D01*
X16191168Y-8202240D01*
X16544618Y-9865090D02*
X16544618Y-9622621D01*
X16302149Y-9622621D01*
X16302149Y-9865090D01*
X16544618Y-9865090D01*
X16898068Y-11527941D02*
X16898068Y-11285472D01*
X16655599Y-11285472D01*
X16655599Y-11527941D01*
X16898068Y-11527941D01*
X17007868Y-14210342D02*
X17007868Y-13967872D01*
X16765399Y-13967872D01*
X16765399Y-14210342D01*
X17007868Y-14210342D01*
X17910468Y-7632439D02*
X17910468Y-7389970D01*
X17667999Y-7389970D01*
X17667999Y-7632439D01*
X17910468Y-7632439D01*
X18263918Y-9295291D02*
X18263918Y-9052821D01*
X18021449Y-9052821D01*
X18021449Y-9295291D01*
X18263918Y-9295291D01*
X18617368Y-10958142D02*
X18617368Y-10715672D01*
X18374899Y-10715672D01*
X18374899Y-10958142D01*
X18617368Y-10958142D01*
X19209268Y-13742541D02*
X19209268Y-13500072D01*
X18966799Y-13500072D01*
X18966799Y-13742541D01*
X19209268Y-13742541D01*
X19732515Y-6864696D02*
X19732515Y-6622227D01*
X19490045Y-6622227D01*
X19490045Y-6864696D01*
X19732515Y-6864696D01*
X20027716Y-8538869D02*
X20027716Y-8296400D01*
X19785247Y-8296400D01*
X19785247Y-8538869D01*
X20027716Y-8538869D01*
X20322918Y-10213043D02*
X20322918Y-9970574D01*
X20080449Y-9970574D01*
X20080449Y-10213043D01*
X20322918Y-10213043D01*
X21830532Y-6903052D02*
X21830532Y-6660582D01*
X21588063Y-6660582D01*
X21588063Y-6903052D01*
X21830532Y-6903052D01*
X22008231Y-8593739D02*
X22008231Y-8351270D01*
X21765762Y-8351270D01*
X21765762Y-8593739D01*
X22008231Y-8593739D01*
X22185929Y-10284426D02*
X22185929Y-10041956D01*
X21943459Y-10041956D01*
X21943459Y-10284426D01*
X22185929Y-10284426D01*
X23601801Y-13542393D02*
X23601801Y-13299924D01*
X23359331Y-13299924D01*
X23359331Y-13542393D01*
X23601801Y-13542393D01*
X24052000Y-10592294D02*
X24052000Y-10349824D01*
X23809531Y-10349824D01*
X23809531Y-10592294D01*
X24052000Y-10592294D01*
X24052001Y-7192293D02*
X24052001Y-6949824D01*
X23809531Y-6949824D01*
X23809531Y-7192293D01*
X24052001Y-7192293D01*
X24052001Y-8892293D02*
X24052001Y-8649824D01*
X23809531Y-8649824D01*
X23809531Y-8892293D01*
X24052001Y-8892293D01*
D11*
X3770619Y-16226632D02*
X3770619Y-16026632D01*
X3818238Y-16026632D01*
X3846809Y-16036156D01*
X3865857Y-16055204D01*
X3875381Y-16074251D01*
X3884905Y-16112346D01*
X3884905Y-16140918D01*
X3875381Y-16179013D01*
X3865857Y-16198061D01*
X3846809Y-16217108D01*
X3818238Y-16226632D01*
X3770619Y-16226632D01*
X3970619Y-16226632D02*
X3970619Y-16093299D01*
X3970619Y-16131394D02*
X3980143Y-16112346D01*
X3989667Y-16102823D01*
X4008714Y-16093299D01*
X4027762Y-16093299D01*
X4094428Y-16226632D02*
X4094428Y-16093299D01*
X4094428Y-16026632D02*
X4084905Y-16036156D01*
X4094428Y-16045680D01*
X4103952Y-16036156D01*
X4094428Y-16026632D01*
X4094428Y-16045680D01*
X4218238Y-16226632D02*
X4199190Y-16217108D01*
X4189667Y-16198061D01*
X4189667Y-16026632D01*
X4323000Y-16226632D02*
X4303952Y-16217108D01*
X4294429Y-16198061D01*
X4294429Y-16026632D01*
X4551571Y-16226632D02*
X4551571Y-16026632D01*
X4618238Y-16169489D01*
X4684905Y-16026632D01*
X4684905Y-16226632D01*
X4865857Y-16226632D02*
X4865857Y-16121870D01*
X4856333Y-16102823D01*
X4837286Y-16093299D01*
X4799190Y-16093299D01*
X4780143Y-16102823D01*
X4865857Y-16217108D02*
X4846810Y-16226632D01*
X4799190Y-16226632D01*
X4780143Y-16217108D01*
X4770619Y-16198061D01*
X4770619Y-16179013D01*
X4780143Y-16159966D01*
X4799190Y-16150442D01*
X4846810Y-16150442D01*
X4865857Y-16140918D01*
X4961095Y-16093299D02*
X4961095Y-16293299D01*
X4961095Y-16102823D02*
X4980143Y-16093299D01*
X5018238Y-16093299D01*
X5037286Y-16102823D01*
X5046810Y-16112346D01*
X5056333Y-16131394D01*
X5056333Y-16188537D01*
X5046810Y-16207585D01*
X5037286Y-16217108D01*
X5018238Y-16226632D01*
X4980143Y-16226632D01*
X4961095Y-16217108D01*
X5142048Y-16207585D02*
X5151571Y-16217108D01*
X5142048Y-16226632D01*
X5132524Y-16217108D01*
X5142048Y-16207585D01*
X5142048Y-16226632D01*
X5142048Y-16102823D02*
X5151571Y-16112346D01*
X5142048Y-16121870D01*
X5132524Y-16112346D01*
X5142048Y-16102823D01*
X5142048Y-16121870D01*
D12*
X3423000Y-16511156D02*
X3513000Y-16601156D01*
X3513000Y-16511156D02*
X3423000Y-16601156D01*
D11*
X3808714Y-16446632D02*
X3827762Y-16446632D01*
X3846809Y-16456156D01*
X3856333Y-16465680D01*
X3865857Y-16484727D01*
X3875381Y-16522823D01*
X3875381Y-16570442D01*
X3865857Y-16608537D01*
X3856333Y-16627585D01*
X3846809Y-16637108D01*
X3827762Y-16646632D01*
X3808714Y-16646632D01*
X3789667Y-16637108D01*
X3780143Y-16627585D01*
X3770619Y-16608537D01*
X3761095Y-16570442D01*
X3761095Y-16522823D01*
X3770619Y-16484727D01*
X3780143Y-16465680D01*
X3789667Y-16456156D01*
X3808714Y-16446632D01*
X3961095Y-16627585D02*
X3970619Y-16637108D01*
X3961095Y-16646632D01*
X3951571Y-16637108D01*
X3961095Y-16627585D01*
X3961095Y-16646632D01*
X4065857Y-16646632D02*
X4103952Y-16646632D01*
X4123000Y-16637108D01*
X4132524Y-16627585D01*
X4151571Y-16599013D01*
X4161095Y-16560918D01*
X4161095Y-16484727D01*
X4151571Y-16465680D01*
X4142048Y-16456156D01*
X4123000Y-16446632D01*
X4084905Y-16446632D01*
X4065857Y-16456156D01*
X4056333Y-16465680D01*
X4046809Y-16484727D01*
X4046809Y-16532346D01*
X4056333Y-16551394D01*
X4065857Y-16560918D01*
X4084905Y-16570442D01*
X4123000Y-16570442D01*
X4142048Y-16560918D01*
X4151571Y-16551394D01*
X4161095Y-16532346D01*
X4284905Y-16446632D02*
X4303952Y-16446632D01*
X4323000Y-16456156D01*
X4332524Y-16465680D01*
X4342048Y-16484727D01*
X4351571Y-16522823D01*
X4351571Y-16570442D01*
X4342048Y-16608537D01*
X4332524Y-16627585D01*
X4323000Y-16637108D01*
X4303952Y-16646632D01*
X4284905Y-16646632D01*
X4265857Y-16637108D01*
X4256333Y-16627585D01*
X4246810Y-16608537D01*
X4237286Y-16570442D01*
X4237286Y-16522823D01*
X4246810Y-16484727D01*
X4256333Y-16465680D01*
X4265857Y-16456156D01*
X4284905Y-16446632D01*
X4475381Y-16446632D02*
X4494429Y-16446632D01*
X4513476Y-16456156D01*
X4523000Y-16465680D01*
X4532524Y-16484727D01*
X4542048Y-16522823D01*
X4542048Y-16570442D01*
X4532524Y-16608537D01*
X4523000Y-16627585D01*
X4513476Y-16637108D01*
X4494429Y-16646632D01*
X4475381Y-16646632D01*
X4456333Y-16637108D01*
X4446810Y-16627585D01*
X4437286Y-16608537D01*
X4427762Y-16570442D01*
X4427762Y-16522823D01*
X4437286Y-16484727D01*
X4446810Y-16465680D01*
X4456333Y-16456156D01*
X4475381Y-16446632D01*
X4627762Y-16646632D02*
X4627762Y-16513299D01*
X4627762Y-16532346D02*
X4637286Y-16522823D01*
X4656333Y-16513299D01*
X4684905Y-16513299D01*
X4703952Y-16522823D01*
X4713476Y-16541870D01*
X4713476Y-16646632D01*
X4713476Y-16541870D02*
X4723000Y-16522823D01*
X4742048Y-16513299D01*
X4770619Y-16513299D01*
X4789667Y-16522823D01*
X4799190Y-16541870D01*
X4799190Y-16646632D01*
X4894429Y-16646632D02*
X4894429Y-16513299D01*
X4894429Y-16532346D02*
X4903952Y-16522823D01*
X4923000Y-16513299D01*
X4951571Y-16513299D01*
X4970619Y-16522823D01*
X4980143Y-16541870D01*
X4980143Y-16646632D01*
X4980143Y-16541870D02*
X4989667Y-16522823D01*
X5008714Y-16513299D01*
X5037286Y-16513299D01*
X5056333Y-16522823D01*
X5065857Y-16541870D01*
X5065857Y-16646632D01*
X5456333Y-16437108D02*
X5284905Y-16694251D01*
X5713476Y-16446632D02*
X5732524Y-16446632D01*
X5751571Y-16456156D01*
X5761095Y-16465680D01*
X5770619Y-16484727D01*
X5780143Y-16522823D01*
X5780143Y-16570442D01*
X5770619Y-16608537D01*
X5761095Y-16627585D01*
X5751571Y-16637108D01*
X5732524Y-16646632D01*
X5713476Y-16646632D01*
X5694428Y-16637108D01*
X5684905Y-16627585D01*
X5675381Y-16608537D01*
X5665857Y-16570442D01*
X5665857Y-16522823D01*
X5675381Y-16484727D01*
X5684905Y-16465680D01*
X5694428Y-16456156D01*
X5713476Y-16446632D01*
X5865857Y-16627585D02*
X5875381Y-16637108D01*
X5865857Y-16646632D01*
X5856333Y-16637108D01*
X5865857Y-16627585D01*
X5865857Y-16646632D01*
X5999190Y-16446632D02*
X6018238Y-16446632D01*
X6037286Y-16456156D01*
X6046809Y-16465680D01*
X6056333Y-16484727D01*
X6065857Y-16522823D01*
X6065857Y-16570442D01*
X6056333Y-16608537D01*
X6046809Y-16627585D01*
X6037286Y-16637108D01*
X6018238Y-16646632D01*
X5999190Y-16646632D01*
X5980143Y-16637108D01*
X5970619Y-16627585D01*
X5961095Y-16608537D01*
X5951571Y-16570442D01*
X5951571Y-16522823D01*
X5961095Y-16484727D01*
X5970619Y-16465680D01*
X5980143Y-16456156D01*
X5999190Y-16446632D01*
X6132524Y-16446632D02*
X6256333Y-16446632D01*
X6189667Y-16522823D01*
X6218238Y-16522823D01*
X6237286Y-16532346D01*
X6246809Y-16541870D01*
X6256333Y-16560918D01*
X6256333Y-16608537D01*
X6246809Y-16627585D01*
X6237286Y-16637108D01*
X6218238Y-16646632D01*
X6161095Y-16646632D01*
X6142048Y-16637108D01*
X6132524Y-16627585D01*
X6437286Y-16446632D02*
X6342048Y-16446632D01*
X6332524Y-16541870D01*
X6342048Y-16532346D01*
X6361095Y-16522823D01*
X6408714Y-16522823D01*
X6427762Y-16532346D01*
X6437286Y-16541870D01*
X6446809Y-16560918D01*
X6446809Y-16608537D01*
X6437286Y-16627585D01*
X6427762Y-16637108D01*
X6408714Y-16646632D01*
X6361095Y-16646632D01*
X6342048Y-16637108D01*
X6332524Y-16627585D01*
X6618238Y-16513299D02*
X6618238Y-16646632D01*
X6570619Y-16437108D02*
X6523000Y-16579966D01*
X6646809Y-16579966D01*
X6713476Y-16446632D02*
X6713476Y-16484727D01*
X6789667Y-16446632D02*
X6789667Y-16484727D01*
X7084905Y-16722823D02*
X7075381Y-16713299D01*
X7056333Y-16684727D01*
X7046809Y-16665680D01*
X7037286Y-16637108D01*
X7027762Y-16589489D01*
X7027762Y-16551394D01*
X7037286Y-16503775D01*
X7046809Y-16475204D01*
X7056333Y-16456156D01*
X7075381Y-16427585D01*
X7084905Y-16418061D01*
X7151571Y-16465680D02*
X7161095Y-16456156D01*
X7180143Y-16446632D01*
X7227762Y-16446632D01*
X7246809Y-16456156D01*
X7256333Y-16465680D01*
X7265857Y-16484727D01*
X7265857Y-16503775D01*
X7256333Y-16532346D01*
X7142048Y-16646632D01*
X7265857Y-16646632D01*
X7503952Y-16646632D02*
X7503952Y-16446632D01*
X7589667Y-16646632D02*
X7589667Y-16541870D01*
X7580143Y-16522823D01*
X7561095Y-16513299D01*
X7532524Y-16513299D01*
X7513476Y-16522823D01*
X7503952Y-16532346D01*
X7713476Y-16646632D02*
X7694428Y-16637108D01*
X7684905Y-16627585D01*
X7675381Y-16608537D01*
X7675381Y-16551394D01*
X7684905Y-16532346D01*
X7694428Y-16522823D01*
X7713476Y-16513299D01*
X7742048Y-16513299D01*
X7761095Y-16522823D01*
X7770619Y-16532346D01*
X7780143Y-16551394D01*
X7780143Y-16608537D01*
X7770619Y-16627585D01*
X7761095Y-16637108D01*
X7742048Y-16646632D01*
X7713476Y-16646632D01*
X7894428Y-16646632D02*
X7875381Y-16637108D01*
X7865857Y-16618061D01*
X7865857Y-16446632D01*
X8046809Y-16637108D02*
X8027762Y-16646632D01*
X7989667Y-16646632D01*
X7970619Y-16637108D01*
X7961095Y-16618061D01*
X7961095Y-16541870D01*
X7970619Y-16522823D01*
X7989667Y-16513299D01*
X8027762Y-16513299D01*
X8046809Y-16522823D01*
X8056333Y-16541870D01*
X8056333Y-16560918D01*
X7961095Y-16579966D01*
X8132524Y-16637108D02*
X8151571Y-16646632D01*
X8189667Y-16646632D01*
X8208714Y-16637108D01*
X8218238Y-16618061D01*
X8218238Y-16608537D01*
X8208714Y-16589489D01*
X8189667Y-16579966D01*
X8161095Y-16579966D01*
X8142048Y-16570442D01*
X8132524Y-16551394D01*
X8132524Y-16541870D01*
X8142048Y-16522823D01*
X8161095Y-16513299D01*
X8189667Y-16513299D01*
X8208714Y-16522823D01*
X8284905Y-16722823D02*
X8294428Y-16713299D01*
X8313476Y-16684727D01*
X8323000Y-16665680D01*
X8332524Y-16637108D01*
X8342048Y-16589489D01*
X8342048Y-16551394D01*
X8332524Y-16503775D01*
X8323000Y-16475204D01*
X8313476Y-16456156D01*
X8294428Y-16427585D01*
X8284905Y-16418061D01*
X8646810Y-16722823D02*
X8637286Y-16713299D01*
X8618238Y-16684727D01*
X8608714Y-16665680D01*
X8599190Y-16637108D01*
X8589667Y-16589489D01*
X8589667Y-16551394D01*
X8599190Y-16503775D01*
X8608714Y-16475204D01*
X8618238Y-16456156D01*
X8637286Y-16427585D01*
X8646810Y-16418061D01*
X8723000Y-16513299D02*
X8723000Y-16646632D01*
X8723000Y-16532346D02*
X8732524Y-16522823D01*
X8751571Y-16513299D01*
X8780143Y-16513299D01*
X8799190Y-16522823D01*
X8808714Y-16541870D01*
X8808714Y-16646632D01*
X8932524Y-16646632D02*
X8913476Y-16637108D01*
X8903952Y-16627585D01*
X8894429Y-16608537D01*
X8894429Y-16551394D01*
X8903952Y-16532346D01*
X8913476Y-16522823D01*
X8932524Y-16513299D01*
X8961095Y-16513299D01*
X8980143Y-16522823D01*
X8989667Y-16532346D01*
X8999190Y-16551394D01*
X8999190Y-16608537D01*
X8989667Y-16627585D01*
X8980143Y-16637108D01*
X8961095Y-16646632D01*
X8932524Y-16646632D01*
X9056333Y-16513299D02*
X9132524Y-16513299D01*
X9084905Y-16446632D02*
X9084905Y-16618061D01*
X9094429Y-16637108D01*
X9113476Y-16646632D01*
X9132524Y-16646632D01*
X9351571Y-16513299D02*
X9351571Y-16713299D01*
X9351571Y-16522823D02*
X9370619Y-16513299D01*
X9408714Y-16513299D01*
X9427762Y-16522823D01*
X9437286Y-16532346D01*
X9446810Y-16551394D01*
X9446810Y-16608537D01*
X9437286Y-16627585D01*
X9427762Y-16637108D01*
X9408714Y-16646632D01*
X9370619Y-16646632D01*
X9351571Y-16637108D01*
X9561095Y-16646632D02*
X9542048Y-16637108D01*
X9532524Y-16618061D01*
X9532524Y-16446632D01*
X9723000Y-16646632D02*
X9723000Y-16541870D01*
X9713476Y-16522823D01*
X9694429Y-16513299D01*
X9656333Y-16513299D01*
X9637286Y-16522823D01*
X9723000Y-16637108D02*
X9703952Y-16646632D01*
X9656333Y-16646632D01*
X9637286Y-16637108D01*
X9627762Y-16618061D01*
X9627762Y-16599013D01*
X9637286Y-16579966D01*
X9656333Y-16570442D01*
X9703952Y-16570442D01*
X9723000Y-16560918D01*
X9789667Y-16513299D02*
X9865857Y-16513299D01*
X9818238Y-16446632D02*
X9818238Y-16618061D01*
X9827762Y-16637108D01*
X9846810Y-16646632D01*
X9865857Y-16646632D01*
X10008714Y-16637108D02*
X9989667Y-16646632D01*
X9951571Y-16646632D01*
X9932524Y-16637108D01*
X9923000Y-16618061D01*
X9923000Y-16541870D01*
X9932524Y-16522823D01*
X9951571Y-16513299D01*
X9989667Y-16513299D01*
X10008714Y-16522823D01*
X10018238Y-16541870D01*
X10018238Y-16560918D01*
X9923000Y-16579966D01*
X10189667Y-16646632D02*
X10189667Y-16446632D01*
X10189667Y-16637108D02*
X10170619Y-16646632D01*
X10132524Y-16646632D01*
X10113476Y-16637108D01*
X10103952Y-16627585D01*
X10094429Y-16608537D01*
X10094429Y-16551394D01*
X10103952Y-16532346D01*
X10113476Y-16522823D01*
X10132524Y-16513299D01*
X10170619Y-16513299D01*
X10189667Y-16522823D01*
X10265857Y-16722823D02*
X10275381Y-16713299D01*
X10294429Y-16684727D01*
X10303952Y-16665680D01*
X10313476Y-16637108D01*
X10323000Y-16589489D01*
X10323000Y-16551394D01*
X10313476Y-16503775D01*
X10303952Y-16475204D01*
X10294429Y-16456156D01*
X10275381Y-16427585D01*
X10265857Y-16418061D01*
D13*
X3513000Y-16820156D02*
G75*
G03*
X3513000Y-16820156I-85090J0D01*
G01*
D11*
X3875381Y-16910632D02*
X3761095Y-16910632D01*
X3818238Y-16910632D02*
X3818238Y-16710632D01*
X3799190Y-16739204D01*
X3780143Y-16758251D01*
X3761095Y-16767775D01*
X3961095Y-16891585D02*
X3970619Y-16901108D01*
X3961095Y-16910632D01*
X3951571Y-16901108D01*
X3961095Y-16891585D01*
X3961095Y-16910632D01*
X4037286Y-16710632D02*
X4170619Y-16710632D01*
X4084905Y-16910632D01*
X4284905Y-16710632D02*
X4303952Y-16710632D01*
X4323000Y-16720156D01*
X4332524Y-16729680D01*
X4342048Y-16748727D01*
X4351571Y-16786823D01*
X4351571Y-16834442D01*
X4342048Y-16872537D01*
X4332524Y-16891585D01*
X4323000Y-16901108D01*
X4303952Y-16910632D01*
X4284905Y-16910632D01*
X4265857Y-16901108D01*
X4256333Y-16891585D01*
X4246810Y-16872537D01*
X4237286Y-16834442D01*
X4237286Y-16786823D01*
X4246810Y-16748727D01*
X4256333Y-16729680D01*
X4265857Y-16720156D01*
X4284905Y-16710632D01*
X4427762Y-16729680D02*
X4437286Y-16720156D01*
X4456333Y-16710632D01*
X4503952Y-16710632D01*
X4523000Y-16720156D01*
X4532524Y-16729680D01*
X4542048Y-16748727D01*
X4542048Y-16767775D01*
X4532524Y-16796347D01*
X4418238Y-16910632D01*
X4542048Y-16910632D01*
X4627762Y-16910632D02*
X4627762Y-16777299D01*
X4627762Y-16796347D02*
X4637286Y-16786823D01*
X4656333Y-16777299D01*
X4684905Y-16777299D01*
X4703952Y-16786823D01*
X4713476Y-16805870D01*
X4713476Y-16910632D01*
X4713476Y-16805870D02*
X4723000Y-16786823D01*
X4742048Y-16777299D01*
X4770619Y-16777299D01*
X4789667Y-16786823D01*
X4799190Y-16805870D01*
X4799190Y-16910632D01*
X4894429Y-16910632D02*
X4894429Y-16777299D01*
X4894429Y-16796347D02*
X4903952Y-16786823D01*
X4923000Y-16777299D01*
X4951571Y-16777299D01*
X4970619Y-16786823D01*
X4980143Y-16805870D01*
X4980143Y-16910632D01*
X4980143Y-16805870D02*
X4989667Y-16786823D01*
X5008714Y-16777299D01*
X5037286Y-16777299D01*
X5056333Y-16786823D01*
X5065857Y-16805870D01*
X5065857Y-16910632D01*
X5456333Y-16701108D02*
X5284905Y-16958251D01*
X5713476Y-16710632D02*
X5732524Y-16710632D01*
X5751571Y-16720156D01*
X5761095Y-16729680D01*
X5770619Y-16748727D01*
X5780143Y-16786823D01*
X5780143Y-16834442D01*
X5770619Y-16872537D01*
X5761095Y-16891585D01*
X5751571Y-16901108D01*
X5732524Y-16910632D01*
X5713476Y-16910632D01*
X5694428Y-16901108D01*
X5684905Y-16891585D01*
X5675381Y-16872537D01*
X5665857Y-16834442D01*
X5665857Y-16786823D01*
X5675381Y-16748727D01*
X5684905Y-16729680D01*
X5694428Y-16720156D01*
X5713476Y-16710632D01*
X5865857Y-16891585D02*
X5875381Y-16901108D01*
X5865857Y-16910632D01*
X5856333Y-16901108D01*
X5865857Y-16891585D01*
X5865857Y-16910632D01*
X5999190Y-16710632D02*
X6018238Y-16710632D01*
X6037286Y-16720156D01*
X6046809Y-16729680D01*
X6056333Y-16748727D01*
X6065857Y-16786823D01*
X6065857Y-16834442D01*
X6056333Y-16872537D01*
X6046809Y-16891585D01*
X6037286Y-16901108D01*
X6018238Y-16910632D01*
X5999190Y-16910632D01*
X5980143Y-16901108D01*
X5970619Y-16891585D01*
X5961095Y-16872537D01*
X5951571Y-16834442D01*
X5951571Y-16786823D01*
X5961095Y-16748727D01*
X5970619Y-16729680D01*
X5980143Y-16720156D01*
X5999190Y-16710632D01*
X6237286Y-16710632D02*
X6199190Y-16710632D01*
X6180143Y-16720156D01*
X6170619Y-16729680D01*
X6151571Y-16758251D01*
X6142048Y-16796347D01*
X6142048Y-16872537D01*
X6151571Y-16891585D01*
X6161095Y-16901108D01*
X6180143Y-16910632D01*
X6218238Y-16910632D01*
X6237286Y-16901108D01*
X6246809Y-16891585D01*
X6256333Y-16872537D01*
X6256333Y-16824918D01*
X6246809Y-16805870D01*
X6237286Y-16796347D01*
X6218238Y-16786823D01*
X6180143Y-16786823D01*
X6161095Y-16796347D01*
X6151571Y-16805870D01*
X6142048Y-16824918D01*
X6323000Y-16710632D02*
X6456333Y-16710632D01*
X6370619Y-16910632D01*
X6570619Y-16710632D02*
X6589667Y-16710632D01*
X6608714Y-16720156D01*
X6618238Y-16729680D01*
X6627762Y-16748727D01*
X6637286Y-16786823D01*
X6637286Y-16834442D01*
X6627762Y-16872537D01*
X6618238Y-16891585D01*
X6608714Y-16901108D01*
X6589667Y-16910632D01*
X6570619Y-16910632D01*
X6551571Y-16901108D01*
X6542048Y-16891585D01*
X6532524Y-16872537D01*
X6523000Y-16834442D01*
X6523000Y-16786823D01*
X6532524Y-16748727D01*
X6542048Y-16729680D01*
X6551571Y-16720156D01*
X6570619Y-16710632D01*
X6713476Y-16710632D02*
X6713476Y-16748727D01*
X6789667Y-16710632D02*
X6789667Y-16748727D01*
X7084905Y-16986823D02*
X7075381Y-16977299D01*
X7056333Y-16948728D01*
X7046809Y-16929680D01*
X7037286Y-16901108D01*
X7027762Y-16853489D01*
X7027762Y-16815394D01*
X7037286Y-16767775D01*
X7046809Y-16739204D01*
X7056333Y-16720156D01*
X7075381Y-16691585D01*
X7084905Y-16682061D01*
X7142048Y-16710632D02*
X7275381Y-16710632D01*
X7189667Y-16910632D01*
X7342048Y-16729680D02*
X7351571Y-16720156D01*
X7370619Y-16710632D01*
X7418238Y-16710632D01*
X7437286Y-16720156D01*
X7446809Y-16729680D01*
X7456333Y-16748727D01*
X7456333Y-16767775D01*
X7446809Y-16796347D01*
X7332524Y-16910632D01*
X7456333Y-16910632D01*
X7694428Y-16910632D02*
X7694428Y-16710632D01*
X7780143Y-16910632D02*
X7780143Y-16805870D01*
X7770619Y-16786823D01*
X7751571Y-16777299D01*
X7723000Y-16777299D01*
X7703952Y-16786823D01*
X7694428Y-16796347D01*
X7903952Y-16910632D02*
X7884905Y-16901108D01*
X7875381Y-16891585D01*
X7865857Y-16872537D01*
X7865857Y-16815394D01*
X7875381Y-16796347D01*
X7884905Y-16786823D01*
X7903952Y-16777299D01*
X7932524Y-16777299D01*
X7951571Y-16786823D01*
X7961095Y-16796347D01*
X7970619Y-16815394D01*
X7970619Y-16872537D01*
X7961095Y-16891585D01*
X7951571Y-16901108D01*
X7932524Y-16910632D01*
X7903952Y-16910632D01*
X8084905Y-16910632D02*
X8065857Y-16901108D01*
X8056333Y-16882061D01*
X8056333Y-16710632D01*
X8237286Y-16901108D02*
X8218238Y-16910632D01*
X8180143Y-16910632D01*
X8161095Y-16901108D01*
X8151571Y-16882061D01*
X8151571Y-16805870D01*
X8161095Y-16786823D01*
X8180143Y-16777299D01*
X8218238Y-16777299D01*
X8237286Y-16786823D01*
X8246809Y-16805870D01*
X8246809Y-16824918D01*
X8151571Y-16843966D01*
X8323000Y-16901108D02*
X8342048Y-16910632D01*
X8380143Y-16910632D01*
X8399190Y-16901108D01*
X8408714Y-16882061D01*
X8408714Y-16872537D01*
X8399190Y-16853489D01*
X8380143Y-16843966D01*
X8351571Y-16843966D01*
X8332524Y-16834442D01*
X8323000Y-16815394D01*
X8323000Y-16805870D01*
X8332524Y-16786823D01*
X8351571Y-16777299D01*
X8380143Y-16777299D01*
X8399190Y-16786823D01*
X8475381Y-16986823D02*
X8484905Y-16977299D01*
X8503952Y-16948728D01*
X8513476Y-16929680D01*
X8523000Y-16901108D01*
X8532524Y-16853489D01*
X8532524Y-16815394D01*
X8523000Y-16767775D01*
X8513476Y-16739204D01*
X8503952Y-16720156D01*
X8484905Y-16691585D01*
X8475381Y-16682061D01*
X8837286Y-16986823D02*
X8827762Y-16977299D01*
X8808714Y-16948728D01*
X8799190Y-16929680D01*
X8789667Y-16901108D01*
X8780143Y-16853489D01*
X8780143Y-16815394D01*
X8789667Y-16767775D01*
X8799190Y-16739204D01*
X8808714Y-16720156D01*
X8827762Y-16691585D01*
X8837286Y-16682061D01*
X8913476Y-16777299D02*
X8913476Y-16910632D01*
X8913476Y-16796347D02*
X8923000Y-16786823D01*
X8942048Y-16777299D01*
X8970619Y-16777299D01*
X8989667Y-16786823D01*
X8999190Y-16805870D01*
X8999190Y-16910632D01*
X9123000Y-16910632D02*
X9103952Y-16901108D01*
X9094429Y-16891585D01*
X9084905Y-16872537D01*
X9084905Y-16815394D01*
X9094429Y-16796347D01*
X9103952Y-16786823D01*
X9123000Y-16777299D01*
X9151571Y-16777299D01*
X9170619Y-16786823D01*
X9180143Y-16796347D01*
X9189667Y-16815394D01*
X9189667Y-16872537D01*
X9180143Y-16891585D01*
X9170619Y-16901108D01*
X9151571Y-16910632D01*
X9123000Y-16910632D01*
X9246810Y-16777299D02*
X9323000Y-16777299D01*
X9275381Y-16710632D02*
X9275381Y-16882061D01*
X9284905Y-16901108D01*
X9303952Y-16910632D01*
X9323000Y-16910632D01*
X9542048Y-16777299D02*
X9542048Y-16977299D01*
X9542048Y-16786823D02*
X9561095Y-16777299D01*
X9599190Y-16777299D01*
X9618238Y-16786823D01*
X9627762Y-16796347D01*
X9637286Y-16815394D01*
X9637286Y-16872537D01*
X9627762Y-16891585D01*
X9618238Y-16901108D01*
X9599190Y-16910632D01*
X9561095Y-16910632D01*
X9542048Y-16901108D01*
X9751571Y-16910632D02*
X9732524Y-16901108D01*
X9723000Y-16882061D01*
X9723000Y-16710632D01*
X9913476Y-16910632D02*
X9913476Y-16805870D01*
X9903952Y-16786823D01*
X9884905Y-16777299D01*
X9846810Y-16777299D01*
X9827762Y-16786823D01*
X9913476Y-16901108D02*
X9894429Y-16910632D01*
X9846810Y-16910632D01*
X9827762Y-16901108D01*
X9818238Y-16882061D01*
X9818238Y-16863013D01*
X9827762Y-16843966D01*
X9846810Y-16834442D01*
X9894429Y-16834442D01*
X9913476Y-16824918D01*
X9980143Y-16777299D02*
X10056333Y-16777299D01*
X10008714Y-16710632D02*
X10008714Y-16882061D01*
X10018238Y-16901108D01*
X10037286Y-16910632D01*
X10056333Y-16910632D01*
X10199190Y-16901108D02*
X10180143Y-16910632D01*
X10142048Y-16910632D01*
X10123000Y-16901108D01*
X10113476Y-16882061D01*
X10113476Y-16805870D01*
X10123000Y-16786823D01*
X10142048Y-16777299D01*
X10180143Y-16777299D01*
X10199190Y-16786823D01*
X10208714Y-16805870D01*
X10208714Y-16824918D01*
X10113476Y-16843966D01*
X10380143Y-16910632D02*
X10380143Y-16710632D01*
X10380143Y-16901108D02*
X10361095Y-16910632D01*
X10323000Y-16910632D01*
X10303952Y-16901108D01*
X10294429Y-16891585D01*
X10284905Y-16872537D01*
X10284905Y-16815394D01*
X10294429Y-16796347D01*
X10303952Y-16786823D01*
X10323000Y-16777299D01*
X10361095Y-16777299D01*
X10380143Y-16786823D01*
X10456333Y-16986823D02*
X10465857Y-16977299D01*
X10484905Y-16948728D01*
X10494429Y-16929680D01*
X10503952Y-16901108D01*
X10513476Y-16853489D01*
X10513476Y-16815394D01*
X10503952Y-16767775D01*
X10494429Y-16739204D01*
X10484905Y-16720156D01*
X10465857Y-16691585D01*
X10456333Y-16682061D01*
X3413000Y-17010336D02*
X3413000Y-17210336D01*
X3313000Y-17110336D02*
X3513000Y-17110336D01*
X3751571Y-17000812D02*
X3875381Y-17000812D01*
X3808714Y-17077003D01*
X3837286Y-17077003D01*
X3856333Y-17086527D01*
X3865857Y-17096050D01*
X3875381Y-17115098D01*
X3875381Y-17162717D01*
X3865857Y-17181765D01*
X3856333Y-17191288D01*
X3837286Y-17200812D01*
X3780143Y-17200812D01*
X3761095Y-17191288D01*
X3751571Y-17181765D01*
X3961095Y-17181765D02*
X3970619Y-17191288D01*
X3961095Y-17200812D01*
X3951571Y-17191288D01*
X3961095Y-17181765D01*
X3961095Y-17200812D01*
X4094428Y-17000812D02*
X4113476Y-17000812D01*
X4132524Y-17010336D01*
X4142048Y-17019860D01*
X4151571Y-17038908D01*
X4161095Y-17077003D01*
X4161095Y-17124622D01*
X4151571Y-17162717D01*
X4142048Y-17181765D01*
X4132524Y-17191288D01*
X4113476Y-17200812D01*
X4094428Y-17200812D01*
X4075381Y-17191288D01*
X4065857Y-17181765D01*
X4056333Y-17162717D01*
X4046809Y-17124622D01*
X4046809Y-17077003D01*
X4056333Y-17038908D01*
X4065857Y-17019860D01*
X4075381Y-17010336D01*
X4094428Y-17000812D01*
X4284905Y-17000812D02*
X4303952Y-17000812D01*
X4323000Y-17010336D01*
X4332524Y-17019860D01*
X4342048Y-17038908D01*
X4351571Y-17077003D01*
X4351571Y-17124622D01*
X4342048Y-17162717D01*
X4332524Y-17181765D01*
X4323000Y-17191288D01*
X4303952Y-17200812D01*
X4284905Y-17200812D01*
X4265857Y-17191288D01*
X4256333Y-17181765D01*
X4246810Y-17162717D01*
X4237286Y-17124622D01*
X4237286Y-17077003D01*
X4246810Y-17038908D01*
X4256333Y-17019860D01*
X4265857Y-17010336D01*
X4284905Y-17000812D01*
X4475381Y-17000812D02*
X4494429Y-17000812D01*
X4513476Y-17010336D01*
X4523000Y-17019860D01*
X4532524Y-17038908D01*
X4542048Y-17077003D01*
X4542048Y-17124622D01*
X4532524Y-17162717D01*
X4523000Y-17181765D01*
X4513476Y-17191288D01*
X4494429Y-17200812D01*
X4475381Y-17200812D01*
X4456333Y-17191288D01*
X4446810Y-17181765D01*
X4437286Y-17162717D01*
X4427762Y-17124622D01*
X4427762Y-17077003D01*
X4437286Y-17038908D01*
X4446810Y-17019860D01*
X4456333Y-17010336D01*
X4475381Y-17000812D01*
X4627762Y-17200812D02*
X4627762Y-17067479D01*
X4627762Y-17086527D02*
X4637286Y-17077003D01*
X4656333Y-17067479D01*
X4684905Y-17067479D01*
X4703952Y-17077003D01*
X4713476Y-17096050D01*
X4713476Y-17200812D01*
X4713476Y-17096050D02*
X4723000Y-17077003D01*
X4742048Y-17067479D01*
X4770619Y-17067479D01*
X4789667Y-17077003D01*
X4799190Y-17096050D01*
X4799190Y-17200812D01*
X4894429Y-17200812D02*
X4894429Y-17067479D01*
X4894429Y-17086527D02*
X4903952Y-17077003D01*
X4923000Y-17067479D01*
X4951571Y-17067479D01*
X4970619Y-17077003D01*
X4980143Y-17096050D01*
X4980143Y-17200812D01*
X4980143Y-17096050D02*
X4989667Y-17077003D01*
X5008714Y-17067479D01*
X5037286Y-17067479D01*
X5056333Y-17077003D01*
X5065857Y-17096050D01*
X5065857Y-17200812D01*
X5456333Y-16991288D02*
X5284905Y-17248431D01*
X5713476Y-17000812D02*
X5732524Y-17000812D01*
X5751571Y-17010336D01*
X5761095Y-17019860D01*
X5770619Y-17038908D01*
X5780143Y-17077003D01*
X5780143Y-17124622D01*
X5770619Y-17162717D01*
X5761095Y-17181765D01*
X5751571Y-17191288D01*
X5732524Y-17200812D01*
X5713476Y-17200812D01*
X5694428Y-17191288D01*
X5684905Y-17181765D01*
X5675381Y-17162717D01*
X5665857Y-17124622D01*
X5665857Y-17077003D01*
X5675381Y-17038908D01*
X5684905Y-17019860D01*
X5694428Y-17010336D01*
X5713476Y-17000812D01*
X5865857Y-17181765D02*
X5875381Y-17191288D01*
X5865857Y-17200812D01*
X5856333Y-17191288D01*
X5865857Y-17181765D01*
X5865857Y-17200812D01*
X6065857Y-17200812D02*
X5951571Y-17200812D01*
X6008714Y-17200812D02*
X6008714Y-17000812D01*
X5989667Y-17029384D01*
X5970619Y-17048431D01*
X5951571Y-17057955D01*
X6256333Y-17200812D02*
X6142048Y-17200812D01*
X6199190Y-17200812D02*
X6199190Y-17000812D01*
X6180143Y-17029384D01*
X6161095Y-17048431D01*
X6142048Y-17057955D01*
X6370619Y-17086527D02*
X6351571Y-17077003D01*
X6342048Y-17067479D01*
X6332524Y-17048431D01*
X6332524Y-17038908D01*
X6342048Y-17019860D01*
X6351571Y-17010336D01*
X6370619Y-17000812D01*
X6408714Y-17000812D01*
X6427762Y-17010336D01*
X6437286Y-17019860D01*
X6446809Y-17038908D01*
X6446809Y-17048431D01*
X6437286Y-17067479D01*
X6427762Y-17077003D01*
X6408714Y-17086527D01*
X6370619Y-17086527D01*
X6351571Y-17096050D01*
X6342048Y-17105574D01*
X6332524Y-17124622D01*
X6332524Y-17162717D01*
X6342048Y-17181765D01*
X6351571Y-17191288D01*
X6370619Y-17200812D01*
X6408714Y-17200812D01*
X6427762Y-17191288D01*
X6437286Y-17181765D01*
X6446809Y-17162717D01*
X6446809Y-17124622D01*
X6437286Y-17105574D01*
X6427762Y-17096050D01*
X6408714Y-17086527D01*
X6637286Y-17200812D02*
X6523000Y-17200812D01*
X6580143Y-17200812D02*
X6580143Y-17000812D01*
X6561095Y-17029384D01*
X6542048Y-17048431D01*
X6523000Y-17057955D01*
X6713476Y-17000812D02*
X6713476Y-17038908D01*
X6789667Y-17000812D02*
X6789667Y-17038908D01*
X7084905Y-17277003D02*
X7075381Y-17267479D01*
X7056333Y-17238908D01*
X7046809Y-17219860D01*
X7037286Y-17191288D01*
X7027762Y-17143669D01*
X7027762Y-17105574D01*
X7037286Y-17057955D01*
X7046809Y-17029384D01*
X7056333Y-17010336D01*
X7075381Y-16981765D01*
X7084905Y-16972241D01*
X7142048Y-17000812D02*
X7275381Y-17000812D01*
X7189667Y-17200812D01*
X7342048Y-17019860D02*
X7351571Y-17010336D01*
X7370619Y-17000812D01*
X7418238Y-17000812D01*
X7437286Y-17010336D01*
X7446809Y-17019860D01*
X7456333Y-17038908D01*
X7456333Y-17057955D01*
X7446809Y-17086527D01*
X7332524Y-17200812D01*
X7456333Y-17200812D01*
X7694428Y-17200812D02*
X7694428Y-17000812D01*
X7780143Y-17200812D02*
X7780143Y-17096050D01*
X7770619Y-17077003D01*
X7751571Y-17067479D01*
X7723000Y-17067479D01*
X7703952Y-17077003D01*
X7694428Y-17086527D01*
X7903952Y-17200812D02*
X7884905Y-17191288D01*
X7875381Y-17181765D01*
X7865857Y-17162717D01*
X7865857Y-17105574D01*
X7875381Y-17086527D01*
X7884905Y-17077003D01*
X7903952Y-17067479D01*
X7932524Y-17067479D01*
X7951571Y-17077003D01*
X7961095Y-17086527D01*
X7970619Y-17105574D01*
X7970619Y-17162717D01*
X7961095Y-17181765D01*
X7951571Y-17191288D01*
X7932524Y-17200812D01*
X7903952Y-17200812D01*
X8084905Y-17200812D02*
X8065857Y-17191288D01*
X8056333Y-17172241D01*
X8056333Y-17000812D01*
X8237286Y-17191288D02*
X8218238Y-17200812D01*
X8180143Y-17200812D01*
X8161095Y-17191288D01*
X8151571Y-17172241D01*
X8151571Y-17096050D01*
X8161095Y-17077003D01*
X8180143Y-17067479D01*
X8218238Y-17067479D01*
X8237286Y-17077003D01*
X8246809Y-17096050D01*
X8246809Y-17115098D01*
X8151571Y-17134146D01*
X8323000Y-17191288D02*
X8342048Y-17200812D01*
X8380143Y-17200812D01*
X8399190Y-17191288D01*
X8408714Y-17172241D01*
X8408714Y-17162717D01*
X8399190Y-17143669D01*
X8380143Y-17134146D01*
X8351571Y-17134146D01*
X8332524Y-17124622D01*
X8323000Y-17105574D01*
X8323000Y-17096050D01*
X8332524Y-17077003D01*
X8351571Y-17067479D01*
X8380143Y-17067479D01*
X8399190Y-17077003D01*
X8475381Y-17277003D02*
X8484905Y-17267479D01*
X8503952Y-17238908D01*
X8513476Y-17219860D01*
X8523000Y-17191288D01*
X8532524Y-17143669D01*
X8532524Y-17105574D01*
X8523000Y-17057955D01*
X8513476Y-17029384D01*
X8503952Y-17010336D01*
X8484905Y-16981765D01*
X8475381Y-16972241D01*
X8837286Y-17277003D02*
X8827762Y-17267479D01*
X8808714Y-17238908D01*
X8799190Y-17219860D01*
X8789667Y-17191288D01*
X8780143Y-17143669D01*
X8780143Y-17105574D01*
X8789667Y-17057955D01*
X8799190Y-17029384D01*
X8808714Y-17010336D01*
X8827762Y-16981765D01*
X8837286Y-16972241D01*
X8913476Y-17067479D02*
X8913476Y-17200812D01*
X8913476Y-17086527D02*
X8923000Y-17077003D01*
X8942048Y-17067479D01*
X8970619Y-17067479D01*
X8989667Y-17077003D01*
X8999190Y-17096050D01*
X8999190Y-17200812D01*
X9123000Y-17200812D02*
X9103952Y-17191288D01*
X9094429Y-17181765D01*
X9084905Y-17162717D01*
X9084905Y-17105574D01*
X9094429Y-17086527D01*
X9103952Y-17077003D01*
X9123000Y-17067479D01*
X9151571Y-17067479D01*
X9170619Y-17077003D01*
X9180143Y-17086527D01*
X9189667Y-17105574D01*
X9189667Y-17162717D01*
X9180143Y-17181765D01*
X9170619Y-17191288D01*
X9151571Y-17200812D01*
X9123000Y-17200812D01*
X9246810Y-17067479D02*
X9323000Y-17067479D01*
X9275381Y-17000812D02*
X9275381Y-17172241D01*
X9284905Y-17191288D01*
X9303952Y-17200812D01*
X9323000Y-17200812D01*
X9542048Y-17067479D02*
X9542048Y-17267479D01*
X9542048Y-17077003D02*
X9561095Y-17067479D01*
X9599190Y-17067479D01*
X9618238Y-17077003D01*
X9627762Y-17086527D01*
X9637286Y-17105574D01*
X9637286Y-17162717D01*
X9627762Y-17181765D01*
X9618238Y-17191288D01*
X9599190Y-17200812D01*
X9561095Y-17200812D01*
X9542048Y-17191288D01*
X9751571Y-17200812D02*
X9732524Y-17191288D01*
X9723000Y-17172241D01*
X9723000Y-17000812D01*
X9913476Y-17200812D02*
X9913476Y-17096050D01*
X9903952Y-17077003D01*
X9884905Y-17067479D01*
X9846810Y-17067479D01*
X9827762Y-17077003D01*
X9913476Y-17191288D02*
X9894429Y-17200812D01*
X9846810Y-17200812D01*
X9827762Y-17191288D01*
X9818238Y-17172241D01*
X9818238Y-17153193D01*
X9827762Y-17134146D01*
X9846810Y-17124622D01*
X9894429Y-17124622D01*
X9913476Y-17115098D01*
X9980143Y-17067479D02*
X10056333Y-17067479D01*
X10008714Y-17000812D02*
X10008714Y-17172241D01*
X10018238Y-17191288D01*
X10037286Y-17200812D01*
X10056333Y-17200812D01*
X10199190Y-17191288D02*
X10180143Y-17200812D01*
X10142048Y-17200812D01*
X10123000Y-17191288D01*
X10113476Y-17172241D01*
X10113476Y-17096050D01*
X10123000Y-17077003D01*
X10142048Y-17067479D01*
X10180143Y-17067479D01*
X10199190Y-17077003D01*
X10208714Y-17096050D01*
X10208714Y-17115098D01*
X10113476Y-17134146D01*
X10380143Y-17200812D02*
X10380143Y-17000812D01*
X10380143Y-17191288D02*
X10361095Y-17200812D01*
X10323000Y-17200812D01*
X10303952Y-17191288D01*
X10294429Y-17181765D01*
X10284905Y-17162717D01*
X10284905Y-17105574D01*
X10294429Y-17086527D01*
X10303952Y-17077003D01*
X10323000Y-17067479D01*
X10361095Y-17067479D01*
X10380143Y-17077003D01*
X10456333Y-17277003D02*
X10465857Y-17267479D01*
X10484905Y-17238908D01*
X10494429Y-17219860D01*
X10503952Y-17191288D01*
X10513476Y-17143669D01*
X10513476Y-17105574D01*
X10503952Y-17057955D01*
X10494429Y-17029384D01*
X10484905Y-17010336D01*
X10465857Y-16981765D01*
X10456333Y-16972241D01*
X3483711Y-17501048D02*
X3483711Y-17359625D01*
X3342289Y-17359625D01*
X3342289Y-17501048D01*
X3483711Y-17501048D01*
X3751571Y-17320812D02*
X3875381Y-17320812D01*
X3808714Y-17397003D01*
X3837286Y-17397003D01*
X3856333Y-17406527D01*
X3865857Y-17416050D01*
X3875381Y-17435098D01*
X3875381Y-17482717D01*
X3865857Y-17501765D01*
X3856333Y-17511288D01*
X3837286Y-17520812D01*
X3780143Y-17520812D01*
X3761095Y-17511288D01*
X3751571Y-17501765D01*
X3961095Y-17501765D02*
X3970619Y-17511288D01*
X3961095Y-17520812D01*
X3951571Y-17511288D01*
X3961095Y-17501765D01*
X3961095Y-17520812D01*
X4142048Y-17387479D02*
X4142048Y-17520812D01*
X4094428Y-17311288D02*
X4046809Y-17454146D01*
X4170619Y-17454146D01*
X4237286Y-17339860D02*
X4246810Y-17330336D01*
X4265857Y-17320812D01*
X4313476Y-17320812D01*
X4332524Y-17330336D01*
X4342048Y-17339860D01*
X4351571Y-17358908D01*
X4351571Y-17377955D01*
X4342048Y-17406527D01*
X4227762Y-17520812D01*
X4351571Y-17520812D01*
X4446810Y-17520812D02*
X4484905Y-17520812D01*
X4503952Y-17511288D01*
X4513476Y-17501765D01*
X4532524Y-17473193D01*
X4542048Y-17435098D01*
X4542048Y-17358908D01*
X4532524Y-17339860D01*
X4523000Y-17330336D01*
X4503952Y-17320812D01*
X4465857Y-17320812D01*
X4446810Y-17330336D01*
X4437286Y-17339860D01*
X4427762Y-17358908D01*
X4427762Y-17406527D01*
X4437286Y-17425574D01*
X4446810Y-17435098D01*
X4465857Y-17444622D01*
X4503952Y-17444622D01*
X4523000Y-17435098D01*
X4532524Y-17425574D01*
X4542048Y-17406527D01*
X4627762Y-17520812D02*
X4627762Y-17387479D01*
X4627762Y-17406527D02*
X4637286Y-17397003D01*
X4656333Y-17387479D01*
X4684905Y-17387479D01*
X4703952Y-17397003D01*
X4713476Y-17416050D01*
X4713476Y-17520812D01*
X4713476Y-17416050D02*
X4723000Y-17397003D01*
X4742048Y-17387479D01*
X4770619Y-17387479D01*
X4789667Y-17397003D01*
X4799190Y-17416050D01*
X4799190Y-17520812D01*
X4894429Y-17520812D02*
X4894429Y-17387479D01*
X4894429Y-17406527D02*
X4903952Y-17397003D01*
X4923000Y-17387479D01*
X4951571Y-17387479D01*
X4970619Y-17397003D01*
X4980143Y-17416050D01*
X4980143Y-17520812D01*
X4980143Y-17416050D02*
X4989667Y-17397003D01*
X5008714Y-17387479D01*
X5037286Y-17387479D01*
X5056333Y-17397003D01*
X5065857Y-17416050D01*
X5065857Y-17520812D01*
X5456333Y-17311288D02*
X5284905Y-17568431D01*
X5713476Y-17320812D02*
X5732524Y-17320812D01*
X5751571Y-17330336D01*
X5761095Y-17339860D01*
X5770619Y-17358908D01*
X5780143Y-17397003D01*
X5780143Y-17444622D01*
X5770619Y-17482717D01*
X5761095Y-17501765D01*
X5751571Y-17511288D01*
X5732524Y-17520812D01*
X5713476Y-17520812D01*
X5694428Y-17511288D01*
X5684905Y-17501765D01*
X5675381Y-17482717D01*
X5665857Y-17444622D01*
X5665857Y-17397003D01*
X5675381Y-17358908D01*
X5684905Y-17339860D01*
X5694428Y-17330336D01*
X5713476Y-17320812D01*
X5865857Y-17501765D02*
X5875381Y-17511288D01*
X5865857Y-17520812D01*
X5856333Y-17511288D01*
X5865857Y-17501765D01*
X5865857Y-17520812D01*
X6065857Y-17520812D02*
X5951571Y-17520812D01*
X6008714Y-17520812D02*
X6008714Y-17320812D01*
X5989667Y-17349384D01*
X5970619Y-17368431D01*
X5951571Y-17377955D01*
X6132524Y-17320812D02*
X6256333Y-17320812D01*
X6189667Y-17397003D01*
X6218238Y-17397003D01*
X6237286Y-17406527D01*
X6246809Y-17416050D01*
X6256333Y-17435098D01*
X6256333Y-17482717D01*
X6246809Y-17501765D01*
X6237286Y-17511288D01*
X6218238Y-17520812D01*
X6161095Y-17520812D01*
X6142048Y-17511288D01*
X6132524Y-17501765D01*
X6437286Y-17320812D02*
X6342048Y-17320812D01*
X6332524Y-17416050D01*
X6342048Y-17406527D01*
X6361095Y-17397003D01*
X6408714Y-17397003D01*
X6427762Y-17406527D01*
X6437286Y-17416050D01*
X6446809Y-17435098D01*
X6446809Y-17482717D01*
X6437286Y-17501765D01*
X6427762Y-17511288D01*
X6408714Y-17520812D01*
X6361095Y-17520812D01*
X6342048Y-17511288D01*
X6332524Y-17501765D01*
X6570619Y-17320812D02*
X6589667Y-17320812D01*
X6608714Y-17330336D01*
X6618238Y-17339860D01*
X6627762Y-17358908D01*
X6637286Y-17397003D01*
X6637286Y-17444622D01*
X6627762Y-17482717D01*
X6618238Y-17501765D01*
X6608714Y-17511288D01*
X6589667Y-17520812D01*
X6570619Y-17520812D01*
X6551571Y-17511288D01*
X6542048Y-17501765D01*
X6532524Y-17482717D01*
X6523000Y-17444622D01*
X6523000Y-17397003D01*
X6532524Y-17358908D01*
X6542048Y-17339860D01*
X6551571Y-17330336D01*
X6570619Y-17320812D01*
X6713476Y-17320812D02*
X6713476Y-17358908D01*
X6789667Y-17320812D02*
X6789667Y-17358908D01*
X7084905Y-17597003D02*
X7075381Y-17587479D01*
X7056333Y-17558908D01*
X7046809Y-17539860D01*
X7037286Y-17511288D01*
X7027762Y-17463669D01*
X7027762Y-17425574D01*
X7037286Y-17377955D01*
X7046809Y-17349384D01*
X7056333Y-17330336D01*
X7075381Y-17301765D01*
X7084905Y-17292241D01*
X7142048Y-17320812D02*
X7265857Y-17320812D01*
X7199190Y-17397003D01*
X7227762Y-17397003D01*
X7246809Y-17406527D01*
X7256333Y-17416050D01*
X7265857Y-17435098D01*
X7265857Y-17482717D01*
X7256333Y-17501765D01*
X7246809Y-17511288D01*
X7227762Y-17520812D01*
X7170619Y-17520812D01*
X7151571Y-17511288D01*
X7142048Y-17501765D01*
X7437286Y-17320812D02*
X7399190Y-17320812D01*
X7380143Y-17330336D01*
X7370619Y-17339860D01*
X7351571Y-17368431D01*
X7342048Y-17406527D01*
X7342048Y-17482717D01*
X7351571Y-17501765D01*
X7361095Y-17511288D01*
X7380143Y-17520812D01*
X7418238Y-17520812D01*
X7437286Y-17511288D01*
X7446809Y-17501765D01*
X7456333Y-17482717D01*
X7456333Y-17435098D01*
X7446809Y-17416050D01*
X7437286Y-17406527D01*
X7418238Y-17397003D01*
X7380143Y-17397003D01*
X7361095Y-17406527D01*
X7351571Y-17416050D01*
X7342048Y-17435098D01*
X7694428Y-17520812D02*
X7694428Y-17320812D01*
X7780143Y-17520812D02*
X7780143Y-17416050D01*
X7770619Y-17397003D01*
X7751571Y-17387479D01*
X7723000Y-17387479D01*
X7703952Y-17397003D01*
X7694428Y-17406527D01*
X7903952Y-17520812D02*
X7884905Y-17511288D01*
X7875381Y-17501765D01*
X7865857Y-17482717D01*
X7865857Y-17425574D01*
X7875381Y-17406527D01*
X7884905Y-17397003D01*
X7903952Y-17387479D01*
X7932524Y-17387479D01*
X7951571Y-17397003D01*
X7961095Y-17406527D01*
X7970619Y-17425574D01*
X7970619Y-17482717D01*
X7961095Y-17501765D01*
X7951571Y-17511288D01*
X7932524Y-17520812D01*
X7903952Y-17520812D01*
X8084905Y-17520812D02*
X8065857Y-17511288D01*
X8056333Y-17492241D01*
X8056333Y-17320812D01*
X8237286Y-17511288D02*
X8218238Y-17520812D01*
X8180143Y-17520812D01*
X8161095Y-17511288D01*
X8151571Y-17492241D01*
X8151571Y-17416050D01*
X8161095Y-17397003D01*
X8180143Y-17387479D01*
X8218238Y-17387479D01*
X8237286Y-17397003D01*
X8246809Y-17416050D01*
X8246809Y-17435098D01*
X8151571Y-17454146D01*
X8323000Y-17511288D02*
X8342048Y-17520812D01*
X8380143Y-17520812D01*
X8399190Y-17511288D01*
X8408714Y-17492241D01*
X8408714Y-17482717D01*
X8399190Y-17463669D01*
X8380143Y-17454146D01*
X8351571Y-17454146D01*
X8332524Y-17444622D01*
X8323000Y-17425574D01*
X8323000Y-17416050D01*
X8332524Y-17397003D01*
X8351571Y-17387479D01*
X8380143Y-17387479D01*
X8399190Y-17397003D01*
X8475381Y-17597003D02*
X8484905Y-17587479D01*
X8503952Y-17558908D01*
X8513476Y-17539860D01*
X8523000Y-17511288D01*
X8532524Y-17463669D01*
X8532524Y-17425574D01*
X8523000Y-17377955D01*
X8513476Y-17349384D01*
X8503952Y-17330336D01*
X8484905Y-17301765D01*
X8475381Y-17292241D01*
X8837286Y-17597003D02*
X8827762Y-17587479D01*
X8808714Y-17558908D01*
X8799190Y-17539860D01*
X8789667Y-17511288D01*
X8780143Y-17463669D01*
X8780143Y-17425574D01*
X8789667Y-17377955D01*
X8799190Y-17349384D01*
X8808714Y-17330336D01*
X8827762Y-17301765D01*
X8837286Y-17292241D01*
X8913476Y-17387479D02*
X8913476Y-17520812D01*
X8913476Y-17406527D02*
X8923000Y-17397003D01*
X8942048Y-17387479D01*
X8970619Y-17387479D01*
X8989667Y-17397003D01*
X8999190Y-17416050D01*
X8999190Y-17520812D01*
X9123000Y-17520812D02*
X9103952Y-17511288D01*
X9094429Y-17501765D01*
X9084905Y-17482717D01*
X9084905Y-17425574D01*
X9094429Y-17406527D01*
X9103952Y-17397003D01*
X9123000Y-17387479D01*
X9151571Y-17387479D01*
X9170619Y-17397003D01*
X9180143Y-17406527D01*
X9189667Y-17425574D01*
X9189667Y-17482717D01*
X9180143Y-17501765D01*
X9170619Y-17511288D01*
X9151571Y-17520812D01*
X9123000Y-17520812D01*
X9246810Y-17387479D02*
X9323000Y-17387479D01*
X9275381Y-17320812D02*
X9275381Y-17492241D01*
X9284905Y-17511288D01*
X9303952Y-17520812D01*
X9323000Y-17520812D01*
X9542048Y-17387479D02*
X9542048Y-17587479D01*
X9542048Y-17397003D02*
X9561095Y-17387479D01*
X9599190Y-17387479D01*
X9618238Y-17397003D01*
X9627762Y-17406527D01*
X9637286Y-17425574D01*
X9637286Y-17482717D01*
X9627762Y-17501765D01*
X9618238Y-17511288D01*
X9599190Y-17520812D01*
X9561095Y-17520812D01*
X9542048Y-17511288D01*
X9751571Y-17520812D02*
X9732524Y-17511288D01*
X9723000Y-17492241D01*
X9723000Y-17320812D01*
X9913476Y-17520812D02*
X9913476Y-17416050D01*
X9903952Y-17397003D01*
X9884905Y-17387479D01*
X9846810Y-17387479D01*
X9827762Y-17397003D01*
X9913476Y-17511288D02*
X9894429Y-17520812D01*
X9846810Y-17520812D01*
X9827762Y-17511288D01*
X9818238Y-17492241D01*
X9818238Y-17473193D01*
X9827762Y-17454146D01*
X9846810Y-17444622D01*
X9894429Y-17444622D01*
X9913476Y-17435098D01*
X9980143Y-17387479D02*
X10056333Y-17387479D01*
X10008714Y-17320812D02*
X10008714Y-17492241D01*
X10018238Y-17511288D01*
X10037286Y-17520812D01*
X10056333Y-17520812D01*
X10199190Y-17511288D02*
X10180143Y-17520812D01*
X10142048Y-17520812D01*
X10123000Y-17511288D01*
X10113476Y-17492241D01*
X10113476Y-17416050D01*
X10123000Y-17397003D01*
X10142048Y-17387479D01*
X10180143Y-17387479D01*
X10199190Y-17397003D01*
X10208714Y-17416050D01*
X10208714Y-17435098D01*
X10113476Y-17454146D01*
X10380143Y-17520812D02*
X10380143Y-17320812D01*
X10380143Y-17511288D02*
X10361095Y-17520812D01*
X10323000Y-17520812D01*
X10303952Y-17511288D01*
X10294429Y-17501765D01*
X10284905Y-17482717D01*
X10284905Y-17425574D01*
X10294429Y-17406527D01*
X10303952Y-17397003D01*
X10323000Y-17387479D01*
X10361095Y-17387479D01*
X10380143Y-17397003D01*
X10456333Y-17597003D02*
X10465857Y-17587479D01*
X10484905Y-17558908D01*
X10494429Y-17539860D01*
X10503952Y-17511288D01*
X10513476Y-17463669D01*
X10513476Y-17425574D01*
X10503952Y-17377955D01*
X10494429Y-17349384D01*
X10484905Y-17330336D01*
X10465857Y-17301765D01*
X10456333Y-17292241D01*
M02*
