G04 #@! TF.GenerationSoftware,KiCad,Pcbnew,(6.0.4-0)*
G04 #@! TF.CreationDate,2022-11-11T23:09:08+01:00*
G04 #@! TF.ProjectId,The-ENDGAME-MX-BAD,5468652d-454e-4444-9741-4d452d4d582d,0_1*
G04 #@! TF.SameCoordinates,Original*
G04 #@! TF.FileFunction,Soldermask,Top*
G04 #@! TF.FilePolarity,Negative*
%FSLAX46Y46*%
G04 Gerber Fmt 4.6, Leading zero omitted, Abs format (unit mm)*
G04 Created by KiCad (PCBNEW (6.0.4-0)) date 2022-11-11 23:09:08*
%MOMM*%
%LPD*%
G01*
G04 APERTURE LIST*
G04 Aperture macros list*
%AMRoundRect*
0 Rectangle with rounded corners*
0 $1 Rounding radius*
0 $2 $3 $4 $5 $6 $7 $8 $9 X,Y pos of 4 corners*
0 Add a 4 corners polygon primitive as box body*
4,1,4,$2,$3,$4,$5,$6,$7,$8,$9,$2,$3,0*
0 Add four circle primitives for the rounded corners*
1,1,$1+$1,$2,$3*
1,1,$1+$1,$4,$5*
1,1,$1+$1,$6,$7*
1,1,$1+$1,$8,$9*
0 Add four rect primitives between the rounded corners*
20,1,$1+$1,$2,$3,$4,$5,0*
20,1,$1+$1,$4,$5,$6,$7,0*
20,1,$1+$1,$6,$7,$8,$9,0*
20,1,$1+$1,$8,$9,$2,$3,0*%
G04 Aperture macros list end*
%ADD10C,1.701800*%
%ADD11C,3.000000*%
%ADD12C,3.429000*%
%ADD13C,2.032000*%
%ADD14R,1.700000X1.000000*%
%ADD15R,1.752600X1.752600*%
%ADD16C,1.752600*%
%ADD17C,0.900000*%
%ADD18RoundRect,0.250000X0.350000X0.625000X-0.350000X0.625000X-0.350000X-0.625000X0.350000X-0.625000X0*%
%ADD19O,1.200000X1.750000*%
G04 APERTURE END LIST*
D10*
X110372768Y-92875193D03*
X99613144Y-90588165D03*
D11*
X110663363Y-89103184D03*
X106230031Y-85911701D03*
D12*
X104992956Y-91731679D03*
D13*
X103766277Y-97502750D03*
X99312154Y-94409081D03*
D11*
X244307659Y-100960589D03*
D12*
X239307659Y-104710589D03*
D11*
X239307659Y-98760589D03*
D10*
X233807659Y-104710589D03*
X244807659Y-104710589D03*
D13*
X239307659Y-110610589D03*
X234307659Y-108510589D03*
D11*
X239307660Y-64760588D03*
D10*
X244807660Y-70710588D03*
D12*
X239307660Y-70710588D03*
D11*
X244307660Y-66960588D03*
D10*
X233807660Y-70710588D03*
D13*
X239307660Y-76610588D03*
X234307660Y-74510588D03*
D12*
X47106660Y-70702588D03*
D10*
X52606660Y-70702588D03*
D11*
X47106660Y-64752588D03*
D10*
X41606660Y-70702588D03*
D11*
X52106660Y-66952588D03*
D13*
X47106660Y-76602588D03*
X42106660Y-74502588D03*
D11*
X123216869Y-138258693D03*
D10*
X112166650Y-139743674D03*
X122926274Y-142030702D03*
D11*
X118783537Y-135067210D03*
D12*
X117546462Y-140887188D03*
D13*
X116319783Y-146658259D03*
X111865660Y-143564590D03*
D11*
X166531257Y-108247091D03*
X171879401Y-109359457D03*
D10*
X162388520Y-115210583D03*
X173148144Y-112923555D03*
D12*
X167768332Y-114067069D03*
D13*
X168995011Y-119838140D03*
X163667658Y-118823588D03*
D11*
X119883541Y-108242207D03*
X124316873Y-111433690D03*
D10*
X124026278Y-115205699D03*
D12*
X118646466Y-114062185D03*
D10*
X113266654Y-112918671D03*
D13*
X117419787Y-119833256D03*
X112965664Y-116739587D03*
D11*
X95876821Y-64600303D03*
X91334809Y-61565485D03*
D12*
X90301602Y-67425091D03*
D10*
X84885159Y-66470026D03*
X95718045Y-68380156D03*
D13*
X89277078Y-73235457D03*
X84717700Y-70299120D03*
D10*
X190696356Y-68389678D03*
D12*
X196112799Y-67434613D03*
D10*
X201529242Y-66479548D03*
D11*
X200385657Y-62873343D03*
X195079592Y-61575007D03*
D13*
X197137323Y-73244979D03*
X191848623Y-72045123D03*
D11*
X72912056Y-81509362D03*
D10*
X73017335Y-85291084D03*
D11*
X68169409Y-78798772D03*
D12*
X67547465Y-84716177D03*
D10*
X62077595Y-84141270D03*
D13*
X66930747Y-90583856D03*
X62177647Y-87972718D03*
D11*
X51610658Y-128259589D03*
D10*
X57110658Y-134209589D03*
D12*
X51610658Y-134209589D03*
D10*
X46110658Y-134209589D03*
D11*
X56610658Y-130459589D03*
D13*
X51610658Y-140109589D03*
X46610658Y-138009589D03*
D10*
X172512523Y-76255562D03*
D11*
X176655260Y-69292070D03*
D12*
X177892335Y-75112048D03*
D11*
X182003404Y-70404436D03*
D10*
X183272147Y-73968534D03*
D13*
X179119014Y-80883119D03*
X173791661Y-79868567D03*
D11*
X102695541Y-102540209D03*
D10*
X96078654Y-107216673D03*
D12*
X101458466Y-108360187D03*
D11*
X107128873Y-105731692D03*
D10*
X106838278Y-109503701D03*
D13*
X100231787Y-114131258D03*
X95777664Y-111037589D03*
D11*
X221673604Y-63566071D03*
D12*
X217092976Y-67818170D03*
D10*
X222562846Y-67243263D03*
X211623106Y-68393077D03*
D11*
X216471032Y-61900765D03*
D13*
X217709694Y-73685849D03*
X212517575Y-72119996D03*
D10*
X52606663Y-87702586D03*
D12*
X47106663Y-87702586D03*
D11*
X52106663Y-83952586D03*
X47106663Y-81752586D03*
D10*
X41606663Y-87702586D03*
D13*
X47106663Y-93602586D03*
X42106663Y-91502586D03*
D11*
X131385870Y-78176677D03*
D12*
X125715463Y-80805172D03*
D11*
X126952538Y-74985194D03*
D10*
X131095275Y-81948686D03*
X120335651Y-79661658D03*
D13*
X124488784Y-86576243D03*
X120034661Y-83482574D03*
D10*
X240305660Y-134211587D03*
D11*
X234805660Y-128261587D03*
D12*
X234805660Y-134211587D03*
D10*
X229305660Y-134211587D03*
D11*
X239805660Y-130461587D03*
D13*
X234805660Y-140111587D03*
X229805660Y-138011587D03*
D10*
X193648370Y-85131407D03*
D11*
X203337671Y-79615072D03*
D10*
X204481256Y-83221277D03*
D11*
X198031606Y-78316736D03*
D12*
X199064813Y-84176342D03*
D13*
X200089337Y-89986708D03*
X194800637Y-88786852D03*
D10*
X226116810Y-101057002D03*
X215177070Y-102206816D03*
D12*
X220646940Y-101631909D03*
D11*
X225227568Y-97379810D03*
X220024996Y-95714504D03*
D13*
X221263658Y-107499588D03*
X216071539Y-105933735D03*
D11*
X127851364Y-94805183D03*
D10*
X127560769Y-98577192D03*
D12*
X122180957Y-97433678D03*
D11*
X123418032Y-91613700D03*
D10*
X116801145Y-96290164D03*
D13*
X120954278Y-103204749D03*
X116500155Y-100111080D03*
D10*
X207433279Y-99963016D03*
D11*
X200983629Y-95058475D03*
D10*
X196600393Y-101873146D03*
D12*
X202016836Y-100918081D03*
D11*
X206289694Y-96356811D03*
D13*
X203041360Y-106728447D03*
X197752660Y-105528591D03*
D10*
X158854023Y-98582071D03*
X169613647Y-96295043D03*
D11*
X168344904Y-92730945D03*
X162996760Y-91618579D03*
D12*
X164233835Y-97438557D03*
D13*
X165460514Y-103209628D03*
X160133161Y-102195076D03*
D11*
X47106660Y-98752588D03*
X52106660Y-100952588D03*
D12*
X47106660Y-104702588D03*
D10*
X52606660Y-104702588D03*
X41606660Y-104702588D03*
D13*
X47106660Y-110602588D03*
X42106660Y-108502588D03*
D12*
X65770474Y-101623045D03*
D11*
X71135065Y-98416230D03*
X66392418Y-95705640D03*
D10*
X60300604Y-101048138D03*
X71240344Y-102197952D03*
D13*
X65153756Y-107490724D03*
X60400656Y-104879586D03*
D10*
X190341147Y-107225556D03*
D12*
X184961335Y-108369070D03*
D11*
X189072404Y-103661458D03*
X183724260Y-102549092D03*
D10*
X179581523Y-109512584D03*
D13*
X186188014Y-114140141D03*
X180860661Y-113125589D03*
D10*
X185500520Y-137356582D03*
D12*
X190880332Y-136213068D03*
D11*
X194991401Y-131505456D03*
X189643257Y-130393090D03*
D10*
X196260144Y-135069554D03*
D13*
X192107011Y-141984139D03*
X186779658Y-140969587D03*
D11*
X218248017Y-78807641D03*
D10*
X224339831Y-84150139D03*
D12*
X218869961Y-84725046D03*
D11*
X223450589Y-80472947D03*
D10*
X213400091Y-85299953D03*
D13*
X219486679Y-90592725D03*
X214294560Y-89026872D03*
D14*
X134331031Y-151156408D03*
X128031031Y-151156408D03*
X128031031Y-147356408D03*
X134331031Y-147356408D03*
D10*
X155319524Y-81953564D03*
D12*
X160699336Y-80810050D03*
D10*
X166079148Y-79666536D03*
D11*
X164810405Y-76102438D03*
X159462261Y-74990072D03*
D13*
X161926015Y-86581121D03*
X156598662Y-85566569D03*
D11*
X74689040Y-64602493D03*
D12*
X69324449Y-67809308D03*
D10*
X74794319Y-68384215D03*
D11*
X69946393Y-61891903D03*
D10*
X63854579Y-67234401D03*
D13*
X68707731Y-73676987D03*
X63954631Y-71065849D03*
D10*
X244807661Y-87710587D03*
X233807661Y-87710587D03*
D11*
X244307661Y-83960587D03*
X239307661Y-81760587D03*
D12*
X239307661Y-87710587D03*
D13*
X239307661Y-93610587D03*
X234307661Y-91510587D03*
D10*
X78981118Y-99953499D03*
D11*
X85430768Y-95048958D03*
D10*
X89814004Y-101863629D03*
D11*
X89972780Y-98083776D03*
D12*
X84397561Y-100908564D03*
D13*
X83373037Y-106718930D03*
X78813659Y-103782593D03*
D10*
X176047021Y-92884073D03*
D11*
X185537902Y-87032947D03*
X180189758Y-85920581D03*
D10*
X186806645Y-90597045D03*
D12*
X181426833Y-91740559D03*
D13*
X182653512Y-97511630D03*
X177326159Y-96497078D03*
D11*
X96772540Y-130392216D03*
X101205872Y-133583699D03*
D12*
X95535465Y-136212194D03*
D10*
X100915277Y-137355708D03*
X90155653Y-135068680D03*
D13*
X94308786Y-141983265D03*
X89854663Y-138889596D03*
D10*
X92766026Y-85121891D03*
D11*
X88382790Y-78307220D03*
D12*
X87349583Y-84166826D03*
D11*
X92924802Y-81342038D03*
D10*
X81933140Y-83211761D03*
D13*
X86325059Y-89977192D03*
X81765681Y-87040855D03*
D11*
X109764536Y-69283196D03*
D10*
X113907273Y-76246688D03*
D12*
X108527461Y-75103174D03*
D10*
X103147649Y-73959660D03*
D11*
X114197868Y-72474679D03*
D13*
X107300782Y-80874245D03*
X102846659Y-77780576D03*
D11*
X172977402Y-136183459D03*
D10*
X174246145Y-139747557D03*
D12*
X168866333Y-140891071D03*
D10*
X163486521Y-142034585D03*
D11*
X167629258Y-135071093D03*
D13*
X170093012Y-146662142D03*
X164765659Y-145647590D03*
D15*
X150832657Y-114940588D03*
D16*
X150832657Y-117480588D03*
X150832657Y-120020588D03*
X150832657Y-122560588D03*
X150832657Y-125100588D03*
X150832657Y-127640588D03*
X150832657Y-130180588D03*
X150832657Y-132720588D03*
X150832657Y-135260588D03*
X150832657Y-137800588D03*
X150832657Y-140340588D03*
X150832657Y-142880588D03*
X135592657Y-142880588D03*
X135592657Y-140340588D03*
X135592657Y-137800588D03*
X135592657Y-135260588D03*
X135592657Y-132720588D03*
X135592657Y-130180588D03*
X135592657Y-127640588D03*
X135592657Y-125100588D03*
X135592657Y-122560588D03*
X135592657Y-120020588D03*
X135592657Y-117480588D03*
X135592657Y-114940588D03*
D17*
X120122030Y-52033406D03*
X117122030Y-52033406D03*
D18*
X110820032Y-52103408D03*
D19*
X108820032Y-52103408D03*
M02*
