M48
; DRILL file {KiCad (6.0.4-0)} date Friday, 11 November 2022 at 23:09:12
; FORMAT={-:-/ absolute / metric / decimal}
; #@! TF.CreationDate,2022-11-11T23:09:12+01:00
; #@! TF.GenerationSoftware,Kicad,Pcbnew,(6.0.4-0)
; #@! TF.FileFunction,NonPlated,1,2,NPTH
FMAT,2
METRIC
; #@! TA.AperFunction,NonPlated,NPTH,ComponentDrill
T1C0.900
; #@! TA.AperFunction,NonPlated,NPTH,ComponentDrill
T2C1.702
; #@! TA.AperFunction,NonPlated,NPTH,ComponentDrill
T3C3.000
; #@! TA.AperFunction,NonPlated,NPTH,ComponentDrill
T4C3.429
%
G90
G05
T1
X117.122Y-52.033
X120.122Y-52.033
T2
X41.607Y-70.703
X41.607Y-104.703
X41.607Y-87.703
X46.111Y-134.21
X52.607Y-70.703
X52.607Y-104.703
X52.607Y-87.703
X57.111Y-134.21
X60.301Y-101.048
X62.078Y-84.141
X63.855Y-67.234
X71.24Y-102.198
X73.017Y-85.291
X74.794Y-68.384
X78.981Y-99.953
X81.933Y-83.212
X84.885Y-66.47
X89.814Y-101.864
X90.156Y-135.069
X92.766Y-85.122
X95.718Y-68.38
X96.079Y-107.217
X99.613Y-90.588
X100.915Y-137.356
X103.148Y-73.96
X106.838Y-109.504
X110.373Y-92.875
X112.167Y-139.744
X113.267Y-112.919
X113.907Y-76.247
X116.801Y-96.29
X120.336Y-79.662
X122.926Y-142.031
X124.026Y-115.206
X127.561Y-98.577
X131.095Y-81.949
X155.32Y-81.954
X158.854Y-98.582
X162.389Y-115.211
X163.487Y-142.035
X166.079Y-79.667
X169.614Y-96.295
X172.513Y-76.256
X173.148Y-112.924
X174.246Y-139.748
X176.047Y-92.884
X179.582Y-109.513
X183.272Y-73.969
X185.501Y-137.357
X186.807Y-90.597
X190.341Y-107.226
X190.696Y-68.39
X193.648Y-85.131
X196.26Y-135.07
X196.6Y-101.873
X201.529Y-66.48
X204.481Y-83.221
X207.433Y-99.963
X211.623Y-68.393
X213.4Y-85.3
X215.177Y-102.207
X222.563Y-67.243
X224.34Y-84.15
X226.117Y-101.057
X229.306Y-134.212
X233.808Y-104.711
X233.808Y-70.711
X233.808Y-87.711
X240.306Y-134.212
X244.808Y-104.711
X244.808Y-70.711
X244.808Y-87.711
T3
X47.107Y-64.753
X47.107Y-98.753
X47.107Y-81.753
X51.611Y-128.26
X52.107Y-66.953
X52.107Y-100.953
X52.107Y-83.953
X56.611Y-130.46
X66.392Y-95.706
X68.169Y-78.799
X69.946Y-61.892
X71.135Y-98.416
X72.912Y-81.509
X74.689Y-64.602
X85.431Y-95.049
X88.383Y-78.307
X89.973Y-98.084
X91.335Y-61.565
X92.925Y-81.342
X95.877Y-64.6
X96.773Y-130.392
X101.206Y-133.584
X102.696Y-102.54
X106.23Y-85.912
X107.129Y-105.732
X109.765Y-69.283
X110.663Y-89.103
X114.198Y-72.475
X118.784Y-135.067
X119.884Y-108.242
X123.217Y-138.259
X123.418Y-91.614
X124.317Y-111.434
X126.953Y-74.985
X127.851Y-94.805
X131.386Y-78.177
X159.462Y-74.99
X162.997Y-91.619
X164.81Y-76.102
X166.531Y-108.247
X167.629Y-135.071
X168.345Y-92.731
X171.879Y-109.359
X172.977Y-136.183
X176.655Y-69.292
X180.19Y-85.921
X182.003Y-70.404
X183.724Y-102.549
X185.538Y-87.033
X189.072Y-103.661
X189.643Y-130.393
X194.991Y-131.505
X195.08Y-61.575
X198.032Y-78.317
X200.386Y-62.873
X200.984Y-95.058
X203.338Y-79.615
X206.29Y-96.357
X216.471Y-61.901
X218.248Y-78.808
X220.025Y-95.715
X221.674Y-63.566
X223.451Y-80.473
X225.228Y-97.38
X234.806Y-128.262
X239.308Y-98.761
X239.308Y-64.761
X239.308Y-81.761
X239.806Y-130.462
X244.308Y-100.961
X244.308Y-66.961
X244.308Y-83.961
T4
X47.107Y-70.703
X47.107Y-104.703
X47.107Y-87.703
X51.611Y-134.21
X65.77Y-101.623
X67.547Y-84.716
X69.324Y-67.809
X84.398Y-100.909
X87.35Y-84.167
X90.302Y-67.425
X95.535Y-136.212
X101.458Y-108.36
X104.993Y-91.732
X108.527Y-75.103
X117.546Y-140.887
X118.646Y-114.062
X122.181Y-97.434
X125.715Y-80.805
X160.699Y-80.81
X164.234Y-97.439
X167.768Y-114.067
X168.866Y-140.891
X177.892Y-75.112
X181.427Y-91.741
X184.961Y-108.369
X190.88Y-136.213
X196.113Y-67.435
X199.065Y-84.176
X202.017Y-100.918
X217.093Y-67.818
X218.87Y-84.725
X220.647Y-101.632
X234.806Y-134.212
X239.308Y-104.711
X239.308Y-70.711
X239.308Y-87.711
T0
M30
